<svg baseProfile="full" height="200" version="1.1" width="500" xmlns="http://www.w3.org/2000/svg" xmlns:ev="http://www.w3.org/2001/xml-events" xmlns:xlink="http://www.w3.org/1999/xlink"><defs /><path d="M 0.0,0.0 C 500.0,0.0 500.0,200.0 0.0,200.0 Z" fill="rgb(254,254,254)" stroke="none" stroke-width="0.0" /><path d="M 0.0,0.0 C 31.0,0.0 31.0,101.0 0.0,101.0 Z" fill="rgb(220,65,30)" stroke="none" stroke-width="0.0" /><path d="M 0.0,0.0 C 31.0,0.0 31.0,91.0 0.0,91.0 Z" fill="rgb(220,65,30)" stroke="none" stroke-width="0.0" /><path d="M 0.0,0.0 C 31.0,0.0 31.0,81.0 0.0,81.0 Z" fill="rgb(220,65,30)" stroke="none" stroke-width="0.0" /><path d="M 0.0,0.0 C 31.0,0.0 31.0,71.0 0.0,71.0 Z" fill="rgb(220,65,30)" stroke="none" stroke-width="0.0" /><path d="M 0.0,0.0 C 3.25,0.5625 11.0,0.0 13.0,1.0 C 12.0,8.0 7.0,8.0 7.0,6.0 C 4.0,8.0 0.0,8.0 0.0,0.0 Z" fill="rgb(207,207,207)" stroke="none" stroke-width="0.0" /><path d="M 0.0,0.0 C 11.0,0.0 8.0,2.0 8.0,6.0 C 12.0,5.0 11.0,8.0 0.0,8.0 Z" fill="rgb(73,73,73)" stroke="none" stroke-width="0.0" /><path d="M 0.0,0.0 C 2.1875,0.5625 10.0,0.0 10.0,3.0 C 7.0,4.0 4.0,8.0 3.0,5.0 C 1.0,5.0 0.0,8.0 0.0,0.0 Z" fill="rgb(116,116,116)" stroke="none" stroke-width="0.0" /><path d="M 0.0,0.0 C 5.0,0.0 7.0,6.0 6.0,8.0 Z" fill="rgb(68,68,68)" stroke="none" stroke-width="0.0" /><path d="M 0.0,0.0 C 7.0,0.0 9.0,8.0 7.0,8.0 C 5.0,4.0 1.0,5.0 0.0,8.0 Z" fill="rgb(106,106,106)" stroke="none" stroke-width="0.0" /><path d="M 0.0,0.0 C 4.0,1.0 4.0,7.0 -1.0,8.0 C -2.0,5.0 0.0,4.0 0.0,0.0 Z" fill="rgb(146,146,146)" stroke="none" stroke-width="0.0" /><path d="M 0.0,0.0 C 0.0,6.0 -5.0,6.0 -5.0,1.0 Z" fill="rgb(203,203,203)" stroke="none" stroke-width="0.0" /><path d="M 0.0,0.0 C 4.0,1.0 3.0,6.0 0.0,6.0 Z" fill="rgb(247,247,247)" stroke="none" stroke-width="0.0" /><path d="M 0.0,0.0 C 4.0,1.0 3.0,6.0 0.0,6.0 Z" fill="rgb(247,247,247)" stroke="none" stroke-width="0.0" /><path d="M 0.0,0.0 C 5.0,1.0 5.0,6.0 4.0,2.0 C -1.0,3.0 -2.0,6.0 0.0,0.0 Z" fill="rgb(106,106,106)" stroke="none" stroke-width="0.0" /><path d="M 0.0,0.0 C 5.0,1.0 4.0,3.0 1.0,4.0 Z" fill="rgb(125,125,125)" stroke="none" stroke-width="0.0" /></svg>