<?xml version="1.0" encoding="utf-8" ?>
<svg baseProfile="full" height="800" version="1.1" width="800" xmlns="http://www.w3.org/2000/svg" xmlns:ev="http://www.w3.org/2001/xml-events" xmlns:xlink="http://www.w3.org/1999/xlink"><defs /><path d="M 0.0,0.0 C 0.0,799.0 799.0,799.0 799.0,0.0 Z" fill="rgb(64770,46920,23460)" stroke="none" stroke-width="0" /><path d="M 359.0,621.0 C 358.0,622.0 354.0,622.0 372.0,622.0 C 371.0,622.0 370.0,621.0 369.0,621.0 C 368.0,622.0 367.0,621.0 366.0,621.0 C 365.0,622.0 364.0,621.0 363.0,622.0 Z" fill="rgb(22440,8925,19380)" stroke="none" stroke-width="0" /><path d="M 432.0,618.0 C 432.0,620.0 431.0,621.0 431.0,622.0 C 430.0,623.0 430.0,624.0 427.0,627.0 C 426.0,627.0 425.0,628.0 424.0,628.0 C 423.0,629.0 422.0,629.0 423.0,629.0 C 424.0,630.0 423.0,629.0 424.0,628.0 C 425.0,628.0 426.0,629.0 425.0,628.0 C 426.0,627.0 427.0,627.0 428.0,628.0 C 431.0,625.0 431.0,624.0 432.0,623.0 C 431.0,622.0 431.0,621.0 432.0,620.0 C 433.0,621.0 433.0,620.0 432.0,619.0 Z" fill="rgb(22440,8925,19380)" stroke="none" stroke-width="0" /><path d="M 415.0,614.0 C 415.0,615.0 413.0,617.0 414.0,618.0 C 413.0,617.0 414.0,616.0 416.0,616.0 C 417.0,617.0 417.0,618.0 418.0,618.0 C 419.0,619.0 420.0,619.0 420.0,618.0 C 419.0,617.0 418.0,618.0 417.0,617.0 Z" fill="rgb(22440,8925,19380)" stroke="none" stroke-width="0" /><path d="M 364.0,603.0 C 365.0,604.0 363.0,606.0 362.0,605.0 C 362.0,604.0 360.0,604.0 360.0,606.0 C 359.0,607.0 358.0,607.0 359.0,608.0 C 359.0,609.0 359.0,608.0 360.0,607.0 C 361.0,607.0 361.0,606.0 362.0,605.0 C 363.0,606.0 363.0,607.0 364.0,606.0 C 365.0,607.0 365.0,608.0 364.0,609.0 C 365.0,609.0 365.0,605.0 366.0,604.0 C 367.0,604.0 368.0,605.0 368.0,607.0 C 369.0,608.0 368.0,607.0 370.0,605.0 C 371.0,605.0 372.0,606.0 373.0,605.0 C 375.0,607.0 379.0,607.0 380.0,606.0 C 381.0,607.0 387.0,607.0 389.0,605.0 C 390.0,605.0 391.0,606.0 391.0,611.0 C 392.0,612.0 391.0,613.0 392.0,614.0 C 392.0,612.0 391.0,611.0 391.0,606.0 C 390.0,605.0 388.0,605.0 387.0,604.0 C 387.0,605.0 388.0,606.0 387.0,607.0 C 384.0,607.0 383.0,606.0 377.0,606.0 C 376.0,607.0 375.0,607.0 374.0,606.0 C 375.0,605.0 374.0,605.0 373.0,604.0 C 372.0,604.0 371.0,605.0 370.0,605.0 C 369.0,604.0 368.0,604.0 367.0,603.0 Z" fill="rgb(22440,8925,19380)" stroke="none" stroke-width="0" /><path d="M 368.0,462.0 C 367.0,463.0 366.0,463.0 367.0,464.0 C 367.0,470.0 368.0,471.0 368.0,476.0 C 368.0,467.0 367.0,466.0 367.0,465.0 C 368.0,464.0 369.0,464.0 368.0,463.0 Z" fill="rgb(22440,8925,19380)" stroke="none" stroke-width="0" /><path d="M 393.0,458.0 C 393.0,464.0 391.0,466.0 390.0,465.0 C 389.0,466.0 385.0,466.0 384.0,465.0 C 385.0,464.0 377.0,464.0 376.0,465.0 C 374.0,465.0 373.0,464.0 374.0,463.0 C 375.0,463.0 372.0,463.0 371.0,464.0 C 373.0,464.0 374.0,465.0 374.0,469.0 C 373.0,470.0 372.0,469.0 372.0,471.0 C 373.0,472.0 373.0,474.0 372.0,475.0 C 371.0,474.0 371.0,473.0 371.0,474.0 C 372.0,475.0 372.0,476.0 371.0,477.0 C 370.0,477.0 371.0,478.0 370.0,479.0 C 369.0,479.0 368.0,480.0 366.0,480.0 C 366.0,485.0 367.0,486.0 367.0,490.0 C 367.0,482.0 369.0,480.0 371.0,482.0 C 371.0,487.0 370.0,488.0 370.0,499.0 C 369.0,500.0 370.0,501.0 369.0,502.0 C 369.0,549.0 370.0,550.0 370.0,561.0 C 371.0,562.0 371.0,572.0 372.0,573.0 C 372.0,582.0 373.0,583.0 373.0,588.0 C 374.0,589.0 374.0,594.0 375.0,595.0 C 374.0,596.0 374.0,597.0 373.0,598.0 C 374.0,598.0 375.0,599.0 375.0,601.0 C 375.0,598.0 376.0,597.0 384.0,597.0 C 385.0,598.0 386.0,597.0 389.0,600.0 C 389.0,601.0 389.0,598.0 390.0,597.0 C 391.0,598.0 391.0,597.0 392.0,596.0 C 393.0,597.0 392.0,596.0 392.0,594.0 C 393.0,593.0 394.0,594.0 394.0,593.0 C 393.0,592.0 393.0,587.0 394.0,586.0 C 395.0,587.0 395.0,581.0 394.0,580.0 C 394.0,574.0 395.0,573.0 396.0,574.0 C 396.0,577.0 396.0,568.0 395.0,567.0 C 396.0,566.0 396.0,565.0 395.0,564.0 C 395.0,548.0 396.0,547.0 397.0,548.0 C 397.0,554.0 397.0,542.0 396.0,541.0 C 396.0,508.0 397.0,507.0 398.0,508.0 C 398.0,493.0 400.0,491.0 401.0,491.0 C 402.0,492.0 401.0,493.0 402.0,492.0 C 403.0,492.0 404.0,493.0 403.0,494.0 C 404.0,493.0 403.0,492.0 404.0,491.0 C 405.0,491.0 406.0,492.0 407.0,492.0 C 411.0,496.0 411.0,497.0 412.0,498.0 C 412.0,502.0 413.0,503.0 413.0,507.0 C 414.0,508.0 414.0,515.0 415.0,516.0 C 415.0,525.0 416.0,526.0 416.0,544.0 C 417.0,545.0 417.0,571.0 418.0,572.0 C 417.0,573.0 418.0,574.0 417.0,575.0 C 418.0,576.0 417.0,577.0 417.0,588.0 C 418.0,589.0 418.0,591.0 417.0,592.0 C 417.0,597.0 416.0,598.0 415.0,597.0 C 415.0,595.0 415.0,599.0 416.0,599.0 C 418.0,601.0 418.0,604.0 419.0,605.0 C 418.0,606.0 416.0,606.0 416.0,607.0 C 415.0,608.0 414.0,607.0 413.0,608.0 C 413.0,609.0 412.0,610.0 412.0,611.0 C 410.0,613.0 409.0,612.0 407.0,614.0 C 408.0,613.0 409.0,614.0 417.0,606.0 C 418.0,607.0 418.0,608.0 419.0,607.0 C 419.0,603.0 418.0,602.0 418.0,601.0 C 419.0,600.0 420.0,600.0 421.0,599.0 C 425.0,599.0 426.0,600.0 425.0,601.0 C 424.0,601.0 430.0,601.0 431.0,600.0 C 432.0,601.0 433.0,601.0 432.0,600.0 C 433.0,599.0 435.0,599.0 436.0,600.0 C 435.0,599.0 435.0,596.0 436.0,595.0 C 437.0,596.0 437.0,597.0 437.0,595.0 C 436.0,594.0 436.0,590.0 437.0,589.0 C 438.0,589.0 438.0,588.0 437.0,587.0 C 437.0,578.0 438.0,577.0 439.0,578.0 C 439.0,568.0 438.0,567.0 438.0,560.0 C 439.0,559.0 440.0,560.0 440.0,564.0 C 440.0,552.0 439.0,551.0 440.0,550.0 C 440.0,549.0 439.0,548.0 439.0,532.0 C 440.0,531.0 441.0,532.0 441.0,537.0 C 441.0,523.0 440.0,522.0 440.0,482.0 C 441.0,481.0 441.0,477.0 442.0,476.0 C 449.0,476.0 450.0,475.0 459.0,475.0 C 460.0,476.0 461.0,476.0 462.0,475.0 C 461.0,474.0 462.0,475.0 461.0,476.0 C 460.0,476.0 459.0,475.0 444.0,475.0 C 443.0,476.0 440.0,473.0 437.0,476.0 C 436.0,476.0 436.0,477.0 435.0,478.0 C 434.0,478.0 433.0,477.0 433.0,476.0 C 431.0,474.0 431.0,473.0 432.0,472.0 C 431.0,473.0 431.0,476.0 429.0,478.0 C 424.0,478.0 423.0,477.0 423.0,475.0 C 424.0,474.0 424.0,473.0 424.0,474.0 C 423.0,475.0 422.0,475.0 421.0,476.0 C 418.0,476.0 417.0,477.0 416.0,476.0 C 416.0,475.0 415.0,475.0 414.0,474.0 C 415.0,473.0 415.0,471.0 414.0,470.0 C 414.0,469.0 414.0,473.0 413.0,474.0 C 411.0,474.0 410.0,473.0 410.0,472.0 C 405.0,472.0 404.0,473.0 401.0,473.0 C 400.0,472.0 401.0,471.0 402.0,471.0 C 401.0,471.0 400.0,472.0 399.0,471.0 C 399.0,470.0 398.0,471.0 395.0,468.0 C 396.0,467.0 395.0,468.0 394.0,467.0 C 394.0,466.0 395.0,465.0 394.0,465.0 Z" fill="rgb(22440,8925,19380)" stroke="none" stroke-width="0" /><path d="M 415.0,453.0 C 412.0,456.0 412.0,457.0 413.0,457.0 Z" fill="rgb(22440,8925,19380)" stroke="none" stroke-width="0" /><path d="M 451.0,438.0 C 450.0,439.0 422.0,439.0 421.0,440.0 C 422.0,440.0 423.0,439.0 425.0,439.0 C 426.0,440.0 426.0,441.0 427.0,440.0 C 428.0,441.0 427.0,440.0 428.0,439.0 C 445.0,439.0 446.0,440.0 445.0,441.0 C 446.0,442.0 445.0,441.0 447.0,439.0 C 450.0,439.0 451.0,440.0 452.0,440.0 Z" fill="rgb(22440,8925,19380)" stroke="none" stroke-width="0" /><path d="M 401.0,422.0 C 397.0,426.0 397.0,427.0 398.0,428.0 C 397.0,427.0 397.0,426.0 398.0,425.0 Z" fill="rgb(22440,8925,19380)" stroke="none" stroke-width="0" /><path d="M 452.0,420.0 C 452.0,423.0 451.0,424.0 447.0,424.0 C 446.0,425.0 445.0,425.0 448.0,425.0 C 449.0,424.0 453.0,424.0 454.0,425.0 C 453.0,426.0 454.0,426.0 455.0,427.0 C 455.0,428.0 456.0,427.0 458.0,427.0 C 459.0,426.0 457.0,426.0 456.0,427.0 C 453.0,424.0 453.0,423.0 452.0,422.0 Z" fill="rgb(22440,8925,19380)" stroke="none" stroke-width="0" /><path d="M 426.0,420.0 C 426.0,421.0 424.0,423.0 422.0,423.0 C 423.0,424.0 423.0,426.0 423.0,425.0 C 424.0,424.0 425.0,425.0 424.0,424.0 C 425.0,423.0 426.0,423.0 427.0,424.0 C 433.0,424.0 429.0,424.0 428.0,423.0 C 429.0,422.0 430.0,422.0 427.0,422.0 Z" fill="rgb(22440,8925,19380)" stroke="none" stroke-width="0" /><path d="M 429.0,390.0 C 429.0,393.0 428.0,394.0 428.0,407.0 Z" fill="rgb(22440,8925,19380)" stroke="none" stroke-width="0" /><path d="M 455.0,386.0 C 455.0,389.0 454.0,390.0 454.0,407.0 C 455.0,408.0 455.0,411.0 455.0,405.0 C 454.0,404.0 454.0,393.0 455.0,392.0 Z" fill="rgb(22440,8925,19380)" stroke="none" stroke-width="0" /><path d="M 359.0,378.0 C 355.0,382.0 356.0,383.0 358.0,381.0 C 357.0,380.0 358.0,379.0 359.0,379.0 Z" fill="rgb(22440,8925,19380)" stroke="none" stroke-width="0" /><path d="M 360.0,369.0 C 359.0,370.0 360.0,369.0 361.0,369.0 C 362.0,370.0 360.0,372.0 361.0,373.0 C 362.0,373.0 363.0,374.0 362.0,375.0 C 362.0,376.0 364.0,378.0 364.0,379.0 C 364.0,378.0 365.0,377.0 364.0,377.0 C 363.0,376.0 364.0,375.0 364.0,374.0 C 363.0,374.0 362.0,373.0 363.0,372.0 C 362.0,372.0 361.0,371.0 362.0,370.0 Z" fill="rgb(22440,8925,19380)" stroke="none" stroke-width="0" /><path d="M 384.0,366.0 C 384.0,374.0 383.0,375.0 382.0,374.0 C 381.0,375.0 382.0,376.0 382.0,377.0 C 381.0,378.0 382.0,379.0 382.0,380.0 C 381.0,381.0 382.0,382.0 383.0,381.0 C 384.0,382.0 384.0,383.0 385.0,383.0 C 384.0,382.0 385.0,381.0 386.0,381.0 C 387.0,382.0 388.0,381.0 387.0,380.0 C 388.0,379.0 389.0,379.0 389.0,377.0 C 389.0,378.0 388.0,379.0 387.0,378.0 C 387.0,376.0 388.0,375.0 386.0,373.0 Z" fill="rgb(22440,8925,19380)" stroke="none" stroke-width="0" /><path d="M 371.0,353.0 C 371.0,355.0 370.0,356.0 369.0,355.0 C 368.0,356.0 368.0,357.0 367.0,358.0 C 367.0,361.0 368.0,362.0 369.0,362.0 C 370.0,363.0 370.0,364.0 373.0,364.0 C 373.0,363.0 374.0,362.0 375.0,362.0 C 375.0,361.0 374.0,360.0 375.0,359.0 C 375.0,357.0 374.0,357.0 373.0,356.0 C 373.0,355.0 372.0,355.0 371.0,354.0 Z" fill="rgb(22440,8925,19380)" stroke="none" stroke-width="0" /><path d="M 303.0,353.0 C 304.0,354.0 303.0,355.0 303.0,356.0 C 300.0,359.0 299.0,359.0 294.0,364.0 C 295.0,365.0 293.0,367.0 292.0,367.0 C 291.0,366.0 287.0,370.0 287.0,371.0 C 286.0,372.0 284.0,372.0 281.0,375.0 C 279.0,375.0 278.0,374.0 277.0,374.0 C 269.0,366.0 268.0,367.0 267.0,366.0 C 267.0,364.0 268.0,363.0 269.0,364.0 C 268.0,363.0 269.0,362.0 270.0,362.0 C 270.0,361.0 271.0,360.0 272.0,360.0 C 277.0,355.0 276.0,356.0 275.0,355.0 C 270.0,360.0 269.0,360.0 268.0,359.0 C 269.0,360.0 268.0,361.0 268.0,363.0 C 267.0,364.0 267.0,366.0 269.0,368.0 C 270.0,368.0 272.0,370.0 272.0,371.0 C 273.0,371.0 274.0,372.0 274.0,373.0 C 276.0,375.0 277.0,375.0 278.0,376.0 C 279.0,376.0 280.0,375.0 281.0,375.0 C 282.0,376.0 283.0,376.0 284.0,375.0 C 286.0,377.0 286.0,379.0 289.0,382.0 C 290.0,381.0 291.0,382.0 292.0,382.0 C 293.0,383.0 292.0,384.0 293.0,383.0 C 294.0,384.0 295.0,384.0 296.0,385.0 C 295.0,386.0 296.0,385.0 295.0,384.0 C 294.0,384.0 292.0,382.0 291.0,382.0 C 284.0,375.0 292.0,367.0 293.0,367.0 C 299.0,361.0 300.0,361.0 301.0,360.0 C 302.0,360.0 303.0,361.0 304.0,360.0 C 303.0,359.0 303.0,358.0 304.0,357.0 Z" fill="rgb(22440,8925,19380)" stroke="none" stroke-width="0" /><path d="M 414.0,352.0 C 414.0,353.0 415.0,354.0 415.0,355.0 C 416.0,356.0 417.0,355.0 418.0,356.0 C 416.0,354.0 416.0,353.0 415.0,352.0 Z" fill="rgb(22440,8925,19380)" stroke="none" stroke-width="0" /><path d="M 352.0,351.0 C 345.0,358.0 346.0,359.0 352.0,353.0 Z" fill="rgb(22440,8925,19380)" stroke="none" stroke-width="0" /><path d="M 257.0,350.0 C 256.0,351.0 259.0,354.0 260.0,353.0 Z" fill="rgb(22440,8925,19380)" stroke="none" stroke-width="0" /><path d="M 279.0,345.0 C 278.0,346.0 279.0,347.0 280.0,347.0 C 282.0,349.0 280.0,351.0 280.0,352.0 C 279.0,353.0 279.0,354.0 282.0,351.0 C 282.0,350.0 284.0,348.0 285.0,349.0 C 288.0,346.0 287.0,345.0 284.0,348.0 C 283.0,348.0 282.0,347.0 281.0,348.0 C 280.0,347.0 279.0,347.0 278.0,346.0 Z" fill="rgb(22440,8925,19380)" stroke="none" stroke-width="0" /><path d="M 241.0,342.0 C 241.0,343.0 240.0,344.0 239.0,344.0 C 238.0,343.0 236.0,343.0 235.0,344.0 C 239.0,348.0 240.0,347.0 241.0,347.0 C 242.0,348.0 241.0,349.0 242.0,348.0 C 241.0,347.0 240.0,347.0 238.0,345.0 C 239.0,344.0 240.0,344.0 241.0,343.0 Z" fill="rgb(22440,8925,19380)" stroke="none" stroke-width="0" /><path d="M 231.0,336.0 C 231.0,337.0 230.0,338.0 231.0,338.0 C 232.0,339.0 231.0,340.0 231.0,341.0 C 233.0,343.0 234.0,342.0 233.0,341.0 C 232.0,342.0 231.0,341.0 231.0,340.0 C 232.0,339.0 232.0,338.0 233.0,337.0 Z" fill="rgb(22440,8925,19380)" stroke="none" stroke-width="0" /><path d="M 230.0,329.0 C 228.0,331.0 226.0,331.0 225.0,330.0 C 226.0,331.0 225.0,332.0 224.0,332.0 C 224.0,333.0 223.0,334.0 224.0,335.0 C 224.0,336.0 223.0,337.0 222.0,336.0 C 223.0,337.0 222.0,338.0 221.0,338.0 C 219.0,340.0 220.0,341.0 223.0,338.0 C 223.0,337.0 224.0,336.0 224.0,335.0 C 225.0,334.0 225.0,333.0 226.0,332.0 C 233.0,332.0 232.0,332.0 231.0,331.0 Z" fill="rgb(22440,8925,19380)" stroke="none" stroke-width="0" /><path d="M 416.0,324.0 C 413.0,327.0 412.0,327.0 410.0,329.0 C 411.0,330.0 410.0,331.0 409.0,331.0 C 408.0,330.0 409.0,331.0 408.0,332.0 C 407.0,332.0 406.0,331.0 407.0,332.0 C 408.0,332.0 409.0,331.0 410.0,331.0 C 411.0,330.0 411.0,329.0 412.0,328.0 C 414.0,328.0 417.0,325.0 421.0,325.0 C 422.0,326.0 423.0,325.0 424.0,326.0 C 424.0,327.0 434.0,337.0 435.0,337.0 C 437.0,339.0 436.0,340.0 437.0,341.0 C 438.0,341.0 440.0,343.0 439.0,344.0 C 440.0,345.0 440.0,346.0 441.0,347.0 C 442.0,346.0 441.0,347.0 440.0,346.0 C 440.0,345.0 442.0,343.0 443.0,343.0 C 441.0,343.0 440.0,342.0 441.0,341.0 C 437.0,337.0 436.0,337.0 434.0,335.0 C 435.0,334.0 431.0,330.0 430.0,330.0 C 429.0,329.0 429.0,328.0 428.0,327.0 C 427.0,328.0 425.0,326.0 425.0,325.0 C 424.0,326.0 423.0,325.0 423.0,324.0 C 421.0,324.0 420.0,325.0 418.0,325.0 Z" fill="rgb(22440,8925,19380)" stroke="none" stroke-width="0" /><path d="M 397.0,319.0 C 396.0,320.0 395.0,320.0 396.0,321.0 C 395.0,322.0 394.0,322.0 393.0,321.0 C 394.0,322.0 393.0,323.0 392.0,323.0 C 391.0,324.0 390.0,323.0 389.0,324.0 C 390.0,325.0 390.0,327.0 391.0,328.0 C 391.0,330.0 390.0,331.0 389.0,331.0 C 387.0,333.0 388.0,334.0 386.0,336.0 C 385.0,336.0 384.0,337.0 385.0,338.0 C 384.0,339.0 383.0,339.0 384.0,340.0 C 383.0,341.0 382.0,341.0 381.0,342.0 C 382.0,343.0 381.0,344.0 380.0,344.0 C 379.0,345.0 380.0,346.0 379.0,347.0 C 377.0,347.0 376.0,348.0 375.0,347.0 C 375.0,346.0 376.0,345.0 375.0,344.0 C 375.0,342.0 374.0,342.0 373.0,341.0 C 374.0,340.0 373.0,340.0 372.0,339.0 C 372.0,338.0 373.0,337.0 373.0,336.0 C 372.0,337.0 371.0,336.0 371.0,334.0 C 372.0,333.0 372.0,330.0 371.0,329.0 C 371.0,327.0 371.0,329.0 370.0,330.0 C 370.0,331.0 369.0,332.0 370.0,332.0 C 371.0,333.0 370.0,334.0 370.0,340.0 C 371.0,341.0 371.0,345.0 371.0,341.0 C 372.0,340.0 373.0,341.0 373.0,342.0 C 374.0,342.0 375.0,343.0 375.0,344.0 C 374.0,345.0 375.0,346.0 375.0,347.0 C 376.0,348.0 379.0,348.0 380.0,349.0 C 381.0,348.0 380.0,347.0 380.0,346.0 C 381.0,345.0 382.0,346.0 382.0,345.0 C 381.0,344.0 382.0,343.0 383.0,343.0 C 383.0,342.0 389.0,336.0 390.0,336.0 C 392.0,338.0 391.0,339.0 392.0,340.0 C 393.0,339.0 394.0,339.0 395.0,340.0 C 394.0,339.0 395.0,338.0 393.0,336.0 C 392.0,336.0 391.0,335.0 391.0,333.0 C 392.0,332.0 393.0,333.0 393.0,332.0 C 394.0,331.0 390.0,327.0 390.0,325.0 C 392.0,323.0 393.0,323.0 394.0,322.0 C 395.0,322.0 396.0,321.0 397.0,321.0 C 398.0,320.0 399.0,320.0 398.0,319.0 Z" fill="rgb(22440,8925,19380)" stroke="none" stroke-width="0" /><path d="M 438.0,311.0 C 439.0,312.0 439.0,313.0 442.0,316.0 C 443.0,315.0 442.0,314.0 441.0,314.0 Z" fill="rgb(22440,8925,19380)" stroke="none" stroke-width="0" /><path d="M 431.0,304.0 C 430.0,305.0 432.0,307.0 433.0,307.0 C 436.0,310.0 436.0,308.0 434.0,306.0 C 433.0,307.0 432.0,306.0 432.0,305.0 Z" fill="rgb(22440,8925,19380)" stroke="none" stroke-width="0" /><path d="M 229.0,303.0 C 229.0,304.0 228.0,305.0 228.0,320.0 C 227.0,321.0 227.0,324.0 228.0,325.0 C 228.0,326.0 227.0,327.0 226.0,326.0 C 226.0,327.0 227.0,328.0 227.0,329.0 C 228.0,328.0 228.0,325.0 229.0,324.0 C 230.0,324.0 231.0,323.0 236.0,323.0 C 237.0,322.0 238.0,323.0 238.0,324.0 C 240.0,326.0 240.0,327.0 238.0,329.0 C 239.0,330.0 239.0,332.0 237.0,334.0 C 240.0,334.0 239.0,334.0 238.0,333.0 C 239.0,332.0 239.0,331.0 240.0,330.0 C 241.0,331.0 241.0,330.0 240.0,329.0 C 240.0,325.0 241.0,324.0 242.0,324.0 C 242.0,323.0 243.0,322.0 244.0,322.0 C 245.0,323.0 246.0,323.0 247.0,324.0 C 247.0,325.0 248.0,326.0 248.0,325.0 C 250.0,323.0 249.0,322.0 250.0,321.0 C 249.0,321.0 249.0,322.0 248.0,323.0 C 246.0,323.0 245.0,322.0 242.0,322.0 C 241.0,323.0 240.0,322.0 240.0,321.0 C 239.0,322.0 238.0,321.0 238.0,320.0 C 237.0,321.0 237.0,322.0 236.0,323.0 C 233.0,323.0 232.0,322.0 233.0,321.0 C 234.0,321.0 233.0,321.0 231.0,323.0 C 230.0,322.0 230.0,321.0 231.0,320.0 C 230.0,321.0 229.0,320.0 229.0,319.0 C 228.0,318.0 229.0,317.0 229.0,316.0 C 228.0,315.0 229.0,314.0 230.0,314.0 C 230.0,312.0 231.0,311.0 232.0,311.0 C 229.0,311.0 228.0,310.0 228.0,308.0 C 229.0,307.0 234.0,307.0 235.0,308.0 C 236.0,308.0 239.0,311.0 238.0,312.0 C 237.0,312.0 236.0,313.0 235.0,313.0 C 236.0,313.0 237.0,312.0 238.0,312.0 C 240.0,314.0 240.0,316.0 239.0,317.0 C 240.0,318.0 240.0,319.0 240.0,318.0 C 239.0,317.0 241.0,315.0 242.0,315.0 C 241.0,314.0 241.0,313.0 240.0,313.0 C 239.0,312.0 240.0,311.0 239.0,311.0 C 238.0,310.0 239.0,309.0 237.0,307.0 C 236.0,308.0 235.0,308.0 234.0,307.0 C 235.0,306.0 234.0,307.0 230.0,307.0 Z" fill="rgb(22440,8925,19380)" stroke="none" stroke-width="0" /><path d="M 372.0,299.0 C 371.0,300.0 370.0,300.0 369.0,301.0 C 370.0,302.0 370.0,303.0 369.0,304.0 C 368.0,303.0 368.0,304.0 367.0,305.0 C 367.0,306.0 368.0,307.0 368.0,308.0 C 367.0,309.0 366.0,308.0 367.0,309.0 C 367.0,311.0 367.0,309.0 368.0,308.0 C 368.0,306.0 369.0,305.0 369.0,304.0 C 371.0,302.0 371.0,301.0 372.0,300.0 Z" fill="rgb(22440,8925,19380)" stroke="none" stroke-width="0" /><path d="M 417.0,295.0 C 418.0,295.0 425.0,302.0 424.0,301.0 C 424.0,299.0 420.0,295.0 419.0,296.0 Z" fill="rgb(22440,8925,19380)" stroke="none" stroke-width="0" /><path d="M 407.0,293.0 C 407.0,294.0 406.0,295.0 406.0,296.0 C 407.0,295.0 408.0,296.0 408.0,298.0 C 407.0,299.0 408.0,300.0 408.0,302.0 C 409.0,302.0 410.0,303.0 409.0,304.0 C 410.0,304.0 411.0,305.0 411.0,306.0 C 410.0,307.0 412.0,305.0 413.0,306.0 C 414.0,306.0 415.0,307.0 414.0,308.0 C 415.0,307.0 416.0,308.0 416.0,309.0 C 414.0,311.0 413.0,310.0 412.0,311.0 C 413.0,310.0 414.0,311.0 414.0,312.0 C 413.0,313.0 412.0,313.0 413.0,314.0 C 412.0,315.0 411.0,315.0 410.0,314.0 C 411.0,315.0 410.0,316.0 409.0,316.0 C 408.0,315.0 409.0,316.0 410.0,316.0 C 411.0,315.0 412.0,315.0 413.0,314.0 C 413.0,313.0 414.0,312.0 415.0,313.0 C 416.0,312.0 416.0,308.0 415.0,307.0 C 415.0,306.0 413.0,304.0 412.0,304.0 C 410.0,302.0 410.0,301.0 409.0,301.0 C 408.0,300.0 409.0,299.0 408.0,298.0 C 408.0,295.0 409.0,294.0 410.0,294.0 C 409.0,294.0 408.0,295.0 407.0,294.0 Z" fill="rgb(22440,8925,19380)" stroke="none" stroke-width="0" /><path d="M 327.0,262.0 C 328.0,263.0 327.0,264.0 331.0,268.0 Z" fill="rgb(22440,8925,19380)" stroke="none" stroke-width="0" /><path d="M 336.0,246.0 C 335.0,247.0 333.0,247.0 333.0,248.0 C 334.0,247.0 338.0,247.0 339.0,246.0 C 340.0,246.0 341.0,247.0 344.0,247.0 Z" fill="rgb(22440,8925,19380)" stroke="none" stroke-width="0" /><path d="M 349.0,243.0 C 348.0,244.0 348.0,245.0 347.0,246.0 C 346.0,245.0 345.0,245.0 347.0,247.0 C 347.0,248.0 346.0,249.0 347.0,248.0 C 348.0,248.0 349.0,247.0 348.0,246.0 C 349.0,245.0 350.0,245.0 349.0,244.0 Z" fill="rgb(22440,8925,19380)" stroke="none" stroke-width="0" /><path d="M 336.0,216.0 C 336.0,219.0 335.0,220.0 336.0,221.0 C 335.0,222.0 334.0,222.0 332.0,224.0 C 333.0,225.0 334.0,224.0 336.0,226.0 C 336.0,225.0 335.0,224.0 335.0,222.0 C 336.0,221.0 337.0,221.0 337.0,220.0 Z" fill="rgb(22440,8925,19380)" stroke="none" stroke-width="0" /><path d="M 351.0,212.0 C 351.0,216.0 352.0,215.0 353.0,216.0 C 353.0,217.0 352.0,218.0 354.0,216.0 C 355.0,216.0 355.0,213.0 354.0,213.0 Z" fill="rgb(22440,8925,19380)" stroke="none" stroke-width="0" /><path d="M 330.0,208.0 C 328.0,210.0 327.0,209.0 327.0,214.0 C 328.0,213.0 330.0,215.0 329.0,214.0 C 329.0,213.0 330.0,212.0 329.0,211.0 Z" fill="rgb(22440,8925,19380)" stroke="none" stroke-width="0" /><path d="M 344.0,205.0 C 344.0,206.0 343.0,207.0 338.0,207.0 C 338.0,210.0 338.0,209.0 339.0,208.0 C 340.0,209.0 341.0,209.0 342.0,208.0 C 343.0,209.0 343.0,211.0 344.0,212.0 C 344.0,214.0 344.0,210.0 343.0,209.0 C 343.0,207.0 344.0,206.0 345.0,206.0 Z" fill="rgb(22440,8925,19380)" stroke="none" stroke-width="0" /><path d="M 350.0,199.0 C 349.0,200.0 348.0,200.0 345.0,203.0 C 346.0,204.0 348.0,202.0 347.0,201.0 C 348.0,200.0 349.0,200.0 350.0,199.0 C 351.0,199.0 352.0,200.0 356.0,200.0 C 357.0,199.0 359.0,199.0 354.0,199.0 Z" fill="rgb(22440,8925,19380)" stroke="none" stroke-width="0" /><path d="M 321.0,138.0 C 322.0,139.0 321.0,140.0 321.0,141.0 C 320.0,142.0 319.0,142.0 322.0,142.0 C 323.0,141.0 324.0,142.0 326.0,142.0 C 324.0,142.0 323.0,141.0 323.0,140.0 Z" fill="rgb(22440,8925,19380)" stroke="none" stroke-width="0" /><path d="M 366.0,134.0 C 365.0,135.0 361.0,135.0 360.0,136.0 C 358.0,136.0 357.0,137.0 355.0,137.0 C 354.0,138.0 353.0,138.0 352.0,139.0 C 351.0,139.0 350.0,140.0 349.0,140.0 C 347.0,142.0 346.0,142.0 345.0,143.0 C 344.0,143.0 343.0,144.0 342.0,143.0 C 341.0,143.0 340.0,144.0 339.0,144.0 C 338.0,145.0 335.0,145.0 334.0,146.0 C 329.0,146.0 328.0,147.0 327.0,146.0 C 327.0,145.0 326.0,144.0 324.0,146.0 C 322.0,146.0 321.0,147.0 319.0,147.0 C 315.0,151.0 315.0,152.0 314.0,153.0 C 314.0,156.0 313.0,157.0 314.0,158.0 C 314.0,161.0 315.0,162.0 315.0,164.0 C 316.0,165.0 316.0,167.0 315.0,168.0 C 314.0,167.0 313.0,168.0 314.0,167.0 C 315.0,168.0 315.0,169.0 316.0,170.0 C 315.0,171.0 316.0,170.0 317.0,171.0 C 317.0,173.0 316.0,174.0 315.0,173.0 C 315.0,175.0 316.0,176.0 316.0,177.0 C 316.0,175.0 317.0,174.0 319.0,174.0 C 322.0,177.0 322.0,178.0 324.0,180.0 C 325.0,179.0 327.0,181.0 327.0,182.0 C 328.0,181.0 329.0,182.0 330.0,182.0 C 331.0,183.0 330.0,184.0 331.0,183.0 C 332.0,184.0 332.0,185.0 333.0,184.0 C 334.0,185.0 334.0,186.0 335.0,185.0 C 336.0,186.0 336.0,187.0 337.0,187.0 C 338.0,188.0 339.0,188.0 340.0,187.0 C 341.0,187.0 342.0,188.0 342.0,189.0 C 343.0,188.0 345.0,188.0 346.0,189.0 C 346.0,190.0 347.0,190.0 348.0,189.0 C 351.0,189.0 352.0,190.0 353.0,189.0 C 354.0,190.0 355.0,189.0 356.0,190.0 C 357.0,189.0 361.0,189.0 362.0,190.0 C 363.0,190.0 363.0,189.0 364.0,188.0 C 367.0,188.0 368.0,189.0 370.0,189.0 C 369.0,188.0 370.0,187.0 372.0,187.0 C 373.0,188.0 375.0,188.0 375.0,187.0 C 376.0,186.0 377.0,187.0 380.0,187.0 C 380.0,186.0 381.0,185.0 386.0,185.0 C 387.0,186.0 387.0,187.0 388.0,188.0 C 388.0,189.0 387.0,190.0 386.0,190.0 C 386.0,194.0 387.0,194.0 388.0,195.0 C 388.0,196.0 387.0,197.0 388.0,196.0 C 389.0,197.0 389.0,198.0 388.0,199.0 C 398.0,209.0 398.0,210.0 399.0,210.0 C 400.0,211.0 399.0,212.0 400.0,213.0 C 399.0,214.0 400.0,215.0 402.0,213.0 C 402.0,212.0 403.0,211.0 404.0,212.0 C 405.0,212.0 408.0,215.0 409.0,215.0 C 410.0,216.0 410.0,217.0 409.0,218.0 C 409.0,219.0 410.0,218.0 411.0,219.0 C 411.0,222.0 410.0,223.0 409.0,222.0 C 409.0,224.0 410.0,225.0 410.0,227.0 C 409.0,228.0 408.0,227.0 408.0,229.0 C 407.0,230.0 407.0,231.0 408.0,232.0 C 407.0,233.0 406.0,233.0 407.0,234.0 C 406.0,235.0 407.0,236.0 408.0,235.0 C 409.0,236.0 409.0,237.0 408.0,238.0 C 408.0,241.0 409.0,240.0 410.0,241.0 C 410.0,242.0 409.0,243.0 409.0,245.0 C 410.0,246.0 409.0,247.0 408.0,247.0 C 408.0,248.0 409.0,249.0 409.0,248.0 C 410.0,247.0 411.0,248.0 412.0,247.0 C 413.0,248.0 413.0,249.0 414.0,250.0 C 413.0,251.0 414.0,250.0 415.0,251.0 C 415.0,252.0 416.0,252.0 417.0,251.0 C 418.0,251.0 419.0,252.0 419.0,251.0 C 420.0,250.0 421.0,251.0 421.0,250.0 C 425.0,246.0 426.0,246.0 427.0,245.0 C 426.0,244.0 427.0,243.0 427.0,242.0 C 428.0,241.0 429.0,242.0 428.0,241.0 C 429.0,240.0 430.0,240.0 429.0,239.0 C 430.0,238.0 431.0,238.0 432.0,237.0 C 432.0,236.0 431.0,235.0 432.0,234.0 C 433.0,234.0 432.0,233.0 433.0,232.0 C 434.0,232.0 433.0,231.0 433.0,230.0 C 434.0,229.0 435.0,229.0 435.0,228.0 C 434.0,227.0 434.0,226.0 435.0,225.0 C 436.0,226.0 436.0,225.0 435.0,224.0 C 435.0,223.0 436.0,222.0 437.0,223.0 C 437.0,222.0 436.0,221.0 436.0,218.0 C 437.0,217.0 438.0,218.0 438.0,217.0 C 437.0,216.0 437.0,209.0 438.0,208.0 C 439.0,209.0 439.0,204.0 438.0,204.0 C 437.0,203.0 437.0,197.0 438.0,196.0 C 438.0,195.0 437.0,195.0 436.0,194.0 C 436.0,192.0 437.0,191.0 437.0,190.0 C 436.0,191.0 435.0,190.0 435.0,189.0 C 436.0,188.0 436.0,187.0 435.0,188.0 C 434.0,187.0 434.0,186.0 435.0,185.0 C 435.0,184.0 434.0,184.0 433.0,183.0 C 433.0,182.0 434.0,181.0 433.0,181.0 C 432.0,180.0 433.0,179.0 432.0,180.0 C 431.0,179.0 431.0,178.0 432.0,177.0 C 431.0,177.0 430.0,176.0 431.0,175.0 C 430.0,175.0 429.0,174.0 430.0,173.0 C 429.0,172.0 428.0,172.0 426.0,170.0 C 427.0,169.0 422.0,164.0 421.0,165.0 C 420.0,164.0 420.0,163.0 421.0,162.0 C 420.0,162.0 419.0,161.0 419.0,160.0 C 420.0,159.0 420.0,158.0 419.0,157.0 C 419.0,156.0 418.0,156.0 417.0,155.0 C 418.0,154.0 417.0,155.0 416.0,154.0 C 416.0,153.0 415.0,152.0 416.0,151.0 C 415.0,151.0 413.0,149.0 414.0,148.0 C 408.0,142.0 407.0,143.0 405.0,141.0 C 405.0,140.0 404.0,139.0 403.0,140.0 C 402.0,139.0 402.0,138.0 401.0,139.0 C 400.0,138.0 401.0,139.0 400.0,140.0 C 398.0,140.0 397.0,139.0 396.0,139.0 C 395.0,138.0 394.0,138.0 393.0,137.0 C 391.0,137.0 390.0,136.0 388.0,136.0 C 387.0,135.0 382.0,135.0 381.0,134.0 Z" fill="rgb(22440,8925,19380)" stroke="none" stroke-width="0" /><path d="M 429.0,425.0 C 428.0,426.0 427.0,426.0 428.0,427.0 C 427.0,428.0 427.0,435.0 428.0,436.0 C 426.0,438.0 450.0,438.0 450.0,436.0 C 451.0,435.0 451.0,431.0 452.0,430.0 C 452.0,427.0 448.0,427.0 447.0,426.0 Z" fill="rgb(58905,16830,26775)" stroke="none" stroke-width="0" /><path d="M 288.0,348.0 C 287.0,349.0 286.0,349.0 282.0,353.0 C 281.0,353.0 272.0,362.0 273.0,363.0 C 273.0,364.0 281.0,372.0 283.0,372.0 C 288.0,367.0 289.0,367.0 295.0,361.0 C 296.0,361.0 300.0,357.0 297.0,354.0 C 295.0,354.0 294.0,353.0 294.0,352.0 C 293.0,351.0 291.0,351.0 290.0,350.0 Z" fill="rgb(58905,16830,26775)" stroke="none" stroke-width="0" /><path d="M 418.0,326.0 C 417.0,327.0 416.0,327.0 412.0,331.0 C 411.0,331.0 409.0,333.0 408.0,333.0 C 407.0,334.0 405.0,334.0 404.0,335.0 C 396.0,335.0 395.0,334.0 393.0,334.0 C 393.0,335.0 397.0,339.0 397.0,340.0 C 395.0,342.0 394.0,341.0 393.0,341.0 C 392.0,342.0 392.0,343.0 391.0,344.0 C 391.0,346.0 390.0,347.0 390.0,349.0 C 389.0,350.0 389.0,354.0 388.0,355.0 C 388.0,359.0 387.0,360.0 387.0,373.0 C 388.0,373.0 389.0,374.0 389.0,375.0 C 390.0,376.0 390.0,380.0 389.0,381.0 C 389.0,382.0 388.0,383.0 387.0,383.0 C 386.0,384.0 383.0,384.0 379.0,380.0 C 379.0,376.0 383.0,372.0 383.0,361.0 C 384.0,360.0 384.0,354.0 385.0,353.0 C 385.0,350.0 386.0,349.0 386.0,346.0 C 387.0,345.0 387.0,344.0 388.0,343.0 C 388.0,341.0 390.0,339.0 390.0,338.0 C 389.0,338.0 384.0,343.0 384.0,344.0 C 383.0,345.0 383.0,347.0 382.0,348.0 C 382.0,349.0 381.0,350.0 380.0,350.0 C 379.0,351.0 377.0,351.0 375.0,349.0 C 375.0,348.0 373.0,346.0 373.0,345.0 C 372.0,344.0 372.0,343.0 372.0,353.0 C 373.0,354.0 374.0,354.0 376.0,356.0 C 376.0,357.0 377.0,358.0 377.0,361.0 C 376.0,362.0 376.0,363.0 374.0,365.0 C 373.0,365.0 372.0,366.0 371.0,366.0 C 370.0,365.0 369.0,365.0 366.0,362.0 C 366.0,357.0 368.0,355.0 368.0,339.0 C 369.0,338.0 369.0,337.0 368.0,336.0 C 369.0,335.0 368.0,335.0 366.0,333.0 C 366.0,332.0 365.0,331.0 364.0,331.0 C 362.0,333.0 362.0,334.0 361.0,335.0 C 361.0,336.0 360.0,337.0 360.0,338.0 C 359.0,339.0 359.0,341.0 358.0,342.0 C 358.0,346.0 357.0,347.0 357.0,351.0 C 356.0,352.0 356.0,353.0 346.0,363.0 C 345.0,363.0 343.0,365.0 342.0,365.0 C 341.0,366.0 340.0,366.0 339.0,367.0 C 338.0,367.0 337.0,368.0 335.0,368.0 C 334.0,369.0 331.0,369.0 330.0,370.0 C 326.0,370.0 325.0,371.0 324.0,370.0 C 323.0,371.0 322.0,370.0 318.0,370.0 C 317.0,369.0 314.0,369.0 313.0,368.0 C 311.0,368.0 310.0,367.0 309.0,367.0 C 308.0,366.0 307.0,366.0 305.0,364.0 C 304.0,364.0 301.0,361.0 296.0,366.0 C 295.0,366.0 295.0,368.0 293.0,370.0 C 293.0,371.0 290.0,374.0 290.0,375.0 C 288.0,377.0 288.0,378.0 289.0,379.0 C 290.0,379.0 293.0,382.0 294.0,382.0 C 295.0,383.0 296.0,383.0 298.0,385.0 C 299.0,385.0 300.0,386.0 301.0,386.0 C 302.0,387.0 304.0,387.0 305.0,388.0 C 307.0,388.0 308.0,389.0 310.0,389.0 C 311.0,390.0 314.0,390.0 315.0,391.0 C 330.0,391.0 331.0,390.0 332.0,391.0 C 334.0,389.0 335.0,389.0 336.0,390.0 C 336.0,389.0 337.0,388.0 338.0,388.0 C 339.0,387.0 340.0,387.0 341.0,386.0 C 342.0,386.0 343.0,385.0 344.0,385.0 C 346.0,383.0 347.0,383.0 349.0,381.0 C 350.0,381.0 352.0,379.0 353.0,379.0 C 358.0,374.0 359.0,374.0 360.0,373.0 C 358.0,371.0 358.0,369.0 359.0,368.0 C 361.0,368.0 364.0,371.0 364.0,372.0 C 365.0,373.0 365.0,374.0 366.0,375.0 C 366.0,377.0 367.0,378.0 367.0,379.0 C 368.0,380.0 368.0,382.0 369.0,383.0 C 369.0,386.0 370.0,387.0 370.0,392.0 C 371.0,393.0 371.0,400.0 372.0,401.0 C 372.0,414.0 373.0,415.0 373.0,435.0 C 372.0,436.0 372.0,447.0 371.0,448.0 C 371.0,453.0 370.0,454.0 370.0,458.0 C 369.0,459.0 369.0,461.0 372.0,461.0 C 373.0,462.0 379.0,462.0 380.0,463.0 C 392.0,463.0 391.0,462.0 391.0,461.0 C 392.0,460.0 392.0,448.0 393.0,447.0 C 393.0,439.0 394.0,438.0 394.0,432.0 C 395.0,431.0 395.0,427.0 396.0,426.0 C 396.0,425.0 401.0,420.0 403.0,420.0 C 404.0,419.0 413.0,419.0 414.0,420.0 C 421.0,420.0 421.0,417.0 422.0,416.0 C 421.0,415.0 422.0,414.0 422.0,409.0 C 423.0,408.0 422.0,407.0 423.0,406.0 C 423.0,405.0 422.0,404.0 423.0,403.0 C 423.0,393.0 422.0,392.0 423.0,391.0 C 423.0,389.0 422.0,388.0 423.0,387.0 C 422.0,386.0 422.0,381.0 421.0,380.0 C 422.0,379.0 421.0,378.0 421.0,375.0 C 420.0,374.0 421.0,373.0 420.0,372.0 C 420.0,369.0 421.0,368.0 420.0,369.0 C 419.0,368.0 419.0,366.0 420.0,365.0 C 419.0,365.0 418.0,364.0 419.0,363.0 C 418.0,362.0 418.0,361.0 416.0,359.0 C 416.0,358.0 415.0,357.0 415.0,356.0 C 412.0,353.0 414.0,351.0 415.0,351.0 C 419.0,355.0 419.0,356.0 420.0,357.0 C 420.0,358.0 422.0,360.0 422.0,361.0 C 423.0,362.0 423.0,364.0 424.0,365.0 C 424.0,366.0 425.0,367.0 425.0,369.0 C 426.0,370.0 426.0,372.0 427.0,373.0 C 427.0,376.0 428.0,377.0 428.0,380.0 C 429.0,381.0 429.0,385.0 430.0,386.0 C 430.0,394.0 431.0,395.0 431.0,406.0 C 430.0,407.0 430.0,416.0 429.0,417.0 C 429.0,421.0 441.0,421.0 442.0,422.0 C 447.0,422.0 448.0,423.0 449.0,423.0 C 448.0,423.0 447.0,422.0 448.0,421.0 C 447.0,420.0 448.0,419.0 448.0,414.0 C 449.0,413.0 449.0,404.0 450.0,403.0 C 449.0,402.0 449.0,401.0 450.0,400.0 C 449.0,399.0 450.0,398.0 449.0,397.0 C 450.0,396.0 449.0,395.0 450.0,394.0 C 449.0,393.0 449.0,392.0 450.0,391.0 C 449.0,390.0 449.0,384.0 448.0,383.0 C 449.0,382.0 448.0,381.0 448.0,376.0 C 447.0,375.0 447.0,372.0 446.0,371.0 C 446.0,368.0 445.0,367.0 445.0,364.0 C 444.0,363.0 444.0,362.0 443.0,361.0 C 443.0,359.0 442.0,358.0 442.0,357.0 C 441.0,356.0 441.0,354.0 440.0,353.0 C 440.0,352.0 439.0,351.0 439.0,350.0 C 437.0,348.0 437.0,347.0 436.0,346.0 C 436.0,345.0 434.0,343.0 434.0,342.0 C 432.0,340.0 432.0,339.0 425.0,332.0 C 425.0,331.0 424.0,330.0 423.0,330.0 Z" fill="rgb(58905,16830,26775)" stroke="none" stroke-width="0" /><path d="M 410.0,295.0 C 409.0,296.0 409.0,297.0 410.0,298.0 C 410.0,299.0 416.0,305.0 416.0,306.0 C 417.0,307.0 417.0,309.0 418.0,310.0 C 417.0,311.0 417.0,312.0 413.0,316.0 C 412.0,316.0 411.0,317.0 409.0,317.0 C 408.0,318.0 407.0,318.0 406.0,319.0 C 404.0,319.0 403.0,320.0 401.0,320.0 C 400.0,321.0 399.0,321.0 398.0,322.0 C 397.0,322.0 396.0,323.0 395.0,323.0 C 394.0,324.0 393.0,324.0 391.0,326.0 C 391.0,327.0 392.0,328.0 402.0,328.0 C 403.0,327.0 405.0,327.0 406.0,326.0 C 407.0,326.0 408.0,325.0 409.0,325.0 C 413.0,321.0 421.0,321.0 422.0,322.0 C 422.0,323.0 423.0,322.0 424.0,323.0 C 425.0,323.0 428.0,326.0 429.0,326.0 C 434.0,331.0 434.0,332.0 437.0,335.0 C 438.0,335.0 438.0,334.0 439.0,333.0 C 439.0,331.0 440.0,330.0 439.0,329.0 C 440.0,328.0 439.0,327.0 440.0,326.0 C 439.0,325.0 439.0,322.0 438.0,321.0 C 438.0,318.0 437.0,317.0 437.0,316.0 C 436.0,315.0 436.0,314.0 435.0,313.0 C 435.0,312.0 434.0,311.0 434.0,310.0 C 433.0,310.0 432.0,309.0 432.0,308.0 C 431.0,307.0 430.0,307.0 428.0,305.0 C 427.0,305.0 423.0,301.0 422.0,301.0 C 418.0,297.0 417.0,297.0 415.0,295.0 Z" fill="rgb(58905,16830,26775)" stroke="none" stroke-width="0" /><path d="M 336.0,248.0 C 336.0,252.0 337.0,252.0 339.0,250.0 C 340.0,251.0 341.0,251.0 341.0,250.0 C 342.0,249.0 343.0,250.0 345.0,248.0 C 341.0,248.0 341.0,249.0 340.0,250.0 C 339.0,249.0 338.0,250.0 337.0,249.0 Z" fill="rgb(58905,16830,26775)" stroke="none" stroke-width="0" /><path d="M 312.0,199.0 C 312.0,207.0 313.0,208.0 313.0,210.0 C 312.0,211.0 312.0,222.0 314.0,224.0 C 312.0,222.0 313.0,221.0 312.0,220.0 C 313.0,219.0 312.0,218.0 313.0,217.0 C 313.0,203.0 312.0,202.0 313.0,201.0 Z" fill="rgb(51765,55845,54570)" stroke="none" stroke-width="0" /></svg>