<?xml version="1.0" encoding="utf-8" ?>
<svg baseProfile="full" height="800" version="1.1" width="800" xmlns="http://www.w3.org/2000/svg" xmlns:ev="http://www.w3.org/2001/xml-events" xmlns:xlink="http://www.w3.org/1999/xlink"><defs /><path d="M 207.0,264.0 C 205.0,266.0 205.0,267.0 204.0,268.0 C 204.0,276.0 205.0,277.0 205.0,279.0 C 206.0,280.0 206.0,283.0 207.0,284.0 C 207.0,287.0 206.0,288.0 206.0,290.0 C 205.0,291.0 205.0,294.0 206.0,294.0 C 207.0,293.0 207.0,292.0 208.0,291.0 C 208.0,289.0 209.0,288.0 209.0,283.0 C 208.0,282.0 208.0,280.0 207.0,279.0 C 207.0,277.0 206.0,276.0 206.0,269.0 C 207.0,268.0 207.0,267.0 208.0,266.0 Z" fill="rgb(190,65,65)" stroke="none" stroke-width="0" /><path d="M 197.0,255.0 C 195.0,257.0 195.0,259.0 194.0,260.0 C 194.0,263.0 193.0,264.0 193.0,268.0 C 194.0,269.0 194.0,271.0 195.0,272.0 C 195.0,274.0 196.0,275.0 196.0,276.0 C 197.0,277.0 197.0,282.0 196.0,283.0 C 197.0,284.0 198.0,284.0 198.0,283.0 C 199.0,282.0 199.0,277.0 198.0,276.0 C 198.0,274.0 197.0,273.0 197.0,272.0 C 196.0,271.0 196.0,268.0 195.0,267.0 C 195.0,264.0 196.0,263.0 196.0,261.0 C 197.0,260.0 197.0,258.0 198.0,257.0 Z" fill="rgb(190,65,65)" stroke="none" stroke-width="0" /><path d="M 329.0,127.0 C 329.0,129.0 331.0,131.0 331.0,132.0 C 333.0,134.0 333.0,135.0 337.0,139.0 C 336.0,140.0 332.0,140.0 331.0,141.0 C 324.0,141.0 322.0,139.0 322.0,138.0 C 318.0,134.0 318.0,133.0 316.0,131.0 C 315.0,131.0 316.0,132.0 316.0,133.0 C 317.0,134.0 317.0,135.0 319.0,137.0 C 319.0,138.0 320.0,139.0 318.0,141.0 C 316.0,141.0 315.0,142.0 314.0,142.0 C 313.0,143.0 312.0,143.0 311.0,144.0 C 311.0,145.0 309.0,147.0 309.0,148.0 C 308.0,149.0 308.0,158.0 309.0,159.0 C 309.0,161.0 310.0,162.0 310.0,163.0 C 311.0,164.0 311.0,165.0 312.0,166.0 C 312.0,167.0 313.0,168.0 313.0,169.0 C 315.0,171.0 315.0,174.0 314.0,175.0 C 314.0,181.0 313.0,182.0 313.0,190.0 C 312.0,191.0 312.0,195.0 311.0,196.0 C 308.0,196.0 307.0,197.0 306.0,197.0 C 302.0,201.0 302.0,202.0 301.0,203.0 C 301.0,211.0 300.0,212.0 300.0,216.0 C 301.0,217.0 301.0,220.0 303.0,222.0 C 303.0,223.0 304.0,224.0 305.0,224.0 C 307.0,226.0 311.0,226.0 313.0,228.0 C 313.0,234.0 314.0,235.0 314.0,238.0 C 315.0,239.0 315.0,242.0 316.0,243.0 C 316.0,245.0 317.0,246.0 317.0,248.0 C 318.0,249.0 318.0,250.0 319.0,251.0 C 319.0,252.0 320.0,253.0 320.0,254.0 C 321.0,255.0 321.0,256.0 322.0,257.0 C 322.0,258.0 324.0,260.0 324.0,261.0 C 328.0,265.0 328.0,266.0 329.0,267.0 C 330.0,267.0 334.0,271.0 335.0,271.0 C 337.0,273.0 338.0,273.0 339.0,274.0 C 340.0,274.0 341.0,275.0 342.0,275.0 C 343.0,276.0 344.0,276.0 345.0,277.0 C 346.0,277.0 347.0,278.0 348.0,278.0 C 349.0,279.0 350.0,279.0 351.0,280.0 C 352.0,280.0 353.0,281.0 354.0,281.0 C 355.0,282.0 356.0,282.0 357.0,283.0 C 358.0,283.0 360.0,285.0 361.0,285.0 C 367.0,291.0 367.0,292.0 368.0,293.0 C 368.0,294.0 369.0,295.0 369.0,296.0 C 370.0,297.0 370.0,299.0 369.0,300.0 C 369.0,301.0 368.0,302.0 368.0,303.0 C 367.0,304.0 367.0,305.0 366.0,306.0 C 366.0,308.0 365.0,309.0 365.0,314.0 C 364.0,315.0 364.0,318.0 365.0,319.0 C 365.0,323.0 366.0,324.0 364.0,326.0 C 363.0,326.0 358.0,331.0 358.0,332.0 C 357.0,333.0 357.0,334.0 356.0,335.0 C 356.0,336.0 355.0,337.0 355.0,339.0 C 354.0,340.0 354.0,342.0 353.0,343.0 C 353.0,349.0 342.0,360.0 341.0,360.0 C 340.0,361.0 339.0,361.0 338.0,362.0 C 337.0,362.0 336.0,363.0 335.0,363.0 C 334.0,364.0 332.0,364.0 331.0,365.0 C 326.0,365.0 325.0,366.0 320.0,366.0 C 319.0,365.0 314.0,365.0 313.0,364.0 C 312.0,364.0 311.0,363.0 310.0,363.0 C 309.0,362.0 308.0,362.0 307.0,361.0 C 306.0,361.0 304.0,359.0 304.0,358.0 C 306.0,356.0 306.0,355.0 304.0,353.0 C 303.0,353.0 300.0,350.0 299.0,350.0 C 297.0,348.0 296.0,348.0 293.0,345.0 C 292.0,345.0 290.0,343.0 289.0,343.0 C 286.0,346.0 285.0,346.0 284.0,347.0 C 282.0,347.0 280.0,345.0 279.0,345.0 C 277.0,343.0 276.0,343.0 274.0,341.0 C 273.0,341.0 268.0,336.0 268.0,335.0 C 266.0,333.0 266.0,331.0 265.0,330.0 C 265.0,325.0 266.0,324.0 265.0,323.0 C 265.0,320.0 264.0,319.0 264.0,318.0 C 259.0,313.0 258.0,313.0 257.0,312.0 C 255.0,312.0 254.0,311.0 246.0,311.0 C 245.0,312.0 244.0,312.0 243.0,313.0 C 242.0,313.0 241.0,312.0 241.0,311.0 C 239.0,309.0 239.0,308.0 238.0,307.0 C 237.0,307.0 236.0,306.0 235.0,306.0 C 234.0,305.0 230.0,305.0 229.0,304.0 C 229.0,299.0 228.0,298.0 228.0,297.0 C 227.0,296.0 183.0,296.0 182.0,297.0 C 182.0,298.0 181.0,299.0 181.0,309.0 C 180.0,310.0 180.0,313.0 181.0,314.0 C 181.0,323.0 182.0,324.0 182.0,327.0 C 183.0,328.0 183.0,330.0 184.0,331.0 C 184.0,333.0 185.0,334.0 185.0,335.0 C 186.0,336.0 186.0,337.0 189.0,340.0 C 189.0,341.0 193.0,345.0 217.0,345.0 C 222.0,340.0 222.0,339.0 223.0,338.0 C 229.0,338.0 230.0,339.0 230.0,340.0 C 231.0,341.0 231.0,342.0 232.0,343.0 C 233.0,343.0 234.0,344.0 235.0,344.0 C 237.0,346.0 237.0,347.0 238.0,347.0 C 240.0,349.0 241.0,349.0 242.0,350.0 C 244.0,350.0 245.0,351.0 256.0,351.0 C 264.0,359.0 265.0,359.0 268.0,362.0 C 267.0,363.0 267.0,364.0 266.0,365.0 C 267.0,366.0 267.0,367.0 274.0,374.0 C 275.0,374.0 277.0,376.0 278.0,376.0 C 279.0,377.0 283.0,377.0 288.0,382.0 C 289.0,382.0 292.0,385.0 293.0,385.0 C 294.0,386.0 295.0,386.0 296.0,387.0 C 297.0,387.0 299.0,389.0 300.0,389.0 C 301.0,390.0 303.0,390.0 304.0,391.0 C 306.0,391.0 307.0,392.0 309.0,392.0 C 310.0,393.0 313.0,393.0 314.0,394.0 C 332.0,394.0 333.0,393.0 337.0,393.0 C 338.0,392.0 340.0,392.0 341.0,391.0 C 342.0,391.0 343.0,390.0 345.0,390.0 C 346.0,389.0 347.0,389.0 348.0,388.0 C 349.0,388.0 350.0,387.0 351.0,387.0 C 353.0,385.0 354.0,385.0 357.0,382.0 C 358.0,382.0 362.0,378.0 363.0,378.0 C 364.0,379.0 364.0,381.0 365.0,382.0 C 365.0,387.0 366.0,388.0 366.0,394.0 C 367.0,395.0 367.0,403.0 368.0,404.0 C 368.0,437.0 367.0,438.0 367.0,444.0 C 366.0,445.0 366.0,450.0 365.0,451.0 C 365.0,454.0 364.0,455.0 364.0,457.0 C 363.0,458.0 363.0,461.0 365.0,463.0 C 366.0,463.0 367.0,464.0 367.0,466.0 C 366.0,467.0 366.0,482.0 365.0,483.0 C 365.0,506.0 364.0,507.0 364.0,542.0 C 365.0,543.0 365.0,563.0 366.0,564.0 C 366.0,574.0 367.0,575.0 367.0,582.0 C 368.0,583.0 368.0,589.0 369.0,590.0 C 369.0,597.0 370.0,598.0 372.0,598.0 C 373.0,599.0 373.0,602.0 372.0,603.0 C 367.0,603.0 366.0,602.0 364.0,602.0 C 364.0,603.0 363.0,604.0 362.0,603.0 C 360.0,603.0 360.0,604.0 359.0,605.0 C 356.0,605.0 355.0,606.0 354.0,606.0 C 353.0,607.0 350.0,607.0 349.0,608.0 C 346.0,608.0 345.0,609.0 343.0,609.0 C 342.0,610.0 341.0,610.0 339.0,612.0 C 339.0,613.0 338.0,614.0 338.0,617.0 C 341.0,620.0 342.0,620.0 343.0,621.0 C 345.0,621.0 346.0,622.0 356.0,622.0 C 357.0,623.0 371.0,623.0 372.0,622.0 C 383.0,622.0 384.0,621.0 388.0,621.0 C 392.0,617.0 392.0,614.0 393.0,613.0 C 393.0,605.0 392.0,604.0 390.0,604.0 C 389.0,603.0 389.0,601.0 390.0,600.0 C 390.0,599.0 391.0,598.0 393.0,598.0 C 393.0,597.0 394.0,596.0 394.0,594.0 C 395.0,593.0 395.0,585.0 396.0,584.0 C 396.0,572.0 397.0,571.0 397.0,548.0 C 398.0,547.0 398.0,494.0 399.0,493.0 C 401.0,493.0 402.0,494.0 403.0,494.0 C 406.0,497.0 406.0,498.0 407.0,499.0 C 407.0,504.0 408.0,505.0 408.0,513.0 C 409.0,514.0 409.0,527.0 410.0,528.0 C 410.0,542.0 411.0,543.0 411.0,557.0 C 412.0,558.0 412.0,576.0 413.0,577.0 C 413.0,598.0 415.0,600.0 417.0,600.0 C 418.0,601.0 417.0,602.0 417.0,604.0 C 415.0,606.0 414.0,606.0 406.0,614.0 C 406.0,615.0 405.0,616.0 405.0,617.0 C 404.0,618.0 404.0,619.0 403.0,620.0 C 403.0,627.0 407.0,631.0 408.0,631.0 C 409.0,632.0 420.0,632.0 421.0,631.0 C 424.0,631.0 425.0,630.0 426.0,630.0 C 428.0,628.0 429.0,628.0 431.0,626.0 C 431.0,625.0 433.0,623.0 433.0,621.0 C 434.0,620.0 434.0,618.0 435.0,617.0 C 435.0,611.0 434.0,610.0 434.0,606.0 C 433.0,606.0 432.0,605.0 432.0,602.0 C 433.0,601.0 436.0,601.0 437.0,600.0 C 437.0,598.0 438.0,597.0 438.0,586.0 C 439.0,585.0 439.0,572.0 440.0,571.0 C 440.0,557.0 441.0,556.0 441.0,531.0 C 442.0,530.0 442.0,477.0 443.0,476.0 C 444.0,477.0 459.0,477.0 460.0,476.0 C 462.0,476.0 464.0,474.0 465.0,474.0 C 466.0,473.0 466.0,472.0 467.0,471.0 C 467.0,470.0 468.0,469.0 468.0,464.0 C 469.0,463.0 469.0,453.0 470.0,452.0 C 470.0,433.0 468.0,431.0 468.0,430.0 C 466.0,428.0 465.0,428.0 464.0,427.0 C 463.0,427.0 462.0,426.0 458.0,426.0 C 457.0,425.0 456.0,425.0 454.0,423.0 C 454.0,417.0 455.0,416.0 455.0,406.0 C 456.0,405.0 456.0,392.0 455.0,391.0 C 455.0,382.0 454.0,381.0 454.0,375.0 C 453.0,374.0 453.0,371.0 452.0,370.0 C 452.0,367.0 451.0,366.0 451.0,364.0 C 450.0,363.0 450.0,361.0 449.0,360.0 C 449.0,358.0 448.0,357.0 448.0,356.0 C 447.0,355.0 447.0,354.0 446.0,353.0 C 446.0,352.0 445.0,351.0 445.0,350.0 C 444.0,349.0 444.0,348.0 443.0,347.0 C 443.0,346.0 442.0,345.0 442.0,344.0 C 443.0,343.0 444.0,343.0 447.0,340.0 C 447.0,339.0 448.0,338.0 448.0,336.0 C 449.0,335.0 449.0,329.0 448.0,328.0 C 448.0,324.0 447.0,323.0 447.0,322.0 C 446.0,321.0 446.0,319.0 445.0,318.0 C 445.0,317.0 443.0,315.0 443.0,314.0 C 435.0,306.0 434.0,306.0 432.0,304.0 C 431.0,304.0 429.0,302.0 428.0,302.0 C 421.0,295.0 420.0,295.0 418.0,293.0 C 417.0,293.0 416.0,292.0 409.0,292.0 C 408.0,293.0 407.0,292.0 407.0,291.0 C 406.0,290.0 406.0,284.0 405.0,283.0 C 405.0,266.0 406.0,265.0 406.0,259.0 C 407.0,258.0 407.0,255.0 408.0,254.0 C 408.0,252.0 409.0,251.0 409.0,249.0 C 410.0,248.0 414.0,252.0 415.0,252.0 C 416.0,253.0 419.0,253.0 420.0,252.0 C 421.0,252.0 427.0,246.0 427.0,245.0 C 429.0,243.0 429.0,242.0 431.0,240.0 C 431.0,239.0 432.0,238.0 432.0,237.0 C 433.0,236.0 433.0,235.0 434.0,234.0 C 434.0,232.0 435.0,231.0 435.0,229.0 C 436.0,228.0 436.0,226.0 437.0,225.0 C 437.0,222.0 438.0,221.0 438.0,216.0 C 439.0,215.0 439.0,198.0 438.0,197.0 C 438.0,192.0 437.0,191.0 437.0,188.0 C 436.0,187.0 436.0,185.0 435.0,184.0 C 435.0,182.0 434.0,181.0 434.0,180.0 C 433.0,179.0 433.0,178.0 432.0,177.0 C 432.0,176.0 431.0,175.0 431.0,174.0 C 430.0,173.0 430.0,172.0 427.0,169.0 C 427.0,168.0 424.0,165.0 423.0,165.0 C 422.0,164.0 422.0,163.0 421.0,162.0 C 421.0,159.0 420.0,158.0 420.0,157.0 C 419.0,156.0 419.0,155.0 418.0,154.0 C 418.0,153.0 416.0,151.0 416.0,150.0 C 413.0,147.0 413.0,146.0 410.0,143.0 C 409.0,143.0 405.0,139.0 404.0,139.0 C 402.0,137.0 401.0,137.0 400.0,136.0 C 399.0,136.0 398.0,135.0 397.0,135.0 C 396.0,134.0 395.0,134.0 394.0,133.0 C 393.0,133.0 392.0,132.0 390.0,132.0 C 389.0,131.0 387.0,131.0 386.0,130.0 C 382.0,130.0 381.0,129.0 360.0,129.0 C 359.0,130.0 357.0,130.0 356.0,131.0 C 354.0,131.0 353.0,132.0 352.0,132.0 C 351.0,133.0 350.0,133.0 349.0,134.0 C 348.0,134.0 346.0,136.0 345.0,136.0 C 343.0,138.0 343.0,139.0 345.0,139.0 C 347.0,137.0 348.0,137.0 350.0,135.0 C 351.0,135.0 352.0,134.0 353.0,134.0 C 354.0,133.0 356.0,133.0 357.0,132.0 C 359.0,132.0 360.0,131.0 364.0,131.0 C 365.0,130.0 376.0,130.0 377.0,131.0 C 382.0,131.0 383.0,132.0 386.0,132.0 C 387.0,133.0 389.0,133.0 390.0,134.0 C 392.0,134.0 393.0,135.0 392.0,136.0 C 389.0,136.0 388.0,135.0 385.0,135.0 C 384.0,134.0 377.0,134.0 376.0,133.0 C 372.0,133.0 371.0,134.0 363.0,134.0 C 362.0,135.0 359.0,135.0 358.0,136.0 C 357.0,136.0 356.0,137.0 354.0,137.0 C 353.0,138.0 352.0,138.0 351.0,139.0 C 350.0,139.0 349.0,140.0 348.0,140.0 C 346.0,142.0 343.0,142.0 334.0,133.0 Z" fill="rgb(190,65,65)" stroke="none" stroke-width="0" /><path d="M 0.0,0.0 C 0.0,799.0 799.0,799.0 799.0,0.0 Z" fill="rgb(207,202,58)" stroke="none" stroke-width="0" /></svg>