<?xml version="1.0" encoding="utf-8" ?>
<svg baseProfile="full" height="400" version="1.1" width="400" xmlns="http://www.w3.org/2000/svg" xmlns:ev="http://www.w3.org/2001/xml-events" xmlns:xlink="http://www.w3.org/1999/xlink"><defs /><path d="M 0.0,0.0 C 0.0,399.0 399.0,399.0 399.0,0.0 Z" fill="rgb(254,184,93)" stroke="none" stroke-width="0" /><path d="M 182.0,228.0 C 181.109375,230.53125 180.359375,235.609375 179.796875,244.21875 C 179.46875,255.625 179.46875,267.765625 179.78125,278.25 C 180.21875,286.0 180.515625,291.390625 180.4375,295.09375 C 180.0,297.859375 179.578125,300.5625 179.8125,303.34375 C 181.671875,305.453125 185.828125,306.421875 191.171875,306.484375 C 195.359375,305.875 197.421875,304.609375 198.234375,302.921875 C 198.75,301.171875 199.25,299.0625 199.75,295.71875 C 200.25,290.78125 200.765625,284.890625 201.34375,279.78125 C 202.0,278.109375 202.65625,281.359375 203.1875,287.75 C 203.421875,294.09375 203.21875,299.21875 202.796875,303.75 C 202.78125,307.703125 203.8125,310.3125 206.078125,311.40625 C 208.921875,311.53125 211.234375,311.203125 212.59375,310.65625 C 213.5625,310.0 214.796875,309.34375 216.3125,308.71875 C 217.6875,307.890625 218.71875,306.4375 219.578125,304.140625 C 220.40625,301.078125 221.140625,297.109375 221.734375,291.40625 C 222.25,282.484375 222.765625,269.71875 223.34375,255.921875 C 223.96875,245.640625 224.421875,239.9375 224.265625,236.65625 C 222.875,234.546875 219.890625,233.578125 216.09375,233.4375 C 213.0,233.5 211.25,233.109375 210.34375,231.9375 C 209.578125,230.375 208.34375,229.125 206.25,228.515625 C 203.609375,228.4375 201.109375,228.5625 198.765625,228.5625 C 196.046875,228.421875 193.078125,228.328125 190.65625,228.234375 Z" fill="rgb(90,36,75)" stroke="none" stroke-width="0" /><path d="M 192.0,163.0 C 191.015625,163.671875 190.109375,164.34375 189.296875,165.09375 C 188.328125,165.90625 186.859375,166.640625 185.03125,167.328125 C 183.4375,168.421875 182.40625,170.53125 181.796875,173.796875 C 181.484375,177.65625 181.609375,181.140625 182.359375,183.46875 C 183.6875,184.75 185.203125,186.0 186.4375,188.0625 C 187.390625,190.59375 188.65625,192.546875 190.734375,193.4375 C 193.265625,193.421875 195.3125,192.453125 196.328125,190.34375 C 196.375,187.65625 195.640625,185.515625 194.3125,184.296875 C 192.828125,183.3125 191.84375,181.875 191.84375,180.125 C 192.828125,178.6875 194.3125,177.8125 195.671875,177.234375 C 196.609375,176.640625 197.234375,175.890625 197.765625,175.0 C 198.34375,173.984375 198.96875,172.484375 199.421875,170.015625 C 199.40625,166.984375 198.859375,164.53125 198.0,163.0 Z" fill="rgb(90,36,75)" stroke="none" stroke-width="0" /><path d="M 181.0,153.0 C 180.140625,154.421875 179.59375,156.640625 179.671875,159.34375 C 180.6875,161.453125 182.734375,162.421875 185.265625,162.421875 C 187.3125,161.453125 188.328125,159.34375 188.40625,156.640625 Z" fill="rgb(90,36,75)" stroke="none" stroke-width="0" /><path d="M 113.0,149.0 C 112.109375,150.328125 111.359375,152.4375 110.765625,155.265625 C 110.25,158.171875 109.78125,161.078125 109.484375,164.421875 C 109.578125,167.859375 110.140625,170.359375 111.0,171.640625 C 111.890625,172.34375 112.65625,173.0 113.4375,173.65625 C 114.765625,174.203125 117.078125,174.53125 119.953125,174.515625 C 122.4375,173.8125 124.109375,171.34375 125.0625,166.15625 C 125.296875,159.640625 124.828125,154.734375 123.875,152.421875 C 122.65625,151.40625 121.34375,150.578125 120.109375,149.765625 Z" fill="rgb(90,36,75)" stroke="none" stroke-width="0" /><path d="M 97.0,132.0 C 96.140625,133.546875 95.59375,136.078125 95.59375,139.25 C 96.21875,141.78125 97.5625,143.078125 99.71875,143.53125 C 102.265625,143.421875 104.3125,142.4375 105.34375,140.234375 C 105.515625,137.3125 105.203125,134.859375 104.640625,133.453125 Z" fill="rgb(90,36,75)" stroke="none" stroke-width="0" /><path d="M 165.0,119.0 C 164.140625,120.53125 163.59375,122.984375 163.671875,126.0 C 164.6875,128.34375 166.734375,129.40625 169.28125,129.53125 C 171.4375,129.09375 172.78125,127.890625 173.40625,125.59375 C 173.40625,122.734375 172.859375,120.4375 172.0,119.0 Z" fill="rgb(90,36,75)" stroke="none" stroke-width="0" /><path d="M 180.0,61.0 C 178.015625,61.65625 176.03125,62.234375 174.328125,62.75 C 173.046875,63.25 171.90625,63.75 170.34375,64.25 C 167.890625,64.75 164.734375,65.25 161.625,65.75 C 159.125,66.25 157.328125,66.75 156.015625,67.28125 C 154.796875,68.140625 153.453125,70.140625 152.265625,73.859375 C 151.703125,78.359375 151.8125,81.875 152.25,83.84375 C 152.75,85.0625 153.25,86.421875 153.765625,88.265625 C 154.40625,90.265625 155.453125,91.8125 157.15625,92.796875 C 159.3125,93.59375 161.34375,94.40625 162.953125,95.140625 C 164.28125,95.765625 165.296875,96.453125 165.59375,97.359375 C 164.96875,98.421875 163.75,99.59375 162.5,101.265625 C 161.71875,103.90625 161.703125,107.125 162.375,109.921875 C 163.328125,111.875 164.3125,113.203125 165.640625,114.078125 C 167.734375,114.515625 170.28125,114.53125 172.4375,114.203125 C 173.8125,113.640625 174.65625,112.90625 175.328125,111.96875 C 175.96875,110.484375 176.421875,108.015625 176.421875,104.984375 C 176.0,102.515625 175.640625,101.03125 176.03125,100.09375 C 177.515625,99.359375 179.640625,98.765625 181.625,98.25 C 183.375,97.78125 185.359375,97.515625 187.546875,97.828125 C 189.421875,99.09375 190.859375,101.34375 192.078125,104.109375 C 193.140625,106.609375 194.078125,108.28125 195.015625,109.1875 C 195.984375,109.921875 196.890625,111.453125 197.65625,114.53125 C 198.34375,118.46875 199.09375,121.59375 199.90625,123.390625 C 200.65625,124.6875 201.34375,125.96875 202.109375,127.015625 C 203.109375,127.71875 204.65625,128.21875 207.0625,128.53125 C 209.9375,128.53125 212.328125,128.203125 213.8125,127.625 C 214.75,126.78125 215.578125,125.640625 216.40625,124.34375 C 217.140625,123.109375 217.734375,122.015625 218.25,121.0 C 218.75,119.984375 219.25,118.890625 219.75,117.625 C 220.25,116.125 220.75,114.1875 221.21875,111.0625 C 221.53125,106.03125 221.53125,99.96875 221.21875,94.9375 C 220.75,91.8125 220.25,89.875 219.75,88.375 C 219.25,87.109375 218.75,86.015625 218.25,85.0 C 217.703125,83.953125 216.921875,82.671875 215.71875,80.96875 C 214.28125,79.015625 213.0625,77.203125 212.1875,75.59375 C 211.359375,73.953125 210.25,72.140625 208.703125,70.1875 C 206.828125,68.296875 204.96875,66.75 203.375,65.640625 C 202.0,64.859375 200.671875,64.265625 199.34375,63.75 C 198.046875,63.25 196.578125,62.75 194.625,62.234375 Z" fill="rgb(90,36,75)" stroke="none" stroke-width="0" /><path d="M 121.0,152.0 C 118.359375,152.65625 115.734375,153.390625 113.703125,154.875 C 112.765625,158.015625 112.828125,162.765625 113.453125,167.875 C 114.328125,171.96875 115.640625,174.421875 117.734375,175.421875 C 120.265625,175.40625 122.34375,174.328125 123.578125,171.90625 C 124.359375,168.734375 125.203125,166.09375 126.25,164.4375 C 127.3125,163.25 128.21875,162.09375 128.953125,160.609375 C 129.421875,158.359375 129.40625,155.640625 128.859375,153.421875 Z" fill="rgb(235,65,105)" stroke="none" stroke-width="0" /><path d="M 203.0,144.0 C 202.09375,145.453125 201.234375,147.84375 200.3125,150.9375 C 199.21875,153.546875 197.984375,155.015625 196.671875,155.734375 C 195.359375,156.265625 194.203125,156.890625 193.265625,157.8125 C 192.421875,159.109375 191.578125,160.546875 190.75,161.734375 C 189.921875,162.375 189.09375,162.3125 188.34375,161.625 C 187.578125,160.6875 186.34375,159.90625 184.265625,159.484375 C 181.734375,159.46875 179.65625,159.796875 178.421875,160.34375 C 177.671875,161.03125 177.0,161.890625 176.34375,163.0625 C 175.765625,164.640625 175.25,166.53125 174.734375,168.625 C 174.125,170.90625 173.296875,173.171875 172.234375,174.96875 C 171.09375,176.078125 169.984375,176.734375 168.78125,177.25 C 167.3125,177.75 165.671875,178.265625 164.109375,178.859375 C 162.6875,179.5625 161.34375,180.1875 160.09375,180.40625 C 158.921875,180.078125 157.765625,179.3125 156.671875,178.328125 C 155.671875,177.3125 154.671875,176.234375 153.671875,175.0 C 152.765625,173.796875 151.90625,172.890625 150.984375,172.265625 C 150.0,171.75 148.875,171.25 147.125,170.78125 C 144.25,170.46875 140.765625,170.484375 137.984375,170.90625 C 136.46875,171.6875 135.640625,172.671875 134.796875,173.828125 C 133.78125,175.765625 132.9375,179.1875 132.703125,183.359375 C 133.171875,186.53125 134.125,188.078125 135.34375,188.75 C 136.65625,189.25 137.875,189.78125 138.875,190.46875 C 139.65625,191.4375 140.359375,192.578125 141.21875,193.640625 C 142.359375,194.5625 143.65625,195.40625 144.890625,196.140625 C 146.0,196.734375 147.109375,197.25 148.390625,197.75 C 149.984375,198.25 152.078125,198.75 155.046875,199.21875 C 159.109375,199.53125 163.515625,199.53125 166.90625,199.21875 C 168.84375,198.75 170.0,198.25 171.0,197.75 C 172.0,197.25 173.0,196.75 174.046875,196.25 C 175.328125,195.78125 177.015625,195.546875 178.875,196.03125 C 180.421875,197.8125 181.5,201.296875 182.1875,206.40625 C 182.421875,212.140625 182.203125,217.203125 181.78125,221.515625 C 181.484375,225.890625 181.65625,230.140625 182.6875,233.109375 C 184.8125,234.375 187.828125,234.53125 191.171875,234.21875 C 194.1875,233.75 196.34375,233.234375 197.5625,232.5625 C 198.234375,231.34375 198.75,229.15625 199.265625,225.9375 C 199.921875,222.046875 201.03125,218.28125 202.78125,215.78125 C 204.765625,215.34375 206.3125,216.765625 207.375,218.9375 C 208.65625,220.65625 210.734375,221.453125 213.28125,221.5625 C 215.453125,221.4375 216.921875,221.46875 218.078125,221.78125 C 219.546875,222.21875 221.71875,222.53125 224.265625,222.515625 C 226.34375,222.09375 227.578125,221.3125 228.328125,220.234375 C 228.96875,218.671875 229.4375,215.90625 229.515625,210.78125 C 229.21875,202.75 228.75,193.375 228.21875,185.546875 C 227.546875,180.53125 226.6875,177.09375 225.90625,173.453125 C 225.5625,168.96875 225.578125,164.140625 225.53125,159.890625 C 225.203125,156.984375 224.640625,155.484375 223.859375,154.734375 C 222.78125,154.015625 221.421875,152.96875 220.03125,151.6875 C 218.875,150.5625 217.921875,149.796875 217.0,149.21875 C 216.109375,148.546875 215.34375,147.65625 214.640625,146.6875 C 213.78125,145.875 212.640625,145.25 211.328125,144.65625 Z" fill="rgb(235,65,105)" stroke="none" stroke-width="0" /><path d="M 167.0,120.0 C 166.140625,121.421875 165.59375,123.640625 165.671875,126.34375 C 166.6875,128.453125 168.734375,129.421875 171.265625,129.421875 C 173.3125,128.453125 174.328125,126.34375 174.40625,123.640625 Z" fill="rgb(235,65,105)" stroke="none" stroke-width="0" /></svg>