<?xml version="1.0" encoding="utf-8" ?>
<svg baseProfile="full" height="400" version="1.1" width="400" xmlns="http://www.w3.org/2000/svg" xmlns:ev="http://www.w3.org/2001/xml-events" xmlns:xlink="http://www.w3.org/1999/xlink"><defs /><path d="M 197.45712000000003,197.45712000000003 C 197.45712000000003,201.54288000000003 201.54288000000003,201.54288000000003 201.54288000000003,197.45712000000003 Z" fill="rgb(254,184,91)" stroke="none" stroke-width="0" /><path d="M 176.16336,203.12687999999997 C 176.52256,204.24847999999997 177.3512,204.85743999999997 176.96288,203.76719999999997 Z" fill="rgb(97,43,81)" stroke="none" stroke-width="0" /><path d="M 183.70736000000002,95.48432000000001 C 183.78064,96.04128 184.29104,96.01680000000002 184.22096,95.4576 Z" fill="rgb(97,43,81)" stroke="none" stroke-width="0" /><path d="M 200.31119999999999,190.60224 C 199.9584,190.87552 200.18831999999998,191.40096 200.54208,191.12127999999998 Z" fill="rgb(238,60,105)" stroke="none" stroke-width="0" /><path d="M 206.06400000000002,263.95125 C 205.79325,268.87649999999996 208.84825,270.93225 211.00775000000002,267.27725 Z" fill="rgb(229,142,82)" stroke="none" stroke-width="0" /><path d="M 92.0,148.0 L 95.0,168.0 L 177.0,193.0 Z" fill="rgb(229,142,82)" stroke="none" stroke-width="0" /><path d="M 196.31477999999998,152.37386 C 194.01854999999998,153.01823000000002 192.86933999999997,154.8109 194.01857,155.95946 Z" fill="rgb(229,142,82)" stroke="none" stroke-width="0" /><path d="M 184.3968,109.20448000000002 C 184.53488000000002,109.43376 185.10336,109.29664 184.96496000000002,109.06512000000001 Z" fill="rgb(229,142,82)" stroke="none" stroke-width="0" /><path d="M 198.04192,233.96704000000003 C 197.80448,234.23088 197.96,234.53024 198.1936,234.27184000000003 Z" fill="rgb(252,168,144)" stroke="none" stroke-width="0" /><path d="M 179.04559999999998,120.43616 C 179.03968,120.85392000000002 179.4552,121.0608 179.45952,120.64912000000001 Z" fill="rgb(252,168,144)" stroke="none" stroke-width="0" /><path d="M 175.90832,203.65215999999998 C 176.29296,204.76415999999998 177.1064,205.33152 176.69232,204.25216 Z" fill="rgb(64,14,57)" stroke="none" stroke-width="0" /><path d="M 184.20256,97.01487999999998 C 184.26496,97.52095999999999 184.79648,97.48591999999998 184.73600000000002,96.97824 Z" fill="rgb(64,14,57)" stroke="none" stroke-width="0" /><path d="M 195.97952000000004,258.24255999999997 C 195.85664,259.13968 196.02048000000002,259.25632 196.14336,258.36144 Z" fill="rgb(209,223,222)" stroke="none" stroke-width="0" /><path d="M 106.806,159.9055 C 106.27775,160.602 107.024,161.29575 108.0135,161.028 Z" fill="rgb(209,223,222)" stroke="none" stroke-width="0" /><path d="M 161.91225000000003,107.20899999999999 C 161.32525,107.61149999999998 161.67075,108.27449999999999 162.47125,108.28174999999999 Z" fill="rgb(209,223,222)" stroke="none" stroke-width="0" /></svg>