<?xml version="1.0" encoding="utf-8" ?>
<svg baseProfile="full" height="400" version="1.1" width="400" xmlns="http://www.w3.org/2000/svg" xmlns:ev="http://www.w3.org/2001/xml-events" xmlns:xlink="http://www.w3.org/1999/xlink"><defs /><path d="M 197.45712000000003,197.45712000000003 C 197.45712000000003,201.54288000000003 201.54288000000003,201.54288000000003 201.54288000000003,197.45712000000003 Z" fill="rgb(254,184,91)" stroke="none" stroke-width="0" /><path d="M 176.16336,203.12687999999997 C 176.52256,204.24847999999997 177.3512,204.85743999999997 176.96288,203.76719999999997 Z" fill="rgb(97,43,82)" stroke="none" stroke-width="0" /><path d="M 183.45728000000003,95.23424 C 183.53584000000004,95.79647999999999 184.04096000000004,95.76671999999999 183.96592,95.20255999999998 Z" fill="rgb(97,43,82)" stroke="none" stroke-width="0" /><path d="M 200.31119999999999,190.60224 C 199.9584,190.87552 200.18831999999998,191.40096 200.54208,191.12127999999998 Z" fill="rgb(239,59,104)" stroke="none" stroke-width="0" /><path d="M 208.82768000000004,259.32457999999997 C 202.84738,258.62185999999997 199.33193,266.46767 201.83863000000002,275.00865999999996 Z" fill="rgb(231,142,79)" stroke="none" stroke-width="0" /><path d="M 92.0,148.0 L 95.0,168.0 L 177.0,193.0 Z" fill="rgb(231,142,79)" stroke="none" stroke-width="0" /><path d="M 196.31477999999998,152.37386 C 194.01854999999998,153.01823000000002 192.86933999999997,154.8109 194.01857,155.95946 Z" fill="rgb(231,142,79)" stroke="none" stroke-width="0" /><path d="M 184.3968,109.20448000000002 C 184.53488000000002,109.43376 185.10336,109.29664 184.96496000000002,109.06512000000001 Z" fill="rgb(231,142,79)" stroke="none" stroke-width="0" /><path d="M 204.26375,223.13524999999998 C 204.63549999999998,223.99275 206.06375,224.3075 206.57475,223.64450000000005 Z" fill="rgb(254,168,142)" stroke="none" stroke-width="0" /><path d="M 180.30559999999997,120.19136 C 180.29503999999997,120.60384 180.69472,120.80575999999999 180.70463999999998,120.39903999999999 Z" fill="rgb(254,168,142)" stroke="none" stroke-width="0" /><path d="M 175.90832,203.65215999999998 C 176.29296,204.76415999999998 177.1064,205.33152 176.69232,204.25216 Z" fill="rgb(63,13,56)" stroke="none" stroke-width="0" /><path d="M 184.20256,97.01487999999998 C 184.26496,97.52095999999999 184.79648,97.48591999999998 184.73600000000002,96.97824 Z" fill="rgb(63,13,56)" stroke="none" stroke-width="0" /><path d="M 194.0,211.0 L 182.0,296.0 L 202.0,311.0 Z" fill="rgb(157,200,200)" stroke="none" stroke-width="0" /><path d="M 106.806,159.9055 C 106.27775,160.602 107.024,161.29575 108.0135,161.028 Z" fill="rgb(157,200,200)" stroke="none" stroke-width="0" /><path d="M 160.8625,106.64500000000001 C 160.2945,107.04750000000001 160.7015,107.66075000000002 161.521,107.63725000000002 Z" fill="rgb(157,200,200)" stroke="none" stroke-width="0" /><path d="M 196.28175,224.55724999999998 C 195.46224999999998,224.65675 195.1095,225.50699999999998 195.711,225.93300000000002 Z" fill="rgb(249,235,231)" stroke="none" stroke-width="0" /><path d="M 163.0195,106.46225 C 163.13524999999998,107.24375 163.89324999999997,107.41199999999998 164.24599999999998,106.7345 Z" fill="rgb(249,235,231)" stroke="none" stroke-width="0" /></svg>