<?xml version="1.0" encoding="utf-8" ?>
<svg baseProfile="full" height="400" version="1.1" width="400" xmlns="http://www.w3.org/2000/svg" xmlns:ev="http://www.w3.org/2001/xml-events" xmlns:xlink="http://www.w3.org/1999/xlink"><defs /><path d="M 156.40800000000002,156.40800000000002 C 156.40800000000002,242.592 242.592,242.592 242.592,156.40800000000002 Z" fill="rgb(254,184,91)" stroke="none" stroke-width="0" /><path d="M 146.61600000000004,175.704 C 152.60000000000002,193.824 171.104,228.4 189.24800000000002,265.432 C 205.304,270.744 212.36800000000002,241.88 208.2,210.792 C 206.38400000000001,191.688 211.52,179.05599999999998 210.43999999999997,168.4 Z" fill="rgb(95,39,81)" stroke="none" stroke-width="0" /><path d="M 169.544,82.416 C 160.856,101.272 162.99200000000002,117.376 172.80800000000002,122.312 C 187.648,119.01599999999999 202.36,111.36800000000001 208.144,97.392 Z" fill="rgb(95,39,81)" stroke="none" stroke-width="0" /><path d="M 204.67999999999998,177.26399999999998 C 187.2,171.272 167.392,175.66400000000004 153.072,180.67200000000003 C 150.592,185.872 160.88,193.25599999999997 176.76,203.048 C 191.32799999999997,211.69599999999997 203.56799999999998,209.96800000000002 210.52799999999996,195.288 Z" fill="rgb(241,58,104)" stroke="none" stroke-width="0" /><path d="M 185.08,305.44 C 202.95999999999998,309.28 230.6,307.12 229.99999999999997,302.15999999999997 Z" fill="rgb(236,145,78)" stroke="none" stroke-width="0" /><path d="M 229.936,220.42399999999998 C 226.352,221.712 223.69599999999997,225.856 223.752,230.33599999999998 C 226.28000000000003,232.576 229.648,231.28799999999998 232.08800000000002,227.14399999999998 Z" fill="rgb(236,145,78)" stroke="none" stroke-width="0" /><path d="M 169.336,116.93599999999998 C 165.37600000000003,116.52799999999999 162.184,118.8 161.34400000000002,122.87200000000001 C 163.312,126.384 167.15200000000002,126.8 170.68,123.87199999999999 Z" fill="rgb(236,145,78)" stroke="none" stroke-width="0" /><path d="M 204.336,227.896 C 204.672,230.808 208.544,233.09599999999998 213.656,233.192 C 216.95200000000003,230.85600000000002 216.824,227.61600000000004 213.17600000000002,225.65600000000003 Z" fill="rgb(254,168,143)" stroke="none" stroke-width="0" /><path d="M 121.6,161.2 C 119.67999999999999,163.77599999999998 120.672,167.45600000000002 123.96000000000001,169.92799999999997 C 127.64800000000001,169.8 129.46400000000003,167.224 128.576,163.544 Z" fill="rgb(254,168,143)" stroke="none" stroke-width="0" /><path d="M 170.232,102.416 C 164.49599999999998,111.312 169.808,126.81599999999997 180.848,141.83999999999997 C 190.33599999999998,148.52800000000002 195.26399999999995,140.23999999999998 193.56799999999998,120.672 Z" fill="rgb(254,168,143)" stroke="none" stroke-width="0" /><path d="M 188.71200000000002,289.904 C 185.872,294.696 186.592,301.23199999999997 191.85600000000002,306.824 C 200.49599999999998,310.296 208.08799999999997,310.456 211.04799999999997,306.944 C 208.36799999999997,301.048 201.664,294.65600000000006 194.304,289.94399999999996 Z" fill="rgb(65,15,57)" stroke="none" stroke-width="0" /><path d="M 207.312,208.68800000000002 C 196.82399999999998,185.99200000000002 169.47200000000004,174.68 151.88,175.656 C 163.096,182.864 186.96,193.32799999999997 198.24800000000005,207.93599999999998 Z" fill="rgb(65,15,57)" stroke="none" stroke-width="0" /><path d="M 166.07999999999998,88.376 C 161.44799999999998,102.792 168.864,114.87199999999999 182.40800000000002,114.40799999999999 Z" fill="rgb(65,15,57)" stroke="none" stroke-width="0" /><path d="M 97.608,155.352 C 96.98400000000001,160.712 101.192,165.16000000000003 108.00799999999998,165.464 C 113.07999999999998,161.608 113.15199999999999,156.46400000000003 108.632,152.88000000000002 Z" fill="rgb(170,206,224)" stroke="none" stroke-width="0" /><path d="M 206.56799999999998,219.48800000000003 C 204.6,217.008 198.976,217.64 192.55199999999996,221.024 C 189.57599999999996,225.152 191.64799999999997,227.744 197.384,227.216 Z" fill="rgb(252,236,231)" stroke="none" stroke-width="0" /><path d="M 160.264,105.47999999999999 C 163.928,108.664 172.96,109.60799999999999 179.68800000000002,107.864 C 179.776,104.952 173.536,102.67999999999999 164.848,102.75200000000001 Z" fill="rgb(252,236,231)" stroke="none" stroke-width="0" /><path d="M 211.61599999999999,288.32 C 203.37599999999998,285.496 193.856,291.904 193.488,301.304 Z" fill="rgb(147,100,103)" stroke="none" stroke-width="0" /><path d="M 202.89600000000002,224.72799999999998 C 208.47200000000004,231.984 220.13600000000002,233.216 228.016,228.176 C 228.49599999999998,220.456 221.35199999999998,215.38400000000001 209.632,217.05599999999998 Z" fill="rgb(147,100,103)" stroke="none" stroke-width="0" /><path d="M 207.48000000000002,159.76 C 205.94400000000002,156.35199999999998 196.472,158.71999999999997 180.64000000000001,164.06399999999996 C 158.984,167.416 138.352,167.55200000000002 132.296,172.712 C 144.304,183.19199999999998 163.624,188.40000000000003 182.36800000000002,182.28 Z" fill="rgb(147,100,103)" stroke="none" stroke-width="0" /><path d="M 157.952,101.968 C 158.496,110.62400000000002 167.99200000000002,117.376 181.192,117.8 C 193.192,117.07999999999998 200.8,116.96799999999999 198.93600000000004,111.984 Z" fill="rgb(147,100,103)" stroke="none" stroke-width="0" /></svg>