<?xml version="1.0" encoding="utf-8" ?>
<svg baseProfile="full" height="800" version="1.1" width="800" xmlns="http://www.w3.org/2000/svg" xmlns:ev="http://www.w3.org/2001/xml-events" xmlns:xlink="http://www.w3.org/1999/xlink"><defs /><path d="M 0.0,0.0 C 0.0,799.0 799.0,799.0 799.0,0.0 Z" fill="rgb(254,184,91)" stroke="none" stroke-width="0" /><path d="M 434.0,478.0 C 433.0,479.0 432.0,479.0 432.0,480.0 C 434.0,482.0 434.0,483.0 435.0,483.0 C 438.0,486.0 439.0,486.0 439.0,483.0 C 438.0,482.0 439.0,481.0 438.0,480.0 C 439.0,479.0 438.0,478.0 437.0,479.0 Z" fill="rgb(96,40,81)" stroke="none" stroke-width="0" /><path d="M 375.0,465.0 C 375.0,467.0 374.0,468.0 374.0,472.0 C 373.0,473.0 373.0,475.0 372.0,476.0 C 372.0,478.0 371.0,479.0 371.0,480.0 C 370.0,481.0 371.0,482.0 371.0,487.0 C 370.0,488.0 370.0,491.0 371.0,492.0 C 370.0,493.0 370.0,499.0 369.0,500.0 C 370.0,501.0 369.0,502.0 369.0,549.0 C 370.0,550.0 370.0,556.0 371.0,557.0 C 371.0,558.0 370.0,559.0 370.0,561.0 C 371.0,562.0 371.0,572.0 372.0,573.0 C 372.0,582.0 373.0,583.0 373.0,588.0 C 374.0,589.0 374.0,594.0 375.0,595.0 C 374.0,596.0 381.0,596.0 382.0,597.0 C 383.0,596.0 390.0,596.0 391.0,595.0 C 391.0,594.0 392.0,593.0 392.0,590.0 C 393.0,589.0 392.0,588.0 393.0,587.0 C 392.0,586.0 393.0,585.0 393.0,578.0 C 394.0,577.0 393.0,576.0 394.0,575.0 C 393.0,574.0 394.0,573.0 393.0,572.0 C 394.0,571.0 394.0,558.0 395.0,557.0 C 394.0,556.0 394.0,555.0 395.0,554.0 C 395.0,522.0 396.0,521.0 395.0,520.0 C 396.0,519.0 395.0,518.0 396.0,517.0 C 395.0,516.0 396.0,515.0 396.0,514.0 C 395.0,513.0 396.0,512.0 395.0,511.0 C 396.0,510.0 395.0,509.0 396.0,508.0 C 396.0,493.0 393.0,493.0 391.0,491.0 C 393.0,489.0 394.0,489.0 395.0,490.0 C 396.0,490.0 397.0,489.0 398.0,490.0 C 400.0,490.0 401.0,491.0 402.0,490.0 C 403.0,491.0 403.0,492.0 404.0,491.0 C 405.0,491.0 406.0,492.0 407.0,492.0 C 411.0,496.0 411.0,497.0 412.0,498.0 C 412.0,502.0 413.0,503.0 413.0,507.0 C 414.0,508.0 414.0,511.0 415.0,512.0 C 414.0,513.0 414.0,515.0 415.0,516.0 C 415.0,525.0 416.0,526.0 416.0,544.0 C 417.0,545.0 417.0,571.0 418.0,572.0 C 417.0,573.0 418.0,574.0 417.0,575.0 C 418.0,576.0 417.0,577.0 417.0,588.0 C 418.0,589.0 418.0,591.0 417.0,592.0 C 417.0,597.0 418.0,598.0 422.0,598.0 C 423.0,599.0 430.0,599.0 431.0,598.0 C 432.0,599.0 433.0,598.0 434.0,598.0 C 435.0,597.0 435.0,592.0 436.0,591.0 C 435.0,590.0 436.0,589.0 436.0,580.0 C 437.0,579.0 436.0,578.0 437.0,577.0 C 436.0,576.0 437.0,575.0 437.0,564.0 C 438.0,563.0 437.0,562.0 437.0,561.0 C 438.0,560.0 437.0,559.0 438.0,558.0 C 438.0,542.0 439.0,541.0 438.0,540.0 C 439.0,539.0 438.0,538.0 439.0,537.0 C 439.0,490.0 438.0,489.0 437.0,489.0 C 436.0,488.0 435.0,488.0 431.0,484.0 C 431.0,483.0 428.0,480.0 428.0,479.0 C 423.0,479.0 422.0,478.0 416.0,478.0 C 413.0,475.0 412.0,475.0 411.0,474.0 C 410.0,475.0 409.0,474.0 408.0,475.0 C 407.0,474.0 403.0,474.0 402.0,473.0 C 399.0,473.0 397.0,471.0 396.0,471.0 C 395.0,470.0 395.0,469.0 393.0,467.0 C 392.0,468.0 391.0,467.0 389.0,467.0 C 388.0,466.0 387.0,467.0 386.0,466.0 C 385.0,467.0 384.0,466.0 383.0,467.0 C 382.0,466.0 381.0,467.0 380.0,466.0 Z" fill="rgb(96,40,81)" stroke="none" stroke-width="0" /><path d="M 366.0,134.0 C 365.0,135.0 361.0,135.0 360.0,136.0 C 357.0,136.0 356.0,137.0 355.0,137.0 C 354.0,138.0 353.0,138.0 352.0,139.0 C 351.0,139.0 350.0,140.0 349.0,140.0 C 347.0,142.0 346.0,142.0 345.0,143.0 C 348.0,146.0 349.0,146.0 351.0,148.0 C 352.0,148.0 354.0,150.0 355.0,150.0 C 356.0,151.0 357.0,151.0 358.0,152.0 C 359.0,152.0 360.0,153.0 361.0,153.0 C 362.0,154.0 364.0,154.0 365.0,155.0 C 366.0,155.0 367.0,156.0 370.0,156.0 C 371.0,157.0 374.0,157.0 375.0,158.0 C 380.0,158.0 381.0,159.0 389.0,159.0 C 390.0,160.0 389.0,161.0 387.0,161.0 C 386.0,162.0 385.0,162.0 384.0,161.0 C 383.0,162.0 382.0,161.0 381.0,162.0 C 380.0,161.0 374.0,161.0 373.0,160.0 C 370.0,160.0 369.0,159.0 367.0,159.0 C 366.0,158.0 364.0,158.0 363.0,157.0 C 361.0,157.0 360.0,156.0 359.0,156.0 C 358.0,155.0 357.0,155.0 356.0,154.0 C 355.0,154.0 354.0,153.0 353.0,153.0 C 351.0,151.0 350.0,151.0 348.0,149.0 C 347.0,149.0 343.0,145.0 342.0,145.0 C 341.0,144.0 341.0,143.0 340.0,144.0 C 339.0,144.0 338.0,145.0 335.0,145.0 C 334.0,146.0 330.0,146.0 330.0,147.0 C 336.0,153.0 337.0,153.0 341.0,157.0 C 342.0,157.0 344.0,159.0 345.0,159.0 C 347.0,161.0 348.0,161.0 350.0,163.0 C 349.0,164.0 347.0,164.0 346.0,163.0 C 345.0,163.0 343.0,161.0 342.0,161.0 C 341.0,160.0 340.0,160.0 337.0,157.0 C 336.0,157.0 325.0,146.0 324.0,146.0 C 323.0,147.0 322.0,146.0 321.0,147.0 C 319.0,147.0 315.0,151.0 315.0,152.0 C 314.0,153.0 315.0,154.0 314.0,155.0 C 314.0,156.0 313.0,157.0 314.0,158.0 C 314.0,161.0 315.0,162.0 315.0,164.0 C 316.0,165.0 316.0,167.0 315.0,168.0 C 316.0,167.0 317.0,168.0 317.0,170.0 C 318.0,171.0 318.0,172.0 319.0,172.0 C 325.0,178.0 326.0,178.0 328.0,180.0 C 329.0,180.0 330.0,181.0 331.0,181.0 C 333.0,183.0 334.0,183.0 335.0,184.0 C 336.0,184.0 337.0,185.0 339.0,185.0 C 340.0,186.0 342.0,186.0 343.0,187.0 C 345.0,187.0 346.0,188.0 347.0,187.0 C 348.0,188.0 360.0,188.0 361.0,187.0 C 362.0,188.0 363.0,187.0 367.0,187.0 C 368.0,186.0 369.0,187.0 370.0,186.0 C 373.0,186.0 374.0,185.0 377.0,185.0 C 378.0,184.0 379.0,185.0 380.0,184.0 C 384.0,184.0 385.0,183.0 386.0,184.0 C 387.0,184.0 387.0,183.0 392.0,178.0 C 394.0,178.0 395.0,177.0 401.0,177.0 C 402.0,178.0 402.0,179.0 401.0,180.0 C 395.0,180.0 394.0,181.0 393.0,181.0 C 391.0,183.0 391.0,184.0 390.0,185.0 C 390.0,186.0 389.0,187.0 389.0,189.0 C 388.0,190.0 388.0,194.0 389.0,195.0 C 389.0,196.0 390.0,197.0 390.0,198.0 C 400.0,208.0 401.0,208.0 403.0,210.0 C 407.0,210.0 409.0,212.0 409.0,213.0 C 410.0,214.0 410.0,215.0 411.0,216.0 C 411.0,226.0 410.0,227.0 410.0,230.0 C 409.0,231.0 409.0,236.0 410.0,237.0 C 410.0,241.0 411.0,242.0 411.0,243.0 C 412.0,244.0 412.0,246.0 416.0,250.0 C 418.0,250.0 419.0,249.0 420.0,249.0 C 424.0,245.0 424.0,244.0 427.0,241.0 C 427.0,240.0 428.0,239.0 428.0,238.0 C 429.0,237.0 429.0,236.0 430.0,235.0 C 430.0,234.0 431.0,233.0 431.0,232.0 C 432.0,231.0 432.0,229.0 433.0,228.0 C 433.0,226.0 434.0,225.0 434.0,224.0 C 435.0,223.0 434.0,222.0 435.0,221.0 C 435.0,219.0 436.0,218.0 435.0,217.0 C 436.0,216.0 436.0,212.0 437.0,211.0 C 436.0,210.0 437.0,209.0 436.0,208.0 C 437.0,207.0 436.0,206.0 437.0,205.0 C 436.0,204.0 437.0,203.0 436.0,202.0 C 436.0,196.0 435.0,195.0 435.0,191.0 C 434.0,190.0 434.0,189.0 433.0,188.0 C 434.0,187.0 433.0,186.0 433.0,185.0 C 432.0,184.0 432.0,182.0 431.0,181.0 C 431.0,179.0 429.0,177.0 429.0,176.0 C 428.0,175.0 428.0,174.0 426.0,172.0 C 426.0,171.0 422.0,167.0 421.0,167.0 C 420.0,166.0 420.0,165.0 419.0,164.0 C 419.0,161.0 418.0,160.0 418.0,159.0 C 417.0,158.0 417.0,157.0 416.0,156.0 C 416.0,155.0 415.0,154.0 415.0,153.0 C 412.0,150.0 412.0,149.0 404.0,141.0 C 403.0,141.0 401.0,139.0 400.0,140.0 C 398.0,140.0 397.0,139.0 395.0,139.0 C 393.0,137.0 391.0,137.0 390.0,136.0 C 388.0,136.0 387.0,135.0 382.0,135.0 C 381.0,134.0 379.0,134.0 378.0,135.0 C 377.0,135.0 376.0,134.0 371.0,134.0 C 370.0,135.0 369.0,135.0 368.0,134.0 Z" fill="rgb(96,40,81)" stroke="none" stroke-width="0" /><path d="M 428.0,425.0 C 427.0,426.0 427.0,437.0 426.0,438.0 C 450.0,438.0 450.0,436.0 451.0,435.0 C 451.0,432.0 452.0,431.0 452.0,428.0 C 453.0,427.0 450.0,427.0 449.0,426.0 Z" fill="rgb(239,59,104)" stroke="none" stroke-width="0" /><path d="M 287.0,348.0 C 283.0,352.0 282.0,352.0 277.0,357.0 C 276.0,357.0 271.0,362.0 271.0,363.0 C 270.0,364.0 270.0,366.0 276.0,372.0 C 277.0,372.0 279.0,374.0 281.0,374.0 C 285.0,370.0 286.0,370.0 293.0,363.0 C 294.0,363.0 300.0,357.0 301.0,357.0 C 300.0,357.0 297.0,354.0 296.0,354.0 C 293.0,351.0 292.0,351.0 289.0,348.0 Z" fill="rgb(239,59,104)" stroke="none" stroke-width="0" /><path d="M 417.0,326.0 C 413.0,330.0 412.0,330.0 410.0,332.0 C 409.0,332.0 408.0,333.0 407.0,333.0 C 406.0,334.0 404.0,334.0 403.0,335.0 C 397.0,335.0 396.0,334.0 393.0,334.0 C 392.0,335.0 393.0,335.0 396.0,338.0 C 396.0,340.0 395.0,341.0 394.0,341.0 C 393.0,340.0 393.0,341.0 392.0,342.0 C 392.0,343.0 391.0,344.0 391.0,345.0 C 390.0,346.0 390.0,349.0 389.0,350.0 C 389.0,353.0 388.0,354.0 388.0,358.0 C 387.0,359.0 387.0,369.0 386.0,370.0 C 386.0,372.0 390.0,376.0 390.0,380.0 C 386.0,384.0 384.0,384.0 383.0,383.0 C 382.0,383.0 380.0,381.0 380.0,380.0 C 379.0,379.0 379.0,377.0 380.0,376.0 C 380.0,375.0 383.0,372.0 383.0,363.0 C 384.0,362.0 384.0,355.0 385.0,354.0 C 385.0,350.0 386.0,349.0 386.0,347.0 C 387.0,346.0 387.0,344.0 388.0,343.0 C 388.0,342.0 389.0,341.0 389.0,340.0 C 391.0,338.0 390.0,337.0 389.0,337.0 C 385.0,341.0 385.0,342.0 384.0,343.0 C 384.0,344.0 383.0,345.0 383.0,346.0 C 382.0,347.0 382.0,348.0 379.0,351.0 C 378.0,351.0 377.0,350.0 376.0,350.0 C 375.0,349.0 375.0,348.0 374.0,347.0 C 374.0,346.0 373.0,345.0 373.0,344.0 C 372.0,343.0 372.0,342.0 372.0,354.0 C 374.0,354.0 376.0,356.0 376.0,357.0 C 377.0,358.0 377.0,361.0 373.0,365.0 C 369.0,365.0 367.0,363.0 367.0,362.0 C 366.0,361.0 366.0,358.0 367.0,357.0 C 367.0,356.0 368.0,355.0 368.0,342.0 C 369.0,341.0 369.0,334.0 368.0,333.0 C 368.0,331.0 367.0,330.0 367.0,329.0 C 366.0,329.0 362.0,333.0 362.0,334.0 C 361.0,335.0 361.0,336.0 360.0,337.0 C 360.0,338.0 359.0,339.0 359.0,341.0 C 358.0,342.0 358.0,346.0 357.0,347.0 C 357.0,351.0 356.0,352.0 356.0,353.0 C 346.0,363.0 345.0,363.0 343.0,365.0 C 342.0,365.0 341.0,366.0 340.0,366.0 C 339.0,367.0 338.0,367.0 337.0,368.0 C 335.0,368.0 334.0,369.0 331.0,369.0 C 330.0,370.0 318.0,370.0 317.0,369.0 C 314.0,369.0 313.0,368.0 311.0,368.0 C 310.0,367.0 309.0,367.0 308.0,366.0 C 307.0,366.0 305.0,364.0 304.0,364.0 C 301.0,361.0 298.0,364.0 297.0,364.0 C 291.0,370.0 290.0,370.0 285.0,375.0 C 290.0,380.0 291.0,380.0 293.0,382.0 C 294.0,382.0 296.0,384.0 297.0,384.0 C 298.0,385.0 299.0,385.0 300.0,386.0 C 301.0,386.0 302.0,387.0 303.0,387.0 C 304.0,388.0 306.0,388.0 307.0,389.0 C 309.0,389.0 310.0,390.0 313.0,390.0 C 314.0,391.0 320.0,391.0 321.0,392.0 C 327.0,392.0 328.0,391.0 333.0,391.0 C 334.0,390.0 337.0,390.0 338.0,389.0 C 340.0,389.0 341.0,388.0 343.0,388.0 C 344.0,387.0 345.0,387.0 346.0,386.0 C 347.0,386.0 349.0,384.0 350.0,384.0 C 351.0,383.0 352.0,383.0 355.0,380.0 C 356.0,380.0 361.0,375.0 360.0,374.0 C 360.0,373.0 358.0,371.0 358.0,369.0 C 359.0,368.0 361.0,368.0 364.0,371.0 C 364.0,372.0 365.0,373.0 365.0,375.0 C 366.0,376.0 366.0,378.0 368.0,380.0 C 368.0,382.0 369.0,383.0 369.0,386.0 C 370.0,387.0 370.0,392.0 371.0,393.0 C 371.0,400.0 372.0,401.0 372.0,414.0 C 373.0,415.0 373.0,435.0 372.0,436.0 C 372.0,447.0 371.0,448.0 371.0,453.0 C 370.0,454.0 370.0,458.0 369.0,459.0 C 369.0,461.0 371.0,461.0 372.0,462.0 C 377.0,462.0 378.0,463.0 392.0,463.0 C 392.0,452.0 393.0,451.0 393.0,441.0 C 394.0,440.0 394.0,433.0 395.0,432.0 C 395.0,428.0 396.0,427.0 396.0,426.0 C 397.0,425.0 397.0,424.0 400.0,421.0 C 401.0,421.0 402.0,420.0 404.0,420.0 C 405.0,419.0 410.0,419.0 411.0,420.0 C 422.0,420.0 423.0,421.0 425.0,421.0 C 425.0,418.0 426.0,417.0 426.0,410.0 C 427.0,409.0 427.0,393.0 426.0,392.0 C 426.0,385.0 425.0,384.0 425.0,380.0 C 424.0,379.0 424.0,376.0 423.0,375.0 C 423.0,373.0 422.0,372.0 422.0,370.0 C 421.0,369.0 421.0,367.0 420.0,366.0 C 420.0,365.0 419.0,364.0 419.0,363.0 C 418.0,362.0 418.0,361.0 417.0,360.0 C 417.0,359.0 416.0,358.0 416.0,357.0 C 413.0,354.0 413.0,352.0 414.0,351.0 C 415.0,351.0 418.0,354.0 418.0,355.0 C 420.0,357.0 420.0,358.0 421.0,359.0 C 421.0,360.0 422.0,361.0 422.0,362.0 C 423.0,363.0 423.0,364.0 424.0,365.0 C 424.0,367.0 425.0,368.0 425.0,369.0 C 426.0,370.0 426.0,373.0 427.0,374.0 C 427.0,376.0 428.0,377.0 428.0,380.0 C 429.0,381.0 429.0,386.0 430.0,387.0 C 430.0,415.0 429.0,416.0 429.0,421.0 C 439.0,421.0 440.0,422.0 446.0,422.0 C 447.0,423.0 451.0,423.0 451.0,419.0 C 452.0,418.0 452.0,411.0 453.0,410.0 C 453.0,388.0 452.0,387.0 452.0,380.0 C 451.0,379.0 451.0,375.0 450.0,374.0 C 450.0,371.0 449.0,370.0 449.0,367.0 C 448.0,366.0 448.0,364.0 447.0,363.0 C 447.0,361.0 446.0,360.0 446.0,359.0 C 445.0,358.0 445.0,356.0 444.0,355.0 C 444.0,354.0 443.0,353.0 443.0,352.0 C 442.0,351.0 442.0,350.0 440.0,348.0 C 440.0,347.0 439.0,346.0 439.0,345.0 C 437.0,343.0 437.0,342.0 433.0,338.0 C 433.0,337.0 425.0,329.0 424.0,329.0 Z" fill="rgb(239,59,104)" stroke="none" stroke-width="0" /><path d="M 371.0,304.0 C 370.0,305.0 370.0,306.0 369.0,307.0 C 369.0,309.0 368.0,310.0 368.0,313.0 C 367.0,314.0 367.0,319.0 368.0,320.0 C 368.0,323.0 369.0,324.0 369.0,325.0 C 370.0,326.0 370.0,328.0 370.0,325.0 Z" fill="rgb(239,59,104)" stroke="none" stroke-width="0" /><path d="M 412.0,294.0 C 411.0,295.0 410.0,295.0 409.0,296.0 C 409.0,298.0 411.0,300.0 411.0,301.0 C 417.0,307.0 417.0,312.0 414.0,315.0 C 413.0,315.0 412.0,316.0 411.0,316.0 C 410.0,317.0 409.0,317.0 408.0,318.0 C 406.0,318.0 405.0,319.0 403.0,319.0 C 402.0,320.0 401.0,320.0 400.0,321.0 C 398.0,321.0 397.0,322.0 396.0,322.0 C 395.0,323.0 394.0,323.0 391.0,326.0 C 391.0,327.0 394.0,330.0 395.0,330.0 C 396.0,331.0 404.0,331.0 405.0,330.0 C 406.0,330.0 407.0,329.0 408.0,329.0 C 409.0,328.0 410.0,328.0 413.0,325.0 C 414.0,325.0 417.0,322.0 420.0,322.0 C 421.0,323.0 423.0,323.0 424.0,324.0 C 425.0,324.0 426.0,325.0 427.0,325.0 C 438.0,336.0 438.0,337.0 442.0,341.0 C 443.0,340.0 444.0,340.0 444.0,339.0 C 445.0,338.0 445.0,337.0 446.0,336.0 C 446.0,328.0 445.0,327.0 445.0,324.0 C 444.0,323.0 444.0,322.0 443.0,321.0 C 443.0,320.0 442.0,319.0 442.0,318.0 C 441.0,317.0 441.0,316.0 433.0,308.0 C 432.0,308.0 430.0,306.0 429.0,306.0 C 427.0,304.0 426.0,304.0 419.0,297.0 C 418.0,297.0 416.0,295.0 414.0,295.0 Z" fill="rgb(239,59,104)" stroke="none" stroke-width="0" /><path d="M 346.0,247.0 C 345.0,248.0 336.0,248.0 336.0,251.0 C 335.0,252.0 338.0,252.0 338.0,251.0 C 339.0,250.0 340.0,251.0 341.0,251.0 C 341.0,250.0 342.0,249.0 343.0,250.0 Z" fill="rgb(239,59,104)" stroke="none" stroke-width="0" /><path d="M 368.0,589.0 C 368.0,591.0 367.0,592.0 361.0,592.0 C 360.0,593.0 346.0,593.0 345.0,594.0 C 344.0,593.0 343.0,594.0 332.0,594.0 C 331.0,595.0 322.0,595.0 321.0,596.0 C 313.0,596.0 312.0,597.0 306.0,597.0 C 305.0,598.0 300.0,598.0 299.0,599.0 C 294.0,599.0 293.0,600.0 289.0,600.0 C 288.0,601.0 285.0,601.0 284.0,602.0 C 281.0,602.0 280.0,603.0 277.0,603.0 C 276.0,604.0 274.0,604.0 273.0,605.0 C 271.0,605.0 270.0,606.0 269.0,606.0 C 268.0,607.0 266.0,607.0 264.0,609.0 C 263.0,609.0 261.0,611.0 261.0,612.0 C 260.0,613.0 260.0,615.0 261.0,616.0 C 261.0,617.0 262.0,618.0 263.0,618.0 C 265.0,620.0 266.0,620.0 267.0,621.0 C 268.0,621.0 269.0,622.0 271.0,622.0 C 272.0,623.0 274.0,623.0 275.0,624.0 C 277.0,624.0 278.0,625.0 281.0,625.0 C 282.0,626.0 285.0,626.0 286.0,627.0 C 289.0,627.0 290.0,628.0 295.0,628.0 C 296.0,629.0 300.0,629.0 301.0,630.0 C 307.0,630.0 308.0,631.0 314.0,631.0 C 315.0,632.0 323.0,632.0 324.0,633.0 C 334.0,633.0 335.0,634.0 347.0,634.0 C 348.0,635.0 364.0,635.0 365.0,636.0 C 366.0,635.0 367.0,636.0 434.0,636.0 C 435.0,635.0 454.0,635.0 455.0,634.0 C 467.0,634.0 468.0,633.0 478.0,633.0 C 479.0,632.0 486.0,632.0 487.0,631.0 C 494.0,631.0 495.0,630.0 500.0,630.0 C 501.0,629.0 506.0,629.0 507.0,628.0 C 512.0,628.0 513.0,627.0 516.0,627.0 C 517.0,626.0 520.0,626.0 521.0,625.0 C 524.0,625.0 525.0,624.0 527.0,624.0 C 528.0,623.0 530.0,623.0 531.0,622.0 C 533.0,622.0 534.0,621.0 535.0,621.0 C 536.0,620.0 537.0,620.0 539.0,618.0 C 540.0,618.0 541.0,617.0 541.0,616.0 C 542.0,615.0 542.0,613.0 541.0,612.0 C 541.0,611.0 539.0,609.0 538.0,609.0 C 536.0,607.0 534.0,607.0 533.0,606.0 C 532.0,606.0 531.0,605.0 529.0,605.0 C 528.0,604.0 526.0,604.0 525.0,603.0 C 523.0,603.0 522.0,602.0 518.0,602.0 C 517.0,601.0 514.0,601.0 513.0,600.0 C 509.0,600.0 508.0,599.0 503.0,599.0 C 502.0,598.0 497.0,598.0 496.0,597.0 C 490.0,597.0 489.0,596.0 481.0,596.0 C 480.0,595.0 471.0,595.0 470.0,594.0 C 459.0,594.0 458.0,593.0 457.0,594.0 C 456.0,593.0 442.0,593.0 441.0,592.0 C 439.0,592.0 439.0,595.0 438.0,596.0 C 438.0,599.0 435.0,602.0 433.0,602.0 C 433.0,605.0 435.0,607.0 435.0,620.0 C 434.0,621.0 434.0,622.0 433.0,623.0 C 433.0,624.0 431.0,626.0 431.0,627.0 C 430.0,628.0 429.0,628.0 427.0,630.0 C 426.0,630.0 425.0,631.0 424.0,631.0 C 423.0,632.0 420.0,632.0 419.0,633.0 C 409.0,633.0 408.0,632.0 407.0,632.0 C 403.0,628.0 403.0,627.0 402.0,626.0 C 402.0,621.0 403.0,620.0 403.0,618.0 C 404.0,617.0 404.0,616.0 406.0,614.0 C 406.0,613.0 413.0,606.0 414.0,606.0 C 415.0,605.0 416.0,605.0 417.0,604.0 C 417.0,601.0 416.0,601.0 415.0,600.0 C 414.0,600.0 412.0,598.0 412.0,592.0 C 395.0,592.0 395.0,596.0 392.0,599.0 C 391.0,599.0 390.0,600.0 390.0,604.0 C 391.0,603.0 392.0,603.0 394.0,605.0 C 394.0,612.0 393.0,613.0 393.0,616.0 C 392.0,617.0 392.0,618.0 389.0,621.0 C 388.0,621.0 387.0,622.0 381.0,622.0 C 380.0,623.0 347.0,623.0 346.0,622.0 C 343.0,622.0 342.0,621.0 341.0,621.0 C 338.0,618.0 338.0,617.0 337.0,616.0 C 337.0,614.0 338.0,613.0 338.0,612.0 C 340.0,610.0 341.0,610.0 342.0,609.0 C 343.0,609.0 344.0,608.0 346.0,608.0 C 347.0,607.0 350.0,607.0 351.0,606.0 C 354.0,606.0 356.0,604.0 359.0,604.0 C 361.0,602.0 362.0,603.0 363.0,603.0 C 365.0,601.0 366.0,601.0 368.0,603.0 C 369.0,603.0 370.0,602.0 371.0,602.0 C 372.0,603.0 372.0,599.0 371.0,599.0 Z" fill="rgb(236,145,79)" stroke="none" stroke-width="0" /><path d="M 421.0,602.0 C 421.0,604.0 420.0,605.0 420.0,606.0 C 421.0,606.0 422.0,607.0 429.0,607.0 C 429.0,602.0 428.0,603.0 427.0,602.0 Z" fill="rgb(252,166,142)" stroke="none" stroke-width="0" /><path d="M 376.0,600.0 C 376.0,604.0 379.0,604.0 380.0,605.0 C 381.0,604.0 386.0,604.0 386.0,600.0 Z" fill="rgb(252,166,142)" stroke="none" stroke-width="0" /><path d="M 430.0,442.0 C 430.0,446.0 429.0,447.0 429.0,448.0 C 425.0,452.0 424.0,452.0 423.0,451.0 C 424.0,452.0 423.0,453.0 422.0,453.0 C 421.0,454.0 420.0,454.0 419.0,455.0 C 418.0,455.0 416.0,457.0 415.0,457.0 C 414.0,458.0 413.0,458.0 410.0,461.0 C 410.0,462.0 408.0,464.0 409.0,465.0 C 412.0,465.0 413.0,464.0 414.0,464.0 C 415.0,463.0 417.0,463.0 419.0,465.0 C 418.0,466.0 418.0,467.0 417.0,468.0 C 417.0,474.0 418.0,474.0 419.0,475.0 C 420.0,475.0 421.0,474.0 421.0,473.0 C 423.0,471.0 424.0,471.0 425.0,472.0 C 425.0,475.0 429.0,475.0 430.0,474.0 C 430.0,472.0 431.0,471.0 433.0,471.0 C 434.0,472.0 434.0,475.0 436.0,475.0 C 437.0,474.0 438.0,474.0 438.0,473.0 C 439.0,472.0 439.0,471.0 440.0,470.0 C 440.0,469.0 441.0,468.0 441.0,467.0 C 442.0,466.0 442.0,465.0 443.0,464.0 C 443.0,459.0 444.0,458.0 444.0,456.0 C 443.0,455.0 443.0,452.0 442.0,451.0 C 442.0,444.0 443.0,443.0 443.0,442.0 Z" fill="rgb(252,166,142)" stroke="none" stroke-width="0" /><path d="M 237.0,337.0 C 236.0,338.0 234.0,338.0 233.0,339.0 C 235.0,341.0 236.0,341.0 237.0,342.0 C 238.0,341.0 240.0,341.0 241.0,340.0 C 242.0,340.0 242.0,338.0 241.0,337.0 Z" fill="rgb(252,166,142)" stroke="none" stroke-width="0" /><path d="M 243.0,325.0 C 243.0,330.0 242.0,331.0 242.0,332.0 C 241.0,333.0 242.0,333.0 243.0,334.0 C 244.0,334.0 245.0,335.0 244.0,334.0 C 244.0,327.0 245.0,326.0 245.0,325.0 Z" fill="rgb(252,166,142)" stroke="none" stroke-width="0" /><path d="M 232.0,324.0 C 231.0,325.0 231.0,328.0 232.0,329.0 C 234.0,329.0 235.0,328.0 237.0,328.0 C 238.0,327.0 238.0,326.0 237.0,325.0 Z" fill="rgb(252,166,142)" stroke="none" stroke-width="0" /><path d="M 247.0,314.0 C 246.0,315.0 245.0,315.0 244.0,316.0 C 243.0,316.0 242.0,317.0 242.0,318.0 C 241.0,319.0 241.0,320.0 242.0,320.0 C 243.0,321.0 244.0,320.0 251.0,320.0 C 252.0,321.0 252.0,322.0 250.0,324.0 C 250.0,325.0 249.0,326.0 249.0,328.0 C 248.0,329.0 248.0,332.0 249.0,333.0 C 249.0,335.0 250.0,336.0 250.0,337.0 C 251.0,338.0 251.0,340.0 250.0,341.0 C 248.0,341.0 247.0,340.0 247.0,339.0 C 246.0,340.0 246.0,341.0 242.0,345.0 C 240.0,345.0 241.0,346.0 242.0,346.0 C 243.0,347.0 245.0,347.0 246.0,348.0 C 252.0,348.0 253.0,347.0 255.0,347.0 C 256.0,348.0 257.0,348.0 263.0,354.0 C 264.0,354.0 268.0,358.0 270.0,358.0 C 275.0,353.0 276.0,353.0 280.0,349.0 C 279.0,348.0 278.0,348.0 277.0,347.0 C 276.0,347.0 273.0,344.0 272.0,344.0 C 265.0,337.0 265.0,336.0 264.0,335.0 C 264.0,334.0 263.0,333.0 263.0,330.0 C 261.0,328.0 262.0,327.0 263.0,327.0 C 263.0,326.0 262.0,327.0 261.0,326.0 C 261.0,325.0 263.0,323.0 262.0,324.0 C 261.0,323.0 261.0,321.0 260.0,320.0 C 260.0,319.0 259.0,318.0 260.0,317.0 C 259.0,318.0 257.0,316.0 257.0,315.0 Z" fill="rgb(252,166,142)" stroke="none" stroke-width="0" /><path d="M 232.0,314.0 C 231.0,315.0 231.0,318.0 233.0,320.0 C 237.0,320.0 237.0,318.0 238.0,317.0 C 238.0,315.0 236.0,315.0 235.0,314.0 Z" fill="rgb(252,166,142)" stroke="none" stroke-width="0" /><path d="M 339.0,211.0 C 339.0,220.0 338.0,221.0 338.0,225.0 C 337.0,226.0 337.0,228.0 336.0,229.0 C 336.0,230.0 335.0,231.0 335.0,232.0 C 334.0,233.0 334.0,234.0 339.0,234.0 C 341.0,236.0 341.0,237.0 339.0,239.0 C 336.0,239.0 335.0,238.0 333.0,238.0 C 329.0,234.0 329.0,233.0 331.0,231.0 C 331.0,230.0 332.0,229.0 332.0,228.0 C 333.0,227.0 333.0,226.0 331.0,228.0 C 327.0,228.0 326.0,229.0 325.0,228.0 C 317.0,228.0 316.0,227.0 317.0,228.0 C 317.0,230.0 318.0,231.0 318.0,235.0 C 319.0,236.0 319.0,239.0 320.0,240.0 C 320.0,242.0 321.0,243.0 321.0,244.0 C 322.0,245.0 322.0,247.0 323.0,248.0 C 323.0,249.0 324.0,250.0 324.0,251.0 C 325.0,252.0 325.0,253.0 327.0,255.0 C 327.0,256.0 329.0,258.0 329.0,259.0 C 336.0,266.0 337.0,266.0 340.0,269.0 C 341.0,269.0 342.0,270.0 343.0,270.0 C 345.0,272.0 346.0,272.0 347.0,273.0 C 348.0,273.0 349.0,274.0 350.0,274.0 C 351.0,275.0 352.0,275.0 353.0,276.0 C 354.0,276.0 355.0,277.0 356.0,277.0 C 358.0,279.0 359.0,279.0 360.0,280.0 C 361.0,280.0 363.0,282.0 364.0,282.0 C 372.0,290.0 372.0,291.0 373.0,292.0 C 373.0,293.0 374.0,294.0 374.0,295.0 C 375.0,296.0 375.0,299.0 376.0,300.0 C 376.0,303.0 377.0,304.0 377.0,321.0 C 376.0,322.0 376.0,327.0 375.0,328.0 C 375.0,335.0 374.0,336.0 375.0,337.0 C 375.0,339.0 376.0,340.0 376.0,342.0 C 377.0,343.0 377.0,344.0 378.0,345.0 C 378.0,344.0 380.0,342.0 380.0,341.0 C 381.0,340.0 381.0,339.0 383.0,337.0 C 383.0,336.0 386.0,333.0 386.0,332.0 C 388.0,330.0 388.0,329.0 387.0,328.0 C 387.0,325.0 388.0,324.0 388.0,323.0 C 390.0,321.0 391.0,321.0 393.0,319.0 C 395.0,319.0 396.0,318.0 397.0,318.0 C 398.0,317.0 399.0,317.0 400.0,316.0 C 402.0,316.0 403.0,315.0 405.0,315.0 C 406.0,314.0 407.0,314.0 408.0,313.0 C 409.0,313.0 410.0,312.0 411.0,312.0 C 411.0,311.0 410.0,310.0 410.0,309.0 C 409.0,308.0 409.0,307.0 408.0,306.0 C 408.0,305.0 407.0,304.0 407.0,302.0 C 406.0,301.0 406.0,299.0 405.0,298.0 C 405.0,297.0 404.0,296.0 404.0,292.0 C 403.0,291.0 403.0,286.0 402.0,285.0 C 402.0,264.0 403.0,263.0 403.0,258.0 C 404.0,257.0 404.0,253.0 405.0,252.0 C 405.0,250.0 406.0,249.0 406.0,248.0 C 407.0,247.0 407.0,245.0 408.0,244.0 C 407.0,243.0 407.0,240.0 406.0,239.0 C 406.0,237.0 406.0,238.0 405.0,239.0 C 404.0,239.0 403.0,240.0 398.0,240.0 C 395.0,237.0 395.0,235.0 394.0,234.0 C 396.0,232.0 397.0,232.0 399.0,234.0 C 399.0,235.0 400.0,236.0 402.0,236.0 C 404.0,234.0 404.0,233.0 405.0,232.0 C 405.0,231.0 406.0,230.0 406.0,229.0 C 407.0,228.0 407.0,223.0 408.0,222.0 C 408.0,219.0 407.0,218.0 407.0,216.0 C 406.0,215.0 406.0,214.0 403.0,214.0 C 400.0,217.0 398.0,217.0 397.0,216.0 C 397.0,215.0 398.0,214.0 398.0,213.0 C 393.0,213.0 392.0,212.0 383.0,212.0 C 382.0,211.0 377.0,211.0 377.0,219.0 C 376.0,220.0 376.0,223.0 375.0,224.0 C 375.0,225.0 370.0,230.0 369.0,230.0 C 368.0,231.0 361.0,231.0 360.0,230.0 C 353.0,230.0 352.0,229.0 349.0,229.0 C 348.0,228.0 347.0,228.0 346.0,227.0 C 345.0,227.0 344.0,226.0 344.0,225.0 C 342.0,223.0 342.0,222.0 341.0,221.0 Z" fill="rgb(252,166,142)" stroke="none" stroke-width="0" /><path d="M 317.0,176.0 C 318.0,177.0 318.0,179.0 316.0,181.0 C 317.0,182.0 317.0,186.0 315.0,188.0 C 316.0,189.0 316.0,195.0 330.0,195.0 C 331.0,196.0 332.0,196.0 333.0,197.0 C 334.0,197.0 336.0,199.0 336.0,200.0 C 338.0,202.0 338.0,203.0 339.0,204.0 C 339.0,205.0 341.0,205.0 342.0,206.0 C 343.0,205.0 343.0,204.0 344.0,203.0 C 344.0,202.0 347.0,199.0 348.0,199.0 C 349.0,198.0 350.0,198.0 351.0,197.0 C 356.0,197.0 357.0,198.0 366.0,198.0 C 367.0,199.0 370.0,199.0 371.0,200.0 C 372.0,200.0 375.0,203.0 375.0,204.0 C 376.0,205.0 376.0,206.0 377.0,207.0 C 384.0,207.0 385.0,208.0 395.0,208.0 C 396.0,209.0 387.0,200.0 387.0,199.0 C 386.0,198.0 386.0,197.0 385.0,196.0 C 385.0,195.0 384.0,194.0 384.0,190.0 C 385.0,189.0 385.0,188.0 379.0,188.0 C 378.0,189.0 375.0,189.0 374.0,190.0 C 370.0,190.0 369.0,191.0 363.0,191.0 C 362.0,192.0 347.0,192.0 346.0,191.0 C 342.0,191.0 341.0,190.0 339.0,190.0 C 338.0,189.0 337.0,189.0 336.0,188.0 C 334.0,188.0 333.0,187.0 332.0,187.0 C 330.0,185.0 329.0,185.0 328.0,184.0 C 327.0,184.0 324.0,181.0 323.0,181.0 Z" fill="rgb(252,166,142)" stroke="none" stroke-width="0" /><path d="M 207.0,265.0 C 206.0,266.0 206.0,267.0 205.0,268.0 C 205.0,271.0 204.0,272.0 204.0,273.0 C 205.0,274.0 205.0,277.0 206.0,278.0 C 206.0,279.0 207.0,280.0 207.0,283.0 C 208.0,284.0 208.0,287.0 207.0,288.0 C 207.0,290.0 206.0,291.0 206.0,293.0 C 206.0,292.0 207.0,291.0 207.0,289.0 C 208.0,288.0 208.0,283.0 207.0,282.0 C 207.0,279.0 206.0,278.0 206.0,276.0 C 205.0,275.0 205.0,269.0 206.0,268.0 Z" fill="rgb(64,14,56)" stroke="none" stroke-width="0" /><path d="M 197.0,256.0 C 196.0,257.0 196.0,259.0 195.0,260.0 C 195.0,263.0 194.0,264.0 194.0,268.0 C 195.0,269.0 195.0,271.0 196.0,272.0 C 196.0,274.0 197.0,275.0 197.0,277.0 C 198.0,278.0 198.0,282.0 197.0,283.0 C 197.0,284.0 198.0,283.0 198.0,276.0 C 197.0,275.0 197.0,274.0 196.0,273.0 C 196.0,272.0 195.0,271.0 195.0,261.0 C 196.0,260.0 196.0,258.0 197.0,257.0 Z" fill="rgb(64,14,56)" stroke="none" stroke-width="0" /><path d="M 355.0,167.0 C 356.0,168.0 358.0,168.0 359.0,169.0 C 363.0,169.0 364.0,170.0 372.0,170.0 C 373.0,169.0 366.0,169.0 365.0,168.0 Z" fill="rgb(64,14,56)" stroke="none" stroke-width="0" /><path d="M 330.0,129.0 C 332.0,131.0 332.0,132.0 334.0,134.0 C 334.0,135.0 338.0,139.0 336.0,141.0 C 323.0,141.0 322.0,140.0 322.0,139.0 C 318.0,135.0 318.0,134.0 317.0,133.0 C 318.0,134.0 318.0,135.0 319.0,136.0 C 319.0,137.0 321.0,139.0 321.0,140.0 C 320.0,141.0 318.0,141.0 317.0,142.0 C 315.0,142.0 313.0,144.0 312.0,144.0 C 312.0,145.0 310.0,147.0 310.0,148.0 C 309.0,149.0 309.0,153.0 308.0,154.0 C 309.0,155.0 309.0,158.0 310.0,159.0 C 310.0,161.0 311.0,162.0 311.0,163.0 C 312.0,164.0 312.0,166.0 314.0,168.0 C 314.0,169.0 316.0,171.0 316.0,174.0 C 315.0,175.0 315.0,180.0 314.0,181.0 C 314.0,188.0 313.0,189.0 313.0,195.0 C 312.0,196.0 311.0,196.0 310.0,197.0 C 308.0,197.0 307.0,198.0 306.0,198.0 C 303.0,201.0 303.0,202.0 302.0,203.0 C 302.0,206.0 301.0,207.0 301.0,217.0 C 302.0,218.0 302.0,220.0 304.0,222.0 C 304.0,223.0 305.0,223.0 307.0,225.0 C 309.0,225.0 310.0,226.0 312.0,226.0 C 313.0,227.0 313.0,228.0 314.0,229.0 C 314.0,234.0 315.0,235.0 315.0,238.0 C 316.0,239.0 316.0,242.0 317.0,243.0 C 317.0,245.0 318.0,246.0 318.0,248.0 C 319.0,249.0 319.0,250.0 320.0,251.0 C 320.0,253.0 321.0,254.0 321.0,255.0 C 323.0,257.0 323.0,258.0 325.0,260.0 C 325.0,261.0 329.0,265.0 329.0,266.0 C 330.0,266.0 334.0,270.0 335.0,270.0 C 337.0,272.0 338.0,272.0 339.0,273.0 C 340.0,273.0 341.0,274.0 342.0,274.0 C 343.0,275.0 344.0,275.0 345.0,276.0 C 346.0,276.0 347.0,277.0 348.0,277.0 C 349.0,278.0 350.0,278.0 351.0,279.0 C 352.0,279.0 353.0,280.0 354.0,280.0 C 355.0,281.0 356.0,281.0 357.0,282.0 C 358.0,282.0 360.0,284.0 361.0,284.0 C 368.0,291.0 368.0,292.0 369.0,293.0 C 369.0,294.0 370.0,295.0 370.0,297.0 C 371.0,298.0 371.0,299.0 370.0,300.0 C 370.0,301.0 369.0,302.0 369.0,303.0 C 368.0,304.0 368.0,305.0 367.0,306.0 C 367.0,308.0 366.0,309.0 366.0,312.0 C 365.0,313.0 365.0,320.0 366.0,321.0 C 366.0,325.0 364.0,327.0 363.0,327.0 C 359.0,331.0 359.0,332.0 358.0,333.0 C 358.0,334.0 357.0,335.0 357.0,336.0 C 356.0,337.0 356.0,339.0 355.0,340.0 C 355.0,342.0 354.0,343.0 354.0,348.0 C 353.0,349.0 353.0,350.0 350.0,353.0 C 350.0,354.0 347.0,357.0 346.0,357.0 C 342.0,361.0 341.0,361.0 340.0,362.0 C 339.0,362.0 338.0,363.0 337.0,363.0 C 336.0,364.0 335.0,364.0 334.0,365.0 C 331.0,365.0 330.0,366.0 326.0,366.0 C 325.0,367.0 320.0,367.0 319.0,366.0 C 315.0,366.0 314.0,365.0 312.0,365.0 C 311.0,364.0 310.0,364.0 309.0,363.0 C 308.0,363.0 307.0,362.0 306.0,362.0 C 302.0,358.0 303.0,357.0 304.0,357.0 C 305.0,356.0 305.0,355.0 304.0,354.0 C 303.0,354.0 301.0,352.0 300.0,352.0 C 297.0,349.0 296.0,349.0 292.0,345.0 C 291.0,345.0 290.0,344.0 289.0,344.0 C 286.0,347.0 285.0,347.0 284.0,348.0 C 283.0,348.0 282.0,347.0 281.0,347.0 C 280.0,346.0 279.0,346.0 277.0,344.0 C 276.0,344.0 273.0,341.0 272.0,341.0 C 267.0,336.0 267.0,335.0 265.0,333.0 C 265.0,331.0 264.0,330.0 264.0,326.0 C 265.0,325.0 265.0,323.0 264.0,322.0 C 264.0,320.0 263.0,319.0 263.0,318.0 C 259.0,314.0 258.0,314.0 257.0,313.0 C 256.0,313.0 255.0,312.0 245.0,312.0 C 244.0,313.0 243.0,313.0 242.0,314.0 C 241.0,314.0 240.0,313.0 240.0,311.0 C 239.0,310.0 239.0,309.0 238.0,308.0 C 237.0,308.0 236.0,307.0 235.0,307.0 C 234.0,306.0 230.0,306.0 228.0,304.0 C 228.0,299.0 227.0,298.0 227.0,297.0 C 183.0,297.0 183.0,298.0 182.0,299.0 C 182.0,305.0 181.0,306.0 181.0,316.0 C 182.0,317.0 182.0,323.0 183.0,324.0 C 183.0,327.0 184.0,328.0 184.0,331.0 C 185.0,332.0 185.0,333.0 186.0,334.0 C 186.0,335.0 187.0,336.0 187.0,337.0 C 189.0,339.0 189.0,340.0 193.0,344.0 C 217.0,344.0 221.0,340.0 221.0,339.0 C 223.0,337.0 230.0,337.0 231.0,338.0 C 231.0,340.0 232.0,341.0 232.0,342.0 C 233.0,343.0 235.0,343.0 237.0,345.0 C 237.0,346.0 238.0,346.0 240.0,348.0 C 241.0,348.0 242.0,349.0 243.0,349.0 C 244.0,350.0 247.0,350.0 248.0,351.0 C 249.0,351.0 250.0,350.0 256.0,350.0 C 264.0,358.0 265.0,358.0 267.0,360.0 C 268.0,360.0 269.0,361.0 269.0,362.0 C 268.0,363.0 268.0,364.0 267.0,365.0 C 268.0,366.0 268.0,367.0 275.0,374.0 C 276.0,374.0 277.0,375.0 278.0,375.0 C 279.0,376.0 283.0,376.0 288.0,381.0 C 289.0,381.0 292.0,384.0 293.0,384.0 C 294.0,385.0 295.0,385.0 297.0,387.0 C 298.0,387.0 299.0,388.0 300.0,388.0 C 301.0,389.0 303.0,389.0 304.0,390.0 C 305.0,390.0 306.0,391.0 309.0,391.0 C 310.0,392.0 313.0,392.0 314.0,393.0 C 333.0,393.0 334.0,392.0 337.0,392.0 C 338.0,391.0 340.0,391.0 341.0,390.0 C 343.0,390.0 344.0,389.0 345.0,389.0 C 346.0,388.0 347.0,388.0 348.0,387.0 C 349.0,387.0 350.0,386.0 351.0,386.0 C 353.0,384.0 354.0,384.0 356.0,382.0 C 357.0,382.0 362.0,377.0 363.0,377.0 C 365.0,379.0 365.0,382.0 366.0,383.0 C 366.0,387.0 367.0,388.0 367.0,394.0 C 368.0,395.0 368.0,406.0 369.0,407.0 C 368.0,408.0 369.0,409.0 369.0,433.0 C 368.0,434.0 369.0,435.0 368.0,436.0 C 368.0,444.0 367.0,445.0 367.0,449.0 C 366.0,450.0 366.0,453.0 365.0,454.0 C 365.0,457.0 364.0,458.0 364.0,461.0 C 365.0,462.0 366.0,462.0 368.0,464.0 C 368.0,466.0 367.0,467.0 367.0,482.0 C 366.0,483.0 366.0,501.0 365.0,502.0 C 365.0,547.0 366.0,548.0 366.0,563.0 C 367.0,564.0 367.0,574.0 368.0,575.0 C 368.0,583.0 369.0,584.0 369.0,590.0 C 370.0,591.0 370.0,596.0 371.0,597.0 C 373.0,597.0 374.0,598.0 374.0,604.0 C 373.0,605.0 372.0,605.0 371.0,604.0 C 367.0,604.0 366.0,603.0 365.0,603.0 C 365.0,604.0 364.0,605.0 363.0,605.0 C 362.0,604.0 361.0,604.0 361.0,605.0 C 360.0,606.0 356.0,606.0 355.0,607.0 C 354.0,607.0 353.0,608.0 350.0,608.0 C 349.0,609.0 347.0,609.0 346.0,610.0 C 344.0,610.0 343.0,611.0 342.0,611.0 C 341.0,612.0 340.0,612.0 340.0,613.0 C 339.0,614.0 339.0,617.0 341.0,619.0 C 342.0,619.0 343.0,620.0 345.0,620.0 C 346.0,621.0 381.0,621.0 382.0,620.0 C 387.0,620.0 388.0,619.0 389.0,619.0 C 391.0,617.0 391.0,614.0 392.0,613.0 C 392.0,605.0 389.0,605.0 388.0,604.0 C 388.0,599.0 389.0,598.0 390.0,598.0 C 391.0,597.0 392.0,597.0 393.0,596.0 C 393.0,594.0 394.0,593.0 394.0,587.0 C 395.0,586.0 395.0,571.0 396.0,570.0 C 396.0,548.0 397.0,547.0 397.0,493.0 C 398.0,492.0 401.0,492.0 402.0,493.0 C 403.0,493.0 405.0,495.0 406.0,495.0 C 407.0,496.0 407.0,498.0 408.0,499.0 C 408.0,506.0 409.0,507.0 409.0,515.0 C 410.0,516.0 410.0,528.0 411.0,529.0 C 411.0,542.0 412.0,543.0 412.0,560.0 C 413.0,561.0 413.0,562.0 412.0,563.0 C 413.0,564.0 413.0,580.0 414.0,581.0 C 414.0,598.0 415.0,599.0 417.0,599.0 C 419.0,601.0 419.0,602.0 418.0,603.0 C 418.0,605.0 417.0,606.0 416.0,606.0 C 414.0,608.0 413.0,608.0 408.0,613.0 C 408.0,614.0 406.0,616.0 406.0,617.0 C 405.0,618.0 405.0,619.0 404.0,620.0 C 404.0,627.0 407.0,630.0 408.0,630.0 C 409.0,631.0 420.0,631.0 421.0,630.0 C 423.0,630.0 424.0,629.0 426.0,629.0 C 428.0,627.0 429.0,627.0 429.0,626.0 C 431.0,624.0 431.0,623.0 432.0,622.0 C 432.0,621.0 433.0,620.0 433.0,617.0 C 434.0,616.0 434.0,612.0 433.0,611.0 C 433.0,607.0 431.0,605.0 431.0,601.0 C 432.0,600.0 435.0,600.0 436.0,599.0 C 436.0,597.0 437.0,596.0 437.0,588.0 C 438.0,587.0 438.0,578.0 439.0,577.0 C 439.0,557.0 440.0,556.0 439.0,555.0 C 440.0,554.0 440.0,531.0 441.0,530.0 C 441.0,476.0 442.0,475.0 443.0,475.0 C 444.0,476.0 459.0,476.0 460.0,475.0 C 462.0,475.0 463.0,474.0 464.0,474.0 C 465.0,473.0 465.0,472.0 466.0,471.0 C 466.0,470.0 467.0,469.0 467.0,464.0 C 468.0,463.0 468.0,453.0 469.0,452.0 C 469.0,433.0 468.0,432.0 468.0,431.0 C 465.0,428.0 463.0,428.0 462.0,427.0 C 458.0,427.0 457.0,426.0 456.0,426.0 C 455.0,425.0 453.0,425.0 452.0,424.0 C 453.0,423.0 453.0,418.0 454.0,417.0 C 454.0,411.0 455.0,410.0 455.0,388.0 C 454.0,387.0 454.0,380.0 453.0,379.0 C 453.0,375.0 452.0,374.0 452.0,371.0 C 451.0,370.0 451.0,367.0 450.0,366.0 C 450.0,364.0 449.0,363.0 449.0,361.0 C 448.0,360.0 448.0,358.0 447.0,357.0 C 447.0,356.0 446.0,355.0 446.0,354.0 C 445.0,353.0 445.0,352.0 444.0,351.0 C 444.0,350.0 443.0,349.0 443.0,348.0 C 442.0,347.0 442.0,346.0 440.0,344.0 C 441.0,343.0 443.0,343.0 447.0,339.0 C 447.0,336.0 448.0,335.0 448.0,329.0 C 447.0,328.0 447.0,324.0 446.0,323.0 C 446.0,321.0 445.0,320.0 445.0,319.0 C 444.0,318.0 444.0,317.0 442.0,315.0 C 442.0,314.0 435.0,307.0 434.0,307.0 C 432.0,305.0 431.0,305.0 429.0,303.0 C 428.0,303.0 422.0,297.0 421.0,297.0 C 418.0,294.0 417.0,294.0 416.0,293.0 C 414.0,293.0 413.0,292.0 412.0,292.0 C 411.0,293.0 409.0,293.0 408.0,294.0 C 407.0,294.0 406.0,293.0 406.0,290.0 C 405.0,289.0 405.0,284.0 404.0,283.0 C 404.0,266.0 405.0,265.0 405.0,260.0 C 406.0,259.0 406.0,256.0 407.0,255.0 C 407.0,252.0 408.0,251.0 408.0,249.0 C 410.0,247.0 411.0,247.0 412.0,248.0 C 412.0,249.0 415.0,252.0 419.0,252.0 C 420.0,251.0 421.0,251.0 426.0,246.0 C 426.0,245.0 428.0,243.0 428.0,242.0 C 430.0,240.0 430.0,239.0 431.0,238.0 C 431.0,237.0 432.0,236.0 432.0,235.0 C 433.0,234.0 433.0,232.0 434.0,231.0 C 434.0,230.0 435.0,229.0 435.0,226.0 C 436.0,225.0 436.0,222.0 437.0,221.0 C 437.0,218.0 438.0,217.0 438.0,209.0 C 439.0,208.0 439.0,205.0 438.0,204.0 C 438.0,196.0 437.0,195.0 437.0,192.0 C 436.0,191.0 436.0,188.0 435.0,187.0 C 435.0,184.0 434.0,183.0 434.0,182.0 C 433.0,181.0 433.0,180.0 432.0,179.0 C 432.0,177.0 431.0,176.0 431.0,175.0 C 429.0,173.0 429.0,172.0 426.0,169.0 C 426.0,168.0 424.0,166.0 423.0,166.0 C 421.0,164.0 421.0,163.0 420.0,162.0 C 420.0,159.0 419.0,158.0 419.0,157.0 C 418.0,156.0 418.0,155.0 417.0,154.0 C 417.0,153.0 416.0,152.0 416.0,151.0 C 412.0,147.0 412.0,146.0 410.0,144.0 C 409.0,144.0 405.0,140.0 404.0,140.0 C 402.0,138.0 401.0,138.0 400.0,137.0 C 399.0,137.0 398.0,136.0 397.0,136.0 C 396.0,135.0 395.0,135.0 394.0,134.0 C 393.0,134.0 392.0,133.0 390.0,133.0 C 389.0,132.0 387.0,132.0 386.0,131.0 C 383.0,131.0 382.0,130.0 375.0,130.0 C 374.0,129.0 367.0,129.0 366.0,130.0 C 360.0,130.0 359.0,131.0 357.0,131.0 C 356.0,132.0 354.0,132.0 353.0,133.0 C 352.0,133.0 351.0,134.0 350.0,134.0 C 349.0,135.0 348.0,135.0 346.0,137.0 C 345.0,137.0 344.0,138.0 345.0,138.0 C 346.0,137.0 347.0,137.0 349.0,135.0 C 350.0,135.0 351.0,134.0 352.0,134.0 C 353.0,133.0 354.0,133.0 355.0,132.0 C 356.0,132.0 357.0,131.0 361.0,131.0 C 362.0,130.0 379.0,130.0 380.0,131.0 C 385.0,131.0 386.0,132.0 388.0,132.0 C 389.0,133.0 391.0,133.0 392.0,134.0 C 393.0,134.0 394.0,135.0 396.0,135.0 C 398.0,137.0 399.0,137.0 400.0,138.0 C 401.0,138.0 403.0,140.0 404.0,140.0 C 413.0,149.0 413.0,150.0 416.0,153.0 C 416.0,154.0 417.0,155.0 417.0,156.0 C 418.0,157.0 418.0,158.0 419.0,159.0 C 419.0,160.0 420.0,161.0 420.0,164.0 C 421.0,165.0 421.0,166.0 422.0,166.0 C 427.0,171.0 427.0,172.0 429.0,174.0 C 429.0,175.0 430.0,176.0 430.0,177.0 C 432.0,179.0 432.0,181.0 433.0,182.0 C 433.0,184.0 434.0,185.0 434.0,186.0 C 435.0,187.0 434.0,188.0 435.0,189.0 C 435.0,190.0 436.0,191.0 436.0,195.0 C 437.0,196.0 437.0,202.0 438.0,203.0 C 437.0,204.0 438.0,205.0 437.0,206.0 C 438.0,207.0 437.0,208.0 438.0,209.0 C 437.0,210.0 438.0,211.0 437.0,212.0 C 437.0,216.0 436.0,217.0 437.0,218.0 C 436.0,219.0 436.0,221.0 435.0,222.0 C 436.0,223.0 435.0,224.0 435.0,225.0 C 434.0,226.0 434.0,228.0 433.0,229.0 C 433.0,231.0 432.0,232.0 432.0,233.0 C 431.0,234.0 431.0,235.0 430.0,236.0 C 430.0,237.0 429.0,238.0 429.0,239.0 C 428.0,240.0 428.0,241.0 425.0,244.0 C 425.0,245.0 420.0,250.0 419.0,250.0 C 418.0,251.0 416.0,251.0 411.0,246.0 C 411.0,244.0 410.0,243.0 410.0,242.0 C 409.0,241.0 409.0,237.0 408.0,236.0 C 408.0,231.0 409.0,230.0 409.0,227.0 C 410.0,226.0 410.0,216.0 409.0,215.0 C 409.0,214.0 408.0,213.0 408.0,212.0 C 407.0,211.0 403.0,211.0 401.0,209.0 C 400.0,209.0 389.0,198.0 389.0,197.0 C 388.0,196.0 388.0,195.0 387.0,194.0 C 387.0,190.0 388.0,189.0 388.0,187.0 C 389.0,186.0 389.0,185.0 390.0,184.0 C 390.0,183.0 393.0,180.0 394.0,180.0 C 395.0,179.0 401.0,179.0 401.0,178.0 C 395.0,178.0 394.0,179.0 392.0,179.0 C 388.0,183.0 388.0,184.0 387.0,185.0 C 386.0,185.0 385.0,184.0 384.0,185.0 C 380.0,185.0 379.0,186.0 378.0,185.0 C 377.0,186.0 374.0,186.0 373.0,187.0 C 370.0,187.0 369.0,188.0 368.0,187.0 C 367.0,188.0 363.0,188.0 362.0,189.0 C 361.0,188.0 360.0,189.0 348.0,189.0 C 347.0,188.0 346.0,189.0 345.0,188.0 C 343.0,188.0 342.0,187.0 340.0,187.0 C 339.0,186.0 337.0,186.0 336.0,185.0 C 335.0,185.0 334.0,184.0 333.0,184.0 C 331.0,182.0 330.0,182.0 329.0,181.0 C 328.0,181.0 326.0,179.0 325.0,179.0 C 319.0,173.0 318.0,173.0 317.0,172.0 C 317.0,171.0 314.0,168.0 314.0,167.0 C 312.0,165.0 312.0,164.0 311.0,163.0 C 311.0,161.0 310.0,160.0 310.0,158.0 C 309.0,157.0 309.0,150.0 310.0,149.0 C 310.0,148.0 312.0,146.0 312.0,145.0 C 313.0,144.0 314.0,144.0 316.0,142.0 C 318.0,142.0 319.0,141.0 322.0,141.0 C 325.0,144.0 325.0,145.0 336.0,156.0 C 337.0,156.0 340.0,159.0 341.0,159.0 C 342.0,160.0 343.0,160.0 345.0,162.0 C 346.0,162.0 347.0,163.0 349.0,163.0 C 350.0,164.0 348.0,162.0 347.0,162.0 C 345.0,160.0 344.0,160.0 342.0,158.0 C 341.0,158.0 337.0,154.0 336.0,154.0 C 329.0,147.0 329.0,146.0 328.0,146.0 C 325.0,143.0 326.0,142.0 332.0,142.0 C 333.0,141.0 337.0,141.0 338.0,140.0 C 339.0,140.0 342.0,143.0 342.0,144.0 C 343.0,144.0 347.0,148.0 348.0,148.0 C 350.0,150.0 351.0,150.0 353.0,152.0 C 354.0,152.0 355.0,153.0 356.0,153.0 C 357.0,154.0 358.0,154.0 359.0,155.0 C 360.0,155.0 361.0,156.0 363.0,156.0 C 364.0,157.0 366.0,157.0 367.0,158.0 C 369.0,158.0 370.0,159.0 373.0,159.0 C 374.0,160.0 380.0,160.0 381.0,161.0 C 382.0,160.0 383.0,161.0 384.0,160.0 C 385.0,161.0 386.0,161.0 387.0,160.0 C 389.0,160.0 381.0,160.0 380.0,159.0 C 375.0,159.0 374.0,158.0 371.0,158.0 C 370.0,157.0 367.0,157.0 366.0,156.0 C 365.0,156.0 364.0,155.0 362.0,155.0 C 361.0,154.0 360.0,154.0 359.0,153.0 C 358.0,153.0 357.0,152.0 356.0,152.0 C 355.0,151.0 354.0,151.0 352.0,149.0 C 351.0,149.0 349.0,147.0 348.0,147.0 C 344.0,143.0 343.0,143.0 333.0,133.0 Z" fill="rgb(64,14,56)" stroke="none" stroke-width="0" /><path d="M 410.0,615.0 C 408.0,617.0 408.0,618.0 407.0,619.0 C 407.0,620.0 406.0,621.0 406.0,625.0 C 407.0,626.0 407.0,627.0 408.0,628.0 C 409.0,628.0 410.0,629.0 411.0,629.0 C 407.0,625.0 407.0,620.0 408.0,619.0 Z" fill="rgb(252,238,231)" stroke="none" stroke-width="0" /><path d="M 348.0,611.0 C 347.0,612.0 345.0,612.0 344.0,613.0 C 343.0,613.0 341.0,615.0 341.0,616.0 C 342.0,617.0 342.0,616.0 346.0,612.0 C 347.0,612.0 348.0,611.0 349.0,611.0 Z" fill="rgb(252,238,231)" stroke="none" stroke-width="0" /><path d="M 409.0,496.0 C 409.0,497.0 410.0,498.0 410.0,503.0 C 411.0,504.0 411.0,513.0 412.0,514.0 C 412.0,525.0 413.0,526.0 413.0,539.0 C 414.0,540.0 414.0,556.0 415.0,557.0 C 415.0,579.0 416.0,580.0 416.0,594.0 C 416.0,564.0 415.0,563.0 415.0,561.0 C 416.0,560.0 415.0,559.0 415.0,541.0 C 414.0,540.0 414.0,526.0 413.0,525.0 C 413.0,515.0 412.0,514.0 412.0,507.0 C 411.0,506.0 411.0,502.0 410.0,501.0 Z" fill="rgb(252,238,231)" stroke="none" stroke-width="0" /><path d="M 369.0,483.0 C 369.0,485.0 368.0,486.0 368.0,502.0 C 367.0,503.0 367.0,546.0 368.0,547.0 C 368.0,561.0 369.0,562.0 369.0,572.0 C 370.0,573.0 370.0,581.0 371.0,582.0 C 371.0,589.0 372.0,590.0 372.0,595.0 C 373.0,595.0 372.0,594.0 372.0,587.0 C 371.0,586.0 371.0,580.0 370.0,579.0 C 370.0,572.0 369.0,571.0 369.0,562.0 C 368.0,561.0 368.0,542.0 367.0,541.0 C 367.0,507.0 368.0,506.0 368.0,489.0 Z" fill="rgb(252,238,231)" stroke="none" stroke-width="0" /><path d="M 370.0,465.0 C 370.0,470.0 369.0,471.0 369.0,476.0 C 369.0,474.0 370.0,473.0 370.0,471.0 Z" fill="rgb(252,238,231)" stroke="none" stroke-width="0" /><path d="M 429.0,442.0 C 429.0,444.0 428.0,445.0 428.0,447.0 C 423.0,452.0 422.0,452.0 421.0,453.0 C 422.0,452.0 423.0,452.0 424.0,451.0 C 425.0,451.0 428.0,448.0 428.0,447.0 Z" fill="rgb(252,238,231)" stroke="none" stroke-width="0" /><path d="M 425.0,426.0 C 424.0,427.0 424.0,438.0 425.0,437.0 Z" fill="rgb(252,238,231)" stroke="none" stroke-width="0" /><path d="M 405.0,423.0 C 404.0,424.0 403.0,424.0 402.0,425.0 C 401.0,425.0 400.0,426.0 400.0,427.0 C 399.0,428.0 399.0,433.0 398.0,434.0 C 398.0,441.0 397.0,442.0 397.0,452.0 C 396.0,453.0 396.0,465.0 397.0,466.0 C 397.0,467.0 398.0,468.0 398.0,467.0 C 397.0,466.0 397.0,454.0 398.0,453.0 C 398.0,443.0 399.0,442.0 399.0,435.0 C 400.0,434.0 400.0,429.0 401.0,428.0 C 401.0,427.0 405.0,423.0 406.0,423.0 Z" fill="rgb(252,238,231)" stroke="none" stroke-width="0" /><path d="M 371.0,406.0 C 371.0,438.0 370.0,439.0 370.0,445.0 C 369.0,446.0 369.0,450.0 368.0,451.0 C 368.0,454.0 367.0,455.0 367.0,458.0 C 366.0,459.0 367.0,460.0 368.0,459.0 C 368.0,457.0 369.0,456.0 369.0,451.0 C 370.0,450.0 370.0,443.0 371.0,442.0 Z" fill="rgb(252,238,231)" stroke="none" stroke-width="0" /><path d="M 289.0,347.0 C 290.0,348.0 291.0,348.0 294.0,351.0 C 295.0,351.0 298.0,354.0 299.0,354.0 C 301.0,356.0 301.0,355.0 300.0,354.0 C 299.0,354.0 296.0,351.0 295.0,351.0 C 292.0,348.0 291.0,348.0 290.0,347.0 Z" fill="rgb(252,238,231)" stroke="none" stroke-width="0" /><path d="M 363.0,330.0 C 362.0,331.0 362.0,332.0 360.0,334.0 C 360.0,335.0 359.0,336.0 359.0,337.0 C 358.0,338.0 358.0,339.0 357.0,340.0 C 357.0,343.0 356.0,344.0 356.0,350.0 C 353.0,353.0 353.0,354.0 347.0,360.0 C 346.0,360.0 343.0,363.0 342.0,363.0 C 341.0,364.0 340.0,364.0 339.0,365.0 C 338.0,365.0 337.0,366.0 336.0,366.0 C 335.0,367.0 332.0,367.0 331.0,368.0 C 328.0,368.0 332.0,368.0 333.0,367.0 C 335.0,367.0 336.0,366.0 338.0,366.0 C 339.0,365.0 340.0,365.0 341.0,364.0 C 342.0,364.0 344.0,362.0 345.0,362.0 C 347.0,360.0 348.0,360.0 353.0,355.0 C 353.0,354.0 355.0,352.0 355.0,351.0 C 356.0,350.0 356.0,344.0 357.0,343.0 C 357.0,340.0 358.0,339.0 358.0,338.0 C 359.0,337.0 359.0,336.0 360.0,335.0 C 360.0,334.0 362.0,332.0 362.0,331.0 Z" fill="rgb(252,238,231)" stroke="none" stroke-width="0" /><path d="M 185.0,299.0 C 184.0,300.0 184.0,306.0 183.0,307.0 C 184.0,308.0 183.0,309.0 183.0,313.0 C 184.0,314.0 183.0,315.0 184.0,316.0 C 184.0,322.0 185.0,323.0 185.0,326.0 C 186.0,327.0 186.0,329.0 187.0,330.0 C 187.0,332.0 188.0,333.0 188.0,334.0 C 189.0,335.0 189.0,336.0 192.0,339.0 C 192.0,340.0 194.0,342.0 193.0,341.0 C 193.0,340.0 190.0,337.0 190.0,336.0 C 189.0,335.0 189.0,334.0 188.0,333.0 C 188.0,332.0 187.0,331.0 187.0,330.0 C 186.0,329.0 186.0,326.0 185.0,325.0 C 185.0,320.0 184.0,319.0 184.0,303.0 Z" fill="rgb(252,238,231)" stroke="none" stroke-width="0" /><path d="M 316.0,228.0 C 316.0,233.0 317.0,234.0 317.0,237.0 C 318.0,238.0 318.0,241.0 319.0,242.0 C 319.0,244.0 320.0,245.0 320.0,247.0 C 321.0,248.0 321.0,249.0 322.0,250.0 C 322.0,251.0 323.0,252.0 323.0,253.0 C 324.0,254.0 324.0,255.0 325.0,256.0 C 325.0,257.0 327.0,259.0 327.0,260.0 C 335.0,268.0 336.0,268.0 338.0,270.0 C 339.0,270.0 340.0,271.0 341.0,271.0 C 342.0,272.0 343.0,272.0 344.0,273.0 C 345.0,273.0 346.0,274.0 347.0,274.0 C 348.0,275.0 349.0,275.0 350.0,276.0 C 351.0,276.0 352.0,277.0 353.0,277.0 C 354.0,278.0 355.0,278.0 356.0,279.0 C 357.0,279.0 358.0,280.0 359.0,280.0 C 361.0,282.0 362.0,282.0 370.0,290.0 C 370.0,291.0 371.0,292.0 371.0,293.0 C 372.0,294.0 372.0,296.0 373.0,297.0 C 373.0,299.0 374.0,300.0 374.0,303.0 C 375.0,304.0 375.0,325.0 374.0,326.0 C 374.0,335.0 374.0,328.0 375.0,327.0 C 375.0,322.0 376.0,321.0 376.0,304.0 C 375.0,303.0 375.0,300.0 374.0,299.0 C 374.0,296.0 373.0,295.0 373.0,294.0 C 372.0,293.0 372.0,292.0 371.0,291.0 C 371.0,290.0 364.0,283.0 363.0,283.0 C 361.0,281.0 360.0,281.0 359.0,280.0 C 358.0,280.0 356.0,278.0 355.0,278.0 C 354.0,277.0 353.0,277.0 352.0,276.0 C 351.0,276.0 350.0,275.0 349.0,275.0 C 348.0,274.0 347.0,274.0 346.0,273.0 C 345.0,273.0 343.0,271.0 342.0,271.0 C 341.0,270.0 340.0,270.0 337.0,267.0 C 336.0,267.0 328.0,259.0 328.0,258.0 C 326.0,256.0 326.0,255.0 324.0,253.0 C 324.0,252.0 323.0,251.0 323.0,250.0 C 322.0,249.0 322.0,248.0 321.0,247.0 C 321.0,245.0 320.0,244.0 320.0,243.0 C 319.0,242.0 319.0,240.0 318.0,239.0 C 318.0,236.0 317.0,235.0 317.0,231.0 Z" fill="rgb(252,238,231)" stroke="none" stroke-width="0" /><path d="M 303.0,210.0 C 304.0,211.0 303.0,212.0 303.0,216.0 C 304.0,217.0 304.0,219.0 308.0,223.0 C 312.0,223.0 311.0,222.0 311.0,211.0 Z" fill="rgb(252,238,231)" stroke="none" stroke-width="0" /><path d="M 353.0,201.0 C 352.0,202.0 350.0,202.0 347.0,205.0 C 347.0,206.0 346.0,207.0 346.0,211.0 C 345.0,212.0 345.0,220.0 346.0,221.0 C 346.0,222.0 348.0,224.0 349.0,224.0 C 350.0,225.0 355.0,225.0 356.0,226.0 C 362.0,226.0 363.0,227.0 366.0,227.0 C 367.0,226.0 368.0,226.0 372.0,222.0 C 372.0,217.0 373.0,216.0 373.0,208.0 C 372.0,207.0 372.0,206.0 369.0,203.0 C 363.0,203.0 362.0,202.0 354.0,202.0 Z" fill="rgb(252,238,231)" stroke="none" stroke-width="0" /><path d="M 314.0,199.0 C 314.0,223.0 315.0,224.0 329.0,224.0 C 330.0,223.0 331.0,223.0 334.0,220.0 C 334.0,218.0 335.0,217.0 335.0,205.0 C 334.0,204.0 334.0,203.0 331.0,200.0 Z" fill="rgb(252,238,231)" stroke="none" stroke-width="0" /><path d="M 309.0,199.0 C 308.0,200.0 307.0,200.0 305.0,202.0 C 305.0,203.0 304.0,204.0 304.0,206.0 C 309.0,206.0 310.0,207.0 311.0,207.0 Z" fill="rgb(252,238,231)" stroke="none" stroke-width="0" /><path d="M 319.0,143.0 C 318.0,144.0 316.0,144.0 312.0,148.0 C 312.0,149.0 311.0,150.0 311.0,157.0 C 312.0,158.0 312.0,160.0 312.0,153.0 C 313.0,152.0 313.0,151.0 319.0,145.0 C 321.0,145.0 322.0,144.0 323.0,144.0 Z" fill="rgb(252,238,231)" stroke="none" stroke-width="0" /><path d="M 339.0,142.0 C 338.0,143.0 332.0,143.0 331.0,144.0 C 328.0,144.0 327.0,143.0 328.0,144.0 C 335.0,144.0 336.0,143.0 339.0,143.0 Z" fill="rgb(252,238,231)" stroke="none" stroke-width="0" /><path d="M 373.0,131.0 C 372.0,132.0 361.0,132.0 360.0,133.0 C 358.0,133.0 357.0,134.0 355.0,134.0 C 354.0,135.0 353.0,135.0 352.0,136.0 C 351.0,136.0 350.0,137.0 349.0,137.0 C 347.0,139.0 346.0,139.0 345.0,140.0 C 342.0,140.0 343.0,141.0 345.0,141.0 C 346.0,140.0 347.0,140.0 349.0,138.0 C 350.0,138.0 351.0,137.0 352.0,137.0 C 353.0,136.0 355.0,136.0 356.0,135.0 C 357.0,135.0 358.0,134.0 361.0,134.0 C 362.0,133.0 365.0,133.0 366.0,132.0 C 380.0,132.0 381.0,133.0 385.0,133.0 C 382.0,133.0 381.0,132.0 374.0,132.0 Z" fill="rgb(252,238,231)" stroke="none" stroke-width="0" /><path d="M 237.0,332.0 C 236.0,333.0 232.0,333.0 231.0,334.0 C 226.0,334.0 226.0,335.0 231.0,335.0 C 232.0,334.0 234.0,334.0 235.0,333.0 Z" fill="rgb(172,215,232)" stroke="none" stroke-width="0" /><path d="M 231.0,308.0 C 231.0,310.0 236.0,310.0 237.0,311.0 C 235.0,309.0 234.0,309.0 233.0,308.0 Z" fill="rgb(172,215,232)" stroke="none" stroke-width="0" /><path d="M 186.0,299.0 C 186.0,302.0 185.0,303.0 185.0,319.0 C 186.0,320.0 186.0,325.0 187.0,326.0 C 187.0,329.0 186.0,330.0 187.0,329.0 C 188.0,330.0 188.0,331.0 189.0,332.0 C 189.0,333.0 190.0,334.0 190.0,335.0 C 191.0,336.0 191.0,337.0 192.0,338.0 C 191.0,339.0 192.0,338.0 194.0,340.0 C 194.0,341.0 195.0,342.0 216.0,342.0 C 219.0,339.0 219.0,338.0 221.0,336.0 C 221.0,335.0 222.0,334.0 222.0,333.0 C 223.0,332.0 223.0,331.0 224.0,330.0 C 224.0,327.0 225.0,326.0 225.0,323.0 C 226.0,322.0 226.0,315.0 227.0,314.0 C 227.0,307.0 226.0,306.0 226.0,300.0 Z" fill="rgb(172,215,232)" stroke="none" stroke-width="0" /><path d="M 312.0,199.0 C 312.0,207.0 313.0,208.0 313.0,210.0 C 312.0,211.0 312.0,222.0 314.0,224.0 C 312.0,222.0 313.0,221.0 312.0,220.0 C 313.0,219.0 312.0,218.0 313.0,217.0 C 313.0,203.0 312.0,202.0 313.0,201.0 Z" fill="rgb(172,215,232)" stroke="none" stroke-width="0" /><path d="M 415.0,609.0 C 412.0,612.0 412.0,613.0 411.0,614.0 C 411.0,615.0 410.0,616.0 410.0,617.0 C 409.0,618.0 409.0,619.0 408.0,620.0 C 408.0,624.0 409.0,625.0 409.0,626.0 C 411.0,628.0 414.0,628.0 415.0,629.0 C 419.0,629.0 420.0,628.0 423.0,628.0 C 424.0,627.0 425.0,627.0 430.0,622.0 C 430.0,620.0 431.0,619.0 431.0,615.0 C 432.0,614.0 432.0,612.0 431.0,611.0 C 431.0,610.0 430.0,611.0 423.0,611.0 C 424.0,612.0 424.0,613.0 423.0,614.0 C 422.0,614.0 423.0,615.0 423.0,616.0 C 422.0,617.0 420.0,617.0 419.0,616.0 C 421.0,618.0 421.0,619.0 420.0,620.0 C 418.0,620.0 417.0,619.0 413.0,619.0 C 412.0,618.0 412.0,617.0 414.0,615.0 C 414.0,613.0 415.0,612.0 415.0,610.0 Z" fill="rgb(117,203,155)" stroke="none" stroke-width="0" /><path d="M 367.0,607.0 C 366.0,608.0 366.0,609.0 365.0,610.0 C 364.0,610.0 363.0,609.0 362.0,609.0 C 362.0,611.0 361.0,612.0 360.0,612.0 C 358.0,610.0 355.0,610.0 354.0,611.0 C 351.0,611.0 350.0,612.0 348.0,612.0 C 347.0,613.0 346.0,613.0 344.0,615.0 C 344.0,618.0 346.0,618.0 347.0,619.0 C 356.0,619.0 357.0,620.0 358.0,619.0 C 360.0,619.0 361.0,620.0 362.0,619.0 C 381.0,619.0 382.0,618.0 387.0,618.0 C 389.0,616.0 389.0,613.0 390.0,612.0 C 390.0,607.0 389.0,608.0 384.0,608.0 C 383.0,609.0 382.0,608.0 381.0,609.0 C 378.0,609.0 377.0,608.0 373.0,608.0 C 372.0,607.0 371.0,607.0 369.0,609.0 Z" fill="rgb(117,203,155)" stroke="none" stroke-width="0" /></svg>