<?xml version="1.0" encoding="utf-8" ?>
<svg baseProfile="full" height="800" version="1.1" width="800" xmlns="http://www.w3.org/2000/svg" xmlns:ev="http://www.w3.org/2001/xml-events" xmlns:xlink="http://www.w3.org/1999/xlink"><defs /><path d="M 0.0,0.0 C 0.0,799.0 799.0,799.0 799.0,0.0 Z" fill="rgb(64515,46410,23715)" stroke="none" stroke-width="0" /><path d="M 434.0,478.0 C 433.0,479.0 432.0,479.0 432.0,480.0 C 434.0,482.0 434.0,483.0 435.0,483.0 C 438.0,486.0 439.0,486.0 439.0,483.0 C 438.0,482.0 439.0,481.0 438.0,480.0 C 439.0,479.0 438.0,478.0 437.0,479.0 Z" fill="rgb(23715,9435,19635)" stroke="none" stroke-width="0" /><path d="M 375.0,465.0 C 375.0,467.0 374.0,468.0 374.0,472.0 C 373.0,473.0 373.0,475.0 372.0,476.0 C 372.0,478.0 371.0,479.0 371.0,480.0 C 370.0,481.0 371.0,482.0 371.0,487.0 C 370.0,488.0 370.0,491.0 371.0,492.0 C 370.0,493.0 370.0,499.0 369.0,500.0 C 370.0,501.0 369.0,502.0 369.0,549.0 C 370.0,550.0 370.0,556.0 371.0,557.0 C 371.0,558.0 370.0,559.0 370.0,561.0 C 371.0,562.0 371.0,572.0 372.0,573.0 C 372.0,582.0 373.0,583.0 373.0,588.0 C 374.0,589.0 374.0,594.0 375.0,595.0 C 374.0,596.0 381.0,596.0 382.0,597.0 C 383.0,596.0 390.0,596.0 391.0,595.0 C 391.0,594.0 392.0,593.0 392.0,590.0 C 393.0,589.0 392.0,588.0 393.0,587.0 C 392.0,586.0 393.0,585.0 393.0,578.0 C 394.0,577.0 393.0,576.0 394.0,575.0 C 393.0,574.0 394.0,573.0 393.0,572.0 C 394.0,571.0 394.0,558.0 395.0,557.0 C 394.0,556.0 394.0,555.0 395.0,554.0 C 395.0,522.0 396.0,521.0 395.0,520.0 C 396.0,519.0 395.0,518.0 396.0,517.0 C 395.0,516.0 396.0,515.0 396.0,514.0 C 395.0,513.0 396.0,512.0 395.0,511.0 C 396.0,510.0 395.0,509.0 396.0,508.0 C 396.0,493.0 393.0,493.0 391.0,491.0 C 393.0,489.0 394.0,489.0 395.0,490.0 C 396.0,490.0 397.0,489.0 398.0,490.0 C 400.0,490.0 401.0,491.0 402.0,490.0 C 403.0,491.0 403.0,492.0 404.0,491.0 C 405.0,491.0 406.0,492.0 407.0,492.0 C 411.0,496.0 411.0,497.0 412.0,498.0 C 412.0,502.0 413.0,503.0 413.0,507.0 C 414.0,508.0 414.0,511.0 415.0,512.0 C 414.0,513.0 414.0,515.0 415.0,516.0 C 415.0,525.0 416.0,526.0 416.0,544.0 C 417.0,545.0 417.0,571.0 418.0,572.0 C 417.0,573.0 418.0,574.0 417.0,575.0 C 418.0,576.0 417.0,577.0 417.0,588.0 C 418.0,589.0 418.0,591.0 417.0,592.0 C 417.0,597.0 418.0,598.0 422.0,598.0 C 423.0,599.0 430.0,599.0 431.0,598.0 C 432.0,599.0 433.0,598.0 434.0,598.0 C 435.0,597.0 435.0,592.0 436.0,591.0 C 435.0,590.0 436.0,589.0 436.0,580.0 C 437.0,579.0 436.0,578.0 437.0,577.0 C 436.0,576.0 437.0,575.0 437.0,564.0 C 438.0,563.0 437.0,562.0 437.0,561.0 C 438.0,560.0 437.0,559.0 438.0,558.0 C 438.0,542.0 439.0,541.0 438.0,540.0 C 439.0,539.0 438.0,538.0 439.0,537.0 C 439.0,490.0 438.0,489.0 437.0,489.0 C 436.0,488.0 435.0,488.0 431.0,484.0 C 431.0,483.0 428.0,480.0 428.0,479.0 C 423.0,479.0 422.0,478.0 416.0,478.0 C 413.0,475.0 412.0,475.0 411.0,474.0 C 410.0,475.0 409.0,474.0 408.0,475.0 C 407.0,474.0 403.0,474.0 402.0,473.0 C 399.0,473.0 397.0,471.0 396.0,471.0 C 395.0,470.0 395.0,469.0 393.0,467.0 C 392.0,468.0 391.0,467.0 389.0,467.0 C 388.0,466.0 387.0,467.0 386.0,466.0 C 385.0,467.0 384.0,466.0 383.0,467.0 C 382.0,466.0 381.0,467.0 380.0,466.0 Z" fill="rgb(23715,9435,19635)" stroke="none" stroke-width="0" /><path d="M 366.0,134.0 C 365.0,135.0 361.0,135.0 360.0,136.0 C 358.0,136.0 357.0,137.0 355.0,137.0 C 354.0,138.0 353.0,138.0 352.0,139.0 C 351.0,139.0 350.0,140.0 349.0,140.0 C 347.0,142.0 346.0,142.0 345.0,143.0 C 348.0,146.0 349.0,146.0 351.0,148.0 C 352.0,148.0 354.0,150.0 355.0,150.0 C 356.0,151.0 357.0,151.0 358.0,152.0 C 359.0,152.0 360.0,153.0 361.0,153.0 C 362.0,154.0 364.0,154.0 365.0,155.0 C 366.0,155.0 367.0,156.0 370.0,156.0 C 371.0,157.0 374.0,157.0 375.0,158.0 C 380.0,158.0 381.0,159.0 389.0,159.0 C 390.0,160.0 389.0,161.0 387.0,161.0 C 386.0,162.0 385.0,162.0 384.0,161.0 C 383.0,162.0 382.0,161.0 381.0,162.0 C 380.0,161.0 374.0,161.0 373.0,160.0 C 370.0,160.0 369.0,159.0 367.0,159.0 C 366.0,158.0 364.0,158.0 363.0,157.0 C 361.0,157.0 360.0,156.0 359.0,156.0 C 358.0,155.0 357.0,155.0 356.0,154.0 C 355.0,154.0 354.0,153.0 353.0,153.0 C 351.0,151.0 350.0,151.0 348.0,149.0 C 347.0,149.0 343.0,145.0 342.0,145.0 C 341.0,144.0 341.0,143.0 340.0,144.0 C 339.0,144.0 338.0,145.0 335.0,145.0 C 334.0,146.0 330.0,146.0 330.0,147.0 C 336.0,153.0 337.0,153.0 341.0,157.0 C 342.0,157.0 344.0,159.0 345.0,159.0 C 347.0,161.0 348.0,161.0 350.0,163.0 C 349.0,164.0 347.0,164.0 346.0,163.0 C 345.0,163.0 343.0,161.0 342.0,161.0 C 341.0,160.0 340.0,160.0 337.0,157.0 C 336.0,157.0 325.0,146.0 324.0,146.0 C 323.0,147.0 322.0,146.0 321.0,147.0 C 319.0,147.0 315.0,151.0 315.0,152.0 C 314.0,153.0 315.0,154.0 314.0,155.0 C 314.0,156.0 313.0,157.0 314.0,158.0 C 314.0,161.0 315.0,162.0 315.0,164.0 C 316.0,165.0 316.0,167.0 315.0,168.0 C 316.0,167.0 317.0,168.0 317.0,170.0 C 318.0,171.0 318.0,172.0 319.0,172.0 C 325.0,178.0 326.0,178.0 328.0,180.0 C 329.0,180.0 330.0,181.0 331.0,181.0 C 333.0,183.0 334.0,183.0 335.0,184.0 C 336.0,184.0 337.0,185.0 339.0,185.0 C 340.0,186.0 342.0,186.0 343.0,187.0 C 345.0,187.0 346.0,188.0 347.0,187.0 C 348.0,188.0 360.0,188.0 361.0,187.0 C 362.0,188.0 363.0,187.0 367.0,187.0 C 368.0,186.0 369.0,187.0 370.0,186.0 C 373.0,186.0 374.0,185.0 377.0,185.0 C 378.0,184.0 379.0,185.0 380.0,184.0 C 384.0,184.0 385.0,183.0 386.0,184.0 C 387.0,184.0 387.0,183.0 392.0,178.0 C 394.0,178.0 395.0,177.0 401.0,177.0 C 402.0,178.0 402.0,179.0 401.0,180.0 C 395.0,180.0 394.0,181.0 393.0,181.0 C 391.0,183.0 391.0,184.0 390.0,185.0 C 390.0,186.0 389.0,187.0 389.0,189.0 C 388.0,190.0 388.0,194.0 389.0,195.0 C 389.0,196.0 390.0,197.0 390.0,198.0 C 400.0,208.0 401.0,208.0 403.0,210.0 C 407.0,210.0 409.0,212.0 409.0,213.0 C 410.0,214.0 410.0,215.0 411.0,216.0 C 411.0,226.0 410.0,227.0 410.0,230.0 C 409.0,231.0 409.0,236.0 410.0,237.0 C 410.0,241.0 411.0,242.0 411.0,243.0 C 412.0,244.0 412.0,246.0 416.0,250.0 C 418.0,250.0 419.0,249.0 420.0,249.0 C 424.0,245.0 424.0,244.0 427.0,241.0 C 427.0,240.0 428.0,239.0 428.0,238.0 C 429.0,237.0 429.0,236.0 430.0,235.0 C 430.0,234.0 431.0,233.0 431.0,232.0 C 432.0,231.0 432.0,229.0 433.0,228.0 C 433.0,226.0 434.0,225.0 434.0,224.0 C 435.0,223.0 434.0,222.0 435.0,221.0 C 435.0,219.0 436.0,218.0 435.0,217.0 C 436.0,216.0 436.0,212.0 437.0,211.0 C 436.0,210.0 437.0,209.0 436.0,208.0 C 437.0,207.0 436.0,206.0 437.0,205.0 C 436.0,204.0 437.0,203.0 436.0,202.0 C 436.0,196.0 435.0,195.0 435.0,191.0 C 434.0,190.0 434.0,189.0 433.0,188.0 C 434.0,187.0 433.0,186.0 433.0,185.0 C 432.0,184.0 432.0,182.0 431.0,181.0 C 431.0,179.0 429.0,177.0 429.0,176.0 C 428.0,175.0 428.0,174.0 426.0,172.0 C 426.0,171.0 422.0,167.0 421.0,167.0 C 420.0,166.0 420.0,165.0 419.0,164.0 C 419.0,161.0 418.0,160.0 418.0,159.0 C 417.0,158.0 417.0,157.0 416.0,156.0 C 416.0,155.0 415.0,154.0 415.0,153.0 C 412.0,150.0 412.0,149.0 404.0,141.0 C 403.0,141.0 401.0,139.0 400.0,140.0 C 398.0,140.0 397.0,139.0 395.0,139.0 C 393.0,137.0 391.0,137.0 390.0,136.0 C 388.0,136.0 387.0,135.0 382.0,135.0 C 381.0,134.0 379.0,134.0 378.0,135.0 C 377.0,135.0 376.0,134.0 371.0,134.0 C 370.0,135.0 369.0,135.0 368.0,134.0 Z" fill="rgb(23715,9435,19635)" stroke="none" stroke-width="0" /></svg>