<?xml version="1.0" encoding="UTF-8"?>
<!-- Generator: visioncortex VTracer 0.6.4 -->
<svg version="1.1" xmlns="http://www.w3.org/2000/svg" width="506" height="265">
<path d="M0 0 C0.6599999999999966 0 1.3199999999999932 0 2 0 C2 52.800000000000004 2 105.60000000000001 2 160 C-7.240000000000009 160 -16.47999999999999 160 -26 160 C-26 113.8 -26 67.6 -26 20 C-13.293413947610333 9.603702320772086 -13.293413947610333 9.603702320772086 -7.291259765625 5.2828369140625 C-6.457322084050929 4.6813046088169585 -5.626296922469351 4.0757694830712605 -4.794921875 3.470703125 C-3.199224534819109 2.310169724740551 -1.6007342511168474 1.1535797450455179 0 0 Z " fill="#DD390D" transform="translate(246,0)"/>
<path d="M0 0 C0.660000000000025 0.33000000000000007 1.3199999999999932 0.6600000000000001 2 1 C2 36.64 2 72.28 2 109 C-7.240000000000009 109 -16.480000000000018 109 -26 109 C-26.02210009581995 97.54331032692599 -26.040543102886318 86.0866409736634 -26.05106532946229 74.62993603944778 C-26.05231583860575 73.27331018672399 -26.053610180145256 71.91668437912753 -26.054931640625 70.56005859375 C-26.0551939510554 70.29001113295556 -26.0554562614858 70.0199636721611 -26.055726520717144 69.74173295497894 C-26.060062190439737 65.38545829213633 -26.067938025615092 61.02919700417236 -26.07715279608965 56.6729302406311 C-26.086548085783193 52.193523288684084 -26.092067971447307 47.71412327751631 -26.09408849477768 43.23470687866211 C-26.095451597970964 40.477003630566536 -26.099735655280142 37.71933820426332 -26.107916466891766 34.96164661645889 C-26.11325664050662 33.063280340401256 -26.114788025773066 31.164933236109363 -26.113501377403736 29.26656001806259 C-26.112869178014876 28.17594961123855 -26.11374517957057 27.085404651451356 -26.119205474853516 25.99480628967285 C-26.145009306357963 20.582048695898774 -25.82036554334752 15.35452589219274 -25 10 C-24.654445934511102 9.853650405742357 -24.308888360246556 9.707309096230205 -23.963329315185547 9.5609712600708 C-23.674681321382536 9.438729195296766 -23.674681321382536 9.438729195296766 -23.380202054977417 9.314017593860626 C-15.649056272332984 6.042190222384557 -7.850926647289043 2.971808893995739 0 0 Z " fill="#DD380D" transform="translate(322,9)"/>
<path d="M0 0 C0.9900000000000091 0 1.9800000000000182 0 3 0 C3 33.66 3 67.32000000000001 3 102 C-6.240000000000009 102 -15.480000000000018 102 -25 102 C-25 73.28999999999999 -25 44.58 -25 15 C-16.75 10.049999999999997 -8.5 5.100000000000001 0 0 Z " fill="#DC390D" transform="translate(283,43)"/>
<path d="M0 0 C0.3299999999999841 0 0.6599999999999966 0 1 0 C1 31.349999999999994 1 62.7 1 95 C-7.909999999999997 95 -16.819999999999993 95 -26 95 C-26 68.6 -26 42.19999999999999 -26 15 C-16.79766371077764 9.24853981923603 -16.79766371077764 9.24853981923603 -13.28125 7.32421875 C-12.889013300966042 7.10735438276965 -12.496885810219567 6.890292395567954 -12.1048583984375 6.6730499267578125 C-11.106485349260453 6.120450956296921 -10.106723758188565 5.570420155291295 -9.1065673828125 5.02105712890625 C-8.072734540636645 4.452542691143016 -7.0403493859461435 3.881410529072113 -6.0078125 3.310546875 C-4.006557040899764 2.2045744647402685 -2.0038135466746496 1.101330040984287 0 0 Z " fill="#DD390D" transform="translate(209,42)"/>
<path d="M0 0 C2.4750000000000227 1.4850000000000136 2.4750000000000227 1.4850000000000136 5 3 C5.329999999999984 4.319999999999993 5.660000000000025 5.639999999999986 6 7 C3.5249999999999773 6.5049999999999955 3.5249999999999773 6.5049999999999955 1 6 C1 5.340000000000003 1 4.680000000000007 1 4 C-8.056637483637587 3.787667138303135 -8.056637483637587 3.787667138303135 -17 5 C-17.329999999999984 6.650000000000006 -17.660000000000025 8.300000000000011 -18 10 C-12.060000000000002 10.330000000000013 -6.1200000000000045 10.659999999999997 0 11 C1.6499999999999773 11.990000000000009 3.3000000000000114 12.97999999999999 5 14 C5.329999999999984 15.97999999999999 5.660000000000025 17.960000000000008 6 20 C5.339999999999975 21.319999999999993 4.680000000000007 22.639999999999986 4 24 C2.3500000000000227 24.659999999999997 0.6999999999999886 25.319999999999993 -1 26 C-6.279999999999973 26 -11.560000000000002 26 -17 26 C-18.649999999999977 25.00999999999999 -20.30000000000001 24.02000000000001 -22 23 C-22 21.680000000000007 -22 20.360000000000014 -22 19 C-20.680000000000007 19 -19.360000000000014 19 -18 19 C-18 19.99000000000001 -18 20.97999999999999 -18 22 C-6.001387925719996 22.685160159703145 -6.001387925719996 22.685160159703145 1 20 C1 18.349999999999994 1 16.69999999999999 1 15 C-5.600000000000023 14.669999999999987 -12.199999999999989 14.340000000000003 -19 14 C-19.99000000000001 13.340000000000003 -20.980000000000018 12.680000000000007 -22 12 C-22 9.360000000000014 -22 6.719999999999999 -22 4 C-21.00999999999999 3.009999999999991 -20.019999999999982 2.0200000000000102 -19 1 C-12.983356417403456 -1.005547860865505 -6.342099196813479 0 0 0 Z " fill="#000000" transform="translate(369,187)"/>
<path d="M0 0 C8.25 0 16.5 0 25 0 C25.99000000000001 0.6599999999999966 26.980000000000018 1.3199999999999932 28 2 C28.329999999999984 3.9799999999999898 28.660000000000025 5.960000000000008 29 8 C28.339999999999975 9.97999999999999 27.680000000000007 11.960000000000008 27 14 C27.329999999999984 14.330000000000013 27.660000000000025 14.659999999999997 28 15 C28 17.97 28 20.939999999999998 28 24 C26.680000000000007 24 25.360000000000014 24 24 24 C23.670000000000016 21.360000000000014 23.339999999999975 18.72 23 16 C16.730000000000018 15.669999999999987 10.45999999999998 15.340000000000003 4 15 C4 17.97 4 20.939999999999998 4 24 C2.680000000000007 24 1.3600000000000136 24 0 24 C0 16.079999999999984 0 8.159999999999997 0 0 Z M4 3 C4 5.969999999999999 4 8.939999999999998 4 12 C14.099649328108114 12.30946201774384 14.099649328108114 12.30946201774384 24 11 C24.329999999999984 9.02000000000001 24.660000000000025 7.039999999999992 25 5 C24.670000000000016 4.340000000000003 24.339999999999975 3.680000000000007 24 3 C17.399999999999977 3 10.800000000000011 3 4 3 Z " fill="#000000" transform="translate(264,188)"/>
<path d="M0 0 C8.25 0 16.5 0 25 0 C25.989999999999995 0.6599999999999966 26.980000000000004 1.3199999999999932 28 2 C28 5.300000000000011 28 8.599999999999994 28 12 C27.67 12.659999999999997 27.340000000000003 13.319999999999993 27 14 C27.33 14.659999999999997 27.659999999999997 15.319999999999993 28 16 C28 18.639999999999986 28 21.28 28 24 C26.680000000000007 24 25.36 24 24 24 C23.67 21.360000000000014 23.340000000000003 18.72 23 16 C16.400000000000006 15.669999999999987 9.799999999999997 15.340000000000003 3 15 C3 17.97 3 20.939999999999998 3 24 C2.010000000000005 24 1.019999999999996 24 0 24 C0 16.079999999999984 0 8.159999999999997 0 0 Z M3 3 C3 5.969999999999999 3 8.939999999999998 3 12 C13.604619664542923 12.349836585598808 13.604619664542923 12.349836585598808 24 11 C24.33 9.02000000000001 24.659999999999997 7.039999999999992 25 5 C24.340000000000003 4.340000000000003 23.680000000000007 3.680000000000007 23 3 C16.400000000000006 3 9.799999999999997 3 3 3 Z " fill="#000000" transform="translate(90,188)"/>
<path d="M0 0 C8.25 0 16.5 0 25 0 C25 0.9900000000000091 25 1.9799999999999898 25 3 C18.069999999999993 3 11.139999999999986 3 4 3 C4 5.310000000000002 4 7.6200000000000045 4 10 C10.600000000000023 10 17.19999999999999 10 24 10 C24 10.990000000000009 24 11.97999999999999 24 13 C17.399999999999977 13 10.800000000000011 13 4 13 C4 15.639999999999986 4 18.28 4 21 C10.930000000000007 21 17.860000000000014 21 25 21 C25 21.99000000000001 25 22.97999999999999 25 24 C16.75 24 8.5 24 0 24 C0 16.079999999999984 0 8.159999999999997 0 0 Z " fill="#000000" transform="translate(308,188)"/>
<path d="M0 0 C8.25 0 16.5 0 25 0 C25 0.9900000000000091 25 1.9799999999999898 25 3 C18.069999999999993 3 11.139999999999986 3 4 3 C4 5.310000000000002 4 7.6200000000000045 4 10 C10.599999999999994 10 17.19999999999999 10 24 10 C24 10.990000000000009 24 11.97999999999999 24 13 C17.400000000000006 13 10.800000000000011 13 4 13 C4 15.639999999999986 4 18.28 4 21 C10.930000000000007 21 17.860000000000014 21 25 21 C25 21.99000000000001 25 22.97999999999999 25 24 C16.75 24 8.5 24 0 24 C0 16.079999999999984 0 8.159999999999997 0 0 Z " fill="#000000" transform="translate(134,188)"/>
<path d="M0 0 C8.25 0 16.5 0 25 0 C26.319999999999993 0.9900000000000091 27.639999999999986 1.9799999999999898 29 3 C29 8.939999999999998 29 14.879999999999995 29 21 C27.680000000000007 21.99000000000001 26.360000000000014 22.97999999999999 25 24 C16.75 24 8.5 24 0 24 C0 16.079999999999984 0 8.159999999999997 0 0 Z M3 3 C3 8.939999999999998 3 14.879999999999995 3 21 C9.599999999999994 21 16.19999999999999 21 23 21 C23.659999999999997 20.670000000000016 24.319999999999993 20.340000000000003 25 20 C26.474341649025234 16.104021329618917 26.474341649025234 16.104021329618917 26 8 C25.670000000000016 6.680000000000007 25.340000000000003 5.360000000000014 25 4 C24.340000000000003 3.6699999999999875 23.680000000000007 3.3400000000000034 23 3 C16.400000000000006 3 9.800000000000011 3 3 3 Z " fill="#000000" transform="translate(174,188)"/>
<path d="M0 0 C2.4749999999999943 1.4850000000000136 2.4749999999999943 1.4850000000000136 5 3 C5.329999999999984 4.97999999999999 5.659999999999997 6.960000000000008 6 9 C4.680000000000007 9 3.3600000000000136 9 2 9 C1.670000000000016 7.680000000000007 1.3400000000000034 6.360000000000014 1 5 C-5.475696141950749 3.38107596451232 -12.32500520183308 4 -19 4 C-19 9.939999999999998 -19 15.879999999999995 -19 22 C-8.900350671891914 22.30946201774384 -8.900350671891914 22.30946201774384 1 21 C1.329999999999984 19.680000000000007 1.6599999999999966 18.360000000000014 2 17 C3.319999999999993 17 4.639999999999986 17 6 17 C5.670000000000016 18.97999999999999 5.340000000000003 20.960000000000008 5 23 C2.5250000000000057 24.485000000000014 2.5250000000000057 24.485000000000014 0 26 C-5.939999999999998 26 -11.879999999999995 26 -18 26 C-19.650000000000006 25.00999999999999 -21.30000000000001 24.02000000000001 -23 23 C-24.795054935711505 17.614835192865485 -24 11.676462121975476 -24 6 C-23.00999999999999 4.349999999999994 -22.02000000000001 2.6999999999999886 -21 1 C-14.351691944562134 -1.2161026851459553 -7.0079320138762 0 0 0 Z " fill="#000000" transform="translate(242,187)"/>
<path d="M0 0 C9.240000000000009 0 18.480000000000018 0 28 0 C28 0.9900000000000091 28 1.9799999999999898 28 3 C24.04000000000002 3 20.079999999999984 3 16 3 C16 9.930000000000007 16 16.860000000000014 16 24 C14.680000000000007 24 13.360000000000014 24 12 24 C12 17.069999999999993 12 10.139999999999986 12 3 C8.04000000000002 3 4.079999999999984 3 0 3 C0 2.009999999999991 0 1.0200000000000102 0 0 Z " fill="#000000" transform="translate(389,188)"/>
<path d="M0 0 C1.3199999999999932 0.3300000000000125 2.6399999999999864 0.6599999999999966 4 1 C4.3300000000000125 2.9799999999999898 4.659999999999997 4.960000000000008 5 7 C5.659999999999997 7 6.319999999999993 7 7 7 C7.3300000000000125 5.02000000000001 7.659999999999997 3.039999999999992 8 1 C9.319999999999993 0.6699999999999875 10.639999999999986 0.3400000000000034 12 0 C12 3.960000000000008 12 7.9199999999999875 12 12 C10.680000000000007 11.669999999999987 9.360000000000014 11.340000000000003 8 11 C6.680000000000007 11 5.360000000000014 11 4 11 C3.6699999999999875 10.009999999999991 3.3400000000000034 9.02000000000001 3 8 C2.6699999999999875 9.319999999999993 2.3400000000000034 10.639999999999986 2 12 C1.3400000000000034 12 0.6800000000000068 12 0 12 C0 8.039999999999992 0 4.0800000000000125 0 0 Z " fill="#000000" transform="translate(181,234)"/>
<path d="M0 0 C0.9900000000000091 0 1.9799999999999898 0 3 0 C3.990000000000009 1.9799999999999898 4.97999999999999 3.960000000000008 6 6 C6.659999999999997 4.02000000000001 7.319999999999993 2.039999999999992 8 0 C8.990000000000009 0 9.97999999999999 0 11 0 C11 3.960000000000008 11 7.9199999999999875 11 12 C10.340000000000003 12 9.680000000000007 12 9 12 C8.669999999999987 11.340000000000003 8.340000000000003 10.680000000000007 8 10 C7.6699999999999875 10.659999999999997 7.340000000000003 11.319999999999993 7 12 C6.009999999999991 12 5.02000000000001 12 4 12 C3.6699999999999875 11.340000000000003 3.3400000000000034 10.680000000000007 3 10 C2.6699999999999875 10.659999999999997 2.3400000000000034 11.319999999999993 2 12 C1.3400000000000034 12 0.6800000000000068 12 0 12 C0 8.039999999999992 0 4.0800000000000125 0 0 Z " fill="#000000" transform="translate(198,234)"/>
<path d="M0 0 C1.9799999999999898 0 3.960000000000008 0 6 0 C6.990000000000009 1.3199999999999932 7.97999999999999 2.6399999999999864 9 4 C8.669999999999987 6.310000000000002 8.340000000000003 8.620000000000005 8 11 C7.009999999999991 11.659999999999997 6.02000000000001 12.319999999999993 5 13 C2.030000000000001 12.504999999999995 2.030000000000001 12.504999999999995 -1 12 C-1.6599999999999966 11.009999999999991 -2.319999999999993 10.02000000000001 -3 9 C-3 7.02000000000001 -3 5.039999999999992 -3 3 C-2.009999999999991 2.009999999999991 -1.0200000000000102 1.0200000000000102 0 0 Z M1 2 C0.3400000000000034 3.6500000000000057 -0.3199999999999932 5.300000000000011 -1 7 C-0.009999999999990905 8.485000000000014 -0.009999999999990905 8.485000000000014 1 10 C2.6500000000000057 9.669999999999987 4.300000000000011 9.340000000000003 6 9 C6 7.02000000000001 6 5.039999999999992 6 3 C4.349999999999994 2.6699999999999875 2.6999999999999886 2.3400000000000034 1 2 Z " fill="#000000" transform="translate(168,234)"/>
<path d="M0 0 C2.6399999999999864 0 5.280000000000001 0 8 0 C8.659999999999997 0.3300000000000125 9.319999999999993 0.6599999999999966 10 1 C10 4.6299999999999955 10 8.259999999999991 10 12 C9.009999999999991 11.669999999999987 8.02000000000001 11.340000000000003 7 11 C7 10.009999999999991 7 9.02000000000001 7 8 C5.349999999999994 8 3.6999999999999886 8 2 8 C2 9.319999999999993 2 10.639999999999986 2 12 C1.3400000000000034 12 0.6800000000000068 12 0 12 C0 8.039999999999992 0 4.0800000000000125 0 0 Z M2 2 C2 2.990000000000009 2 3.9799999999999898 2 5 C3.9799999999999898 5 5.960000000000008 5 8 5 C7.6699999999999875 4.009999999999991 7.340000000000003 3.0200000000000102 7 2 C5.349999999999994 2 3.6999999999999886 2 2 2 Z " fill="#000000" transform="translate(228,234)"/>
<path d="M0 0 C2.969999999999999 0 5.939999999999998 0 9 0 C9 0.6599999999999966 9 1.3199999999999932 9 2 C7.02000000000001 2 5.039999999999992 2 3 2 C3 2.990000000000009 3 3.9799999999999898 3 5 C4.97999999999999 5 6.960000000000008 5 9 5 C9 5.659999999999997 9 6.319999999999993 9 7 C7.02000000000001 7 5.039999999999992 7 3 7 C3 7.990000000000009 3 8.97999999999999 3 10 C5.310000000000002 10 7.6200000000000045 10 10 10 C10 10.659999999999997 10 11.319999999999993 10 12 C6.699999999999989 12 3.4000000000000057 12 0 12 C0 8.039999999999992 0 4.0800000000000125 0 0 Z " fill="#000000" transform="translate(214,234)"/>
<path d="M0 0 C2.969999999999999 0 5.939999999999998 0 9 0 C9 0.6599999999999966 9 1.3199999999999932 9 2 C7.02000000000001 2 5.039999999999992 2 3 2 C3 2.990000000000009 3 3.9799999999999898 3 5 C4.97999999999999 5 6.960000000000008 5 9 5 C9 5.659999999999997 9 6.319999999999993 9 7 C7.02000000000001 7 5.039999999999992 7 3 7 C3 7.990000000000009 3 8.97999999999999 3 10 C5.310000000000002 10 7.6200000000000045 10 10 10 C10 10.659999999999997 10 11.319999999999993 10 12 C6.699999999999989 12 3.4000000000000057 12 0 12 C0 8.039999999999992 0 4.0800000000000125 0 0 Z " fill="#000000" transform="translate(128,234)"/>
<path d="M0 0 C2.3100000000000023 0 4.6200000000000045 0 7 0 C7.990000000000009 0.9900000000000091 8.980000000000018 1.9799999999999898 10 3 C10 5.310000000000002 10 7.6200000000000045 10 10 C9.339999999999975 10.659999999999997 8.680000000000007 11.319999999999993 8 12 C5.360000000000014 12 2.7200000000000273 12 0 12 C0 8.039999999999992 0 4.0800000000000125 0 0 Z M2 2 C2 4.639999999999986 2 7.280000000000001 2 10 C3.6499999999999773 9.669999999999987 5.300000000000011 9.340000000000003 7 9 C7.329999999999984 7.680000000000007 7.660000000000025 6.360000000000014 8 5 C7.009999999999991 4.009999999999991 6.019999999999982 3.0200000000000102 5 2 C4.009999999999991 2 3.019999999999982 2 2 2 Z " fill="#000000" transform="translate(360,234)"/>
<path d="M0 0 C1.9799999999999898 0 3.960000000000008 0 6 0 C6.659999999999997 1.3199999999999932 7.319999999999993 2.6399999999999864 8 4 C7.009999999999991 4 6.02000000000001 4 5 4 C5 3.3400000000000034 5 2.680000000000007 5 2 C3.3499999999999943 2.3300000000000125 1.6999999999999886 2.6599999999999966 0 3 C0.3300000000000125 4.97999999999999 0.6599999999999966 6.960000000000008 1 9 C4.465000000000003 8.504999999999995 4.465000000000003 8.504999999999995 8 8 C7.6699999999999875 9.319999999999993 7.340000000000003 10.639999999999986 7 12 C5.02000000000001 12.330000000000013 3.039999999999992 12.659999999999997 1 13 C-0.3199999999999932 11.680000000000007 -1.6399999999999864 10.360000000000014 -3 9 C-2.6699999999999875 6.689999999999998 -2.3400000000000034 4.3799999999999955 -2 2 C-1.3400000000000034 1.3400000000000034 -0.6800000000000068 0.6800000000000068 0 0 Z " fill="#000000" transform="translate(153,234)"/>
<path d="M0 0 C1.9799999999999898 0 3.960000000000008 0 6 0 C6.659999999999997 1.3199999999999932 7.319999999999993 2.6399999999999864 8 4 C5.360000000000014 3.6699999999999875 2.719999999999999 3.3400000000000034 0 3 C0.3300000000000125 4.97999999999999 0.6599999999999966 6.960000000000008 1 9 C4.465000000000003 8.504999999999995 4.465000000000003 8.504999999999995 8 8 C7.6699999999999875 9.319999999999993 7.340000000000003 10.639999999999986 7 12 C5.349999999999994 12.330000000000013 3.6999999999999886 12.659999999999997 2 13 C0.6800000000000068 12.340000000000003 -0.6399999999999864 11.680000000000007 -2 11 C-2.3300000000000125 8.689999999999998 -2.6599999999999966 6.3799999999999955 -3 4 C-2.009999999999991 2.680000000000007 -1.0200000000000102 1.3600000000000136 0 0 Z " fill="#000000" transform="translate(245,234)"/>
<path d="M0 0 C2.9700000000000273 0 5.939999999999998 0 9 0 C9 0.6599999999999966 9 1.3199999999999932 9 2 C6.689999999999998 2 4.3799999999999955 2 2 2 C2 2.990000000000009 2 3.9799999999999898 2 5 C3.980000000000018 5 5.9599999999999795 5 8 5 C8 5.659999999999997 8 6.319999999999993 8 7 C6.019999999999982 7 4.0400000000000205 7 2 7 C2 7.990000000000009 2 8.97999999999999 2 10 C4.310000000000002 10 6.6200000000000045 10 9 10 C9 10.659999999999997 9 11.319999999999993 9 12 C6.029999999999973 12 3.0600000000000023 12 0 12 C0 8.039999999999992 0 4.0800000000000125 0 0 Z " fill="#000000" transform="translate(258,234)"/>
<path d="M0 0 C2.6399999999999864 0 5.279999999999973 0 8 0 C8.329999999999984 0.3300000000000125 8.660000000000025 0.6599999999999966 9 1 C9 2.9799999999999898 9 4.960000000000008 9 7 C6.689999999999998 7.3300000000000125 4.3799999999999955 7.659999999999997 2 8 C2 9.319999999999993 2 10.639999999999986 2 12 C1.339999999999975 12 0.6800000000000068 12 0 12 C0 8.039999999999992 0 4.0800000000000125 0 0 Z M2 2 C2 3.319999999999993 2 4.639999999999986 2 6 C3.6499999999999773 5.6699999999999875 5.300000000000011 5.340000000000003 7 5 C6.670000000000016 4.009999999999991 6.339999999999975 3.0200000000000102 6 2 C4.680000000000007 2 3.3600000000000136 2 2 2 Z " fill="#000000" transform="translate(279,234)"/>
<path d="M0 0 C0.9900000000000091 0.3300000000000125 1.9800000000000182 0.6599999999999966 3 1 C3.660000000000025 2.9799999999999898 4.319999999999993 4.960000000000008 5 7 C5.990000000000009 4.689999999999998 6.980000000000018 2.3799999999999955 8 0 C8.990000000000009 0 9.980000000000018 0 11 0 C10.59346789934267 1.3882516701657153 10.184452174919613 2.7757388733748485 9.773193359375 4.16259765625 C9.63384880598727 4.633753399917879 9.495165764579951 5.1051053419704715 9.357177734375 5.57666015625 C9.157857077859944 6.257372578860981 8.95610864130748 6.937326288154281 8.75390625 7.6171875 C8.693446197509786 7.825602722167957 8.632986145019515 8.034017944335943 8.570693969726563 8.248748779296875 C8.170490016989675 9.583433832787733 7.654853146995322 10.769370312439008 7 12 C5.680000000000007 11.669999999999987 4.360000000000014 11.340000000000003 3 11 C2.009999999999991 8.360000000000014 1.0199999999999818 5.719999999999999 0 3 C0 2.009999999999991 0 1.0200000000000102 0 0 Z " fill="#000000" transform="translate(292,234)"/>
<path d="M0 0 C3.3000000000000114 0 6.600000000000023 0 10 0 C10 0.6599999999999966 10 1.3199999999999932 10 2 C8.680000000000007 2 7.360000000000014 2 6 2 C6 5.300000000000011 6 8.599999999999994 6 12 C5.339999999999975 12 4.680000000000007 12 4 12 C4 8.699999999999989 4 5.400000000000006 4 2 C2.680000000000007 2 1.3600000000000136 2 0 2 C0 1.3400000000000034 0 0.6800000000000068 0 0 Z " fill="#000000" transform="translate(346,234)"/>
<path d="M0 0 C3.3000000000000114 0 6.600000000000023 0 10 0 C10 0.6599999999999966 10 1.3199999999999932 10 2 C8.680000000000007 2 7.360000000000014 2 6 2 C6 5.300000000000011 6 8.599999999999994 6 12 C5.339999999999975 12 4.680000000000007 12 4 12 C4 8.699999999999989 4 5.400000000000006 4 2 C2.680000000000007 2 1.3600000000000136 2 0 2 C0 1.3400000000000034 0 0.6800000000000068 0 0 Z " fill="#000000" transform="translate(306,234)"/>
<path d="M0 0 C0.660000000000025 0 1.3199999999999932 0 2 0 C2 3.3000000000000114 2 6.599999999999994 2 10 C3.980000000000018 10 5.9599999999999795 10 8 10 C8 10.659999999999997 8 11.319999999999993 8 12 C5.360000000000014 12 2.7200000000000273 12 0 12 C0 8.039999999999992 0 4.0800000000000125 0 0 Z " fill="#000000" transform="translate(335,234)"/>
<path d="M0 0 C1.9799999999999898 0 3.960000000000008 0 6 0 C6 0.6599999999999966 6 1.3199999999999932 6 2 C4.02000000000001 2 2.039999999999992 2 0 2 C0 1.3400000000000034 0 0.6800000000000068 0 0 Z " fill="#000000" transform="translate(141,241)"/>
<path d="M0 0 C0.660000000000025 0 1.3199999999999932 0 2 0 C2 0.6599999999999966 2 1.3199999999999932 2 2 C1.339999999999975 2 0.6800000000000068 2 0 2 C0 1.3400000000000034 0 0.6800000000000068 0 0 Z " fill="#000000" transform="translate(375,244)"/>
<path d="M0 0 C0.660000000000025 0 1.3199999999999932 0 2 0 C2 0.6599999999999966 2 1.3199999999999932 2 2 C1.339999999999975 2 0.6800000000000068 2 0 2 C0 1.3400000000000034 0 0.6800000000000068 0 0 Z " fill="#000000" transform="translate(320,244)"/>
</svg>
