<?xml version="1.0" encoding="utf-8" ?>
<svg baseProfile="full" height="225" version="1.1" width="225" xmlns="http://www.w3.org/2000/svg" xmlns:ev="http://www.w3.org/2001/xml-events" xmlns:xlink="http://www.w3.org/1999/xlink"><defs /><path d="M 111.0,158.0 C 111.0,159.0 112.0,160.0 117.0,160.0 C 118.0,159.0 121.0,159.0 121.0,158.0 C 115.0,158.0 114.0,159.0 112.0,159.0 Z" fill="rgb(0,0,0)" stroke="none" stroke-width="0.0" /><path d="M 132.0,150.0 C 132.0,151.0 131.0,152.0 130.0,151.0 C 131.0,152.0 130.0,153.0 129.0,153.0 C 136.0,153.0 135.0,152.0 135.0,150.0 Z" fill="rgb(0,0,0)" stroke="none" stroke-width="0.0" /><path d="M 151.0,148.0 C 150.0,149.0 149.0,149.0 150.0,150.0 C 149.0,151.0 150.0,151.0 151.0,150.0 C 152.0,151.0 153.0,150.0 155.0,150.0 C 155.0,149.0 154.0,148.0 153.0,148.0 C 154.0,149.0 152.0,151.0 150.0,149.0 Z" fill="rgb(0,0,0)" stroke="none" stroke-width="0.0" /><path d="M 57.0,148.0 C 55.0,150.0 48.0,150.0 50.0,150.0 C 51.0,151.0 55.0,151.0 56.0,150.0 C 57.0,151.0 58.0,151.0 59.0,152.0 C 63.0,152.0 64.0,151.0 69.0,151.0 C 70.0,152.0 75.0,152.0 76.0,153.0 C 79.0,153.0 80.0,152.0 117.0,152.0 C 116.0,152.0 115.0,151.0 116.0,150.0 C 118.0,150.0 119.0,151.0 120.0,151.0 C 120.0,149.0 119.0,149.0 118.0,150.0 C 79.0,150.0 78.0,149.0 79.0,148.0 Z" fill="rgb(0,0,0)" stroke="none" stroke-width="0.0" /><path d="M 120.0,134.0 C 118.0,136.0 119.0,136.0 120.0,137.0 C 121.0,136.0 123.0,136.0 124.0,137.0 C 125.0,137.0 126.0,138.0 126.0,139.0 C 125.0,140.0 124.0,140.0 124.0,143.0 C 125.0,142.0 125.0,141.0 126.0,140.0 C 128.0,142.0 128.0,143.0 128.0,142.0 C 127.0,141.0 128.0,140.0 127.0,141.0 C 126.0,140.0 126.0,139.0 127.0,138.0 C 126.0,137.0 126.0,135.0 126.0,136.0 C 125.0,137.0 124.0,136.0 123.0,136.0 C 122.0,135.0 123.0,134.0 122.0,135.0 Z" fill="rgb(0,0,0)" stroke="none" stroke-width="0.0" /><path d="M 99.0,134.0 C 100.0,135.0 99.0,136.0 90.0,136.0 C 106.0,136.0 105.0,135.0 100.0,135.0 Z" fill="rgb(0,0,0)" stroke="none" stroke-width="0.0" /><path d="M 136.0,133.0 C 137.0,134.0 135.0,136.0 134.0,135.0 C 133.0,136.0 132.0,136.0 136.0,136.0 C 137.0,137.0 138.0,136.0 137.0,135.0 C 138.0,134.0 139.0,134.0 139.0,133.0 Z" fill="rgb(0,0,0)" stroke="none" stroke-width="0.0" /><path d="M 77.0,131.0 C 75.0,133.0 74.0,132.0 73.0,133.0 C 71.0,133.0 71.0,134.0 70.0,135.0 C 71.0,134.0 72.0,134.0 73.0,133.0 C 74.0,133.0 76.0,135.0 76.0,136.0 C 85.0,136.0 84.0,136.0 83.0,135.0 C 84.0,134.0 86.0,134.0 87.0,135.0 C 88.0,134.0 93.0,134.0 94.0,133.0 C 93.0,134.0 84.0,134.0 83.0,135.0 C 81.0,135.0 80.0,136.0 77.0,136.0 C 76.0,135.0 77.0,134.0 78.0,134.0 C 77.0,134.0 76.0,135.0 75.0,134.0 C 75.0,133.0 77.0,131.0 78.0,132.0 Z" fill="rgb(0,0,0)" stroke="none" stroke-width="0.0" /><path d="M 108.0,127.0 C 107.0,128.0 106.0,128.0 105.0,129.0 C 103.0,129.0 103.0,130.0 102.0,131.0 C 101.0,130.0 100.0,131.0 102.0,131.0 C 103.0,130.0 104.0,130.0 105.0,129.0 Z" fill="rgb(0,0,0)" stroke="none" stroke-width="0.0" /><path d="M 128.0,120.0 C 128.0,122.0 127.0,123.0 127.0,125.0 C 126.0,126.0 126.0,127.0 125.0,128.0 C 125.0,131.0 124.0,132.0 125.0,131.0 C 126.0,132.0 126.0,133.0 127.0,133.0 C 125.0,131.0 125.0,129.0 126.0,128.0 C 127.0,129.0 127.0,130.0 128.0,130.0 C 129.0,129.0 129.0,128.0 128.0,127.0 C 128.0,125.0 127.0,124.0 127.0,123.0 Z" fill="rgb(0,0,0)" stroke="none" stroke-width="0.0" /><path d="M 62.0,119.0 C 61.0,120.0 60.0,120.0 61.0,120.0 C 62.0,119.0 64.0,119.0 65.0,120.0 C 66.0,120.0 67.0,121.0 68.0,121.0 C 68.0,120.0 69.0,119.0 71.0,119.0 Z" fill="rgb(0,0,0)" stroke="none" stroke-width="0.0" /><path d="M 18.0,119.0 C 19.0,120.0 18.0,121.0 18.0,122.0 C 17.0,123.0 17.0,124.0 16.0,125.0 C 16.0,128.0 17.0,128.0 17.0,127.0 C 18.0,126.0 19.0,127.0 18.0,126.0 C 18.0,125.0 17.0,124.0 17.0,123.0 C 18.0,122.0 18.0,121.0 19.0,120.0 Z" fill="rgb(0,0,0)" stroke="none" stroke-width="0.0" /><path d="M 118.0,112.0 C 117.0,113.0 117.0,117.0 116.0,118.0 C 116.0,120.0 115.0,121.0 115.0,123.0 C 114.0,124.0 115.0,125.0 115.0,126.0 C 114.0,127.0 113.0,127.0 111.0,129.0 C 112.0,129.0 113.0,130.0 112.0,131.0 C 112.0,132.0 110.0,134.0 108.0,134.0 C 110.0,134.0 111.0,133.0 113.0,133.0 C 112.0,132.0 113.0,131.0 114.0,131.0 C 114.0,129.0 115.0,128.0 114.0,127.0 C 116.0,125.0 116.0,123.0 117.0,122.0 C 117.0,121.0 116.0,120.0 116.0,118.0 C 117.0,117.0 118.0,118.0 118.0,119.0 C 118.0,116.0 119.0,115.0 118.0,116.0 C 117.0,115.0 117.0,113.0 118.0,112.0 Z" fill="rgb(0,0,0)" stroke="none" stroke-width="0.0" /><path d="M 133.0,111.0 C 133.0,118.0 132.0,119.0 133.0,119.0 C 134.0,120.0 133.0,121.0 132.0,121.0 C 132.0,122.0 133.0,123.0 133.0,124.0 C 132.0,125.0 133.0,126.0 133.0,128.0 C 133.0,126.0 132.0,125.0 133.0,124.0 C 133.0,122.0 135.0,120.0 135.0,119.0 C 137.0,117.0 138.0,118.0 138.0,117.0 C 137.0,116.0 137.0,117.0 136.0,118.0 C 135.0,117.0 135.0,116.0 134.0,115.0 Z" fill="rgb(0,0,0)" stroke="none" stroke-width="0.0" /><path d="M 91.0,111.0 C 90.0,112.0 88.0,112.0 87.0,113.0 C 88.0,114.0 87.0,115.0 86.0,115.0 C 87.0,116.0 87.0,117.0 87.0,115.0 C 88.0,114.0 89.0,115.0 89.0,116.0 C 90.0,116.0 93.0,119.0 93.0,120.0 C 94.0,120.0 95.0,121.0 97.0,121.0 C 96.0,120.0 97.0,119.0 98.0,119.0 C 99.0,120.0 100.0,119.0 101.0,120.0 C 101.0,119.0 102.0,118.0 107.0,118.0 C 108.0,119.0 107.0,120.0 105.0,120.0 C 109.0,120.0 110.0,121.0 109.0,122.0 C 111.0,122.0 110.0,121.0 111.0,120.0 C 109.0,118.0 100.0,118.0 99.0,119.0 C 97.0,119.0 95.0,117.0 95.0,115.0 Z" fill="rgb(0,0,0)" stroke="none" stroke-width="0.0" /><path d="M 51.0,107.0 C 51.0,109.0 52.0,110.0 51.0,111.0 C 52.0,111.0 53.0,110.0 53.0,108.0 Z" fill="rgb(0,0,0)" stroke="none" stroke-width="0.0" /><path d="M 135.0,105.0 C 134.0,106.0 135.0,106.0 136.0,105.0 C 138.0,107.0 138.0,108.0 139.0,108.0 Z" fill="rgb(0,0,0)" stroke="none" stroke-width="0.0" /><path d="M 116.0,105.0 C 116.0,106.0 117.0,106.0 118.0,107.0 C 118.0,109.0 117.0,110.0 114.0,110.0 C 117.0,110.0 118.0,109.0 119.0,109.0 C 120.0,108.0 121.0,109.0 121.0,110.0 C 121.0,109.0 122.0,108.0 122.0,107.0 C 122.0,108.0 121.0,109.0 119.0,107.0 C 119.0,106.0 120.0,105.0 122.0,105.0 Z" fill="rgb(0,0,0)" stroke="none" stroke-width="0.0" /><path d="M 65.0,105.0 C 65.0,107.0 64.0,108.0 64.0,109.0 C 65.0,108.0 66.0,109.0 66.0,110.0 C 67.0,109.0 67.0,108.0 69.0,106.0 C 71.0,106.0 72.0,105.0 74.0,105.0 C 75.0,106.0 74.0,107.0 74.0,108.0 Z" fill="rgb(0,0,0)" stroke="none" stroke-width="0.0" /><path d="M 55.0,96.0 C 55.0,98.0 54.0,99.0 54.0,100.0 C 55.0,99.0 56.0,100.0 56.0,101.0 C 56.0,100.0 57.0,99.0 57.0,98.0 Z" fill="rgb(0,0,0)" stroke="none" stroke-width="0.0" /><path d="M 57.0,94.0 C 61.0,94.0 62.0,95.0 62.0,96.0 C 63.0,95.0 64.0,96.0 73.0,96.0 C 74.0,95.0 75.0,96.0 76.0,95.0 C 78.0,95.0 79.0,96.0 80.0,95.0 C 81.0,95.0 82.0,96.0 83.0,96.0 C 84.0,95.0 91.0,95.0 92.0,96.0 C 91.0,97.0 90.0,97.0 88.0,99.0 C 86.0,99.0 85.0,98.0 84.0,98.0 C 83.0,99.0 84.0,99.0 85.0,100.0 C 85.0,101.0 87.0,99.0 88.0,99.0 C 89.0,98.0 90.0,98.0 91.0,97.0 C 92.0,97.0 93.0,96.0 94.0,97.0 C 93.0,96.0 94.0,95.0 95.0,95.0 C 96.0,96.0 103.0,96.0 104.0,95.0 C 105.0,96.0 106.0,95.0 111.0,95.0 C 112.0,96.0 112.0,97.0 111.0,98.0 C 112.0,99.0 112.0,101.0 113.0,102.0 C 114.0,102.0 113.0,102.0 112.0,101.0 C 112.0,100.0 113.0,99.0 114.0,100.0 C 115.0,100.0 115.0,99.0 114.0,100.0 C 113.0,99.0 113.0,97.0 114.0,96.0 C 115.0,97.0 116.0,97.0 117.0,96.0 C 124.0,96.0 125.0,95.0 127.0,95.0 C 128.0,96.0 132.0,96.0 133.0,95.0 C 135.0,95.0 136.0,96.0 137.0,95.0 C 139.0,95.0 140.0,96.0 141.0,96.0 C 142.0,95.0 143.0,96.0 144.0,95.0 C 146.0,95.0 147.0,96.0 146.0,97.0 C 147.0,96.0 149.0,98.0 147.0,100.0 C 146.0,99.0 145.0,99.0 145.0,100.0 C 144.0,101.0 144.0,102.0 145.0,102.0 C 146.0,103.0 145.0,102.0 146.0,101.0 C 147.0,101.0 147.0,100.0 148.0,99.0 C 149.0,99.0 149.0,98.0 147.0,96.0 C 148.0,95.0 153.0,95.0 154.0,96.0 C 151.0,99.0 152.0,99.0 154.0,97.0 C 156.0,97.0 155.0,97.0 154.0,96.0 C 155.0,95.0 156.0,95.0 157.0,94.0 Z" fill="rgb(0,0,0)" stroke="none" stroke-width="0.0" /><path d="M 37.0,85.0 C 37.0,87.0 38.0,88.0 37.0,89.0 C 37.0,91.0 36.0,92.0 36.0,94.0 C 38.0,96.0 37.0,95.0 38.0,94.0 C 40.0,94.0 41.0,93.0 41.0,92.0 C 42.0,91.0 41.0,91.0 41.0,92.0 C 40.0,93.0 39.0,92.0 39.0,90.0 C 38.0,89.0 38.0,87.0 37.0,86.0 Z" fill="rgb(0,0,0)" stroke="none" stroke-width="0.0" /><path d="M 65.0,76.0 C 65.0,77.0 79.0,77.0 78.0,76.0 Z" fill="rgb(0,0,0)" stroke="none" stroke-width="0.0" /><path d="M 144.0,70.0 C 144.0,71.0 143.0,72.0 64.0,72.0 C 143.0,72.0 144.0,73.0 144.0,78.0 C 143.0,79.0 56.0,79.0 55.0,78.0 C 50.0,78.0 49.0,77.0 49.0,75.0 C 50.0,74.0 52.0,74.0 53.0,75.0 C 54.0,75.0 55.0,74.0 63.0,74.0 C 56.0,74.0 55.0,73.0 56.0,72.0 C 57.0,72.0 57.0,71.0 55.0,73.0 C 52.0,73.0 51.0,74.0 50.0,74.0 C 48.0,76.0 50.0,78.0 50.0,79.0 C 48.0,81.0 47.0,81.0 46.0,80.0 C 47.0,81.0 45.0,83.0 44.0,82.0 C 44.0,83.0 43.0,84.0 44.0,85.0 C 45.0,84.0 45.0,83.0 47.0,81.0 C 48.0,81.0 49.0,80.0 50.0,80.0 C 51.0,79.0 184.0,79.0 158.0,79.0 C 157.0,78.0 156.0,78.0 155.0,77.0 C 155.0,76.0 154.0,76.0 153.0,75.0 C 154.0,74.0 159.0,74.0 150.0,74.0 C 149.0,73.0 150.0,72.0 155.0,72.0 C 150.0,72.0 149.0,71.0 149.0,70.0 Z" fill="rgb(0,0,0)" stroke="none" stroke-width="0.0" /><path d="M 62.0,58.0 C 62.0,59.0 61.0,60.0 60.0,60.0 C 60.0,61.0 59.0,62.0 58.0,62.0 C 59.0,63.0 63.0,63.0 63.0,58.0 Z" fill="rgb(0,0,0)" stroke="none" stroke-width="0.0" /><path d="M 71.0,57.0 C 68.0,60.0 68.0,61.0 67.0,62.0 Z" fill="rgb(0,0,0)" stroke="none" stroke-width="0.0" /><path d="M 136.0,56.0 C 136.0,63.0 149.0,63.0 149.0,62.0 C 148.0,62.0 147.0,61.0 147.0,60.0 C 146.0,60.0 145.0,59.0 145.0,58.0 C 144.0,58.0 143.0,57.0 143.0,56.0 Z" fill="rgb(0,0,0)" stroke="none" stroke-width="0.0" /><path d="M 78.0,50.0 C 78.0,51.0 77.0,52.0 76.0,52.0 C 73.0,55.0 79.0,55.0 79.0,50.0 Z" fill="rgb(0,0,0)" stroke="none" stroke-width="0.0" /><path d="M 128.0,38.0 C 128.0,43.0 127.0,44.0 80.0,44.0 C 79.0,43.0 79.0,40.0 77.0,40.0 C 72.0,45.0 72.0,46.0 73.0,47.0 C 134.0,47.0 135.0,46.0 135.0,44.0 C 134.0,44.0 133.0,43.0 133.0,42.0 C 132.0,42.0 131.0,41.0 131.0,38.0 Z" fill="rgb(0,0,0)" stroke="none" stroke-width="0.0" /><path d="M 80.0,148.0 C 79.0,149.0 87.0,149.0 88.0,148.0 C 89.0,149.0 90.0,148.0 91.0,149.0 C 92.0,148.0 93.0,149.0 94.0,148.0 C 95.0,149.0 96.0,148.0 97.0,149.0 C 98.0,148.0 99.0,149.0 100.0,148.0 C 101.0,149.0 102.0,148.0 103.0,149.0 C 104.0,148.0 105.0,149.0 106.0,148.0 C 107.0,149.0 108.0,148.0 109.0,149.0 Z" fill="rgb(0,0,0)" stroke="none" stroke-width="0.0" /><path d="M 137.0,147.0 C 137.0,148.0 136.0,149.0 137.0,150.0 C 136.0,151.0 136.0,152.0 137.0,153.0 C 139.0,153.0 140.0,152.0 141.0,152.0 C 140.0,151.0 140.0,150.0 137.0,150.0 Z" fill="rgb(0,0,0)" stroke="none" stroke-width="0.0" /><path d="M 124.0,147.0 C 123.0,148.0 117.0,148.0 116.0,149.0 C 115.0,149.0 116.0,149.0 117.0,148.0 C 119.0,150.0 118.0,149.0 119.0,148.0 C 121.0,148.0 122.0,149.0 127.0,149.0 Z" fill="rgb(0,0,0)" stroke="none" stroke-width="0.0" /><path d="M 134.0,130.0 C 133.0,131.0 132.0,131.0 132.0,133.0 C 133.0,134.0 135.0,134.0 135.0,132.0 Z" fill="rgb(0,0,0)" stroke="none" stroke-width="0.0" /><path d="M 63.0,120.0 C 61.0,122.0 62.0,122.0 63.0,121.0 C 64.0,122.0 64.0,123.0 65.0,123.0 C 65.0,122.0 66.0,121.0 67.0,122.0 Z" fill="rgb(0,0,0)" stroke="none" stroke-width="0.0" /><path d="M 131.0,118.0 C 130.0,119.0 130.0,120.0 129.0,121.0 C 129.0,126.0 130.0,125.0 130.0,123.0 C 131.0,122.0 131.0,121.0 130.0,120.0 Z" fill="rgb(0,0,0)" stroke="none" stroke-width="0.0" /><path d="M 89.0,117.0 C 88.0,118.0 88.0,119.0 87.0,120.0 C 88.0,121.0 88.0,122.0 92.0,122.0 C 93.0,121.0 94.0,122.0 94.0,121.0 C 93.0,121.0 92.0,120.0 92.0,119.0 Z" fill="rgb(0,0,0)" stroke="none" stroke-width="0.0" /><path d="M 94.0,111.0 C 93.0,112.0 91.0,112.0 90.0,113.0 C 91.0,114.0 95.0,114.0 96.0,115.0 C 96.0,117.0 97.0,118.0 99.0,118.0 C 100.0,117.0 109.0,117.0 112.0,120.0 C 112.0,122.0 113.0,123.0 111.0,125.0 C 110.0,125.0 109.0,126.0 110.0,127.0 C 110.0,128.0 108.0,130.0 105.0,130.0 C 102.0,133.0 102.0,134.0 103.0,133.0 C 104.0,134.0 107.0,134.0 108.0,133.0 C 110.0,133.0 111.0,132.0 111.0,130.0 C 110.0,129.0 112.0,127.0 113.0,128.0 C 112.0,127.0 113.0,126.0 112.0,125.0 C 114.0,123.0 114.0,120.0 115.0,119.0 C 115.0,118.0 116.0,117.0 116.0,112.0 C 115.0,111.0 114.0,111.0 115.0,112.0 C 115.0,114.0 114.0,115.0 113.0,114.0 C 113.0,113.0 113.0,114.0 112.0,115.0 C 111.0,114.0 108.0,114.0 107.0,113.0 C 108.0,112.0 110.0,112.0 111.0,111.0 C 107.0,111.0 106.0,112.0 105.0,112.0 C 104.0,113.0 101.0,113.0 100.0,114.0 C 96.0,114.0 95.0,113.0 95.0,112.0 Z" fill="rgb(0,0,0)" stroke="none" stroke-width="0.0" /><path d="M 136.0,107.0 C 134.0,109.0 134.0,110.0 135.0,111.0 C 135.0,112.0 136.0,113.0 135.0,114.0 C 135.0,115.0 136.0,115.0 137.0,114.0 C 137.0,112.0 136.0,112.0 135.0,111.0 C 137.0,109.0 136.0,108.0 137.0,107.0 Z" fill="rgb(0,0,0)" stroke="none" stroke-width="0.0" /><path d="M 84.0,96.0 C 84.0,97.0 85.0,97.0 86.0,98.0 C 87.0,97.0 88.0,97.0 89.0,96.0 C 90.0,96.0 89.0,96.0 88.0,97.0 Z" fill="rgb(0,0,0)" stroke="none" stroke-width="0.0" /><path d="M 96.0,48.0 C 96.0,50.0 94.0,52.0 80.0,52.0 C 80.0,55.0 79.0,56.0 72.0,56.0 C 72.0,62.0 71.0,63.0 64.0,63.0 C 63.0,64.0 63.0,65.0 62.0,66.0 C 62.0,67.0 61.0,68.0 60.0,68.0 C 58.0,70.0 58.0,72.0 57.0,73.0 C 63.0,73.0 64.0,74.0 63.0,75.0 C 56.0,75.0 56.0,78.0 143.0,78.0 C 143.0,76.0 79.0,76.0 80.0,77.0 C 79.0,78.0 65.0,78.0 64.0,77.0 C 64.0,76.0 63.0,75.0 64.0,74.0 C 143.0,74.0 143.0,73.0 64.0,73.0 C 63.0,72.0 64.0,71.0 143.0,71.0 C 143.0,70.0 144.0,69.0 147.0,69.0 C 147.0,68.0 146.0,68.0 145.0,67.0 C 145.0,66.0 144.0,65.0 144.0,64.0 C 136.0,64.0 135.0,63.0 135.0,56.0 C 128.0,56.0 127.0,55.0 127.0,53.0 C 126.0,52.0 112.0,52.0 111.0,51.0 Z" fill="rgb(0,0,0)" stroke="none" stroke-width="0.0" /><path d="M 209.0,74.0 C 208.0,75.0 208.0,79.0 209.0,80.0 Z" fill="rgb(0,0,0)" stroke="none" stroke-width="0.0" /><path d="M 138.0,135.0 C 137.0,136.0 138.0,137.0 138.0,140.0 C 139.0,141.0 139.0,142.0 138.0,143.0 C 138.0,144.0 135.0,147.0 134.0,147.0 C 135.0,147.0 138.0,144.0 139.0,145.0 C 140.0,145.0 142.0,147.0 142.0,148.0 C 143.0,148.0 144.0,149.0 144.0,150.0 C 144.0,149.0 146.0,147.0 148.0,149.0 C 148.0,150.0 149.0,150.0 148.0,149.0 C 148.0,148.0 149.0,147.0 150.0,148.0 C 151.0,147.0 152.0,148.0 153.0,147.0 C 155.0,147.0 156.0,148.0 156.0,147.0 C 157.0,146.0 156.0,146.0 155.0,145.0 C 156.0,144.0 157.0,144.0 158.0,143.0 C 158.0,142.0 159.0,141.0 157.0,141.0 C 157.0,143.0 155.0,145.0 155.0,146.0 C 154.0,147.0 153.0,147.0 151.0,145.0 C 152.0,144.0 151.0,143.0 151.0,142.0 C 152.0,141.0 151.0,140.0 151.0,139.0 C 149.0,137.0 150.0,138.0 150.0,141.0 C 151.0,142.0 149.0,144.0 150.0,145.0 C 150.0,146.0 149.0,147.0 148.0,146.0 C 147.0,146.0 146.0,147.0 144.0,147.0 C 143.0,148.0 140.0,145.0 140.0,143.0 C 139.0,142.0 139.0,141.0 141.0,139.0 C 141.0,138.0 140.0,138.0 139.0,137.0 Z" fill="rgb(0,0,0)" stroke="none" stroke-width="0.0" /><path d="M 130.0,134.0 C 130.0,135.0 129.0,136.0 128.0,136.0 C 128.0,138.0 127.0,139.0 128.0,139.0 C 128.0,138.0 130.0,136.0 131.0,136.0 Z" fill="rgb(0,0,0)" stroke="none" stroke-width="0.0" /><path d="M 111.0,134.0 C 110.0,135.0 106.0,135.0 118.0,135.0 C 119.0,134.0 117.0,134.0 116.0,135.0 C 115.0,134.0 114.0,135.0 113.0,134.0 Z" fill="rgb(0,0,0)" stroke="none" stroke-width="0.0" /><path d="M 75.0,128.0 C 74.0,129.0 77.0,132.0 76.0,133.0 C 79.0,133.0 80.0,134.0 79.0,135.0 C 77.0,135.0 80.0,135.0 81.0,134.0 C 82.0,134.0 83.0,133.0 82.0,134.0 C 81.0,133.0 78.0,133.0 76.0,131.0 C 76.0,130.0 75.0,129.0 76.0,128.0 Z" fill="rgb(0,0,0)" stroke="none" stroke-width="0.0" /><path d="M 132.0,110.0 C 131.0,111.0 132.0,112.0 132.0,113.0 C 131.0,114.0 131.0,115.0 130.0,116.0 C 130.0,117.0 131.0,116.0 132.0,116.0 Z" fill="rgb(0,0,0)" stroke="none" stroke-width="0.0" /><path d="M 50.0,110.0 C 50.0,111.0 49.0,112.0 50.0,113.0 C 50.0,114.0 49.0,115.0 48.0,115.0 C 49.0,115.0 50.0,116.0 49.0,117.0 C 48.0,117.0 48.0,119.0 46.0,121.0 C 46.0,125.0 45.0,126.0 46.0,127.0 C 45.0,128.0 44.0,128.0 43.0,129.0 C 44.0,130.0 44.0,131.0 41.0,134.0 C 32.0,134.0 31.0,135.0 30.0,135.0 C 29.0,134.0 29.0,135.0 43.0,135.0 C 45.0,133.0 46.0,134.0 46.0,135.0 C 49.0,135.0 50.0,134.0 52.0,134.0 C 53.0,135.0 69.0,135.0 70.0,134.0 C 70.0,133.0 71.0,132.0 70.0,131.0 C 71.0,132.0 70.0,133.0 70.0,134.0 C 69.0,135.0 68.0,135.0 67.0,134.0 C 46.0,134.0 44.0,132.0 45.0,131.0 C 45.0,130.0 46.0,129.0 46.0,128.0 C 47.0,127.0 47.0,125.0 48.0,124.0 C 48.0,121.0 49.0,120.0 50.0,120.0 C 49.0,119.0 51.0,117.0 50.0,116.0 C 52.0,114.0 52.0,112.0 51.0,112.0 Z" fill="rgb(0,0,0)" stroke="none" stroke-width="0.0" /><path d="M 75.0,109.0 C 74.0,110.0 73.0,110.0 75.0,112.0 C 74.0,113.0 75.0,114.0 74.0,115.0 C 74.0,116.0 73.0,117.0 73.0,118.0 C 71.0,120.0 69.0,120.0 69.0,121.0 C 68.0,122.0 68.0,123.0 67.0,124.0 C 65.0,124.0 64.0,125.0 63.0,124.0 C 61.0,124.0 59.0,122.0 60.0,121.0 C 59.0,122.0 59.0,123.0 60.0,124.0 C 61.0,124.0 62.0,125.0 65.0,125.0 C 66.0,124.0 68.0,124.0 68.0,122.0 C 70.0,120.0 73.0,120.0 73.0,118.0 C 75.0,116.0 75.0,114.0 76.0,113.0 C 75.0,112.0 76.0,111.0 77.0,111.0 Z" fill="rgb(0,0,0)" stroke="none" stroke-width="0.0" /><path d="M 194.0,106.0 C 195.0,107.0 193.0,109.0 194.0,110.0 C 193.0,111.0 198.0,111.0 199.0,110.0 C 200.0,111.0 201.0,111.0 200.0,111.0 C 199.0,110.0 201.0,108.0 201.0,107.0 C 200.0,106.0 197.0,106.0 196.0,107.0 Z" fill="rgb(0,0,0)" stroke="none" stroke-width="0.0" /><path d="M 55.0,100.0 C 53.0,102.0 53.0,103.0 52.0,104.0 C 52.0,106.0 53.0,107.0 55.0,105.0 C 54.0,105.0 53.0,104.0 53.0,103.0 C 54.0,102.0 55.0,103.0 56.0,102.0 Z" fill="rgb(0,0,0)" stroke="none" stroke-width="0.0" /><path d="M 144.0,96.0 C 146.0,96.0 147.0,97.0 147.0,99.0 C 148.0,100.0 148.0,101.0 147.0,102.0 C 146.0,102.0 145.0,103.0 143.0,103.0 C 143.0,106.0 142.0,107.0 141.0,106.0 C 141.0,105.0 140.0,105.0 140.0,108.0 C 139.0,109.0 140.0,110.0 139.0,111.0 C 139.0,112.0 139.0,111.0 140.0,110.0 C 141.0,110.0 140.0,109.0 140.0,107.0 C 141.0,106.0 142.0,107.0 143.0,107.0 C 143.0,105.0 146.0,102.0 148.0,102.0 C 149.0,101.0 149.0,100.0 150.0,99.0 C 149.0,100.0 148.0,100.0 147.0,99.0 C 147.0,97.0 148.0,96.0 147.0,97.0 Z" fill="rgb(0,0,0)" stroke="none" stroke-width="0.0" /><path d="M 6.0,83.0 C 6.0,84.0 4.0,86.0 3.0,86.0 C 4.0,87.0 4.0,89.0 3.0,90.0 C 3.0,95.0 1.0,97.0 2.0,98.0 C 2.0,102.0 1.0,103.0 2.0,104.0 C 2.0,109.0 1.0,110.0 0.0,109.0 C 0.0,108.0 0.0,116.0 1.0,116.0 C 2.0,117.0 2.0,119.0 1.0,120.0 C 2.0,121.0 2.0,124.0 3.0,125.0 C 3.0,127.0 4.0,128.0 3.0,129.0 C 3.0,132.0 4.0,133.0 4.0,136.0 C 5.0,137.0 5.0,141.0 4.0,142.0 C 5.0,141.0 7.0,143.0 7.0,144.0 C 6.0,145.0 7.0,146.0 7.0,147.0 C 8.0,148.0 8.0,150.0 10.0,152.0 C 8.0,154.0 9.0,153.0 10.0,154.0 C 10.0,155.0 11.0,156.0 11.0,157.0 C 12.0,158.0 12.0,159.0 14.0,161.0 C 13.0,162.0 14.0,163.0 14.0,164.0 C 15.0,165.0 15.0,166.0 16.0,167.0 C 16.0,168.0 18.0,170.0 18.0,171.0 C 19.0,172.0 20.0,171.0 21.0,172.0 C 21.0,173.0 23.0,175.0 22.0,176.0 C 23.0,177.0 23.0,178.0 24.0,179.0 C 25.0,179.0 27.0,181.0 27.0,182.0 C 29.0,184.0 28.0,185.0 29.0,184.0 C 30.0,185.0 30.0,186.0 35.0,191.0 C 36.0,191.0 38.0,193.0 38.0,194.0 C 39.0,195.0 40.0,194.0 43.0,197.0 C 43.0,198.0 46.0,201.0 47.0,200.0 C 48.0,201.0 48.0,202.0 51.0,202.0 C 52.0,203.0 52.0,205.0 51.0,206.0 C 52.0,205.0 53.0,205.0 55.0,207.0 C 58.0,207.0 59.0,208.0 59.0,209.0 C 60.0,210.0 61.0,210.0 62.0,211.0 C 63.0,210.0 65.0,212.0 66.0,212.0 C 67.0,213.0 68.0,213.0 69.0,214.0 C 70.0,214.0 71.0,213.0 73.0,215.0 C 75.0,215.0 76.0,216.0 76.0,217.0 C 77.0,216.0 78.0,216.0 80.0,218.0 C 81.0,217.0 82.0,217.0 83.0,218.0 C 82.0,219.0 83.0,219.0 84.0,218.0 C 85.0,218.0 86.0,219.0 86.0,220.0 C 87.0,220.0 88.0,219.0 90.0,219.0 C 91.0,220.0 91.0,221.0 95.0,221.0 C 96.0,222.0 96.0,223.0 97.0,223.0 C 98.0,222.0 103.0,222.0 104.0,223.0 C 107.0,223.0 108.0,224.0 116.0,224.0 C 117.0,223.0 119.0,223.0 120.0,222.0 C 125.0,222.0 126.0,223.0 128.0,223.0 C 128.0,222.0 129.0,221.0 131.0,221.0 C 132.0,220.0 136.0,220.0 137.0,219.0 C 139.0,219.0 139.0,218.0 140.0,217.0 C 141.0,218.0 141.0,219.0 142.0,220.0 C 142.0,218.0 143.0,217.0 144.0,217.0 C 145.0,218.0 146.0,217.0 147.0,217.0 C 149.0,215.0 150.0,215.0 151.0,214.0 C 152.0,214.0 154.0,216.0 152.0,214.0 C 153.0,213.0 154.0,213.0 155.0,214.0 C 154.0,213.0 155.0,212.0 159.0,212.0 C 160.0,211.0 162.0,211.0 163.0,210.0 C 164.0,210.0 164.0,209.0 166.0,207.0 C 169.0,207.0 170.0,208.0 169.0,207.0 C 170.0,206.0 169.0,205.0 170.0,204.0 C 171.0,204.0 173.0,206.0 172.0,205.0 C 172.0,204.0 173.0,203.0 175.0,203.0 C 176.0,204.0 175.0,203.0 176.0,202.0 C 176.0,201.0 177.0,200.0 178.0,201.0 C 179.0,200.0 180.0,200.0 180.0,199.0 C 184.0,195.0 185.0,196.0 186.0,195.0 C 185.0,194.0 187.0,192.0 188.0,192.0 C 189.0,191.0 190.0,191.0 191.0,190.0 C 191.0,189.0 193.0,187.0 194.0,187.0 C 196.0,185.0 195.0,184.0 202.0,177.0 C 202.0,176.0 203.0,175.0 202.0,176.0 C 201.0,175.0 201.0,174.0 202.0,173.0 C 204.0,173.0 205.0,172.0 206.0,173.0 C 203.0,170.0 203.0,169.0 204.0,168.0 C 206.0,170.0 207.0,169.0 207.0,165.0 C 208.0,164.0 209.0,165.0 210.0,164.0 C 210.0,163.0 211.0,162.0 210.0,161.0 C 211.0,162.0 209.0,164.0 208.0,163.0 C 208.0,160.0 209.0,159.0 209.0,158.0 C 210.0,157.0 212.0,159.0 212.0,160.0 C 212.0,159.0 213.0,158.0 213.0,157.0 C 214.0,156.0 214.0,155.0 213.0,154.0 C 213.0,153.0 214.0,152.0 216.0,154.0 C 214.0,152.0 216.0,150.0 216.0,149.0 C 217.0,148.0 217.0,146.0 218.0,145.0 C 219.0,145.0 218.0,144.0 218.0,142.0 C 219.0,141.0 220.0,142.0 219.0,141.0 C 219.0,136.0 220.0,135.0 220.0,132.0 C 221.0,131.0 221.0,129.0 223.0,127.0 C 222.0,126.0 222.0,120.0 223.0,119.0 C 223.0,117.0 224.0,116.0 224.0,108.0 C 223.0,107.0 223.0,104.0 222.0,103.0 C 222.0,98.0 223.0,97.0 223.0,96.0 C 223.0,97.0 222.0,98.0 221.0,97.0 C 221.0,91.0 220.0,90.0 220.0,89.0 C 219.0,88.0 218.0,88.0 217.0,89.0 C 217.0,90.0 216.0,91.0 215.0,91.0 C 214.0,90.0 213.0,91.0 213.0,92.0 C 212.0,93.0 211.0,92.0 210.0,93.0 C 209.0,93.0 208.0,94.0 207.0,94.0 C 206.0,95.0 204.0,95.0 203.0,94.0 C 202.0,94.0 201.0,95.0 200.0,94.0 C 161.0,94.0 160.0,95.0 157.0,95.0 C 156.0,96.0 155.0,96.0 156.0,96.0 C 157.0,97.0 159.0,95.0 160.0,95.0 C 161.0,96.0 162.0,96.0 163.0,95.0 C 165.0,95.0 166.0,96.0 167.0,96.0 C 168.0,95.0 169.0,95.0 171.0,97.0 C 171.0,96.0 172.0,95.0 174.0,95.0 C 175.0,96.0 175.0,98.0 177.0,100.0 C 176.0,101.0 177.0,100.0 178.0,101.0 C 178.0,102.0 177.0,103.0 179.0,105.0 C 178.0,106.0 179.0,107.0 179.0,108.0 C 181.0,108.0 182.0,109.0 181.0,108.0 C 181.0,107.0 180.0,106.0 182.0,104.0 C 182.0,103.0 183.0,102.0 184.0,103.0 C 184.0,104.0 185.0,104.0 184.0,103.0 C 184.0,102.0 185.0,101.0 186.0,101.0 C 186.0,99.0 187.0,98.0 187.0,97.0 C 188.0,96.0 190.0,96.0 191.0,95.0 C 205.0,95.0 206.0,96.0 206.0,97.0 C 206.0,96.0 207.0,95.0 208.0,96.0 C 209.0,95.0 210.0,96.0 210.0,97.0 C 209.0,98.0 210.0,97.0 212.0,99.0 C 213.0,99.0 215.0,101.0 214.0,102.0 C 214.0,103.0 216.0,103.0 217.0,104.0 C 217.0,107.0 216.0,108.0 215.0,107.0 C 215.0,106.0 214.0,105.0 214.0,106.0 C 216.0,108.0 216.0,109.0 215.0,110.0 C 214.0,109.0 213.0,110.0 212.0,109.0 C 213.0,110.0 213.0,111.0 212.0,112.0 C 211.0,111.0 212.0,112.0 209.0,115.0 C 208.0,115.0 209.0,115.0 210.0,116.0 C 209.0,117.0 208.0,117.0 207.0,118.0 C 208.0,118.0 209.0,119.0 208.0,120.0 C 206.0,120.0 205.0,119.0 204.0,120.0 C 203.0,120.0 203.0,123.0 202.0,124.0 C 203.0,124.0 205.0,126.0 205.0,130.0 C 205.0,129.0 206.0,128.0 207.0,129.0 C 207.0,130.0 208.0,131.0 207.0,132.0 C 206.0,132.0 206.0,133.0 204.0,135.0 C 203.0,134.0 202.0,135.0 201.0,135.0 C 205.0,135.0 206.0,136.0 205.0,137.0 C 206.0,137.0 207.0,136.0 208.0,137.0 C 208.0,138.0 207.0,139.0 206.0,139.0 C 205.0,140.0 204.0,139.0 205.0,140.0 C 205.0,141.0 206.0,142.0 203.0,145.0 C 204.0,146.0 203.0,147.0 199.0,147.0 C 198.0,148.0 195.0,145.0 196.0,144.0 C 195.0,143.0 195.0,142.0 197.0,140.0 C 197.0,139.0 196.0,138.0 197.0,137.0 C 198.0,137.0 197.0,136.0 198.0,135.0 C 199.0,135.0 198.0,134.0 197.0,134.0 C 196.0,135.0 195.0,135.0 194.0,134.0 C 193.0,134.0 192.0,133.0 192.0,130.0 C 191.0,129.0 191.0,128.0 190.0,127.0 C 190.0,123.0 189.0,124.0 189.0,125.0 C 187.0,127.0 188.0,128.0 187.0,129.0 C 186.0,129.0 187.0,129.0 188.0,130.0 C 187.0,131.0 186.0,131.0 185.0,132.0 C 186.0,133.0 185.0,134.0 184.0,134.0 C 183.0,135.0 182.0,134.0 180.0,134.0 C 179.0,135.0 178.0,134.0 172.0,134.0 C 171.0,135.0 170.0,135.0 169.0,136.0 C 168.0,136.0 167.0,137.0 166.0,136.0 C 165.0,136.0 164.0,135.0 165.0,134.0 C 166.0,134.0 170.0,130.0 170.0,129.0 C 171.0,128.0 172.0,128.0 173.0,129.0 C 174.0,129.0 175.0,130.0 175.0,129.0 C 177.0,127.0 176.0,126.0 176.0,125.0 C 177.0,124.0 177.0,122.0 178.0,121.0 C 179.0,121.0 178.0,120.0 180.0,118.0 C 180.0,116.0 179.0,115.0 181.0,113.0 C 182.0,113.0 181.0,112.0 182.0,111.0 C 180.0,111.0 181.0,112.0 180.0,113.0 C 179.0,113.0 180.0,114.0 178.0,116.0 C 179.0,117.0 177.0,119.0 176.0,118.0 C 175.0,119.0 176.0,120.0 176.0,121.0 C 175.0,122.0 173.0,122.0 173.0,123.0 C 174.0,124.0 173.0,125.0 172.0,125.0 C 169.0,128.0 169.0,129.0 168.0,130.0 C 165.0,130.0 165.0,131.0 164.0,132.0 C 161.0,132.0 160.0,133.0 158.0,133.0 C 156.0,135.0 155.0,135.0 154.0,134.0 C 153.0,134.0 152.0,135.0 149.0,135.0 C 148.0,134.0 147.0,134.0 146.0,135.0 C 144.0,133.0 143.0,133.0 144.0,133.0 C 146.0,135.0 152.0,135.0 153.0,136.0 C 154.0,135.0 155.0,136.0 156.0,135.0 C 159.0,138.0 158.0,137.0 158.0,136.0 C 159.0,135.0 160.0,136.0 161.0,135.0 C 162.0,135.0 162.0,133.0 163.0,132.0 C 166.0,132.0 167.0,133.0 166.0,134.0 C 164.0,134.0 164.0,135.0 165.0,136.0 C 166.0,136.0 167.0,137.0 167.0,139.0 C 166.0,140.0 166.0,142.0 167.0,143.0 C 165.0,145.0 165.0,146.0 164.0,147.0 C 160.0,147.0 160.0,149.0 159.0,150.0 C 160.0,149.0 161.0,149.0 163.0,151.0 C 162.0,152.0 158.0,152.0 157.0,151.0 C 155.0,151.0 154.0,152.0 152.0,150.0 C 150.0,152.0 143.0,152.0 142.0,151.0 C 143.0,152.0 143.0,153.0 142.0,154.0 C 129.0,154.0 127.0,152.0 124.0,152.0 C 123.0,153.0 121.0,151.0 120.0,152.0 C 119.0,152.0 118.0,151.0 118.0,152.0 C 117.0,153.0 112.0,153.0 120.0,153.0 C 121.0,154.0 126.0,154.0 127.0,155.0 C 127.0,156.0 126.0,157.0 123.0,157.0 C 122.0,158.0 122.0,159.0 121.0,160.0 C 118.0,160.0 117.0,161.0 112.0,161.0 C 110.0,159.0 110.0,158.0 111.0,157.0 C 110.0,156.0 49.0,156.0 47.0,154.0 C 48.0,153.0 75.0,153.0 70.0,153.0 C 69.0,152.0 64.0,152.0 63.0,153.0 C 59.0,153.0 58.0,152.0 57.0,152.0 C 56.0,151.0 55.0,152.0 51.0,152.0 C 50.0,151.0 48.0,151.0 47.0,150.0 C 48.0,149.0 55.0,149.0 56.0,148.0 C 48.0,148.0 47.0,149.0 40.0,149.0 C 39.0,148.0 33.0,148.0 32.0,147.0 C 22.0,147.0 21.0,146.0 21.0,145.0 C 20.0,144.0 23.0,141.0 29.0,141.0 C 23.0,141.0 21.0,139.0 22.0,138.0 C 23.0,138.0 23.0,136.0 24.0,135.0 C 26.0,135.0 25.0,134.0 24.0,134.0 C 23.0,133.0 23.0,131.0 22.0,130.0 C 22.0,128.0 21.0,127.0 22.0,126.0 C 20.0,124.0 21.0,123.0 20.0,123.0 C 19.0,122.0 19.0,121.0 20.0,120.0 C 18.0,118.0 19.0,117.0 18.0,117.0 C 17.0,116.0 17.0,114.0 16.0,113.0 C 16.0,111.0 15.0,110.0 16.0,109.0 C 15.0,109.0 14.0,108.0 14.0,107.0 C 15.0,106.0 14.0,106.0 13.0,105.0 C 13.0,104.0 14.0,103.0 13.0,104.0 C 12.0,103.0 12.0,101.0 13.0,100.0 C 12.0,101.0 11.0,100.0 11.0,98.0 C 10.0,97.0 10.0,95.0 9.0,94.0 C 9.0,93.0 10.0,92.0 9.0,92.0 C 8.0,91.0 8.0,90.0 9.0,89.0 C 8.0,89.0 7.0,88.0 7.0,87.0 C 8.0,86.0 6.0,86.0 5.0,85.0 Z" fill="rgb(0,0,0)" stroke="none" stroke-width="0.0" /><path d="M 108.0,0.0 C 109.0,1.0 108.0,2.0 104.0,2.0 C 103.0,1.0 102.0,2.0 98.0,2.0 C 97.0,1.0 96.0,1.0 96.0,2.0 C 95.0,3.0 92.0,3.0 91.0,4.0 C 87.0,4.0 86.0,3.0 86.0,4.0 C 85.0,5.0 83.0,5.0 82.0,4.0 C 82.0,5.0 81.0,6.0 78.0,6.0 C 77.0,7.0 76.0,7.0 75.0,8.0 C 74.0,8.0 73.0,7.0 70.0,10.0 C 69.0,10.0 68.0,9.0 68.0,10.0 C 67.0,11.0 66.0,11.0 65.0,12.0 C 64.0,12.0 63.0,13.0 62.0,13.0 C 61.0,14.0 60.0,14.0 59.0,15.0 C 58.0,15.0 57.0,16.0 56.0,16.0 C 54.0,18.0 53.0,18.0 52.0,19.0 C 51.0,18.0 52.0,19.0 52.0,20.0 C 51.0,21.0 49.0,21.0 48.0,20.0 C 49.0,21.0 48.0,22.0 47.0,22.0 C 45.0,24.0 44.0,23.0 45.0,24.0 C 43.0,26.0 42.0,26.0 40.0,28.0 C 39.0,27.0 38.0,28.0 38.0,29.0 C 34.0,33.0 34.0,34.0 33.0,35.0 C 32.0,35.0 31.0,36.0 31.0,37.0 C 30.0,38.0 29.0,38.0 28.0,39.0 C 28.0,40.0 26.0,42.0 26.0,43.0 C 24.0,45.0 23.0,44.0 24.0,45.0 C 21.0,48.0 21.0,49.0 20.0,50.0 C 20.0,51.0 17.0,54.0 17.0,55.0 C 16.0,56.0 16.0,58.0 14.0,60.0 C 15.0,60.0 16.0,61.0 16.0,64.0 C 17.0,65.0 17.0,66.0 18.0,67.0 C 18.0,69.0 19.0,70.0 19.0,73.0 C 20.0,74.0 20.0,75.0 21.0,76.0 C 21.0,77.0 20.0,78.0 22.0,80.0 C 22.0,82.0 23.0,83.0 23.0,85.0 C 24.0,86.0 24.0,88.0 25.0,89.0 C 25.0,91.0 26.0,92.0 26.0,94.0 C 27.0,95.0 27.0,97.0 28.0,98.0 C 28.0,100.0 29.0,101.0 28.0,102.0 C 28.0,103.0 29.0,103.0 30.0,104.0 C 29.0,105.0 31.0,107.0 31.0,108.0 C 30.0,109.0 32.0,111.0 31.0,112.0 C 33.0,114.0 32.0,115.0 33.0,115.0 C 34.0,116.0 33.0,115.0 34.0,114.0 C 34.0,113.0 35.0,112.0 35.0,108.0 C 36.0,107.0 37.0,107.0 36.0,106.0 C 36.0,105.0 37.0,104.0 37.0,102.0 C 38.0,101.0 38.0,100.0 37.0,99.0 C 35.0,101.0 34.0,100.0 33.0,100.0 C 32.0,99.0 34.0,97.0 33.0,96.0 C 34.0,95.0 36.0,95.0 35.0,94.0 C 35.0,92.0 36.0,91.0 36.0,89.0 C 37.0,88.0 36.0,87.0 36.0,85.0 C 37.0,84.0 38.0,85.0 38.0,86.0 C 39.0,87.0 39.0,89.0 40.0,90.0 C 40.0,92.0 40.0,91.0 41.0,90.0 C 41.0,89.0 42.0,88.0 42.0,87.0 C 43.0,86.0 44.0,86.0 43.0,85.0 C 44.0,84.0 43.0,83.0 42.0,84.0 C 43.0,85.0 43.0,86.0 41.0,88.0 C 39.0,86.0 39.0,79.0 40.0,78.0 C 43.0,78.0 45.0,80.0 45.0,82.0 C 46.0,83.0 47.0,82.0 46.0,83.0 C 45.0,82.0 45.0,80.0 46.0,79.0 C 47.0,80.0 48.0,80.0 49.0,79.0 C 49.0,78.0 50.0,77.0 53.0,77.0 C 52.0,76.0 52.0,75.0 50.0,75.0 C 49.0,74.0 50.0,73.0 51.0,73.0 C 52.0,72.0 53.0,72.0 54.0,71.0 C 56.0,71.0 57.0,70.0 57.0,64.0 C 58.0,63.0 57.0,62.0 58.0,61.0 C 59.0,61.0 59.0,60.0 60.0,59.0 C 61.0,59.0 61.0,58.0 62.0,57.0 C 63.0,57.0 64.0,58.0 64.0,62.0 C 65.0,62.0 66.0,61.0 67.0,61.0 C 67.0,60.0 76.0,51.0 77.0,51.0 C 77.0,50.0 78.0,49.0 79.0,49.0 C 79.0,48.0 73.0,48.0 71.0,46.0 C 71.0,45.0 77.0,39.0 79.0,39.0 C 80.0,40.0 80.0,43.0 127.0,43.0 C 127.0,38.0 128.0,37.0 131.0,37.0 C 132.0,38.0 132.0,41.0 133.0,41.0 C 134.0,42.0 134.0,43.0 135.0,43.0 C 136.0,44.0 136.0,46.0 134.0,48.0 C 128.0,48.0 128.0,55.0 143.0,55.0 C 144.0,56.0 144.0,57.0 145.0,57.0 C 146.0,58.0 146.0,59.0 147.0,59.0 C 148.0,60.0 148.0,61.0 149.0,61.0 C 150.0,62.0 150.0,63.0 158.0,63.0 C 160.0,65.0 160.0,68.0 158.0,70.0 C 150.0,70.0 150.0,71.0 155.0,71.0 C 156.0,72.0 155.0,73.0 150.0,73.0 C 159.0,73.0 160.0,74.0 159.0,75.0 C 154.0,75.0 155.0,75.0 156.0,76.0 C 156.0,77.0 157.0,77.0 158.0,78.0 C 201.0,78.0 202.0,79.0 202.0,80.0 C 204.0,78.0 207.0,78.0 207.0,77.0 C 206.0,76.0 206.0,74.0 207.0,73.0 C 208.0,74.0 209.0,73.0 210.0,74.0 C 210.0,80.0 211.0,79.0 212.0,80.0 C 212.0,81.0 211.0,82.0 212.0,81.0 C 213.0,81.0 216.0,84.0 216.0,85.0 C 216.0,84.0 217.0,83.0 218.0,84.0 C 218.0,86.0 219.0,86.0 218.0,85.0 C 219.0,84.0 218.0,84.0 217.0,83.0 C 218.0,82.0 217.0,81.0 218.0,80.0 C 217.0,79.0 217.0,78.0 216.0,77.0 C 216.0,75.0 215.0,74.0 215.0,71.0 C 214.0,70.0 214.0,69.0 213.0,68.0 C 213.0,66.0 212.0,65.0 212.0,64.0 C 211.0,64.0 210.0,63.0 211.0,62.0 C 210.0,61.0 210.0,60.0 209.0,59.0 C 209.0,58.0 208.0,57.0 208.0,56.0 C 205.0,53.0 205.0,52.0 206.0,51.0 C 205.0,52.0 204.0,52.0 203.0,51.0 C 203.0,52.0 202.0,53.0 201.0,52.0 C 201.0,50.0 202.0,49.0 202.0,47.0 C 200.0,45.0 201.0,44.0 200.0,45.0 C 195.0,40.0 194.0,40.0 193.0,39.0 C 194.0,38.0 195.0,38.0 193.0,38.0 C 192.0,37.0 191.0,37.0 190.0,36.0 C 191.0,35.0 185.0,29.0 184.0,29.0 C 183.0,28.0 183.0,27.0 182.0,27.0 C 181.0,26.0 180.0,26.0 179.0,25.0 C 179.0,24.0 178.0,23.0 177.0,23.0 C 176.0,22.0 175.0,22.0 174.0,21.0 C 173.0,21.0 172.0,20.0 172.0,19.0 C 170.0,17.0 170.0,16.0 169.0,17.0 C 168.0,16.0 167.0,16.0 166.0,15.0 C 165.0,15.0 164.0,14.0 163.0,14.0 C 162.0,13.0 160.0,15.0 159.0,15.0 C 158.0,14.0 158.0,13.0 159.0,12.0 C 160.0,12.0 159.0,12.0 158.0,13.0 C 157.0,12.0 157.0,11.0 158.0,10.0 C 157.0,11.0 156.0,10.0 155.0,10.0 C 154.0,11.0 153.0,11.0 152.0,10.0 C 154.0,8.0 152.0,10.0 151.0,9.0 C 151.0,8.0 148.0,8.0 147.0,7.0 C 146.0,7.0 145.0,6.0 143.0,6.0 C 142.0,5.0 142.0,4.0 141.0,5.0 C 138.0,5.0 137.0,4.0 138.0,3.0 C 137.0,4.0 133.0,4.0 132.0,3.0 C 128.0,3.0 127.0,2.0 127.0,1.0 C 126.0,1.0 125.0,2.0 121.0,2.0 C 120.0,1.0 117.0,1.0 116.0,0.0 Z" fill="rgb(0,0,0)" stroke="none" stroke-width="0.0" /><path d="M 80.0,153.0 C 79.0,154.0 48.0,154.0 49.0,155.0 C 110.0,155.0 111.0,156.0 112.0,156.0 C 113.0,155.0 114.0,156.0 117.0,156.0 C 118.0,157.0 122.0,157.0 123.0,156.0 C 126.0,156.0 126.0,155.0 121.0,155.0 C 120.0,154.0 112.0,154.0 111.0,153.0 Z" fill="rgb(0,0,0)" stroke="none" stroke-width="0.0" /><path d="M 127.0,146.0 C 129.0,148.0 126.0,151.0 128.0,151.0 C 130.0,149.0 131.0,150.0 131.0,151.0 Z" fill="rgb(0,0,0)" stroke="none" stroke-width="0.0" /><path d="M 171.0,129.0 C 171.0,131.0 172.0,132.0 170.0,134.0 C 171.0,134.0 172.0,133.0 173.0,133.0 Z" fill="rgb(0,0,0)" stroke="none" stroke-width="0.0" /><path d="M 112.0,111.0 C 110.0,113.0 108.0,113.0 111.0,113.0 C 112.0,114.0 112.0,113.0 113.0,112.0 C 114.0,113.0 114.0,114.0 114.0,112.0 Z" fill="rgb(0,0,0)" stroke="none" stroke-width="0.0" /><path d="M 98.0,107.0 C 98.0,108.0 97.0,109.0 96.0,108.0 C 95.0,108.0 96.0,109.0 95.0,110.0 C 94.0,110.0 93.0,111.0 92.0,110.0 C 92.0,111.0 93.0,111.0 94.0,110.0 C 96.0,112.0 96.0,113.0 100.0,113.0 C 101.0,112.0 104.0,112.0 103.0,111.0 C 102.0,112.0 101.0,112.0 100.0,111.0 C 99.0,112.0 97.0,112.0 96.0,111.0 C 96.0,110.0 97.0,109.0 98.0,109.0 C 99.0,108.0 100.0,108.0 99.0,108.0 Z" fill="rgb(0,0,0)" stroke="none" stroke-width="0.0" /><path d="M 35.0,96.0 C 35.0,97.0 34.0,98.0 34.0,99.0 C 35.0,100.0 37.0,98.0 38.0,99.0 C 38.0,98.0 37.0,97.0 37.0,96.0 Z" fill="rgb(0,0,0)" stroke="none" stroke-width="0.0" /><path d="M 41.0,81.0 C 40.0,82.0 40.0,83.0 41.0,84.0 C 41.0,85.0 40.0,86.0 41.0,85.0 C 42.0,86.0 42.0,85.0 41.0,84.0 C 44.0,81.0 43.0,81.0 42.0,82.0 Z" fill="rgb(0,0,0)" stroke="none" stroke-width="0.0" /><path d="M 145.0,64.0 C 145.0,65.0 146.0,66.0 146.0,67.0 C 147.0,67.0 148.0,68.0 148.0,69.0 C 158.0,69.0 159.0,68.0 159.0,65.0 Z" fill="rgb(0,0,0)" stroke="none" stroke-width="0.0" /><path d="M 58.0,64.0 C 58.0,69.0 60.0,67.0 61.0,67.0 C 61.0,66.0 62.0,65.0 62.0,64.0 Z" fill="rgb(0,0,0)" stroke="none" stroke-width="0.0" /><path d="M 112.0,48.0 C 112.0,51.0 126.0,51.0 127.0,52.0 Z" fill="rgb(0,0,0)" stroke="none" stroke-width="0.0" /><path d="M 80.0,48.0 C 80.0,51.0 94.0,51.0 95.0,50.0 Z" fill="rgb(0,0,0)" stroke="none" stroke-width="0.0" /><path d="M 200.0,137.0 C 199.0,138.0 198.0,138.0 198.0,140.0 C 199.0,141.0 200.0,141.0 202.0,143.0 C 200.0,145.0 199.0,144.0 198.0,144.0 C 199.0,144.0 200.0,145.0 201.0,144.0 C 202.0,144.0 202.0,142.0 201.0,141.0 C 200.0,141.0 198.0,139.0 199.0,138.0 C 200.0,138.0 201.0,137.0 202.0,138.0 C 203.0,138.0 202.0,138.0 201.0,137.0 Z" fill="rgb(1,1,1)" stroke="none" stroke-width="0.0" /><path d="M 162.0,137.0 C 162.0,138.0 161.0,139.0 160.0,139.0 C 160.0,140.0 161.0,141.0 162.0,141.0 C 164.0,143.0 164.0,144.0 165.0,143.0 C 164.0,142.0 163.0,142.0 162.0,141.0 C 162.0,140.0 161.0,139.0 162.0,138.0 Z" fill="rgb(1,1,1)" stroke="none" stroke-width="0.0" /><path d="M 224.0,127.0 C 224.0,132.0 223.0,133.0 223.0,137.0 C 222.0,138.0 222.0,141.0 221.0,142.0 C 221.0,144.0 220.0,145.0 220.0,147.0 C 219.0,148.0 219.0,150.0 218.0,151.0 C 218.0,153.0 217.0,154.0 217.0,155.0 C 216.0,156.0 216.0,158.0 215.0,159.0 C 215.0,160.0 214.0,161.0 214.0,162.0 C 213.0,163.0 213.0,164.0 212.0,165.0 C 212.0,166.0 210.0,168.0 210.0,169.0 C 209.0,170.0 209.0,171.0 207.0,173.0 C 207.0,174.0 205.0,176.0 205.0,177.0 C 203.0,179.0 203.0,180.0 198.0,185.0 C 198.0,186.0 186.0,198.0 185.0,198.0 C 181.0,202.0 180.0,202.0 180.0,203.0 C 179.0,204.0 178.0,204.0 177.0,205.0 C 176.0,205.0 174.0,207.0 173.0,207.0 C 171.0,209.0 170.0,209.0 169.0,210.0 C 168.0,210.0 166.0,212.0 165.0,212.0 C 164.0,213.0 163.0,213.0 162.0,214.0 C 161.0,214.0 160.0,215.0 159.0,215.0 C 158.0,216.0 156.0,216.0 155.0,217.0 C 154.0,217.0 153.0,218.0 151.0,218.0 C 150.0,219.0 148.0,219.0 147.0,220.0 C 145.0,220.0 144.0,221.0 142.0,221.0 C 141.0,222.0 138.0,222.0 137.0,223.0 C 134.0,223.0 133.0,224.0 126.0,224.0 Z" fill="rgb(1,1,1)" stroke="none" stroke-width="0.0" /><path d="M 0.0,127.0 C 0.0,224.0 98.0,224.0 93.0,224.0 C 92.0,223.0 87.0,223.0 86.0,222.0 C 83.0,222.0 82.0,221.0 80.0,221.0 C 79.0,220.0 77.0,220.0 76.0,219.0 C 74.0,219.0 73.0,218.0 71.0,218.0 C 70.0,217.0 69.0,217.0 68.0,216.0 C 67.0,216.0 66.0,215.0 64.0,215.0 C 63.0,214.0 62.0,214.0 61.0,213.0 C 60.0,213.0 58.0,211.0 57.0,211.0 C 56.0,210.0 54.0,210.0 51.0,207.0 C 50.0,207.0 48.0,205.0 47.0,205.0 C 44.0,202.0 43.0,202.0 40.0,199.0 C 39.0,199.0 24.0,184.0 24.0,183.0 C 22.0,181.0 22.0,180.0 20.0,178.0 C 19.0,178.0 18.0,177.0 19.0,176.0 C 17.0,174.0 17.0,173.0 15.0,171.0 C 15.0,170.0 14.0,169.0 14.0,168.0 C 13.0,167.0 12.0,167.0 11.0,166.0 C 12.0,165.0 11.0,164.0 11.0,163.0 C 10.0,162.0 10.0,161.0 9.0,160.0 C 9.0,158.0 8.0,157.0 8.0,156.0 C 7.0,155.0 7.0,154.0 6.0,153.0 C 6.0,151.0 5.0,150.0 5.0,148.0 C 4.0,147.0 4.0,145.0 3.0,144.0 C 3.0,142.0 2.0,141.0 2.0,138.0 C 1.0,137.0 1.0,134.0 0.0,133.0 Z" fill="rgb(1,1,1)" stroke="none" stroke-width="0.0" /><path d="M 174.0,119.0 C 172.0,121.0 171.0,121.0 172.0,122.0 C 171.0,123.0 170.0,123.0 169.0,122.0 C 167.0,124.0 166.0,124.0 165.0,125.0 C 164.0,125.0 163.0,126.0 162.0,126.0 C 161.0,127.0 160.0,127.0 159.0,128.0 C 157.0,128.0 156.0,129.0 154.0,129.0 C 155.0,130.0 154.0,131.0 153.0,131.0 C 152.0,130.0 151.0,130.0 150.0,131.0 C 148.0,131.0 147.0,132.0 148.0,132.0 C 149.0,131.0 150.0,132.0 151.0,132.0 C 152.0,131.0 153.0,132.0 157.0,132.0 C 158.0,131.0 160.0,131.0 160.0,130.0 C 161.0,129.0 162.0,130.0 163.0,129.0 C 164.0,129.0 166.0,127.0 167.0,127.0 Z" fill="rgb(1,1,1)" stroke="none" stroke-width="0.0" /><path d="M 179.0,110.0 C 178.0,111.0 177.0,111.0 176.0,112.0 C 174.0,112.0 175.0,112.0 176.0,113.0 C 174.0,115.0 173.0,115.0 170.0,118.0 C 169.0,118.0 167.0,120.0 166.0,120.0 C 164.0,122.0 163.0,122.0 162.0,123.0 C 161.0,123.0 160.0,124.0 159.0,124.0 C 158.0,125.0 156.0,125.0 156.0,126.0 C 157.0,125.0 158.0,125.0 159.0,124.0 C 160.0,124.0 161.0,123.0 162.0,123.0 C 163.0,122.0 164.0,122.0 165.0,121.0 C 166.0,121.0 167.0,120.0 168.0,120.0 C 170.0,118.0 171.0,118.0 172.0,117.0 C 172.0,116.0 173.0,115.0 175.0,115.0 C 175.0,114.0 176.0,113.0 177.0,114.0 C 177.0,115.0 177.0,114.0 178.0,113.0 Z" fill="rgb(1,1,1)" stroke="none" stroke-width="0.0" /><path d="M 189.0,98.0 C 188.0,99.0 188.0,100.0 187.0,101.0 C 187.0,103.0 186.0,104.0 186.0,106.0 C 185.0,107.0 185.0,109.0 184.0,110.0 C 184.0,112.0 183.0,113.0 183.0,115.0 C 182.0,116.0 182.0,118.0 181.0,119.0 C 181.0,121.0 180.0,122.0 180.0,124.0 C 179.0,125.0 179.0,127.0 178.0,128.0 C 178.0,129.0 177.0,130.0 177.0,132.0 C 184.0,132.0 184.0,131.0 185.0,130.0 C 185.0,127.0 186.0,126.0 186.0,124.0 C 187.0,123.0 187.0,122.0 188.0,121.0 C 188.0,120.0 189.0,119.0 191.0,119.0 C 192.0,120.0 192.0,122.0 193.0,123.0 C 193.0,127.0 194.0,128.0 194.0,131.0 C 195.0,132.0 203.0,132.0 203.0,131.0 C 202.0,130.0 202.0,127.0 201.0,126.0 C 201.0,124.0 200.0,123.0 200.0,119.0 C 202.0,117.0 203.0,117.0 204.0,116.0 C 205.0,116.0 210.0,111.0 210.0,110.0 C 211.0,109.0 211.0,105.0 212.0,104.0 C 212.0,103.0 211.0,102.0 211.0,101.0 C 209.0,99.0 207.0,99.0 206.0,98.0 Z" fill="rgb(1,1,1)" stroke="none" stroke-width="0.0" /><path d="M 118.0,98.0 C 117.0,99.0 117.0,101.0 116.0,102.0 C 117.0,103.0 123.0,103.0 125.0,105.0 C 124.0,106.0 124.0,107.0 123.0,108.0 C 123.0,110.0 124.0,111.0 123.0,112.0 C 122.0,112.0 122.0,114.0 121.0,115.0 C 121.0,116.0 120.0,117.0 120.0,120.0 C 119.0,121.0 119.0,122.0 118.0,123.0 C 118.0,126.0 117.0,127.0 117.0,129.0 C 116.0,130.0 117.0,131.0 117.0,132.0 C 118.0,131.0 119.0,132.0 120.0,132.0 C 121.0,131.0 123.0,131.0 123.0,129.0 C 124.0,128.0 124.0,125.0 125.0,124.0 C 125.0,123.0 126.0,122.0 126.0,120.0 C 127.0,119.0 127.0,117.0 128.0,116.0 C 128.0,114.0 129.0,113.0 129.0,111.0 C 130.0,110.0 130.0,107.0 131.0,106.0 C 131.0,105.0 133.0,103.0 142.0,103.0 C 142.0,101.0 143.0,100.0 143.0,98.0 C 140.0,98.0 139.0,99.0 138.0,98.0 Z" fill="rgb(1,1,1)" stroke="none" stroke-width="0.0" /><path d="M 94.0,98.0 C 93.0,99.0 92.0,99.0 91.0,100.0 C 89.0,100.0 87.0,102.0 86.0,102.0 C 84.0,104.0 84.0,105.0 83.0,106.0 C 82.0,106.0 81.0,107.0 81.0,108.0 C 79.0,110.0 80.0,111.0 79.0,112.0 C 78.0,112.0 78.0,113.0 77.0,114.0 C 77.0,115.0 76.0,116.0 76.0,117.0 C 77.0,118.0 76.0,119.0 76.0,121.0 C 77.0,122.0 77.0,123.0 76.0,124.0 C 76.0,125.0 77.0,126.0 77.0,127.0 C 81.0,131.0 82.0,131.0 83.0,132.0 C 84.0,132.0 85.0,131.0 86.0,132.0 C 92.0,132.0 93.0,131.0 96.0,131.0 C 96.0,130.0 97.0,129.0 98.0,130.0 C 99.0,129.0 100.0,129.0 102.0,127.0 C 103.0,127.0 106.0,124.0 106.0,123.0 C 107.0,122.0 106.0,122.0 105.0,121.0 C 104.0,122.0 103.0,121.0 102.0,122.0 C 99.0,122.0 96.0,125.0 95.0,125.0 C 94.0,126.0 87.0,126.0 86.0,125.0 C 84.0,125.0 83.0,124.0 84.0,123.0 C 84.0,122.0 82.0,120.0 83.0,119.0 C 83.0,117.0 84.0,116.0 84.0,115.0 C 83.0,114.0 83.0,113.0 84.0,112.0 C 85.0,113.0 84.0,112.0 84.0,111.0 C 85.0,110.0 86.0,111.0 86.0,110.0 C 87.0,109.0 87.0,108.0 88.0,107.0 C 89.0,107.0 90.0,106.0 91.0,106.0 C 91.0,105.0 92.0,104.0 93.0,104.0 C 94.0,103.0 95.0,104.0 96.0,104.0 C 97.0,103.0 98.0,104.0 99.0,103.0 C 100.0,104.0 101.0,104.0 104.0,107.0 C 104.0,108.0 112.0,108.0 112.0,105.0 C 111.0,104.0 111.0,102.0 110.0,102.0 C 109.0,101.0 109.0,100.0 109.0,101.0 C 108.0,102.0 107.0,101.0 105.0,101.0 C 104.0,100.0 105.0,99.0 105.0,98.0 Z" fill="rgb(1,1,1)" stroke="none" stroke-width="0.0" /><path d="M 59.0,98.0 C 59.0,99.0 58.0,100.0 58.0,101.0 C 59.0,102.0 58.0,103.0 57.0,103.0 C 57.0,105.0 56.0,106.0 56.0,107.0 C 55.0,108.0 55.0,111.0 54.0,112.0 C 55.0,113.0 55.0,114.0 54.0,115.0 C 53.0,114.0 53.0,116.0 52.0,117.0 C 52.0,121.0 51.0,122.0 51.0,123.0 C 50.0,124.0 50.0,125.0 49.0,126.0 C 49.0,128.0 48.0,129.0 48.0,132.0 C 65.0,132.0 66.0,131.0 67.0,132.0 C 68.0,131.0 68.0,130.0 67.0,129.0 C 68.0,128.0 69.0,128.0 69.0,127.0 C 58.0,127.0 56.0,125.0 57.0,124.0 C 57.0,123.0 58.0,122.0 58.0,121.0 C 57.0,120.0 58.0,119.0 59.0,119.0 C 59.0,118.0 60.0,117.0 63.0,117.0 C 64.0,116.0 65.0,116.0 66.0,117.0 C 71.0,117.0 71.0,116.0 72.0,115.0 C 72.0,112.0 63.0,112.0 62.0,111.0 C 62.0,108.0 63.0,107.0 63.0,105.0 C 65.0,103.0 77.0,103.0 78.0,102.0 C 78.0,100.0 79.0,99.0 79.0,98.0 C 64.0,98.0 63.0,99.0 62.0,98.0 Z" fill="rgb(1,1,1)" stroke="none" stroke-width="0.0" /><path d="M 161.0,97.0 C 160.0,98.0 157.0,98.0 156.0,99.0 C 155.0,99.0 154.0,100.0 153.0,100.0 C 151.0,102.0 150.0,102.0 143.0,109.0 C 143.0,110.0 141.0,112.0 141.0,114.0 C 140.0,115.0 140.0,118.0 139.0,119.0 C 140.0,120.0 139.0,121.0 139.0,122.0 C 140.0,123.0 139.0,124.0 140.0,125.0 C 140.0,126.0 145.0,126.0 145.0,125.0 C 146.0,124.0 147.0,124.0 148.0,125.0 C 149.0,125.0 150.0,124.0 152.0,124.0 C 153.0,123.0 155.0,123.0 156.0,122.0 C 157.0,122.0 158.0,121.0 159.0,121.0 C 160.0,120.0 161.0,120.0 162.0,119.0 C 163.0,119.0 165.0,117.0 166.0,117.0 C 167.0,116.0 168.0,116.0 170.0,114.0 C 170.0,111.0 171.0,110.0 173.0,110.0 C 174.0,109.0 175.0,109.0 176.0,108.0 C 177.0,108.0 177.0,106.0 176.0,105.0 C 176.0,103.0 175.0,102.0 174.0,102.0 C 173.0,101.0 173.0,100.0 172.0,99.0 Z" fill="rgb(1,1,1)" stroke="none" stroke-width="0.0" /><path d="M 126.0,0.0 C 133.0,0.0 134.0,1.0 137.0,1.0 C 138.0,2.0 141.0,2.0 142.0,3.0 C 144.0,3.0 145.0,4.0 147.0,4.0 C 148.0,5.0 150.0,5.0 151.0,6.0 C 153.0,6.0 154.0,7.0 155.0,7.0 C 156.0,8.0 158.0,8.0 159.0,9.0 C 160.0,9.0 161.0,10.0 162.0,10.0 C 163.0,11.0 164.0,11.0 166.0,13.0 C 167.0,13.0 168.0,14.0 169.0,14.0 C 170.0,15.0 171.0,15.0 173.0,17.0 C 174.0,17.0 176.0,19.0 177.0,18.0 C 178.0,19.0 178.0,20.0 179.0,21.0 C 180.0,21.0 183.0,24.0 184.0,24.0 C 185.0,25.0 185.0,26.0 186.0,26.0 C 199.0,39.0 199.0,40.0 203.0,44.0 C 203.0,45.0 205.0,47.0 205.0,48.0 C 207.0,50.0 207.0,51.0 210.0,54.0 C 210.0,56.0 212.0,58.0 212.0,59.0 C 213.0,60.0 213.0,61.0 214.0,62.0 C 214.0,63.0 215.0,64.0 215.0,66.0 C 216.0,67.0 216.0,68.0 217.0,69.0 C 217.0,70.0 218.0,71.0 218.0,73.0 C 219.0,74.0 219.0,76.0 220.0,77.0 C 220.0,79.0 221.0,80.0 221.0,82.0 C 222.0,83.0 222.0,87.0 223.0,88.0 C 223.0,92.0 224.0,93.0 224.0,98.0 Z" fill="rgb(1,1,1)" stroke="none" stroke-width="0.0" /><path d="M 0.0,0.0 C 0.0,98.0 0.0,92.0 1.0,91.0 C 1.0,88.0 2.0,87.0 2.0,83.0 C 3.0,82.0 3.0,80.0 4.0,79.0 C 4.0,77.0 5.0,76.0 7.0,78.0 C 7.0,80.0 8.0,81.0 8.0,83.0 C 9.0,84.0 9.0,86.0 10.0,87.0 C 10.0,89.0 11.0,90.0 11.0,92.0 C 12.0,93.0 12.0,95.0 13.0,96.0 C 13.0,97.0 14.0,98.0 14.0,100.0 C 15.0,101.0 15.0,103.0 16.0,104.0 C 16.0,106.0 17.0,107.0 17.0,109.0 C 18.0,110.0 18.0,112.0 19.0,113.0 C 19.0,114.0 20.0,115.0 20.0,117.0 C 21.0,118.0 21.0,120.0 22.0,121.0 C 22.0,123.0 23.0,124.0 23.0,125.0 C 24.0,126.0 24.0,128.0 25.0,129.0 C 25.0,131.0 26.0,132.0 40.0,132.0 C 41.0,131.0 41.0,130.0 42.0,129.0 C 42.0,127.0 43.0,126.0 43.0,124.0 C 44.0,123.0 43.0,122.0 43.0,121.0 C 44.0,120.0 45.0,121.0 45.0,118.0 C 46.0,117.0 46.0,115.0 47.0,114.0 C 47.0,113.0 48.0,112.0 48.0,110.0 C 49.0,109.0 49.0,107.0 50.0,106.0 C 50.0,105.0 51.0,104.0 51.0,102.0 C 52.0,101.0 52.0,99.0 53.0,98.0 C 53.0,96.0 54.0,95.0 54.0,93.0 C 55.0,92.0 201.0,92.0 201.0,91.0 C 202.0,90.0 203.0,91.0 203.0,90.0 C 204.0,89.0 205.0,90.0 207.0,88.0 C 208.0,88.0 209.0,87.0 210.0,87.0 C 210.0,86.0 209.0,85.0 208.0,86.0 C 207.0,85.0 207.0,84.0 206.0,84.0 C 204.0,82.0 203.0,82.0 202.0,81.0 C 52.0,81.0 51.0,82.0 50.0,82.0 C 49.0,83.0 48.0,83.0 45.0,86.0 C 45.0,88.0 44.0,89.0 44.0,91.0 C 43.0,92.0 43.0,94.0 42.0,95.0 C 42.0,97.0 41.0,98.0 41.0,100.0 C 40.0,101.0 40.0,102.0 39.0,103.0 C 39.0,105.0 38.0,106.0 38.0,109.0 C 37.0,110.0 37.0,112.0 36.0,113.0 C 36.0,114.0 37.0,115.0 36.0,116.0 C 35.0,116.0 35.0,118.0 33.0,120.0 C 32.0,119.0 32.0,118.0 31.0,117.0 C 31.0,115.0 30.0,114.0 30.0,112.0 C 29.0,111.0 29.0,110.0 28.0,109.0 C 28.0,106.0 27.0,105.0 27.0,103.0 C 26.0,102.0 26.0,100.0 25.0,99.0 C 25.0,97.0 24.0,96.0 24.0,94.0 C 23.0,93.0 23.0,91.0 22.0,90.0 C 22.0,88.0 21.0,87.0 21.0,85.0 C 20.0,84.0 20.0,82.0 19.0,81.0 C 19.0,78.0 18.0,77.0 18.0,75.0 C 17.0,74.0 17.0,72.0 16.0,71.0 C 16.0,69.0 15.0,68.0 15.0,66.0 C 14.0,65.0 14.0,63.0 13.0,62.0 C 13.0,61.0 12.0,60.0 12.0,58.0 C 14.0,56.0 13.0,55.0 14.0,54.0 C 15.0,54.0 15.0,53.0 17.0,51.0 C 17.0,50.0 19.0,48.0 19.0,47.0 C 22.0,44.0 22.0,43.0 25.0,40.0 C 25.0,38.0 26.0,37.0 27.0,38.0 C 27.0,37.0 35.0,29.0 35.0,28.0 C 36.0,27.0 37.0,27.0 39.0,25.0 C 40.0,25.0 44.0,21.0 45.0,21.0 C 44.0,20.0 45.0,19.0 47.0,19.0 C 48.0,18.0 49.0,18.0 50.0,17.0 C 51.0,17.0 54.0,14.0 56.0,14.0 C 58.0,12.0 59.0,12.0 60.0,11.0 C 61.0,11.0 62.0,10.0 63.0,10.0 C 63.0,9.0 64.0,8.0 65.0,9.0 C 66.0,8.0 68.0,8.0 69.0,7.0 C 71.0,7.0 72.0,6.0 73.0,6.0 C 74.0,5.0 76.0,5.0 77.0,4.0 C 79.0,4.0 80.0,3.0 82.0,3.0 C 83.0,2.0 87.0,2.0 88.0,1.0 C 91.0,1.0 92.0,0.0 97.0,0.0 Z" fill="rgb(1,1,1)" stroke="none" stroke-width="0.0" /></svg>