<?xml version="1.0" encoding="utf-8" ?>
<svg baseProfile="full" height="200" version="1.1" width="200" xmlns="http://www.w3.org/2000/svg" xmlns:ev="http://www.w3.org/2001/xml-events" xmlns:xlink="http://www.w3.org/1999/xlink"><defs /><path d="M 0.0,0.0 C 16.996917724609375,8.62957763671875 18.085784912109375,9.40594482421875 31.253753662109375,25.21112060546875 C 37.1917724609375,44.06843566894531 33.955108642578125,67.39967346191406 26.996917724609375,79.62957763671875 C 26.220550537109375,80.71844482421875 10.415374755859375,93.88641357421875 -8.441940307617188,99.82443237304688 C -31.773178100585938,96.5877685546875 -44.003082275390625,89.62957763671875 -45.091949462890625,88.85321044921875 C -58.259918212890625,73.04803466796875 -64.19793701171875,54.19071960449219 -60.961273193359375,30.859481811523438 C -54.003082275390625,18.62957763671875 -53.226715087890625,17.54071044921875 -37.421539306640625,4.37274169921875 Z" fill="rgb(255,0,0)" stroke="none" stroke-width="0.0" /><path d="M 0.0,0.0 C 41.0,0.0 41.0,41.0 0.0,41.0 Z" fill="rgb(0,255,0)" stroke="none" stroke-width="0.0" /><path d="M 0.0,0.0 C 16.996917724609375,8.62957763671875 18.085784912109375,9.40594482421875 31.253753662109375,25.21112060546875 C 37.1917724609375,44.06843566894531 33.955108642578125,67.39967346191406 26.996917724609375,79.62957763671875 C 26.220550537109375,80.71844482421875 10.415374755859375,93.88641357421875 -8.441940307617188,99.82443237304688 C -31.773178100585938,96.5877685546875 -44.003082275390625,89.62957763671875 -45.091949462890625,88.85321044921875 C -58.259918212890625,73.04803466796875 -64.19793701171875,54.19071960449219 -60.961273193359375,30.859481811523438 C -54.003082275390625,18.62957763671875 -53.226715087890625,17.54071044921875 -37.421539306640625,4.37274169921875 C 0.0,0.0 -38.592926025390625,8.13348388671875 -52.49571228027344,20.963592529296875 C -60.003082275390625,37.62957763671875 -60.284332275390625,38.78240966796875 -61.253082275390625,48.75457763671875 C -61.255126953125,49.605804443359375 -56.411529541015625,70.49481201171875 -45.003082275390625,85.62957763671875 C -26.058258056640625,95.37957763671875 -25.003082275390625,95.62957763671875 -23.850250244140625,95.91082763671875 C -13.878082275390625,96.87957763671875 -13.02685546875,96.88162231445312 7.862152099609375,92.03802490234375 C 22.996917724609375,80.62957763671875 32.746917724609375,61.68475341796875 32.996917724609375,60.62957763671875 C 33.278167724609375,59.47674560546875 34.246917724609375,49.50457763671875 34.24896240234375,48.653350830078125 C 29.405364990234375,27.76434326171875 17.996917724609375,12.62957763671875 -0.947906494140625,2.87957763671875 C -2.003082275390625,2.62957763671875 -3.155914306640625,2.34832763671875 -13.128082275390625,1.37957763671875 Z" fill="rgb(0,0,0)" stroke="none" stroke-width="0.0" /><path d="M 0.0,0.0 C 2.65234375,-0.09765625 3.4408111572265625,-0.0933685302734375 5.9375,-0.0625 C 7.607421875,-0.048828125 10.687255859375,-0.015869140625 15.25390625,-0.03515625 C 16.5625,-0.0625 17.87890625,-0.09765625 19.0,0.0 C 20.0,1.0 20.125,4.0 20.13671875,4.828125 C 20.0,7.0 19.0,8.0 15.12890625,8.36328125 C 14.0,8.0 13.3125,4.1796875 13.0,3.0 C 9.83984375,2.04296875 9.0,2.0 9.0,4.0 C 12.0,4.0 12.0,8.0 6.927978515625,8.054931640625 C 5.202392578125,8.075439453125 2.72265625,8.09765625 1.9428863525390625,8.113296508789062 C 0.0,8.0 -1.0,7.0 -1.125,4.0 C -1.13671875,3.171875 -1.0,1.0 0.0,0.0 C 2.0,1.0 1.4375,3.5 1.18359375,4.90625 C 1.0,6.0 4.0,6.0 3.5625,3.5 C 3.31640625,2.09375 3.0,1.0 2.0,1.0 C 16.0,1.0 15.4375,3.5 15.18359375,4.90625 C 15.0,6.0 18.0,6.0 17.5625,3.5 C 17.31640625,2.09375 17.0,1.0 16.0,1.0 Z" fill="rgb(0,0,0)" stroke="none" stroke-width="0.0" /><path d="M 0.0,0.0 C 1.0,0.0 0.9365234375,0.626708984375 1.0,7.0 C 3.0,7.9375 5.0,8.0 0.0,8.0 Z" fill="rgb(0,0,0)" stroke="none" stroke-width="0.0" /></svg>