<?xml version="1.0" encoding="utf-8" ?>
<svg baseProfile="full" height="340" version="1.1" width="800" xmlns="http://www.w3.org/2000/svg" xmlns:ev="http://www.w3.org/2001/xml-events" xmlns:xlink="http://www.w3.org/1999/xlink"><defs /><path d="M 0.0,0.0 C 0.0,161.0 -28.0,161.0 -29.08805561065674,106.67664337158203 C -29.584228515625,81.44873046875 -29.97585839033127,59.43906259536743 -30.2203311920166,47.80430603027344 C -25.93526840209961,17.131072998046875 -9.426916122436523,5.3079071044921875 -3.3908233642578125,1.6109619140625 Z" fill="rgb(220,57,13)" stroke="none" stroke-width="0.0" /><path d="M 0.0,0.0 C 0.0,109.0 -28.0,109.0 -28.0,10.0 C -10.625,2.75 -8.51171875,1.9375 0.0,0.0 Z" fill="rgb(221,57,13)" stroke="none" stroke-width="0.0" /><path d="M 0.0,0.0 C 0.0,103.0 -28.0,103.0 -28.673558235168457,69.38432312011719 C -28.980712890625,53.77392578125 -29.2334041595459,38.6988525390625 -29.37449073791504,32.9578857421875 C -26.727128982543945,14.423538208007812 -15.0,8.0 -10.95703125,5.46875 C -7.8125,3.5 -4.58203125,1.46875 0.0,0.0 Z" fill="rgb(221,57,13)" stroke="none" stroke-width="0.0" /><path d="M 0.0,0.0 C 0.0,95.0 -27.0,95.0 -28.272216796875,86.729736328125 C -28.321334838867188,84.42355346679688 -28.600253105163574,63.327778816223145 -28.809326171875,49.150146484375 C -28.98771095275879,35.45270347595215 -29.087865829467773,30.23429298400879 -25.868820190429688,12.65557861328125 C -18.0,9.0 -13.33984375,6.4453125 -8.9375,4.125 Z" fill="rgb(221,56,13)" stroke="none" stroke-width="0.0" /><path d="M 0.0,0.0 C 2.0,6.0 -2.0,6.0 -4.0,3.0 C -8.1328125,2.70703125 -10.57421875,2.736328125 -13.125,2.8125 C -15.69921875,2.853515625 -22.0,3.0 -21.0,8.0 C -18.18359375,8.1484375 0.0,11.0 1.875,18.0625 C -0.4609375,22.66015625 -12.5,24.375 -15.08984375,24.41015625 C -24.59375,22.7265625 -26.0,17.0 -22.0,17.0 C -22.0,20.0 -3.0,20.0 -3.0,15.0 C -13.833984375,13.5703125 -26.0,10.0 -24.375,0.0625 Z" fill="rgb(0,0,0)" stroke="none" stroke-width="0.0" /><path d="M 0.0,0.0 C 25.0,0.0 25.0,3.0 4.0,3.0 C 4.0,10.0 24.0,10.0 24.0,14.0 C 4.0,14.0 4.0,21.0 25.0,21.0 C 25.0,25.0 0.0,25.0 0.0,0.0 Z" fill="rgb(0,0,0)" stroke="none" stroke-width="0.0" /><path d="M 0.0,0.0 C 25.0,0.0 25.0,3.0 4.0,3.0 C 4.0,10.0 24.0,10.0 24.0,14.0 C 4.0,14.0 4.0,21.0 25.0,21.0 C 25.0,25.0 0.0,25.0 0.0,0.0 Z" fill="rgb(0,0,0)" stroke="none" stroke-width="0.0" /><path d="M 0.0,0.0 C 11.75,-0.125 15.4365234375,-0.18017578125 18.359375,-0.1953125 C 21.3427734375,-0.22705078125 28.0,2.0 27.0,14.0 C 28.0,16.0 28.0625,20.625 28.03515625,23.1015625 C 28.0,25.0 24.0,25.0 24.0,16.0 C 4.0,15.0 4.0,25.0 0.0,25.0 C 0.0,0.0 4.0,3.0 4.0,12.0 C 13.375,12.125 16.0703125,12.17578125 18.6484375,12.1953125 C 21.02880859375,12.22705078125 25.0,10.0 25.0,5.0 C 17.76953125,2.8046875 15.337890625,2.82421875 12.8125,2.875 Z" fill="rgb(0,0,0)" stroke="none" stroke-width="0.0" /><path d="M 0.0,0.0 C 11.75,-0.125 15.4365234375,-0.18017578125 18.359375,-0.1953125 C 21.3427734375,-0.22705078125 28.0,2.0 29.25,12.4375 C 29.3125,14.791015625 27.6669921875,22.683837890625 17.67578125,25.09765625 C 14.868408203125,25.090087890625 11.3125,25.0625 0.0,25.0 C 0.0,0.0 3.0,3.0 3.0,21.0 C 24.0,21.0 26.25,12.5 26.265625,10.21875 C 24.0,4.0 17.6484375,2.90234375 15.0703125,2.912109375 C 12.375,2.9375 9.65625,2.951171875 3.0,3.0 Z" fill="rgb(0,0,0)" stroke="none" stroke-width="0.0" /><path d="M 0.0,0.0 C 11.75,-0.125 15.4365234375,-0.18017578125 18.359375,-0.1953125 C 21.3427734375,-0.22705078125 28.0,2.0 28.0,25.0 C 24.0,25.0 24.0,16.0 3.0,15.0 C 3.0,25.0 0.0,25.0 0.0,0.0 C 3.0,3.0 3.0,12.0 12.875,12.1875 C 15.71484375,12.263671875 18.4296875,12.29296875 20.93701171875,12.340576171875 C 23.0,12.0 24.75,6.375 24.0,4.0 C 17.6484375,2.90234375 15.0703125,2.912109375 12.375,2.9375 Z" fill="rgb(0,0,0)" stroke="none" stroke-width="0.0" /><path d="M 0.0,0.0 C 2.0,7.0 -2.0,7.0 -4.0,3.0 C -12.9375,2.9375 -15.513671875,2.912109375 -17.96484375,2.90234375 C -20.234130859375,2.886474609375 -23.0,4.0 -23.0625,12.0625 C -23.048828125,14.361328125 -23.0,20.0 -14.125,20.0625 C -11.57421875,20.087890625 -9.1328125,20.09765625 -6.87939453125,20.113525390625 C -3.0,19.0 -2.0,15.0 2.0,15.0 C 0.63671875,22.13671875 -12.4375,24.5625 -15.291015625,24.634765625 C -26.1328125,21.9375 -28.4375,11.4375 -28.37109375,7.49609375 Z" fill="rgb(0,0,0)" stroke="none" stroke-width="0.0" /><path d="M 0.0,0.0 C 28.0,0.0 28.0,3.0 16.0,3.0 C 16.0,25.0 12.0,25.0 12.0,3.0 Z" fill="rgb(0,0,0)" stroke="none" stroke-width="0.0" /><path d="M 0.0,0.0 C 4.0,1.0 5.0,7.0 7.0,7.0 C 8.0,1.0 12.0,0.0 12.0,13.0 C 9.0,13.0 8.0,11.0 7.0,13.0 C 4.0,12.0 3.0,9.0 2.0,13.0 Z" fill="rgb(0,0,0)" stroke="none" stroke-width="0.0" /><path d="M 0.0,0.0 C 3.0,0.0 5.0,6.0 8.0,0.0 C 11.0,0.0 11.0,13.0 9.0,13.0 C 8.0,10.0 7.0,13.0 4.0,13.0 C 3.0,10.0 2.0,13.0 0.0,13.0 Z" fill="rgb(0,0,0)" stroke="none" stroke-width="0.0" /><path d="M 0.0,0.0 C 9.0,0.0 9.0,3.0 3.0,3.0 C 3.0,5.0 9.0,5.0 9.0,8.0 C 3.0,8.0 3.0,11.0 10.0,11.0 C 10.0,13.0 0.0,13.0 0.0,0.0 Z" fill="rgb(0,0,0)" stroke="none" stroke-width="0.0" /><path d="M 0.0,0.0 C 9.0,0.0 9.0,3.0 3.0,3.0 C 3.0,5.0 9.0,5.0 9.0,8.0 C 3.0,8.0 3.0,11.0 10.0,11.0 C 10.0,13.0 0.0,13.0 0.0,0.0 Z" fill="rgb(0,0,0)" stroke="none" stroke-width="0.0" /><path d="M 0.0,0.0 C 4.875,3.9375 1.875,12.9375 -6.0,11.8125 C -7.125,3.9375 0.0,0.0 -3.125,2.9375 C -5.125,6.9375 -3.125,10.9375 1.875,8.9375 Z" fill="rgb(0,0,0)" stroke="none" stroke-width="0.0" /><path d="M 0.0,0.0 C 9.0,1.0 10.0,13.0 8.0,13.0 C 7.25,11.0625 3.875,8.25 2.0,8.0 C 2.0,13.0 0.0,13.0 0.0,0.0 C 2.0,3.0 2.0,6.0 7.0,6.0 Z" fill="rgb(0,0,0)" stroke="none" stroke-width="0.0" /><path d="M 0.0,0.0 C 9.0,0.0 9.0,3.0 2.0,3.0 C 2.0,5.0 8.0,5.0 8.0,8.0 C 2.0,8.0 2.0,11.0 9.0,11.0 C 9.0,13.0 0.0,13.0 0.0,0.0 Z" fill="rgb(0,0,0)" stroke="none" stroke-width="0.0" /><path d="M 0.0,0.0 C 10.0,3.0 8.9375,11.9375 0.0,13.0 C 0.0,0.0 2.0,3.0 2.0,11.0 C 7.0,10.0 7.0,3.0 2.0,3.0 Z" fill="rgb(0,0,0)" stroke="none" stroke-width="0.0" /><path d="M 0.0,0.0 C 2.8125,0.625 3.8125,4.625 -3.1875,3.625 C -4.1875,9.625 3.8125,7.625 1.8125,12.625 C -4.1875,12.625 -7.1875,8.625 -6.1875,1.625 Z" fill="rgb(0,0,0)" stroke="none" stroke-width="0.0" /><path d="M 0.0,0.0 C 2.8125,0.625 3.8125,4.625 1.4375,3.5625 C -1.1875,2.625 -3.1875,3.625 -3.1875,8.625 C 1.8125,9.625 1.8125,7.625 3.8125,7.625 C 1.8125,12.625 -4.1875,12.625 -7.1875,8.625 Z" fill="rgb(0,0,0)" stroke="none" stroke-width="0.0" /><path d="M 0.0,0.0 C 9.0,1.0 9.0,7.0 4.9375,8.0625 C 2.0,8.0 2.0,13.0 0.0,13.0 C 0.0,0.0 2.0,3.0 2.0,6.0 C 7.0,5.0 7.0,3.0 2.0,3.0 Z" fill="rgb(0,0,0)" stroke="none" stroke-width="0.0" /><path d="M 0.0,0.0 C 2.0,0.0 5.0,7.0 9.0,0.0 C 11.0,0.0 9.5625,4.8125 8.75390625,7.51953125 C 7.0,13.0 4.0,13.0 2.0,8.1875 Z" fill="rgb(0,0,0)" stroke="none" stroke-width="0.0" /><path d="M 0.0,0.0 C 10.0,0.0 10.0,3.0 6.0,3.0 C 6.0,13.0 4.0,13.0 4.0,3.0 Z" fill="rgb(0,0,0)" stroke="none" stroke-width="0.0" /><path d="M 0.0,0.0 C 9.0,0.0 10.0,3.0 6.0,3.0 C 6.0,13.0 4.0,13.0 4.0,3.0 Z" fill="rgb(0,0,0)" stroke="none" stroke-width="0.0" /><path d="M 0.0,0.0 C 2.0,0.0 2.0,11.0 8.0,11.0 C 8.0,13.0 0.0,13.0 0.0,0.0 Z" fill="rgb(0,0,0)" stroke="none" stroke-width="0.0" /><path d="M 0.0,0.0 C 6.0,0.0 6.0,2.0 0.0,2.0 Z" fill="rgb(0,0,0)" stroke="none" stroke-width="0.0" /><path d="M 0.0,0.0 C 2.0,0.0 2.0,3.0 0.0,3.0 Z" fill="rgb(0,0,0)" stroke="none" stroke-width="0.0" /><path d="M 0.0,0.0 C 2.0,0.0 2.0,3.0 0.0,3.0 Z" fill="rgb(0,0,0)" stroke="none" stroke-width="0.0" /></svg>