<?xml version="1.0" encoding="utf-8" ?>
<svg baseProfile="full" height="400" version="1.1" width="400" xmlns="http://www.w3.org/2000/svg" xmlns:ev="http://www.w3.org/2001/xml-events" xmlns:xlink="http://www.w3.org/1999/xlink"><defs /><rect fill="rgb(254,184,91)" height="400.0" stroke="none" stroke-width="0.0" width="400.0" x="0.0" y="0.0" /><rect fill="rgb(254,184,91)" height="23.0" stroke="none" stroke-width="0.0" width="13.0" x="199.0" y="212.0" /><rect fill="rgb(254,184,91)" height="22.0" stroke="none" stroke-width="0.0" width="12.0" x="222.0" y="215.0" /><rect fill="rgb(254,184,91)" height="49.0" stroke="none" stroke-width="0.0" width="8.0" x="198.0" y="247.0" /><rect fill="rgb(94,39,81)" height="58.0" stroke="none" stroke-width="0.0" width="63.0" x="157.0" y="67.0" /><rect fill="rgb(94,39,81)" height="70.0" stroke="none" stroke-width="0.0" width="37.0" x="184.0" y="231.0" /><rect fill="rgb(239,61,105)" height="24.0" stroke="none" stroke-width="0.0" width="27.0" x="196.0" y="147.0" /><rect fill="rgb(239,61,105)" height="69.0" stroke="none" stroke-width="0.0" width="84.0" x="143.0" y="163.0" /><rect fill="rgb(239,61,105)" height="13.0" stroke="none" stroke-width="0.0" width="16.0" x="135.0" y="174.0" /><rect fill="rgb(239,61,105)" height="7.0" stroke="none" stroke-width="0.0" width="14.0" x="213.0" y="212.0" /><rect fill="rgb(254,168,142)" height="17.0" stroke="none" stroke-width="0.0" width="39.0" x="158.0" y="88.0" /><rect fill="rgb(254,168,142)" height="67.0" stroke="none" stroke-width="0.0" width="46.0" x="159.0" y="105.0" /><rect fill="rgb(254,168,142)" height="22.0" stroke="none" stroke-width="0.0" width="19.0" x="121.0" y="157.0" /><rect fill="rgb(254,168,142)" height="17.0" stroke="none" stroke-width="0.0" width="18.0" x="204.0" y="221.0" /><rect fill="rgb(237,146,77)" height="24.0" stroke="none" stroke-width="0.0" width="141.0" x="130.0" y="295.0" /><rect fill="rgb(64,14,57)" height="34.0" stroke="none" stroke-width="0.0" width="9.0" x="213.0" y="235.0" /><rect fill="rgb(250,237,232)" height="13.0" stroke="none" stroke-width="0.0" width="11.0" x="157.0" y="100.0" /><rect fill="rgb(250,237,232)" height="13.0" stroke="none" stroke-width="0.0" width="14.0" x="173.0" y="101.0" /><rect fill="rgb(166,216,235)" height="21.0" stroke="none" stroke-width="0.0" width="21.0" x="93.0" y="150.0" /><rect fill="rgb(117,203,155)" height="6.0" stroke="none" stroke-width="0.0" width="23.0" x="172.0" y="304.0" /><rect fill="rgb(117,203,155)" height="11.0" stroke="none" stroke-width="0.0" width="12.0" x="204.0" y="304.0" /></svg>