<?xml version="1.0" encoding="UTF-8"?>
<!-- Generator: visioncortex VTracer 0.6.4 -->
<svg version="1.1" xmlns="http://www.w3.org/2000/svg" width="506" height="265">
<path d="M0 0 C0 52.800000000000004 0 105.60000000000001 0 160 C-9.240000000000009 160 -18.47999999999999 160 -28 160 C-28 20 -28 20 -17 11 C-2 0.0000000000000017763568394002505 -2 0.0000000000000017763568394002505 0 0 Z " fill="#DD390D" transform="translate(248,0)"/>
<path d="M0 0 C0 35.64 0 71.28 0 108 C-9.240000000000009 108 -18.480000000000018 108 -28 108 C-28 16.999999999999986 -28 16.999999999999986 -27 9 C-2.454545454545439 -1.2272727272727284 -2.454545454545439 -1.2272727272727284 0 0 Z " fill="#DD380D" transform="translate(324,10)"/>
<path d="M0 0 C0 33.66 0 67.32000000000001 0 102 C-9.240000000000009 102 -18.480000000000018 102 -28 102 C-28 73.28999999999999 -28 44.58 -28 15 C-3 0 -3 0 0 0 Z " fill="#DC390D" transform="translate(286,43)"/>
<path d="M0 0 C0 31.349999999999994 0 62.7 0 95 C-8.909999999999997 95 -17.819999999999993 95 -27 95 C-27 68.6 -27 42.19999999999999 -27 15 C-3 0 -3 0 0 0 Z " fill="#DD390D" transform="translate(210,42)"/>
<path d="M0 0 C0.3299999999999841 1.3199999999999932 0.660000000000025 2.6399999999999864 1 4 C-1.4750000000000227 3.5049999999999955 -1.4750000000000227 3.5049999999999955 -4 3 C-4 2.3400000000000034 -4 1.6800000000000068 -4 1 C-15.041005907385397 0.6712020253892774 -15.041005907385397 0.6712020253892774 -22 2 C-22.329999999999984 3.6500000000000057 -22.660000000000025 5.300000000000011 -23 7 C-17.060000000000002 7.3300000000000125 -11.120000000000005 7.659999999999997 -5 8 C0 11 0 11 1 17 C-1 21 -1 21 -6 23 C-22 23 -22 23 -27 20 C-27 18.680000000000007 -27 17.360000000000014 -27 16 C-25.680000000000007 16 -24.360000000000014 16 -23 16 C-23 16.99000000000001 -23 17.97999999999999 -23 19 C-11.001387925719996 19.685160159703145 -11.001387925719996 19.685160159703145 -4 17 C-4 15.349999999999994 -4 13.699999999999989 -4 12 C-10.600000000000023 11.669999999999987 -17.19999999999999 11.340000000000003 -24 11 C-24.99000000000001 10.340000000000003 -25.980000000000018 9.680000000000007 -27 9 C-27 1 -27 1 -24 -2 C-15.374147274643747 -4.875284241785408 -7.5370806387202265 -4.5222483832321245 0 0 Z " fill="#000000" transform="translate(374,190)"/>
<path d="M0 0 C25 0 25 0 28 2 C29 8 29 8 27 14 C27.329999999999984 14.330000000000013 27.660000000000025 14.659999999999997 28 15 C28 17.97 28 20.939999999999998 28 24 C26.680000000000007 24 25.360000000000014 24 24 24 C23.670000000000016 21.360000000000014 23.339999999999975 18.72 23 16 C16.730000000000018 15.669999999999987 10.45999999999998 15.340000000000003 4 15 C4 17.97 4 20.939999999999998 4 24 C2.680000000000007 24 1.3600000000000136 24 0 24 C0 16.079999999999984 0 8.159999999999997 0 0 Z M4 3 C4 5.969999999999999 4 8.939999999999998 4 12 C14.099649328108114 12.30946201774384 14.099649328108114 12.30946201774384 24 11 C25.514650235465638 5.539157389535461 25.514650235465638 5.539157389535461 24 3 C17.399999999999977 3 10.800000000000011 3 4 3 Z " fill="#000000" transform="translate(264,188)"/>
<path d="M0 0 C25 0 25 0 28 2 C28 12 28 12 27 14 C27.33 14.659999999999997 27.659999999999997 15.319999999999993 28 16 C28 18.639999999999986 28 21.28 28 24 C26.680000000000007 24 25.36 24 24 24 C23.67 21.360000000000014 23.340000000000003 18.72 23 16 C16.400000000000006 15.669999999999987 9.799999999999997 15.340000000000003 3 15 C3 17.97 3 20.939999999999998 3 24 C2.010000000000005 24 1.019999999999996 24 0 24 C0 16.079999999999984 0 8.159999999999997 0 0 Z M3 3 C3 5.969999999999999 3 8.939999999999998 3 12 C13.604619664542923 12.349836585598808 13.604619664542923 12.349836585598808 24 11 C24.33 9.02000000000001 24.659999999999997 7.039999999999992 25 5 C19.793166882728897 -0.20683311727111686 10.36357401145817 3 3 3 Z " fill="#000000" transform="translate(90,188)"/>
<path d="M0 0 C8.25 0 16.5 0 25 0 C25 0.9900000000000091 25 1.9799999999999898 25 3 C18.069999999999993 3 11.139999999999986 3 4 3 C4 5.310000000000002 4 7.6200000000000045 4 10 C10.600000000000023 10 17.19999999999999 10 24 10 C24 10.990000000000009 24 11.97999999999999 24 13 C17.399999999999977 13 10.800000000000011 13 4 13 C4 15.639999999999986 4 18.28 4 21 C10.930000000000007 21 17.860000000000014 21 25 21 C25 21.99000000000001 25 22.97999999999999 25 24 C16.75 24 8.5 24 0 24 C0 16.079999999999984 0 8.159999999999997 0 0 Z " fill="#000000" transform="translate(308,188)"/>
<path d="M0 0 C8.25 0 16.5 0 25 0 C25 0.9900000000000091 25 1.9799999999999898 25 3 C18.069999999999993 3 11.139999999999986 3 4 3 C4 5.310000000000002 4 7.6200000000000045 4 10 C10.599999999999994 10 17.19999999999999 10 24 10 C24 10.990000000000009 24 11.97999999999999 24 13 C17.400000000000006 13 10.800000000000011 13 4 13 C4 15.639999999999986 4 18.28 4 21 C10.930000000000007 21 17.860000000000014 21 25 21 C25 21.99000000000001 25 22.97999999999999 25 24 C16.75 24 8.5 24 0 24 C0 16.079999999999984 0 8.159999999999997 0 0 Z " fill="#000000" transform="translate(134,188)"/>
<path d="M0 0 C25 0 25 0 29 3 C29 8.939999999999998 29 14.879999999999995 29 21 C25 24 25 24 0 24 C0 16.079999999999984 0 8.159999999999997 0 0 Z M3 3 C3 8.939999999999998 3 14.879999999999995 3 21 C14.387499990325495 22.14147630029936 14.387499990325495 22.14147630029936 25 20 C26.79330862161089 14.620074135167329 26.353397074732186 9.4135882989288 25 4 C18.43409479880259 0.7170473994013093 10.340905181848427 3 3 3 Z " fill="#000000" transform="translate(174,188)"/>
<path d="M0 0 C0.3299999999999841 1.9799999999999898 0.6599999999999966 3.960000000000008 1 6 C-0.3199999999999932 6 -1.6399999999999864 6 -3 6 C-3.329999999999984 4.680000000000007 -3.6599999999999966 3.3600000000000136 -4 2 C-10.475696141950749 0.38107596451231984 -17.32500520183308 1 -24 1 C-24 6.939999999999998 -24 12.879999999999995 -24 19 C-13.900350671891914 19.30946201774384 -13.900350671891914 19.30946201774384 -4 18 C-3.670000000000016 16.680000000000007 -3.3400000000000034 15.360000000000014 -3 14 C-1.6800000000000068 14 -0.36000000000001364 14 1 14 C0 20 0 20 -5 23 C-23 23 -23 23 -28 20 C-30.68586629417399 11.942401117478028 -30.209813440732262 5.016355734553798 -26 -2 C-16.79822529219814 -5.067258235933963 -8.069748373386574 -4.841849024031944 0 0 Z " fill="#000000" transform="translate(247,190)"/>
<path d="M0 0 C9.240000000000009 0 18.480000000000018 0 28 0 C28 0.9900000000000091 28 1.9799999999999898 28 3 C24.04000000000002 3 20.079999999999984 3 16 3 C16 9.930000000000007 16 16.860000000000014 16 24 C14.680000000000007 24 13.360000000000014 24 12 24 C12 17.069999999999993 12 10.139999999999986 12 3 C8.04000000000002 3 4.079999999999984 3 0 3 C0 2.009999999999991 0 1.0200000000000102 0 0 Z " fill="#000000" transform="translate(389,188)"/>
<path d="M0 0 C1.3199999999999932 0.3300000000000125 2.6399999999999864 0.6599999999999966 4 1 C4.3300000000000125 2.9799999999999898 4.659999999999997 4.960000000000008 5 7 C5.659999999999997 7 6.319999999999993 7 7 7 C7.3300000000000125 5.02000000000001 7.659999999999997 3.039999999999992 8 1 C9.319999999999993 0.6699999999999875 10.639999999999986 0.3400000000000034 12 0 C12 3.960000000000008 12 7.9199999999999875 12 12 C10.680000000000007 11.669999999999987 9.360000000000014 11.340000000000003 8 11 C6.680000000000007 11 5.360000000000014 11 4 11 C3.6699999999999875 10.009999999999991 3.3400000000000034 9.02000000000001 3 8 C2.6699999999999875 9.319999999999993 2.3400000000000034 10.639999999999986 2 12 C1.3400000000000034 12 0.6800000000000068 12 0 12 C0 8.039999999999992 0 4.0800000000000125 0 0 Z " fill="#000000" transform="translate(181,234)"/>
<path d="M0 0 C0.9900000000000091 0 1.9799999999999898 0 3 0 C3.990000000000009 1.9799999999999898 4.97999999999999 3.960000000000008 6 6 C6.659999999999997 4.02000000000001 7.319999999999993 2.039999999999992 8 0 C8.990000000000009 0 9.97999999999999 0 11 0 C11 3.960000000000008 11 7.9199999999999875 11 12 C10.340000000000003 12 9.680000000000007 12 9 12 C8.669999999999987 11.340000000000003 8.340000000000003 10.680000000000007 8 10 C7.6699999999999875 10.659999999999997 7.340000000000003 11.319999999999993 7 12 C6.009999999999991 12 5.02000000000001 12 4 12 C3.6699999999999875 11.340000000000003 3.3400000000000034 10.680000000000007 3 10 C2.6699999999999875 10.659999999999997 2.3400000000000034 11.319999999999993 2 12 C1.3400000000000034 12 0.6800000000000068 12 0 12 C0 8.039999999999992 0 4.0800000000000125 0 0 Z " fill="#000000" transform="translate(198,234)"/>
<path d="M0 0 C3 4 3 4 2 11 C-1 13 -1 13 -7 12 C-9 9 -9 9 -9 3 C-6 0 -6 0 0 0 Z M-5 2 C-5.659999999999997 3.6500000000000057 -6.319999999999993 5.300000000000011 -7 7 C-6.009999999999991 8.485000000000014 -6.009999999999991 8.485000000000014 -5 10 C-3.3499999999999943 9.669999999999987 -1.6999999999999886 9.340000000000003 0 9 C0 7.02000000000001 0 5.039999999999992 0 3 C-1.6500000000000057 2.6699999999999875 -3.3000000000000114 2.3400000000000034 -5 2 Z " fill="#000000" transform="translate(174,234)"/>
<path d="M0 0 C8 0 8 0 10 1 C10 4.6299999999999955 10 8.259999999999991 10 12 C9.009999999999991 11.669999999999987 8.02000000000001 11.340000000000003 7 11 C7 10.009999999999991 7 9.02000000000001 7 8 C5.349999999999994 8 3.6999999999999886 8 2 8 C2 9.319999999999993 2 10.639999999999986 2 12 C1.3400000000000034 12 0.6800000000000068 12 0 12 C0 8.039999999999992 0 4.0800000000000125 0 0 Z M2 2 C2 2.990000000000009 2 3.9799999999999898 2 5 C3.9799999999999898 5 5.960000000000008 5 8 5 C7.6699999999999875 4.009999999999991 7.340000000000003 3.0200000000000102 7 2 C5.349999999999994 2 3.6999999999999886 2 2 2 Z " fill="#000000" transform="translate(228,234)"/>
<path d="M0 0 C2.969999999999999 0 5.939999999999998 0 9 0 C9 0.6599999999999966 9 1.3199999999999932 9 2 C7.02000000000001 2 5.039999999999992 2 3 2 C3 2.990000000000009 3 3.9799999999999898 3 5 C4.97999999999999 5 6.960000000000008 5 9 5 C9 5.659999999999997 9 6.319999999999993 9 7 C7.02000000000001 7 5.039999999999992 7 3 7 C3 7.990000000000009 3 8.97999999999999 3 10 C5.310000000000002 10 7.6200000000000045 10 10 10 C10 10.659999999999997 10 11.319999999999993 10 12 C6.699999999999989 12 3.4000000000000057 12 0 12 C0 8.039999999999992 0 4.0800000000000125 0 0 Z " fill="#000000" transform="translate(214,234)"/>
<path d="M0 0 C2.969999999999999 0 5.939999999999998 0 9 0 C9 0.6599999999999966 9 1.3199999999999932 9 2 C7.02000000000001 2 5.039999999999992 2 3 2 C3 2.990000000000009 3 3.9799999999999898 3 5 C4.97999999999999 5 6.960000000000008 5 9 5 C9 5.659999999999997 9 6.319999999999993 9 7 C7.02000000000001 7 5.039999999999992 7 3 7 C3 7.990000000000009 3 8.97999999999999 3 10 C5.310000000000002 10 7.6200000000000045 10 10 10 C10 10.659999999999997 10 11.319999999999993 10 12 C6.699999999999989 12 3.4000000000000057 12 0 12 C0 8.039999999999992 0 4.0800000000000125 0 0 Z " fill="#000000" transform="translate(128,234)"/>
<path d="M0 0 C7 0 7 0 10 3 C10 10 10 10 8 12 C5.360000000000014 12 2.7200000000000273 12 0 12 C0 8.039999999999992 0 4.0800000000000125 0 0 Z M2 2 C2 4.639999999999986 2 7.280000000000001 2 10 C3.6499999999999773 9.669999999999987 5.300000000000011 9.340000000000003 7 9 C7.329999999999984 7.680000000000007 7.660000000000025 6.360000000000014 8 5 C5.353553390593277 1.6464466094067234 5.353553390593277 1.6464466094067234 2 2 Z " fill="#000000" transform="translate(360,234)"/>
<path d="M0 0 C0.6599999999999966 1.3199999999999932 1.3199999999999932 2.6399999999999864 2 4 C1.009999999999991 4 0.020000000000010232 4 -1 4 C-1 3.3400000000000034 -1 2.680000000000007 -1 2 C-2.6500000000000057 2.3300000000000125 -4.300000000000011 2.6599999999999966 -6 3 C-5.6699999999999875 4.97999999999999 -5.340000000000003 6.960000000000008 -5 9 C-1.5349999999999966 8.504999999999995 -1.5349999999999966 8.504999999999995 2 8 C1.6699999999999875 9.319999999999993 1.3400000000000034 10.639999999999986 1 12 C-0.9799999999999898 12.330000000000013 -2.960000000000008 12.659999999999997 -5 13 C-6.319999999999993 11.680000000000007 -7.639999999999986 10.360000000000014 -9 9 C-7.714285714285722 0 -7.714285714285722 0 0 0 Z " fill="#000000" transform="translate(159,234)"/>
<path d="M0 0 C1.9799999999999898 0 3.960000000000008 0 6 0 C6.659999999999997 1.3199999999999932 7.319999999999993 2.6399999999999864 8 4 C5.360000000000014 3.6699999999999875 2.719999999999999 3.3400000000000034 0 3 C0.3300000000000125 4.97999999999999 0.6599999999999966 6.960000000000008 1 9 C4.465000000000003 8.504999999999995 4.465000000000003 8.504999999999995 8 8 C7.6699999999999875 9.319999999999993 7.340000000000003 10.639999999999986 7 12 C2 13 2 13 -2 11 C-3 4 -3 4 0 0 Z " fill="#000000" transform="translate(245,234)"/>
<path d="M0 0 C2.9700000000000273 0 5.939999999999998 0 9 0 C9 0.6599999999999966 9 1.3199999999999932 9 2 C6.689999999999998 2 4.3799999999999955 2 2 2 C2 2.990000000000009 2 3.9799999999999898 2 5 C3.980000000000018 5 5.9599999999999795 5 8 5 C8 5.659999999999997 8 6.319999999999993 8 7 C6.019999999999982 7 4.0400000000000205 7 2 7 C2 7.990000000000009 2 8.97999999999999 2 10 C4.310000000000002 10 6.6200000000000045 10 9 10 C9 10.659999999999997 9 11.319999999999993 9 12 C6.029999999999973 12 3.0600000000000023 12 0 12 C0 8.039999999999992 0 4.0800000000000125 0 0 Z " fill="#000000" transform="translate(258,234)"/>
<path d="M0 0 C8 0 8 0 9 1 C9 2.9799999999999898 9 4.960000000000008 9 7 C6.689999999999998 7.3300000000000125 4.3799999999999955 7.659999999999997 2 8 C2 9.319999999999993 2 10.639999999999986 2 12 C1.339999999999975 12 0.6800000000000068 12 0 12 C0 8.039999999999992 0 4.0800000000000125 0 0 Z M2 2 C2 3.319999999999993 2 4.639999999999986 2 6 C3.6499999999999773 5.6699999999999875 5.300000000000011 5.340000000000003 7 5 C6.670000000000016 4.009999999999991 6.339999999999975 3.0200000000000102 6 2 C4.680000000000007 2 3.3600000000000136 2 2 2 Z " fill="#000000" transform="translate(279,234)"/>
<path d="M0 0 C0.9900000000000091 0.3300000000000125 1.9800000000000182 0.6599999999999966 3 1 C3.660000000000025 2.9799999999999898 4.319999999999993 4.960000000000008 5 7 C5.990000000000009 4.689999999999998 6.980000000000018 2.3799999999999955 8 0 C8.990000000000009 0 9.980000000000018 0 11 0 C8 10 8 10 7 12 C5.680000000000007 11.669999999999987 4.360000000000014 11.340000000000003 3 11 C0 3 0 3 0 0 Z " fill="#000000" transform="translate(292,234)"/>
<path d="M0 0 C3.3000000000000114 0 6.600000000000023 0 10 0 C10 0.6599999999999966 10 1.3199999999999932 10 2 C8.680000000000007 2 7.360000000000014 2 6 2 C6 5.300000000000011 6 8.599999999999994 6 12 C5.339999999999975 12 4.680000000000007 12 4 12 C4 8.699999999999989 4 5.400000000000006 4 2 C2.680000000000007 2 1.3600000000000136 2 0 2 C0 1.3400000000000034 0 0.6800000000000068 0 0 Z " fill="#000000" transform="translate(346,234)"/>
<path d="M0 0 C3.3000000000000114 0 6.600000000000023 0 10 0 C10 0.6599999999999966 10 1.3199999999999932 10 2 C8.680000000000007 2 7.360000000000014 2 6 2 C6 5.300000000000011 6 8.599999999999994 6 12 C5.339999999999975 12 4.680000000000007 12 4 12 C4 8.699999999999989 4 5.400000000000006 4 2 C2.680000000000007 2 1.3600000000000136 2 0 2 C0 1.3400000000000034 0 0.6800000000000068 0 0 Z " fill="#000000" transform="translate(306,234)"/>
<path d="M0 0 C0.660000000000025 0 1.3199999999999932 0 2 0 C2 3.3000000000000114 2 6.599999999999994 2 10 C3.980000000000018 10 5.9599999999999795 10 8 10 C8 10.659999999999997 8 11.319999999999993 8 12 C5.360000000000014 12 2.7200000000000273 12 0 12 C0 8.039999999999992 0 4.0800000000000125 0 0 Z " fill="#000000" transform="translate(335,234)"/>
<path d="M0 0 C1.9799999999999898 0 3.960000000000008 0 6 0 C6 0.6599999999999966 6 1.3199999999999932 6 2 C4.02000000000001 2 2.039999999999992 2 0 2 C0 1.3400000000000034 0 0.6800000000000068 0 0 Z " fill="#000000" transform="translate(141,241)"/>
<path d="M0 0 C0.660000000000025 0 1.3199999999999932 0 2 0 C2 0.6599999999999966 2 1.3199999999999932 2 2 C1.339999999999975 2 0.6800000000000068 2 0 2 C0 1.3400000000000034 0 0.6800000000000068 0 0 Z " fill="#000000" transform="translate(375,244)"/>
<path d="M0 0 C0.660000000000025 0 1.3199999999999932 0 2 0 C2 0.6599999999999966 2 1.3199999999999932 2 2 C1.339999999999975 2 0.6800000000000068 2 0 2 C0 1.3400000000000034 0 0.6800000000000068 0 0 Z " fill="#000000" transform="translate(320,244)"/>
</svg>
