<?xml version="1.0" encoding="UTF-8"?>
<!-- Generator: visioncortex VTracer 0.6.4 -->
<svg version="1.1" xmlns="http://www.w3.org/2000/svg" width="506" height="265">
<path d="M0 0 C0.6599999999999966 0 1.3199999999999932 0 2 0 C2 52.800000000000004 2 105.60000000000001 2 160 C-7.240000000000009 160 -16.47999999999999 160 -26 160 C-26 113.8 -26 67.6 -26 20 C-22.370000000000005 17.03 -18.74000000000001 14.059999999999999 -15 11 C-13.562695312500011 9.9158984375 -12.125390624999994 8.831796875 -10.64453125 7.71484375 C-9.379960937500016 6.7983203125 -8.115390625000003 5.881796875 -6.8125 4.9375 C-5.519570312500008 3.9977734375 -4.226640625000016 3.0580468749999996 -2.89453125 2.08984375 C-1.9393359375000045 1.4001953125 -0.9841406250000091 0.7105468749999999 0 0 Z " fill="#DD390D" transform="translate(246,0)"/>
<path d="M0 0 C0.660000000000025 0.33000000000000007 1.3199999999999932 0.6600000000000001 2 1 C2 36.64 2 72.28 2 109 C-7.240000000000009 109 -16.480000000000018 109 -26 109 C-26.00523681640624 106.285234375 -26.010473632812477 103.57046875 -26.015869140625 100.7734375 C-26.01909683227541 98.97737060546875 -26.02232452392576 97.1813037109375 -26.025650024414063 95.330810546875 C-26.02878707885742 93.36539306640626 -26.031924133300777 91.3999755859375 -26.03515625 89.375 C-26.03752792358398 87.37413330078125 -26.03989959716796 85.3732666015625 -26.042343139648438 83.311767578125 C-26.044483184814453 81.24306396484376 -26.04662322998047 79.1743603515625 -26.048828125 77.04296875 C-26.051849365234375 73.83392822265625 -26.051849365234375 73.83392822265625 -26.054931640625 70.56005859375 C-26.056593322753884 68.9375015258789 -26.056593322753884 68.9375015258789 -26.05828857421875 67.28216552734375 C-26.059678344726535 66.19905090332031 -26.061068115234377 65.11593627929688 -26.0625 64 C-26.064534301757817 62.92204162597656 -26.066568603515634 61.84408325195312 -26.06866455078125 60.73345947265625 C-26.072018127441424 59.12443756103515 -26.072018127441424 59.12443756103515 -26.075439453125 57.48291015625 C-26.079548339843768 55.3603076171875 -26.08365722656248 53.237705078125 -26.087890625 51.05078125 C-26.089698333740216 48.9794189453125 -26.09150604248049 46.908056640625 -26.093368530273438 44.77392578125 C-26.095490951538068 41.761145019531256 -26.095490951538068 41.761145019531256 -26.09765625 38.6875 C-26.105398178100586 35.76366455078125 -26.105398178100586 35.76366455078125 -26.113296508789063 32.78076171875 C-26.11337203979491 30.959477539062505 -26.11344757080076 29.138193359374995 -26.113525390625 27.26171875 C-26.115746002197284 25.66287841796875 -26.11796661376951 24.064038085937497 -26.120254516601563 22.416748046875 C-26.08057052612304 20.95922119140625 -26.040886535644518 19.5016943359375 -26 18 C-25.83265853881835 16.48897705078125 -25.6653170776367 14.9779541015625 -25.492904663085938 13.421142578125 C-25.330246124267603 12.292165527343748 -25.167587585449212 11.1631884765625 -25 10 C-23.28812499999998 9.278125 -21.576250000000016 8.556249999999999 -19.8125 7.8125 C-18.730976562500018 7.361328125 -17.64945312499998 6.91015625 -16.53515625 6.4453125 C-15.368554687500023 5.968359375 -14.201953124999989 5.491406250000001 -13 5 C-11.172753906250023 4.2845703125 -11.172753906250023 4.2845703125 -9.30859375 3.5546875 C-7.547089843749973 2.8779296875 -7.547089843749973 2.8779296875 -5.75 2.1875 C-2.9037500000000023 1.1046875000000007 -2.9037500000000023 1.1046875000000007 0 0 Z " fill="#DD380D" transform="translate(322,9)"/>
<path d="M0 0 C0.9900000000000091 0 1.9800000000000182 0 3 0 C3 33.66 3 67.32000000000001 3 102 C-6.240000000000009 102 -15.480000000000018 102 -25 102 C-25 73.28999999999999 -25 44.58 -25 15 C-16.75 10.049999999999997 -8.5 5.100000000000001 0 0 Z " fill="#DC390D" transform="translate(283,43)"/>
<path d="M0 0 C0.3299999999999841 0 0.6599999999999966 0 1 0 C1 31.349999999999994 1 62.7 1 95 C-7.909999999999997 95 -16.819999999999993 95 -26 95 C-26 68.6 -26 42.19999999999999 -26 15 C-22.039999999999992 12.524999999999999 -22.039999999999992 12.524999999999999 -18 10 C-16.442812500000002 9.116992187500003 -14.885625000000005 8.233984374999999 -13.28125 7.32421875 C-11.703437500000007 6.4541015625 -10.125625000000014 5.583984375 -8.5 4.6875 C-6.102343749999989 3.362988281249997 -6.102343749999989 3.362988281249997 -3.65625 2.01171875 C-2.4496875000000102 1.3478515624999972 -1.243124999999992 0.6839843750000014 0 0 Z " fill="#DD390D" transform="translate(209,42)"/>
<path d="M0 0 C1.2516796874999727 -0.0322265625 2.5033593750000023 -0.064453125 3.79296875 -0.09765625 C5.96826171875 -0.08025390624999318 5.96826171875 -0.08025390624999318 8.1875 -0.0625 C9.645429687499984 -0.053476562500009095 11.103359375000025 -0.04445312499998977 12.60546875 -0.03515625 C14.285761718749995 -0.01775390624999318 14.285761718749995 -0.01775390624999318 16 0 C18.475000000000023 1.4850000000000136 18.475000000000023 1.4850000000000136 21 3 C21.329999999999984 4.319999999999993 21.660000000000025 5.639999999999986 22 7 C19.524999999999977 6.5049999999999955 19.524999999999977 6.5049999999999955 17 6 C17 5.340000000000003 17 4.680000000000007 17 4 C15.143750000000011 3.9793750000000045 13.287500000000023 3.958750000000009 11.375 3.9375 C8.219375000000014 3.968437499999993 8.219375000000014 3.968437499999993 5 4 C3.019999999999982 4.3300000000000125 1.0400000000000205 4.659999999999997 -1 5 C-1.329999999999984 6.650000000000006 -1.660000000000025 8.300000000000011 -2 10 C3.9399999999999977 10.330000000000013 9.879999999999995 10.659999999999997 16 11 C17.649999999999977 11.990000000000009 19.30000000000001 12.97999999999999 21 14 C21.329999999999984 15.97999999999999 21.660000000000025 17.960000000000008 22 20 C21.339999999999975 21.319999999999993 20.680000000000007 22.639999999999986 20 24 C18.350000000000023 24.659999999999997 16.69999999999999 25.319999999999993 15 26 C9.720000000000027 26 4.439999999999998 26 -1 26 C-2.6499999999999773 25.00999999999999 -4.300000000000011 24.02000000000001 -6 23 C-6 21.680000000000007 -6 20.360000000000014 -6 19 C-4.680000000000007 19 -3.3600000000000136 19 -2 19 C-2 19.99000000000001 -2 20.97999999999999 -2 22 C1.0318750000000136 22.061874999999986 1.0318750000000136 22.061874999999986 4.125 22.125 C5.261953124999991 22.14820312500001 6.398906249999982 22.17140624999999 7.5703125 22.1953125 C8.70210937500002 22.130859375 9.833906249999984 22.06640625 11 22 C12.980000000000018 21.340000000000003 14.95999999999998 20.680000000000007 17 20 C17 18.349999999999994 17 16.69999999999999 17 15 C10.399999999999977 14.669999999999987 3.8000000000000114 14.340000000000003 -3 14 C-3.990000000000009 13.340000000000003 -4.980000000000018 12.680000000000007 -6 12 C-6 9.360000000000014 -6 6.719999999999999 -6 4 C-5.009999999999991 3.009999999999991 -4.019999999999982 2.0200000000000102 -3 1 C-2.009999999999991 0.6699999999999875 -1.0199999999999818 0.3400000000000034 0 0 Z " fill="#000000" transform="translate(353,187)"/>
<path d="M0 0 C8.25 0 16.5 0 25 0 C25.99000000000001 0.6599999999999966 26.980000000000018 1.3199999999999932 28 2 C28.329999999999984 3.9799999999999898 28.660000000000025 5.960000000000008 29 8 C28.339999999999975 9.97999999999999 27.680000000000007 11.960000000000008 27 14 C27.329999999999984 14.330000000000013 27.660000000000025 14.659999999999997 28 15 C28 17.97 28 20.939999999999998 28 24 C26.680000000000007 24 25.360000000000014 24 24 24 C23.670000000000016 21.360000000000014 23.339999999999975 18.72 23 16 C16.730000000000018 15.669999999999987 10.45999999999998 15.340000000000003 4 15 C4 17.97 4 20.939999999999998 4 24 C2.680000000000007 24 1.3600000000000136 24 0 24 C0 16.079999999999984 0 8.159999999999997 0 0 Z M4 3 C4 5.969999999999999 4 8.939999999999998 4 12 C5.108593750000011 12.011601562500005 6.217187500000023 12.023203125000009 7.359375 12.03515625 C8.808281249999993 12.044179687499991 10.257187499999986 12.05320312500001 11.75 12.0625 C13.188593749999995 12.074101562500005 14.627187499999991 12.085703125000009 16.109375 12.09765625 C17.393281249999973 12.0654296875 18.677187500000002 12.033203125 20 12 C21.319999999999993 11.669999999999987 22.639999999999986 11.340000000000003 24 11 C24.329999999999984 9.02000000000001 24.660000000000025 7.039999999999992 25 5 C24.670000000000016 4.340000000000003 24.339999999999975 3.680000000000007 24 3 C17.399999999999977 3 10.800000000000011 3 4 3 Z " fill="#000000" transform="translate(264,188)"/>
<path d="M0 0 C8.25 0 16.5 0 25 0 C25.989999999999995 0.6599999999999966 26.980000000000004 1.3199999999999932 28 2 C28 5.300000000000011 28 8.599999999999994 28 12 C27.67 12.659999999999997 27.340000000000003 13.319999999999993 27 14 C27.33 14.659999999999997 27.659999999999997 15.319999999999993 28 16 C28 18.639999999999986 28 21.28 28 24 C26.680000000000007 24 25.36 24 24 24 C23.67 21.360000000000014 23.340000000000003 18.72 23 16 C16.400000000000006 15.669999999999987 9.799999999999997 15.340000000000003 3 15 C3 17.97 3 20.939999999999998 3 24 C2.010000000000005 24 1.019999999999996 24 0 24 C0 16.079999999999984 0 8.159999999999997 0 0 Z M3 3 C3 5.969999999999999 3 8.939999999999998 3 12 C4.1807812499999955 12.011601562500005 5.361562500000005 12.023203125000009 6.578125 12.03515625 C8.119843750000001 12.044179687499991 9.661562500000002 12.05320312500001 11.25 12.0625 C12.781406250000003 12.074101562500005 14.312812500000007 12.085703125000009 15.890625 12.09765625 C17.24671875 12.0654296875 18.6028125 12.033203125 20 12 C21.319999999999993 11.669999999999987 22.64 11.340000000000003 24 11 C24.33 9.02000000000001 24.659999999999997 7.039999999999992 25 5 C24.340000000000003 4.340000000000003 23.680000000000007 3.680000000000007 23 3 C16.400000000000006 3 9.799999999999997 3 3 3 Z " fill="#000000" transform="translate(90,188)"/>
<path d="M0 0 C8.25 0 16.5 0 25 0 C25 0.9900000000000091 25 1.9799999999999898 25 3 C18.069999999999993 3 11.139999999999986 3 4 3 C4 5.310000000000002 4 7.6200000000000045 4 10 C10.600000000000023 10 17.19999999999999 10 24 10 C24 10.990000000000009 24 11.97999999999999 24 13 C17.399999999999977 13 10.800000000000011 13 4 13 C4 15.639999999999986 4 18.28 4 21 C10.930000000000007 21 17.860000000000014 21 25 21 C25 21.99000000000001 25 22.97999999999999 25 24 C16.75 24 8.5 24 0 24 C0 16.079999999999984 0 8.159999999999997 0 0 Z " fill="#000000" transform="translate(308,188)"/>
<path d="M0 0 C8.25 0 16.5 0 25 0 C25 0.9900000000000091 25 1.9799999999999898 25 3 C18.069999999999993 3 11.139999999999986 3 4 3 C4 5.310000000000002 4 7.6200000000000045 4 10 C10.599999999999994 10 17.19999999999999 10 24 10 C24 10.990000000000009 24 11.97999999999999 24 13 C17.400000000000006 13 10.800000000000011 13 4 13 C4 15.639999999999986 4 18.28 4 21 C10.930000000000007 21 17.860000000000014 21 25 21 C25 21.99000000000001 25 22.97999999999999 25 24 C16.75 24 8.5 24 0 24 C0 16.079999999999984 0 8.159999999999997 0 0 Z " fill="#000000" transform="translate(134,188)"/>
<path d="M0 0 C8.25 0 16.5 0 25 0 C26.319999999999993 0.9900000000000091 27.639999999999986 1.9799999999999898 29 3 C29 8.939999999999998 29 14.879999999999995 29 21 C27.680000000000007 21.99000000000001 26.360000000000014 22.97999999999999 25 24 C16.75 24 8.5 24 0 24 C0 16.079999999999984 0 8.159999999999997 0 0 Z M3 3 C3 8.939999999999998 3 14.879999999999995 3 21 C9.599999999999994 21 16.19999999999999 21 23 21 C23.659999999999997 20.670000000000016 24.319999999999993 20.340000000000003 25 20 C25.329999999999984 19.00999999999999 25.659999999999997 18.02000000000001 26 17 C26.04124999999999 15.53562500000001 26.08250000000001 14.071249999999992 26.125 12.5625 C26.08375000000001 11.056874999999991 26.04249999999999 9.55125000000001 26 8 C25.670000000000016 6.680000000000007 25.340000000000003 5.360000000000014 25 4 C24.340000000000003 3.6699999999999875 23.680000000000007 3.3400000000000034 23 3 C16.400000000000006 3 9.800000000000011 3 3 3 Z " fill="#000000" transform="translate(174,188)"/>
<path d="M0 0 C1.3960546874999977 -0.0322265625 2.7921093749999955 -0.064453125 4.23046875 -0.09765625 C5.8662890624999875 -0.08605468749999545 7.502109375000003 -0.0744531249999909 9.1875 -0.0625 C10.8310546875 -0.053476562500009095 12.474609375 -0.04445312499998977 14.16796875 -0.03515625 C16.064824218750005 -0.01775390624999318 16.064824218750005 -0.01775390624999318 18 0 C20.474999999999994 1.4850000000000136 20.474999999999994 1.4850000000000136 23 3 C23.329999999999984 4.97999999999999 23.659999999999997 6.960000000000008 24 9 C22.680000000000007 9 21.360000000000014 9 20 9 C19.670000000000016 7.680000000000007 19.340000000000003 6.360000000000014 19 5 C17.680000000000007 4.6699999999999875 16.360000000000014 4.340000000000003 15 4 C13.074140624999984 3.95166015625 13.074140624999984 3.95166015625 11.109375 3.90234375 C9.670781250000005 3.9139453125000045 8.232187500000009 3.925546875000009 6.75 3.9375 C4.1924999999999955 3.9581249999999955 1.634999999999991 3.978749999999991 -1 4 C-1 9.939999999999998 -1 15.879999999999995 -1 22 C1.5575000000000045 22.020624999999995 4.115000000000009 22.04124999999999 6.75 22.0625 C8.188593749999995 22.074101562500005 9.627187499999991 22.08570312500001 11.109375 22.09765625 C12.393281250000001 22.0654296875 13.677187500000002 22.033203125 15 22 C16.319999999999993 21.670000000000016 17.639999999999986 21.340000000000003 19 21 C19.329999999999984 19.680000000000007 19.659999999999997 18.360000000000014 20 17 C21.319999999999993 17 22.639999999999986 17 24 17 C23.670000000000016 18.97999999999999 23.340000000000003 20.960000000000008 23 23 C20.525000000000006 24.485000000000014 20.525000000000006 24.485000000000014 18 26 C12.060000000000002 26 6.1200000000000045 26 0 26 C-1.6500000000000057 25.00999999999999 -3.3000000000000114 24.02000000000001 -5 23 C-5.3300000000000125 22.00999999999999 -5.659999999999997 21.02000000000001 -6 20 C-6.0322265625 18.892695312499995 -6.064453125 17.78539062499999 -6.09765625 16.64453125 C-6.0860546874999955 15.379960937499987 -6.074453124999991 14.115390625000003 -6.0625 12.8125 C-6.053476562500009 11.540195312500003 -6.04445312499999 10.267890625000007 -6.03515625 8.95703125 C-6.0235546874999955 7.981210937500009 -6.011953124999991 7.00539062499999 -6 6 C-5.009999999999991 4.349999999999994 -4.02000000000001 2.6999999999999886 -3 1 C-2.009999999999991 0.6699999999999875 -1.0200000000000102 0.3400000000000034 0 0 Z " fill="#000000" transform="translate(224,187)"/>
<path d="M0 0 C9.240000000000009 0 18.480000000000018 0 28 0 C28 0.9900000000000091 28 1.9799999999999898 28 3 C24.04000000000002 3 20.079999999999984 3 16 3 C16 9.930000000000007 16 16.860000000000014 16 24 C14.680000000000007 24 13.360000000000014 24 12 24 C12 17.069999999999993 12 10.139999999999986 12 3 C8.04000000000002 3 4.079999999999984 3 0 3 C0 2.009999999999991 0 1.0200000000000102 0 0 Z " fill="#000000" transform="translate(389,188)"/>
<path d="M0 0 C1.3199999999999932 0.3300000000000125 2.6399999999999864 0.6599999999999966 4 1 C4.3300000000000125 2.9799999999999898 4.659999999999997 4.960000000000008 5 7 C5.659999999999997 7 6.319999999999993 7 7 7 C7.3300000000000125 5.02000000000001 7.659999999999997 3.039999999999992 8 1 C9.319999999999993 0.6699999999999875 10.639999999999986 0.3400000000000034 12 0 C12 3.960000000000008 12 7.9199999999999875 12 12 C10.680000000000007 11.669999999999987 9.360000000000014 11.340000000000003 8 11 C6.680000000000007 11 5.360000000000014 11 4 11 C3.6699999999999875 10.009999999999991 3.3400000000000034 9.02000000000001 3 8 C2.6699999999999875 9.319999999999993 2.3400000000000034 10.639999999999986 2 12 C1.3400000000000034 12 0.6800000000000068 12 0 12 C0 8.039999999999992 0 4.0800000000000125 0 0 Z " fill="#000000" transform="translate(181,234)"/>
<path d="M0 0 C0.9900000000000091 0 1.9799999999999898 0 3 0 C3.990000000000009 1.9799999999999898 4.97999999999999 3.960000000000008 6 6 C6.659999999999997 4.02000000000001 7.319999999999993 2.039999999999992 8 0 C8.990000000000009 0 9.97999999999999 0 11 0 C11 3.960000000000008 11 7.9199999999999875 11 12 C10.340000000000003 12 9.680000000000007 12 9 12 C8.669999999999987 11.340000000000003 8.340000000000003 10.680000000000007 8 10 C7.6699999999999875 10.659999999999997 7.340000000000003 11.319999999999993 7 12 C6.009999999999991 12 5.02000000000001 12 4 12 C3.6699999999999875 11.340000000000003 3.3400000000000034 10.680000000000007 3 10 C2.6699999999999875 10.659999999999997 2.3400000000000034 11.319999999999993 2 12 C1.3400000000000034 12 0.6800000000000068 12 0 12 C0 8.039999999999992 0 4.0800000000000125 0 0 Z " fill="#000000" transform="translate(198,234)"/>
<path d="M0 0 C1.9799999999999898 0 3.960000000000008 0 6 0 C6.990000000000009 1.3199999999999932 7.97999999999999 2.6399999999999864 9 4 C8.669999999999987 6.310000000000002 8.340000000000003 8.620000000000005 8 11 C7.009999999999991 11.659999999999997 6.02000000000001 12.319999999999993 5 13 C2.030000000000001 12.504999999999995 2.030000000000001 12.504999999999995 -1 12 C-1.6599999999999966 11.009999999999991 -2.319999999999993 10.02000000000001 -3 9 C-3 7.02000000000001 -3 5.039999999999992 -3 3 C-2.009999999999991 2.009999999999991 -1.0200000000000102 1.0200000000000102 0 0 Z M1 2 C0.3400000000000034 3.6500000000000057 -0.3199999999999932 5.300000000000011 -1 7 C-0.009999999999990905 8.485000000000014 -0.009999999999990905 8.485000000000014 1 10 C2.6500000000000057 9.669999999999987 4.300000000000011 9.340000000000003 6 9 C6 7.02000000000001 6 5.039999999999992 6 3 C4.349999999999994 2.6699999999999875 2.6999999999999886 2.3400000000000034 1 2 Z " fill="#000000" transform="translate(168,234)"/>
<path d="M0 0 C2.6399999999999864 0 5.280000000000001 0 8 0 C8.659999999999997 0.3300000000000125 9.319999999999993 0.6599999999999966 10 1 C10 4.6299999999999955 10 8.259999999999991 10 12 C9.009999999999991 11.669999999999987 8.02000000000001 11.340000000000003 7 11 C7 10.009999999999991 7 9.02000000000001 7 8 C5.349999999999994 8 3.6999999999999886 8 2 8 C2 9.319999999999993 2 10.639999999999986 2 12 C1.3400000000000034 12 0.6800000000000068 12 0 12 C0 8.039999999999992 0 4.0800000000000125 0 0 Z M2 2 C2 2.990000000000009 2 3.9799999999999898 2 5 C3.9799999999999898 5 5.960000000000008 5 8 5 C7.6699999999999875 4.009999999999991 7.340000000000003 3.0200000000000102 7 2 C5.349999999999994 2 3.6999999999999886 2 2 2 Z " fill="#000000" transform="translate(228,234)"/>
<path d="M0 0 C2.969999999999999 0 5.939999999999998 0 9 0 C9 0.6599999999999966 9 1.3199999999999932 9 2 C7.02000000000001 2 5.039999999999992 2 3 2 C3 2.990000000000009 3 3.9799999999999898 3 5 C4.97999999999999 5 6.960000000000008 5 9 5 C9 5.659999999999997 9 6.319999999999993 9 7 C7.02000000000001 7 5.039999999999992 7 3 7 C3 7.990000000000009 3 8.97999999999999 3 10 C5.310000000000002 10 7.6200000000000045 10 10 10 C10 10.659999999999997 10 11.319999999999993 10 12 C6.699999999999989 12 3.4000000000000057 12 0 12 C0 8.039999999999992 0 4.0800000000000125 0 0 Z " fill="#000000" transform="translate(214,234)"/>
<path d="M0 0 C2.969999999999999 0 5.939999999999998 0 9 0 C9 0.6599999999999966 9 1.3199999999999932 9 2 C7.02000000000001 2 5.039999999999992 2 3 2 C3 2.990000000000009 3 3.9799999999999898 3 5 C4.97999999999999 5 6.960000000000008 5 9 5 C9 5.659999999999997 9 6.319999999999993 9 7 C7.02000000000001 7 5.039999999999992 7 3 7 C3 7.990000000000009 3 8.97999999999999 3 10 C5.310000000000002 10 7.6200000000000045 10 10 10 C10 10.659999999999997 10 11.319999999999993 10 12 C6.699999999999989 12 3.4000000000000057 12 0 12 C0 8.039999999999992 0 4.0800000000000125 0 0 Z " fill="#000000" transform="translate(128,234)"/>
<path d="M0 0 C2.3100000000000023 0 4.6200000000000045 0 7 0 C7.990000000000009 0.9900000000000091 8.980000000000018 1.9799999999999898 10 3 C10 5.310000000000002 10 7.6200000000000045 10 10 C9.339999999999975 10.659999999999997 8.680000000000007 11.319999999999993 8 12 C5.360000000000014 12 2.7200000000000273 12 0 12 C0 8.039999999999992 0 4.0800000000000125 0 0 Z M2 2 C2 4.639999999999986 2 7.280000000000001 2 10 C3.6499999999999773 9.669999999999987 5.300000000000011 9.340000000000003 7 9 C7.329999999999984 7.680000000000007 7.660000000000025 6.360000000000014 8 5 C7.009999999999991 4.009999999999991 6.019999999999982 3.0200000000000102 5 2 C4.009999999999991 2 3.019999999999982 2 2 2 Z " fill="#000000" transform="translate(360,234)"/>
<path d="M0 0 C1.9799999999999898 0 3.960000000000008 0 6 0 C6.659999999999997 1.3199999999999932 7.319999999999993 2.6399999999999864 8 4 C7.009999999999991 4 6.02000000000001 4 5 4 C5 3.3400000000000034 5 2.680000000000007 5 2 C3.3499999999999943 2.3300000000000125 1.6999999999999886 2.6599999999999966 0 3 C0.3300000000000125 4.97999999999999 0.6599999999999966 6.960000000000008 1 9 C4.465000000000003 8.504999999999995 4.465000000000003 8.504999999999995 8 8 C7.6699999999999875 9.319999999999993 7.340000000000003 10.639999999999986 7 12 C5.02000000000001 12.330000000000013 3.039999999999992 12.659999999999997 1 13 C-0.3199999999999932 11.680000000000007 -1.6399999999999864 10.360000000000014 -3 9 C-2.6699999999999875 6.689999999999998 -2.3400000000000034 4.3799999999999955 -2 2 C-1.3400000000000034 1.3400000000000034 -0.6800000000000068 0.6800000000000068 0 0 Z " fill="#000000" transform="translate(153,234)"/>
<path d="M0 0 C1.9799999999999898 0 3.960000000000008 0 6 0 C6.659999999999997 1.3199999999999932 7.319999999999993 2.6399999999999864 8 4 C5.360000000000014 3.6699999999999875 2.719999999999999 3.3400000000000034 0 3 C0.3300000000000125 4.97999999999999 0.6599999999999966 6.960000000000008 1 9 C4.465000000000003 8.504999999999995 4.465000000000003 8.504999999999995 8 8 C7.6699999999999875 9.319999999999993 7.340000000000003 10.639999999999986 7 12 C5.349999999999994 12.330000000000013 3.6999999999999886 12.659999999999997 2 13 C0.6800000000000068 12.340000000000003 -0.6399999999999864 11.680000000000007 -2 11 C-2.3300000000000125 8.689999999999998 -2.6599999999999966 6.3799999999999955 -3 4 C-2.009999999999991 2.680000000000007 -1.0200000000000102 1.3600000000000136 0 0 Z " fill="#000000" transform="translate(245,234)"/>
<path d="M0 0 C2.9700000000000273 0 5.939999999999998 0 9 0 C9 0.6599999999999966 9 1.3199999999999932 9 2 C6.689999999999998 2 4.3799999999999955 2 2 2 C2 2.990000000000009 2 3.9799999999999898 2 5 C3.980000000000018 5 5.9599999999999795 5 8 5 C8 5.659999999999997 8 6.319999999999993 8 7 C6.019999999999982 7 4.0400000000000205 7 2 7 C2 7.990000000000009 2 8.97999999999999 2 10 C4.310000000000002 10 6.6200000000000045 10 9 10 C9 10.659999999999997 9 11.319999999999993 9 12 C6.029999999999973 12 3.0600000000000023 12 0 12 C0 8.039999999999992 0 4.0800000000000125 0 0 Z " fill="#000000" transform="translate(258,234)"/>
<path d="M0 0 C2.6399999999999864 0 5.279999999999973 0 8 0 C8.329999999999984 0.3300000000000125 8.660000000000025 0.6599999999999966 9 1 C9 2.9799999999999898 9 4.960000000000008 9 7 C6.689999999999998 7.3300000000000125 4.3799999999999955 7.659999999999997 2 8 C2 9.319999999999993 2 10.639999999999986 2 12 C1.339999999999975 12 0.6800000000000068 12 0 12 C0 8.039999999999992 0 4.0800000000000125 0 0 Z M2 2 C2 3.319999999999993 2 4.639999999999986 2 6 C3.6499999999999773 5.6699999999999875 5.300000000000011 5.340000000000003 7 5 C6.670000000000016 4.009999999999991 6.339999999999975 3.0200000000000102 6 2 C4.680000000000007 2 3.3600000000000136 2 2 2 Z " fill="#000000" transform="translate(279,234)"/>
<path d="M0 0 C0.9900000000000091 0.3300000000000125 1.9800000000000182 0.6599999999999966 3 1 C3.660000000000025 2.9799999999999898 4.319999999999993 4.960000000000008 5 7 C5.990000000000009 4.689999999999998 6.980000000000018 2.3799999999999955 8 0 C8.990000000000009 0 9.980000000000018 0 11 0 C10.525624999999991 1.6087499999999864 10.051249999999982 3.217500000000001 9.5625 4.875 C9.046875 6.566249999999997 8.53125 8.257499999999993 8 10 C7.670000000000016 10.659999999999997 7.339999999999975 11.319999999999993 7 12 C5.680000000000007 11.669999999999987 4.360000000000014 11.340000000000003 3 11 C2.5049999999999955 9.741874999999993 2.009999999999991 8.483749999999986 1.5 7.1875 C1.0049999999999955 5.805624999999992 0.5099999999999909 4.4237500000000125 0 3 C0 2.009999999999991 0 1.0200000000000102 0 0 Z " fill="#000000" transform="translate(292,234)"/>
<path d="M0 0 C3.3000000000000114 0 6.600000000000023 0 10 0 C10 0.6599999999999966 10 1.3199999999999932 10 2 C8.680000000000007 2 7.360000000000014 2 6 2 C6 5.300000000000011 6 8.599999999999994 6 12 C5.339999999999975 12 4.680000000000007 12 4 12 C4 8.699999999999989 4 5.400000000000006 4 2 C2.680000000000007 2 1.3600000000000136 2 0 2 C0 1.3400000000000034 0 0.6800000000000068 0 0 Z " fill="#000000" transform="translate(346,234)"/>
<path d="M0 0 C3.3000000000000114 0 6.600000000000023 0 10 0 C10 0.6599999999999966 10 1.3199999999999932 10 2 C8.680000000000007 2 7.360000000000014 2 6 2 C6 5.300000000000011 6 8.599999999999994 6 12 C5.339999999999975 12 4.680000000000007 12 4 12 C4 8.699999999999989 4 5.400000000000006 4 2 C2.680000000000007 2 1.3600000000000136 2 0 2 C0 1.3400000000000034 0 0.6800000000000068 0 0 Z " fill="#000000" transform="translate(306,234)"/>
<path d="M0 0 C0.660000000000025 0 1.3199999999999932 0 2 0 C2 3.3000000000000114 2 6.599999999999994 2 10 C3.980000000000018 10 5.9599999999999795 10 8 10 C8 10.659999999999997 8 11.319999999999993 8 12 C5.360000000000014 12 2.7200000000000273 12 0 12 C0 8.039999999999992 0 4.0800000000000125 0 0 Z " fill="#000000" transform="translate(335,234)"/>
<path d="M0 0 C1.9799999999999898 0 3.960000000000008 0 6 0 C6 0.6599999999999966 6 1.3199999999999932 6 2 C4.02000000000001 2 2.039999999999992 2 0 2 C0 1.3400000000000034 0 0.6800000000000068 0 0 Z " fill="#000000" transform="translate(141,241)"/>
<path d="M0 0 C0.660000000000025 0 1.3199999999999932 0 2 0 C2 0.6599999999999966 2 1.3199999999999932 2 2 C1.339999999999975 2 0.6800000000000068 2 0 2 C0 1.3400000000000034 0 0.6800000000000068 0 0 Z " fill="#000000" transform="translate(375,244)"/>
<path d="M0 0 C0.660000000000025 0 1.3199999999999932 0 2 0 C2 0.6599999999999966 2 1.3199999999999932 2 2 C1.339999999999975 2 0.6800000000000068 2 0 2 C0 1.3400000000000034 0 0.6800000000000068 0 0 Z " fill="#000000" transform="translate(320,244)"/>
</svg>
