<?xml version="1.0" encoding="utf-8" ?>
<svg baseProfile="full" height="400" version="1.1" width="400" xmlns="http://www.w3.org/2000/svg" xmlns:ev="http://www.w3.org/2001/xml-events" xmlns:xlink="http://www.w3.org/1999/xlink"><defs /><path d="M 197.45712000000003,197.45712000000003 C 197.45712000000003,201.54288000000003 201.54288000000003,201.54288000000003 201.54288000000003,197.45712000000003 Z" fill="rgb(254,184,91)" stroke="none" stroke-width="0" /><path d="M 111.64099999999999,159.39125 C 112.35099999999997,160.60875000000001 114.23425,160.985 114.68825000000001,160.0 Z" fill="rgb(94,39,82)" stroke="none" stroke-width="0" /><path d="M 191.05025,208.76049999999998 C 188.295,209.10900000000004 189.55425,214.83500000000004 193.08800000000002,218.02474999999998 Z" fill="rgb(94,39,82)" stroke="none" stroke-width="0" /><path d="M 184.45232000000001,95.75488 C 184.52032,96.27583999999999 185.04624,96.24639999999998 184.98112,95.72287999999999 Z" fill="rgb(94,39,82)" stroke="none" stroke-width="0" /><path d="M 200.6072,189.6376 C 200.21872,189.86064 200.39216,190.36463999999998 200.78192,190.13711999999998 Z" fill="rgb(239,60,106)" stroke="none" stroke-width="0" /><path d="M 213.10208,278.99359999999996 C 212.87055999999998,279.65824 213.37856000000002,280.01759999999996 213.6488,279.33056 Z" fill="rgb(236,145,79)" stroke="none" stroke-width="0" /><path d="M 132.31423999999998,170.77472 C 132.90416,171.23552 133.18464,171.22528 132.59696,170.76448 Z" fill="rgb(236,145,79)" stroke="none" stroke-width="0" /><path d="M 196.45337999999995,151.98596000000003 C 194.12924999999998,152.57420000000002 193.00794,154.25493000000003 194.2133,155.34736 Z" fill="rgb(236,145,79)" stroke="none" stroke-width="0" /><path d="M 177.92079999999999,110.41328 C 178.15424,110.67888000000002 178.57616,110.58736 178.34879999999998,110.32048 Z" fill="rgb(236,145,79)" stroke="none" stroke-width="0" /><path d="M 202.09616,224.16288000000003 C 202.17344,224.332 202.40335999999996,224.33696000000003 202.32704,224.16816 Z" fill="rgb(254,168,142)" stroke="none" stroke-width="0" /><path d="M 180.30559999999997,120.19136 C 180.29503999999997,120.60384 180.69472,120.80575999999999 180.70463999999998,120.39903999999999 Z" fill="rgb(254,168,142)" stroke="none" stroke-width="0" /><path d="M 175.90832,203.65215999999998 C 176.29296,204.76415999999998 177.1064,205.33152 176.69232,204.25216 Z" fill="rgb(63,13,56)" stroke="none" stroke-width="0" /><path d="M 184.20256,97.01487999999998 C 184.26496,97.52095999999999 184.79648,97.48591999999998 184.73600000000002,96.97824 Z" fill="rgb(63,13,56)" stroke="none" stroke-width="0" /><path d="M 196.28175,224.55724999999998 C 195.46224999999998,224.65675 195.1095,225.50699999999998 195.711,225.93300000000002 Z" fill="rgb(251,238,232)" stroke="none" stroke-width="0" /><path d="M 163.0195,106.46225 C 163.13524999999998,107.24375 163.89324999999997,107.41199999999998 164.24599999999998,106.7345 Z" fill="rgb(251,238,232)" stroke="none" stroke-width="0" /><path d="M 177.66384,203.62176 C 178.0528,204.75359999999998 178.85168,205.36256 178.43168000000003,204.26208 Z" fill="rgb(159,76,83)" stroke="none" stroke-width="0" /><path d="M 182.95875,109.37725 C 180.0235,108.91325 178.16125,110.2275 179.94575,111.50375000000001 Z" fill="rgb(159,76,83)" stroke="none" stroke-width="0" /><path d="M 104.659,159.76574999999997 C 104.24925,160.40525 104.877,161.0375 105.67474999999999,160.78875 Z" fill="rgb(173,214,231)" stroke="none" stroke-width="0" /><path d="M 195.70368000000002,259.23728000000006 C 195.61712,260.13472 195.79584,260.26128 195.88335999999998,259.36672 Z" fill="rgb(140,161,153)" stroke="none" stroke-width="0" /><path d="M 104.72448,159.63232 C 104.61680000000001,159.77039999999997 104.77568,159.86784 104.88304000000001,159.72943999999998 Z" fill="rgb(140,161,153)" stroke="none" stroke-width="0" /><path d="M 163.6528,107.44368 C 163.67824000000002,107.57679999999999 163.84736,107.55632 163.8216,107.42320000000001 Z" fill="rgb(140,161,153)" stroke="none" stroke-width="0" /></svg>