<?xml version="1.0" encoding="UTF-8"?>
<!-- Generator: visioncortex VTracer 0.6.4 -->
<svg version="1.1" xmlns="http://www.w3.org/2000/svg" width="506" height="265">
<path d="M0 0 C0 52.800000000000004 0 105.60000000000001 0 160 C-9.240000000000009 160 -18.47999999999999 160 -28 160 C-28.22143859879725 143.87834089455822 -28.22143859879725 143.87834089455822 -28.282150268554688 138.88563537597656 C-28.284320938875908 138.7075770205725 -28.2864916091971 138.52951866516844 -28.288728057406843 138.34606460202485 C-28.36169902435438 132.34400747336002 -28.41941587764569 126.34190386223442 -28.465774536132813 120.33958435058594 C-28.46729316390119 120.14346360829659 -28.468811791669566 119.94734286600723 -28.470376438461244 119.74527907092124 C-28.503309542803294 115.48155937569743 -28.533779937461958 111.2178253988266 -28.561718624085188 106.95407012477517 C-28.575437588115847 104.86268747066943 -28.589699920105403 102.77130867957194 -28.604248046875 100.679931640625 C-28.605686396518735 100.47183049510232 -28.60712474616244 100.26372934957966 -28.608606682159007 100.04932210873812 C-28.655362552593374 93.32142821980602 -28.737891711362607 86.59456024090922 -28.839269428513944 79.86728620994836 C-28.943384954403598 72.94565232453556 -29.010820211869827 66.02458445454907 -29.033064890885726 59.1021808560472 C-29.036233916948532 58.12124452066707 -29.039815901242946 57.140310095370296 -29.043649673461914 56.15937614440918 C-29.04439132656435 55.96634188419674 -29.045132979666818 55.773307623984294 -29.045897107105702 55.57442384073511 C-29.058825365404743 52.48460829882537 -29.109635850243677 49.39655913342901 -29.17515237350017 46.30746018793434 C-29.24043118618303 43.19053201374688 -29.26452656623809 40.075327369725336 -29.248515151441097 36.957741625607014 C-29.24095121350601 35.271518446446954 -29.25156173053935 33.59101258309694 -29.311260223388672 31.905406951904297 C-29.57303228981297 24.13073977802004 -29.57303228981297 24.13073977802004 -28.357524126768112 20.735000044107437 C-27.150863397029354 18.254340353814914 -24.842467243145734 16.475680632338435 -22.689773559570313 14.838241577148438 C-21.27876593344618 13.80142524653767 -19.83164292835994 12.829696998214672 -18.357252717018127 11.885764002799988 C-16.54724861298189 10.72381448273299 -14.868580562449864 9.403394547079406 -13.179381929337978 8.075182981789112 C-12.094466471988596 7.23362114716328 -10.980156113686519 6.430940399326227 -9.871337890625 5.621337890625 C-9.06401196566381 5.031736945163488 -8.262386513435388 4.434796154753198 -7.461600303649902 3.8363561630249023 C-6.8248815365437 3.3620854568860707 -6.185028098733653 2.8922005001343316 -5.544160842895508 2.423555374145508 C-5.246045329125991 2.2045792144572287 -4.949007537845091 1.9841266216083147 -4.653181076049805 1.7620677947998047 C-4.2486292095127 1.4591519943170312 -3.8391248792515853 1.1628846494519394 -3.429443359375 0.866943359375 C-3.2005894470214855 0.6986753845214844 -2.971735534667971 0.5304074096679687 -2.7359466552734375 0.3570404052734375 C-2 -0.00000000000000005551115123125783 -2 -0.00000000000000005551115123125783 0 0 Z " fill="#DD390D" transform="translate(248,0)"/>
<path d="M0 0 C0.5358320474624634 0.28452467918396174 0.5358320474624634 0.28452467918396174 0.9742012023925781 0.766016960144043 C1.2950637183278673 2.1625277687598796 1.2352018217076761 3.5600714504482625 1.2147102355957031 4.9863691329956055 C1.215581967254593 5.432713114080245 1.2173323582438798 5.879056104547921 1.2198885679244995 6.325393617153168 C1.2243729994422097 7.554634552558291 1.2163446504583248 8.783528748070975 1.2063324451446533 10.012725472450256 C1.197715363262148 11.337192066787654 1.2006168469849285 12.661638262489099 1.2021369934082031 13.986124992370605 C1.2031869699228537 16.28176622718594 1.1968988807244045 18.577293993751795 1.1856613159179688 20.87290668487549 C1.169424229393826 24.191978922632586 1.1642001795620445 27.51099615556646 1.1616853326559067 30.830103807151318 C1.1573053847594679 36.214778509377304 1.1439882382032351 41.59939270207117 1.1250801086425781 46.98403453826904 C1.1067290115580022 52.2154767650452 1.092568767405396 57.44690257137506 1.0840644836425781 62.67837047576904 C1.0835390366613638 63.00070327468217 1.0830135896802062 63.32303607359529 1.0824722200632095 63.65513653308153 C1.079862192004839 65.272145490489 1.0773347647827904 66.88915456444892 1.0748484134674072 68.50616371631622 C1.0541065753750445 81.92616853663596 1.0172319158143637 95.34606146584845 0.9742012023925781 108.76601696014404 C-8.265798797607431 108.76601696014404 -17.50579879760744 108.76601696014404 -27.025798797607422 108.76601696014404 C-27.047898893427373 97.30932728707003 -27.06634190049374 85.85265793380745 -27.07686412706971 74.39595299959183 C-27.078114636213172 73.03932714686803 -27.079408977752678 71.68270133927157 -27.080730438232422 70.32607555389404 C-27.080992748662823 70.0560280930996 -27.081255059093223 69.78598063230514 -27.081525318324566 69.50774991512299 C-27.08586098804716 65.15147525228038 -27.093736823222514 60.7952139643164 -27.10295159369707 56.43894720077515 C-27.112346883390614 51.95954024882813 -27.11786676905473 47.48014023766035 -27.1198872923851 43.00072383880615 C-27.121250395578386 40.24302059071058 -27.125534452887564 37.485355164407366 -27.133715264499187 34.727663576602936 C-27.139055438114042 32.8292973005453 -27.140586823380488 30.930950196253406 -27.139300175011158 29.032576978206635 C-27.138667975622297 27.941966571382594 -27.139543977177993 26.8514216115954 -27.145004272460938 25.760823249816895 C-27.163795414699166 21.772026759896093 -27.128540260254226 17.79184603088738 -26.71433448046446 13.82075846195221 C-26.67889907520879 13.474862833712109 -26.646594820653377 13.128629022714989 -26.617755837738514 12.782121062278748 C-26.526517405765162 11.730603814593781 -26.39548390755033 10.757044068845353 -26.025798797607422 9.766016960144043 C-25.15909846394476 8.79127835355754 -24.176896053198618 8.254372617689079 -23.000621795654297 7.724909782409668 C-22.779315948486328 7.663226127624512 -22.55801010131836 7.6015424728393555 -22.329998016357422 7.537989616394043 C-22.076999359130866 7.462841300964357 -21.82400070190431 7.387692985534667 -21.563335418701172 7.310267448425293 C-21.30344833374022 7.23378978729248 -21.04356124877927 7.157312126159667 -20.775798797607422 7.078516960144043 C-20.242278776977344 6.894755806217585 -19.70989364809992 6.707670107940309 -19.178630828857422 6.517481803894043 C-18.05510094355344 6.119249681573233 -16.927444312345926 5.73913714427243 -15.794353485107422 5.369044303894043 C-13.966788771668575 4.760828939950667 -12.189471547515382 4.049001213448388 -10.408611297607422 3.316798210144043 C-9.816562849330182 3.0759750586928387 -9.224441233000562 2.8353317025967772 -8.632244110107422 2.594874382019043 C-7.7704013276815544 2.2448677022392225 -6.9088422197518184 1.8943269072813074 -6.048625946044922 1.540339469909668 C-5.249616264031943 1.2144492106196463 -4.447187219615216 0.8991488238344107 -3.642986297607422 0.586329460144043 C-3.4070173645019395 0.48770107269287166 -3.171048431396457 0.3890726852416986 -2.927928924560547 0.28745555877685547 C-2.7061195373535156 0.20319820404052713 -2.4843101501464844 0.11894084930419879 -2.255779266357422 0.03213024139404297 C-2.0654713439941474 -0.04383380889892585 -1.875163421630873 -0.11979785919189467 -1.6790885925292969 -0.19806385040283203 C-1.02849933362387 -0.23383455894357574 -0.6178162339383562 -0.19372098897425083 0 0 Z " fill="#DD380D" transform="translate(323.0257987976074,9.233983039855957)"/>
<path d="M0 0 C0 33.66 0 67.32000000000001 0 102 C-9.240000000000009 102 -18.480000000000018 102 -28 102 C-28.554472931120984 91.17088774462326 -29.0144591875802 80.35543076994524 -29.276633236557245 69.51612242683768 C-29.307889739239045 68.22857824592309 -29.340248843132542 66.94106398634501 -29.373291015625 65.653564453125 C-29.379848776385188 65.39731562443077 -29.386406537145376 65.14106679573655 -29.3931630179286 64.87705285102129 C-29.487783603631215 61.26922353475517 -29.641955065195305 57.66819493083375 -29.843361422419548 54.06481321156025 C-30.1891580499331 47.876469654414535 -30.426446182446654 41.69480833451567 -30.44140625 35.49609375 C-30.44217180788516 35.25815154969692 -30.442937365770348 35.02020934939384 -30.443726122379303 34.77505677938461 C-30.46792173152096 20.45763840387896 -30.46792173152096 20.45763840387896 -28 15 C-26.424225517433626 12.070191153650704 -23.874304719493523 9.879266403907934 -21.201866928488016 7.973614331334829 C-16.48900483301287 4.715571763136552 -11.058014661950551 2.384622476296272 -5.6107025146484375 0.6717681884765625 C-5.390179062485686 0.6011998647451406 -5.169655610322934 0.5306315410137188 -4.942449629306793 0.4579247832298279 C-3.164989950449808 -0.06028098057908693 -1.9810248019054484 0 0 0 Z " fill="#DC390D" transform="translate(286,43)"/>
<path d="M0 0 C0 31.349999999999994 0 62.7 0 95 C-8.909999999999997 95 -17.819999999999993 95 -27 95 C-27.176622415855803 84.89346156963501 -27.324224542425128 74.78838695819738 -27.40852263569832 64.68074502423406 C-27.41852738239166 63.485484200007974 -27.428882047833696 62.290226646321344 -27.439453125 61.094970703125 C-27.441551608443262 60.85703307352961 -27.443650091886525 60.6190954439342 -27.445812165737152 60.37394758313894 C-27.480553645130158 56.52923051724656 -27.543586037089568 52.68547772600009 -27.617222368717194 48.84133134037256 C-27.692238744601383 44.891974181099215 -27.736511033146712 40.9431191430009 -27.752707958221436 36.993078887462616 C-27.76266945712362 34.775912792303274 -27.786673784462153 32.56076915803965 -27.845840454101563 30.344324111938477 C-28.151547654350026 18.545436824788844 -28.151547654350026 18.545436824788844 -27 15 C-26.443119434030393 13.955576461268933 -25.759019786167585 13.212693760295245 -24.834963023662567 12.4812912940979 C-23.340218840497755 11.46484394851889 -21.69392317927057 10.838572745285312 -19.973506927490234 10.316019058227539 C-18.676092512030692 9.918494033570376 -17.59351576212606 9.239347949475643 -16.455322265625 8.514404296875 C-16.096767295400667 8.309748273552017 -15.736646308127433 8.107807575309664 -15.374893188476563 7.9088592529296875 C-15.202073841094972 7.8133345603942885 -15.029254493713381 7.71780986785889 -14.851198196411133 7.619390487670898 C-14.586476182937616 7.473280477523801 -14.586476182937616 7.473280477523801 -14.31640625 7.32421875 C-13.926603510795076 7.107284321786288 -13.536870614100536 6.890224356270124 -13.147201538085938 6.6730499267578125 C-12.352546949447913 6.2307779610705865 -11.557107903531914 5.789967254796771 -10.760986328125 5.350341796875 C-9.741769192507917 4.787356597053744 -8.724811464385027 4.220412866599965 -7.708359718322754 3.6524534225463867 C-6.913976647018075 3.209130399013702 -6.118490620338008 2.767818980023584 -5.32264518737793 2.327127456665039 C-4.946323425599132 2.118428610196432 -4.570346792094483 1.9091061034236532 -4.194734573364258 1.6991329193115234 C-3.6772395148590533 1.410230017730946 -3.1583199879854362 1.1240760230586204 -2.638916015625 0.838623046875 C-2.4106915283203136 0.7101448059082003 -2.4106915283203136 0.7101448059082003 -2.1778564453125 0.579071044921875 C-1.3577205841670548 0.13253476693233068 -0.9634810895160797 0 0 0 Z " fill="#DD390D" transform="translate(210,42)"/>
<path d="M0 0 C0.25129354476928256 -0.004241065979016412 0.25129354476928256 -0.004241065979016412 0.5076637268066406 -0.00856781005859375 C1.3952609490692112 -0.023435042357732527 2.282701127652217 -0.0327408420041877 3.17041015625 -0.037109375 C3.8922820406085066 -0.04148337429930393 4.61295054340485 -0.05533146052601978 5.33447265625 -0.078125 C11.516382585637302 -0.2694118940343344 11.516382585637302 -0.2694118940343344 13.976318359375 0.811767578125 C15.215282220477604 1.4681193072713086 16.44180990132054 2.147271572769057 17.3828125 3.203125 C18.07565435789553 4.479720576696252 18.30261957380509 5.7669425945090325 18.3828125 7.203125 C17.546643455870253 7.093711391034077 16.715205018157178 6.963107570511966 15.8828125 6.828125 C15.525097656250011 6.78171875000001 15.525097656250011 6.78171875000001 15.16015625 6.734375 C14.9345703125 6.695703124999994 14.708984375 6.657031249999989 14.4765625 6.6171875 C14.162353515625 6.570056152343739 14.162353515625 6.570056152343739 13.841796875 6.52197265625 C13.690332031250023 6.4167529296875045 13.538867187499989 6.311533203125009 13.3828125 6.203125 C13.284592651715059 5.512639466556834 13.333484122421055 4.906054380500336 13.3828125 4.203125 C9.381822335983259 4.138279845191789 5.3837809593943575 4.131909786169047 1.3828125 4.203125 C1.084888000488263 4.207354736328114 1.084888000488263 4.207354736328114 0.78094482421875 4.211669921875 C0.2822549211202272 4.220023753868048 -0.21631765247246904 4.234731206813848 -0.71484375 4.25 C-0.9727368164062682 4.257412109374997 -1.2306298828124795 4.264824218749993 -1.496337890625 4.2724609375 C-3.1388155905610233 4.498243352481211 -3.1388155905610233 4.498243352481211 -4.6171875 5.203125 C-5.0439272904318955 6.023668680796533 -5.150331557344828 6.842686129146813 -5.26171875 7.75390625 C-5.298980712890625 7.988717041015633 -5.33624267578125 8.223527832031237 -5.3746337890625 8.4654541015625 C-5.465045369788697 9.04394120750976 -5.54541901820221 9.62208053437854 -5.6171875 10.203125 C-5.402785186767574 10.208991241455067 -5.188382873535147 10.214857482910162 -4.9674835205078125 10.220901489257813 C-2.9228170550828736 10.279393906115644 -0.8791788635819557 10.35176497209656 1.1644773483276367 10.43883991241455 C2.2146317404183264 10.483118269877394 3.2644366261623077 10.522451121249532 4.315185546875 10.549560546875 C11.964107558726198 10.753201408002212 11.964107558726198 10.753201408002212 14.76043701171875 12.174591064453125 C16.03192259304791 12.938311564607886 17.05018913503028 13.71106233611917 17.885009765625 14.946044921875 C18.17578041874009 15.70896313062508 18.27701841787433 16.327123851910102 18.3203125 17.140625 C18.346254882812502 17.400048828124994 18.372197265625005 17.65947265624999 18.39892578125 17.9267578125 C18.486620357731 19.300923311921167 18.383198960862728 20.56815947572241 18.031005859375 21.897705078125 C17.598670416629545 22.77667123741537 17.074049612720387 23.507509305692622 16.3828125 24.203125 C14.923854507634815 25.245660258520047 13.114757698675533 25.81025231574111 11.3828125 26.203125 C9.079018366373361 26.52191189896945 6.765409660227931 26.535294770906347 4.4443359375 26.518798828125 C3.7360100447855302 26.514152731935724 3.0293952133484936 26.52113544711071 2.3212890625 26.539306640625 C-3.6969214586974886 26.69224532626407 -3.6969214586974886 26.69224532626407 -6.219482421875 25.590087890625 C-8.756705537493701 24.257807741499704 -8.756705537493701 24.257807741499704 -9.6171875 23.203125 C-9.904625199433553 22.45940749540827 -9.973604569347742 21.808557489088514 -9.9296875 21.015625 C-9.774999999999977 20.1184375 -9.774999999999977 20.1184375 -9.6171875 19.203125 C-8.297187500000007 19.203125 -6.977187500000014 19.203125 -5.6171875 19.203125 C-5.6171875 20.19312500000001 -5.6171875 21.18312499999999 -5.6171875 22.203125 C-3.8756915876436437 22.253457251802217 -2.1346401106324038 22.28926739364607 -0.392578125 22.31298828125 C0.19701530992426797 22.32290010146835 0.7865616262770345 22.336434169680928 1.3759765625 22.35400390625 C5.047182488649355 22.460506467247512 8.81163672046273 22.42382047107975 12.250244140625 20.973388671875 C12.942565800192995 20.58587792616862 13.331068404328448 20.275178931045872 13.794891357421875 19.629302978515625 C14.225164166680145 18.714116120214527 14.377984305677387 17.94855258032564 14.356735229492188 16.938735961914063 C14.23071167582492 16.28026941155565 14.23071167582492 16.28026941155565 13.89947509765625 15.69281005859375 C13.388892796450875 15.142209007593067 13.388892796450875 15.142209007593067 12.55755615234375 14.91265869140625 C9.865291243060426 14.369673083637963 7.01883217460346 14.49651848268104 4.28643798828125 14.5128173828125 C2.4276357041837855 14.52010493970917 0.5694234876351061 14.488495879643125 -1.2889156341552734 14.450368881225586 C-1.9356975750896481 14.441589779808595 -2.58120469261155 14.44679045071905 -3.2279815673828125 14.453933715820313 C-6.21440471130245 14.449537268823377 -6.21440471130245 14.449537268823377 -7.5595703125 13.806961059570313 C-8.344615151690505 13.327306682975006 -8.979794516617403 12.865162158454268 -9.6171875 12.203125 C-10.00537109375 11.289306640625 -10.00537109375 11.289306640625 -10.015625 10.36328125 C-10.019718780517564 10.196428222656237 -10.023812561035129 10.029575195312503 -10.028030395507813 9.857666015625 C-10.034038864431011 9.32507036203188 -10.015451883636388 8.797688393852354 -9.9921875 8.265625 C-9.988531799316434 8.085710144042963 -9.98487609863281 7.905795288085926 -9.981109619140625 7.720428466796875 C-9.94695961119396 6.299103543982284 -9.891283882701885 4.88862405127702 -9.35791015625 3.5546875 C-8.860977001443302 2.7534309403116595 -8.304145600633717 2.2651920539454693 -7.56640625 1.67578125 C-5.160981559467473 0.3511069000702207 -2.7058451547071627 0.036069957838293476 0 0 Z " fill="#000000" transform="translate(356.6171875,186.796875)"/>
<path d="M0 0 C6.118821690774382 -0.08021761867001942 6.118821690774382 -0.08021761867001942 8.740234375 -0.09765625 C10.524454680720282 -0.1095820861984862 12.308468440890238 -0.12364320895741798 14.092529296875 -0.15087890625 C15.531981812193294 -0.17271460687766194 16.971212662586083 -0.18459050337554572 18.410818099975586 -0.18975448608398438 C18.958218120721938 -0.19343133493561027 19.505606900021746 -0.20061143152457817 20.05291175842285 -0.21146011352539063 C24.523380144937562 -0.2964967503396849 24.523380144937562 -0.2964967503396849 26.003067016601563 0.4129638671875 C26.76933453376114 0.896805320485754 27.388607389442996 1.3326175825583562 28 2 C28.487647842586853 2.9194468133981957 28.685517104908456 3.7196148592439897 28.8125 4.75 C28.85181640625001 5.008054199218748 28.891132812500018 5.2661083984374955 28.931640625 5.531982421875 C29.161054440035173 7.6406777384066515 28.739217670343635 9.343662716639727 28 11.3125 C27.892766113281255 11.566767578124995 27.78553222656251 11.821035156249991 27.675048828125 12.0830078125 C27.576032714843734 12.319873046874989 27.477016601562525 12.556738281250006 27.375 12.80078125 C27.279609375000007 13.008723144531245 27.184218750000014 13.216665039062491 27.0859375 13.430908203125 C27.043398437500002 13.712608642578118 27.043398437500002 13.712608642578118 27 14 C27.15525146484373 14.14711425781249 27.310502929687516 14.294228515625008 27.470458984375 14.44580078125 C27.645207519531255 14.628686523437494 27.81995605468751 14.811572265624989 28 15 C28.087275124056134 15.722412801058056 28.117039050199992 16.346481775450457 28.09765625 17.06640625 C28.096241302490228 17.2647557067871 28.094826354980455 17.463105163574227 28.093368530273438 17.667465209960938 C28.087782866579687 18.299298683328118 28.075235439079904 18.930774163377095 28.0625 19.5625 C28.057483036133647 19.991531329345662 28.052920467094054 20.42056822986035 28.048828125 20.849609375 C28.038670753430495 21.899881595285507 28.019716029200538 22.949869597984076 28 24 C26.60281947346914 24.222399623404414 25.37773168165552 24.377052558029163 24 24 C23.593638981363938 22.894425865351252 23.74023393159763 21.793685213075747 23.819608688354492 20.636962890625 C23.882639865135502 19.34597465889385 23.79278627717821 18.080836106484867 23.44512939453125 16.83251953125 C23.224790344238272 16.42042236328126 23.224790344238272 16.42042236328126 23 16 C21.826714761544054 15.314260268917081 20.72222803518423 15.135164265030625 19.378002166748047 15.03240966796875 C17.62293176232896 14.942394647498332 15.880096799643013 14.941147239087485 14.1236572265625 14.98712158203125 C12.78353291782696 15.012274244292712 11.443765754176354 14.9781720139313 10.103797912597656 14.953994750976563 C8.065877651256017 14.9238727566391 6.041992131656002 14.969031398951188 4 15 C4 17.97 4 20.939999999999998 4 24 C2.680000000000007 24 1.3600000000000136 24 0 24 C0 16.079999999999984 0 8.159999999999997 0 0 Z M4 3 C4 5.969999999999999 4 8.939999999999998 4 12 C6.015360096121697 12.021090977750106 8.03031014314007 12.041110489397681 10.045684814453125 12.051750183105469 C10.984607162569262 12.056985949609413 11.923436190951634 12.063957037620725 12.8623046875 12.075439453125 C13.770071877888995 12.086469413947441 14.67774978325275 12.092318219030375 15.585578918457031 12.094877243041992 C16.09286957490798 12.097568680251413 16.600125329953414 12.105347202972325 17.10736083984375 12.113296508789063 C18.856635031421035 12.11370935907658 20.501003110760507 11.966050760446933 22.202880859375 11.57763671875 C22.373244819641116 11.541628885269176 22.54360877990723 11.505621051788324 22.719135284423828 11.468522071838379 C23.264039690025754 11.34293532830128 23.264039690025754 11.34293532830128 24 11 C24.482189895948068 10.259087910818295 24.631716110765524 9.750311878649342 24.755859375 8.876953125 C24.774550781250014 8.608183593749999 24.793242187500027 8.339414062499998 24.8125 8.0625 C24.850527343750002 7.797597656249991 24.888554687500005 7.53269531250001 24.927734375 7.259765625 C25.09276979806026 5.865931396488946 25.09276979806026 5.865931396488946 24.84146499633789 4.496071815490723 C24.60479611320602 3.9389804597068405 24.373498896671947 3.477497479098332 24 3 C23.240854661769617 2.7924108044415163 22.81040373688205 2.743160344207638 22.050537109375 2.77294921875 C21.855319671630866 2.7726571655273347 21.660102233886732 2.7723651123046977 21.458969116210938 2.772064208984375 C20.814639111769452 2.77345612376223 20.17147107056985 2.788999720709171 19.52734375 2.8046875 C19.080374472712208 2.808418400261587 18.633397008945167 2.811265016237286 18.186416625976563 2.813262939453125 C17.01074585804065 2.820894334441249 15.835570434789418 2.840535390860282 14.66009521484375 2.8626708984375 C13.249328489699394 2.8867417556449766 11.8383959714389 2.895912998344045 10.427482604980469 2.9075775146484375 C8.28464405389974 2.9269636690646905 6.142891950786975 2.9652816785651055 4 3 Z " fill="#000000" transform="translate(264,188)"/>
<path d="M0 0 C6.118821690774368 -0.08021761867001942 6.118821690774368 -0.08021761867001942 8.740234375 -0.09765625 C10.524454680720268 -0.1095820861984862 12.308468440890266 -0.12364320895741798 14.092529296875 -0.15087890625 C15.531981812193308 -0.17271460687766194 16.971212662586055 -0.18459050337554572 18.410818099975586 -0.18975448608398438 C18.958218120721952 -0.19343133493561027 19.50560690002176 -0.20061143152457817 20.05291175842285 -0.21146011352539063 C24.46354340825033 -0.29535854413714446 24.46354340825033 -0.29535854413714446 26.011993408203125 0.37725830078125 C26.81935274303123 0.8556780253539671 27.398149461136256 1.2820894539391645 28 2 C28.277804771147984 2.607782920066711 28.35520819190522 3.0334745174022544 28.36553955078125 3.699951171875 C28.353192749023435 3.902092285156243 28.34084594726562 4.104233398437486 28.328125 4.3125 C28.325315246582022 4.6340808105468625 28.325315246582022 4.6340808105468625 28.32244873046875 4.962158203125 C28.31576437800028 5.412757374434705 28.301917985215184 5.863302009531878 28.28125 6.3134765625 C28.25006362725938 6.998602188645691 28.24027828805994 7.681422203703676 28.234375 8.3671875 C28.22520224849164 8.807319349667324 28.214825521358264 9.247428094214428 28.203125 9.6875 C28.196750183105465 9.990711669921865 28.196750183105465 9.990711669921865 28.19024658203125 10.300048828125 C28.136915132425827 11.37472785036249 27.976085774036022 12.138545376403101 27.460205078125 13.09033203125 C27.364195098876948 13.245029602050778 27.26818511962891 13.399727172851556 27.169265747070313 13.559112548828125 C27.113408050537117 13.704605407714837 27.057550354003908 13.850098266601549 27 14 C27.231462537908726 14.462925075817452 27.468398102278243 14.924282280141824 27.73779296875 15.3662109375 C28.336472616506825 16.813298801165445 28.098457852442735 18.57949079500841 28.0625 20.125 C28.057476235792393 20.501296144840097 28.0529148700886 20.877598762241746 28.048828125 21.25390625 C28.03874539370304 22.169418251764682 28.019798410582993 23.084648666914887 28 24 C26.603181806747898 24.222061415038695 25.37716108554099 24.377821456159324 24 24 C23.605162266115315 22.892704626885262 23.762613848926037 21.791377116109032 23.848310470581055 20.636962890625 C23.91718784214737 19.343729159696153 23.82931986001151 18.079784081144624 23.46661376953125 16.83251953125 C23.312631225585932 16.55778808593749 23.158648681640628 16.283056640625006 23 16 C21.38075603629798 15.09889563401245 19.682143099391666 15.049393848215743 17.860950469970703 14.97149658203125 C16.459082462041124 14.930299888965834 15.061838287228838 14.952283112253582 13.66009521484375 14.98712158203125 C12.24906131363339 15.012269664906114 10.838367817077227 14.978173484500331 9.427482604980469 14.953994750976563 C7.28183307064748 14.923873325599857 5.149519441952336 14.969043824418321 3 15 C3 17.97 3 20.939999999999998 3 24 C2.010000000000005 24 1.019999999999996 24 0 24 C0 16.079999999999984 0 8.159999999999997 0 0 Z M3 3 C3 5.969999999999999 3 8.939999999999998 3 12 C5.923818695351429 12.02917666738324 5.923818695351429 12.02917666738324 8.84765625 12.048828125 C10.043503235723307 12.05476258035685 11.239272318363135 12.061714680447096 12.43505859375 12.075439453125 C13.401179929676985 12.086456427933086 14.367217516161844 12.092315644164813 15.333396911621094 12.094877243041992 C15.698527683086382 12.096698222593545 16.063654862831584 12.10025232350236 16.428749084472656 12.105730056762695 C18.408369113857347 12.134198774250933 20.279076053691256 12.020609225058223 22.21435546875 11.57763671875 C22.3836015701294 11.541628885269176 22.552847671508786 11.505621051788324 22.727222442626953 11.468522071838379 C23.268227731583494 11.342726759422078 23.268227731583494 11.342726759422078 24 11 C24.498082478640413 10.262281499098378 24.664677433756708 9.754203696305638 24.8046875 8.876953125 C24.827890624999995 8.608183593749999 24.851093750000004 8.339414062499998 24.875 8.0625 C24.944609375 7.665146484374986 24.944609375 7.665146484374986 25.015625 7.259765625 C25.174481661068427 6.122246421859813 25.174481661068427 6.122246421859813 25 5 C24.64181688862388 4.35286338516795 24.2673207953991 3.9099973407648747 23.722991943359375 3.4067840576171875 C22.970490081517994 2.983396544746711 22.36535712816945 2.8495005134526536 21.507305145263672 2.7891225814819336 C20.48017119524374 2.7599933487472867 19.456699605365415 2.7793661754849666 18.4296875 2.8046875 C17.984147513879307 2.8084220561851794 17.53859926239815 2.8112669437072384 17.093048095703125 2.813262939453125 C15.925607832308941 2.8208655841825987 14.758672629453798 2.8404815067337097 13.5914306640625 2.8626708984375 C12.188150400363611 2.8868200391145535 10.784700352410368 2.8959267136801543 9.381271362304688 2.9075775146484375 C7.253830652912825 2.926911823821854 5.1274959897740615 2.9652496117822693 3 3 Z " fill="#000000" transform="translate(90,188)"/>
<path d="M0 0 C8.25 0 16.5 0 25 0 C25 0.9900000000000091 25 1.9799999999999898 25 3 C18.069999999999993 3 11.139999999999986 3 4 3 C4 5.310000000000002 4 7.6200000000000045 4 10 C10.600000000000023 10 17.19999999999999 10 24 10 C24 10.990000000000009 24 11.97999999999999 24 13 C17.399999999999977 13 10.800000000000011 13 4 13 C4 15.639999999999986 4 18.28 4 21 C10.930000000000007 21 17.860000000000014 21 25 21 C25 21.99000000000001 25 22.97999999999999 25 24 C16.75 24 8.5 24 0 24 C0 16.079999999999984 0 8.159999999999997 0 0 Z " fill="#000000" transform="translate(308,188)"/>
<path d="M0 0 C8.25 0 16.5 0 25 0 C25 0.9900000000000091 25 1.9799999999999898 25 3 C18.069999999999993 3 11.139999999999986 3 4 3 C4 5.310000000000002 4 7.6200000000000045 4 10 C10.599999999999994 10 17.19999999999999 10 24 10 C24 10.990000000000009 24 11.97999999999999 24 13 C17.400000000000006 13 10.800000000000011 13 4 13 C4 15.639999999999986 4 18.28 4 21 C10.930000000000007 21 17.860000000000014 21 25 21 C25 21.99000000000001 25 22.97999999999999 25 24 C16.75 24 8.5 24 0 24 C0 16.079999999999984 0 8.159999999999997 0 0 Z " fill="#000000" transform="translate(134,188)"/>
<path d="M0 0 C6.078712881439344 -0.12032642800502913 6.078712881439344 -0.12032642800502913 8.69140625 -0.146484375 C10.46691139045467 -0.16434544248832594 12.241947765654345 -0.1853563808561205 14.01708984375 -0.226318359375 C15.4500919504558 -0.2591743401580118 16.882590863611682 -0.2769055560411857 18.315940856933594 -0.28463172912597656 C18.85976831313502 -0.2901294713735183 19.40357152627564 -0.3008652045370468 19.947181701660156 -0.31719017028808594 C23.878610585161454 -0.4304419521460545 23.878610585161454 -0.4304419521460545 25.631256103515625 0.24230575561523438 C26.810348569599483 0.8300390332708218 27.802710585044878 1.5472243642149692 28.676536560058594 2.536336898803711 C29.105929346260552 3.1518425983590816 29.31429154540527 3.704571189985984 29.460094451904297 4.437924385070801 C29.56196621660206 5.3371105343006775 29.553486525681762 6.221607655435349 29.53125 7.125 C29.53395321352579 7.517099580160249 29.53784251298032 7.909192566304625 29.5428466796875 8.30126953125 C29.54870759088888 9.118820128675935 29.540314439696147 9.934609686774309 29.521484375 10.751953125 C29.498667344664142 11.792165240132903 29.511813168985526 12.82825560485719 29.53577423095703 13.868316650390625 C29.55034269046493 14.67682109598718 29.54558258529005 15.484371989548265 29.535263061523438 16.29290771484375 C29.532624680826075 16.67560333021831 29.535764052382234 17.058390176300406 29.545181274414063 17.44097900390625 C29.56909686202522 18.685140134365042 29.530183384928733 19.855324966627705 29 21 C28.263506527591176 22.05571389301292 27.331328789654577 22.79760697241261 26.234130859375 23.457183837890625 C24.702063913196554 24.220861627178778 23.194840076944644 24.33031573828282 21.503787994384766 24.348698616027832 C20.715582579345977 24.339665054122833 19.928515376289823 24.316629608444032 19.140625 24.29296875 C18.585847554161063 24.287360310471627 18.031055058342986 24.28309611186603 17.47625732421875 24.280105590820313 C16.029170867757642 24.268752711683646 14.58301493971777 24.239377264298923 13.13629150390625 24.20599365234375 C11.393480715688128 24.16962758466039 9.650355427480605 24.156085249736094 7.9072723388671875 24.138633728027344 C5.270871464826087 24.109724366287793 2.636504399148407 24.05218887007112 0 24 C0 16.079999999999984 0 8.159999999999997 0 0 Z M3 3 C3 8.939999999999998 3 14.879999999999995 3 21 C6.505851368552669 21.029107497541673 6.505851368552669 21.029107497541673 10.01171875 21.048828125 C11.442583505993099 21.054795644671856 12.873383996261992 21.06183947969666 14.30419921875 21.075439453125 C15.458341749531485 21.086340428644093 16.61241531934641 21.0922919524877 17.766605377197266 21.094877243041992 C18.205955096534126 21.096718577448456 18.645301232339392 21.10031426408665 19.08462142944336 21.105730056762695 C19.70216648449258 21.113037094259425 20.31943008204027 21.113987008942047 20.93701171875 21.113525390625 C21.206748046874992 21.118918304443355 21.206748046874992 21.118918304443355 21.48193359375 21.124420166015625 C22.472069078184063 21.116462002344576 23.20503590382964 20.959451078634743 24.10333251953125 20.5302734375 C24.590497186700986 20.28713019019915 24.590497186700986 20.28713019019915 25 20 C25.6261787259171 19.08610744948092 25.80805047045763 18.083642344052862 26 17 C26.13565951553386 15.717500630859604 26.144369700416433 14.436603580635904 26.13037109375 13.148193359375 C26.12503783348572 12.566625569647954 26.130330860873045 11.985840473596085 26.13671875 11.404296875 C26.14263739320097 8.972377850188394 26.112588912656435 6.205949530636445 25 4 C24.249652626591143 3.4551265079439304 23.41204220731231 3.0730490578162346 22.49759864807129 2.9109315872192383 C21.974633029740943 2.878141576970819 21.46088496925975 2.876000665018381 20.93701171875 2.886474609375 C20.6439665222168 2.886255569458001 20.6439665222168 2.886255569458001 20.345001220703125 2.8860321044921875 C19.70644587213397 2.8867225703168344 19.068191162022174 2.8944724900870824 18.4296875 2.90234375 C17.984142652472144 2.9042110484669763 17.53859573847342 2.9056334797469106 17.093048095703125 2.9066314697265625 C15.925783654607017 2.9104322195932752 14.758645526768817 2.9202410109792822 13.5914306640625 2.93133544921875 C12.188070778951811 2.943410704662284 10.784668434423878 2.9479634893263267 9.381271362304688 2.9537887573242188 C7.254093314528546 2.963454718368638 5.127191898989139 2.982627289391189 3 3 Z " fill="#000000" transform="translate(174,188)"/>
<path d="M0 0 C0.2843912315368584 -0.004241065979016412 0.2843912315368584 -0.004241065979016412 0.5745277404785156 -0.00856781005859375 C1.578832734798766 -0.02345220036247042 2.5829982530729296 -0.03274767748666818 3.58740234375 -0.037109375 C4.4062173115299 -0.04148633087606868 5.223973334553733 -0.055347724393726594 6.04248046875 -0.078125 C13.017436072690458 -0.2681291370457757 13.017436072690458 -0.2681291370457757 15.601318359375 0.776611328125 C16.871053924613307 1.409078777570528 17.998334134689003 2.1377743390251283 18.9453125 3.203125 C19.434746209320537 4.044402651809264 19.63327115016645 4.636940351497998 19.740234375 5.599609375 C19.746035156250002 5.860644531249989 19.751835937500005 6.121679687500006 19.7578125 6.390625 C19.78294921874999 6.663261718749993 19.80808593750001 6.935898437499986 19.833984375 7.216796875 C19.892189805601475 7.880338783856814 19.928840630493056 8.537467685218928 19.9453125 9.203125 C18.542293973482657 9.438049032347095 17.329386501044894 9.587909058381769 15.9453125 9.203125 C15.589068182469958 8.326523814167672 15.442394226467144 7.653583716720391 15.449462890625 6.7138671875 C15.430989948406705 6.179477561959686 15.430989948406705 6.179477561959686 15.289108276367188 5.69049072265625 C15.11892936706542 5.449244689941395 15.11892936706542 5.449244689941395 14.9453125 5.203125 C14.332966740391328 4.960760979614605 13.795113922792211 4.793081406388836 13.1591796875 4.6484375 C12.980283241271962 4.606132898330685 12.801386795043953 4.56382829666137 12.617069244384766 4.520241737365723 C10.764219793463468 4.113774278786366 8.9477285884835 4.075670011993367 7.0546875 4.10546875 C6.744184570312484 4.106475830078125 6.433681640624997 4.10748291015625 6.11376953125 4.1085205078125 C4.974245283507315 4.113679880936161 3.834774443312625 4.127640006091724 2.6953125 4.140625 C0.13781249999999545 4.1612499999999955 -2.419687500000009 4.181874999999991 -5.0546875 4.203125 C-5.0546875 10.143124999999998 -5.0546875 16.083124999999995 -5.0546875 22.203125 C-2.4971874999999955 22.223749999999995 0.060312500000009095 22.24437499999999 2.6953125 22.265625 C3.494208984375007 22.27472900390626 4.293105468750014 22.28383300781249 5.1162109375 22.293212890625 C5.762368093514738 22.296138467567317 6.408527119661983 22.29868550408557 7.0546875 22.30078125 C7.379692382812493 22.305897216796865 7.704697265624986 22.311013183593758 8.03955078125 22.3162841796875 C9.80408493126447 22.316941606718046 11.446261257488487 22.162875503774217 13.1591796875 21.7578125 C13.331016502380379 21.718728036880492 13.502853317260758 21.679643573760984 13.67989730834961 21.63937473297119 C14.220152814418668 21.508382459124192 14.220152814418668 21.508382459124192 14.9453125 21.203125 C15.31246516070047 20.743775317388042 15.31246516070047 20.743775317388042 15.4140625 20.23046875 C15.456176017573767 19.690491268304186 15.456176017573767 19.690491268304186 15.4453125 19.140625 C15.521430380728077 18.39064969031554 15.65392201132704 17.920142045161526 15.9453125 17.203125 C17.329386501044894 16.81834094161823 18.542293973482657 16.968200967652905 19.9453125 17.203125 C19.92198742687185 18.145732367001813 19.844363455246224 19.076880023867915 19.7578125 20.015625 C19.752011718749998 20.27666015624999 19.746210937499995 20.537695312500006 19.740234375 20.806640625 C19.63323347622446 21.769648713979734 19.435545078205678 22.361855415017004 18.9453125 23.203125 C17.800724976400886 24.478007075322296 16.384250610803463 25.297439183746178 14.809661865234375 25.940643310546875 C12.03677991403535 26.782699507357336 9.021882711166 26.64344536168406 6.15234375 26.59423828125 C5.146458193855892 26.577134154384396 4.142950297513494 26.587297091564324 3.13714599609375 26.604549407958984 C-3.0896547200225655 26.695458855601544 -3.0896547200225655 26.695458855601544 -5.6953125 25.6142578125 C-6.955471065374553 24.96845895923127 -8.163131763289641 24.325320287144905 -9.0546875 23.203125 C-10.054421188798273 21.23855313193991 -10.22427297249564 19.19420791404329 -10.2578125 17.0234375 C-10.263512573242195 16.728796081542953 -10.269212646484362 16.434154663085934 -10.27508544921875 16.130584716796875 C-10.284470834113193 15.510432090026626 -10.291043533056126 14.890231047108443 -10.294921875 14.27001953125 C-10.30459915019452 13.336646338738973 -10.335648826496453 12.405511077222513 -10.3671875 11.47265625 C-10.409472223241835 9.118963266290706 -10.422358887250624 6.870787090739782 -9.474609375 4.6787109375 C-9.236095392133734 4.220111601114979 -8.987009955402698 3.7668205002976265 -8.7265625 3.3203125 C-8.609841918945307 3.1176174926757767 -8.493121337890614 2.9149224853515534 -8.37286376953125 2.706085205078125 C-7.974959777926443 2.114051127409226 -7.596887155317489 1.6672637707208935 -7.0546875 1.203125 C-4.875262258935692 0.01252769644540308 -2.4213227034908584 0.024783717013548312 0 0 Z " fill="#000000" transform="translate(228.0546875,186.796875)"/>
<path d="M0 0 C9.240000000000009 0 18.480000000000018 0 28 0 C28 0.9900000000000091 28 1.9799999999999898 28 3 C24.04000000000002 3 20.079999999999984 3 16 3 C16 9.930000000000007 16 16.860000000000014 16 24 C14.680000000000007 24 13.360000000000014 24 12 24 C12 17.069999999999993 12 10.139999999999986 12 3 C8.04000000000002 3 4.079999999999984 3 0 3 C0 2.009999999999991 0 1.0200000000000102 0 0 Z " fill="#000000" transform="translate(389,188)"/>
<path d="M0 0 C1.3199999999999932 0.3300000000000125 2.6399999999999864 0.6599999999999966 4 1 C4.466132349533893 2.2193752042155097 4.601889165609265 2.8174037971985513 4.625 4.0625 C4.67130938174958 5.555564124370335 4.67130938174958 5.555564124370335 5 7 C5.443763026989643 7.322233905782326 5.443763026989643 7.322233905782326 6 7.3671875 C6.556236973010357 7.322233905782326 6.556236973010357 7.322233905782326 7 7 C7.413570304055611 5.803787158522738 7.367325679925614 4.47595399400771 7.390625 3.220703125 C7.4609375 2.41015625 7.4609375 2.41015625 8 1 C9.319999999999993 0.6699999999999875 10.639999999999986 0.3400000000000034 12 0 C12 3.960000000000008 12 7.9199999999999875 12 12 C10.680000000000007 11.669999999999987 9.360000000000014 11.340000000000003 8 11 C6.812399797247679 10.98390683314588 6.812399797247679 10.98390683314588 5.8125 11.125 C4.81640625 11.1640625 4.81640625 11.1640625 4 11 C3.4474341289668757 10.223667784498929 3.2675692102645257 9.586248850389552 3.078125 8.65625 C3.0523437500000057 8.439687499999991 3.0265625000000114 8.22312500000001 3 8 C2.9510156249999966 8.288749999999993 2.902031249999993 8.577499999999986 2.8515625 8.875 C2.7765424010860897 9.250100494569523 2.700994129566027 9.625095627474337 2.625 10 C2.594062500000007 10.190781249999986 2.5631250000000136 10.381562500000001 2.53125 10.578125 C2.4140625 11.125 2.4140625 11.125 2 12 C1.3400000000000034 12 0.6800000000000068 12 0 12 C0 8.039999999999992 0 4.0800000000000125 0 0 Z " fill="#000000" transform="translate(181,234)"/>
<path d="M0 0 C0.9900000000000091 0 1.9799999999999898 0 3 0 C3.615966796875 0.55078125 3.615966796875 0.55078125 3.94921875 1.3125 C4.137744140624989 1.7185546874999886 4.137744140624989 1.7185546874999886 4.330078125 2.1328125 C4.448027343749999 2.418984375000008 4.565976562499998 2.7051562499999875 4.6875 3 C4.881826171874991 3.4292578124999977 4.881826171874991 3.4292578124999977 5.080078125 3.8671875 C5.398134030574056 4.573978401275639 5.703818640306849 5.283831567558707 6 6 C6.044875488281264 5.8182421875000045 6.089750976562499 5.636484375000009 6.135986328125 5.44921875 C6.347252463875577 4.628359044468539 6.579404540519079 3.8149164095238746 6.8125 3 C6.882753906250002 2.713828124999992 6.9530078125000045 2.4276562500000125 7.025390625 2.1328125 C7.10595703125 1.8621093749999886 7.1865234375 1.5914062500000057 7.26953125 1.3125 C7.337609863281244 1.0611328125000057 7.405688476562489 0.8097656250000114 7.475830078125 0.55078125 C7.648806152343752 0.36902343750000455 7.8217822265625045 0.1872656250000091 8 0 C8.990000000000009 0 9.97999999999999 0 11 0 C11 3.960000000000008 11 7.9199999999999875 11 12 C10.340000000000003 12 9.680000000000007 12 9 12 C8.5859375 11.5625 8.5859375 11.5625 8.375 11 C8.300234375000002 10.814375000000013 8.225468750000005 10.628749999999997 8.1484375 10.4375 C8.074960937500009 10.220937499999991 8.074960937500009 10.220937499999991 8 10 C7.962617187500001 10.144374999999997 7.925234375000002 10.288749999999993 7.88671875 10.4375 C7.659344037948813 11.079499186968064 7.463944732170489 11.49703187914227 7 12 C6.190935729322177 12.23503543058797 5.539060952211287 12.252286494763581 4.69921875 12.203125 C4.468476562500001 12.136093749999986 4.237734375000002 12.069062500000001 4 12 C3.5360552678295107 11.49703187914227 3.340655962051187 11.079499186968064 3.11328125 10.4375 C3.075898437500001 10.293125000000003 3.0385156250000023 10.148750000000007 3 10 C2.9510156249999966 10.144374999999997 2.902031249999993 10.288749999999993 2.8515625 10.4375 C2.7767968750000023 10.623124999999987 2.7020312500000045 10.808750000000003 2.625 11 C2.555390625000001 11.185624999999987 2.4857812500000023 11.371250000000003 2.4140625 11.5625 C2.2774218749999875 11.706874999999997 2.1407812500000034 11.851249999999993 2 12 C1.3400000000000034 12 0.6800000000000068 12 0 12 C0 8.039999999999992 0 4.0800000000000125 0 0 Z " fill="#000000" transform="translate(198,234)"/>
<path d="M0 0 C0.9778872408261918 0.17907680015130722 1.7126026997750614 0.42049847130897433 2.5234375 1 C3.339747033771914 1.771646877807143 3.8732644035021337 2.577706536370698 4.27001953125 3.62841796875 C4.738794418948544 5.6784335224167535 4.404342568657427 7.767002110577607 3.9375 9.7890625 C3.6782464297392607 10.682570764373423 3.427377554963897 11.50288285202788 2.8984375 12.2734375 C2.24609375 12.84375 2.24609375 12.84375 1.45703125 13.19921875 C-0.41385912125005575 13.57845328471285 -2.3737697655193415 13.263043069130703 -4.203125 12.8125 C-5.056701847001818 12.551446316409908 -5.637704030655158 12.298226534417353 -6.3984375 11.8125 C-6.91142420601787 11.192487290568323 -7.233590021800694 10.669192409362353 -7.45361328125 9.89306640625 C-7.90110971006149 7.713700681518674 -8.04038466834453 5.530620722262881 -7.56640625 3.34375 C-7.296285605600588 2.604270789090947 -6.972772819878543 2.049460381634418 -6.44140625 1.46875 C-4.6973314394685985 -0.10522505066956 -2.2372534742907817 -0.2192832746626152 0 0 Z M-4.03173828125 2.76513671875 C-4.870061281197167 3.956775925571435 -5.2913776892097815 5.260061026163783 -5.5234375 6.6904296875 C-5.56373003893458 7.303059427209746 -5.548692053611376 7.786869689637285 -5.41015625 8.3828125 C-5.0404223293035955 9.236508740989905 -5.0404223293035955 9.236508740989905 -4.4140625 9.89453125 C-3.6066232098062017 10.322436864618851 -3.19883301722507 10.445456992235592 -2.3125 10.51171875 C-1.135821455537723 10.475487330442633 -0.10184679459550239 10.307240906518018 0.953125 9.77001953125 C1.4745314067891684 9.362061237699862 1.4745314067891684 9.362061237699862 1.7421875 8.71044921875 C2.0858167703907498 7.371872953732975 2.1089766055999917 6.098117748957719 1.93359375 4.73046875 C1.7681352142312505 3.986338453953607 1.7681352142312505 3.986338453953607 1.43359375 3.34375 C0.8891101791844847 2.8241665924839765 0.43762208233718525 2.575770811399167 -0.265869140625 2.3115234375 C-1.2039057184563546 2.0959140180924294 -2.01425373414412 1.9960817947398368 -2.97216796875 2.12158203125 C-3.5860345799401614 2.3094170050437413 -3.5860345799401614 2.3094170050437413 -4.03173828125 2.76513671875 Z " fill="#000000" transform="translate(172.56640625,233.65625)"/>
<path d="M0 0 C1.9181250000000034 -0.03093749999999318 1.9181250000000034 -0.03093749999999318 3.875 -0.0625 C4.274448242187503 -0.0716040039062591 4.673896484375007 -0.08070800781248977 5.08544921875 -0.090087890625 C5.405297851562494 -0.09258544921874545 5.725146484374989 -0.0950830078124909 6.0546875 -0.09765625 C6.379370117187506 -0.10289306640623863 6.704052734375011 -0.10812988281250568 7.03857421875 -0.113525390625 C8.013041499749932 0.00153994346970876 8.752732119671293 0.15232381558161023 9.609832763671875 0.6264495849609375 C9.73858795166015 0.749721221923835 9.867343139648426 0.8729928588867324 10 1 C10.277390475946135 1.836201972282936 10.2335878862186 2.6308726967341443 10.1953125 3.50390625 C10.192482604980455 3.7466477966308673 10.189652709960939 3.9893893432617062 10.186737060546875 4.2394866943359375 C10.175546107029561 5.014327741977894 10.150456134380192 5.788009119093601 10.125 6.5625 C10.114968222182654 7.08787391246716 10.105842692918856 7.613265968467175 10.09765625 8.138671875 C10.075612170919925 9.426227632751619 10.041100651377405 10.712917294173849 10 12 C9.501695774789113 11.874347187103893 9.006016249360357 11.738246834243114 8.51171875 11.59765625 C8.235456542968763 11.522971191406242 7.959194335937497 11.448286132812513 7.674560546875 11.371337890625 C7.451955566406241 11.248796386718737 7.22935058593751 11.126254882812503 7 11 C6.700998809922822 9.910233757777348 6.850775890497744 9.144051506184013 7 8 C5.349999999999994 8 3.6999999999999886 8 2 8 C2 9.319999999999993 2 10.639999999999986 2 12 C1.3400000000000034 12 0.6800000000000068 12 0 12 C0 8.039999999999992 0 4.0800000000000125 0 0 Z M2 2 C2 2.990000000000009 2 3.9799999999999898 2 5 C3.9799999999999898 5 5.960000000000008 5 8 5 C7.86906292210702 3.5966018444973713 7.86906292210702 3.5966018444973713 7.5546875 2.66796875 C7.371640624999998 2.447539062499999 7.1885937499999955 2.2271093749999977 7 2 C5.394428704231501 1.576024276707244 3.63002381940305 1.8375991028638907 2 2 Z " fill="#000000" transform="translate(228,234)"/>
<path d="M0 0 C2.969999999999999 0 5.939999999999998 0 9 0 C9 0.6599999999999966 9 1.3199999999999932 9 2 C7.02000000000001 2 5.039999999999992 2 3 2 C3 2.990000000000009 3 3.9799999999999898 3 5 C4.97999999999999 5 6.960000000000008 5 9 5 C9 5.659999999999997 9 6.319999999999993 9 7 C7.02000000000001 7 5.039999999999992 7 3 7 C3 7.990000000000009 3 8.97999999999999 3 10 C5.310000000000002 10 7.6200000000000045 10 10 10 C10 10.659999999999997 10 11.319999999999993 10 12 C6.699999999999989 12 3.4000000000000057 12 0 12 C0 8.039999999999992 0 4.0800000000000125 0 0 Z " fill="#000000" transform="translate(214,234)"/>
<path d="M0 0 C2.969999999999999 0 5.939999999999998 0 9 0 C9 0.6599999999999966 9 1.3199999999999932 9 2 C7.02000000000001 2 5.039999999999992 2 3 2 C3 2.990000000000009 3 3.9799999999999898 3 5 C4.97999999999999 5 6.960000000000008 5 9 5 C9 5.659999999999997 9 6.319999999999993 9 7 C7.02000000000001 7 5.039999999999992 7 3 7 C3 7.990000000000009 3 8.97999999999999 3 10 C5.310000000000002 10 7.6200000000000045 10 10 10 C10 10.659999999999997 10 11.319999999999993 10 12 C6.699999999999989 12 3.4000000000000057 12 0 12 C0 8.039999999999992 0 4.0800000000000125 0 0 Z " fill="#000000" transform="translate(128,234)"/>
<path d="M0 0 C5.857397504456344 -0.33155080213904853 5.857397504456344 -0.33155080213904853 7.6259765625 0.181640625 C8.308033793162735 0.5049278672794344 8.77309770093268 0.8806181461468157 9.27734375 1.4384765625 C9.785530302809946 2.195674526186849 9.98213414263006 2.9008262611300495 10.1435546875 3.796875 C10.370196967735353 5.843387471035953 10.513212225432085 7.990342226154553 10 10 C9.64316751791307 10.725559380243453 9.310716668141026 11.145949345674211 8.693115234375 11.666748046875 C7.512128879949273 12.234569946766214 6.368461181373846 12.20021274389046 5.08544921875 12.18017578125 C4.686000976562525 12.16196777343751 4.286552734374993 12.143759765624992 3.875 12.125 C2.5962499999999977 12.083750000000009 1.3174999999999955 12.04249999999999 0 12 C0 8.039999999999992 0 4.0800000000000125 0 0 Z M2 2 C2 4.639999999999986 2 7.280000000000001 2 10 C4.580534025044642 9.803046465822462 4.580534025044642 9.803046465822462 7 9 C7.422569009857909 8.56827981413241 7.635589497110459 8.208891270681193 7.862548828125 7.650390625 C8.103335207970474 6.730013556745121 8.201259697979026 5.937446487954958 8 5 C7.682087052026304 4.309313020110295 7.275359536522956 3.796132681461984 6.75 3.25 C6.628828124999984 3.1225439453124864 6.507656250000025 2.995087890625001 6.3828125 2.86376953125 C5.923024613184737 2.434680378554731 5.923024613184737 2.434680378554731 5 2 C4.009999999999991 2 3.019999999999982 2 2 2 Z " fill="#000000" transform="translate(360,234)"/>
<path d="M0 0 C0.5201888420624812 -0.02899089176790426 1.0415102763641642 -0.04163370159722035 1.5625 -0.0390625 C1.8301416015625023 -0.04035156250000682 2.0977832031250045 -0.04164062500001364 2.37353515625 -0.04296875 C3.16145419400965 -0.00014177327187780975 3.815332394192694 0.0816540719366401 4.5625 0.3359375 C5.238683888287198 0.9113237900332081 5.5901100060039255 1.5255943083599561 5.9375 2.3359375 C6.190109578706341 3.0018569474378864 6.383440260670056 3.6443964377602356 6.5625 4.3359375 C5.572499999999991 4.3359375 4.58250000000001 4.3359375 3.5625 4.3359375 C3.5625 3.6759375000000034 3.5625 3.015937500000007 3.5625 2.3359375 C2.02944129200597 2.324902630122409 0.4744645657771116 2.378293107730485 -0.96337890625 2.94921875 C-1.1198388671874966 3.076835937499993 -1.2762988281249932 3.2044531249999864 -1.4375 3.3359375 C-1.7428517723002415 4.128073359792467 -1.793101663289491 4.7560360831743935 -1.78662109375 5.6044921875 C-1.6520148255482638 6.767543391568182 -1.472343401793978 7.757014444114986 -0.94775390625 8.810546875 C-0.7793701171875114 8.983925781250008 -0.6109863281249943 9.157304687499987 -0.4375 9.3359375 C1.1061769570456477 9.706659144945775 2.6001446280443474 9.333561150712086 4.1220703125 8.99658203125 C4.942788416307906 8.795858317133593 5.752990329830482 8.57749745611602 6.5625 8.3359375 C6.550892632227402 9.583729535553914 6.461088476561258 10.736016926425691 5.92724609375 11.87841796875 C5.5625 12.3359375 5.5625 12.3359375 4.99072265625 12.68798828125 C3.4764228289002403 13.295637256555949 1.9568392372612209 13.52422742174042 0.3291015625 13.4609375 C-0.7275838176270213 13.288637208718143 -1.4746453285481778 12.94663775963943 -2.340087890625 12.32177734375 C-3.0997603793454687 11.631796397810376 -3.6785361502431613 10.965620755806242 -4.18017578125 10.0673828125 C-4.588858682666796 8.905699726499364 -4.552366843748416 7.863164181325288 -4.445556640625 6.646484375 C-3.950321358601798 3.1643896947928454 -3.950321358601798 3.1643896947928454 -3.0400390625 1.69384765625 C-2.1482926300425333 0.6584206655483626 -1.3490421801660375 0.2164475010744411 0 0 Z " fill="#000000" transform="translate(154.4375,233.6640625)"/>
<path d="M0 0 C1.0475995775462366 0.01818860064580008 1.9602555880628927 0.1094026946907718 2.9375 0.5 C3.602916911711418 1.0840650008752277 3.971355927739836 1.6882124059531805 4.3125 2.5 C4.518750000000011 3.1599999999999966 4.724999999999994 3.819999999999993 4.9375 4.5 C2.2975000000000136 4.1699999999999875 -0.34250000000000114 3.8400000000000034 -3.0625 3.5 C-3.0804443224380975 6.306428896599101 -3.0804443224380975 6.306428896599101 -2.4921875 8.95849609375 C-2.3503906249999886 9.137192382812486 -2.2085937500000057 9.315888671875001 -2.0625 9.5 C-0.5296764242357312 9.888301716998797 0.9870118494455369 9.495032148444125 2.498291015625 9.160400390625 C3.318585853830939 8.959732872606708 4.128395727416233 8.741438984339368 4.9375 8.5 C4.874152992527854 9.738146055137292 4.7477873759562215 10.90369216655128 4.2548828125 12.05126953125 C3.9375 12.5 3.9375 12.5 3.4638671875 12.81982421875 C2.005405293080173 13.435703205253702 0.5077870293192177 13.572063505416565 -1.0625 13.5 C-2.065136010293031 13.411555764930057 -2.9071444843298764 13.203676170435216 -3.80810546875 12.7509765625 C-4.346527979889942 12.37607496215071 -4.682341819914967 12.037104217734822 -5.0625 11.5 C-5.9153955336644515 9.539534061032526 -6.17190660951627 7.469250563700683 -6.14453125 5.34423828125 C-6.044356173880203 4.313269789516994 -5.836900503546644 3.4963421926302374 -5.35546875 2.57958984375 C-4.859022583085448 1.857424334460859 -4.363101147481842 1.3079354832490537 -3.6484375 0.79736328125 C-2.4779323356714826 0.20333191035328468 -1.300428940712436 0.050183675317668985 0 0 Z " fill="#000000" transform="translate(248.0625,233.5)"/>
<path d="M0 0 C2.9700000000000273 0 5.939999999999998 0 9 0 C9 0.6599999999999966 9 1.3199999999999932 9 2 C6.689999999999998 2 4.3799999999999955 2 2 2 C2 2.990000000000009 2 3.9799999999999898 2 5 C3.980000000000018 5 5.9599999999999795 5 8 5 C8 5.659999999999997 8 6.319999999999993 8 7 C6.019999999999982 7 4.0400000000000205 7 2 7 C2 7.990000000000009 2 8.97999999999999 2 10 C4.310000000000002 10 6.6200000000000045 10 9 10 C9 10.659999999999997 9 11.319999999999993 9 12 C6.029999999999973 12 3.0600000000000023 12 0 12 C0 8.039999999999992 0 4.0800000000000125 0 0 Z " fill="#000000" transform="translate(258,234)"/>
<path d="M0 0 C1.2993749999999977 -0.020624999999995453 2.5987499999999955 -0.041249999999990905 3.9375 -0.0625 C4.346052246093734 -0.0716040039062591 4.754604492187525 -0.08070800781248977 5.175537109375 -0.090087890625 C5.497883300781268 -0.09258544921874545 5.8202294921874795 -0.0950830078124909 6.15234375 -0.09765625 C6.482263183593773 -0.10289306640623863 6.812182617187489 -0.10812988281250568 7.152099609375 -0.113525390625 C7.4319067382812705 -0.07606201171876137 7.711713867187484 -0.038598632812494316 8 0 C8.593994140625 0.420166015625 8.593994140625 0.420166015625 9 1 C9.51000315256988 2.472356927419213 9.578611506814525 4.101475348042271 9.5 5.6484375 C9.34765625 6.3974609375 9.34765625 6.3974609375 9 7 C7.582963832373537 7.642469787864542 6.038107566410474 7.602936664966705 4.505615234375 7.665771484375 C3.6354278643123052 7.718041053136176 2.8403361641715605 7.766473745422104 2 8 C1.6344304434811647 8.397807290324408 1.6344304434811647 8.397807290324408 1.53515625 8.93359375 C1.4823240771918336 10.004388681023158 1.7001862797513922 10.976826192802264 2 12 C1.339999999999975 12 0.6800000000000068 12 0 12 C0 8.039999999999992 0 4.0800000000000125 0 0 Z M2 2 C2 3.319999999999993 2 4.639999999999986 2 6 C3.6499999999999773 5.6699999999999875 5.300000000000011 5.340000000000003 7 5 C6.760927476188044 3.3737987485363305 6.760927476188044 3.3737987485363305 6 2 C4.549988652801346 1.6981609032362144 3.527106454556815 1.8522155043977193 2 2 Z " fill="#000000" transform="translate(279,234)"/>
<path d="M0 0 C1.0852589138197573 0.1961830773889517 2.0332533971456996 0.46108478934780806 3 1 C3.644186377481901 1.9550731814294124 3.90691498505862 2.953030812479426 4.1875 4.0625 C4.269355468750007 4.3441601562500125 4.351210937500014 4.625820312499997 4.435546875 4.916015625 C4.635030207927002 5.608340133393796 4.822496845344347 6.3017784347386225 5 7 C5.075168457031225 6.787949218749986 5.150336914062507 6.575898437500001 5.227783203125 6.357421875 C5.513941503965327 5.570108031418158 5.8111639694079145 4.789071624483853 6.116943359375 4.00927734375 C6.246636722367555 3.671524091312449 6.371709489130922 3.3319578308475286 6.491943359375 2.99072265625 C6.876991337631978 1.9037147834751806 7.268676372045661 0.9075705964641259 8 0 C8.87164640120318 -0.24606023171961056 9.507245253066401 -0.23053561701806302 10.403076171875 -0.123046875 C10.698553466796852 -0.06213867187500455 10.698553466796852 -0.06213867187500455 11 0 C10.59346789934267 1.3882516701657153 10.184452174919613 2.7757388733748485 9.773193359375 4.16259765625 C9.63384880598727 4.633753399917879 9.495165764579951 5.1051053419704715 9.357177734375 5.57666015625 C9.157857077859944 6.257372578860981 8.95610864130748 6.937326288154281 8.75390625 7.6171875 C8.693446197509786 7.825602722167957 8.632986145019515 8.034017944335943 8.570693969726563 8.248748779296875 C8.393958065012612 8.838165172672603 8.20289975622552 9.41910377721112 8 10 C7.933703918457013 10.197176208496103 7.867407836914083 10.394352416992177 7.799102783203125 10.597503662109375 C7.58009470577025 11.1443827837154 7.392447612484887 11.560321521762205 7 12 C6.168304580656979 12.10295907924342 5.818277783934377 12.085835768703873 5.046875 11.8671875 C4.777229309082031 11.793695831298834 4.777229309082031 11.793695831298834 4.50213623046875 11.718719482421875 C3.948283506232656 11.527797841590967 3.4909589852820773 11.319955250494473 3 11 C2.200153278188509 9.957113036351927 1.7969736342480473 8.920539542531117 1.41650390625 7.67138671875 C1.250599793275569 7.126968236584673 1.0637091593388845 6.594074440412726 0.87109375 6.05859375 C0.16374398354707864 4.015217621058383 -0.18761110632880218 2.1825425369582945 0 0 Z " fill="#000000" transform="translate(292,234)"/>
<path d="M0 0 C3.3000000000000114 0 6.600000000000023 0 10 0 C10 0.6599999999999966 10 1.3199999999999932 10 2 C8.680000000000007 2 7.360000000000014 2 6 2 C6 5.300000000000011 6 8.599999999999994 6 12 C5.339999999999975 12 4.680000000000007 12 4 12 C4 8.699999999999989 4 5.400000000000006 4 2 C2.680000000000007 2 1.3600000000000136 2 0 2 C0 1.3400000000000034 0 0.6800000000000068 0 0 Z " fill="#000000" transform="translate(346,234)"/>
<path d="M0 0 C3.3000000000000114 0 6.600000000000023 0 10 0 C10 0.6599999999999966 10 1.3199999999999932 10 2 C8.680000000000007 2 7.360000000000014 2 6 2 C6 5.300000000000011 6 8.599999999999994 6 12 C5.339999999999975 12 4.680000000000007 12 4 12 C4 8.699999999999989 4 5.400000000000006 4 2 C2.680000000000007 2 1.3600000000000136 2 0 2 C0 1.3400000000000034 0 0.6800000000000068 0 0 Z " fill="#000000" transform="translate(306,234)"/>
<path d="M0 0 C0.660000000000025 0 1.3199999999999932 0 2 0 C2 3.3000000000000114 2 6.599999999999994 2 10 C3.980000000000018 10 5.9599999999999795 10 8 10 C8 10.659999999999997 8 11.319999999999993 8 12 C5.360000000000014 12 2.7200000000000273 12 0 12 C0 8.039999999999992 0 4.0800000000000125 0 0 Z " fill="#000000" transform="translate(335,234)"/>
<path d="M0 0 C1.9799999999999898 0 3.960000000000008 0 6 0 C6 0.6599999999999966 6 1.3199999999999932 6 2 C4.02000000000001 2 2.039999999999992 2 0 2 C0 1.3400000000000034 0 0.6800000000000068 0 0 Z " fill="#000000" transform="translate(141,241)"/>
<path d="M0 0 C0.660000000000025 0 1.3199999999999932 0 2 0 C2 0.6599999999999966 2 1.3199999999999932 2 2 C1.339999999999975 2 0.6800000000000068 2 0 2 C0 1.3400000000000034 0 0.6800000000000068 0 0 Z " fill="#000000" transform="translate(375,244)"/>
<path d="M0 0 C0.660000000000025 0 1.3199999999999932 0 2 0 C2 0.6599999999999966 2 1.3199999999999932 2 2 C1.339999999999975 2 0.6800000000000068 2 0 2 C0 1.3400000000000034 0 0.6800000000000068 0 0 Z " fill="#000000" transform="translate(320,244)"/>
</svg>
