<?xml version="1.0" encoding="utf-8" ?>
<svg baseProfile="full" height="400" version="1.1" width="400" xmlns="http://www.w3.org/2000/svg" xmlns:ev="http://www.w3.org/2001/xml-events" xmlns:xlink="http://www.w3.org/1999/xlink"><defs /><path d="M 156.40800000000002,156.40800000000002 C 156.40800000000002,242.592 242.592,242.592 242.592,156.40800000000002 Z" fill="rgb(254,184,91)" stroke="none" stroke-width="0" /><path d="M 145.512,174.8 C 150.856,193.072 169.68,228.64000000000001 188.71999999999997,266.616 C 207.08800000000002,269.82399999999996 218.61599999999999,231.224 214.46399999999997,187.2 Z" fill="rgb(89,35,75)" stroke="none" stroke-width="0" /><path d="M 196.96,78.84 C 179.6,73.55199999999999 165.072,82.904 161.168,101.36 C 169.72,115.47999999999999 185.4,119.55199999999999 200.432,118.23999999999998 Z" fill="rgb(89,35,75)" stroke="none" stroke-width="0" /><path d="M 205.38400000000001,172.44800000000004 C 186.856,169.536 167.664,175.37600000000003 153.768,180.656 C 151.032,185.872 160.69600000000003,193.23999999999998 175.824,202.96 C 190.216,212.03199999999998 203.62399999999997,213.64 214.12,205.66400000000002 Z" fill="rgb(239,59,105)" stroke="none" stroke-width="0" /><path d="M 233.48,302.44 C 206.48,298.76 188.6,304.08000000000004 205.64,310.40000000000003 Z" fill="rgb(229,142,81)" stroke="none" stroke-width="0" /><path d="M 204.896,222.30399999999997 C 206.344,228.95999999999998 213.04,234.10399999999998 222.44,234.792 C 229.552,231.06400000000002 231.096,225.23200000000003 226.36000000000004,220.584 Z" fill="rgb(229,142,81)" stroke="none" stroke-width="0" /><path d="M 120.552,158.76000000000002 C 118.064,162.792 119.904,168.584 125.35999999999999,172.688 C 130.59199999999998,172.45600000000002 132.224,167.99200000000002 129.944,162.2 Z" fill="rgb(229,142,81)" stroke="none" stroke-width="0" /><path d="M 163.22400000000002,107.048 C 169.37600000000003,115.464 182.288,117.552 194.27200000000002,117.472 C 201.328,117.51999999999998 199.28799999999998,112.66399999999999 186.152,103.77600000000001 Z" fill="rgb(229,142,81)" stroke="none" stroke-width="0" /><path d="M 188.75199999999998,223.03199999999995 C 190.30400000000003,227.25599999999997 198.04,230.88 208.776,232.216 C 215.75200000000004,230.608 216.72800000000007,227.448 212.89600000000004,224.66400000000004 C 205.8,222.32 198.02399999999997,220.30399999999995 191.92800000000003,220.27199999999993 Z" fill="rgb(253,168,142)" stroke="none" stroke-width="0" /><path d="M 120.80799999999999,160.528 C 118.93599999999999,163.224 120.056,167.016 123.64800000000001,169.68 C 127.552,169.72 129.312,167.13600000000002 128.088,163.232 Z" fill="rgb(253,168,142)" stroke="none" stroke-width="0" /><path d="M 170.32000000000002,101.488 C 163.744,110.16799999999999 168.64000000000001,126.43199999999999 179.74399999999997,142.64 C 190.144,149.68 196.336,140.336 194.84799999999998,120.416 Z" fill="rgb(253,168,142)" stroke="none" stroke-width="0" /><path d="M 204.95199999999997,218.63200000000003 C 201.57599999999996,216.704 194.912,217.36 189.54400000000004,220.288 C 188.32,224.296 191.408,226.97600000000003 197.27999999999997,226.216 Z" fill="rgb(204,224,222)" stroke="none" stroke-width="0" /><path d="M 97.104,155.248 C 96.984,161.36 101.72799999999998,166.008 108.744,166.21599999999998 C 113.864,162.45600000000002 113.87200000000001,157.11200000000002 108.80799999999999,152.776 Z" fill="rgb(204,224,222)" stroke="none" stroke-width="0" /><path d="M 159.25600000000003,105.72 C 164.00000000000003,109.02400000000002 173.45600000000002,109.84800000000001 179.96,107.936 C 179.56,104.96 172.51999999999998,102.68799999999999 163.24800000000002,102.824 Z" fill="rgb(204,224,222)" stroke="none" stroke-width="0" /></svg>