<?xml version="1.0" encoding="utf-8" ?>
<svg baseProfile="full" height="800" version="1.1" width="800" xmlns="http://www.w3.org/2000/svg" xmlns:ev="http://www.w3.org/2001/xml-events" xmlns:xlink="http://www.w3.org/1999/xlink"><defs /><path d="M 0.0,0.0 C 0.0,799.0 799.0,799.0 799.0,0.0 Z" fill="rgb(254,184,93)" stroke="none" stroke-width="0" /><path d="M 207.0,264.0 C 206.0,265.0 206.0,266.0 205.0,267.0 C 205.0,268.0 204.0,269.0 204.0,275.0 C 205.0,276.0 205.0,278.0 206.0,279.0 C 206.0,282.0 207.0,283.0 207.0,288.0 C 206.0,289.0 206.0,291.0 205.0,292.0 C 205.0,293.0 206.0,294.0 207.0,293.0 C 207.0,291.0 208.0,290.0 208.0,280.0 C 207.0,279.0 207.0,278.0 206.0,277.0 C 206.0,274.0 205.0,273.0 205.0,271.0 C 206.0,270.0 206.0,268.0 207.0,267.0 Z" fill="rgb(88,34,76)" stroke="none" stroke-width="0" /><path d="M 197.0,255.0 C 196.0,256.0 196.0,257.0 195.0,258.0 C 195.0,260.0 194.0,261.0 194.0,271.0 C 195.0,272.0 195.0,273.0 196.0,274.0 C 196.0,275.0 197.0,276.0 197.0,284.0 C 198.0,284.0 198.0,282.0 199.0,281.0 C 199.0,278.0 198.0,277.0 198.0,275.0 C 197.0,274.0 197.0,272.0 196.0,271.0 C 196.0,269.0 195.0,268.0 195.0,263.0 C 196.0,262.0 196.0,260.0 197.0,259.0 Z" fill="rgb(88,34,76)" stroke="none" stroke-width="0" /><path d="M 329.0,127.0 C 329.0,128.0 330.0,129.0 330.0,130.0 C 332.0,132.0 332.0,133.0 335.0,136.0 C 335.0,137.0 337.0,139.0 336.0,140.0 C 335.0,140.0 334.0,141.0 324.0,141.0 C 321.0,138.0 321.0,137.0 316.0,132.0 C 316.0,131.0 316.0,132.0 317.0,133.0 C 317.0,134.0 318.0,135.0 318.0,136.0 C 320.0,138.0 320.0,139.0 321.0,140.0 C 320.0,141.0 316.0,141.0 315.0,142.0 C 314.0,142.0 310.0,146.0 310.0,147.0 C 309.0,148.0 309.0,149.0 308.0,150.0 C 308.0,157.0 309.0,158.0 309.0,160.0 C 310.0,161.0 310.0,163.0 311.0,164.0 C 311.0,165.0 312.0,166.0 312.0,167.0 C 314.0,169.0 314.0,170.0 315.0,171.0 C 315.0,176.0 314.0,177.0 314.0,183.0 C 313.0,184.0 313.0,192.0 312.0,193.0 C 312.0,195.0 311.0,196.0 309.0,196.0 C 308.0,197.0 307.0,197.0 306.0,198.0 C 305.0,198.0 303.0,200.0 303.0,201.0 C 302.0,202.0 302.0,203.0 301.0,204.0 C 301.0,219.0 302.0,220.0 302.0,221.0 C 306.0,225.0 307.0,225.0 308.0,226.0 C 312.0,226.0 313.0,227.0 313.0,231.0 C 314.0,232.0 314.0,237.0 315.0,238.0 C 315.0,241.0 316.0,242.0 316.0,244.0 C 317.0,245.0 317.0,247.0 318.0,248.0 C 318.0,250.0 319.0,251.0 319.0,252.0 C 320.0,253.0 320.0,254.0 321.0,255.0 C 321.0,256.0 323.0,258.0 323.0,259.0 C 325.0,261.0 325.0,262.0 333.0,270.0 C 334.0,270.0 336.0,272.0 337.0,272.0 C 338.0,273.0 339.0,273.0 340.0,274.0 C 341.0,274.0 342.0,275.0 343.0,275.0 C 344.0,276.0 345.0,276.0 346.0,277.0 C 347.0,277.0 348.0,278.0 349.0,278.0 C 350.0,279.0 351.0,279.0 352.0,280.0 C 353.0,280.0 354.0,281.0 355.0,281.0 C 357.0,283.0 358.0,283.0 359.0,284.0 C 360.0,284.0 368.0,292.0 368.0,293.0 C 369.0,294.0 369.0,295.0 370.0,296.0 C 370.0,300.0 369.0,301.0 369.0,302.0 C 368.0,303.0 368.0,304.0 367.0,305.0 C 367.0,306.0 366.0,307.0 366.0,310.0 C 365.0,311.0 365.0,322.0 366.0,323.0 C 366.0,324.0 362.0,328.0 361.0,328.0 C 360.0,329.0 360.0,330.0 358.0,332.0 C 358.0,333.0 356.0,335.0 356.0,337.0 C 355.0,338.0 355.0,339.0 354.0,340.0 C 354.0,344.0 353.0,345.0 353.0,349.0 C 351.0,351.0 351.0,352.0 345.0,358.0 C 344.0,358.0 342.0,360.0 341.0,360.0 C 339.0,362.0 338.0,362.0 337.0,363.0 C 336.0,363.0 335.0,364.0 333.0,364.0 C 332.0,365.0 329.0,365.0 328.0,366.0 C 317.0,366.0 316.0,365.0 314.0,365.0 C 313.0,364.0 311.0,364.0 310.0,363.0 C 309.0,363.0 308.0,362.0 307.0,362.0 C 305.0,360.0 304.0,360.0 303.0,359.0 C 303.0,358.0 305.0,356.0 305.0,355.0 C 302.0,352.0 301.0,352.0 298.0,349.0 C 297.0,349.0 294.0,346.0 293.0,346.0 C 291.0,344.0 288.0,344.0 285.0,347.0 C 282.0,347.0 281.0,346.0 280.0,346.0 C 278.0,344.0 277.0,344.0 275.0,342.0 C 274.0,342.0 267.0,335.0 267.0,334.0 C 266.0,333.0 266.0,332.0 265.0,331.0 C 265.0,321.0 264.0,320.0 264.0,318.0 C 260.0,314.0 259.0,314.0 258.0,313.0 C 257.0,313.0 256.0,312.0 255.0,312.0 C 254.0,311.0 247.0,311.0 246.0,312.0 C 244.0,312.0 243.0,313.0 242.0,313.0 C 240.0,311.0 240.0,310.0 236.0,306.0 C 233.0,306.0 232.0,305.0 230.0,305.0 C 229.0,304.0 229.0,301.0 228.0,300.0 C 228.0,297.0 227.0,297.0 226.0,296.0 C 184.0,296.0 183.0,297.0 182.0,297.0 C 182.0,301.0 181.0,302.0 181.0,321.0 C 182.0,322.0 182.0,326.0 183.0,327.0 C 183.0,329.0 184.0,330.0 184.0,332.0 C 185.0,333.0 185.0,334.0 186.0,335.0 C 186.0,336.0 187.0,337.0 187.0,338.0 C 190.0,341.0 190.0,342.0 193.0,345.0 C 217.0,345.0 221.0,341.0 221.0,340.0 C 223.0,338.0 230.0,338.0 231.0,339.0 C 231.0,341.0 234.0,344.0 235.0,344.0 C 240.0,349.0 242.0,349.0 243.0,350.0 C 245.0,350.0 246.0,351.0 252.0,351.0 C 253.0,350.0 254.0,350.0 255.0,351.0 C 256.0,351.0 262.0,357.0 263.0,357.0 C 266.0,360.0 267.0,360.0 268.0,361.0 C 268.0,363.0 267.0,364.0 267.0,366.0 C 270.0,369.0 270.0,370.0 273.0,373.0 C 274.0,373.0 277.0,376.0 279.0,376.0 C 280.0,377.0 281.0,377.0 282.0,376.0 C 286.0,380.0 287.0,380.0 290.0,383.0 C 291.0,383.0 293.0,385.0 294.0,385.0 C 296.0,387.0 297.0,387.0 298.0,388.0 C 299.0,388.0 300.0,389.0 301.0,389.0 C 302.0,390.0 304.0,390.0 305.0,391.0 C 307.0,391.0 308.0,392.0 310.0,392.0 C 311.0,393.0 316.0,393.0 317.0,394.0 C 330.0,394.0 331.0,393.0 336.0,393.0 C 337.0,392.0 339.0,392.0 340.0,391.0 C 342.0,391.0 343.0,390.0 344.0,390.0 C 345.0,389.0 346.0,389.0 347.0,388.0 C 348.0,388.0 349.0,387.0 350.0,387.0 C 351.0,386.0 352.0,386.0 354.0,384.0 C 355.0,384.0 358.0,381.0 359.0,381.0 C 363.0,377.0 364.0,378.0 364.0,380.0 C 365.0,381.0 365.0,385.0 366.0,386.0 C 366.0,391.0 367.0,392.0 367.0,400.0 C 368.0,401.0 368.0,439.0 367.0,440.0 C 367.0,446.0 366.0,447.0 366.0,451.0 C 365.0,452.0 365.0,455.0 364.0,456.0 C 364.0,458.0 363.0,459.0 363.0,460.0 C 364.0,461.0 364.0,462.0 365.0,462.0 C 367.0,464.0 367.0,473.0 366.0,474.0 C 366.0,489.0 365.0,490.0 365.0,515.0 C 364.0,516.0 364.0,534.0 365.0,535.0 C 365.0,558.0 366.0,559.0 366.0,570.0 C 367.0,571.0 367.0,580.0 368.0,581.0 C 368.0,587.0 369.0,588.0 369.0,594.0 C 370.0,595.0 370.0,597.0 371.0,598.0 C 372.0,598.0 373.0,599.0 373.0,603.0 C 372.0,604.0 368.0,604.0 367.0,603.0 C 366.0,603.0 365.0,602.0 363.0,604.0 C 362.0,604.0 361.0,603.0 360.0,604.0 C 360.0,605.0 359.0,606.0 358.0,606.0 C 357.0,605.0 356.0,605.0 354.0,607.0 C 351.0,607.0 350.0,608.0 348.0,608.0 C 347.0,609.0 345.0,609.0 344.0,610.0 C 342.0,610.0 339.0,613.0 339.0,614.0 C 338.0,615.0 338.0,616.0 339.0,617.0 C 339.0,618.0 340.0,619.0 341.0,619.0 C 342.0,620.0 343.0,620.0 344.0,621.0 C 347.0,621.0 348.0,622.0 378.0,622.0 C 379.0,621.0 386.0,621.0 387.0,620.0 C 389.0,620.0 391.0,618.0 391.0,617.0 C 392.0,616.0 392.0,612.0 393.0,611.0 C 393.0,605.0 392.0,605.0 391.0,604.0 C 390.0,605.0 389.0,604.0 389.0,599.0 C 390.0,598.0 392.0,598.0 393.0,597.0 C 393.0,596.0 394.0,595.0 394.0,591.0 C 395.0,590.0 395.0,581.0 396.0,580.0 C 396.0,565.0 397.0,564.0 397.0,533.0 C 398.0,532.0 398.0,493.0 399.0,492.0 C 400.0,493.0 402.0,493.0 404.0,495.0 C 405.0,495.0 406.0,496.0 406.0,497.0 C 407.0,498.0 407.0,502.0 408.0,503.0 C 408.0,510.0 409.0,511.0 409.0,522.0 C 410.0,523.0 410.0,537.0 411.0,538.0 C 411.0,553.0 412.0,554.0 412.0,571.0 C 413.0,572.0 413.0,595.0 414.0,596.0 C 414.0,599.0 415.0,599.0 416.0,600.0 C 417.0,600.0 418.0,601.0 418.0,604.0 C 416.0,606.0 415.0,606.0 413.0,608.0 C 412.0,608.0 408.0,612.0 408.0,613.0 C 406.0,615.0 406.0,616.0 405.0,617.0 C 405.0,618.0 404.0,619.0 404.0,621.0 C 403.0,622.0 403.0,625.0 404.0,626.0 C 404.0,628.0 406.0,630.0 407.0,630.0 C 408.0,631.0 409.0,631.0 410.0,632.0 C 418.0,632.0 419.0,631.0 422.0,631.0 C 423.0,630.0 425.0,630.0 426.0,629.0 C 427.0,629.0 432.0,624.0 432.0,623.0 C 433.0,622.0 433.0,620.0 434.0,619.0 C 434.0,608.0 433.0,607.0 433.0,606.0 C 432.0,605.0 432.0,602.0 433.0,601.0 C 435.0,601.0 437.0,599.0 437.0,594.0 C 438.0,593.0 438.0,583.0 439.0,582.0 C 439.0,569.0 440.0,568.0 440.0,549.0 C 441.0,548.0 441.0,512.0 442.0,511.0 C 442.0,491.0 441.0,490.0 441.0,477.0 C 442.0,476.0 455.0,476.0 456.0,477.0 C 458.0,477.0 459.0,476.0 461.0,476.0 C 462.0,475.0 463.0,475.0 467.0,471.0 C 467.0,469.0 468.0,468.0 468.0,461.0 C 469.0,460.0 469.0,447.0 470.0,446.0 C 470.0,435.0 469.0,434.0 469.0,432.0 C 467.0,430.0 467.0,429.0 466.0,429.0 C 464.0,427.0 462.0,427.0 461.0,426.0 C 457.0,426.0 456.0,425.0 455.0,425.0 C 453.0,423.0 453.0,422.0 454.0,421.0 C 454.0,415.0 455.0,414.0 455.0,383.0 C 454.0,382.0 454.0,377.0 453.0,376.0 C 453.0,372.0 452.0,371.0 452.0,368.0 C 451.0,367.0 451.0,365.0 450.0,364.0 C 450.0,362.0 449.0,361.0 449.0,359.0 C 448.0,358.0 448.0,357.0 447.0,356.0 C 447.0,355.0 446.0,354.0 446.0,353.0 C 445.0,352.0 445.0,351.0 444.0,350.0 C 444.0,349.0 443.0,348.0 443.0,347.0 C 442.0,346.0 442.0,345.0 441.0,344.0 C 442.0,343.0 444.0,343.0 447.0,340.0 C 447.0,339.0 448.0,338.0 448.0,325.0 C 447.0,324.0 447.0,322.0 446.0,321.0 C 446.0,320.0 445.0,319.0 445.0,318.0 C 444.0,317.0 444.0,316.0 441.0,313.0 C 441.0,312.0 437.0,308.0 436.0,308.0 C 433.0,305.0 432.0,305.0 430.0,303.0 C 429.0,303.0 426.0,300.0 425.0,300.0 C 419.0,294.0 418.0,294.0 417.0,293.0 C 416.0,293.0 415.0,292.0 410.0,292.0 C 409.0,293.0 408.0,293.0 406.0,291.0 C 406.0,287.0 405.0,286.0 405.0,263.0 C 406.0,262.0 406.0,258.0 407.0,257.0 C 407.0,254.0 408.0,253.0 408.0,251.0 C 409.0,250.0 409.0,249.0 410.0,248.0 C 414.0,252.0 416.0,252.0 417.0,253.0 C 418.0,252.0 420.0,252.0 421.0,251.0 C 422.0,251.0 426.0,247.0 426.0,246.0 C 428.0,244.0 428.0,243.0 430.0,241.0 C 430.0,240.0 431.0,239.0 431.0,238.0 C 432.0,237.0 432.0,236.0 433.0,235.0 C 433.0,234.0 434.0,233.0 434.0,231.0 C 435.0,230.0 435.0,228.0 436.0,227.0 C 436.0,225.0 437.0,224.0 437.0,221.0 C 438.0,220.0 438.0,214.0 439.0,213.0 C 439.0,200.0 438.0,199.0 438.0,194.0 C 437.0,193.0 437.0,189.0 436.0,188.0 C 436.0,186.0 435.0,185.0 435.0,183.0 C 434.0,182.0 434.0,181.0 433.0,180.0 C 433.0,178.0 432.0,177.0 432.0,176.0 C 430.0,174.0 430.0,173.0 429.0,172.0 C 429.0,171.0 421.0,163.0 421.0,160.0 C 420.0,159.0 420.0,158.0 419.0,157.0 C 419.0,156.0 418.0,155.0 418.0,154.0 C 417.0,153.0 417.0,152.0 415.0,150.0 C 415.0,149.0 407.0,141.0 406.0,141.0 C 403.0,138.0 402.0,138.0 401.0,137.0 C 400.0,137.0 398.0,135.0 397.0,135.0 C 396.0,134.0 394.0,134.0 393.0,133.0 C 392.0,133.0 391.0,132.0 389.0,132.0 C 388.0,131.0 386.0,131.0 385.0,130.0 C 380.0,130.0 379.0,129.0 362.0,129.0 C 361.0,130.0 358.0,130.0 357.0,131.0 C 355.0,131.0 354.0,132.0 353.0,132.0 C 352.0,133.0 351.0,133.0 350.0,134.0 C 349.0,134.0 348.0,135.0 347.0,135.0 C 345.0,137.0 344.0,137.0 343.0,138.0 C 343.0,139.0 344.0,139.0 345.0,138.0 C 346.0,138.0 348.0,136.0 349.0,136.0 C 350.0,135.0 351.0,135.0 352.0,134.0 C 353.0,134.0 354.0,133.0 355.0,133.0 C 356.0,132.0 358.0,132.0 359.0,131.0 C 363.0,131.0 364.0,130.0 377.0,130.0 C 378.0,131.0 383.0,131.0 384.0,132.0 C 387.0,132.0 388.0,133.0 390.0,133.0 C 391.0,134.0 392.0,134.0 393.0,135.0 C 394.0,135.0 395.0,136.0 394.0,137.0 C 392.0,137.0 391.0,136.0 389.0,136.0 C 388.0,135.0 384.0,135.0 383.0,134.0 C 365.0,134.0 364.0,135.0 360.0,135.0 C 359.0,136.0 357.0,136.0 356.0,137.0 C 355.0,137.0 354.0,138.0 352.0,138.0 C 351.0,139.0 350.0,139.0 348.0,141.0 C 347.0,141.0 346.0,142.0 345.0,142.0 C 344.0,143.0 343.0,142.0 342.0,142.0 C 340.0,140.0 340.0,139.0 332.0,131.0 Z" fill="rgb(88,34,76)" stroke="none" stroke-width="0" /><path d="M 428.0,425.0 C 427.0,426.0 426.0,426.0 426.0,438.0 C 450.0,438.0 450.0,436.0 451.0,435.0 C 451.0,432.0 452.0,431.0 452.0,428.0 C 453.0,427.0 450.0,427.0 449.0,426.0 Z" fill="rgb(232,65,105)" stroke="none" stroke-width="0" /><path d="M 287.0,348.0 C 283.0,352.0 282.0,352.0 277.0,357.0 C 276.0,357.0 271.0,362.0 271.0,363.0 C 270.0,364.0 270.0,366.0 276.0,372.0 C 277.0,372.0 279.0,374.0 281.0,374.0 C 285.0,370.0 286.0,370.0 293.0,363.0 C 294.0,363.0 300.0,357.0 301.0,357.0 C 299.0,355.0 298.0,355.0 296.0,353.0 C 295.0,353.0 292.0,350.0 291.0,350.0 Z" fill="rgb(232,65,105)" stroke="none" stroke-width="0" /><path d="M 417.0,326.0 C 413.0,330.0 412.0,330.0 410.0,332.0 C 409.0,332.0 408.0,333.0 407.0,333.0 C 406.0,334.0 404.0,334.0 403.0,335.0 C 397.0,335.0 396.0,334.0 393.0,334.0 C 392.0,335.0 393.0,335.0 396.0,338.0 C 396.0,340.0 395.0,341.0 394.0,341.0 C 393.0,340.0 393.0,341.0 392.0,342.0 C 392.0,343.0 391.0,344.0 391.0,345.0 C 390.0,346.0 390.0,349.0 389.0,350.0 C 389.0,353.0 388.0,354.0 388.0,358.0 C 387.0,359.0 387.0,369.0 386.0,370.0 C 386.0,372.0 390.0,376.0 390.0,380.0 C 386.0,384.0 384.0,384.0 383.0,383.0 C 382.0,383.0 380.0,381.0 380.0,380.0 C 379.0,379.0 379.0,377.0 380.0,376.0 C 380.0,375.0 383.0,372.0 383.0,363.0 C 384.0,362.0 384.0,355.0 385.0,354.0 C 385.0,350.0 386.0,349.0 386.0,347.0 C 387.0,346.0 387.0,344.0 388.0,343.0 C 388.0,342.0 389.0,341.0 389.0,340.0 C 391.0,338.0 390.0,337.0 389.0,337.0 C 385.0,341.0 385.0,342.0 384.0,343.0 C 384.0,344.0 383.0,345.0 383.0,346.0 C 382.0,347.0 382.0,348.0 379.0,351.0 C 378.0,351.0 377.0,350.0 376.0,350.0 C 375.0,349.0 375.0,348.0 374.0,347.0 C 374.0,346.0 373.0,345.0 373.0,344.0 C 372.0,343.0 372.0,342.0 372.0,354.0 C 374.0,354.0 376.0,356.0 376.0,357.0 C 377.0,358.0 377.0,361.0 373.0,365.0 C 369.0,365.0 367.0,363.0 367.0,362.0 C 366.0,361.0 366.0,358.0 367.0,357.0 C 367.0,356.0 368.0,355.0 368.0,342.0 C 369.0,341.0 369.0,334.0 368.0,333.0 C 368.0,331.0 367.0,330.0 367.0,329.0 C 366.0,328.0 363.0,331.0 363.0,332.0 C 361.0,334.0 361.0,335.0 360.0,336.0 C 360.0,337.0 359.0,338.0 359.0,340.0 C 358.0,341.0 358.0,344.0 357.0,345.0 C 357.0,351.0 355.0,353.0 355.0,354.0 C 347.0,362.0 346.0,362.0 344.0,364.0 C 343.0,364.0 342.0,365.0 341.0,365.0 C 340.0,366.0 339.0,366.0 338.0,367.0 C 337.0,367.0 336.0,368.0 334.0,368.0 C 333.0,369.0 329.0,369.0 328.0,370.0 C 320.0,370.0 319.0,369.0 315.0,369.0 C 314.0,368.0 315.0,367.0 314.0,368.0 C 312.0,368.0 311.0,367.0 312.0,366.0 C 311.0,367.0 310.0,367.0 309.0,366.0 C 309.0,365.0 308.0,366.0 307.0,365.0 C 307.0,364.0 306.0,365.0 302.0,361.0 C 301.0,361.0 298.0,364.0 297.0,364.0 C 291.0,370.0 290.0,370.0 285.0,375.0 C 290.0,380.0 291.0,380.0 293.0,382.0 C 294.0,382.0 296.0,384.0 297.0,384.0 C 298.0,385.0 299.0,385.0 300.0,386.0 C 301.0,386.0 302.0,387.0 303.0,387.0 C 304.0,388.0 306.0,388.0 307.0,389.0 C 309.0,389.0 310.0,390.0 313.0,390.0 C 314.0,391.0 320.0,391.0 321.0,392.0 C 327.0,392.0 328.0,391.0 333.0,391.0 C 334.0,390.0 337.0,390.0 338.0,389.0 C 340.0,389.0 341.0,388.0 343.0,388.0 C 344.0,387.0 345.0,387.0 346.0,386.0 C 347.0,386.0 349.0,384.0 350.0,384.0 C 351.0,383.0 352.0,383.0 355.0,380.0 C 356.0,380.0 361.0,375.0 360.0,374.0 C 360.0,373.0 358.0,371.0 358.0,369.0 C 359.0,368.0 361.0,368.0 364.0,371.0 C 364.0,372.0 365.0,373.0 365.0,375.0 C 366.0,376.0 366.0,378.0 367.0,379.0 C 367.0,380.0 368.0,381.0 368.0,382.0 C 367.0,383.0 368.0,383.0 369.0,384.0 C 369.0,388.0 368.0,389.0 369.0,388.0 C 370.0,389.0 370.0,394.0 371.0,395.0 C 371.0,403.0 372.0,404.0 372.0,421.0 C 373.0,422.0 373.0,429.0 372.0,430.0 C 372.0,443.0 371.0,444.0 371.0,451.0 C 370.0,452.0 370.0,456.0 369.0,457.0 C 369.0,460.0 368.0,461.0 371.0,461.0 C 372.0,462.0 377.0,462.0 378.0,463.0 C 392.0,463.0 392.0,452.0 393.0,451.0 C 393.0,441.0 394.0,440.0 394.0,433.0 C 395.0,432.0 395.0,428.0 396.0,427.0 C 396.0,426.0 397.0,425.0 397.0,424.0 C 400.0,421.0 401.0,421.0 402.0,420.0 C 404.0,420.0 405.0,419.0 410.0,419.0 C 411.0,420.0 422.0,420.0 423.0,421.0 C 425.0,421.0 425.0,418.0 426.0,417.0 C 426.0,410.0 427.0,409.0 427.0,393.0 C 426.0,392.0 426.0,385.0 425.0,384.0 C 425.0,380.0 424.0,379.0 424.0,376.0 C 423.0,375.0 423.0,373.0 422.0,372.0 C 422.0,370.0 421.0,369.0 421.0,367.0 C 420.0,366.0 420.0,365.0 419.0,364.0 C 419.0,363.0 418.0,362.0 418.0,361.0 C 417.0,360.0 417.0,359.0 416.0,358.0 C 416.0,357.0 413.0,354.0 413.0,352.0 C 414.0,351.0 415.0,351.0 418.0,354.0 C 418.0,355.0 420.0,357.0 420.0,358.0 C 421.0,359.0 421.0,360.0 422.0,361.0 C 422.0,362.0 423.0,363.0 423.0,364.0 C 424.0,365.0 424.0,367.0 425.0,368.0 C 425.0,369.0 426.0,370.0 426.0,373.0 C 427.0,374.0 427.0,376.0 428.0,377.0 C 428.0,380.0 429.0,381.0 429.0,386.0 C 430.0,387.0 430.0,415.0 429.0,416.0 C 429.0,421.0 439.0,421.0 440.0,422.0 C 446.0,422.0 447.0,423.0 451.0,423.0 C 451.0,419.0 452.0,418.0 452.0,411.0 C 453.0,410.0 453.0,388.0 452.0,387.0 C 452.0,380.0 451.0,379.0 451.0,375.0 C 450.0,374.0 450.0,371.0 449.0,370.0 C 449.0,367.0 448.0,366.0 448.0,364.0 C 447.0,363.0 447.0,361.0 446.0,360.0 C 446.0,359.0 445.0,358.0 445.0,356.0 C 444.0,355.0 444.0,354.0 443.0,353.0 C 443.0,352.0 442.0,351.0 442.0,350.0 C 440.0,348.0 440.0,347.0 439.0,346.0 C 439.0,345.0 437.0,343.0 437.0,342.0 C 433.0,338.0 433.0,337.0 425.0,329.0 Z" fill="rgb(232,65,105)" stroke="none" stroke-width="0" /><path d="M 371.0,304.0 C 370.0,305.0 370.0,306.0 369.0,307.0 C 369.0,309.0 368.0,310.0 368.0,313.0 C 367.0,314.0 367.0,319.0 368.0,320.0 C 368.0,323.0 369.0,324.0 369.0,325.0 C 370.0,326.0 370.0,328.0 370.0,325.0 Z" fill="rgb(232,65,105)" stroke="none" stroke-width="0" /><path d="M 412.0,294.0 C 411.0,295.0 410.0,295.0 409.0,296.0 C 409.0,298.0 411.0,300.0 411.0,301.0 C 417.0,307.0 417.0,312.0 414.0,315.0 C 413.0,315.0 412.0,316.0 411.0,316.0 C 410.0,317.0 409.0,317.0 408.0,318.0 C 406.0,318.0 405.0,319.0 403.0,319.0 C 402.0,320.0 401.0,320.0 400.0,321.0 C 398.0,321.0 397.0,322.0 396.0,322.0 C 395.0,323.0 394.0,323.0 391.0,326.0 C 391.0,327.0 394.0,330.0 395.0,330.0 C 396.0,331.0 404.0,331.0 405.0,330.0 C 406.0,330.0 407.0,329.0 408.0,329.0 C 409.0,328.0 410.0,328.0 413.0,325.0 C 414.0,325.0 417.0,322.0 420.0,322.0 C 421.0,323.0 423.0,323.0 424.0,324.0 C 425.0,324.0 426.0,325.0 427.0,325.0 C 438.0,336.0 438.0,337.0 442.0,341.0 C 443.0,340.0 444.0,340.0 444.0,339.0 C 445.0,338.0 445.0,337.0 446.0,336.0 C 446.0,328.0 445.0,327.0 445.0,324.0 C 444.0,323.0 444.0,322.0 443.0,321.0 C 443.0,320.0 442.0,319.0 442.0,318.0 C 441.0,317.0 441.0,316.0 433.0,308.0 C 432.0,308.0 430.0,306.0 429.0,306.0 C 427.0,304.0 426.0,304.0 419.0,297.0 C 418.0,297.0 416.0,295.0 414.0,295.0 Z" fill="rgb(232,65,105)" stroke="none" stroke-width="0" /><path d="M 346.0,247.0 C 345.0,248.0 336.0,248.0 336.0,251.0 C 335.0,252.0 338.0,252.0 338.0,251.0 C 339.0,250.0 340.0,251.0 341.0,251.0 C 341.0,250.0 342.0,249.0 343.0,250.0 Z" fill="rgb(232,65,105)" stroke="none" stroke-width="0" /></svg>