<?xml version="1.0" encoding="UTF-8"?>
<!-- Generator: visioncortex VTracer 0.6.4 -->
<svg version="1.1" xmlns="http://www.w3.org/2000/svg" width="800" height="800">
<path d="M0 0 C264 0 528 0 800 0 C800 264 800 528 800 800 C536 800 272 800 0 800 C0 536 0 272 0 0 Z " fill="#FEB85B" transform="translate(0,0)"/>
<path d="M0 0 C12 11.999999999999972 12 11.999999999999972 12 14 C19.34164078649991 14.44721359549996 19.34164078649991 14.44721359549996 30 8 C41.93732472317703 6.010445879470495 53.23911166620769 6.64782233324155 65 9 C46.88742437906228 4.169979834416608 33.11752648036236 2.2549823464251233 17 13 C16.00999999999999 13 15.019999999999982 13 14 13 C15 10 15 10 31 2 C58.18908416484305 2 78.58785268543897 6.778742199518206 93 32 C93.99000000000001 34.97 93.99000000000001 34.97 95 38 C97.31 40.639999999999986 99.62 43.28 102 46 C115.5658599620134 73.13171992402681 113.22134464696705 98.39807907576136 96 123 C92 126 92 126 85 126 C84.00999999999999 125.00999999999999 83.01999999999998 124.01999999999998 82 123 C77.51552133399855 137.57455566450477 76.43809540858126 150.62857245148734 79 166 C81.31 165.66999999999996 83.62 165.34000000000003 86 165 C92 168 92 168 100 175 C103.63 177.64 107.25999999999999 180.27999999999997 111 183 C119.97577080317785 194.96769440423714 120 195.89634108322127 120 212 C116 217 116 217 113 217 C116.95999999999998 223.93 116.95999999999998 223.93 121 231 C128.81621330657129 259.1383679036565 127 262.5661793760795 127 298 C129.97000000000003 298.66 132.94 299.32 136 300 C147.20947296883236 311.20947296883236 141.53391067333428 327.4278486033243 140 342 C132.79262071730756 354.01229880448744 130.13764363185368 350 113 350 C113 376.4 113 402.79999999999995 113 430 C109.45454545454533 472.54545454545473 109.45454545454533 472.54545454545473 107 475 C106.00999999999999 475 105.01999999999998 475 104 475 C104.65999999999997 476.65 105.32 478.29999999999995 106 480 C106 494 106 494 100 502 C91 506 91 506 80 506 C75 501 75 501 74 494 C83.375 479 83.375 479 89 479 C89 477.35 89 475.70000000000005 89 474 C87.35000000000002 473.3399999999999 85.69999999999999 472.68000000000006 84 472 C83.00999999999999 451.21000000000004 83.00999999999999 451.21000000000004 82 430 C81.34000000000003 421.4200000000001 80.68 412.8399999999999 80 404 C79.66999999999996 397.4 79.34000000000003 390.79999999999995 79 384 C78.85643947419987 369.83920602979356 78.85643947419987 369.83920602979356 70 366 C70 381.84 70 397.68000000000006 70 414 C67.29411764705878 465.41176470588243 67.29411764705878 465.41176470588243 64 472 C63.00999999999999 472 62.01999999999998 472 61 472 C61 473.98 61 475.96000000000004 61 478 C62.31999999999999 478 63.639999999999986 478 65 478 C65 484.50508594929556 64.63000612147641 488.5549908177853 61 494 C45.21821418616088 499.2605952712797 24.765450927899508 499.3827254639498 10 492 C10 486 10 486 13 483 C22 480 22 480 27 480 C27 479.3399999999999 27 478.68000000000006 27 478 C35 476 35 476 44 477 C44.745355992499924 471.6273220037501 44.745355992499924 471.6273220037501 40 470 C38.67251281655069 460.70758971585474 37.66877838138407 451.36289733937656 37 442 C36.66999999999996 441.01 36.34000000000003 440.02 36 439 C36 354.0000000000001 36 354.0000000000001 37 337 C36.00999999999999 336.34 35.01999999999998 335.68 34 335 C35.100504934614605 327.2964654576977 36.565913610138864 319.648460745926 38 312 C38.21732872902919 281.62336878279643 38.21732872902919 281.62336878279643 35 252 C30.710000000000036 254.97000000000003 26.41999999999996 257.94 22 261 C-3.440477137318055 271.9030616302792 -22.72265847133508 269.3268211889616 -45 252 C-47.31 251.34000000000003 -49.620000000000005 250.68 -52 250 C-62.208333333333314 241.25 -62.208333333333314 241.25 -61 234 C-62.98000000000002 233.01 -62.98000000000002 233.01 -65 232 C-67.63999999999999 229.69 -70.27999999999997 227.38 -73 225 C-76.63 225 -80.25999999999999 225 -84 225 C-98 218 -98 218 -98 212 C-106.43143438807957 212.1291907136308 -106.43143438807957 212.1291907136308 -111 219 C-136 219 -136 219 -143 210 C-148.90641919832618 196.71055680376605 -150.8086873272936 183.42606198188076 -146 169 C-101 169 -101 169 -99 172 C-99 175.96000000000004 -99 179.91999999999996 -99 184 C-96.36000000000001 184.33000000000004 -93.72 184.65999999999997 -91 185 C-92 187 -92 187 -98 188 C-97.505 190.47500000000002 -97.505 190.47500000000002 -97 193 C-95.02000000000001 193.33000000000004 -93.03999999999999 193.65999999999997 -91 194 C-90.67000000000002 192.68 -90.34 191.36 -90 190 C-89.34 190 -88.68 190 -88 190 C-88 191.64999999999998 -88 193.3 -88 195 C-84.37 194.66999999999996 -80.74000000000001 194.34000000000003 -77 194 C-78 196 -79 198 -80 200 C-80.21919864974046 207.69860185660684 -80.21919864974046 207.69860185660684 -79 214 C-84.82485174557414 208.17514825442584 -83 208.53632288901792 -83 198 C-83.99000000000001 198 -84.97999999999999 198 -86 198 C-86.495 201.95999999999998 -86.495 201.95999999999998 -87 206 C-87.32999999999998 206.65999999999997 -87.66 207.32 -88 208 C-86.68 208.33000000000004 -85.36000000000001 208.65999999999997 -84 209 C-83 210 -83 210 -83 215 C-85.475 216.98000000000002 -85.475 216.98000000000002 -88 219 C-82.94772641699669 221.83562902179676 -82.94772641699669 221.83562902179676 -72 222 C-68.03999999999996 225.46500000000003 -68.03999999999996 225.46500000000003 -64 229 C-60.149071198499996 232.81989159174998 -60.149071198499996 232.81989159174998 -56 230 C-54.01999999999998 228.01999999999998 -52.04000000000002 226.03999999999996 -50 224 C-49.34000000000003 224 -48.68000000000001 224 -48 224 C-52.599501217181 219.23511913669995 -52.599501217181 219.23511913669995 -61 213 C-65 206 -65 206 -66 194 C-67.64999999999998 192.35000000000002 -69.30000000000001 190.7 -71 189 C-71.32999999999998 188.66999999999996 -71.65999999999997 188.34000000000003 -72 188 C-76.94999999999999 188 -81.9 188 -87 188 C-86.34 187.66999999999996 -85.68 187.34000000000003 -85 187 C-85 186.34000000000003 -85 185.68 -85 185 C-77.11335486277403 181.05667743138702 -72.49330585351345 184.9416838415541 -66 189 C-63 193 -63 193 -62 205 C-56.94251612730335 212.58622580904495 -52.23400786508904 217.46099868915184 -43 219 C-42.34000000000003 218.34000000000003 -41.68000000000001 217.68 -41 217 C-36 218 -36 218 -24 227 C-24 231 -24 231 -25 233 C-6.551964777292653 240.37921408908295 5.498971370388745 239.2865959682382 21 226 C23.997797977761252 221.86766746343898 23.997797977761252 221.86766746343898 26 211 C32.666666666666686 199 32.666666666666686 199 37 199 C36.66999999999996 198.01 36.34000000000003 197.01999999999998 36 196 C36 182 36 182 40 174 C37.48361689271644 156.38531824901503 22.25316382677761 153.93164518992432 7 146 C-7.99279427724656 132.5064851504781 -14.332681114085801 120.00782663097056 -16 100 C-18.310000000000002 99.67000000000002 -20.620000000000005 99.34 -23 99 C-30.351477479689606 91.64852252031042 -28 90.66110867777056 -28 78 C-23.5 69 -23.5 69 -17 69 C-13.860990224246393 53.351748183780785 -13.860990224246393 53.351748183780785 -18 39 C-22.163364519660718 27.89769461423799 -22.87669681980384 24.18947962310449 -15 15 C-11.534999999999968 14.504999999999995 -11.534999999999968 14.504999999999995 -8 14 C-9.649999999999977 11.689999999999998 -11.300000000000011 9.379999999999995 -13 7 C-12.669999999999959 6.009999999999991 -12.340000000000032 5.02000000000001 -12 4 C-9.689999999999998 6.969999999999999 -7.3799999999999955 9.939999999999998 -5 13 C-0.7100000000000364 13 3.580000000000041 13 8 13 C8 12.340000000000003 8 11.680000000000007 8 11 C7.340000000000032 11 6.680000000000007 11 6 11 C0 2 0 2 0 0 Z " fill="#5F2E50" transform="translate(329,127)"/>
<path d="M0 0 C28.985669873106247 26.570197383680693 37.04900531001897 59.23047079489584 30 98 C26.69999999999999 97.67000000000002 23.399999999999977 97.34000000000003 20 97 C13.564999999999998 96.505 13.564999999999998 96.505 7 96 C7 84.12 7 72.24000000000001 7 60 C3.292178253367183 40.94902491582042 3.292178253367183 40.94902491582042 -8 26 C-6.019999999999982 29.464999999999975 -6.019999999999982 29.464999999999975 -4 33 C4.583033987679016 50.16606797535803 14.514245512485957 81.7286317312711 3 99 C8.279999999999973 99 13.560000000000002 99 19 99 C22.960000000000036 99.65999999999997 26.91999999999996 100.32 31 101 C30 110.00000000000006 30 110.00000000000006 29 113 C19.430000000000007 113.32999999999998 9.860000000000014 113.65999999999997 0 114 C7.78098902914104 115.46579713069855 7.78098902914104 115.46579713069855 23 115 C23.33000000000004 115.65999999999997 23.659999999999968 116.32 24 117 C24.33000000000004 116.34000000000003 24.659999999999968 115.68 25 115 C27.970000000000027 114.505 27.970000000000027 114.505 31 114 C31.659999999999968 110.37 32.31999999999999 106.74000000000001 33 103 C38.35910959905675 101.66022260023578 42.02069411942574 103.02069411942574 46 107 C46 145 46 145 38 149 C32.06 149 26.120000000000005 149 20 149 C22 144.00000000000006 22 144.00000000000006 24 140 C24 135.71000000000004 24 131.41999999999996 24 127 C23.66999999999996 130.3 23.340000000000032 133.60000000000002 23 137 C20.689999999999998 141.62 18.379999999999995 146.24 16 151 C16.33000000000004 151.33000000000004 16.659999999999968 151.65999999999997 17 152 C18 157.00000000000006 18 157.00000000000006 18 161 C14 159 14 159 9 154 C8.669999999999959 154.65999999999997 8.340000000000032 155.32 8 156 C-3.0000000000001137 155 -3.0000000000001137 155 -8 154 C-13.444999999999993 153.01 -13.444999999999993 153.01 -19 152 C-21.970000000000027 151.01 -24.939999999999998 150.01999999999998 -28 149 C-28 148.34000000000003 -28 147.68 -28 147 C-28.659999999999968 146.66999999999996 -29.319999999999993 146.34000000000003 -30 146 C-30.329999999999984 145.01 -30.659999999999968 144.01999999999998 -31 143 C-41.3655192220084 139.3432808332608 -41.3655192220084 139.3432808332608 -49 144 C-49 139 -49 139 -48 138 C-50.639999999999986 137.01 -53.27999999999997 136.01999999999998 -56 135 C-55 127.00000000000006 -55 127.00000000000006 -53 120 C-50.35999499077241 83.2682139007303 -50.35999499077241 83.2682139007303 -60 44 C-61.485000000000014 43.504999999999995 -61.485000000000014 43.504999999999995 -63 43 C-62.00999999999999 45.31 -61.01999999999998 47.620000000000005 -60 50 C-78.77294449056927 66.68706176939492 -94.65963907287392 69.08509023178152 -119 63 C-133 54 -133 54 -137 49 C-121.50632911392404 34.79746835443041 -121.50632911392404 34.79746835443041 -116 37 C-95.81464603208224 44.340128715606454 -82.8637365571339 40.863736557133905 -68 26 C-67.00999999999999 21.70999999999998 -66.01999999999998 17.420000000000016 -65 13 C-60 5 -60 5 -57 2 C-54 3 -54 3 -52 7 C-53 30.000000000000114 -53 30.000000000000114 -54 36 C-53 38.745355992499924 -53 38.745355992499924 -48 38 C-45.20564113525052 35.74813011605511 -45.20564113525052 35.74813011605511 -47 30 C-48.485000000000014 29.504999999999995 -48.485000000000014 29.504999999999995 -50 29 C-50 25.04000000000002 -50 21.079999999999984 -50 17 C-46 22 -46 22 -45 24 C-39.86111509645207 23.253085534121794 -39.86111509645207 23.253085534121794 -37 15 C-33 11 -33 11 -30 12 C-31.319999999999993 14.639999999999986 -32.639999999999986 17.279999999999973 -34 20 C-36.62839729371069 29.722274064243663 -36.62839729371069 29.722274064243663 -38 47 C-38.99000000000001 47.99000000000001 -39.98000000000002 48.98000000000002 -41 50 C-41.693375245281516 55.1386750490563 -41.693375245281516 55.1386750490563 -38 57 C-34.25724787771372 56.42874646285628 -34.25724787771372 56.42874646285628 -33 55 C-32.410744349011225 50.11785113019778 -32.410744349011225 50.11785113019778 -35 48 C-35 21 -35 21 -29 15 C-28.00999999999999 15 -27.019999999999982 15 -26 15 C-27.5 11 -27.5 11 -30 10 C-30 9.339999999999975 -30 8.680000000000007 -30 8 C-26.04000000000002 8 -22.079999999999984 8 -18 8 C-11.245180534714962 5.1050773720206735 -7.2425594535743585 0 0 0 Z " fill="#EC406C" transform="translate(422,326)"/>
<path d="M0 0 C16.59847945004367 6.63939178001749 11.160425374670808 36.56680599473236 12 50 C12.990000000000009 64.35500000000002 12.990000000000009 64.35500000000002 14 79 C14.330000000000041 87.90999999999997 14.659999999999968 96.81999999999994 15 106 C16.319999999999993 106.65999999999997 17.639999999999986 107.31999999999994 19 108 C19 113 19 113 14 116 C5.578435816609328 124.48683268990294 5.578435816609328 124.48683268990294 6 135 C10.35355339059322 140.29636243217533 10.35355339059322 140.29636243217533 21 139 C35.57320157692709 131.7133992115364 35 130.77200154189495 35 114 C34.66999999999996 112.35000000000002 34.34000000000003 110.70000000000005 34 109 C35.31999999999999 108.34000000000003 36.639999999999986 107.68000000000006 38 107 C38.65999999999997 100.73000000000002 39.31999999999999 94.46000000000004 40 88 C40.33000000000004 88 40.65999999999997 88 41 88 C41 91.63 41 95.25999999999999 41 99 C51.889999999999986 99.495 51.889999999999986 99.495 63 100 C129.87577639751555 107.22981366459624 129.87577639751555 107.22981366459624 144 119 C141.78259707557618 132.30441754654305 126.30205859983835 132.60938242004852 115 136 C49.412131363100286 147.5743297594529 -82.13646633513184 169.4908269318945 -139 124 C-139 119 -139 119 -131 113 C-98.4839961538263 102.99507573963888 -65.01583911815703 99 -31 99 C-30.504999999999995 97.01999999999998 -30.504999999999995 97.01999999999998 -30 95 C-29.504999999999995 99.45500000000004 -29.504999999999995 99.45500000000004 -29 104 C-27.514999999999986 104.99000000000001 -27.514999999999986 104.99000000000001 -26 106 C-26 107.64999999999998 -26 109.29999999999995 -26 111 C-28.970000000000027 111 -31.939999999999998 111 -35 111 C-37.639999999999986 111.33000000000004 -40.27999999999997 111.65999999999997 -43 112 C-43 112.65999999999997 -43 113.31999999999994 -43 114 C-47.620000000000005 115.31999999999994 -52.24000000000001 116.63999999999999 -57 118 C-59.70710678118655 120.23570226039556 -59.70710678118655 120.23570226039556 -59 126 C-44.48169767296031 132.22212956873125 -24.215196218470055 132.07173207282335 -9 127 C-5.974088306678027 122.90569419378983 -5.974088306678027 122.90569419378983 -5 112 C-6.319999999999993 112 -7.639999999999986 112 -9 112 C-9 110.01999999999998 -9 108.03999999999996 -9 106 C-8.009999999999991 105.66999999999996 -7.019999999999982 105.34000000000003 -6 105 C0.7405135125705442 71.29743243714734 -0.7083685621396398 34.001690982703735 0 0 Z " fill="#EE924D" transform="translate(399,493)"/>
<path d="M0 0 C0 8 0 8 -3 19 C-3 20.319999999999993 -3 21.639999999999986 -3 23 C1.2900000000000205 23.660000000000025 5.579999999999984 24.319999999999993 10 25 C10 25.329999999999984 10 25.660000000000025 10 26 C7.029999999999973 26.495000000000005 7.029999999999973 26.495000000000005 4 27 C4 27.99000000000001 4 28.980000000000018 4 30 C4.659999999999968 29.00999999999999 5.319999999999993 28.019999999999982 6 27 C20.571428571428555 28.619047619047592 20.571428571428555 28.619047619047592 25 36 C35.151811383127665 39.3839371277092 45.39153632598379 40.93915363259839 56 42 C70.54275106504224 49.27137553252112 67 60.75562257032158 67 76 C66.67000000000002 77.64999999999998 66.34000000000003 79.29999999999995 66 81 C66.32999999999998 82.64999999999998 66.65999999999997 84.29999999999995 67 86 C66.34000000000003 86 65.68 86 65 86 C65.65999999999997 87.64999999999998 66.32 89.29999999999995 67 91 C66.67000000000002 92.64999999999998 66.34000000000003 94.29999999999995 66 96 C66 97.98000000000002 66 99.96000000000004 66 102 C65.67000000000002 102.33000000000004 65.34000000000003 102.65999999999997 65 103 C65.32999999999998 104.98000000000002 65.65999999999997 106.96000000000004 66 109 C65.67000000000002 110.64999999999998 65.34000000000003 112.29999999999995 65 114 C65.32999999999998 114.65999999999997 65.65999999999997 115.31999999999994 66 116 C65.67000000000002 118.30999999999995 65.34000000000003 120.62 65 123 C63.283896042429035 131.0205014833225 63.283896042429035 131.0205014833225 65 134 C64.34000000000003 134 63.68000000000001 134 63 134 C63.329999999999984 134.99 63.65999999999997 135.98000000000002 64 137 C64 139.64 64 142.27999999999997 64 145 C64.99000000000001 145 65.98000000000002 145 67 145 C67 147.64 67 150.27999999999997 67 153 C67.495 157.45499999999993 67.495 157.45499999999993 68 162 C66 164 66 164 63 164 C63.99000000000001 166.47500000000002 63.99000000000001 166.47500000000002 65 169 C65 183 65 183 59 191 C50 195 50 195 39 195 C34 190 34 190 33 183 C42.375 168 42.375 168 48 168 C48 166.35000000000002 48 164.70000000000005 48 163 C46.35000000000002 162.34000000000003 44.69999999999999 161.68000000000006 43 161 C42.00999999999999 140.21000000000004 42.00999999999999 140.21000000000004 41 119 C40.34000000000003 110.41999999999996 39.68000000000001 101.84000000000003 39 93 C38.670000000000016 86.39999999999998 38.34000000000003 79.79999999999995 38 73 C37.856439474199874 58.83920602979367 37.856439474199874 58.83920602979367 29 55 C29 70.84000000000003 29 86.68000000000006 29 103 C26.294117647058783 154.41176470588243 26.294117647058783 154.41176470588243 23 161 C22.00999999999999 161 21.019999999999982 161 20 161 C20 162.98000000000002 20 164.96000000000004 20 167 C21.319999999999993 167 22.639999999999986 167 24 167 C24 173.5050859492958 23.630006121476526 177.5549908177852 20 183 C4.218214186160935 188.26059527127973 -16.234549072100435 188.38272546394978 -31 181 C-31 175 -31 175 -28 172 C-19 169 -19 169 -14 169 C-14 168.34000000000003 -14 167.68000000000006 -14 167 C-6 165 -6 165 3 166 C3.745355992499924 160.62732200375012 3.745355992499924 160.62732200375012 -1 159 C-2.327487183449307 149.70758971585474 -3.3312216186159844 140.36289733937656 -4 131 C-4.329999999999984 130.01 -4.660000000000025 129.01999999999998 -5 128 C-5 43 -5 43 -4 26 C-4.990000000000009 25.339999999999975 -5.980000000000018 24.680000000000007 -7 24 C-3.571428571428555 0 -3.571428571428555 0 0 0 Z M63 146 C64 148 64 148 64 148 Z " fill="#5E2458" transform="translate(370,438)"/>
<path d="M0 0 C0.9900000000000091 0 1.9800000000000182 0 3 0 C3.329999999999984 3.3000000000000114 3.660000000000025 6.599999999999994 4 10 C10.854639424994843 20.281959137492237 17.79747721085846 18 30 18 C37.169348196806936 14.415325901596532 36.9579620702757 7.2942655080701115 38 0 C54 1 54 1 61 2 C60.34000000000003 3.319999999999993 59.68000000000001 4.639999999999986 59 6 C60.31999999999999 5.340000000000003 61.639999999999986 4.680000000000007 63 4 C67 5 67 5 68 9 C66.35000000000002 9.659999999999997 64.69999999999999 10.319999999999993 63 11 C63 12.319999999999993 63 13.639999999999986 63 15 C63.99000000000001 13.680000000000007 64.98000000000002 12.360000000000014 66 11 C66.65999999999997 11 67.32 11 68 11 C68 22 68 22 64 26 C62.35000000000002 25.670000000000016 60.69999999999999 25.340000000000003 59 25 C59 24.00999999999999 59 23.02000000000001 59 22 C58.34000000000003 22 57.68000000000001 22 57 22 C58.452889863084465 26.584196295944167 58.452889863084465 26.584196295944167 60 28 C65 28.372677996249962 65 28.372677996249962 69 26 C70 35 70 35 66 48 C63.29615342352406 66.9269260353314 65.73463723176252 82.56312935623009 73 100 C72 103 72 103 59 108 C50.05556007480419 112.15197621565949 50.05556007480419 112.15197621565949 50 121 C48.01999999999998 123.63999999999999 46.04000000000002 126.27999999999997 44 129 C42.68000000000001 130.98000000000002 41.360000000000014 132.96000000000004 40 135 C31.64064897090674 126.64064897090674 34.210844459021075 121.62648865566314 35 109 C35 82.01234687617057 27.805637848062247 74.90281892403112 4 63 C-13.726358049040982 51.921026219349415 -21.0868265875028 38.04490753746924 -23 17 C-18.05000000000001 16.670000000000016 -13.100000000000023 16.340000000000003 -8 16 C-7.009999999999991 15.669999999999987 -6.019999999999982 15.340000000000003 -5 15 C-5.660000000000025 16.97999999999999 -6.319999999999993 18.960000000000008 -7 21 C-6.670000000000016 22.650000000000006 -6.339999999999975 24.30000000000001 -6 26 C-3.3600000000000136 26.329999999999984 -0.7200000000000273 26.659999999999997 2 27 C2 26.340000000000003 2 25.680000000000007 2 25 C0.01999999999998181 25 -1.9599999999999795 25 -4 25 C-5 21 -5 21 -2 14 C-1.339999999999975 9.379999999999995 -0.6800000000000068 4.759999999999991 0 0 Z " fill="#FDA990" transform="translate(339,211)"/>
<path d="M0 0 C11.396737106180126 6.8380422637080756 8.220107846371775 12.182049081063525 9 27 C8.009999999999991 29.310000000000002 7.019999999999982 31.620000000000005 6 34 C6 34.99000000000001 6 35.97999999999999 6 37 C8.970000000000027 37.495000000000005 8.970000000000027 37.495000000000005 12 38 C12 38.66 12 39.31999999999999 12 40 C4 40 4 40 2 38 C3 32 3 32 4 29 C3.340000000000032 29.329999999999984 2.680000000000007 29.659999999999997 2 30 C-2.9499999999999886 30 -7.899999999999977 30 -13 30 C-6.364125651162794 59.86143456976754 1.4162364147856579 68.70811820739283 28 82 C49.29752652401703 96.19835101601137 46.485840279232775 114.22655553227526 45 138 C47.686626043792444 147.22984044233635 47.686626043792444 147.22984044233635 53 148 C52 152 52 152 48 153 C46.68000000000001 151.01999999999998 45.360000000000014 149.03999999999996 44 147 C43.66999999999996 150.3 43.34000000000003 153.60000000000002 43 157 C44.31999999999999 157.33000000000004 45.639999999999986 157.65999999999997 47 158 C48 164 48 164 45 167 C40 167 40 167 38 164 C38.33000000000004 162.01999999999998 38.65999999999997 160.03999999999996 39 158 C41.74831455224307 137.6872242191884 41.74831455224307 137.6872242191884 38 131 C28.61915681864923 135.69042159067544 28.194797578061525 144.48921049506663 26 154 C10.232291720421642 169.76770827957836 -1.5319964945970241 173.80654672923743 -23 166 C-24.649999999999977 165.34000000000003 -26.30000000000001 164.68 -28 164 C-32.94999999999999 168.28999999999996 -37.89999999999998 172.58000000000004 -43 177 C-29.0466230839304 194.44172114508694 -7.398811043276908 195.53306912072821 13 191 C24.569286359354123 184.73260356399885 24.569286359354123 184.73260356399885 32 178 C31.340000000000032 176.68 30.680000000000007 175.36 30 174 C30 173.01 30 172.01999999999998 30 171 C40.00717070061745 173.50179267515438 38.43894446228023 185.15401861958816 40 194 C42.50889946783724 211.5622962748606 42.50889946783724 229.4377037251394 40 247 C39.66999999999996 247 39.34000000000003 247 39 247 C38.66999999999996 233.14 38.34000000000003 219.27999999999997 38 205 C36.71754979123085 192.969807607255 36.71754979123085 192.969807607255 35 181 C30.710000000000036 183.97000000000003 26.41999999999996 186.94 22 190 C-3.440477137318055 200.90306163027918 -22.72265847133508 198.32682118896162 -45 181 C-47.31 180.34000000000003 -49.620000000000005 179.68 -52 179 C-62.208333333333314 170.25 -62.208333333333314 170.25 -61 163 C-62.98000000000002 162.01 -62.98000000000002 162.01 -65 161 C-67.63999999999999 158.69 -70.27999999999997 156.38 -73 154 C-76.63 154 -80.25999999999999 154 -84 154 C-98 147 -98 147 -98 141 C-106.43143438807957 141.1291907136308 -106.43143438807957 141.1291907136308 -111 148 C-136 148 -136 148 -143 139 C-148.90641919832618 125.71055680376611 -150.80868732729357 112.42606198188071 -146 98 C-101 98 -101 98 -99 101 C-99 104.95999999999998 -99 108.92000000000002 -99 113 C-96.36000000000001 113.32999999999998 -93.72 113.65999999999997 -91 114 C-92 116 -92 116 -98 117 C-97.67000000000002 118.64999999999998 -97.34 120.30000000000001 -97 122 C-94.03 122.495 -94.03 122.495 -91 123 C-90.505 121.01999999999998 -90.505 121.01999999999998 -90 119 C-89.34 119 -88.68 119 -88 119 C-88 120.64999999999998 -88 122.30000000000001 -88 124 C-82.555 123.505 -82.555 123.505 -77 123 C-78 125 -79 127 -80 129 C-80.21919864974046 136.69860185660684 -80.21919864974046 136.69860185660684 -79 143 C-84.82485174557414 137.17514825442584 -83 137.5363228890177 -83 127 C-83.99000000000001 127 -84.97999999999999 127 -86 127 C-86.495 130.95999999999998 -86.495 130.95999999999998 -87 135 C-87.32999999999998 135.65999999999997 -87.66 136.32 -88 137 C-86.68 137.33000000000004 -85.36000000000001 137.65999999999997 -84 138 C-83 139 -83 139 -83 144 C-85.475 145.98000000000002 -85.475 145.98000000000002 -88 148 C-82.94772641699669 150.83562902179676 -82.94772641699669 150.83562902179676 -72 151 C-68.03999999999996 154.46500000000003 -68.03999999999996 154.46500000000003 -64 158 C-60.149071198499996 161.81989159174998 -60.149071198499996 161.81989159174998 -56 159 C-54.01999999999998 157.01999999999998 -52.04000000000002 155.03999999999996 -50 153 C-49.34000000000003 153 -48.68000000000001 153 -48 153 C-52.599501217181114 148.2351191366999 -52.599501217181114 148.2351191366999 -61 142 C-65 135 -65 135 -66 123 C-67.64999999999998 121.35000000000002 -69.30000000000001 119.69999999999999 -71 118 C-71.32999999999998 117.67000000000002 -71.65999999999997 117.34000000000003 -72 117 C-76.94999999999999 117 -81.9 117 -87 117 C-86.34 116.67000000000002 -85.68 116.34000000000003 -85 116 C-85 115.34000000000003 -85 114.68 -85 114 C-77.11335486277403 110.05667743138702 -72.49330585351339 113.9416838415541 -66 118 C-63 122 -63 122 -62 134 C-56.94251612730329 141.586225809045 -52.23400786508904 146.46099868915184 -43 148 C-42.34000000000003 147.34000000000003 -41.68000000000001 146.68 -41 146 C-36 147 -36 147 -24 156 C-24 160 -24 160 -25 162 C-6.551964777292596 169.37921408908295 5.498971370388745 168.2865959682382 21 155 C23.997797977761252 150.86766746343898 23.997797977761252 150.86766746343898 26 140 C32.666666666666686 128 32.666666666666686 128 37 128 C36.66999999999996 127.00999999999999 36.34000000000003 126.01999999999998 36 125 C36 111 36 111 40 103 C37.48361689271644 85.38531824901497 22.25316382677761 82.93164518992432 7 75 C-7.923571166885949 61.568785949802646 -15.69188571116274 49.3026285339528 -14 29 C-13.009999999999991 28.504999999999995 -13.009999999999991 28.504999999999995 -12 28 C-15.300000000000011 27.340000000000003 -18.600000000000023 26.680000000000007 -22 26 C-26 21 -26 21 -26 12 C-21.545000000000016 11.504999999999995 -21.545000000000016 11.504999999999995 -17 11 C-21.454999999999984 10.009999999999991 -21.454999999999984 10.009999999999991 -26 9 C-20.864610102118036 -3.838474744704996 -14.7140504215904 0 0 0 Z " fill="#561F42" transform="translate(329,198)"/>
<path d="M0 0 C1.3199999999999932 1.6500000000000057 2.6399999999999864 3.3000000000000114 4 5 C6.310000000000002 7.639999999999986 8.620000000000005 10.280000000000001 11 13 C24.565859962013405 40.13171992402687 22.221344646967054 65.3980790757613 5 90 C1 93 1 93 -6 93 C-6.990000000000009 92.00999999999999 -7.980000000000018 91.01999999999998 -9 90 C-13.484478666001507 104.57455566450483 -14.561904591418795 117.62857245148729 -12 133 C-9.689999999999998 132.66999999999996 -7.3799999999999955 132.34000000000003 -5 132 C1 135 1 135 9 142 C12.629999999999995 144.64 16.25999999999999 147.27999999999997 20 150 C28.975770803177852 161.96769440423714 29 162.89634108322127 29 179 C25 184 25 184 22 184 C25.960000000000036 190.93 25.960000000000036 190.93 30 198 C37.81621330657123 226.1383679036564 36 229.5661793760798 36 265 C38.97000000000003 265.66 41.94 266.32 45 267 C56.209472968832415 278.2094729688324 50.533910673334276 294.4278486033244 49 309 C41.79262071730756 321.0122988044874 39.13764363185362 317 22 317 C22 343.4 22 369.79999999999995 22 397 C20.942278890084822 409.6926533189819 19.801234144814202 422.3913609863008 18 435 C16 431 16 431 16 425 C14.514999999999986 423.515 14.514999999999986 423.515 13 422 C13 399 13 399 15 393 C14.670000000000016 391.35 14.340000000000032 389.70000000000005 14 388 C14.329999999999984 387.3399999999999 14.659999999999968 386.68000000000006 15 386 C14.670000000000016 384.02 14.340000000000032 382.03999999999996 14 380 C14.329999999999984 378.35 14.659999999999968 376.70000000000005 15 375 C15 373.35 15 371.70000000000005 15 370 C15 356 15 356 16 353 C17.227353940733167 335.11338458453247 17.227353940733167 335.11338458453247 10 322 C10.329999999999984 321.01 10.659999999999968 320.02 11 319 C14 322 14 322 14 324 C15.319999999999993 324.66 16.639999999999986 325.32 18 326 C18.659999999999968 326.33 19.319999999999993 326.66 20 327 C20.20938283335215 318.9019419324309 20.20938283335215 318.9019419324309 16 318 C17.980000000000018 314.7 19.95999999999998 311.4 22 308 C24.670820393249983 302.03103720975014 24.670820393249983 302.03103720975014 25 291 C27 293 27 293 27 306 C25.350000000000023 308.97 23.69999999999999 311.94 22 315 C38.056789158102504 315.3023647131867 38.056789158102504 315.3023647131867 44 312 C48.253521881258564 299.2394343562243 47 286.42550881527586 47 273 C42.88214886980222 269.4107443490112 42.88214886980222 269.4107443490112 36 269 C35.34000000000003 272.63 34.68000000000001 276.26 34 280 C33 281 33 281 27 281 C26.340000000000032 282.32 25.680000000000007 283.64 25 285 C25 283.68 25 282.36 25 281 C19.389999999999986 281 13.779999999999973 281 8 281 C7.670000000000016 281.99 7.340000000000032 282.98 7 284 C7 283.01 7 282.02 7 281 C5.019999999999982 281 3.0400000000000205 281 1 281 C5.48206301705909 272.0358739658818 20.97780241441808 279 31 279 C31.99000000000001 273.06 31.99000000000001 273.06 33 267 C23.75999999999999 266.34 14.519999999999982 265.68 5 265 C5.659999999999968 260.71 6.319999999999993 256.42 7 252 C7.076876183833804 221.70855604660755 7.076876183833804 221.70855604660755 -6 195 C-6 194.01 -6 193.01999999999998 -6 192 C13.548965635836907 201.7744828179184 10 239.989923267491 10 256 C9.670000000000016 257.98 9.340000000000032 259.96 9 262 C13.29000000000002 262 17.579999999999984 262 22 262 C25.30000000000001 262.66 28.600000000000023 263.32 32 264 C35.21063385613127 228.6830275825564 32.80419887328128 190.10314915496093 2 167 C-4.242498860685032 166.488382822071 -4.242498860685032 166.488382822071 -12 174 C-17.5109122862645 175.37772807156614 -22.4890877137355 175.37772807156614 -28 174 C-28.298142396999992 176.59628479399998 -28.298142396999992 176.59628479399998 -24 178 C-24 181 -24 181 -28 183 C-33.52415822490002 199.75282266527353 -33.52415822490002 199.75282266527353 -30 216 C-30 221 -30 221 -33 224 C-38 223 -38 223 -40 221 C-40 216 -40 216 -37 213 C-36.339999999999975 206.73000000000002 -35.68000000000001 200.46000000000004 -35 194 C-31 181 -31 181 -29 178 C-33.57085090187667 180.2854254509383 -35.21346098130249 182.82019147195376 -38 187 C-40 183 -40 183 -32 172 C-31.504999999999995 168.04000000000002 -31.504999999999995 168.04000000000002 -31 164 C-26 160 -26 160 -9 153 C-11.436001966443825 143.8424274425269 -11.436001966443825 143.8424274425269 -14 139 C-17.652075176969447 120.73962411515276 -19.087430801502364 103.71857700375597 -12 86 C-12 83.03 -12 80.06 -12 77 C-13.319999999999993 77.99000000000001 -14.639999999999986 78.98000000000002 -16 80 C-21 80 -21 80 -24 77 C-24 75.68 -24 74.36000000000001 -24 73 C-23.339999999999975 73 -22.680000000000007 73 -22 73 C-21.670000000000016 73.99000000000001 -21.339999999999975 74.98000000000002 -21 76 C-15.61714756760523 75.32159604321166 -15.61714756760523 75.32159604321166 -11 71 C-9.680000000000007 76.28 -8.360000000000014 81.56 -7 87 C7.665256189764079 83.333685952559 10.388947061750173 65.27757999004933 14 53 C14.646642386794042 25.64652514643302 14.646642386794042 25.64652514643302 0 5 C0 3.3499999999999943 0 1.6999999999999886 0 0 Z " fill="#551C41" transform="translate(420,160)"/>
<path d="M0 0 C1 4 1 4 -1 7 C4.279999999999973 7 9.560000000000002 7 15 7 C18.95999999999998 7.660000000000025 22.920000000000016 8.319999999999993 27 9 C26 18 26 18 25 21 C10.644999999999982 21.495000000000005 10.644999999999982 21.495000000000005 -4 22 C3.780989029141381 23.465797130698547 3.780989029141381 23.465797130698547 19 23 C19.495000000000005 23.99000000000001 19.495000000000005 23.99000000000001 20 25 C20.329999999999984 24.339999999999975 20.659999999999968 23.680000000000007 21 23 C22.980000000000018 22.670000000000016 24.95999999999998 22.339999999999975 27 22 C27.659999999999968 18.370000000000005 28.319999999999993 14.740000000000009 29 11 C34.359109599056865 9.660222600235784 38.020694119425684 11.020694119425741 42 15 C42 53 42 53 34 57 C28.060000000000002 57 22.120000000000005 57 16 57 C18 52 18 52 20 48 C20 43.70999999999998 20 39.420000000000016 20 35 C19.504999999999995 39.94999999999999 19.504999999999995 39.94999999999999 19 45 C15.534999999999968 51.93000000000001 15.534999999999968 51.93000000000001 12 59 C12.329999999999984 59.329999999999984 12.659999999999968 59.65999999999997 13 60 C14 65 14 65 14 69 C10 67 10 67 5 62 C4.5049999999999955 62.99000000000001 4.5049999999999955 62.99000000000001 4 64 C-6.999999999999943 63 -6.999999999999943 63 -12 62 C-15.629999999999995 61.34000000000003 -19.25999999999999 60.68000000000001 -23 60 C-25.970000000000027 59.00999999999999 -28.939999999999998 58.01999999999998 -32 57 C-32 56.34000000000003 -32 55.68000000000001 -32 55 C-32.660000000000025 54.670000000000016 -33.31999999999999 54.34000000000003 -34 54 C-34.329999999999984 53.00999999999999 -34.660000000000025 52.01999999999998 -35 51 C-45.3655192220084 47.34328083326079 -45.3655192220084 47.34328083326079 -53 52 C-53 47 -53 47 -52 46 C-45.73000000000002 46 -39.45999999999998 46 -33 46 C-33 42.04000000000002 -33 38.079999999999984 -33 34 C-30.068965517241395 4.689655172413779 -30.068965517241395 4.689655172413779 -22 2 C-8 2 -8 2 0 3 C0 2.009999999999991 0 1.0199999999999818 0 0 Z " fill="#5E2448" transform="translate(426,418)"/>
<path d="M0 0 C42 0 42 0 43 1 C45.2751345924066 16.92594214684624 45.04342907056963 31.95657092943037 33 44 C10 44 10 44 5 38 C-0.7811060650229535 24.992511353698376 -2.4002443354725074 14.401466012835101 0 0 Z " fill="#ABDCEE" transform="translate(184,299)"/>
<path d="M0 0 C16.598479450043612 6.639391780017434 11.160425374670751 36.56680599473236 12 50 C12.660000000000025 59.57000000000005 13.319999999999993 69.13999999999999 14 79 C14 85.60000000000002 14 92.20000000000005 14 99 C8.389999999999986 99 2.7799999999999727 99 -3 99 C-3 81.98693312643354 -1.8941869427142137 64.98955191156983 -1 48 C-0.6700000000000159 32.15999999999997 -0.339999999999975 16.319999999999993 0 0 Z " fill="#FBB55B" transform="translate(399,493)"/>
<path d="M0 0 C1.3199999999999932 0.9900000000000091 2.6399999999999864 1.9800000000000182 4 3 C2 4 2 4 -2 2 C-2 17.839999999999975 -2 33.67999999999995 -2 50 C-4.70588235294116 101.41176470588232 -4.70588235294116 101.41176470588232 -8 108 C-8.990000000000009 108 -9.980000000000018 108 -11 108 C-11 109.98000000000002 -11 111.96000000000004 -11 114 C-9.680000000000007 114 -8.360000000000014 114 -7 114 C-7 120.50508594929579 -7.3699938785234735 124.55499081778521 -11 130 C-26.781785813839065 135.26059527127973 -47.23454907210049 135.38272546394978 -62 128 C-62 122 -62 122 -59 119 C-50 116 -50 116 -45 116 C-45 115.34000000000003 -45 114.68000000000006 -45 114 C-37 112 -37 112 -29 113 C-29.99000000000001 113.495 -29.99000000000001 113.495 -31 114 C-31 115.31999999999994 -31 116.63999999999999 -31 118 C-31.660000000000025 118 -32.31999999999999 118 -33 118 C-33 117.34000000000003 -33 116.68000000000006 -33 116 C-33.660000000000025 116 -34.31999999999999 116 -35 116 C-35 116.99000000000001 -35 117.98000000000002 -35 119 C-36.485000000000014 118.505 -36.485000000000014 118.505 -38 118 C-38.329999999999984 118.65999999999997 -38.660000000000025 119.31999999999994 -39 120 C-39.99000000000001 120 -40.98000000000002 120 -42 120 C-42 119.34000000000003 -42 118.68000000000006 -42 118 C-51.55551272178667 119.77102170516287 -51.55551272178667 119.77102170516287 -59 122 C-58.670000000000016 123.64999999999998 -58.339999999999975 125.29999999999995 -58 127 C-42.457291504111254 129.22038692798412 -27.373972754170495 130.39256364404878 -12 126 C-11.670000000000016 123.02999999999997 -11.340000000000032 120.05999999999995 -11 117 C-16.610000000000014 117 -22.220000000000027 117 -28 117 C-27.670000000000016 114.02999999999997 -27.340000000000032 111.05999999999995 -27 108 C-26.670000000000016 108 -26.340000000000032 108 -26 108 C-26 110.30999999999995 -26 112.62 -26 115 C-22.04000000000002 115 -18.079999999999984 115 -14 115 C-13.670000000000016 112.69000000000005 -13.340000000000032 110.38 -13 108 C-16.95999999999998 108 -20.920000000000016 108 -25 108 C-25 107.66999999999996 -25 107.34000000000003 -25 107 C-21.370000000000005 106.66999999999996 -17.74000000000001 106.34000000000003 -14 106 C-13.340000000000032 102.03999999999996 -12.680000000000007 98.08000000000004 -12 94 C-11.504999999999995 92.01999999999998 -11.504999999999995 92.01999999999998 -11 90 C-11.329999999999984 89.00999999999999 -11.659999999999968 88.01999999999998 -12 87 C-11.333333333333314 83.66666666666663 -10.666666666666686 80.33333333333337 -10 77 C-10.329999999999984 75.35000000000002 -10.659999999999968 73.70000000000005 -11 72 C-10.670000000000016 68.70000000000005 -10.340000000000032 65.39999999999998 -10 62 C-10 60.35000000000002 -10 58.700000000000045 -10 57 C-10 43 -10 43 -9 38 C-9 25.460000000000036 -9 12.920000000000016 -9 0 C-8 -1 -8 -1 0 0 Z " fill="#541F46" transform="translate(401,491)"/>
<path d="M0 0 C7 1 7 1 12 6 C12 6.660000000000025 12 7.319999999999993 12 8 C16.370320319406318 9.632455532033646 16.370320319406318 9.632455532033646 27 9 C35.473770777317725 15.779016621854225 33.95554420911162 15.46653050933952 35 28 C38.751930530821596 35.640846128710905 38.751930530821596 35.640846128710905 47 41 C51 44 51 44 51 46 C43 53 43 53 39 55 C34.05000000000001 50.545000000000016 34.05000000000001 50.545000000000016 29 46 C24.783629786442162 43.89181489322107 19.697761756117643 44.391480146343156 15 44 C13.349999999999994 43.00999999999999 11.699999999999989 42.01999999999998 10 41 C11.650000000000006 39.68000000000001 13.300000000000011 38.360000000000014 15 37 C15.745355992499924 31.62732200375001 15.745355992499924 31.62732200375001 11 30 C11.659999999999997 26.69999999999999 12.319999999999993 23.399999999999977 13 20 C13.990000000000009 20 14.97999999999999 20 16 20 C16.329999999999984 23.629999999999995 16.659999999999997 27.25999999999999 17 31 C17.659999999999997 32.31999999999999 18.319999999999993 33.639999999999986 19 35 C18.670000000000016 33.35000000000002 18.340000000000003 31.69999999999999 18 30 C18 22 18 22 22 16 C21.00999999999999 16.329999999999984 20.02000000000001 16.660000000000025 19 17 C16.360000000000014 17 13.719999999999999 17 11 17 C11 15.350000000000023 11 13.699999999999989 11 12 C8.646446609406723 12.882148869802222 8.646446609406723 12.882148869802222 8 16 C2 16 2 16 0 14 C0.3300000000000125 12.350000000000023 0.6599999999999966 10.699999999999989 1 9 C2.9799999999999898 8.670000000000016 4.960000000000008 8.339999999999975 7 8 C4.689999999999998 7.339999999999975 2.3799999999999955 6.680000000000007 0 6 C0 4.019999999999982 0 2.0400000000000205 0 0 Z " fill="#F9A890" transform="translate(230,305)"/>
<path d="M0 0 C7 0 7 0 19 10 C21.639999999999986 11.980000000000018 24.279999999999973 13.95999999999998 27 16 C35.84790804616597 26.32255938719362 37 29.303936229671876 37 43 C36.00999999999999 44.31999999999999 35.01999999999998 45.639999999999986 34 47 C30 45 30 45 19 33 C8.868720414583493 26.921232248750073 5.465636087398877 30.374054738820803 -4 37 C-15 37 -15 37 -19 33 C-14.888988869863113 24.777977739726225 -5.1091930018442895 23.040947375691644 3 20 C6.832050294337819 18.046225016352082 6.832050294337819 18.046225016352082 6 12 C3.6899999999999977 9.360000000000014 1.3799999999999955 6.720000000000027 -1 4 C-0.6700000000000159 2.680000000000007 -0.339999999999975 1.3600000000000136 0 0 Z " fill="#F9325D" transform="translate(410,295)"/>
<path d="M0 0 C2.6399999999999864 1.9799999999999898 5.279999999999973 3.960000000000008 8 6 C26.909631100122738 17.34577866007365 43.2860876048361 16.652981227535122 65 12 C66.32 12 67.63999999999999 12 69 12 C69.495 16.94999999999999 69.495 16.94999999999999 70 22 C72.31 24.639999999999986 74.62 27.28 77 30 C78.32 31.650000000000006 79.63999999999999 33.30000000000001 81 35 C59.19354838709677 33.32258064516128 59.19354838709677 33.32258064516128 56 28 C48.683017439818 23.122011626545344 40.85923571127614 25 32 25 C30.019999999999982 27.310000000000002 28.04000000000002 29.620000000000005 26 32 C22 32 22 32 19 26 C12.575649488807244 19.575649488807215 8.81790909318562 21.721193939545714 -2 21 C-2 10 -2 10 0 0 Z " fill="#FBA990" transform="translate(317,175)"/>
<path d="M0 0 C-0.3299999999999841 5.610000000000014 -0.660000000000025 11.220000000000027 -1 17 C0.6499999999999773 17 2.3000000000000114 17 4 17 C2.39719163755899 26.61685017464606 -3.8668878943086042 28.306821526015995 -12 34 C-15.5 37.833333333333314 -15.5 37.833333333333314 -15 43 C-12.689999999999998 43.65999999999997 -10.379999999999995 44.31999999999999 -8 45 C-8 45.99000000000001 -8 46.98000000000002 -8 48 C-22 48 -22 48 -26 42 C-26 -4.333333333333314 -26 -4.333333333333314 0 0 Z " fill="#FCA35B" transform="translate(422,424)"/>
<path d="M0 0 C4 4 8 8 12 12 C7.059612246635652 16.94038775336432 5.611298343446663 16 -2 16 C5.274205114754011 24.31337727400458 13.029892263632746 30.592780188309092 22 37 C12.978712006739329 40.00709599775354 1.565268865791154 24.565268865791154 -4 19 C-4 18.340000000000003 -4 17.680000000000007 -4 17 C-12.235702260395499 16.057190958417948 -12.235702260395499 16.057190958417948 -17 22 C-17.676897443422433 32.11845705259893 -17.676897443422433 32.11845705259893 -13 41 C-12.339999999999975 42.650000000000006 -11.680000000000007 44.30000000000001 -11 46 C-9.680000000000007 46.66 -8.360000000000014 47.31999999999999 -7 48 C-4.360000000000014 49.97999999999999 -1.7200000000000273 51.96000000000001 1 54 C22.259709991698116 59.31492749792454 32.58527446554632 57.58635608551259 55 54 C56.98000000000002 54 58.95999999999998 54 61 54 C62.64999999999998 53.00999999999999 64.30000000000001 52.02000000000001 66 51 C68.31 51 70.62 51 73 51 C73 51.66 73 52.31999999999999 73 53 C70.02999999999997 53.66 67.06 54.31999999999999 64 55 C62.68000000000001 57.639999999999986 61.360000000000014 60.28 60 63 C59.34000000000003 63 58.68000000000001 63 58 63 C58 62.00999999999999 58 61.02000000000001 58 60 C51.73000000000002 61.31999999999999 45.45999999999998 62.639999999999986 39 64 C4 64 4 64 -11 49 C-13.260229481102954 58.26677613471554 -13.260229481102954 58.26677613471554 -14 69 C-9.050000000000011 69 -4.100000000000023 69 1 69 C12.564203788729742 75.93852227323782 9 75.3764346629456 9 93 C8.670000000000016 93 8.340000000000032 93 8 93 C7.670000000000016 88.38 7.340000000000032 83.75999999999999 7 79 C5.5 73.5 5.5 73.5 0 72 C-17.594436143002554 70.02179901607767 -17.594436143002554 70.02179901607767 -24 76 C-24.329999999999984 76.99000000000001 -24.660000000000025 77.98000000000002 -25 79 C-22.029999999999973 79.99000000000001 -19.060000000000002 80.98000000000002 -16 82 C-16 82.32999999999998 -16 82.66 -16 83 C-19.30000000000001 83 -22.600000000000023 83 -26 83 C-25.93704257133163 92.10411584125904 -25.93704257133163 92.10411584125904 -20 97 C-14.389999999999986 97.66 -8.779999999999973 98.32 -3 99 C-3 99.32999999999998 -3 99.66 -3 100 C-6.6299999999999955 100 -10.259999999999991 100 -14 100 C-14 102.31 -14 104.62 -14 107 C-16 104 -16 104 -16 100 C-18.310000000000002 99.67000000000002 -20.620000000000005 99.34 -23 99 C-30.351477479689493 91.64852252031048 -28 90.66110867777041 -28 78 C-23.5 69 -23.5 69 -17 69 C-13.86099022424645 53.351748183780785 -13.86099022424645 53.351748183780785 -18 39 C-22.163364519660774 27.89769461423799 -22.87669681980384 24.18947962310449 -15 15 C-11.535000000000025 14.504999999999995 -11.535000000000025 14.504999999999995 -8 14 C-9.649999999999977 11.689999999999998 -11.300000000000011 9.379999999999995 -13 7 C-12.670000000000016 6.009999999999991 -12.339999999999975 5.02000000000001 -12 4 C-9.689999999999998 6.969999999999999 -7.3799999999999955 9.939999999999998 -5 13 C-0.7099999999999795 13 3.579999999999984 13 8 13 C8 12.340000000000003 8 11.680000000000007 8 11 C7.340000000000032 11 6.680000000000007 11 6 11 C0 2 0 2 0 0 Z " fill="#511D41" transform="translate(329,127)"/>
<path d="M0 0 C8.820001073380809 8.820001073380809 2.520595344998071 28.595534912514324 1 40 C-7.479821551104919 48.47982155110492 -5.879433558629955 45 -23 45 C-21 40 -21 40 -19 36 C-19 28.410000000000025 -19 20.819999999999993 -19 13 C-18 11 -18 11 -12 10 C-11.339999999999975 6.3700000000000045 -10.680000000000007 2.740000000000009 -10 -1 C-9 -2 -9 -2 0 0 Z " fill="#FAA159" transform="translate(465,430)"/>
<path d="M0 0 C4.949999999999989 0 9.899999999999977 0 15 0 C15 2.9700000000000273 15 5.939999999999998 15 9 C15.495000000000005 9.990000000000009 15.495000000000005 9.990000000000009 16 11 C16 21 16 21 10 33 C7.524999999999977 33.495000000000005 7.524999999999977 33.495000000000005 5 34 C5 32.68000000000001 5 31.360000000000014 5 30 C4.009999999999991 30 3.019999999999982 30 2 30 C1.670000000000016 31.649999999999977 1.339999999999975 33.30000000000001 1 35 C-0.6499999999999773 35 -2.3000000000000114 35 -4 35 C-4 33.35000000000002 -4 31.69999999999999 -4 30 C-6.353553390593277 30.882148869802222 -6.353553390593277 30.882148869802222 -7 34 C-8.649999999999977 33.670000000000016 -10.300000000000011 33.34000000000003 -12 33 C-13 28 -13 28 -11 22 C-12.980000000000018 22.99000000000001 -12.980000000000018 22.99000000000001 -15 24 C-16.980000000000018 24 -18.95999999999998 24 -21 24 C-18.731946568192257 14.927786272768913 -10.466798904376503 11.480079342625913 -3 7 C-2.009999999999991 4.689999999999998 -1.0199999999999818 2.3799999999999955 0 0 Z " fill="#FCAB93" transform="translate(429,442)"/>
<path d="M0 0 C9.969714708497804 5.98182882509866 7 6.810097987856807 7 21 C0.14301966362057783 32.42830056063238 -0.8202582420271369 27 -20 27 C-26 21 -26 21 -26 12 C-21.545000000000016 11.504999999999995 -21.545000000000016 11.504999999999995 -17 11 C-21.454999999999984 10.009999999999991 -21.454999999999984 10.009999999999991 -26 9 C-20.86461010211798 -3.838474744704996 -14.714050421590457 0 0 0 Z " fill="#F2DDD8" transform="translate(329,198)"/>
<path d="M0 0 C5 5 5 5 5 20 C-2.570824498103491 29.46353062262935 -0.7958249178760752 26.012760942632752 -17 25 C-26.410940892291535 20.294529553854204 -24 19.66727747305447 -24 8 C-18.471967462814632 -4.898742586765792 -16.023760608032376 -0.9425741534136591 0 0 Z " fill="#FAE3DB" transform="translate(369,202)"/>
<path d="M0 0 C45 0 45 0 47 3 C46 7 46 7 44 11 C43.504999999999995 7.535000000000025 43.504999999999995 7.535000000000025 43 4 C29.139999999999986 3.670000000000016 15.280000000000001 3.339999999999975 1 3 C0.6096573541825876 26.327794200515257 0.6096573541825876 26.327794200515257 11 46 C33.366666666666674 49.06666666666666 33.366666666666674 49.06666666666666 40 38 C40.99000000000001 35.02999999999997 41.97999999999999 32.06 43 29 C45 25 45 25 48 25 C48.495000000000005 25.99000000000001 48.495000000000005 25.99000000000001 49 27 C51.31 27.660000000000025 53.620000000000005 28.319999999999993 56 29 C56 30.319999999999993 56 31.639999999999986 56 33 C48 34 48 34 47 33 C46.00999999999999 33.99000000000001 45.02000000000001 34.98000000000002 44 36 C51.39366093740918 36.32338083338175 51.39366093740918 36.32338083338175 56 35 C55 38 55 38 53 39 C55.31 39.65999999999997 57.620000000000005 40.31999999999999 60 41 C59.670000000000016 42.64999999999998 59.34 44.30000000000001 59 46 C52 47 52 47 50 45 C49.00999999999999 45.495000000000005 49.00999999999999 45.495000000000005 48 46 C48 45.00999999999999 48 44.01999999999998 48 43 C39.568565611920434 43.129190713630805 39.568565611920434 43.129190713630805 35 50 C10 50 10 50 3 41 C-2.9064191983261765 27.71055680376611 -4.808687327293569 14.426061981880707 0 0 Z " fill="#572343" transform="translate(183,296)"/>
<path d="M0 0 C0.9900000000000091 0.3300000000000409 1.9800000000000182 0.6599999999999682 3 1 C8.939999999999998 1 14.879999999999995 1 21 1 C20 11 20 11 18 13 C2.6693133911130076 15.555114434814527 -11.791475987880176 15.172646287445673 -27 13 C-27.660000000000025 11.67999999999995 -28.319999999999993 10.360000000000014 -29 9 C-23.60593965669443 3.6059396566944315 -18.354832514338113 3 -11 3 C-11 3.659999999999968 -11 4.32000000000005 -11 5 C-10.009999999999991 5 -9.019999999999982 5 -8 5 C-7.670000000000016 4.009999999999991 -7.339999999999975 3.019999999999982 -7 2 C-6.009999999999991 2.659999999999968 -5.019999999999982 3.32000000000005 -4 4 C-4 3.009999999999991 -4 2.019999999999982 -4 1 C-3.339999999999975 1 -2.680000000000007 1 -2 1 C-2 1.6599999999999682 -2 2.32000000000005 -2 3 C-1.339999999999975 3 -0.6800000000000068 3 0 3 C0 2.009999999999991 0 1.0199999999999818 0 0 Z " fill="#7CC89F" transform="translate(370,606)"/>
<path d="M0 0 C3.3000000000000114 2.3100000000000023 6.600000000000023 4.6200000000000045 10 7 C9 10 9 10 -2 19 C-4.970000000000027 21.639999999999986 -7.939999999999998 24.279999999999973 -11 27 C-15 26 -15 26 -23 19 C-21.17092784554802 9.854639227740165 -9.440300301431478 -1.888060060286307 0 0 Z " fill="#FB456A" transform="translate(293,348)"/>
<path d="M0 0 C-0.9900000000000091 0 -1.9800000000000182 0 -3 0 C-2.339999999999975 1.32000000000005 -1.6800000000000068 2.6399999999999864 -1 4 C-1.990000000000009 4 -2.980000000000018 4 -4 4 C-4.660000000000025 5.649999999999977 -5.319999999999993 7.2999999999999545 -6 9 C-3.3600000000000136 9.330000000000041 -0.7200000000000273 9.659999999999968 2 10 C0.6800000000000068 8.350000000000023 -0.6399999999999864 6.7000000000000455 -2 5 C-0.6800000000000068 5.330000000000041 0.6399999999999864 5.659999999999968 2 6 C2.329999999999984 5.340000000000032 2.660000000000025 4.67999999999995 3 4 C3.660000000000025 4 4.319999999999993 4 5 4 C4.670000000000016 3.009999999999991 4.339999999999975 2.019999999999982 4 1 C8.454999999999984 0.5049999999999955 8.454999999999984 0.5049999999999955 13 0 C16.10958235238104 6.219164704762079 12.867836269482552 10.264327461034895 10 16 C2.611076856139448 20.433353886316354 -1.384551196470568 21.07693110044113 -10 20 C-13 17 -13 17 -13 10 C-4.631578947368439 -1.1578947368420813 -4.631578947368439 -1.1578947368420813 0 0 Z " fill="#75C498" transform="translate(419,610)"/>
<path d="M0 0 C-1 9 -1 9 -2 12 C-10.910000000000025 12 -19.819999999999993 12 -29 12 C-29 7.7099999999999795 -29 3.420000000000016 -29 -1 C-18.917382785229336 -3.01652344295411 -10.038545697943164 -1.673090949657194 0 0 Z " fill="#FC486D" transform="translate(453,427)"/>
<path d="M0 0 C0.3299999999999841 0 0.660000000000025 0 1 0 C2 9 2 9 -2 22 C-4.703846576475939 40.926926035331405 -2.2653627682374804 56.56312935623009 5 74 C4 77 4 77 -9 82 C-17.94443992519581 86.15197621565943 -17.94443992519581 86.15197621565943 -18 95 C-19.980000000000018 97.63999999999999 -21.95999999999998 100.27999999999997 -24 103 C-25.319999999999993 104.98000000000002 -26.639999999999986 106.95999999999998 -28 109 C-29 106 -29 106 -23 94 C-22.00999999999999 91.36000000000001 -21.019999999999982 88.72000000000003 -20 86 C-4.571428571428612 74 -4.571428571428612 74 -1 74 C-1.660000000000025 71.02999999999997 -2.319999999999993 68.06 -3 65 C-7.760756976880032 41.19621511559984 -5.462917392489999 23.67264203412327 0 0 Z " fill="#F58F74" transform="translate(407,237)"/>
<path d="M0 0 C0.3299999999999841 0 0.660000000000025 0 1 0 C1.329999999999984 5.610000000000014 1.660000000000025 11.220000000000027 2 17 C4.310000000000002 17.33000000000004 6.6200000000000045 17.659999999999968 9 18 C11.310000000000002 18.33000000000004 13.620000000000005 18.659999999999968 16 19 C16 19.33000000000004 16 19.659999999999968 16 20 C12.699999999999989 20 9.399999999999977 20 6 20 C6.329999999999984 21.980000000000018 6.660000000000025 23.960000000000036 7 26 C10.300000000000011 26.659999999999968 13.600000000000023 27.32000000000005 17 28 C17 28.659999999999968 17 29.32000000000005 17 30 C14.689999999999998 30.33000000000004 12.379999999999995 30.659999999999968 10 31 C10 31.659999999999968 10 32.32000000000005 10 33 C9.339999999999975 33 8.680000000000007 33 8 33 C7.670000000000016 33.99000000000001 7.339999999999975 34.98000000000002 7 36 C6.670000000000016 36 6.339999999999975 36 6 36 C6.329999999999984 36.99000000000001 6.660000000000025 37.98000000000002 7 39 C4.360000000000014 38.66999999999996 1.7200000000000273 38.34000000000003 -1 38 C1 33 1 33 3 32 C2.339999999999975 31.00999999999999 1.6800000000000068 30.019999999999982 1 29 C-7.295773226945585 37.2482216174742 -7.295773226945585 37.2482216174742 -7 48 C3.366967449301228 49.76652274159062 3.366967449301228 49.76652274159062 14 45 C18.68830988065207 36.83804473396424 18.68830988065207 36.83804473396424 19 26 C19.660000000000025 26 20.319999999999993 26 21 26 C21 40 21 40 15 48 C6 52 6 52 -5 52 C-10 47 -10 47 -11 40 C-1.625 25 -1.625 25 4 25 C4 23.350000000000023 4 21.700000000000045 4 20 C2.680000000000007 19.66999999999996 1.3600000000000136 19.340000000000032 0 19 C0 12.730000000000018 0 6.460000000000036 0 0 Z " fill="#501D41" transform="translate(414,581)"/>
<path d="M0 0 C31.24380508577724 23.43285381433293 37.69960321690485 61.15218230702317 31 98 C29.350000000000023 98 27.69999999999999 98 26 98 C26.660000000000025 94.69999999999999 27.319999999999993 91.39999999999998 28 88 C29.69758033098833 57.44355404221045 26.715589701831277 22.036692276373458 0 2 C0 1.339999999999975 0 0.6800000000000068 0 0 Z " fill="#F12156" transform="translate(421,326)"/>
<path d="M0 0 C4.6200000000000045 2.3100000000000023 9.240000000000009 4.6200000000000045 14 7 C27.92157871848326 11.64052623949442 42.322063933807385 7.9309862998984215 56 5 C57.31999999999999 5 58.639999999999986 5 60 5 C60.495000000000005 9.949999999999989 60.495000000000005 9.949999999999989 61 15 C63.31 17.639999999999986 65.62 20.28 68 23 C69.32 24.650000000000006 70.63999999999999 26.30000000000001 72 28 C66 28 66 28 62 24 C62 23.340000000000003 62 22.680000000000007 62 22 C61.00999999999999 21.670000000000016 60.01999999999998 21.340000000000003 59 21 C57.01999999999998 18.360000000000014 55.04000000000002 15.719999999999999 53 13 C45.079999999999984 13 37.15999999999997 13 29 13 C6.846153846153868 8.84615384615384 6.846153846153868 8.84615384615384 0 2 C0 1.3400000000000034 0 0.6800000000000068 0 0 Z " fill="#F38E73" transform="translate(326,182)"/>
<path d="M0 0 C4 0 4 0 5 2 C7.310000000000002 2.660000000000025 9.620000000000005 3.319999999999993 12 4 C12 5.319999999999993 12 6.639999999999986 12 8 C4 9 4 9 3 8 C2.009999999999991 8.990000000000009 1.0200000000000102 9.980000000000018 0 11 C7.393660937409152 11.323380833381748 7.393660937409152 11.323380833381748 12 10 C11 13 11 13 9 14 C11.310000000000002 14.660000000000025 13.620000000000005 15.319999999999993 16 16 C15.504999999999995 18.475000000000023 15.504999999999995 18.475000000000023 15 21 C8 22 8 22 6 20 C5.009999999999991 20.495000000000005 5.009999999999991 20.495000000000005 4 21 C4 20.00999999999999 4 19.019999999999982 4 18 C-4.219264504826754 18.196030148968532 -4.219264504826754 18.196030148968532 -9 24 C-16.920000000000016 23.670000000000016 -24.840000000000003 23.339999999999975 -33 23 C-33 22.670000000000016 -33 22.339999999999975 -33 22 C-25.409999999999997 21.670000000000016 -17.819999999999993 21.339999999999975 -10 21 C-4.599404466733489 13.799205955644652 -2.165269506048759 8.661078024195035 0 0 Z " fill="#5C2D4D" transform="translate(227,321)"/>
<path d="M0 0 C9.627171211472387 3.2090570704908146 8.831854184486133 35.48668766037497 9 37 C10.238968415676027 59.301431482168255 10 81.66417924299867 10 104 C9.670000000000016 104 9.339999999999975 104 9 104 C7.011571938981433 88.09257551185124 6.8005609006258965 72.01121801251827 6 56 C6.54458143879549 27.03177616202811 6.54458143879549 27.03177616202811 0 0 Z " fill="#E0D7DD" transform="translate(407,494)"/>
<path d="M0 0 C6 0 6 0 7 1 C9.096274758507832 15.673923309554823 10.045609964868817 34.63626002342079 -4 44 C-4.659999999999997 43.34000000000003 -5.319999999999993 42.68000000000001 -6 42 C-4.02000000000001 38.04000000000002 -2.039999999999992 34.079999999999984 0 30 C1.993568809861955 20.032155950690253 1.6643031965445516 9.985819179267253 0 0 Z " fill="#9DBDD7" transform="translate(220,299)"/>
<path d="M0 0 C0 22.439999999999998 0 44.879999999999995 0 68 C0.6060014303554908 88.74118085592386 0.6060014303554908 88.74118085592386 4 108 C4 109.64999999999998 4 111.29999999999995 4 113 C3.339999999999975 113 2.680000000000007 113 2 113 C-1.7729474831908192 92.2487888424505 -10.665190002730753 0 0 0 Z " fill="#E2DBE0" transform="translate(370,483)"/>
<path d="M0 0 C12.92603431416046 12.92603431416046 10.563630826778137 42.9636612794983 7 59 C5.680000000000007 59 4.360000000000014 59 3 59 C3.329999999999984 53.389999999999986 3.660000000000025 47.77999999999997 4 42 C4.465797130698547 24.753401519041972 4.465797130698547 24.753401519041972 1 7 C0.6700000000000159 4.689999999999998 0.339999999999975 2.3799999999999955 0 0 Z " fill="#F22156" transform="translate(419,362)"/>
<path d="M0 0 C0 2.6399999999999864 0 5.279999999999973 0 8 C0.3299999999999841 10.970000000000027 0.660000000000025 13.940000000000055 1 17 C-1 19 -1 19 -4 19 C-3.670000000000016 20.649999999999977 -3.339999999999975 22.299999999999955 -3 24 C-3.329999999999984 25.649999999999977 -3.660000000000025 27.299999999999955 -4 29 C-4.660000000000025 28.340000000000032 -5.319999999999993 27.67999999999995 -6 27 C-9.300000000000011 26.340000000000032 -12.600000000000023 25.67999999999995 -16 25 C-17 24 -17 24 -17 18 C-13.699999999999989 17.66999999999996 -10.399999999999977 17.340000000000032 -7 17 C-6.670000000000016 14.690000000000055 -6.339999999999975 12.379999999999995 -6 10 C-3.5 0 -3.5 0 0 0 Z " fill="#5B2447" transform="translate(437,583)"/>
<path d="M0 0 C0 1.3199999999999932 0 2.6399999999999864 0 4 C-0.660000000000025 4 -1.3199999999999932 4 -2 4 C-2.660000000000025 5.650000000000006 -3.319999999999993 7.300000000000011 -4 9 C-11 13 -11 13 -20 13 C-20 10.689999999999998 -20 8.379999999999995 -20 6 C-21.319999999999993 5.340000000000003 -22.639999999999986 4.680000000000007 -24 4 C-24 3.3400000000000034 -24 2.680000000000007 -24 2 C-21.029999999999973 2.4950000000000045 -21.029999999999973 2.4950000000000045 -18 3 C-9.49281562308039 3 -6.644647774865689 0 0 0 Z " fill="#541C3F" transform="translate(352,242)"/>
<path d="M0 0 C45 0 45 0 47 3 C46 7 46 7 44 11 C43.504999999999995 7.535000000000025 43.504999999999995 7.535000000000025 43 4 C28.810000000000002 3.670000000000016 14.620000000000005 3.339999999999975 0 3 C0 2.009999999999991 0 1.0199999999999818 0 0 Z " fill="#6C3D51" transform="translate(183,296)"/>
<path d="M0 0 C0.6599999999999682 0.3299999999999841 1.3199999999999932 0.660000000000025 2 1 C0.01999999999998181 3.3100000000000023 -1.9599999999999795 5.6200000000000045 -4 8 C-7.295182408445953 15.845150211962789 -7.295182408445953 15.845150211962789 -8 24 C-20.643636739360943 38.04848526595663 -28.810706405141673 42 -47 42 C-58 38 -58 38 -59 36 C-55.370000000000005 36.99000000000001 -51.74000000000001 37.98000000000002 -48 39 C-30.883708045602305 39 -23.010016509375077 36.01001650937508 -11 24 C-10.009999999999991 19.70999999999998 -9.019999999999982 15.420000000000016 -8 11 C-3 3 -3 3 0 0 Z " fill="#E6C5C8" transform="translate(365,328)"/>
<path d="M0 0 C7 1 7 1 12 6 C12 6.660000000000025 12 7.319999999999993 12 8 C12.659999999999997 8.329999999999984 13.319999999999993 8.660000000000025 14 9 C12 13 12 13 9 13 C8.669999999999987 13.990000000000009 8.340000000000003 14.980000000000018 8 16 C2 16 2 16 0 14 C0.3300000000000125 12.350000000000023 0.6599999999999966 10.699999999999989 1 9 C2.9799999999999898 8.670000000000016 4.960000000000008 8.339999999999975 7 8 C4.689999999999998 7.339999999999975 2.3799999999999955 6.680000000000007 0 6 C0 4.019999999999982 0 2.0400000000000205 0 0 Z " fill="#6D4D67" transform="translate(230,305)"/>
<path d="M0 0 C0.49500000000000455 0.9900000000000091 0.49500000000000455 0.9900000000000091 1 2 C-2.6299999999999955 1.3400000000000034 -6.259999999999991 0.6800000000000068 -10 0 C-29.926254561807127 -0.14311611568351168 -29.926254561807127 -0.14311611568351168 -47 7 C-48.64999999999998 6.6699999999999875 -50.30000000000001 6.340000000000003 -52 6 C-50.68000000000001 5.340000000000003 -49.360000000000014 4.680000000000007 -48 4 C-44.69999999999999 2.0200000000000102 -41.39999999999998 0.03999999999999204 -38 -2 C-24.226955969614664 -5.935155437252945 -13.569087216566118 -3.618423257750976 0 0 Z " fill="#E5DEE2" transform="translate(394,135)"/>
<path d="M0 0 C2 3 2 3 5 16 C10.262976698569446 26.525953397138835 13.162682251060517 31.267346969677988 22 39 C22 39.65999999999997 22 40.31999999999999 22 41 C23.649999999999977 41.65999999999997 25.30000000000001 42.31999999999999 27 43 C30.629999999999995 44.98000000000002 34.25999999999999 46.95999999999998 38 49 C28.661945531496485 52.112684822834524 19.605115108254267 41.66152723564653 13 36 C5.306090996298963 23.90957156561268 1.300768558783716 14.30845414662079 0 0 Z " fill="#F2E9E9" transform="translate(316,228)"/>
<path d="M0 0 C0 3 0 3 -2 4 C0.3100000000000023 4.660000000000025 2.6200000000000045 5.319999999999993 5 6 C4.670000000000016 7.649999999999977 4.340000000000003 9.300000000000011 4 11 C-3 12 -3 12 -5 10 C-5.990000000000009 10.495000000000005 -5.990000000000009 10.495000000000005 -7 11 C-7 10.009999999999991 -7 9.019999999999982 -7 8 C-9.310000000000002 8 -11.620000000000005 8 -14 8 C-11.64705882352942 2.117647058823536 -11.64705882352942 2.117647058823536 0 0 Z " fill="#7E6C87" transform="translate(238,331)"/>
<path d="M0 0 C1.3199999999999932 1.6500000000000057 2.6399999999999864 3.3000000000000114 4 5 C11.740885578764392 13.205041217817325 11.740885578764392 13.205041217817325 21 17 C24 22 24 22 24 30 C23.00999999999999 30.99000000000001 22.019999999999982 31.97999999999999 21 33 C20.670000000000016 29.039999999999992 20.339999999999975 25.079999999999984 20 21 C18.117851130197778 18.646446609406723 18.117851130197778 18.646446609406723 15 19 C14.339999999999975 19.99000000000001 13.680000000000007 20.97999999999999 13 22 C12.009999999999991 22 11.019999999999982 22 10 22 C10.329999999999984 20.680000000000007 10.660000000000025 19.360000000000014 11 18 C9.680000000000007 17.340000000000003 8.360000000000014 16.680000000000007 7 16 C8.319999999999993 16 9.639999999999986 16 11 16 C11.298142396999992 13.403715206000072 11.298142396999992 13.403715206000072 7 12 C0 5 0 5 0 0 Z " fill="#4D183E" transform="translate(388,195)"/>
<path d="M0 0 C-1.6499999999999773 1.6499999999999773 -3.3000000000000114 3.3000000000000114 -5 5 C-7.26118639665674 18.567118379940325 -8 31.232026565075273 -8 45 C-16.145299488296644 36.854700511703356 -10.140631932826523 15.26568739543876 -9 5 C-4 -1 -4 -1 0 0 Z " fill="#F1E9E9" transform="translate(407,424)"/>
<path d="M0 0 C2.9700000000000273 0.3300000000000125 5.939999999999998 0.6599999999999966 9 1 C9.329999999999984 5.289999999999992 9.660000000000025 9.580000000000013 10 14 C4 14 4 14 0 9 C0 6.030000000000001 0 3.0600000000000023 0 0 Z " fill="#F8DDD5" transform="translate(303,210)"/>
<path d="M0 0 C4 1 4 1 14 8 C25.35661248076417 13.162096582165532 35.62078661348397 15.62453184594267 48 17 C35.71553237632281 25.18964508245145 15.578082361514362 12.17054804421673 5 6 C0 2 0 2 0 0 Z " fill="#46133B" transform="translate(342,143)"/>
<path d="M0 0 C13.219558455801064 4.40651948526704 19.700212358020792 12.800849432083055 23 26 C23 44 23 44 21 48 C20.504999999999995 38.59500000000003 20.504999999999995 38.59500000000003 20 29 C17.107932402746712 14.539662013733505 12.546361157417493 8.527816694450507 0 1 C0 0.6700000000000159 0 0.339999999999975 0 0 Z " fill="#F4EBEA" transform="translate(354,278)"/>
<path d="M0 0 C0 24 0 24 -2 26 C-6.727992872570496 16.544014254859064 -4.999555604328918 10.9985186810963 -2 1 C-1 0 -1 0 0 0 Z " fill="#BB2652" transform="translate(372,303)"/>
<path d="M0 0 C0.9900000000000091 0 1.9800000000000182 0 3 0 C2 16 2 16 0 19 C-0.3299999999999841 23.620000000000005 -0.660000000000025 28.24000000000001 -1 33 C-7.2410836003964505 24.67855519947136 -3.6984546748795424 11.778365448313536 -3 2 C-2.670000000000016 2 -2.339999999999975 2 -2 2 C-1.670000000000016 3.6499999999999773 -1.339999999999975 5.300000000000011 -1 7 C-0.6700000000000159 4.689999999999998 -0.339999999999975 2.3799999999999955 0 0 Z " fill="#9F7880" transform="translate(369,465)"/>
<path d="M0 0 C1.6499999999999773 1.6499999999999773 3.3000000000000114 3.3000000000000114 5 5 C9.454999999999984 8.95999999999998 9.454999999999984 8.95999999999998 14 13 C11 13 11 13 3 6 C-1.0710192473138136 2.936658310014593 -1.0710192473138136 2.936658310014593 -12 3 C-13.650000000000006 2.009999999999991 -15.300000000000011 1.0199999999999818 -17 0 C-13 -3 -13 -3 0 0 Z " fill="#F79175" transform="translate(257,346)"/>
<path d="M0 0 C0.3299999999999841 0.9900000000000091 0.660000000000025 1.9799999999999898 1 3 C-2.464999999999975 4.485000000000014 -2.464999999999975 4.485000000000014 -6 6 C-10.097836614525704 12.829727690876155 -8.266747195398523 17.399516827608863 -7 25 C-12.860344086982593 19.13965591301738 -12 14.235246360069254 -12 6 C-6 0 -6 0 0 0 Z " fill="#E4DDE2" transform="translate(323,143)"/>
<path d="M0 0 C0 17.336538165261118 -0.5048723898108847 34.67053364338119 -1 52 C-1.329999999999984 52 -1.660000000000025 52 -2 52 C-4.736842105263179 0 -4.736842105263179 0 0 0 Z " fill="#CABCC7" transform="translate(370,483)"/>
<path d="M0 0 C0.3299999999999841 0 0.660000000000025 0 1 0 C1 35 1 35 -2 52 C-2.990000000000009 52 -3.980000000000018 52 -5 52 C-4 44 -4 44 -2 37 C-0.9742771915895219 24.691326299074206 -0.4936587592011392 12.341468980029049 0 0 Z " fill="#F4E9E8" transform="translate(371,409)"/>
<path d="M0 0 C0 2.9700000000000273 0 5.939999999999998 0 9 C0.3299999999999841 9.660000000000025 0.660000000000025 10.319999999999993 1 11 C1 21 1 21 -2 28 C-2.329999999999984 28 -2.660000000000025 28 -3 28 C-3 22.720000000000027 -3 17.439999999999998 -3 12 C-3.329999999999984 11.339999999999975 -3.660000000000025 10.680000000000007 -4 10 C-4 0 -4 0 0 0 Z " fill="#F69176" transform="translate(444,442)"/>
<path d="M0 0 C-0.3300000000000125 1.3199999999999932 -0.6599999999999966 2.6399999999999864 -1 4 C-1.745355992499924 12.881966011250086 -1.745355992499924 12.881966011250086 0 16 C0 27 0 27 -2 31 C-2.6599999999999966 31 -3.319999999999993 31 -4 31 C-3.6699999999999875 27.04000000000002 -3.3400000000000034 23.079999999999984 -3 19 C-3.6599999999999966 16.689999999999998 -4.319999999999993 14.379999999999995 -5 12 C-3.666666666666657 0 -3.666666666666657 0 0 0 Z " fill="#5B2441" transform="translate(209,264)"/>
<path d="M0 0 C-0.3300000000000125 3.9599999999999795 -0.6599999999999966 7.920000000000016 -1 12 C-0.009999999999990905 14.970000000000027 0.9799999999999898 17.939999999999998 2 21 C1.6699999999999875 23.639999999999986 1.3400000000000034 26.279999999999973 1 29 C0.3400000000000034 29 -0.3199999999999932 29 -1 29 C-1.3300000000000125 26.029999999999973 -1.6599999999999966 23.060000000000002 -2 20 C-2.6599999999999966 18.680000000000007 -3.319999999999993 17.360000000000014 -4 16 C-4 0 -4 0 0 0 Z " fill="#5A2340" transform="translate(198,256)"/>
<path d="M0 0 C0.660000000000025 0.660000000000025 1.3199999999999932 1.3199999999999932 2 2 C-14.875 17 -14.875 17 -23 17 C-23 15 -23 15 -12 9 C-9.029999999999973 6.689999999999998 -6.060000000000002 4.3799999999999955 -3 2 C-2.009999999999991 1.339999999999975 -1.0199999999999818 0.6800000000000068 0 0 Z " fill="#F12056" transform="translate(360,374)"/>
<path d="M0 0 C-2 4 -2 4 -4 4 C-4.329999999999984 4.990000000000009 -4.660000000000025 5.980000000000018 -5 7 C-5.329999999999984 7 -5.660000000000025 7 -6 7 C-5.670000000000016 7.990000000000009 -5.339999999999975 8.980000000000018 -5 10 C-7.639999999999986 9.669999999999959 -10.279999999999973 9.340000000000032 -13 9 C-11 4 -11 4 -9 3 C-9.329999999999984 2.009999999999991 -9.660000000000025 1.0199999999999818 -10 0 C-7 -1 -7 -1 0 0 Z " fill="#572B4F" transform="translate(426,610)"/>
<path d="M0 0 C1 3 1 3 0 7 C-6 7 -12 7 -18 7 C-17.670000000000016 10.300000000000011 -17.339999999999975 13.599999999999994 -17 17 C-17.99000000000001 17.329999999999984 -18.980000000000018 17.659999999999997 -20 18 C-19 6 -19 6 -17 4 C-9.079999999999984 3.5049999999999955 -9.079999999999984 3.5049999999999955 -1 3 C-0.6700000000000159 2.009999999999991 -0.339999999999975 1.0200000000000102 0 0 Z " fill="#754961" transform="translate(334,221)"/>
<path d="M0 0 C3.6299999999999955 0 7.259999999999991 0 11 0 C11 1.9800000000000182 11 3.9600000000000364 11 6 C7.3700000000000045 6 3.740000000000009 6 0 6 C0 4.019999999999982 0 2.0399999999999636 0 0 Z " fill="#F6A58D" transform="translate(376,600)"/>
<path d="M0 0 C0.660000000000025 0.3299999999999841 1.3199999999999932 0.660000000000025 2 1 C0.6800000000000068 2.319999999999993 -0.6399999999999864 3.6399999999999864 -2 5 C-1.0874606907892712 10.266278697079656 -1.0874606907892712 10.266278697079656 7 16 C6.670000000000016 16.660000000000025 6.339999999999975 17.319999999999993 6 18 C2 17 2 17 -6 10 C-5 5 -5 5 0 0 Z " fill="#F12457" transform="translate(276,357)"/>
<path d="M0 0 C0.3299999999999841 0 0.660000000000025 0 1 0 C2 13 2 13 0 15 C-6.012131027346413 14.453442633877614 -12.023750711729349 13.853749898324395 -18 13 C-18.99000000000001 14.319999999999993 -19.980000000000018 15.639999999999986 -21 17 C-21 12 -21 12 -20 11 C-11 11 -11 11 0 12 C0 8.04000000000002 0 4.079999999999984 0 0 Z " fill="#410F39" transform="translate(394,453)"/>
<path d="M0 0 C0 0.3299999999999841 0 0.660000000000025 0 1 C-10.889999999999986 1.4950000000000045 -10.889999999999986 1.4950000000000045 -22 2 C-24.082316825181408 4.602896031476746 -26.15099934591592 7.226499018873881 -28 10 C-28 -6.73250419991291 -12.397397830715875 -1.3774886478573194 0 0 Z " fill="#4D1740" transform="translate(425,422)"/>
<path d="M0 0 C20 0 20 0 25 5 C25 10.939999999999998 25 16.879999999999995 25 23 C24.670000000000016 23 24.339999999999975 23 24 23 C23.670000000000016 18.379999999999995 23.339999999999975 13.759999999999991 23 9 C18.904599545645453 -1.2385011358863096 11.131207370889058 1.6957004606805697 0 1 C0 0.6699999999999875 0 0.3400000000000034 0 0 Z " fill="#49163D" transform="translate(313,197)"/>
<path d="M0 0 C2 2 2 2 2 12 C1.339999999999975 13.650000000000006 0.6800000000000068 15.300000000000011 0 17 C-1 15 -1 15 0 8 C-2.9700000000000273 10.474999999999994 -2.9700000000000273 10.474999999999994 -6 13 C-6 8 -6 8 -4 6 C-2.680000000000007 6 -1.3600000000000136 6 0 6 C-1.648568251997233 1.875965265410798 -1.648568251997233 1.875965265410798 -5 0 C-4 -1 -4 -1 0 0 Z " fill="#BA6862" transform="translate(407,214)"/>
<path d="M0 0 C3.3000000000000114 0 6.600000000000023 0 10 0 C10 1.9800000000000182 10 3.9600000000000364 10 6 C1 6 1 6 0 5 C0 3.3500000000000227 0 1.7000000000000455 0 0 Z " fill="#F8A58C" transform="translate(420,602)"/>
<path d="M0 0 C7 0 7 0 9 1 C8.340000000000003 2.980000000000018 7.680000000000007 4.9599999999999795 7 7 C1 7 1 7 -1 5 C-0.6699999999999875 3.3500000000000227 -0.3400000000000034 1.6999999999999886 0 0 Z " fill="#F09F87" transform="translate(231,314)"/>
<path d="M0 0 C9.125958289809319 2.2814895724523296 13.093516044987894 9.640274067481812 18 17 C17.670000000000016 17.99000000000001 17.339999999999975 18.97999999999999 17 20 C13.584746475067107 15.730933093833926 10.280243893371335 11.373658524495113 7 7 C4.689999999999998 5.02000000000001 2.3799999999999955 3.039999999999992 0 1 C0 0.6699999999999875 0 0.3400000000000034 0 0 Z " fill="#4A163D" transform="translate(402,139)"/>
<path d="M0 0 C2.969999999999999 0 5.939999999999998 0 9 0 C8.669999999999987 1.6499999999999773 8.340000000000003 3.3000000000000114 8 5 C1 6 1 6 -1 4 C-0.6699999999999875 2.680000000000007 -0.3400000000000034 1.3600000000000136 0 0 Z " fill="#EE9E87" transform="translate(234,337)"/>
<path d="M0 0 C-0.3299999999999841 2.6399999999999864 -0.660000000000025 5.280000000000001 -1 8 C-3.6399999999999864 8 -6.279999999999973 8 -9 8 C-5.800000000000011 0 -5.800000000000011 0 0 0 Z " fill="#F8DED6" transform="translate(312,199)"/>
<path d="M0 0 C3.6299999999999955 0 7.259999999999991 0 11 0 C11 0.3300000000000409 11 0.6599999999999682 11 1 C13.970000000000027 1.4950000000000045 13.970000000000027 1.4950000000000045 17 2 C16.670000000000016 3.32000000000005 16.339999999999975 4.639999999999986 16 6 C16 5.009999999999991 16 4.019999999999982 16 3 C12.370000000000005 3 8.740000000000009 3 5 3 C5 4.980000000000018 5 6.960000000000036 5 9 C1 10 1 10 -1 8 C-0.339999999999975 7.669999999999959 0.3199999999999932 7.340000000000032 1 7 C1.329999999999984 5.350000000000023 1.660000000000025 3.7000000000000455 2 2 C1.339999999999975 2 0.6800000000000068 2 0 2 C0 1.3400000000000318 0 0.67999999999995 0 0 Z " fill="#723848" transform="translate(371,597)"/>
<path d="M0 0 C19.19999999999999 2.4000000000000057 19.19999999999999 2.4000000000000057 21 6 C17.370000000000005 5.340000000000003 13.740000000000009 4.680000000000007 10 4 C4.060000000000002 3.6699999999999875 -1.8799999999999955 3.3400000000000034 -8 3 C-8 2.6699999999999875 -8 2.3400000000000034 -8 2 C-5.360000000000014 2 -2.7200000000000273 2 0 2 C0 1.3400000000000034 0 0.6800000000000068 0 0 Z " fill="#CABBC5" transform="translate(374,131)"/>
<path d="M0 0 C0.3299999999999841 0.660000000000025 0.660000000000025 1.3199999999999932 1 2 C3.3100000000000023 2.329999999999984 5.6200000000000045 2.660000000000025 8 3 C8 5 8 5 6 6 C5.339999999999975 11.610000000000014 4.680000000000007 17.220000000000027 4 23 C3.670000000000016 23 3.339999999999975 23 3 23 C2.670000000000016 17.060000000000002 2.339999999999975 11.120000000000005 2 5 C1.339999999999975 4.670000000000016 0.6800000000000068 4.339999999999975 0 4 C0 2.680000000000007 0 1.3600000000000136 0 0 Z " fill="#49133D" transform="translate(364,459)"/>
<path d="M0 0 C0.9900000000000091 0 1.9799999999999898 0 3 0 C3.3300000000000125 3.6299999999999955 3.6599999999999966 7.259999999999991 4 11 C4.3300000000000125 11.990000000000009 4.659999999999997 12.980000000000018 5 14 C4.009999999999991 14.495000000000005 4.009999999999991 14.495000000000005 3 15 C2.3400000000000034 13.680000000000007 1.6800000000000068 12.360000000000014 1 11 C0.009999999999990905 10.670000000000016 -0.9799999999999898 10.339999999999975 -2 10 C-1.3400000000000034 6.699999999999989 -0.6800000000000068 3.3999999999999773 0 0 Z " fill="#E39680" transform="translate(243,325)"/>
<path d="M0 0 C2 2 2 2 1 6 C0.6700000000000159 5.340000000000003 0.339999999999975 4.680000000000007 0 4 C-0.9900000000000091 4 -1.9800000000000182 4 -3 4 C-3 4.659999999999997 -3 5.319999999999993 -3 6 C-2.339999999999975 6 -1.6800000000000068 6 -1 6 C-1 9.629999999999995 -1 13.259999999999991 -1 17 C-1.329999999999984 17 -1.660000000000025 17 -2 17 C-2 13.699999999999989 -2 10.400000000000006 -2 7 C-2.990000000000009 7 -3.980000000000018 7 -5 7 C-5 9.310000000000002 -5 11.620000000000005 -5 14 C-5.329999999999984 14 -5.660000000000025 14 -6 14 C-6 9.710000000000008 -6 5.4199999999999875 -6 1 C-5.670000000000016 1.6599999999999966 -5.339999999999975 2.319999999999993 -5 3 C-0.9457673855453095 2.5242486063950764 -0.9457673855453095 2.5242486063950764 0 0 Z " fill="#7B4150" transform="translate(344,204)"/>
<path d="M0 0 C5.610000000000014 0 11.220000000000027 0 17 0 C18 10 18 10 16 12 C15 10 15 10 16 1 C11.050000000000011 1 6.100000000000023 1 1 1 C0.6700000000000159 1.990000000000009 0.339999999999975 2.980000000000018 0 4 C0 2.680000000000007 0 1.3600000000000136 0 0 Z " fill="#753D4D" transform="translate(428,441)"/>
<path d="M0 0 C6 0 6 0 8 1 C8 2.319999999999993 8 3.6399999999999864 8 5 C5.360000000000014 5.329999999999984 2.719999999999999 5.660000000000025 0 6 C0 4.019999999999982 0 2.0400000000000205 0 0 Z " fill="#F7A58D" transform="translate(231,324)"/>
<path d="M0 0 C0.3299999999999841 0 0.660000000000025 0 1 0 C0.6700000000000159 6.269999999999982 0.339999999999975 12.54000000000002 0 19 C-0.9900000000000091 18.670000000000016 -1.9800000000000182 18.339999999999975 -3 18 C-2 6 -2 6 0 0 Z " fill="#D92F5D" transform="translate(393,445)"/>
<path d="M0 0 C0 8.339997335464545 -0.40579979294113855 16.681197101175712 -1 25 C-1.329999999999984 25 -1.660000000000025 25 -2 25 C-3 13 -3 13 -3 1 C-1 0 -1 0 0 0 Z " fill="#8A5051" transform="translate(412,518)"/>
<path d="M0 0 C3.6299999999999955 0 7.259999999999991 0 11 0 C7 4 7 4 0 5 C0 3.3499999999999943 0 1.6999999999999886 0 0 Z " fill="#E4415A" transform="translate(335,248)"/>
<path d="M0 0 C1 2 1 2 1 8 C-3 9 -3 9 -4 8 C-4 0 -4 0 0 0 Z " fill="#52244A" transform="translate(355,210)"/>
<path d="M0 0 C1 2 1 2 -1 6 C-0.9672907220666502 13.45081875281835 -0.9672907220666502 13.45081875281835 5 15 C5 15.330000000000041 5 15.659999999999968 5 16 C-1 16 -1 16 -4 13 C-4 6 -4 6 0 0 Z " fill="#DFE0E6" transform="translate(410,614)"/>
<path d="M0 0 C3.210604398752082 6.421208797504164 3 10.599322612639469 3 18 C0 16 0 16 -2 5 C-1 1 -1 1 0 0 Z " fill="#701E46" transform="translate(427,377)"/>
<path d="M0 0 C6.34217099809166 0.576560999826512 12.680852594564385 1.2101065743205481 19 2 C18 4 18 4 9 4 C6.029999999999973 3.009999999999991 3.0600000000000023 2.0200000000000102 0 1 C0 0.6699999999999875 0 0.3400000000000034 0 0 Z " fill="#46133B" transform="translate(355,167)"/>
<path d="M0 0 C0.660000000000025 0 1.3199999999999932 0 2 0 C2 12 2 12 1 16 C0.009999999999990905 16 -0.9800000000000182 16 -2 16 C-1.339999999999975 10.720000000000027 -0.6800000000000068 5.439999999999998 0 0 Z " fill="#55153E" transform="translate(389,398)"/>
<path d="M0 0 C3 3 3 3 2 9 C0.6800000000000068 9 -0.6399999999999864 9 -2 9 C-2 1 -2 1 0 0 Z " fill="#4F2045" transform="translate(329,207)"/>
</svg>
