<?xml version="1.0" encoding="utf-8" ?>
<svg baseProfile="full" height="400" version="1.1" width="400" xmlns="http://www.w3.org/2000/svg" xmlns:ev="http://www.w3.org/2001/xml-events" xmlns:xlink="http://www.w3.org/1999/xlink"><defs /><path d="M 156.40800000000002,156.40800000000002 C 156.40800000000002,242.592 242.592,242.592 242.592,156.40800000000002 Z" fill="rgb(254,184,91)" stroke="none" stroke-width="0" /><path d="M 149.46400000000003,176.288 C 153.28,193.86399999999998 171.168,228.4 189.24800000000002,265.432 C 205.304,270.744 212.36800000000002,241.88 208.184,210.768 C 205.912,191.712 207.76,180.304 197.168,173.06400000000002 Z" fill="rgb(95,39,82)" stroke="none" stroke-width="0" /><path d="M 168.79200000000003,83.81599999999999 C 162.09600000000003,101.56799999999998 168.92000000000002,114.99999999999999 183.91199999999998,118.83999999999997 C 199.312,117.52799999999999 209.10399999999998,110.04 210.04,95.128 Z" fill="rgb(95,39,82)" stroke="none" stroke-width="0" /><path d="M 185.08,305.44 C 202.95999999999998,309.28 230.6,307.12 229.99999999999997,302.15999999999997 Z" fill="rgb(236,145,78)" stroke="none" stroke-width="0" /><path d="M 229.936,220.42399999999998 C 226.352,221.712 223.69599999999997,225.856 223.752,230.33599999999998 C 226.28000000000003,232.576 229.648,231.28799999999998 232.08800000000002,227.14399999999998 Z" fill="rgb(236,145,78)" stroke="none" stroke-width="0" /><path d="M 169.336,116.93599999999998 C 165.37600000000003,116.52799999999999 162.184,118.8 161.34400000000002,122.87200000000001 C 163.312,126.384 167.15200000000002,126.8 170.68,123.87199999999999 Z" fill="rgb(236,145,78)" stroke="none" stroke-width="0" /><path d="M 199.768,176.72799999999998 C 176.04,176.128 156.93599999999998,180.51999999999998 151.75199999999998,185.712 C 160.304,192.64 175.432,202.112 190.12,211.192 C 203.344,212.64 213.408,204.44799999999998 213.896,188.88 Z" fill="rgb(240,63,107)" stroke="none" stroke-width="0" /><path d="M 215.51999999999998,226.56800000000004 C 212.384,226.79200000000003 210.08800000000002,228.57600000000002 209.83999999999997,231.12800000000001 C 211.736,233.184 214.752,233.27999999999997 217.168,231.17599999999996 Z" fill="rgb(254,169,143)" stroke="none" stroke-width="0" /><path d="M 121.6,161.2 C 119.67999999999999,163.77599999999998 120.672,167.45600000000002 123.96000000000001,169.92799999999997 C 127.64800000000001,169.8 129.46400000000003,167.224 128.576,163.544 Z" fill="rgb(254,169,143)" stroke="none" stroke-width="0" /><path d="M 171.96,119.32799999999999 C 172.944,130.168 181.52,142.91199999999998 190.552,151.784 C 196.55199999999996,151.50400000000002 199.05599999999998,139.816 196.984,122.68 Z" fill="rgb(254,169,143)" stroke="none" stroke-width="0" /><path d="M 188.71200000000002,289.904 C 185.872,294.696 186.592,301.23199999999997 191.85600000000002,306.824 C 200.49599999999998,310.296 208.08799999999997,310.456 211.04799999999997,306.944 C 208.36799999999997,301.048 201.664,294.65600000000006 194.304,289.94399999999996 Z" fill="rgb(62,13,56)" stroke="none" stroke-width="0" /><path d="M 207.312,208.68800000000002 C 196.82399999999998,185.99200000000002 169.47200000000004,174.68 151.88,175.656 C 163.096,182.864 186.96,193.32799999999997 198.24800000000005,207.93599999999998 Z" fill="rgb(62,13,56)" stroke="none" stroke-width="0" /><path d="M 166.07999999999998,88.376 C 161.44799999999998,102.792 168.864,114.87199999999999 182.40800000000002,114.40799999999999 Z" fill="rgb(62,13,56)" stroke="none" stroke-width="0" /><path d="M 206.56799999999998,219.48800000000003 C 204.6,217.008 198.976,217.64 192.55199999999996,221.024 C 189.57599999999996,225.152 191.64799999999997,227.744 197.384,227.216 Z" fill="rgb(251,235,229)" stroke="none" stroke-width="0" /><path d="M 157.816,104.672 C 157.54399999999998,108.01600000000002 163.64799999999997,110.26400000000001 173.14400000000003,110.168 C 179.752,107.968 179.71200000000002,104.952 173.27200000000002,102.592 Z" fill="rgb(251,235,229)" stroke="none" stroke-width="0" /><path d="M 97.584,154.15200000000002 C 95.688,158.96800000000002 96.96799999999999,164.23200000000003 100.872,167.216 C 106.13600000000001,166.872 110.27200000000002,163.456 110.85600000000001,158.256 Z" fill="rgb(169,215,233)" stroke="none" stroke-width="0" /><path d="M 182.624,301.52000000000004 C 186.048,307.736 195.728,310.52 206.29600000000002,310.328 C 212.192,306.36 210.984,299.03200000000004 203.64,291.968 Z" fill="rgb(147,94,92)" stroke="none" stroke-width="0" /><path d="M 202.96800000000002,224.79999999999998 C 208.48000000000002,231.99200000000002 220.144,233.22400000000002 228.08799999999997,228.248 C 228.73599999999996,220.696 221.71199999999996,215.74399999999997 209.872,217.296 Z" fill="rgb(147,94,92)" stroke="none" stroke-width="0" /><path d="M 192.08800000000002,168.056 C 188.288,164.6 179.752,168.208 168.66400000000002,176.93599999999998 C 159.79999999999998,185.67199999999997 159.49599999999998,191.23199999999997 168.008,191.952 Z" fill="rgb(147,94,92)" stroke="none" stroke-width="0" /><path d="M 119.53600000000002,158.656 C 116.68799999999999,162.16000000000003 118.064,167.22400000000002 123.40799999999999,170.872 C 129.112,170.704 131.312,166.872 129.28799999999998,161.92 Z" fill="rgb(147,94,92)" stroke="none" stroke-width="0" /><path d="M 162.56800000000004,107.68799999999999 C 168.78400000000002,115.864 181.256,117.456 193.192,117.12 C 200.8,117.208 198.92800000000003,112.36799999999998 185.352,103.55199999999999 Z" fill="rgb(147,94,92)" stroke="none" stroke-width="0" /><path d="M 202.96,159.672 C 194.08800000000002,166.904 193.56,176.74399999999997 201.776,187.31999999999996 C 211.696,198.44 218.848,202.144 221.72000000000003,192.312 Z" fill="rgb(226,37,87)" stroke="none" stroke-width="0" /><path d="M 155.216,105.08000000000001 C 157.096,107.98400000000001 163.60000000000002,108.97600000000001 170.776,107.10400000000001 C 171.34400000000002,103.808 164.888,101.70400000000001 158.08,102.344 Z" fill="rgb(167,142,160)" stroke="none" stroke-width="0" /></svg>