<?xml version="1.0" encoding="utf-8" ?>
<svg baseProfile="full" height="340" version="1.1" width="800" xmlns="http://www.w3.org/2000/svg" xmlns:ev="http://www.w3.org/2001/xml-events" xmlns:xlink="http://www.w3.org/1999/xlink"><defs /><path d="M 0.0,0.0 C 1376.0,0.0 1376.0,586.0 0.0,586.0 Z" fill="rgb(254,254,254)" stroke="none" stroke-width="0.0" /><path d="M 0.0,0.0 C 0.0,160.0 -27.0,160.0 -27.932619094848633,105.96417045593262 C -28.35791015625,80.87060546875 -28.69359290599823,58.981852650642395 -28.903141021728516,47.407649993896484 C -25.276268005371094,17.378273010253906 -11.315425872802734,7.292118072509766 -2.5175342559814453,1.1235179901123047 Z" fill="rgb(221,60,17)" stroke="none" stroke-width="0.0" /><path d="M 0.0,0.0 C 0.0,107.0 -27.0,107.0 -26.0,9.0 C -20.37890625,6.64453125 -17.217041015625,5.319580078125 0.0,0.0 Z" fill="rgb(221,58,15)" stroke="none" stroke-width="0.0" /><path d="M 0.0,0.0 C 0.0,102.0 -27.0,102.0 -27.932619094848633,68.5397596359253 C -28.35791015625,53.000244140625 -28.70779037475586,37.98348426818848 -28.903141021728516,32.275075912475586 C -27.0,15.0 -11.229000091552734,5.037363052368164 -5.042022705078125,1.7191619873046875 Z" fill="rgb(221,61,18)" stroke="none" stroke-width="0.0" /><path d="M 0.0,0.0 C 0.0,93.0 -27.0,93.0 -27.51812171936035,62.40991020202637 C -27.75439453125,48.205078125 -27.948772430419922,34.491641998291016 -28.057300567626953,29.26485824584961 C -24.85443115234375,11.645660400390625 -17.0,8.0 -12.8125,5.6640625 C -9.0,3.625 -7.01953125,2.55078125 0.0,0.0 Z" fill="rgb(221,58,14)" stroke="none" stroke-width="0.0" /><path d="M 0.0,0.0 C 11.1875,-0.1875 14.688232421875,-0.270263671875 17.48046875,-0.29296875 C 20.321044921875,-0.340576171875 28.0,3.0 29.1875,12.4375 C 29.224609375,14.501953125 27.0,23.0 18.45703125,24.09765625 C 15.526611328125,24.090087890625 11.8125,24.0625 0.0,24.0 Z" fill="rgb(251,251,251)" stroke="none" stroke-width="0.0" /><path d="M 0.0,0.0 C 10.6875,-0.125 14.030029296875,-0.18017578125 16.69921875,-0.1953125 C 19.412841796875,-0.22705078125 28.0,3.0 27.0,13.0 C 25.0,13.0 25.0,15.0 27.0,15.0 C 28.0,24.0 24.0,24.0 23.0,16.0 C 3.0,15.0 3.0,24.0 0.0,24.0 Z" fill="rgb(46,46,46)" stroke="none" stroke-width="0.0" /><path d="M 0.0,0.0 C 10.6875,-0.125 14.030029296875,-0.18017578125 16.69921875,-0.1953125 C 19.412841796875,-0.22705078125 28.0,3.0 27.49609375,12.96484375 C 26.9375,19.75 26.96484375,22.171875 27.0,24.0 C 25.0,24.0 25.0,16.0 3.0,15.0 C 3.0,24.0 0.0,24.0 0.0,0.0 Z" fill="rgb(39,39,39)" stroke="none" stroke-width="0.0" /><path d="M 0.0,0.0 C 11.1875,-0.1875 14.688232421875,-0.270263671875 17.48046875,-0.29296875 C 20.321044921875,-0.340576171875 28.0,3.0 29.1875,12.4375 C 29.224609375,14.501953125 27.0,23.0 18.45703125,24.09765625 C 15.526611328125,24.090087890625 11.8125,24.0625 0.0,24.0 C 0.0,0.0 3.0,3.0 3.0,22.0 C 13.375,22.1875 16.359375,22.263671875 19.2109375,22.29296875 C 21.84521484375,22.340576171875 24.0,22.0 26.25,11.9375 C 26.265625,8.15234375 24.0,3.0 19.2109375,2.8046875 C 16.359375,2.82421875 13.375,2.875 10.3671875,2.90234375 Z" fill="rgb(0,0,0)" stroke="none" stroke-width="0.0" /><path d="M 0.0,0.0 C 2.314453125,-0.0625 11.09765625,1.578125 12.5625,6.25 C 9.5625,6.25 8.3125,4.76953125 -0.4375,2.9375 C -4.1875,2.94921875 -10.4375,5.25 -9.4375,10.25 C -5.640625,10.36328125 -0.6875,10.5625 1.8125,10.630859375 C 11.11328125,12.57421875 13.0,17.75 11.1875,23.125 C -1.3125,25.5625 -3.78515625,25.650390625 -13.0078125,23.41796875 C -14.4375,18.25 -11.4375,18.25 -10.4375,21.25 C -1.5,21.3125 1.076171875,21.337890625 3.52734375,21.34765625 C 5.796630859375,21.363525390625 8.5625,20.25 8.5625,15.25 C -5.27734375,13.8203125 -13.158203125,11.90771484375 -14.4375,4.25 Z" fill="rgb(10,10,10)" stroke="none" stroke-width="0.0" /><path d="M 0.0,0.0 C 25.0,0.0 25.0,3.0 4.0,3.0 C 4.0,11.0 23.0,11.0 23.0,13.0 C 3.0,13.0 3.0,22.0 24.0,22.0 C 24.0,24.0 0.0,24.0 0.0,0.0 Z" fill="rgb(34,34,34)" stroke="none" stroke-width="0.0" /><path d="M 0.0,0.0 C 2.734375,-0.021484375 14.0,3.4375 14.0,8.4375 C 11.0,8.4375 10.0,4.4375 -10.0,4.4375 C -10.0,21.4375 10.0,21.4375 12.0,17.4375 C 14.0,17.4375 14.0,22.4375 0.5,25.75 C -1.76171875,25.759765625 -13.0,23.4375 -14.3125,13.0625 C -14.400390625,10.734375 -12.60546875,1.92578125 0.0,0.0 Z" fill="rgb(4,4,4)" stroke="none" stroke-width="0.0" /><path d="M 0.0,0.0 C 25.0,0.0 25.0,3.0 3.0,3.0 C 3.0,11.0 23.0,11.0 23.0,13.0 C 3.0,13.0 3.0,22.0 24.0,22.0 C 24.0,24.0 0.0,24.0 0.0,0.0 Z" fill="rgb(29,29,29)" stroke="none" stroke-width="0.0" /><path d="M 0.0,0.0 C 10.4375,-0.0625 13.447265625,-0.087890625 16.30859375,-0.09765625 C 18.958740234375,-0.113525390625 22.0,1.0 22.0,8.0 C 18.958740234375,9.113525390625 16.30859375,9.09765625 13.447265625,9.087890625 C 10.4375,9.0625 7.416015625,9.048828125 0.0,9.0 Z" fill="rgb(251,251,251)" stroke="none" stroke-width="0.0" /><path d="M 0.0,0.0 C 10.4375,-0.0625 13.447265625,-0.087890625 16.30859375,-0.09765625 C 18.958740234375,-0.113525390625 22.0,1.0 22.0,8.0 C 18.958740234375,9.113525390625 16.30859375,9.09765625 13.447265625,9.087890625 C 10.4375,9.0625 7.416015625,9.048828125 0.0,9.0 Z" fill="rgb(253,253,253)" stroke="none" stroke-width="0.0" /><path d="M 0.0,0.0 C 28.0,0.0 28.0,3.0 16.0,3.0 C 16.0,25.0 13.0,25.0 13.0,3.0 Z" fill="rgb(44,44,44)" stroke="none" stroke-width="0.0" /><path d="M 0.0,0.0 C 21.0,0.0 21.0,1.0 3.0,1.0 C 3.0,12.0 20.0,12.0 20.0,14.0 C 3.0,14.0 3.0,23.0 0.0,23.0 Z" fill="rgb(4,4,4)" stroke="none" stroke-width="0.0" /><path d="M 0.0,0.0 C 11.1875,-0.1875 14.384765625,-0.263671875 17.48046875,-0.29296875 C 20.321044921875,-0.340576171875 28.0,3.0 29.1875,12.4375 C 29.224609375,14.501953125 27.0,23.0 24.0,23.0 C 24.4921875,21.44921875 25.125,11.8125 25.1328125,8.01953125 C 24.0,4.0 19.4140625,3.7890625 16.59375,3.703125 C 10.6796875,3.5703125 7.8515625,3.4765625 5.25244140625,3.41650390625 Z" fill="rgb(33,33,33)" stroke="none" stroke-width="0.0" /><path d="M 0.0,0.0 C 5.0,2.25 3.875,11.25 -4.0,11.25 Z" fill="rgb(154,154,154)" stroke="none" stroke-width="0.0" /><path d="M 0.0,0.0 C 2.734375,-0.021484375 14.0,3.4375 14.0,8.4375 C 11.0,8.4375 10.0,4.4375 -10.0,4.4375 C -11.0,18.4375 -12.0,18.4375 -12.18359375,15.8828125 C -12.4375,12.5625 -12.68359375,9.2578125 -14.0,4.4375 Z" fill="rgb(0,0,0)" stroke="none" stroke-width="0.0" /><path d="M 0.0,0.0 C 9.0,1.0625 9.0,10.0 6.15234375,11.09765625 Z" fill="rgb(49,49,49)" stroke="none" stroke-width="0.0" /><path d="M 0.0,0.0 C 20.0,0.0 20.0,1.0 2.0,1.0 C 2.0,12.0 19.0,12.0 19.0,14.0 C 2.0,14.0 2.0,23.0 0.0,23.0 Z" fill="rgb(5,5,5)" stroke="none" stroke-width="0.0" /><path d="M 0.0,0.0 C 2.314453125,-0.0625 11.09765625,1.578125 12.5625,6.25 C 9.5625,6.25 8.3125,4.76953125 -0.4375,2.9375 C -4.1875,2.94921875 -10.4375,5.25 -8.4375,13.25 C -14.4375,10.25 -13.125,2.4375 0.0,0.0 Z" fill="rgb(23,23,23)" stroke="none" stroke-width="0.0" /><path d="M 0.0,0.0 C 9.0,0.0 9.0,7.0 10.0,12.0 C 8.0,12.0 7.0,7.0 2.0,7.0 C 2.0,11.0 0.0,11.0 0.0,0.0 Z" fill="rgb(62,62,62)" stroke="none" stroke-width="0.0" /><path d="M 0.0,0.0 C 3.0,0.0 5.0,6.0 8.0,0.0 C 11.0,0.0 11.0,11.0 9.0,11.0 C 8.0,8.0 6.0,11.0 4.0,11.0 C 3.0,8.0 2.0,11.0 0.0,11.0 Z" fill="rgb(61,61,61)" stroke="none" stroke-width="0.0" /><path d="M 0.0,0.0 C 8.0,0.0 9.0,5.0 4.375,7.125 C 2.0,7.0 2.0,11.0 0.0,11.0 Z" fill="rgb(55,55,55)" stroke="none" stroke-width="0.0" /><path d="M 0.0,0.0 C 2.0,0.0 2.0,5.0 -11.8125,8.1875 C -14.201171875,8.146484375 -20.0,8.0 -20.0,5.0 Z" fill="rgb(45,45,45)" stroke="none" stroke-width="0.0" /><path d="M 0.0,0.0 C 3.0,1.0 4.0,7.0 6.0,7.0 C 8.0,0.0 10.0,0.0 10.0,11.0 C 9.0,11.0 8.0,6.0 6.0,11.0 C 4.0,11.0 2.0,6.0 1.0,11.0 Z" fill="rgb(33,33,33)" stroke="none" stroke-width="0.0" /><path d="M 0.0,0.0 C 3.0,0.0 4.0,3.0 7.17578125,3.11328125 C 11.3125,3.3125 13.404296875,3.380859375 20.723388671875,5.531982421875 C 22.0,7.0 13.25,7.25 10.75,7.3515625 Z" fill="rgb(56,56,56)" stroke="none" stroke-width="0.0" /><path d="M 0.0,0.0 C 4.0,1.0 11.75,1.5625 13.86328125,1.693359375 C 19.0,2.0 19.0,3.0 0.0,4.0 C -1.0,18.0 -2.0,18.0 -2.18359375,15.4453125 C -2.4375,12.125 -2.68359375,8.8203125 -4.0,4.0 Z" fill="rgb(83,83,83)" stroke="none" stroke-width="0.0" /><path d="M 0.0,0.0 C 6.0,2.0 6.0,8.0 0.0,9.0 Z" fill="rgb(244,244,244)" stroke="none" stroke-width="0.0" /><path d="M 0.0,0.0 C 7.25,-0.1875 9.31640625,-0.263671875 17.484375,1.32421875 C 19.0,6.0 16.0,6.0 14.73046875,4.54296875 C 6.3125,2.3125 2.73828125,2.11328125 0.0,2.0 Z" fill="rgb(1,1,1)" stroke="none" stroke-width="0.0" /><path d="M 0.0,0.0 C 8.0,0.0 8.0,1.0 2.0,1.0 C 2.0,5.0 8.0,5.0 8.0,6.0 C 2.0,6.0 2.0,10.0 8.0,10.0 C 8.0,11.0 0.0,11.0 0.0,0.0 Z" fill="rgb(18,18,18)" stroke="none" stroke-width="0.0" /><path d="M 0.0,0.0 C 3.0,0.0 5.0,11.0 3.0,8.0 C 2.0,11.0 0.0,11.0 0.0,0.0 Z" fill="rgb(67,67,67)" stroke="none" stroke-width="0.0" /><path d="M 0.0,0.0 C 3.0,0.0 4.0,9.0 0.0,9.0 Z" fill="rgb(56,56,56)" stroke="none" stroke-width="0.0" /><path d="M 0.0,0.0 C 6.0,3.0 6.0,8.0 3.0,8.0 Z" fill="rgb(30,30,30)" stroke="none" stroke-width="0.0" /><path d="M 0.0,0.0 C 5.0,0.0 6.0,4.0 0.0,4.0 Z" fill="rgb(241,241,241)" stroke="none" stroke-width="0.0" /><path d="M 0.0,0.0 C 5.0,0.0 5.0,4.0 0.0,4.0 Z" fill="rgb(234,234,234)" stroke="none" stroke-width="0.0" /><path d="M 0.0,0.0 C 5.0,2.0 6.0,6.0 3.0,6.0 Z" fill="rgb(21,21,21)" stroke="none" stroke-width="0.0" /></svg>