<?xml version="1.0" encoding="utf-8" ?>
<svg baseProfile="full" height="265" version="1.1" width="506" xmlns="http://www.w3.org/2000/svg" xmlns:ev="http://www.w3.org/2001/xml-events" xmlns:xlink="http://www.w3.org/1999/xlink"><defs /><path d="M 0.0,0.0 C 0.0,264.0 505.0,264.0 505.0,0.0 C 248.0,0.0 247.0,160.0 245.0,0.0 Z" fill="rgb(0,0,0)" stroke="none" stroke-width="0.0" /><path d="M 285.0,43.0 C 258.0,58.0 258.0,144.0 285.0,144.0 Z" fill="rgb(220,58,15)" stroke="none" stroke-width="0.0" /><path d="M 209.0,42.0 C 183.0,57.0 183.0,136.0 209.0,136.0 Z" fill="rgb(220,58,15)" stroke="none" stroke-width="0.0" /><path d="M 322.0,9.0 C 297.0,19.0 296.0,117.0 323.0,117.0 Z" fill="rgb(220,58,15)" stroke="none" stroke-width="0.0" /><path d="M 247.0,0.0 C 220.0,20.0 220.0,159.0 247.0,159.0 Z" fill="rgb(220,58,15)" stroke="none" stroke-width="0.0" /><rect fill="rgb(220,58,15)" height="29.0" stroke="none" stroke-width="0.0" width="159.0" x="154.0" y="65.0" /><rect fill="rgb(220,58,15)" height="108.26201629638672" stroke="none" stroke-width="0.0" width="28.879772186279297" x="294.65423011779785" y="8.864974975585938" /><rect fill="rgb(220,58,15)" height="35.0" stroke="none" stroke-width="0.0" width="102.0" x="144.5" y="71.5" /><rect fill="rgb(220,58,15)" height="102.27081298828125" stroke="none" stroke-width="0.0" width="28.902620315551758" x="256.6391134262085" y="41.86555480957031" /></svg>