<?xml version="1.0" encoding="utf-8" ?>
<svg baseProfile="full" height="800" version="1.1" width="800" xmlns="http://www.w3.org/2000/svg" xmlns:ev="http://www.w3.org/2001/xml-events" xmlns:xlink="http://www.w3.org/1999/xlink"><defs /><path d="M 0.0,0.0 C 0.0,799.0 799.0,799.0 799.0,0.0 Z" fill="rgb(64770,46920,23205)" stroke="none" stroke-width="0" /><path d="M 434.0,478.0 C 433.0,479.0 432.0,479.0 432.0,480.0 C 434.0,482.0 434.0,483.0 435.0,483.0 C 438.0,486.0 439.0,486.0 439.0,483.0 C 438.0,482.0 439.0,481.0 438.0,480.0 C 439.0,479.0 438.0,478.0 437.0,479.0 Z" fill="rgb(24990,11220,21165)" stroke="none" stroke-width="0" /><path d="M 375.0,465.0 C 375.0,467.0 374.0,468.0 374.0,472.0 C 373.0,473.0 373.0,475.0 372.0,476.0 C 372.0,478.0 371.0,479.0 371.0,480.0 C 370.0,481.0 371.0,482.0 371.0,487.0 C 370.0,488.0 370.0,491.0 371.0,492.0 C 370.0,493.0 370.0,499.0 369.0,500.0 C 370.0,501.0 369.0,502.0 369.0,549.0 C 370.0,550.0 370.0,556.0 371.0,557.0 C 371.0,558.0 370.0,559.0 370.0,561.0 C 371.0,562.0 371.0,572.0 372.0,573.0 C 372.0,582.0 373.0,583.0 373.0,588.0 C 374.0,589.0 374.0,594.0 375.0,595.0 C 374.0,596.0 381.0,596.0 382.0,597.0 C 383.0,596.0 390.0,596.0 391.0,595.0 C 391.0,594.0 392.0,593.0 392.0,590.0 C 393.0,589.0 392.0,588.0 393.0,587.0 C 392.0,586.0 393.0,585.0 393.0,578.0 C 394.0,577.0 393.0,576.0 394.0,575.0 C 393.0,574.0 394.0,573.0 393.0,572.0 C 394.0,571.0 394.0,558.0 395.0,557.0 C 394.0,556.0 394.0,555.0 395.0,554.0 C 395.0,522.0 396.0,521.0 395.0,520.0 C 396.0,519.0 395.0,518.0 396.0,517.0 C 395.0,516.0 396.0,515.0 396.0,514.0 C 395.0,513.0 396.0,512.0 395.0,511.0 C 396.0,510.0 395.0,509.0 396.0,508.0 C 396.0,493.0 393.0,493.0 391.0,491.0 C 393.0,489.0 394.0,489.0 395.0,490.0 C 396.0,490.0 397.0,489.0 398.0,490.0 C 400.0,490.0 401.0,491.0 402.0,490.0 C 403.0,491.0 403.0,492.0 404.0,491.0 C 405.0,491.0 406.0,492.0 407.0,492.0 C 411.0,496.0 411.0,497.0 412.0,498.0 C 412.0,502.0 413.0,503.0 413.0,507.0 C 414.0,508.0 414.0,511.0 415.0,512.0 C 414.0,513.0 414.0,515.0 415.0,516.0 C 415.0,525.0 416.0,526.0 416.0,544.0 C 417.0,545.0 417.0,571.0 418.0,572.0 C 417.0,573.0 418.0,574.0 417.0,575.0 C 418.0,576.0 417.0,577.0 417.0,588.0 C 418.0,589.0 418.0,591.0 417.0,592.0 C 417.0,597.0 418.0,598.0 422.0,598.0 C 423.0,599.0 430.0,599.0 431.0,598.0 C 432.0,599.0 433.0,598.0 434.0,598.0 C 435.0,597.0 435.0,592.0 436.0,591.0 C 435.0,590.0 436.0,589.0 436.0,580.0 C 437.0,579.0 436.0,578.0 437.0,577.0 C 436.0,576.0 437.0,575.0 437.0,564.0 C 438.0,563.0 437.0,562.0 437.0,561.0 C 438.0,560.0 437.0,559.0 438.0,558.0 C 438.0,542.0 439.0,541.0 438.0,540.0 C 439.0,539.0 438.0,538.0 439.0,537.0 C 439.0,490.0 438.0,489.0 437.0,489.0 C 436.0,488.0 435.0,488.0 431.0,484.0 C 431.0,483.0 428.0,480.0 428.0,479.0 C 423.0,479.0 422.0,478.0 416.0,478.0 C 413.0,475.0 412.0,475.0 411.0,474.0 C 410.0,475.0 409.0,474.0 408.0,475.0 C 407.0,474.0 403.0,474.0 402.0,473.0 C 399.0,473.0 397.0,471.0 396.0,471.0 C 395.0,470.0 395.0,469.0 393.0,467.0 C 392.0,468.0 391.0,467.0 389.0,467.0 C 388.0,466.0 387.0,467.0 386.0,466.0 C 385.0,467.0 384.0,466.0 383.0,467.0 C 382.0,466.0 381.0,467.0 380.0,466.0 Z" fill="rgb(24990,11220,21165)" stroke="none" stroke-width="0" /><path d="M 366.0,134.0 C 365.0,135.0 361.0,135.0 360.0,136.0 C 358.0,136.0 357.0,137.0 355.0,137.0 C 354.0,138.0 353.0,138.0 352.0,139.0 C 351.0,139.0 350.0,140.0 349.0,140.0 C 347.0,142.0 346.0,142.0 345.0,143.0 C 348.0,146.0 349.0,146.0 351.0,148.0 C 352.0,148.0 354.0,150.0 355.0,150.0 C 356.0,151.0 357.0,151.0 358.0,152.0 C 359.0,152.0 360.0,153.0 361.0,153.0 C 362.0,154.0 364.0,154.0 365.0,155.0 C 366.0,155.0 367.0,156.0 370.0,156.0 C 371.0,157.0 374.0,157.0 375.0,158.0 C 380.0,158.0 381.0,159.0 389.0,159.0 C 390.0,160.0 389.0,161.0 387.0,161.0 C 386.0,162.0 385.0,162.0 384.0,161.0 C 383.0,162.0 382.0,161.0 381.0,162.0 C 380.0,161.0 374.0,161.0 373.0,160.0 C 370.0,160.0 369.0,159.0 367.0,159.0 C 366.0,158.0 364.0,158.0 363.0,157.0 C 361.0,157.0 360.0,156.0 359.0,156.0 C 358.0,155.0 357.0,155.0 356.0,154.0 C 355.0,154.0 354.0,153.0 353.0,153.0 C 351.0,151.0 350.0,151.0 348.0,149.0 C 347.0,149.0 343.0,145.0 342.0,145.0 C 341.0,144.0 341.0,143.0 340.0,144.0 C 339.0,144.0 338.0,145.0 335.0,145.0 C 334.0,146.0 330.0,146.0 330.0,147.0 C 336.0,153.0 337.0,153.0 341.0,157.0 C 342.0,157.0 344.0,159.0 345.0,159.0 C 347.0,161.0 348.0,161.0 350.0,163.0 C 349.0,164.0 347.0,164.0 346.0,163.0 C 345.0,163.0 343.0,161.0 342.0,161.0 C 341.0,160.0 340.0,160.0 337.0,157.0 C 336.0,157.0 325.0,146.0 324.0,146.0 C 323.0,147.0 322.0,146.0 321.0,147.0 C 319.0,147.0 315.0,151.0 315.0,152.0 C 314.0,153.0 315.0,154.0 314.0,155.0 C 314.0,156.0 313.0,157.0 314.0,158.0 C 314.0,161.0 315.0,162.0 315.0,164.0 C 316.0,165.0 316.0,167.0 315.0,168.0 C 316.0,167.0 317.0,168.0 317.0,170.0 C 318.0,171.0 318.0,172.0 319.0,172.0 C 325.0,178.0 326.0,178.0 328.0,180.0 C 329.0,180.0 330.0,181.0 331.0,181.0 C 333.0,183.0 334.0,183.0 335.0,184.0 C 336.0,184.0 337.0,185.0 339.0,185.0 C 340.0,186.0 342.0,186.0 343.0,187.0 C 345.0,187.0 346.0,188.0 347.0,187.0 C 348.0,188.0 360.0,188.0 361.0,187.0 C 362.0,188.0 363.0,187.0 367.0,187.0 C 368.0,186.0 369.0,187.0 370.0,186.0 C 373.0,186.0 374.0,185.0 377.0,185.0 C 378.0,184.0 379.0,185.0 380.0,184.0 C 384.0,184.0 385.0,183.0 386.0,184.0 C 387.0,184.0 387.0,183.0 392.0,178.0 C 394.0,178.0 395.0,177.0 401.0,177.0 C 402.0,178.0 402.0,179.0 401.0,180.0 C 395.0,180.0 394.0,181.0 393.0,181.0 C 391.0,183.0 391.0,184.0 390.0,185.0 C 390.0,186.0 389.0,187.0 389.0,189.0 C 388.0,190.0 388.0,194.0 389.0,195.0 C 389.0,196.0 390.0,197.0 390.0,198.0 C 400.0,208.0 401.0,208.0 403.0,210.0 C 407.0,210.0 409.0,212.0 409.0,213.0 C 410.0,214.0 410.0,215.0 411.0,216.0 C 411.0,226.0 410.0,227.0 410.0,230.0 C 409.0,231.0 409.0,236.0 410.0,237.0 C 410.0,241.0 411.0,242.0 411.0,243.0 C 412.0,244.0 412.0,246.0 416.0,250.0 C 418.0,250.0 419.0,249.0 420.0,249.0 C 424.0,245.0 424.0,244.0 427.0,241.0 C 427.0,240.0 428.0,239.0 428.0,238.0 C 429.0,237.0 429.0,236.0 430.0,235.0 C 430.0,234.0 431.0,233.0 431.0,232.0 C 432.0,231.0 432.0,229.0 433.0,228.0 C 433.0,226.0 434.0,225.0 434.0,224.0 C 435.0,223.0 434.0,222.0 435.0,221.0 C 435.0,219.0 436.0,218.0 435.0,217.0 C 436.0,216.0 436.0,212.0 437.0,211.0 C 436.0,210.0 437.0,209.0 436.0,208.0 C 437.0,207.0 436.0,206.0 437.0,205.0 C 436.0,204.0 437.0,203.0 436.0,202.0 C 436.0,196.0 435.0,195.0 435.0,191.0 C 434.0,190.0 434.0,189.0 433.0,188.0 C 434.0,187.0 433.0,186.0 433.0,185.0 C 432.0,184.0 432.0,182.0 431.0,181.0 C 431.0,179.0 429.0,177.0 429.0,176.0 C 428.0,175.0 428.0,174.0 426.0,172.0 C 426.0,171.0 422.0,167.0 421.0,167.0 C 420.0,166.0 420.0,165.0 419.0,164.0 C 419.0,161.0 418.0,160.0 418.0,159.0 C 417.0,158.0 417.0,157.0 416.0,156.0 C 416.0,155.0 415.0,154.0 415.0,153.0 C 412.0,150.0 412.0,149.0 404.0,141.0 C 403.0,141.0 401.0,139.0 400.0,140.0 C 398.0,140.0 397.0,139.0 395.0,139.0 C 393.0,137.0 391.0,137.0 390.0,136.0 C 388.0,136.0 387.0,135.0 382.0,135.0 C 381.0,134.0 379.0,134.0 378.0,135.0 C 377.0,135.0 376.0,134.0 371.0,134.0 C 370.0,135.0 369.0,135.0 368.0,134.0 Z" fill="rgb(24990,11220,21165)" stroke="none" stroke-width="0" /><path d="M 429.0,425.0 C 428.0,426.0 427.0,426.0 428.0,427.0 C 427.0,428.0 427.0,435.0 428.0,436.0 C 426.0,438.0 450.0,438.0 450.0,436.0 C 451.0,435.0 451.0,431.0 452.0,430.0 C 452.0,427.0 448.0,427.0 447.0,426.0 Z" fill="rgb(61200,15045,26520)" stroke="none" stroke-width="0" /><path d="M 288.0,348.0 C 287.0,349.0 286.0,349.0 282.0,353.0 C 281.0,353.0 272.0,362.0 273.0,363.0 C 273.0,364.0 281.0,372.0 283.0,372.0 C 288.0,367.0 289.0,367.0 295.0,361.0 C 296.0,361.0 300.0,357.0 297.0,354.0 C 295.0,354.0 294.0,353.0 294.0,352.0 C 293.0,351.0 291.0,351.0 290.0,350.0 Z" fill="rgb(61200,15045,26520)" stroke="none" stroke-width="0" /><path d="M 418.0,326.0 C 417.0,327.0 416.0,327.0 412.0,331.0 C 411.0,331.0 409.0,333.0 408.0,333.0 C 407.0,334.0 405.0,334.0 404.0,335.0 C 396.0,335.0 395.0,334.0 393.0,334.0 C 393.0,335.0 397.0,339.0 397.0,340.0 C 395.0,342.0 394.0,341.0 393.0,341.0 C 392.0,342.0 392.0,343.0 391.0,344.0 C 391.0,346.0 390.0,347.0 390.0,349.0 C 389.0,350.0 389.0,354.0 388.0,355.0 C 388.0,359.0 387.0,360.0 387.0,373.0 C 388.0,373.0 389.0,374.0 389.0,375.0 C 390.0,376.0 390.0,380.0 389.0,381.0 C 389.0,382.0 388.0,383.0 387.0,383.0 C 386.0,384.0 383.0,384.0 379.0,380.0 C 379.0,376.0 383.0,372.0 383.0,361.0 C 384.0,360.0 384.0,354.0 385.0,353.0 C 385.0,350.0 386.0,349.0 386.0,346.0 C 387.0,345.0 387.0,344.0 388.0,343.0 C 388.0,341.0 390.0,339.0 390.0,338.0 C 389.0,338.0 384.0,343.0 384.0,344.0 C 383.0,345.0 383.0,347.0 382.0,348.0 C 382.0,349.0 381.0,350.0 380.0,350.0 C 379.0,351.0 377.0,351.0 375.0,349.0 C 375.0,348.0 373.0,346.0 373.0,345.0 C 372.0,344.0 372.0,343.0 372.0,353.0 C 373.0,354.0 374.0,354.0 376.0,356.0 C 376.0,357.0 377.0,358.0 377.0,361.0 C 376.0,362.0 376.0,363.0 374.0,365.0 C 373.0,365.0 372.0,366.0 371.0,366.0 C 370.0,365.0 369.0,365.0 366.0,362.0 C 366.0,357.0 368.0,355.0 368.0,339.0 C 369.0,338.0 369.0,337.0 368.0,336.0 C 369.0,335.0 368.0,335.0 366.0,333.0 C 366.0,332.0 365.0,331.0 364.0,331.0 C 362.0,333.0 362.0,334.0 361.0,335.0 C 361.0,336.0 360.0,337.0 360.0,338.0 C 359.0,339.0 359.0,341.0 358.0,342.0 C 358.0,346.0 357.0,347.0 357.0,351.0 C 356.0,352.0 356.0,353.0 346.0,363.0 C 345.0,363.0 343.0,365.0 342.0,365.0 C 341.0,366.0 340.0,366.0 339.0,367.0 C 338.0,367.0 337.0,368.0 335.0,368.0 C 334.0,369.0 331.0,369.0 330.0,370.0 C 326.0,370.0 325.0,371.0 324.0,370.0 C 323.0,371.0 322.0,370.0 318.0,370.0 C 317.0,369.0 314.0,369.0 313.0,368.0 C 311.0,368.0 310.0,367.0 309.0,367.0 C 308.0,366.0 307.0,366.0 305.0,364.0 C 304.0,364.0 301.0,361.0 296.0,366.0 C 295.0,366.0 295.0,368.0 293.0,370.0 C 293.0,371.0 290.0,374.0 290.0,375.0 C 288.0,377.0 288.0,378.0 289.0,379.0 C 290.0,379.0 293.0,382.0 294.0,382.0 C 295.0,383.0 296.0,383.0 298.0,385.0 C 299.0,385.0 300.0,386.0 301.0,386.0 C 302.0,387.0 304.0,387.0 305.0,388.0 C 307.0,388.0 308.0,389.0 310.0,389.0 C 311.0,390.0 314.0,390.0 315.0,391.0 C 330.0,391.0 331.0,390.0 332.0,391.0 C 334.0,389.0 335.0,389.0 336.0,390.0 C 336.0,389.0 337.0,388.0 338.0,388.0 C 339.0,387.0 340.0,387.0 341.0,386.0 C 342.0,386.0 343.0,385.0 344.0,385.0 C 346.0,383.0 347.0,383.0 349.0,381.0 C 350.0,381.0 352.0,379.0 353.0,379.0 C 358.0,374.0 359.0,374.0 360.0,373.0 C 358.0,371.0 358.0,369.0 359.0,368.0 C 361.0,368.0 364.0,371.0 364.0,372.0 C 365.0,373.0 365.0,374.0 366.0,375.0 C 366.0,377.0 367.0,378.0 367.0,379.0 C 368.0,380.0 368.0,382.0 369.0,383.0 C 369.0,386.0 370.0,387.0 370.0,392.0 C 371.0,393.0 371.0,400.0 372.0,401.0 C 372.0,414.0 373.0,415.0 373.0,435.0 C 372.0,436.0 372.0,447.0 371.0,448.0 C 371.0,453.0 370.0,454.0 370.0,458.0 C 369.0,459.0 369.0,461.0 372.0,461.0 C 373.0,462.0 379.0,462.0 380.0,463.0 C 392.0,463.0 391.0,462.0 391.0,461.0 C 392.0,460.0 392.0,448.0 393.0,447.0 C 393.0,439.0 394.0,438.0 394.0,432.0 C 395.0,431.0 395.0,427.0 396.0,426.0 C 396.0,425.0 401.0,420.0 403.0,420.0 C 404.0,419.0 413.0,419.0 414.0,420.0 C 421.0,420.0 421.0,417.0 422.0,416.0 C 421.0,415.0 422.0,414.0 422.0,409.0 C 423.0,408.0 422.0,407.0 423.0,406.0 C 423.0,405.0 422.0,404.0 423.0,403.0 C 423.0,393.0 422.0,392.0 423.0,391.0 C 423.0,389.0 422.0,388.0 423.0,387.0 C 422.0,386.0 422.0,381.0 421.0,380.0 C 422.0,379.0 421.0,378.0 421.0,375.0 C 420.0,374.0 421.0,373.0 420.0,372.0 C 420.0,369.0 421.0,368.0 420.0,369.0 C 419.0,368.0 419.0,366.0 420.0,365.0 C 419.0,365.0 418.0,364.0 419.0,363.0 C 418.0,362.0 418.0,361.0 416.0,359.0 C 416.0,358.0 415.0,357.0 415.0,356.0 C 412.0,353.0 414.0,351.0 415.0,351.0 C 419.0,355.0 419.0,356.0 420.0,357.0 C 420.0,358.0 422.0,360.0 422.0,361.0 C 423.0,362.0 423.0,364.0 424.0,365.0 C 424.0,366.0 425.0,367.0 425.0,369.0 C 426.0,370.0 426.0,372.0 427.0,373.0 C 427.0,376.0 428.0,377.0 428.0,380.0 C 429.0,381.0 429.0,385.0 430.0,386.0 C 430.0,394.0 431.0,395.0 431.0,406.0 C 430.0,407.0 430.0,416.0 429.0,417.0 C 429.0,421.0 441.0,421.0 442.0,422.0 C 447.0,422.0 448.0,423.0 449.0,423.0 C 448.0,423.0 447.0,422.0 448.0,421.0 C 447.0,420.0 448.0,419.0 448.0,414.0 C 449.0,413.0 449.0,404.0 450.0,403.0 C 449.0,402.0 449.0,401.0 450.0,400.0 C 449.0,399.0 450.0,398.0 449.0,397.0 C 450.0,396.0 449.0,395.0 450.0,394.0 C 449.0,393.0 449.0,392.0 450.0,391.0 C 449.0,390.0 449.0,384.0 448.0,383.0 C 449.0,382.0 448.0,381.0 448.0,376.0 C 447.0,375.0 447.0,372.0 446.0,371.0 C 446.0,368.0 445.0,367.0 445.0,364.0 C 444.0,363.0 444.0,362.0 443.0,361.0 C 443.0,359.0 442.0,358.0 442.0,357.0 C 441.0,356.0 441.0,354.0 440.0,353.0 C 440.0,352.0 439.0,351.0 439.0,350.0 C 437.0,348.0 437.0,347.0 436.0,346.0 C 436.0,345.0 434.0,343.0 434.0,342.0 C 432.0,340.0 432.0,339.0 425.0,332.0 C 425.0,331.0 424.0,330.0 423.0,330.0 Z" fill="rgb(61200,15045,26520)" stroke="none" stroke-width="0" /><path d="M 410.0,295.0 C 409.0,296.0 409.0,297.0 410.0,298.0 C 410.0,299.0 416.0,305.0 416.0,306.0 C 417.0,307.0 417.0,309.0 418.0,310.0 C 417.0,311.0 417.0,312.0 413.0,316.0 C 412.0,316.0 411.0,317.0 409.0,317.0 C 408.0,318.0 407.0,318.0 406.0,319.0 C 404.0,319.0 403.0,320.0 401.0,320.0 C 400.0,321.0 399.0,321.0 398.0,322.0 C 397.0,322.0 396.0,323.0 395.0,323.0 C 394.0,324.0 393.0,324.0 391.0,326.0 C 391.0,327.0 392.0,328.0 402.0,328.0 C 403.0,327.0 405.0,327.0 406.0,326.0 C 407.0,326.0 408.0,325.0 409.0,325.0 C 413.0,321.0 421.0,321.0 422.0,322.0 C 422.0,323.0 423.0,322.0 424.0,323.0 C 425.0,323.0 428.0,326.0 429.0,326.0 C 434.0,331.0 434.0,332.0 437.0,335.0 C 438.0,335.0 438.0,334.0 439.0,333.0 C 439.0,331.0 440.0,330.0 439.0,329.0 C 440.0,328.0 439.0,327.0 440.0,326.0 C 439.0,325.0 439.0,322.0 438.0,321.0 C 438.0,318.0 437.0,317.0 437.0,316.0 C 436.0,315.0 436.0,314.0 435.0,313.0 C 435.0,312.0 434.0,311.0 434.0,310.0 C 433.0,310.0 432.0,309.0 432.0,308.0 C 431.0,307.0 430.0,307.0 428.0,305.0 C 427.0,305.0 423.0,301.0 422.0,301.0 C 418.0,297.0 417.0,297.0 415.0,295.0 Z" fill="rgb(61200,15045,26520)" stroke="none" stroke-width="0" /><path d="M 336.0,248.0 C 336.0,252.0 337.0,252.0 339.0,250.0 C 340.0,251.0 341.0,251.0 341.0,250.0 C 342.0,249.0 343.0,250.0 345.0,248.0 C 341.0,248.0 341.0,249.0 340.0,250.0 C 339.0,249.0 338.0,250.0 337.0,249.0 Z" fill="rgb(61200,15045,26520)" stroke="none" stroke-width="0" /><path d="M 368.0,590.0 C 368.0,591.0 367.0,592.0 361.0,592.0 C 360.0,593.0 346.0,593.0 345.0,594.0 C 344.0,593.0 343.0,594.0 332.0,594.0 C 331.0,595.0 322.0,595.0 321.0,596.0 C 313.0,596.0 312.0,597.0 306.0,597.0 C 305.0,598.0 300.0,598.0 299.0,599.0 C 294.0,599.0 293.0,600.0 289.0,600.0 C 288.0,601.0 285.0,601.0 284.0,602.0 C 281.0,602.0 280.0,603.0 277.0,603.0 C 276.0,604.0 274.0,604.0 273.0,605.0 C 271.0,605.0 270.0,606.0 269.0,606.0 C 268.0,607.0 266.0,607.0 264.0,609.0 C 263.0,609.0 261.0,611.0 261.0,612.0 C 260.0,613.0 260.0,615.0 261.0,616.0 C 261.0,617.0 262.0,618.0 263.0,618.0 C 265.0,620.0 266.0,620.0 267.0,621.0 C 268.0,621.0 269.0,622.0 271.0,622.0 C 272.0,623.0 274.0,623.0 275.0,624.0 C 277.0,624.0 278.0,625.0 281.0,625.0 C 282.0,626.0 285.0,626.0 286.0,627.0 C 289.0,627.0 290.0,628.0 295.0,628.0 C 296.0,629.0 300.0,629.0 301.0,630.0 C 307.0,630.0 308.0,631.0 314.0,631.0 C 315.0,632.0 323.0,632.0 324.0,633.0 C 334.0,633.0 335.0,634.0 347.0,634.0 C 348.0,635.0 364.0,635.0 365.0,636.0 C 366.0,635.0 367.0,636.0 434.0,636.0 C 435.0,635.0 454.0,635.0 455.0,634.0 C 467.0,634.0 468.0,633.0 478.0,633.0 C 479.0,632.0 486.0,632.0 487.0,631.0 C 494.0,631.0 495.0,630.0 500.0,630.0 C 501.0,629.0 506.0,629.0 507.0,628.0 C 512.0,628.0 513.0,627.0 516.0,627.0 C 517.0,626.0 520.0,626.0 521.0,625.0 C 524.0,625.0 525.0,624.0 527.0,624.0 C 528.0,623.0 530.0,623.0 531.0,622.0 C 533.0,622.0 534.0,621.0 535.0,621.0 C 536.0,620.0 537.0,620.0 539.0,618.0 C 540.0,618.0 541.0,617.0 541.0,616.0 C 542.0,615.0 542.0,613.0 541.0,612.0 C 541.0,611.0 539.0,609.0 538.0,609.0 C 536.0,607.0 534.0,607.0 533.0,606.0 C 532.0,606.0 531.0,605.0 529.0,605.0 C 528.0,604.0 526.0,604.0 525.0,603.0 C 523.0,603.0 522.0,602.0 518.0,602.0 C 517.0,601.0 514.0,601.0 513.0,600.0 C 509.0,600.0 508.0,599.0 503.0,599.0 C 502.0,598.0 497.0,598.0 496.0,597.0 C 490.0,597.0 489.0,596.0 481.0,596.0 C 480.0,595.0 471.0,595.0 470.0,594.0 C 459.0,594.0 458.0,593.0 457.0,594.0 C 456.0,593.0 442.0,593.0 441.0,592.0 C 439.0,592.0 439.0,597.0 438.0,598.0 C 438.0,600.0 436.0,602.0 433.0,602.0 C 433.0,605.0 434.0,605.0 435.0,606.0 C 435.0,610.0 436.0,611.0 436.0,617.0 C 435.0,618.0 435.0,620.0 434.0,621.0 C 434.0,623.0 432.0,625.0 432.0,626.0 C 429.0,629.0 428.0,629.0 426.0,631.0 C 425.0,631.0 424.0,632.0 421.0,632.0 C 420.0,633.0 409.0,633.0 408.0,632.0 C 407.0,632.0 402.0,627.0 402.0,620.0 C 403.0,619.0 403.0,618.0 404.0,617.0 C 404.0,616.0 405.0,615.0 405.0,614.0 C 414.0,605.0 415.0,605.0 416.0,604.0 C 416.0,602.0 417.0,601.0 415.0,601.0 C 412.0,598.0 412.0,592.0 396.0,592.0 C 396.0,593.0 395.0,594.0 395.0,596.0 C 394.0,597.0 394.0,598.0 393.0,599.0 C 391.0,599.0 391.0,600.0 390.0,601.0 C 390.0,603.0 392.0,603.0 394.0,605.0 C 394.0,613.0 393.0,614.0 393.0,617.0 C 388.0,622.0 384.0,622.0 383.0,623.0 C 372.0,623.0 371.0,624.0 357.0,624.0 C 356.0,623.0 346.0,623.0 345.0,622.0 C 343.0,622.0 342.0,621.0 341.0,621.0 C 337.0,617.0 337.0,614.0 338.0,613.0 C 338.0,612.0 341.0,609.0 342.0,609.0 C 343.0,608.0 345.0,608.0 346.0,607.0 C 349.0,607.0 350.0,606.0 353.0,606.0 C 354.0,605.0 355.0,605.0 356.0,604.0 C 359.0,604.0 359.0,603.0 360.0,602.0 C 362.0,602.0 363.0,603.0 363.0,602.0 C 364.0,601.0 366.0,601.0 367.0,602.0 C 372.0,602.0 372.0,599.0 370.0,599.0 Z" fill="rgb(59415,36465,20145)" stroke="none" stroke-width="0" /><path d="M 421.0,602.0 C 421.0,604.0 420.0,605.0 420.0,606.0 C 421.0,606.0 422.0,607.0 429.0,607.0 C 429.0,602.0 428.0,603.0 427.0,602.0 Z" fill="rgb(64770,42840,36210)" stroke="none" stroke-width="0" /><path d="M 376.0,600.0 C 376.0,604.0 379.0,604.0 380.0,605.0 C 381.0,604.0 386.0,604.0 386.0,600.0 Z" fill="rgb(64770,42840,36210)" stroke="none" stroke-width="0" /><path d="M 430.0,442.0 C 430.0,446.0 429.0,447.0 429.0,448.0 C 425.0,452.0 424.0,452.0 423.0,453.0 C 422.0,453.0 421.0,454.0 420.0,454.0 C 419.0,455.0 418.0,455.0 416.0,457.0 C 415.0,457.0 414.0,458.0 413.0,458.0 C 410.0,461.0 410.0,462.0 408.0,464.0 C 409.0,465.0 412.0,465.0 413.0,464.0 C 414.0,464.0 415.0,463.0 417.0,463.0 C 419.0,465.0 418.0,466.0 418.0,467.0 C 417.0,468.0 417.0,474.0 418.0,474.0 C 419.0,475.0 420.0,475.0 421.0,474.0 C 421.0,473.0 423.0,471.0 424.0,471.0 C 425.0,472.0 425.0,475.0 429.0,475.0 C 430.0,474.0 430.0,472.0 431.0,471.0 C 433.0,471.0 434.0,472.0 434.0,475.0 C 436.0,475.0 437.0,474.0 438.0,474.0 C 438.0,473.0 439.0,472.0 439.0,471.0 C 440.0,470.0 440.0,469.0 441.0,468.0 C 440.0,467.0 441.0,466.0 441.0,454.0 C 440.0,453.0 440.0,452.0 439.0,451.0 C 439.0,446.0 440.0,445.0 440.0,443.0 Z" fill="rgb(64770,42840,36210)" stroke="none" stroke-width="0" /><path d="M 237.0,337.0 C 236.0,338.0 234.0,338.0 233.0,339.0 C 235.0,341.0 236.0,341.0 237.0,342.0 C 238.0,341.0 240.0,341.0 241.0,340.0 C 242.0,340.0 242.0,338.0 241.0,337.0 Z" fill="rgb(64770,42840,36210)" stroke="none" stroke-width="0" /><path d="M 243.0,325.0 C 243.0,330.0 242.0,331.0 242.0,332.0 C 241.0,333.0 242.0,333.0 243.0,334.0 C 244.0,334.0 245.0,335.0 244.0,334.0 C 244.0,327.0 245.0,326.0 245.0,325.0 Z" fill="rgb(64770,42840,36210)" stroke="none" stroke-width="0" /><path d="M 232.0,324.0 C 231.0,325.0 231.0,328.0 232.0,329.0 C 234.0,329.0 235.0,328.0 237.0,328.0 C 238.0,327.0 238.0,326.0 237.0,325.0 Z" fill="rgb(64770,42840,36210)" stroke="none" stroke-width="0" /><path d="M 247.0,314.0 C 246.0,315.0 245.0,315.0 244.0,316.0 C 243.0,316.0 242.0,317.0 242.0,318.0 C 241.0,319.0 241.0,320.0 242.0,320.0 C 243.0,321.0 244.0,320.0 251.0,320.0 C 252.0,321.0 252.0,322.0 250.0,324.0 C 250.0,325.0 249.0,326.0 249.0,328.0 C 248.0,329.0 248.0,332.0 249.0,333.0 C 249.0,335.0 250.0,336.0 250.0,337.0 C 251.0,338.0 251.0,340.0 250.0,341.0 C 248.0,341.0 247.0,340.0 247.0,339.0 C 246.0,340.0 246.0,341.0 245.0,342.0 C 245.0,343.0 246.0,343.0 247.0,344.0 C 250.0,344.0 251.0,345.0 256.0,345.0 C 258.0,347.0 259.0,347.0 260.0,348.0 C 260.0,349.0 266.0,355.0 267.0,355.0 C 270.0,358.0 275.0,353.0 276.0,353.0 C 280.0,349.0 279.0,348.0 278.0,348.0 C 277.0,347.0 276.0,347.0 273.0,344.0 C 272.0,344.0 265.0,337.0 265.0,336.0 C 264.0,335.0 264.0,334.0 263.0,333.0 C 263.0,332.0 262.0,331.0 262.0,329.0 C 261.0,328.0 262.0,327.0 261.0,326.0 C 261.0,325.0 262.0,324.0 261.0,323.0 C 261.0,321.0 260.0,320.0 260.0,319.0 C 256.0,315.0 253.0,315.0 252.0,314.0 Z" fill="rgb(64770,42840,36210)" stroke="none" stroke-width="0" /><path d="M 232.0,314.0 C 231.0,315.0 231.0,318.0 233.0,320.0 C 237.0,320.0 237.0,318.0 238.0,317.0 C 238.0,315.0 236.0,315.0 235.0,314.0 Z" fill="rgb(64770,42840,36210)" stroke="none" stroke-width="0" /><path d="M 339.0,211.0 C 339.0,220.0 338.0,221.0 338.0,225.0 C 337.0,226.0 337.0,228.0 336.0,229.0 C 336.0,230.0 335.0,231.0 335.0,232.0 C 334.0,233.0 334.0,234.0 339.0,234.0 C 341.0,236.0 341.0,237.0 339.0,239.0 C 336.0,239.0 335.0,238.0 333.0,238.0 C 329.0,234.0 329.0,233.0 331.0,231.0 C 331.0,230.0 332.0,229.0 332.0,228.0 C 333.0,227.0 333.0,226.0 331.0,228.0 C 327.0,228.0 326.0,229.0 325.0,228.0 C 317.0,228.0 317.0,230.0 318.0,231.0 C 318.0,235.0 319.0,236.0 319.0,239.0 C 320.0,240.0 320.0,242.0 321.0,243.0 C 321.0,244.0 322.0,245.0 322.0,247.0 C 323.0,248.0 323.0,249.0 324.0,250.0 C 324.0,251.0 325.0,252.0 325.0,253.0 C 327.0,255.0 327.0,256.0 329.0,258.0 C 329.0,259.0 336.0,266.0 337.0,266.0 C 340.0,269.0 341.0,269.0 342.0,270.0 C 343.0,270.0 345.0,272.0 346.0,272.0 C 347.0,273.0 348.0,273.0 349.0,274.0 C 350.0,274.0 351.0,275.0 352.0,275.0 C 353.0,276.0 354.0,276.0 355.0,277.0 C 356.0,277.0 358.0,279.0 359.0,279.0 C 360.0,280.0 361.0,280.0 363.0,282.0 C 364.0,282.0 372.0,290.0 372.0,291.0 C 373.0,292.0 373.0,293.0 374.0,294.0 C 374.0,295.0 375.0,296.0 375.0,299.0 C 376.0,300.0 376.0,303.0 377.0,304.0 C 377.0,321.0 376.0,322.0 376.0,327.0 C 375.0,328.0 375.0,335.0 374.0,336.0 C 375.0,337.0 375.0,339.0 376.0,340.0 C 376.0,342.0 377.0,343.0 377.0,344.0 C 377.0,343.0 378.0,342.0 378.0,341.0 C 380.0,339.0 380.0,338.0 381.0,337.0 C 381.0,336.0 382.0,335.0 382.0,334.0 C 383.0,333.0 383.0,331.0 384.0,330.0 C 384.0,327.0 385.0,326.0 385.0,325.0 C 386.0,324.0 386.0,323.0 390.0,319.0 C 391.0,319.0 393.0,317.0 394.0,317.0 C 396.0,315.0 397.0,315.0 399.0,313.0 C 400.0,313.0 402.0,311.0 403.0,311.0 C 404.0,310.0 405.0,310.0 405.0,309.0 C 406.0,308.0 405.0,307.0 405.0,305.0 C 404.0,304.0 404.0,302.0 403.0,301.0 C 403.0,299.0 402.0,298.0 402.0,294.0 C 401.0,293.0 401.0,287.0 400.0,286.0 C 400.0,263.0 401.0,262.0 401.0,259.0 C 402.0,258.0 402.0,255.0 403.0,254.0 C 403.0,251.0 404.0,250.0 404.0,247.0 C 405.0,246.0 405.0,243.0 406.0,242.0 C 406.0,237.0 406.0,238.0 405.0,239.0 C 404.0,239.0 403.0,240.0 398.0,240.0 C 395.0,237.0 395.0,235.0 394.0,234.0 C 396.0,232.0 397.0,232.0 399.0,234.0 C 399.0,235.0 400.0,236.0 402.0,236.0 C 403.0,235.0 403.0,234.0 404.0,233.0 C 404.0,232.0 405.0,231.0 405.0,229.0 C 406.0,228.0 406.0,222.0 405.0,222.0 C 404.0,223.0 404.0,224.0 403.0,225.0 C 403.0,226.0 402.0,227.0 400.0,227.0 C 399.0,226.0 399.0,224.0 400.0,223.0 C 400.0,222.0 404.0,218.0 405.0,218.0 C 407.0,220.0 406.0,219.0 406.0,218.0 C 405.0,217.0 405.0,216.0 403.0,214.0 C 400.0,217.0 398.0,217.0 397.0,216.0 C 397.0,215.0 398.0,214.0 398.0,213.0 C 393.0,213.0 392.0,212.0 383.0,212.0 C 382.0,211.0 377.0,211.0 377.0,219.0 C 376.0,220.0 376.0,223.0 375.0,224.0 C 375.0,225.0 370.0,230.0 369.0,230.0 C 368.0,231.0 361.0,231.0 360.0,230.0 C 353.0,230.0 352.0,229.0 349.0,229.0 C 348.0,228.0 347.0,228.0 346.0,227.0 C 345.0,227.0 344.0,226.0 344.0,225.0 C 342.0,223.0 342.0,222.0 341.0,221.0 Z" fill="rgb(64770,42840,36210)" stroke="none" stroke-width="0" /><path d="M 318.0,176.0 C 318.0,179.0 317.0,180.0 317.0,186.0 C 316.0,187.0 316.0,195.0 330.0,195.0 C 331.0,196.0 332.0,196.0 333.0,197.0 C 334.0,197.0 336.0,199.0 336.0,200.0 C 338.0,202.0 338.0,203.0 339.0,204.0 C 339.0,205.0 341.0,205.0 342.0,206.0 C 343.0,205.0 343.0,204.0 344.0,203.0 C 344.0,202.0 347.0,199.0 348.0,199.0 C 349.0,198.0 350.0,198.0 351.0,197.0 C 356.0,197.0 357.0,198.0 366.0,198.0 C 367.0,199.0 370.0,199.0 371.0,200.0 C 372.0,200.0 375.0,203.0 375.0,204.0 C 376.0,205.0 376.0,206.0 377.0,207.0 C 384.0,207.0 385.0,208.0 392.0,208.0 C 391.0,208.0 389.0,206.0 388.0,206.0 C 387.0,205.0 387.0,204.0 386.0,204.0 C 384.0,202.0 384.0,201.0 380.0,197.0 C 380.0,196.0 378.0,194.0 367.0,194.0 C 366.0,195.0 365.0,194.0 364.0,195.0 C 363.0,194.0 362.0,195.0 361.0,195.0 C 360.0,194.0 359.0,195.0 358.0,194.0 C 357.0,195.0 356.0,194.0 355.0,195.0 C 354.0,194.0 347.0,194.0 346.0,193.0 C 342.0,193.0 341.0,192.0 339.0,192.0 C 338.0,191.0 337.0,191.0 336.0,190.0 C 334.0,190.0 333.0,189.0 332.0,189.0 C 330.0,187.0 329.0,187.0 324.0,182.0 C 323.0,182.0 322.0,181.0 322.0,180.0 Z" fill="rgb(64770,42840,36210)" stroke="none" stroke-width="0" /><path d="M 207.0,265.0 C 206.0,266.0 206.0,267.0 205.0,268.0 C 205.0,271.0 204.0,272.0 204.0,273.0 C 205.0,274.0 205.0,277.0 206.0,278.0 C 206.0,279.0 207.0,280.0 207.0,283.0 C 208.0,284.0 208.0,287.0 207.0,288.0 C 207.0,290.0 206.0,291.0 206.0,293.0 C 206.0,292.0 207.0,291.0 207.0,289.0 C 208.0,288.0 208.0,283.0 207.0,282.0 C 207.0,279.0 206.0,278.0 206.0,276.0 C 205.0,275.0 205.0,269.0 206.0,268.0 Z" fill="rgb(16320,3570,14535)" stroke="none" stroke-width="0" /><path d="M 197.0,256.0 C 196.0,257.0 196.0,259.0 195.0,260.0 C 195.0,263.0 194.0,264.0 194.0,268.0 C 195.0,269.0 195.0,271.0 196.0,272.0 C 196.0,274.0 197.0,275.0 197.0,277.0 C 198.0,278.0 198.0,282.0 197.0,283.0 C 197.0,284.0 198.0,283.0 198.0,276.0 C 197.0,275.0 197.0,274.0 196.0,273.0 C 196.0,272.0 195.0,271.0 195.0,261.0 C 196.0,260.0 196.0,258.0 197.0,257.0 Z" fill="rgb(16320,3570,14535)" stroke="none" stroke-width="0" /><path d="M 355.0,167.0 C 356.0,168.0 358.0,168.0 359.0,169.0 C 363.0,169.0 364.0,170.0 372.0,170.0 C 373.0,169.0 366.0,169.0 365.0,168.0 Z" fill="rgb(16320,3570,14535)" stroke="none" stroke-width="0" /><path d="M 330.0,129.0 C 332.0,131.0 332.0,132.0 334.0,134.0 C 334.0,135.0 338.0,139.0 336.0,141.0 C 323.0,141.0 322.0,140.0 322.0,139.0 C 318.0,135.0 318.0,134.0 317.0,133.0 C 318.0,134.0 318.0,135.0 319.0,136.0 C 319.0,137.0 321.0,139.0 321.0,140.0 C 320.0,141.0 318.0,141.0 317.0,142.0 C 315.0,142.0 313.0,144.0 312.0,144.0 C 312.0,145.0 310.0,147.0 310.0,148.0 C 309.0,149.0 309.0,153.0 308.0,154.0 C 309.0,155.0 309.0,158.0 310.0,159.0 C 310.0,161.0 311.0,162.0 311.0,163.0 C 312.0,164.0 312.0,166.0 314.0,168.0 C 314.0,169.0 316.0,171.0 316.0,174.0 C 315.0,175.0 315.0,180.0 314.0,181.0 C 314.0,188.0 313.0,189.0 313.0,195.0 C 312.0,196.0 311.0,196.0 310.0,197.0 C 308.0,197.0 307.0,198.0 306.0,198.0 C 303.0,201.0 303.0,202.0 302.0,203.0 C 302.0,206.0 301.0,207.0 301.0,217.0 C 302.0,218.0 302.0,220.0 304.0,222.0 C 304.0,223.0 305.0,223.0 307.0,225.0 C 309.0,225.0 310.0,226.0 312.0,226.0 C 313.0,227.0 313.0,228.0 314.0,229.0 C 314.0,234.0 315.0,235.0 315.0,238.0 C 316.0,239.0 316.0,242.0 317.0,243.0 C 317.0,245.0 318.0,246.0 318.0,248.0 C 319.0,249.0 319.0,250.0 320.0,251.0 C 320.0,253.0 321.0,254.0 321.0,255.0 C 323.0,257.0 323.0,258.0 325.0,260.0 C 325.0,261.0 329.0,265.0 329.0,266.0 C 330.0,266.0 334.0,270.0 335.0,270.0 C 337.0,272.0 338.0,272.0 339.0,273.0 C 340.0,273.0 341.0,274.0 342.0,274.0 C 343.0,275.0 344.0,275.0 345.0,276.0 C 346.0,276.0 347.0,277.0 348.0,277.0 C 349.0,278.0 350.0,278.0 351.0,279.0 C 352.0,279.0 353.0,280.0 354.0,280.0 C 355.0,281.0 356.0,281.0 357.0,282.0 C 358.0,282.0 360.0,284.0 361.0,284.0 C 368.0,291.0 368.0,292.0 369.0,293.0 C 369.0,294.0 370.0,295.0 370.0,297.0 C 371.0,298.0 371.0,299.0 370.0,300.0 C 370.0,301.0 369.0,302.0 369.0,303.0 C 368.0,304.0 368.0,305.0 367.0,306.0 C 367.0,308.0 366.0,309.0 366.0,312.0 C 365.0,313.0 365.0,320.0 366.0,321.0 C 366.0,325.0 364.0,327.0 363.0,327.0 C 359.0,331.0 359.0,332.0 358.0,333.0 C 358.0,334.0 357.0,335.0 357.0,336.0 C 356.0,337.0 356.0,339.0 355.0,340.0 C 355.0,342.0 354.0,343.0 354.0,348.0 C 353.0,349.0 353.0,350.0 350.0,353.0 C 350.0,354.0 347.0,357.0 346.0,357.0 C 342.0,361.0 341.0,361.0 340.0,362.0 C 339.0,362.0 338.0,363.0 337.0,363.0 C 336.0,364.0 335.0,364.0 334.0,365.0 C 331.0,365.0 330.0,366.0 326.0,366.0 C 325.0,367.0 320.0,367.0 319.0,366.0 C 315.0,366.0 314.0,365.0 312.0,365.0 C 311.0,364.0 310.0,364.0 309.0,363.0 C 308.0,363.0 307.0,362.0 306.0,362.0 C 302.0,358.0 303.0,357.0 304.0,357.0 C 305.0,356.0 305.0,355.0 304.0,354.0 C 303.0,354.0 301.0,352.0 300.0,352.0 C 297.0,349.0 296.0,349.0 292.0,345.0 C 291.0,345.0 290.0,344.0 289.0,344.0 C 286.0,347.0 285.0,347.0 284.0,348.0 C 283.0,348.0 282.0,347.0 281.0,347.0 C 280.0,346.0 279.0,346.0 277.0,344.0 C 276.0,344.0 273.0,341.0 272.0,341.0 C 267.0,336.0 267.0,335.0 265.0,333.0 C 265.0,331.0 264.0,330.0 264.0,326.0 C 265.0,325.0 265.0,323.0 264.0,322.0 C 264.0,320.0 263.0,319.0 263.0,318.0 C 259.0,314.0 258.0,314.0 257.0,313.0 C 256.0,313.0 255.0,312.0 245.0,312.0 C 244.0,313.0 243.0,313.0 242.0,314.0 C 241.0,314.0 240.0,313.0 240.0,311.0 C 239.0,310.0 239.0,309.0 238.0,308.0 C 237.0,308.0 236.0,307.0 235.0,307.0 C 234.0,306.0 230.0,306.0 228.0,304.0 C 228.0,299.0 227.0,298.0 227.0,297.0 C 183.0,297.0 183.0,298.0 182.0,299.0 C 182.0,305.0 181.0,306.0 181.0,316.0 C 182.0,317.0 182.0,323.0 183.0,324.0 C 183.0,327.0 184.0,328.0 184.0,331.0 C 185.0,332.0 185.0,333.0 186.0,334.0 C 186.0,335.0 187.0,336.0 187.0,337.0 C 189.0,339.0 189.0,340.0 193.0,344.0 C 217.0,344.0 221.0,340.0 221.0,339.0 C 223.0,337.0 230.0,337.0 231.0,338.0 C 231.0,340.0 232.0,341.0 232.0,342.0 C 233.0,343.0 235.0,343.0 237.0,345.0 C 237.0,346.0 238.0,346.0 240.0,348.0 C 241.0,348.0 242.0,349.0 243.0,349.0 C 244.0,350.0 247.0,350.0 248.0,351.0 C 249.0,351.0 250.0,350.0 256.0,350.0 C 264.0,358.0 265.0,358.0 267.0,360.0 C 268.0,360.0 269.0,361.0 269.0,362.0 C 268.0,363.0 268.0,364.0 267.0,365.0 C 268.0,366.0 268.0,367.0 275.0,374.0 C 276.0,374.0 277.0,375.0 278.0,375.0 C 279.0,376.0 283.0,376.0 288.0,381.0 C 289.0,381.0 292.0,384.0 293.0,384.0 C 294.0,385.0 295.0,385.0 297.0,387.0 C 298.0,387.0 299.0,388.0 300.0,388.0 C 301.0,389.0 303.0,389.0 304.0,390.0 C 305.0,390.0 306.0,391.0 309.0,391.0 C 310.0,392.0 313.0,392.0 314.0,393.0 C 333.0,393.0 334.0,392.0 337.0,392.0 C 338.0,391.0 340.0,391.0 341.0,390.0 C 343.0,390.0 344.0,389.0 345.0,389.0 C 346.0,388.0 347.0,388.0 348.0,387.0 C 349.0,387.0 350.0,386.0 351.0,386.0 C 353.0,384.0 354.0,384.0 356.0,382.0 C 357.0,382.0 362.0,377.0 363.0,377.0 C 365.0,379.0 365.0,382.0 366.0,383.0 C 366.0,387.0 367.0,388.0 367.0,394.0 C 368.0,395.0 368.0,406.0 369.0,407.0 C 368.0,408.0 369.0,409.0 369.0,433.0 C 368.0,434.0 369.0,435.0 368.0,436.0 C 368.0,444.0 367.0,445.0 367.0,449.0 C 366.0,450.0 366.0,453.0 365.0,454.0 C 365.0,457.0 364.0,458.0 364.0,461.0 C 365.0,462.0 366.0,462.0 368.0,464.0 C 368.0,466.0 367.0,467.0 367.0,482.0 C 366.0,483.0 366.0,501.0 365.0,502.0 C 365.0,547.0 366.0,548.0 366.0,563.0 C 367.0,564.0 367.0,574.0 368.0,575.0 C 368.0,583.0 369.0,584.0 369.0,590.0 C 370.0,591.0 370.0,596.0 371.0,597.0 C 373.0,597.0 374.0,598.0 374.0,604.0 C 373.0,605.0 372.0,605.0 371.0,604.0 C 367.0,604.0 366.0,603.0 365.0,603.0 C 365.0,604.0 364.0,605.0 363.0,605.0 C 362.0,604.0 361.0,604.0 361.0,605.0 C 360.0,606.0 356.0,606.0 355.0,607.0 C 354.0,607.0 353.0,608.0 350.0,608.0 C 349.0,609.0 347.0,609.0 346.0,610.0 C 344.0,610.0 343.0,611.0 342.0,611.0 C 341.0,612.0 340.0,612.0 340.0,613.0 C 339.0,614.0 339.0,617.0 341.0,619.0 C 342.0,619.0 343.0,620.0 345.0,620.0 C 346.0,621.0 381.0,621.0 382.0,620.0 C 387.0,620.0 388.0,619.0 389.0,619.0 C 391.0,617.0 391.0,614.0 392.0,613.0 C 392.0,605.0 389.0,605.0 388.0,604.0 C 388.0,599.0 389.0,598.0 390.0,598.0 C 391.0,597.0 392.0,597.0 393.0,596.0 C 393.0,594.0 394.0,593.0 394.0,587.0 C 395.0,586.0 395.0,571.0 396.0,570.0 C 396.0,548.0 397.0,547.0 397.0,493.0 C 398.0,492.0 401.0,492.0 402.0,493.0 C 403.0,493.0 405.0,495.0 406.0,495.0 C 407.0,496.0 407.0,498.0 408.0,499.0 C 408.0,506.0 409.0,507.0 409.0,515.0 C 410.0,516.0 410.0,528.0 411.0,529.0 C 411.0,542.0 412.0,543.0 412.0,560.0 C 413.0,561.0 413.0,562.0 412.0,563.0 C 413.0,564.0 413.0,580.0 414.0,581.0 C 414.0,598.0 415.0,599.0 417.0,599.0 C 419.0,601.0 419.0,602.0 418.0,603.0 C 418.0,605.0 417.0,606.0 416.0,606.0 C 414.0,608.0 413.0,608.0 408.0,613.0 C 408.0,614.0 406.0,616.0 406.0,617.0 C 405.0,618.0 405.0,619.0 404.0,620.0 C 404.0,627.0 407.0,630.0 408.0,630.0 C 409.0,631.0 420.0,631.0 421.0,630.0 C 423.0,630.0 424.0,629.0 426.0,629.0 C 428.0,627.0 429.0,627.0 429.0,626.0 C 431.0,624.0 431.0,623.0 432.0,622.0 C 432.0,621.0 433.0,620.0 433.0,617.0 C 434.0,616.0 434.0,612.0 433.0,611.0 C 433.0,607.0 431.0,605.0 431.0,601.0 C 432.0,600.0 435.0,600.0 436.0,599.0 C 436.0,597.0 437.0,596.0 437.0,588.0 C 438.0,587.0 438.0,578.0 439.0,577.0 C 439.0,557.0 440.0,556.0 439.0,555.0 C 440.0,554.0 440.0,531.0 441.0,530.0 C 441.0,476.0 442.0,475.0 443.0,475.0 C 444.0,476.0 459.0,476.0 460.0,475.0 C 462.0,475.0 463.0,474.0 464.0,474.0 C 465.0,473.0 465.0,472.0 466.0,471.0 C 466.0,470.0 467.0,469.0 467.0,464.0 C 468.0,463.0 468.0,453.0 469.0,452.0 C 469.0,433.0 468.0,432.0 468.0,431.0 C 465.0,428.0 463.0,428.0 462.0,427.0 C 458.0,427.0 457.0,426.0 456.0,426.0 C 455.0,425.0 453.0,425.0 452.0,424.0 C 453.0,423.0 453.0,418.0 454.0,417.0 C 454.0,411.0 455.0,410.0 455.0,388.0 C 454.0,387.0 454.0,380.0 453.0,379.0 C 453.0,375.0 452.0,374.0 452.0,371.0 C 451.0,370.0 451.0,367.0 450.0,366.0 C 450.0,364.0 449.0,363.0 449.0,361.0 C 448.0,360.0 448.0,358.0 447.0,357.0 C 447.0,356.0 446.0,355.0 446.0,354.0 C 445.0,353.0 445.0,352.0 444.0,351.0 C 444.0,350.0 443.0,349.0 443.0,348.0 C 442.0,347.0 442.0,346.0 440.0,344.0 C 441.0,343.0 443.0,343.0 447.0,339.0 C 447.0,336.0 448.0,335.0 448.0,329.0 C 447.0,328.0 447.0,324.0 446.0,323.0 C 446.0,321.0 445.0,320.0 445.0,319.0 C 444.0,318.0 444.0,317.0 442.0,315.0 C 442.0,314.0 435.0,307.0 434.0,307.0 C 432.0,305.0 431.0,305.0 429.0,303.0 C 428.0,303.0 422.0,297.0 421.0,297.0 C 418.0,294.0 417.0,294.0 416.0,293.0 C 414.0,293.0 413.0,292.0 412.0,292.0 C 411.0,293.0 409.0,293.0 408.0,294.0 C 407.0,294.0 406.0,293.0 406.0,290.0 C 405.0,289.0 405.0,284.0 404.0,283.0 C 404.0,266.0 405.0,265.0 405.0,260.0 C 406.0,259.0 406.0,256.0 407.0,255.0 C 407.0,252.0 408.0,251.0 408.0,249.0 C 410.0,247.0 411.0,247.0 412.0,248.0 C 412.0,249.0 415.0,252.0 419.0,252.0 C 420.0,251.0 421.0,251.0 426.0,246.0 C 426.0,245.0 428.0,243.0 428.0,242.0 C 430.0,240.0 430.0,239.0 431.0,238.0 C 431.0,237.0 432.0,236.0 432.0,235.0 C 433.0,234.0 433.0,232.0 434.0,231.0 C 434.0,230.0 435.0,229.0 435.0,226.0 C 436.0,225.0 436.0,222.0 437.0,221.0 C 437.0,218.0 438.0,217.0 438.0,209.0 C 439.0,208.0 439.0,205.0 438.0,204.0 C 438.0,196.0 437.0,195.0 437.0,192.0 C 436.0,191.0 436.0,188.0 435.0,187.0 C 435.0,184.0 434.0,183.0 434.0,182.0 C 433.0,181.0 433.0,180.0 432.0,179.0 C 432.0,177.0 431.0,176.0 431.0,175.0 C 429.0,173.0 429.0,172.0 426.0,169.0 C 426.0,168.0 424.0,166.0 423.0,166.0 C 421.0,164.0 421.0,163.0 420.0,162.0 C 420.0,159.0 419.0,158.0 419.0,157.0 C 418.0,156.0 418.0,155.0 417.0,154.0 C 417.0,153.0 416.0,152.0 416.0,151.0 C 412.0,147.0 412.0,146.0 410.0,144.0 C 409.0,144.0 405.0,140.0 404.0,140.0 C 402.0,138.0 401.0,138.0 400.0,137.0 C 399.0,137.0 398.0,136.0 397.0,136.0 C 396.0,135.0 395.0,135.0 394.0,134.0 C 393.0,134.0 392.0,133.0 390.0,133.0 C 389.0,132.0 387.0,132.0 386.0,131.0 C 383.0,131.0 382.0,130.0 375.0,130.0 C 374.0,129.0 367.0,129.0 366.0,130.0 C 360.0,130.0 359.0,131.0 357.0,131.0 C 356.0,132.0 354.0,132.0 353.0,133.0 C 352.0,133.0 351.0,134.0 350.0,134.0 C 349.0,135.0 348.0,135.0 346.0,137.0 C 345.0,137.0 344.0,138.0 345.0,138.0 C 346.0,137.0 347.0,137.0 349.0,135.0 C 350.0,135.0 351.0,134.0 352.0,134.0 C 353.0,133.0 354.0,133.0 355.0,132.0 C 356.0,132.0 357.0,131.0 361.0,131.0 C 362.0,130.0 379.0,130.0 380.0,131.0 C 385.0,131.0 386.0,132.0 388.0,132.0 C 389.0,133.0 391.0,133.0 392.0,134.0 C 393.0,134.0 394.0,135.0 396.0,135.0 C 398.0,137.0 399.0,137.0 400.0,138.0 C 401.0,138.0 403.0,140.0 404.0,140.0 C 413.0,149.0 413.0,150.0 416.0,153.0 C 416.0,154.0 417.0,155.0 417.0,156.0 C 418.0,157.0 418.0,158.0 419.0,159.0 C 419.0,160.0 420.0,161.0 420.0,164.0 C 421.0,165.0 421.0,166.0 422.0,166.0 C 427.0,171.0 427.0,172.0 429.0,174.0 C 429.0,175.0 430.0,176.0 430.0,177.0 C 432.0,179.0 432.0,181.0 433.0,182.0 C 433.0,184.0 434.0,185.0 434.0,186.0 C 435.0,187.0 434.0,188.0 435.0,189.0 C 435.0,190.0 436.0,191.0 436.0,195.0 C 437.0,196.0 437.0,202.0 438.0,203.0 C 437.0,204.0 438.0,205.0 437.0,206.0 C 438.0,207.0 437.0,208.0 438.0,209.0 C 437.0,210.0 438.0,211.0 437.0,212.0 C 437.0,216.0 436.0,217.0 437.0,218.0 C 436.0,219.0 436.0,221.0 435.0,222.0 C 436.0,223.0 435.0,224.0 435.0,225.0 C 434.0,226.0 434.0,228.0 433.0,229.0 C 433.0,231.0 432.0,232.0 432.0,233.0 C 431.0,234.0 431.0,235.0 430.0,236.0 C 430.0,237.0 429.0,238.0 429.0,239.0 C 428.0,240.0 428.0,241.0 425.0,244.0 C 425.0,245.0 420.0,250.0 419.0,250.0 C 418.0,251.0 416.0,251.0 411.0,246.0 C 411.0,244.0 410.0,243.0 410.0,242.0 C 409.0,241.0 409.0,237.0 408.0,236.0 C 408.0,231.0 409.0,230.0 409.0,227.0 C 410.0,226.0 410.0,216.0 409.0,215.0 C 409.0,214.0 408.0,213.0 408.0,212.0 C 407.0,211.0 403.0,211.0 401.0,209.0 C 400.0,209.0 389.0,198.0 389.0,197.0 C 388.0,196.0 388.0,195.0 387.0,194.0 C 387.0,190.0 388.0,189.0 388.0,187.0 C 389.0,186.0 389.0,185.0 390.0,184.0 C 390.0,183.0 393.0,180.0 394.0,180.0 C 395.0,179.0 401.0,179.0 401.0,178.0 C 395.0,178.0 394.0,179.0 392.0,179.0 C 388.0,183.0 388.0,184.0 387.0,185.0 C 386.0,185.0 385.0,184.0 384.0,185.0 C 380.0,185.0 379.0,186.0 378.0,185.0 C 377.0,186.0 374.0,186.0 373.0,187.0 C 370.0,187.0 369.0,188.0 368.0,187.0 C 367.0,188.0 363.0,188.0 362.0,189.0 C 361.0,188.0 360.0,189.0 348.0,189.0 C 347.0,188.0 346.0,189.0 345.0,188.0 C 343.0,188.0 342.0,187.0 340.0,187.0 C 339.0,186.0 337.0,186.0 336.0,185.0 C 335.0,185.0 334.0,184.0 333.0,184.0 C 331.0,182.0 330.0,182.0 329.0,181.0 C 328.0,181.0 326.0,179.0 325.0,179.0 C 319.0,173.0 318.0,173.0 317.0,172.0 C 317.0,171.0 314.0,168.0 314.0,167.0 C 312.0,165.0 312.0,164.0 311.0,163.0 C 311.0,161.0 310.0,160.0 310.0,158.0 C 309.0,157.0 309.0,150.0 310.0,149.0 C 310.0,148.0 312.0,146.0 312.0,145.0 C 313.0,144.0 314.0,144.0 316.0,142.0 C 318.0,142.0 319.0,141.0 322.0,141.0 C 325.0,144.0 325.0,145.0 336.0,156.0 C 337.0,156.0 340.0,159.0 341.0,159.0 C 342.0,160.0 343.0,160.0 345.0,162.0 C 346.0,162.0 347.0,163.0 349.0,163.0 C 350.0,164.0 348.0,162.0 347.0,162.0 C 345.0,160.0 344.0,160.0 342.0,158.0 C 341.0,158.0 337.0,154.0 336.0,154.0 C 329.0,147.0 329.0,146.0 328.0,146.0 C 325.0,143.0 326.0,142.0 332.0,142.0 C 333.0,141.0 337.0,141.0 338.0,140.0 C 339.0,140.0 342.0,143.0 342.0,144.0 C 343.0,144.0 347.0,148.0 348.0,148.0 C 350.0,150.0 351.0,150.0 353.0,152.0 C 354.0,152.0 355.0,153.0 356.0,153.0 C 357.0,154.0 358.0,154.0 359.0,155.0 C 360.0,155.0 361.0,156.0 363.0,156.0 C 364.0,157.0 366.0,157.0 367.0,158.0 C 369.0,158.0 370.0,159.0 373.0,159.0 C 374.0,160.0 380.0,160.0 381.0,161.0 C 382.0,160.0 383.0,161.0 384.0,160.0 C 385.0,161.0 386.0,161.0 387.0,160.0 C 389.0,160.0 381.0,160.0 380.0,159.0 C 375.0,159.0 374.0,158.0 371.0,158.0 C 370.0,157.0 367.0,157.0 366.0,156.0 C 365.0,156.0 364.0,155.0 362.0,155.0 C 361.0,154.0 360.0,154.0 359.0,153.0 C 358.0,153.0 357.0,152.0 356.0,152.0 C 355.0,151.0 354.0,151.0 352.0,149.0 C 351.0,149.0 349.0,147.0 348.0,147.0 C 344.0,143.0 343.0,143.0 333.0,133.0 Z" fill="rgb(16320,3570,14535)" stroke="none" stroke-width="0" /><path d="M 416.0,564.0 C 416.0,571.0 415.0,572.0 415.0,579.0 C 416.0,580.0 416.0,594.0 416.0,580.0 C 415.0,579.0 415.0,577.0 416.0,576.0 Z" fill="rgb(53805,57375,59415)" stroke="none" stroke-width="0" /><path d="M 367.0,535.0 C 367.0,546.0 368.0,547.0 368.0,549.0 Z" fill="rgb(53805,57375,59415)" stroke="none" stroke-width="0" /></svg>