<?xml version="1.0" encoding="utf-8" ?>
<svg baseProfile="full" height="265" version="1.1" width="506" xmlns="http://www.w3.org/2000/svg" xmlns:ev="http://www.w3.org/2001/xml-events" xmlns:xlink="http://www.w3.org/1999/xlink"><defs /><path d="M 0.0,0.0 C 2.0,0.0 2.0,160.0 -26.0,160.0 Z" fill="rgb(221,57,13)" stroke="none" stroke-width="0.0" /><path d="M 0.0,0.0 C 2.0,1.0 2.0,109.0 -26.0,109.0 C -26.0,18.0 -25.0,10.0 -13.0,5.0 Z" fill="rgb(221,56,13)" stroke="none" stroke-width="0.0" /><path d="M 0.0,0.0 C 3.0,0.0 3.0,102.0 -25.0,102.0 Z" fill="rgb(220,57,13)" stroke="none" stroke-width="0.0" /><path d="M 0.0,0.0 C 1.0,0.0 1.0,95.0 -26.0,95.0 Z" fill="rgb(221,57,13)" stroke="none" stroke-width="0.0" /><path d="M 0.0,0.0 C 16.0,0.0 21.0,3.0 22.0,7.0 C 17.0,6.0 17.0,4.0 5.0,4.0 C -1.0,5.0 -2.0,10.0 16.0,11.0 C 21.0,14.0 22.0,20.0 20.0,24.0 C 15.0,26.0 -1.0,26.0 -6.0,23.0 C -6.0,19.0 -2.0,19.0 -2.0,22.0 C 11.0,22.0 17.0,20.0 17.0,15.0 C -3.0,14.0 -6.0,12.0 -6.0,4.0 Z" fill="rgb(0,0,0)" stroke="none" stroke-width="0.0" /><path d="M 0.0,0.0 C 25.0,0.0 28.0,2.0 29.0,8.0 C 27.0,14.0 28.0,15.0 28.0,24.0 C 24.0,24.0 23.0,16.0 4.0,15.0 C 4.0,24.0 0.0,24.0 4.0,3.0 C 4.0,12.0 20.0,12.0 24.0,11.0 Z" fill="rgb(0,0,0)" stroke="none" stroke-width="0.0" /><path d="M 0.0,0.0 C 25.0,0.0 28.0,2.0 28.0,12.0 C 27.0,14.0 28.0,16.0 28.0,24.0 C 24.0,24.0 23.0,16.0 3.0,15.0 C 3.0,24.0 0.0,24.0 3.0,3.0 C 3.0,12.0 20.0,12.0 24.0,11.0 Z" fill="rgb(0,0,0)" stroke="none" stroke-width="0.0" /><path d="M 0.0,0.0 C 25.0,0.0 25.0,3.0 4.0,3.0 C 4.0,10.0 24.0,10.0 24.0,13.0 C 4.0,13.0 4.0,21.0 25.0,21.0 Z" fill="rgb(0,0,0)" stroke="none" stroke-width="0.0" /><path d="M 0.0,0.0 C 25.0,0.0 25.0,3.0 4.0,3.0 C 4.0,10.0 24.0,10.0 24.0,13.0 C 4.0,13.0 4.0,21.0 25.0,21.0 Z" fill="rgb(0,0,0)" stroke="none" stroke-width="0.0" /><path d="M 0.0,0.0 C 25.0,0.0 29.0,3.0 29.0,21.0 C 25.0,24.0 0.0,24.0 3.0,3.0 C 3.0,21.0 23.0,21.0 25.0,20.0 C 26.0,17.0 26.0,8.0 25.0,4.0 Z" fill="rgb(0,0,0)" stroke="none" stroke-width="0.0" /><path d="M 0.0,0.0 C 18.0,0.0 23.0,3.0 24.0,9.0 C 20.0,9.0 19.0,5.0 15.0,4.0 C -1.0,4.0 -1.0,22.0 15.0,22.0 C 19.0,21.0 20.0,17.0 24.0,17.0 C 23.0,23.0 18.0,26.0 0.0,26.0 C -5.0,23.0 -6.0,20.0 -6.0,6.0 Z" fill="rgb(0,0,0)" stroke="none" stroke-width="0.0" /><path d="M 0.0,0.0 C 28.0,0.0 28.0,3.0 16.0,3.0 C 16.0,24.0 12.0,24.0 12.0,3.0 Z" fill="rgb(0,0,0)" stroke="none" stroke-width="0.0" /><path d="M 0.0,0.0 C 4.0,1.0 5.0,7.0 7.0,7.0 C 8.0,1.0 12.0,0.0 12.0,12.0 C 8.0,11.0 4.0,11.0 3.0,8.0 Z" fill="rgb(0,0,0)" stroke="none" stroke-width="0.0" /><path d="M 0.0,0.0 C 3.0,0.0 6.0,6.0 8.0,0.0 C 11.0,0.0 11.0,12.0 9.0,12.0 C 8.0,10.0 7.0,12.0 4.0,12.0 C 3.0,10.0 2.0,12.0 0.0,12.0 Z" fill="rgb(0,0,0)" stroke="none" stroke-width="0.0" /><path d="M 0.0,0.0 C 6.0,0.0 9.0,4.0 8.0,11.0 C 5.0,13.0 -1.0,12.0 -3.0,9.0 C -3.0,3.0 1.0,2.0 -1.0,7.0 C 1.0,10.0 6.0,9.0 6.0,3.0 Z" fill="rgb(0,0,0)" stroke="none" stroke-width="0.0" /><path d="M 0.0,0.0 C 8.0,0.0 10.0,1.0 10.0,12.0 C 7.0,11.0 7.0,8.0 2.0,8.0 C 2.0,12.0 0.0,12.0 2.0,2.0 C 2.0,5.0 8.0,5.0 7.0,2.0 Z" fill="rgb(0,0,0)" stroke="none" stroke-width="0.0" /><path d="M 0.0,0.0 C 9.0,0.0 9.0,2.0 3.0,2.0 C 3.0,5.0 9.0,5.0 9.0,7.0 C 3.0,7.0 3.0,10.0 10.0,10.0 Z" fill="rgb(0,0,0)" stroke="none" stroke-width="0.0" /><path d="M 0.0,0.0 C 9.0,0.0 9.0,2.0 3.0,2.0 C 3.0,5.0 9.0,5.0 9.0,7.0 C 3.0,7.0 3.0,10.0 10.0,10.0 Z" fill="rgb(0,0,0)" stroke="none" stroke-width="0.0" /><path d="M 0.0,0.0 C 7.0,0.0 10.0,3.0 10.0,10.0 C 8.0,12.0 0.0,12.0 2.0,2.0 C 2.0,10.0 7.0,9.0 8.0,5.0 Z" fill="rgb(0,0,0)" stroke="none" stroke-width="0.0" /><path d="M 0.0,0.0 C 6.0,0.0 8.0,4.0 5.0,4.0 C 5.0,2.0 0.0,3.0 1.0,9.0 C 8.0,8.0 7.0,12.0 1.0,13.0 Z" fill="rgb(0,0,0)" stroke="none" stroke-width="0.0" /><path d="M 0.0,0.0 C 6.0,0.0 8.0,4.0 0.0,3.0 C 1.0,9.0 8.0,8.0 7.0,12.0 C 2.0,13.0 -2.0,11.0 -3.0,4.0 Z" fill="rgb(0,0,0)" stroke="none" stroke-width="0.0" /><path d="M 0.0,0.0 C 9.0,0.0 9.0,2.0 2.0,2.0 C 2.0,5.0 8.0,5.0 8.0,7.0 C 2.0,7.0 2.0,10.0 9.0,10.0 Z" fill="rgb(0,0,0)" stroke="none" stroke-width="0.0" /><path d="M 0.0,0.0 C 8.0,0.0 9.0,1.0 9.0,7.0 C 2.0,8.0 2.0,12.0 0.0,12.0 C 2.0,2.0 2.0,6.0 7.0,5.0 Z" fill="rgb(0,0,0)" stroke="none" stroke-width="0.0" /><path d="M 0.0,0.0 C 3.0,1.0 5.0,7.0 8.0,0.0 C 11.0,0.0 8.0,10.0 7.0,12.0 Z" fill="rgb(0,0,0)" stroke="none" stroke-width="0.0" /><path d="M 0.0,0.0 C 10.0,0.0 10.0,2.0 6.0,2.0 C 6.0,12.0 4.0,12.0 4.0,2.0 Z" fill="rgb(0,0,0)" stroke="none" stroke-width="0.0" /><path d="M 0.0,0.0 C 10.0,0.0 10.0,2.0 6.0,2.0 C 6.0,12.0 4.0,12.0 4.0,2.0 Z" fill="rgb(0,0,0)" stroke="none" stroke-width="0.0" /><path d="M 0.0,0.0 C 2.0,0.0 2.0,10.0 8.0,10.0 Z" fill="rgb(0,0,0)" stroke="none" stroke-width="0.0" /><path d="M 0.0,0.0 C 6.0,0.0 6.0,2.0 0.0,2.0 Z" fill="rgb(0,0,0)" stroke="none" stroke-width="0.0" /><path d="M 0.0,0.0 C 2.0,0.0 2.0,2.0 0.0,2.0 Z" fill="rgb(0,0,0)" stroke="none" stroke-width="0.0" /><path d="M 0.0,0.0 C 2.0,0.0 2.0,2.0 0.0,2.0 Z" fill="rgb(0,0,0)" stroke="none" stroke-width="0.0" /></svg>