<?xml version="1.0" encoding="UTF-8"?>
<!-- Generator: visioncortex VTracer 0.6.4 -->
<svg version="1.1" xmlns="http://www.w3.org/2000/svg" width="506" height="265">
<path d="M0 0 C0.6599999999999966 0 1.3199999999999932 0 2 0 C2 52.800000000000004 2 105.60000000000001 2 160 C-7.240000000000009 160 -16.47999999999999 160 -26 160 C-26.22143859879725 143.87834089455822 -26.22143859879725 143.87834089455822 -26.282150268554688 138.88563537597656 C-26.284320938875908 138.7075770205725 -26.2864916091971 138.52951866516844 -26.288728057406843 138.34606460202485 C-26.36169902435438 132.34400747336002 -26.41941587764569 126.34190386223442 -26.465774536132813 120.33958435058594 C-26.46729316390119 120.14346360829659 -26.468811791669566 119.94734286600723 -26.470376438461244 119.74527907092124 C-26.503309542803294 115.48155937569743 -26.533779937461958 111.2178253988266 -26.561718624085188 106.95407012477517 C-26.575437588115847 104.86268747066943 -26.589699920105403 102.77130867957194 -26.604248046875 100.679931640625 C-26.605686396518735 100.47183049510232 -26.60712474616244 100.26372934957966 -26.608606682159007 100.04932210873812 C-26.655362552593374 93.32142821980602 -26.737891711362607 86.59456024090922 -26.839269428513944 79.86728620994836 C-26.943384954403598 72.94565232453556 -27.010820211869827 66.02458445454907 -27.033064890885726 59.1021808560472 C-27.036233916948532 58.12124452066707 -27.039815901242946 57.140310095370296 -27.043649673461914 56.15937614440918 C-27.04439132656435 55.96634188419674 -27.045132979666818 55.773307623984294 -27.045897107105702 55.57442384073511 C-27.058825365404743 52.48460829882537 -27.109635850243677 49.39655913342901 -27.17515237350017 46.30746018793434 C-27.24043118618303 43.19053201374688 -27.26452656623809 40.075327369725336 -27.248515151441097 36.957741625607014 C-27.24095121350601 35.271518446446954 -27.25156173053935 33.59101258309694 -27.311260223388672 31.905406951904297 C-27.427951419435374 28.43966202434934 -27.546408951475314 24.86339021188283 -26.627538442611694 21.489333391189575 C-26.331348687519665 20.661874266913244 -26.00686240204638 20.009961851758565 -25.507533818483353 19.28510817885399 C-22.975782321106323 16.24046378088966 -19.665964777694768 14.00406515698144 -16.357252717018127 11.885764002799988 C-14.547248612981889 10.72381448273299 -12.868580562449864 9.403394547079406 -11.179381929337978 8.075182981789112 C-10.094466471988596 7.23362114716328 -8.980156113686519 6.430940399326227 -7.871337890625 5.621337890625 C-7.064011965663809 5.031736945163488 -6.262386513435388 4.434796154753198 -5.461600303649902 3.8363561630249023 C-4.8248815365437 3.3620854568860707 -4.185028098733653 2.8922005001343316 -3.544160842895508 2.423555374145508 C-3.246045329125991 2.2045792144572287 -2.949007537845091 1.9841266216083147 -2.6531810760498047 1.7620677947998047 C-2.2486292095127 1.4591519943170312 -1.8391248792515853 1.1628846494519394 -1.429443359375 0.866943359375 C-1.2005894470214855 0.6986753845214844 -0.971735534667971 0.5304074096679687 -0.7359466552734375 0.3570404052734375 C-0.4930842590331963 0.23921707153320312 -0.2502218627929551 0.12139373779296875 0 0 Z " fill="#DD390D" transform="translate(246,0)"/>
<path d="M0 0 C0.5329563617706299 0.1671125292778015 0.5329563617706299 0.1671125292778015 1.0687884092330933 0.4516372084617615 C1.2134502303600243 0.6105296611785889 1.3581120514869554 0.7694221138954163 1.507157564163208 0.9331294894218445 C1.8280200800984971 2.329640298037681 1.768158183478306 3.727183979726064 1.747666597366333 5.153481662273407 C1.748538329025223 5.599825643358047 1.7502887200145096 6.046168633825722 1.7528449296951294 6.492506146430969 C1.7573293612128396 7.721747081836092 1.7493010122289547 8.950641277348776 1.7392888069152832 10.179838001728058 C1.7306717250327779 11.504304596065456 1.7335732087555584 12.8287507917669 1.735093355178833 14.153237521648407 C1.7361433316934836 16.448878756463742 1.7298552424950344 18.744406523029596 1.7186176776885986 21.04001921415329 C1.7023805911644558 24.359091451910388 1.6971565413326744 27.67810868484426 1.6946416944265366 30.99721633642912 C1.6902617465300978 36.381891038655105 1.676944599973865 41.76650523134897 1.658036470413208 47.151147067546844 C1.639685373328632 52.382589294323004 1.625525129176026 57.614015100652864 1.617020845413208 62.845483005046844 C1.6164953984319936 63.16781580395997 1.615969951450836 63.49014860287309 1.6154285818338394 63.82224906235933 C1.612818553775469 65.4392580197668 1.6102911265534203 67.05626709372672 1.607804775238037 68.67327624559402 C1.5870629371456744 82.09328106591376 1.5501882775849936 95.51317399512625 1.507157564163208 108.93312948942184 C-7.732842435836801 108.93312948942184 -16.97284243583681 108.93312948942184 -26.492842435836792 108.93312948942184 C-26.514942531656743 97.47643981634783 -26.53338553872311 86.01977046308525 -26.543907765299082 74.56306552886963 C-26.545158274442542 73.20643967614583 -26.546452615982048 71.84981386854938 -26.547774076461792 70.49318808317184 C-26.548036386892193 70.2231406223774 -26.548298697322593 69.95309316158294 -26.548568956553936 69.67486244440079 C-26.55290462627653 65.31858778155818 -26.560780461451884 60.962326493594205 -26.56999523192644 56.60605973005295 C-26.579390521619985 52.12665277810593 -26.5849104072841 47.64725276693815 -26.58693093061447 43.167836368083954 C-26.588294033807756 40.41013311998838 -26.592578091116934 37.65246769368517 -26.600758902728558 34.89477610588074 C-26.606099076343412 32.9964098298231 -26.60763046160986 31.098062725531207 -26.606343813240528 29.199689507484436 C-26.605711613851668 28.109079100660395 -26.606587615407364 27.0185341408732 -26.612047910690308 25.927935779094696 C-26.630839052928536 21.939139289173895 -26.595583898483596 17.958958560165183 -26.18137811869383 13.987870991230011 C-26.14594271343816 13.64197536298991 -26.113638458882747 13.29574155199279 -26.084799475967884 12.949233591556549 C-25.993561043994532 11.897716343871583 -25.8625275457797 10.924156598123155 -25.492842435836792 9.933129489421844 C-24.961280953096036 9.3353063677759 -24.451888841546122 8.936774095514984 -23.77469104528427 8.514994204044342 C-23.12257124994221 8.180183377987092 -22.50429106407148 7.902230820670425 -21.797041654586792 7.7051021456718445 C-21.544042997360236 7.629953830242158 -21.29104434013368 7.554805514812468 -21.030379056930542 7.4773799777030945 C-20.77049197196959 7.400902316570281 -20.51060488700864 7.324424655437468 -20.242842435836792 7.2456294894218445 C-19.709322415206714 7.061868335495387 -19.17693728632929 6.874782637218111 -18.645674467086792 6.6845943331718445 C-17.52214458178281 6.286362210851035 -16.394487950575297 5.9062496735502314 -15.261397123336792 5.5361568331718445 C-13.433832409897946 4.927941469228468 -11.656515185744752 4.21611374272619 -9.875654935836792 3.4839107394218445 C-9.283606487559553 3.2430875879706402 -8.691484871229932 3.0024442318745788 -8.099287748336792 2.7619869112968445 C-7.237444965910925 2.411980231517024 -6.375885857981189 2.061439436559109 -5.515669584274292 1.7074519991874695 C-4.716659902261313 1.3815617398974478 -3.9142308578445864 1.0662613531122123 -3.110029935836792 0.7534419894218445 C-2.8740610027313096 0.6548136019706732 -2.638092069625827 0.5561852145195001 -2.394972562789917 0.454568088054657 C-2.1731631755828857 0.37031073331832864 -1.9513537883758545 0.2860533785820003 -1.722822904586792 0.19924277067184448 C-1.5325149822235176 0.12327872037887566 -1.3422070598602431 0.04731467008590684 -1.146132230758667 -0.030951321125030518 C-0.492842435836792 -0.06687051057815552 -0.492842435836792 -0.06687051057815552 0 0 Z " fill="#DD380D" transform="translate(322.4928424358368,9.066870510578156)"/>
<path d="M0 0 C0 33.66 0 67.32000000000001 0 102 C-9.240000000000009 102 -18.480000000000018 102 -28 102 C-28.554472931120984 91.17088774462326 -29.0144591875802 80.35543076994524 -29.276633236557245 69.51612242683768 C-29.307889739239045 68.22857824592309 -29.340248843132542 66.94106398634501 -29.373291015625 65.653564453125 C-29.379848776385188 65.39731562443077 -29.386406537145376 65.14106679573655 -29.3931630179286 64.87705285102129 C-29.487783603631215 61.26922353475517 -29.641955065195305 57.66819493083375 -29.843361422419548 54.06481321156025 C-30.1891580499331 47.876469654414535 -30.426446182446654 41.69480833451567 -30.44140625 35.49609375 C-30.44217180788516 35.25815154969692 -30.442937365770348 35.02020934939384 -30.443726122379303 34.77505677938461 C-30.465616574961246 21.821683040792124 -30.465616574961246 21.821683040792124 -28.42883014678955 16.01491069793701 C-27.829708806919598 14.493974645172088 -26.942626876347674 13.215196863413574 -25.867544792592525 11.991731621325016 C-23.19933523568136 9.113247575034187 -19.933920883567282 6.971129930264752 -16.47225069999695 5.16625714302063 C-12.952421323288945 3.3967794039872814 -9.371583722050445 1.8543406807229488 -5.6107025146484375 0.6717681884765625 C-5.390179062485686 0.6011998647451406 -5.169655610322934 0.5306315410137188 -4.942449629306793 0.4579247832298279 C-3.164989950449808 -0.06028098057908693 -1.9810248019054484 0 0 0 Z " fill="#DC390D" transform="translate(286,43)"/>
<path d="M0 0 C0.3299999999999841 0 0.6599999999999966 0 1 0 C1 31.349999999999994 1 62.7 1 95 C-7.909999999999997 95 -16.819999999999993 95 -26 95 C-26.176622415855803 84.89346156963501 -26.324224542425128 74.78838695819738 -26.40852263569832 64.68074502423406 C-26.41852738239166 63.485484200007974 -26.428882047833696 62.290226646321344 -26.439453125 61.094970703125 C-26.441551608443262 60.85703307352961 -26.443650091886525 60.6190954439342 -26.445812165737152 60.37394758313894 C-26.480553645130158 56.52923051724656 -26.543586037089568 52.68547772600009 -26.617222368717194 48.84133134037256 C-26.692238744601383 44.891974181099215 -26.736511033146712 40.9431191430009 -26.752707958221436 36.993078887462616 C-26.76266945712362 34.775912792303274 -26.786673784462153 32.56076915803965 -26.845840454101563 30.344324111938477 C-27.151547654350026 18.545436824788844 -27.151547654350026 18.545436824788844 -26 15 C-25.549292962971805 14.154703777955746 -25.03816224406907 13.516837140925475 -24.330429077148438 12.873458862304688 C-23.037186831149853 11.849841475911916 -21.594428789909784 11.193731388711456 -20.046234130859375 10.648269653320313 C-19.689250532495834 10.535625422180104 -19.331683483399104 10.42481045084206 -18.973506927490234 10.316019058227539 C-17.676092512030692 9.918494033570376 -16.59351576212606 9.239347949475643 -15.455322265625 8.514404296875 C-15.096767295400667 8.309748273552017 -14.736646308127433 8.107807575309664 -14.374893188476563 7.9088592529296875 C-14.202073841094972 7.8133345603942885 -14.029254493713381 7.71780986785889 -13.851198196411133 7.619390487670898 C-13.586476182937616 7.473280477523801 -13.586476182937616 7.473280477523801 -13.31640625 7.32421875 C-12.926603510795076 7.107284321786288 -12.536870614100536 6.890224356270124 -12.147201538085938 6.6730499267578125 C-11.352546949447913 6.2307779610705865 -10.557107903531914 5.789967254796771 -9.760986328125 5.350341796875 C-8.741769192507917 4.787356597053744 -7.724811464385027 4.220412866599965 -6.708359718322754 3.6524534225463867 C-5.913976647018075 3.209130399013702 -5.118490620338008 2.767818980023584 -4.32264518737793 2.327127456665039 C-3.9463234255991324 2.118428610196432 -3.570346792094483 1.9091061034236532 -3.194734573364258 1.6991329193115234 C-2.6772395148590533 1.410230017730946 -2.1583199879854362 1.1240760230586204 -1.638916015625 0.838623046875 C-1.4106915283203136 0.7101448059082003 -1.4106915283203136 0.7101448059082003 -1.1778564453125 0.579071044921875 C-0.793616172455188 0.36986519327705025 -0.39724483036061997 0.18331453952066568 0 0 Z " fill="#DD390D" transform="translate(209,42)"/>
<path d="M0 0 C0.25129354476928256 -0.004241065979016412 0.25129354476928256 -0.004241065979016412 0.5076637268066406 -0.00856781005859375 C1.3952609490692112 -0.023435042357732527 2.282701127652217 -0.0327408420041877 3.17041015625 -0.037109375 C3.8922820406085066 -0.04148337429930393 4.61295054340485 -0.05533146052601978 5.33447265625 -0.078125 C10.99441162561044 -0.2532605419667391 10.99441162561044 -0.2532605419667391 13.210662841796875 0.475250244140625 C14.56305957335951 1.0696493337393065 15.846632014724719 1.7949759429186827 16.978500366210938 2.7494659423828125 C17.3828125 3.203125 17.3828125 3.203125 17.682754516601563 3.7557830810546875 C18.127727972322646 4.897538548495078 18.314667496696188 5.982709940831711 18.3828125 7.203125 C17.546643455870253 7.093711391034077 16.715205018157178 6.963107570511966 15.8828125 6.828125 C15.525097656250011 6.78171875000001 15.525097656250011 6.78171875000001 15.16015625 6.734375 C14.9345703125 6.695703124999994 14.708984375 6.657031249999989 14.4765625 6.6171875 C14.162353515625 6.570056152343739 14.162353515625 6.570056152343739 13.841796875 6.52197265625 C13.690332031250023 6.4167529296875045 13.538867187499989 6.311533203125009 13.3828125 6.203125 C13.284592651715059 5.512639466556834 13.333484122421055 4.906054380500336 13.3828125 4.203125 C9.381822335983259 4.138279845191789 5.3837809593943575 4.131909786169047 1.3828125 4.203125 C1.084888000488263 4.207354736328114 1.084888000488263 4.207354736328114 0.78094482421875 4.211669921875 C0.2822549211202272 4.220023753868048 -0.21631765247246904 4.234731206813848 -0.71484375 4.25 C-0.9727368164062682 4.257412109374997 -1.2306298828124795 4.264824218749993 -1.496337890625 4.2724609375 C-2.4075879489807335 4.405666926096842 -3.251235012361235 4.546654776329575 -4.1167755126953125 4.867340087890625 C-4.281911468505882 4.978149108886726 -4.447047424316395 5.088958129882826 -4.6171875 5.203125 C-4.939042187931079 5.8219935382473125 -5.059866683757377 6.3649678150771365 -5.1759033203125 7.0518798828125 C-5.204222412109402 7.283548583984384 -5.232541503906248 7.51521728515624 -5.26171875 7.75390625 C-5.298980712890625 7.988717041015633 -5.33624267578125 8.223527832031237 -5.3746337890625 8.4654541015625 C-5.465045369788697 9.04394120750976 -5.54541901820221 9.62208053437854 -5.6171875 10.203125 C-5.402785186767574 10.208991241455067 -5.188382873535147 10.214857482910162 -4.9674835205078125 10.220901489257813 C-2.9228170550828736 10.279393906115644 -0.8791788635819557 10.35176497209656 1.1644773483276367 10.43883991241455 C2.2146317404183264 10.483118269877394 3.2644366261623077 10.522451121249532 4.315185546875 10.549560546875 C10.870580884740207 10.724087931199705 10.870580884740207 10.724087931199705 13.261322021484375 11.481414794921875 C14.649178549131989 12.065375695998057 15.877952123119542 12.783419840403695 16.998016357421875 13.794097900390625 C17.3828125 14.203125 17.3828125 14.203125 17.885009765625 14.946044921875 C18.17578041874009 15.70896313062508 18.27701841787433 16.327123851910102 18.3203125 17.140625 C18.346254882812502 17.400048828124994 18.372197265625005 17.65947265624999 18.39892578125 17.9267578125 C18.486620357731 19.300923311921167 18.383198960862728 20.56815947572241 18.031005859375 21.897705078125 C17.598670416629545 22.77667123741537 17.074049612720387 23.507509305692622 16.3828125 24.203125 C15.139308839698742 25.091701927332338 13.650498956720014 25.59054617086514 12.19512939453125 26.01885986328125 C9.665299800259902 26.592723830905044 7.026455545306931 26.537150032090608 4.4443359375 26.518798828125 C3.7360100447855302 26.514152731935724 3.0293952133484936 26.52113544711071 2.3212890625 26.539306640625 C-3.1831887139480273 26.679190015142098 -3.1831887139480273 26.679190015142098 -5.446624755859375 25.927764892578125 C-6.80422968596713 25.334600092908147 -8.122874826838824 24.621767357052562 -9.250335693359375 23.65277099609375 C-9.6171875 23.203125 -9.6171875 23.203125 -9.820220947265625 22.67779541015625 C-10.046055638870428 21.40858076655786 -9.846266181846147 20.53178135470779 -9.6171875 19.203125 C-8.297187500000007 19.203125 -6.977187500000014 19.203125 -5.6171875 19.203125 C-5.6171875 20.19312500000001 -5.6171875 21.18312499999999 -5.6171875 22.203125 C-3.8756915876436437 22.253457251802217 -2.1346401106324038 22.28926739364607 -0.392578125 22.31298828125 C0.19701530992426797 22.32290010146835 0.7865616262770345 22.336434169680928 1.3759765625 22.35400390625 C4.848001660329032 22.45472818383206 8.235035481225395 22.348102442450113 11.564407348632813 21.262680053710938 C12.260810844338494 20.968931552696773 12.798703130489855 20.682854616846328 13.3828125 20.203125 C13.833244679353243 19.575895771800447 14.07978604509924 19.050728893650984 14.290359497070313 18.308212280273438 C14.377032489785734 17.570549922501954 14.37442116622151 17.014572873007154 14.20556640625 16.29052734375 C13.926630488716967 15.664201454477308 13.926630488716967 15.664201454477308 13.3828125 15.203125 C10.555800065851827 14.20809858375037 7.242329934647785 14.495185304734463 4.28643798828125 14.5128173828125 C2.4276357041837855 14.52010493970917 0.5694234876351061 14.488495879643125 -1.2889156341552734 14.450368881225586 C-1.9356975750896481 14.441589779808595 -2.58120469261155 14.44679045071905 -3.2279815673828125 14.453933715820313 C-4.37006276331266 14.452252407043176 -5.4964679354039845 14.442498287950627 -6.6171875 14.203125 C-7.546870828545309 13.862576364525978 -8.3061505365107 13.364086298723436 -9.086776733398438 12.754043579101563 C-9.349330062866215 12.481338882446295 -9.349330062866215 12.481338882446295 -9.6171875 12.203125 C-9.809338378906261 11.750784912109367 -9.809338378906261 11.750784912109367 -10.00537109375 11.289306640625 C-10.008754882812525 10.983718261718764 -10.012138671874993 10.678129882812499 -10.015625 10.36328125 C-10.019718780517564 10.196428222656237 -10.023812561035129 10.029575195312503 -10.028030395507813 9.857666015625 C-10.034038864431011 9.32507036203188 -10.015451883636388 8.797688393852354 -9.9921875 8.265625 C-9.988531799316434 8.085710144042963 -9.98487609863281 7.905795288085926 -9.981109619140625 7.720428466796875 C-9.952339806768236 6.523027534608929 -9.85120148245818 5.378996911856035 -9.6171875 4.203125 C-9.366378179899527 3.5758655327807674 -9.11746872965142 3.135312050674628 -8.68408203125 2.620849609375 C-8.039126869788106 2.0169823249946432 -7.417034426577231 1.565334682710187 -6.6171875 1.203125 C-4.4058907006043455 0.28640466742274384 -2.3805260509134882 0.03173332891574887 0 0 Z " fill="#000000" transform="translate(356.6171875,186.796875)"/>
<path d="M0 0 C6.118821690774382 -0.08021761867001942 6.118821690774382 -0.08021761867001942 8.740234375 -0.09765625 C10.524454680720282 -0.1095820861984862 12.308468440890238 -0.12364320895741798 14.092529296875 -0.15087890625 C15.531981812193294 -0.17271460687766194 16.971212662586083 -0.18459050337554572 18.410818099975586 -0.18975448608398438 C18.958218120721938 -0.19343133493561027 19.505606900021746 -0.20061143152457817 20.05291175842285 -0.21146011352539063 C23.496680823938902 -0.276967016600679 23.496680823938902 -0.276967016600679 25 0 C25.94155788975803 0.3301200982541559 26.69825921091035 0.8347381931579037 27.489471435546875 1.442718505859375 C28 2 28 2 28.355865478515625 2.6709747314453125 C28.60818354196141 3.369249906487994 28.72172319336562 4.013404156804398 28.8125 4.75 C28.85181640625001 5.008054199218748 28.891132812500018 5.2661083984374955 28.931640625 5.531982421875 C29.057394522387483 6.6878703286951975 29.06155824290073 7.707050224880589 28.82177734375 8.84814453125 C28.497095607759377 9.954111706902495 28.12297796147567 11.020900866703869 27.675048828125 12.0830078125 C27.576032714843734 12.319873046874989 27.477016601562525 12.556738281250006 27.375 12.80078125 C27.279609375000007 13.008723144531245 27.184218750000014 13.216665039062491 27.0859375 13.430908203125 C27.043398437500002 13.712608642578118 27.043398437500002 13.712608642578118 27 14 C27.15525146484373 14.14711425781249 27.310502929687516 14.294228515625008 27.470458984375 14.44580078125 C27.645207519531255 14.628686523437494 27.81995605468751 14.811572265624989 28 15 C28.087275124056134 15.722412801058056 28.117039050199992 16.346481775450457 28.09765625 17.06640625 C28.096241302490228 17.2647557067871 28.094826354980455 17.463105163574227 28.093368530273438 17.667465209960938 C28.087782866579687 18.299298683328118 28.075235439079904 18.930774163377095 28.0625 19.5625 C28.057483036133647 19.991531329345662 28.052920467094054 20.42056822986035 28.048828125 20.849609375 C28.038670753430495 21.899881595285507 28.019716029200538 22.949869597984076 28 24 C26.961294153026188 24.165338540588266 25.9503714902429 24.288966823700292 24.897430419921875 24.24560546875 C24.60127838134764 24.164555664062505 24.305126342773463 24.08350585937501 24 24 C23.730255126953125 23.26611328125 23.730255126953125 23.26611328125 23.726806640625 22.28515625 C23.750169411756872 21.734992048510634 23.781910688777316 21.186332985153342 23.819608688354492 20.636962890625 C23.882639865135502 19.34597465889385 23.79278627717821 18.080836106484867 23.44512939453125 16.83251953125 C23.224790344238272 16.42042236328126 23.224790344238272 16.42042236328126 23 16 C22.31406484547631 15.599097497363545 21.901521175565392 15.412173340812132 21.15185546875 15.24609375 C18.837248084086355 14.854357407928603 16.461605296245466 14.92592640743618 14.1236572265625 14.98712158203125 C12.78353291782696 15.012274244292712 11.443765754176354 14.9781720139313 10.103797912597656 14.953994750976563 C8.065877651256017 14.9238727566391 6.041992131656002 14.969031398951188 4 15 C4 17.97 4 20.939999999999998 4 24 C2.680000000000007 24 1.3600000000000136 24 0 24 C0 16.079999999999984 0 8.159999999999997 0 0 Z M4 3 C4 5.969999999999999 4 8.939999999999998 4 12 C6.015360096121697 12.021090977750106 8.03031014314007 12.041110489397681 10.045684814453125 12.051750183105469 C10.984607162569262 12.056985949609413 11.923436190951634 12.063957037620725 12.8623046875 12.075439453125 C13.770071877888995 12.086469413947441 14.67774978325275 12.092318219030375 15.585578918457031 12.094877243041992 C16.09286957490798 12.097568680251413 16.600125329953414 12.105347202972325 17.10736083984375 12.113296508789063 C18.856635031421035 12.11370935907658 20.501003110760507 11.966050760446933 22.202880859375 11.57763671875 C22.373244819641116 11.541628885269176 22.54360877990723 11.505621051788324 22.719135284423828 11.468522071838379 C23.264039690025754 11.34293532830128 23.264039690025754 11.34293532830128 24 11 C24.45319473803943 10.367382523931354 24.45319473803943 10.367382523931354 24.64453125 9.66015625 C24.765861462240593 8.873765552838734 24.765861462240593 8.873765552838734 24.8125 8.0625 C24.850527343750002 7.797597656249991 24.888554687500005 7.53269531250001 24.927734375 7.259765625 C25.020422525654908 6.465014035341966 25.089077470756536 5.7965925106908 25 5 C24.82498420104764 4.443685042487687 24.60853563287867 3.951230734285531 24.339261054992676 3.4337263107299805 C24.22730490684512 3.2905966281890926 24.115348758697507 3.1474669456482047 24 3 C23.240854661769617 2.7924108044415163 22.81040373688205 2.743160344207638 22.050537109375 2.77294921875 C21.855319671630866 2.7726571655273347 21.660102233886732 2.7723651123046977 21.458969116210938 2.772064208984375 C20.814639111769452 2.77345612376223 20.17147107056985 2.788999720709171 19.52734375 2.8046875 C19.080374472712208 2.808418400261587 18.633397008945167 2.811265016237286 18.186416625976563 2.813262939453125 C17.01074585804065 2.820894334441249 15.835570434789418 2.840535390860282 14.66009521484375 2.8626708984375 C13.249328489699394 2.8867417556449766 11.8383959714389 2.895912998344045 10.427482604980469 2.9075775146484375 C8.28464405389974 2.9269636690646905 6.142891950786975 2.9652816785651055 4 3 Z " fill="#000000" transform="translate(264,188)"/>
<path d="M0 0 C6.118821690774368 -0.08021761867001942 6.118821690774368 -0.08021761867001942 8.740234375 -0.09765625 C10.524454680720268 -0.1095820861984862 12.308468440890266 -0.12364320895741798 14.092529296875 -0.15087890625 C15.531981812193308 -0.17271460687766194 16.971212662586055 -0.18459050337554572 18.410818099975586 -0.18975448608398438 C18.958218120721952 -0.19343133493561027 19.50560690002176 -0.20061143152457817 20.05291175842285 -0.21146011352539063 C24.090991771013535 -0.2882719179648632 24.090991771013535 -0.2882719179648632 25.531604766845703 0.16858673095703125 C26.27977848514594 0.4935789786042335 26.882692018542514 0.9029498188955074 27.512496948242188 1.418487548828125 C28 2 28 2 28.252517700195313 2.552459716796875 C28.365747630876612 3.1634790784559925 28.365984774089554 3.6926620020184373 28.328125 4.3125 C28.325315246582022 4.6340808105468625 28.325315246582022 4.6340808105468625 28.32244873046875 4.962158203125 C28.31576437800028 5.412757374434705 28.301917985215184 5.863302009531878 28.28125 6.3134765625 C28.25006362725938 6.998602188645691 28.24027828805994 7.681422203703676 28.234375 8.3671875 C28.22520224849164 8.807319349667324 28.214825521358264 9.247428094214428 28.203125 9.6875 C28.196750183105465 9.990711669921865 28.196750183105465 9.990711669921865 28.19024658203125 10.300048828125 C28.16130672362219 10.883214276820809 28.116278963541475 11.427517943400233 28 12 C27.75407966353127 12.546154366881467 27.48500532673785 13.050372245343254 27.169265747070313 13.559112548828125 C27.113408050537117 13.704605407714837 27.057550354003908 13.850098266601549 27 14 C27.231462537908726 14.462925075817452 27.468398102278243 14.924282280141824 27.73779296875 15.3662109375 C28 16 28 16 28.08642578125 16.9072265625 C28.11095342137287 17.98013378110312 28.08745739994717 19.05230269661007 28.0625 20.125 C28.057476235792393 20.501296144840097 28.0529148700886 20.877598762241746 28.048828125 21.25390625 C28.03874539370304 22.169418251764682 28.019798410582993 23.084648666914887 28 24 C26.9605811193354 24.16524328547075 25.94886568726264 24.28900079574737 24.895233154296875 24.24560546875 C24.599806213378912 24.164555664062505 24.304379272460935 24.08350585937501 24 24 C23.738311767578125 23.26611328125 23.738311767578125 23.26611328125 23.744384765625 22.28515625 C23.772109350279976 21.735040299238364 23.807533506526283 21.18626701099481 23.848310470581055 20.636962890625 C23.91718784214737 19.343729159696153 23.82931986001151 18.079784081144624 23.46661376953125 16.83251953125 C23.312631225585932 16.55778808593749 23.158648681640628 16.283056640625006 23 16 C22.121491686449886 15.511112781864881 21.44447510451647 15.308277616379542 20.4642276763916 15.1505126953125 C18.205213806203147 14.89317254112413 15.928972409914707 14.930731640716829 13.66009521484375 14.98712158203125 C12.24906131363339 15.012269664906114 10.838367817077227 14.978173484500331 9.427482604980469 14.953994750976563 C7.28183307064748 14.923873325599857 5.149519441952336 14.969043824418321 3 15 C3 17.97 3 20.939999999999998 3 24 C2.010000000000005 24 1.019999999999996 24 0 24 C0 16.079999999999984 0 8.159999999999997 0 0 Z M3 3 C3 5.969999999999999 3 8.939999999999998 3 12 C5.923818695351429 12.02917666738324 5.923818695351429 12.02917666738324 8.84765625 12.048828125 C10.043503235723307 12.05476258035685 11.239272318363135 12.061714680447096 12.43505859375 12.075439453125 C13.401179929676985 12.086456427933086 14.367217516161844 12.092315644164813 15.333396911621094 12.094877243041992 C15.698527683086382 12.096698222593545 16.063654862831584 12.10025232350236 16.428749084472656 12.105730056762695 C18.408369113857347 12.134198774250933 20.279076053691256 12.020609225058223 22.21435546875 11.57763671875 C22.3836015701294 11.541628885269176 22.552847671508786 11.505621051788324 22.727222442626953 11.468522071838379 C23.268227731583494 11.342726759422078 23.268227731583494 11.342726759422078 24 11 C24.467832414443222 10.368020151618055 24.467832414443222 10.368020151618055 24.6796875 9.66015625 C24.814791457981528 8.874104897733986 24.814791457981528 8.874104897733986 24.875 8.0625 C24.944609375 7.665146484374986 24.944609375 7.665146484374986 25.015625 7.259765625 C25.079992598970136 6.760916732981514 25.14139559609606 6.261668921450138 25.19873046875 5.761962890625 C25.038074260687438 5.017128275205778 25.038074260687438 5.017128275205778 24.706634521484375 4.469970703125 C24.286152592551446 3.899583656596178 24.286152592551446 3.899583656596178 23.722991943359375 3.4067840576171875 C22.995115757974787 2.945363040586386 22.995115757974787 2.945363040586386 22.045318603515625 2.8269805908203125 C20.839827557795616 2.74215466208895 19.636738681034075 2.7749272522857495 18.4296875 2.8046875 C17.984147513879307 2.8084220561851794 17.53859926239815 2.8112669437072384 17.093048095703125 2.813262939453125 C15.925607832308941 2.8208655841825987 14.758672629453798 2.8404815067337097 13.5914306640625 2.8626708984375 C12.188150400363611 2.8868200391145535 10.784700352410368 2.8959267136801543 9.381271362304688 2.9075775146484375 C7.253830652912825 2.926911823821854 5.1274959897740615 2.9652496117822693 3 3 Z " fill="#000000" transform="translate(90,188)"/>
<path d="M0 0 C8.25 0 16.5 0 25 0 C25 0.9900000000000091 25 1.9799999999999898 25 3 C18.069999999999993 3 11.139999999999986 3 4 3 C4 5.310000000000002 4 7.6200000000000045 4 10 C10.600000000000023 10 17.19999999999999 10 24 10 C24 10.990000000000009 24 11.97999999999999 24 13 C17.399999999999977 13 10.800000000000011 13 4 13 C4 15.639999999999986 4 18.28 4 21 C10.930000000000007 21 17.860000000000014 21 25 21 C25 21.99000000000001 25 22.97999999999999 25 24 C16.75 24 8.5 24 0 24 C0 16.079999999999984 0 8.159999999999997 0 0 Z " fill="#000000" transform="translate(308,188)"/>
<path d="M0 0 C8.25 0 16.5 0 25 0 C25 0.9900000000000091 25 1.9799999999999898 25 3 C18.069999999999993 3 11.139999999999986 3 4 3 C4 5.310000000000002 4 7.6200000000000045 4 10 C10.599999999999994 10 17.19999999999999 10 24 10 C24 10.990000000000009 24 11.97999999999999 24 13 C17.400000000000006 13 10.800000000000011 13 4 13 C4 15.639999999999986 4 18.28 4 21 C10.930000000000007 21 17.860000000000014 21 25 21 C25 21.99000000000001 25 22.97999999999999 25 24 C16.75 24 8.5 24 0 24 C0 16.079999999999984 0 8.159999999999997 0 0 Z " fill="#000000" transform="translate(134,188)"/>
<path d="M0 0 C6.078712881439344 -0.12032642800502913 6.078712881439344 -0.12032642800502913 8.69140625 -0.146484375 C10.46691139045467 -0.16434544248832594 12.241947765654345 -0.1853563808561205 14.01708984375 -0.226318359375 C15.4500919504558 -0.2591743401580118 16.882590863611682 -0.2769055560411857 18.315940856933594 -0.28463172912597656 C18.85976831313502 -0.2901294713735183 19.40357152627564 -0.3008652045370468 19.947181701660156 -0.31719017028808594 C21.649310842186253 -0.36622301911461363 23.334031330156506 -0.3950692798108548 25 0 C26.061254248649306 0.40735924957672864 26.94714925226839 0.9490410239609162 27.83016586303711 1.6617937088012695 C28.27769818588058 2.085299915044544 28.64752892558144 2.4947564043822013 29 3 C29.297801979731503 3.6429595886587833 29.43797525634824 4.24268604464217 29.517578125 4.9453125 C29.559826490663283 5.6741844158398465 29.549207376573577 6.395454532456398 29.53125 7.125 C29.53395321352579 7.517099580160249 29.53784251298032 7.909192566304625 29.5428466796875 8.30126953125 C29.54870759088888 9.118820128675935 29.540314439696147 9.934609686774309 29.521484375 10.751953125 C29.498667344664142 11.792165240132903 29.511813168985526 12.82825560485719 29.53577423095703 13.868316650390625 C29.55034269046493 14.67682109598718 29.54558258529005 15.484371989548265 29.535263061523438 16.29290771484375 C29.532624680826075 16.67560333021831 29.535764052382234 17.058390176300406 29.545181274414063 17.44097900390625 C29.56561703030809 18.504108773840528 29.52816784976301 19.510329697533507 29.216346740722656 20.53290367126465 C28.96560267313737 21.074264419432325 28.675072492600748 21.465320327595435 28.27996826171875 21.912551879882813 C27.47340772218456 22.675811597154933 26.62490728992202 23.262396474759754 25.631256103515625 23.757694244384766 C24.520400615522533 24.1840927804123 23.43383102815943 24.294024889750375 22.2509765625 24.340576171875 C21.212853482257174 24.351861270580827 20.178209901633977 24.32412809680764 19.140625 24.29296875 C18.585847554161063 24.287360310471627 18.031055058342986 24.28309611186603 17.47625732421875 24.280105590820313 C16.029170867757642 24.268752711683646 14.58301493971777 24.239377264298923 13.13629150390625 24.20599365234375 C11.393480715688128 24.16962758466039 9.650355427480605 24.156085249736094 7.9072723388671875 24.138633728027344 C5.270871464826087 24.109724366287793 2.636504399148407 24.05218887007112 0 24 C0 16.079999999999984 0 8.159999999999997 0 0 Z M3 3 C3 8.939999999999998 3 14.879999999999995 3 21 C6.505851368552669 21.029107497541673 6.505851368552669 21.029107497541673 10.01171875 21.048828125 C11.442583505993099 21.054795644671856 12.873383996261992 21.06183947969666 14.30419921875 21.075439453125 C15.458341749531485 21.086340428644093 16.61241531934641 21.0922919524877 17.766605377197266 21.094877243041992 C18.205955096534126 21.096718577448456 18.645301232339392 21.10031426408665 19.08462142944336 21.105730056762695 C19.70216648449258 21.113037094259425 20.31943008204027 21.113987008942047 20.93701171875 21.113525390625 C21.206748046874992 21.118918304443355 21.206748046874992 21.118918304443355 21.48193359375 21.124420166015625 C22.00527063481411 21.12021387112631 22.484538667141692 21.092242848852436 23 21 C23.710183861114643 20.733750526616546 24.370578127378565 20.424527601586107 25 20 C25.47199777591493 19.311130778774924 25.61749105164583 18.71374120228205 25.8388671875 17.90966796875 C26.119831734209782 16.323495391415747 26.147838211711928 14.755840024101389 26.13037109375 13.148193359375 C26.12503783348572 12.566625569647954 26.130330860873045 11.985840473596085 26.13671875 11.404296875 C26.14222603303486 9.141402165394567 25.88484495627486 7.022108367240662 25.40966796875 4.812255859375 C25.274477539062502 4.544211425781242 25.139287109375005 4.2761669921875125 25 4 C24.38234929024091 3.551485737108095 23.716374457310422 3.258897446348044 23 3 C22.30673548419921 2.8770943393712116 21.639666327904052 2.872426239333123 20.93701171875 2.886474609375 C20.6439665222168 2.886255569458001 20.6439665222168 2.886255569458001 20.345001220703125 2.8860321044921875 C19.70644587213397 2.8867225703168344 19.068191162022174 2.8944724900870824 18.4296875 2.90234375 C17.984142652472144 2.9042110484669763 17.53859573847342 2.9056334797469106 17.093048095703125 2.9066314697265625 C15.925783654607017 2.9104322195932752 14.758645526768817 2.9202410109792822 13.5914306640625 2.93133544921875 C12.188070778951811 2.943410704662284 10.784668434423878 2.9479634893263267 9.381271362304688 2.9537887573242188 C7.254093314528546 2.963454718368638 5.127191898989139 2.982627289391189 3 3 Z " fill="#000000" transform="translate(174,188)"/>
<path d="M0 0 C0.2843912315368584 -0.004241065979016412 0.2843912315368584 -0.004241065979016412 0.5745277404785156 -0.00856781005859375 C1.578832734798766 -0.02345220036247042 2.5829982530729296 -0.03274767748666818 3.58740234375 -0.037109375 C4.4062173115299 -0.04148633087606868 5.223973334553733 -0.055347724393726594 6.04248046875 -0.078125 C12.399600142334009 -0.2512987241443909 12.399600142334009 -0.2512987241443909 14.816131591796875 0.459136962890625 C16.020917087701918 0.9462675748032439 17.076498186523708 1.541679211302494 18.099609375 2.34326171875 C18.688331350424363 2.8895009964209635 19.003999415946026 3.3040007466001953 19.416015625 4.01220703125 C19.660377556730225 4.835666350778922 19.738767836787616 5.533615155442732 19.7578125 6.390625 C19.78294921874999 6.663261718749993 19.80808593750001 6.935898437499986 19.833984375 7.216796875 C19.892189805601475 7.880338783856814 19.928840630493056 8.537467685218928 19.9453125 9.203125 C18.923268826801717 9.374257894116909 17.9243480558211 9.497499636841013 16.88671875 9.46484375 C16.576054687500005 9.378476562499998 16.26539062500001 9.292109374999995 15.9453125 9.203125 C15.65392201132704 8.486107954838474 15.521430380728077 8.01560030968443 15.4453125 7.265625 C15.447366943359384 6.992504882812511 15.447366943359384 6.992504882812511 15.449462890625 6.7138671875 C15.430989948406705 6.179477561959686 15.430989948406705 6.179477561959686 15.289108276367188 5.69049072265625 C15.11892936706542 5.449244689941395 15.11892936706542 5.449244689941395 14.9453125 5.203125 C14.332966740391328 4.960760979614605 13.795113922792211 4.793081406388836 13.1591796875 4.6484375 C12.980283241271962 4.606132898330685 12.801386795043953 4.56382829666137 12.617069244384766 4.520241737365723 C10.764219793463468 4.113774278786366 8.9477285884835 4.075670011993367 7.0546875 4.10546875 C6.744184570312484 4.106475830078125 6.433681640624997 4.10748291015625 6.11376953125 4.1085205078125 C4.974245283507315 4.113679880936161 3.834774443312625 4.127640006091724 2.6953125 4.140625 C0.13781249999999545 4.1612499999999955 -2.419687500000009 4.181874999999991 -5.0546875 4.203125 C-5.0546875 10.143124999999998 -5.0546875 16.083124999999995 -5.0546875 22.203125 C-2.4971874999999955 22.223749999999995 0.060312500000009095 22.24437499999999 2.6953125 22.265625 C3.494208984375007 22.27472900390626 4.293105468750014 22.28383300781249 5.1162109375 22.293212890625 C5.762368093514738 22.296138467567317 6.408527119661983 22.29868550408557 7.0546875 22.30078125 C7.379692382812493 22.305897216796865 7.704697265624986 22.311013183593758 8.03955078125 22.3162841796875 C9.80408493126447 22.316941606718046 11.446261257488487 22.162875503774217 13.1591796875 21.7578125 C13.331016502380379 21.718728036880492 13.502853317260758 21.679643573760984 13.67989730834961 21.63937473297119 C14.220152814418668 21.508382459124192 14.220152814418668 21.508382459124192 14.9453125 21.203125 C15.115491409301768 20.961878967285145 15.115491409301768 20.961878967285145 15.289108276367188 20.71575927734375 C15.428714635947955 20.17356356845295 15.449519446124725 19.699901367169332 15.4453125 19.140625 C15.521430380728077 18.39064969031554 15.65392201132704 17.920142045161526 15.9453125 17.203125 C16.748647686026942 16.979791151602456 17.20367434931046 16.91216077057703 18.0078125 16.953125 C18.66447271785762 17.007186250694303 19.294219764386952 17.094104821013616 19.9453125 17.203125 C19.92198742687185 18.145732367001813 19.844363455246224 19.076880023867915 19.7578125 20.015625 C19.752011718749998 20.27666015624999 19.746210937499995 20.537695312500006 19.740234375 20.806640625 C19.65234375 21.59765625 19.65234375 21.59765625 19.41650390625 22.39453125 C19.002592531753464 23.10482890405831 18.688526195926386 23.513929738978902 18.09521484375 24.05859375 C17.070221647482782 24.85510513003146 16.01108371171449 25.449874218071727 14.809661865234375 25.940643310546875 C12.03677991403535 26.782699507357336 9.021882711166 26.64344536168406 6.15234375 26.59423828125 C5.146458193855892 26.577134154384396 4.142950297513494 26.587297091564324 3.13714599609375 26.604549407958984 C-2.4860761308693213 26.686646786828135 -2.4860761308693213 26.686646786828135 -4.916015625 25.9376220703125 C-6.260647223048579 25.379675782212445 -7.56558211610789 24.695910188741294 -8.64923095703125 23.713470458984375 C-9.136044133011865 23.100721946119393 -9.394986075350403 22.531702013177636 -9.6669921875 21.7978515625 C-10.11456061782414 20.208417715448718 -10.232395919507752 18.668468454940665 -10.2578125 17.0234375 C-10.263512573242195 16.728796081542953 -10.269212646484362 16.434154663085934 -10.27508544921875 16.130584716796875 C-10.284470834113193 15.510432090026626 -10.291043533056126 14.890231047108443 -10.294921875 14.27001953125 C-10.30459915019452 13.336646338738973 -10.335648826496453 12.405511077222513 -10.3671875 11.47265625 C-10.440912600877027 7.368898690441711 -10.440912600877027 7.368898690441711 -9.795654296875 5.4212646484375 C-9.479098839305067 4.689094744103727 -9.12833830992713 4.009112139762863 -8.7265625 3.3203125 C-8.609841918945307 3.1176174926757767 -8.493121337890614 2.9149224853515534 -8.37286376953125 2.706085205078125 C-7.974959777926443 2.114051127409226 -7.596887155317489 1.6672637707208935 -7.0546875 1.203125 C-4.875262258935692 0.01252769644540308 -2.4213227034908584 0.024783717013548312 0 0 Z " fill="#000000" transform="translate(228.0546875,186.796875)"/>
<path d="M0 0 C9.240000000000009 0 18.480000000000018 0 28 0 C28 0.9900000000000091 28 1.9799999999999898 28 3 C24.04000000000002 3 20.079999999999984 3 16 3 C16 9.930000000000007 16 16.860000000000014 16 24 C14.680000000000007 24 13.360000000000014 24 12 24 C12 17.069999999999993 12 10.139999999999986 12 3 C8.04000000000002 3 4.079999999999984 3 0 3 C0 2.009999999999991 0 1.0200000000000102 0 0 Z " fill="#000000" transform="translate(389,188)"/>
<path d="M0 0 C1.3199999999999932 0.3300000000000125 2.6399999999999864 0.6599999999999966 4 1 C4.466132349533893 2.2193752042155097 4.601889165609265 2.8174037971985513 4.625 4.0625 C4.67130938174958 5.555564124370335 4.67130938174958 5.555564124370335 5 7 C5.225021972656236 7.141756591796877 5.225021972656236 7.141756591796877 5.45458984375 7.286376953125 C6 7.394124348958343 6 7.394124348958343 6.54541015625 7.286376953125 C6.695424804687491 7.191872558593758 6.84543945312501 7.0973681640624875 7 7 C7.413570304055611 5.803787158522738 7.367325679925614 4.47595399400771 7.390625 3.220703125 C7.4609375 2.41015625 7.4609375 2.41015625 8 1 C9.319999999999993 0.6699999999999875 10.639999999999986 0.3400000000000034 12 0 C12 3.960000000000008 12 7.9199999999999875 12 12 C10.680000000000007 11.669999999999987 9.360000000000014 11.340000000000003 8 11 C6.812399797247679 10.98390683314588 6.812399797247679 10.98390683314588 5.8125 11.125 C4.81640625 11.1640625 4.81640625 11.1640625 4 11 C3.52734375 10.3359375 3.52734375 10.3359375 3.25 9.5 C3.078125 8.65625 3.078125 8.65625 3 8 C2.9510156249999966 8.288749999999993 2.902031249999993 8.577499999999986 2.8515625 8.875 C2.7765424010860897 9.250100494569523 2.700994129566027 9.625095627474337 2.625 10 C2.594062500000007 10.190781249999986 2.5631250000000136 10.381562500000001 2.53125 10.578125 C2.4140625 11.125 2.4140625 11.125 2 12 C1.3400000000000034 12 0.6800000000000068 12 0 12 C0 8.039999999999992 0 4.0800000000000125 0 0 Z " fill="#000000" transform="translate(181,234)"/>
<path d="M0 0 C0.9900000000000091 0 1.9799999999999898 0 3 0 C3.3049035644531273 0.2726367187499932 3.3049035644531273 0.2726367187499932 3.615966796875 0.55078125 C3.7259399414062386 0.8021484374999943 3.8359130859375057 1.0535156249999886 3.94921875 1.3125 C4.137744140624989 1.7185546874999886 4.137744140624989 1.7185546874999886 4.330078125 2.1328125 C4.448027343749999 2.418984375000008 4.565976562499998 2.7051562499999875 4.6875 3 C4.881826171874991 3.4292578124999977 4.881826171874991 3.4292578124999977 5.080078125 3.8671875 C5.398134030574056 4.573978401275639 5.703818640306849 5.283831567558707 6 6 C6.044875488281264 5.8182421875000045 6.089750976562499 5.636484375000009 6.135986328125 5.44921875 C6.347252463875577 4.628359044468539 6.579404540519079 3.8149164095238746 6.8125 3 C6.882753906250002 2.713828124999992 6.9530078125000045 2.4276562500000125 7.025390625 2.1328125 C7.10595703125 1.8621093749999886 7.1865234375 1.5914062500000057 7.26953125 1.3125 C7.337609863281244 1.0611328125000057 7.405688476562489 0.8097656250000114 7.475830078125 0.55078125 C7.648806152343752 0.36902343750000455 7.8217822265625045 0.1872656250000091 8 0 C8.990000000000009 0 9.97999999999999 0 11 0 C11 3.960000000000008 11 7.9199999999999875 11 12 C10.340000000000003 12 9.680000000000007 12 9 12 C8.863359374999987 11.855625000000003 8.726718750000003 11.711250000000007 8.5859375 11.5625 C8.516328125000001 11.376875000000013 8.446718750000002 11.191249999999997 8.375 11 C8.300234375000002 10.814375000000013 8.225468750000005 10.628749999999997 8.1484375 10.4375 C8.074960937500009 10.220937499999991 8.074960937500009 10.220937499999991 8 10 C7.962617187500001 10.144374999999997 7.925234375000002 10.288749999999993 7.88671875 10.4375 C7.6875 11 7.6875 11 7.41796875 11.546875 C7.280039062500009 11.696406249999995 7.14210937499999 11.845937499999991 7 12 C6.190935729322177 12.23503543058797 5.539060952211287 12.252286494763581 4.69921875 12.203125 C4.468476562500001 12.136093749999986 4.237734375000002 12.069062500000001 4 12 C3.58203125 11.546875 3.58203125 11.546875 3.3125 11 C3.11328125 10.4375 3.11328125 10.4375 3 10 C2.9510156249999966 10.144374999999997 2.902031249999993 10.288749999999993 2.8515625 10.4375 C2.7767968750000023 10.623124999999987 2.7020312500000045 10.808750000000003 2.625 11 C2.555390625000001 11.185624999999987 2.4857812500000023 11.371250000000003 2.4140625 11.5625 C2.2774218749999875 11.706874999999997 2.1407812500000034 11.851249999999993 2 12 C1.3400000000000034 12 0.6800000000000068 12 0 12 C0 8.039999999999992 0 4.0800000000000125 0 0 Z " fill="#000000" transform="translate(198,234)"/>
<path d="M0 0 C1.046850443225793 0.02356462607323806 1.9960161854636738 0.13494908502957514 3 0.4375 C3.605846864701533 0.7427125262979928 4.047969566583248 1.0541668742891375 4.54052734375 1.519775390625 C5.116482689318843 2.2165184193666505 5.516527806020406 2.8749943942667073 5.83642578125 3.72216796875 C6.099069531931889 4.870744370985761 6.075300161153223 5.951801142671059 5.99365234375 7.122802734375 C5.782983719652577 8.79124622028229 5.487935278959242 10.443181983519764 4.74169921875 11.9638671875 C4.46484375 12.3671875 4.46484375 12.3671875 3.8125 12.9375 C3.118765593457425 13.250023915818673 2.7342445728989446 13.37210431934497 2 13.4375 C0.1536266012880958 13.475154591112982 -1.5992395151553467 13.22354747222613 -3.36474609375 12.68359375 C-4 12.4375 -4 12.4375 -4.83203125 11.90625 C-5.375 11.25 -5.375 11.25 -5.75390625 10.45703125 C-6.269608157799723 8.63790693787135 -6.378475470436825 6.7459441485206355 -6.24609375 4.8671875 C-6.153488018579907 4.16227820113059 -6.037304538095924 3.5396244801775083 -5.79345703125 2.8720703125 C-5.528789143676221 2.370752309950035 -5.257462222373647 1.980478464783971 -4.875 1.5625 C-4.456583940313891 1.1848920930635245 -4.064560890224186 0.9153491408664252 -3.5654296875 0.65283203125 C-2.4002608147754074 0.20910191650773413 -1.2409542025009728 0.05458518946713298 0 0 Z M-2 2.4375 C-2.48721856329837 2.847648480619341 -2.48721856329837 2.847648480619341 -2.84765625 3.40234375 C-3.415438936869208 4.48590177694723 -3.7613017759772163 5.577743705376747 -3.95703125 6.7841796875 C-3.9973237889345796 7.396809427209746 -3.9822858036113757 7.880619689637285 -3.84375 8.4765625 C-3.4740160793035955 9.330258740989905 -3.4740160793035955 9.330258740989905 -2.84765625 9.98828125 C-2.0675558124863755 10.45348476271107 -2.0675558124863755 10.45348476271107 -1.40576171875 10.55615234375 C-0.46866382081111624 10.626209255438994 0.37925433414824283 10.547781412442447 1.300537109375 10.36865234375 C1.9414169199922355 10.176980443611626 1.9414169199922355 10.176980443611626 2.51953125 9.86376953125 C2.6780859374999864 9.723100585937487 2.836640625000001 9.582431640625003 3 9.4375 C3.3590851926241783 8.700579913238016 3.4978264477008167 8.075626876190768 3.6015625 7.2626953125 C3.6330705107924643 6.153350765848785 3.585583854154578 5.157166141800332 3.30859375 4.07958984375 C3.206757812500001 3.8677001953124943 3.1049218750000023 3.6558105468749886 3 3.4375 C2.5345599887854746 2.956914638598164 2.5345599887854746 2.956914638598164 1.9375 2.64453125 C1.0445535523869296 2.309120165806519 0.2072705909176875 2.152117411898473 -0.74609375 2.12890625 C-1.4067383345428368 2.190236298184743 -1.4067383345428368 2.190236298184743 -2 2.4375 Z " fill="#000000" transform="translate(171,233.5625)"/>
<path d="M0 0 C1.9181250000000034 -0.03093749999999318 1.9181250000000034 -0.03093749999999318 3.875 -0.0625 C4.274448242187503 -0.0716040039062591 4.673896484375007 -0.08070800781248977 5.08544921875 -0.090087890625 C5.405297851562494 -0.09258544921874545 5.725146484374989 -0.0950830078124909 6.0546875 -0.09765625 C6.379370117187506 -0.10289306640623863 6.704052734375011 -0.10812988281250568 7.03857421875 -0.113525390625 C7.812327006951961 -0.022160472769769513 8.39183014626201 0.07790855480720893 9.109375 0.349609375 C9.609832763671875 0.6264495849609375 9.609832763671875 0.6264495849609375 10 1 C10.205686547271142 1.6200483124503648 10.227041112713266 2.137381618782399 10.226593017578125 2.7904205322265625 C10.216270446777344 3.025870819091807 10.205947875976563 3.2613211059570233 10.1953125 3.50390625 C10.192482604980455 3.7466477966308673 10.189652709960939 3.9893893432617062 10.186737060546875 4.2394866943359375 C10.175546107029561 5.014327741977894 10.150456134380192 5.788009119093601 10.125 6.5625 C10.114968222182654 7.08787391246716 10.105842692918856 7.613265968467175 10.09765625 8.138671875 C10.075612170919925 9.426227632751619 10.041100651377405 10.712917294173849 10 12 C9.501695774789113 11.874347187103893 9.006016249360357 11.738246834243114 8.51171875 11.59765625 C8.235456542968763 11.522971191406242 7.959194335937497 11.448286132812513 7.674560546875 11.371337890625 C7.451955566406241 11.248796386718737 7.22935058593751 11.126254882812503 7 11 C6.800048828125 10.271240234375 6.800048828125 10.271240234375 6.8125 9.4375 C6.874374999999986 8.963124999999991 6.936250000000001 8.48875000000001 7 8 C5.349999999999994 8 3.6999999999999886 8 2 8 C2 9.319999999999993 2 10.639999999999986 2 12 C1.3400000000000034 12 0.6800000000000068 12 0 12 C0 8.039999999999992 0 4.0800000000000125 0 0 Z M2 2 C2 2.990000000000009 2 3.9799999999999898 2 5 C3.9799999999999898 5 5.960000000000008 5 8 5 C7.86906292210702 3.5966018444973713 7.86906292210702 3.5966018444973713 7.5546875 2.66796875 C7.371640624999998 2.447539062499999 7.1885937499999955 2.2271093749999977 7 2 C5.714434253218116 1.6605266494432556 4.371563920366299 1.802561066596013 3.05859375 1.89453125 C2.709257812499999 1.9293359375000136 2.3599218749999977 1.9641406249999989 2 2 Z " fill="#000000" transform="translate(228,234)"/>
<path d="M0 0 C2.969999999999999 0 5.939999999999998 0 9 0 C9 0.6599999999999966 9 1.3199999999999932 9 2 C7.02000000000001 2 5.039999999999992 2 3 2 C3 2.990000000000009 3 3.9799999999999898 3 5 C4.97999999999999 5 6.960000000000008 5 9 5 C9 5.659999999999997 9 6.319999999999993 9 7 C7.02000000000001 7 5.039999999999992 7 3 7 C3 7.990000000000009 3 8.97999999999999 3 10 C5.310000000000002 10 7.6200000000000045 10 10 10 C10 10.659999999999997 10 11.319999999999993 10 12 C6.699999999999989 12 3.4000000000000057 12 0 12 C0 8.039999999999992 0 4.0800000000000125 0 0 Z " fill="#000000" transform="translate(214,234)"/>
<path d="M0 0 C2.969999999999999 0 5.939999999999998 0 9 0 C9 0.6599999999999966 9 1.3199999999999932 9 2 C7.02000000000001 2 5.039999999999992 2 3 2 C3 2.990000000000009 3 3.9799999999999898 3 5 C4.97999999999999 5 6.960000000000008 5 9 5 C9 5.659999999999997 9 6.319999999999993 9 7 C7.02000000000001 7 5.039999999999992 7 3 7 C3 7.990000000000009 3 8.97999999999999 3 10 C5.310000000000002 10 7.6200000000000045 10 10 10 C10 10.659999999999997 10 11.319999999999993 10 12 C6.699999999999989 12 3.4000000000000057 12 0 12 C0 8.039999999999992 0 4.0800000000000125 0 0 Z " fill="#000000" transform="translate(128,234)"/>
<path d="M0 0 C5.857397504456344 -0.33155080213904853 5.857397504456344 -0.33155080213904853 7.6259765625 0.181640625 C8.143925013131138 0.4271422027558174 8.518130392795456 0.6729277069915724 8.9375 1.0625 C9.319956100937588 1.4856195369568468 9.566155668154238 1.8661773364906367 9.8095703125 2.3828125 C10.401645214489179 4.301742438754701 10.365576852779611 6.388755593197459 10.30078125 8.37890625 C10.196394348934803 9.234681882317403 10.058127416396133 9.88180758666121 9.677734375 10.6552734375 C9.23828125 11.20703125 9.23828125 11.20703125 8.693115234375 11.666748046875 C8 12 8 12 7.086181640625 12.151611328125 C6.0125147100190475 12.21924917872613 4.949521591088512 12.173979806290049 3.875 12.125 C2.5962499999999977 12.083750000000009 1.3174999999999955 12.04249999999999 0 12 C0 8.039999999999992 0 4.0800000000000125 0 0 Z M2 2 C2 4.639999999999986 2 7.280000000000001 2 10 C4.271051148003721 9.790948086787836 4.271051148003721 9.790948086787836 6.44873046875 9.2744140625 C7.009968449793121 9.032646716461926 7.009968449793121 9.032646716461926 7.38330078125 8.6083984375 C7.68059275787482 8.114484783213271 7.854140839164302 7.682529154739683 8 7.125 C8.104810092121454 6.568052941135676 8.142256354887365 6.08454129443885 8.111328125 5.5185546875 C8.018493291507866 4.99428281435155 8.018493291507866 4.99428281435155 7.779296875 4.5205078125 C7.470347764908979 4.048900064976976 7.140715066080929 3.6561642587448375 6.75 3.25 C6.628828124999984 3.1225439453124864 6.507656250000025 2.995087890625001 6.3828125 2.86376953125 C5.923024613184737 2.434680378554731 5.923024613184737 2.434680378554731 5 2 C4.009999999999991 2 3.019999999999982 2 2 2 Z " fill="#000000" transform="translate(360,234)"/>
<path d="M0 0 C0.7823241319787826 -0.12552024383418825 1.515974401235951 -0.162600751432052 2.30810546875 -0.15869140625 C2.5757470703125023 -0.15998046875000682 2.8433886718750045 -0.16126953125001364 3.119140625 -0.16259765625 C3.90705966275965 -0.11977067952187781 4.560937862942694 -0.037974834313359906 5.30810546875 0.21630859375 C5.77978515625 0.61767578125 5.77978515625 0.61767578125 6.14404296875 1.11474609375 C6.691733441896929 2.104732656231022 7.025243616246684 3.12387661166818 7.30810546875 4.21630859375 C6.318105468749991 4.21630859375 5.32810546875001 4.21630859375 4.30810546875 4.21630859375 C4.30810546875 3.5563085937500034 4.30810546875 2.896308593750007 4.30810546875 2.21630859375 C2.9835228432272345 2.2067743229236214 1.6737692629174887 2.2842316610257285 0.38232421875 2.59130859375 C-0.22915737946806303 2.799204176050665 -0.22915737946806303 2.799204176050665 -0.69189453125 3.21630859375 C-0.9755369587563507 3.876307407387003 -0.9755369587563507 3.876307407387003 -1.04736328125 4.65380859375 C-1.0385230189585855 5.81120293374741 -0.8919376067106839 6.873966695378385 -0.55517578125 7.98193359375 C-0.2397057957779225 8.705492367160758 -0.2397057957779225 8.705492367160758 0.30810546875 9.21630859375 C1.078765527372127 9.433944068665483 1.078765527372127 9.433944068665483 1.95263671875 9.38818359375 C3.778250779603354 9.174910923089556 5.548363485260182 8.74142053740141 7.30810546875 8.21630859375 C7.298361280534806 9.263808826883036 7.222741939420814 10.238971419856625 6.91357421875 11.24365234375 C6.6728515625 11.7587890625 6.6728515625 11.7587890625 6.30810546875 12.21630859375 C5.647433711091253 12.623092827116324 5.0392968124496065 12.847239546327188 4.293212890625 13.060302734375 C3.2041928634498333 13.27330665153599 2.184841284564669 13.384472987560542 1.07470703125 13.34130859375 C0.2718130736104172 13.210390852886462 -0.29894454712857055 13.010608662391007 -1.01220703125 12.62255859375 C-1.8254711109937602 12.035371698438155 -2.4702512555359704 11.402743723939238 -3.07080078125 10.59912109375 C-3.4345703125 9.94775390625 -3.4345703125 9.94775390625 -3.69189453125 9.21630859375 C-3.9015994660813362 7.38481524331354 -3.617949258688583 5.597604210788234 -3.24658203125 3.80224609375 C-3.004716199100926 2.976114004421504 -2.7474058521132747 2.305985973277302 -2.29443359375 1.57421875 C-1.6067614011639364 0.7757469837644351 -1.0110761379117434 0.316095080518636 0 0 Z " fill="#000000" transform="translate(153.69189453125,233.78369140625)"/>
<path d="M0 0 C1.331515402812414 -0.15178535175712682 2.581491928755298 -0.1500672699385177 3.89599609375 0.125 C4.53125 0.37890625 4.53125 0.37890625 4.99853515625 0.7890625 C5.840824143163616 1.9346657271810273 6.0903848327793355 2.9681377148939134 6.53125 4.37890625 C3.8912500000000136 4.0489062499999875 1.2512499999999989 3.7189062500000034 -1.46875 3.37890625 C-1.4866943224380975 6.185335146599101 -1.4866943224380975 6.185335146599101 -0.8984375 8.83740234375 C-0.7566406249999886 9.016098632812486 -0.6148437500000057 9.194794921875001 -0.46875 9.37890625 C0.2832731284090073 9.602848832541213 0.2832731284090073 9.602848832541213 1.15625 9.5546875 C2.988126888931788 9.339311184527446 4.764243530214856 8.906185936737614 6.53125 8.37890625 C6.477856736755513 9.422501849778797 6.36995628661947 10.410414476436472 6.0703125 11.4140625 C5.8486328125 11.93017578125 5.8486328125 11.93017578125 5.53125 12.37890625 C4.988891488703928 12.745138028246316 4.501757048397906 12.934650703857812 3.874755859375 13.121337890625 C2.54175324029967 13.390716536757452 1.27590232327546 13.444593303376337 -0.07763671875 13.3251953125 C-0.8545773253330538 13.197135433420044 -1.5110085978267023 12.983288629417132 -2.21435546875 12.6298828125 C-2.7527779798899417 12.25498121215071 -3.088591819914967 11.916010467734822 -3.46875 11.37890625 C-4.07659549229254 9.981712412350902 -4.341677793608454 8.572644058698046 -4.512939453125 7.064208984375 C-4.575292013758144 5.892410862131669 -4.569830241010266 4.809378788023395 -4.30078125 3.66357421875 C-3.982276873215824 2.81836280904605 -3.585754379234487 2.1588997986021923 -3.01171875 1.46337890625 C-2.102300935388598 0.6043744704920471 -1.2201174140427327 0.24822541778038953 0 0 Z " fill="#000000" transform="translate(246.46875,233.62109375)"/>
<path d="M0 0 C2.9700000000000273 0 5.939999999999998 0 9 0 C9 0.6599999999999966 9 1.3199999999999932 9 2 C6.689999999999998 2 4.3799999999999955 2 2 2 C2 2.990000000000009 2 3.9799999999999898 2 5 C3.980000000000018 5 5.9599999999999795 5 8 5 C8 5.659999999999997 8 6.319999999999993 8 7 C6.019999999999982 7 4.0400000000000205 7 2 7 C2 7.990000000000009 2 8.97999999999999 2 10 C4.310000000000002 10 6.6200000000000045 10 9 10 C9 10.659999999999997 9 11.319999999999993 9 12 C6.029999999999973 12 3.0600000000000023 12 0 12 C0 8.039999999999992 0 4.0800000000000125 0 0 Z " fill="#000000" transform="translate(258,234)"/>
<path d="M0 0 C1.2993749999999977 -0.020624999999995453 2.5987499999999955 -0.041249999999990905 3.9375 -0.0625 C4.346052246093734 -0.0716040039062591 4.754604492187525 -0.08070800781248977 5.175537109375 -0.090087890625 C5.497883300781268 -0.09258544921874545 5.8202294921874795 -0.0950830078124909 6.15234375 -0.09765625 C6.482263183593773 -0.10289306640623863 6.812182617187489 -0.10812988281250568 7.152099609375 -0.113525390625 C7.4319067382812705 -0.07606201171876137 7.711713867187484 -0.038598632812494316 8 0 C8.593994140625 0.420166015625 8.593994140625 0.420166015625 9 1 C9.43058058775631 2.243067435957414 9.477359804242496 3.535606460831559 9.541015625 4.84130859375 C9.5 5.6484375 9.5 5.6484375 9.34765625 6.3974609375 C9.175566406250027 6.695717773437508 9.175566406250027 6.695717773437508 9 7 C8.155239531699976 7.383005805542808 7.4140063076378055 7.478996230466862 6.492431640625 7.574462890625 C5.830318400079591 7.6081793582247315 5.168029810378528 7.638611348310036 4.505615234375 7.665771484375 C3.6354278643123052 7.718041053136176 2.8403361641715605 7.766473745422104 2 8 C1.890590820312525 8.136479492187505 1.7811816406249932 8.272958984375009 1.66845703125 8.41357421875 C1.5173626062168069 9.003008514209057 1.5048722306220839 9.456893887876703 1.5625 10.0625 C1.6604182623960924 10.739185134773152 1.8066720684094548 11.340230074730584 2 12 C1.339999999999975 12 0.6800000000000068 12 0 12 C0 8.039999999999992 0 4.0800000000000125 0 0 Z M2 2 C2 3.319999999999993 2 4.639999999999986 2 6 C3.6499999999999773 5.6699999999999875 5.300000000000011 5.340000000000003 7 5 C6.802150851950671 3.5983771048267954 6.802150851950671 3.5983771048267954 6.48828125 2.66796875 C6.3271484375 2.447539062499999 6.166015625 2.2271093749999977 6 2 C4.549988652801346 1.6981609032362144 3.527106454556815 1.8522155043977193 2 2 Z " fill="#000000" transform="translate(279,234)"/>
<path d="M0 0 C1.0852589138197573 0.1961830773889517 2.0332533971456996 0.46108478934780806 3 1 C3.644186377481901 1.9550731814294124 3.90691498505862 2.953030812479426 4.1875 4.0625 C4.269355468750007 4.3441601562500125 4.351210937500014 4.625820312499997 4.435546875 4.916015625 C4.635030207927002 5.608340133393796 4.822496845344347 6.3017784347386225 5 7 C5.075168457031225 6.787949218749986 5.150336914062507 6.575898437500001 5.227783203125 6.357421875 C5.513941503965327 5.570108031418158 5.8111639694079145 4.789071624483853 6.116943359375 4.00927734375 C6.246636722367555 3.671524091312449 6.371709489130922 3.3319578308475286 6.491943359375 2.99072265625 C6.876991337631978 1.9037147834751806 7.268676372045661 0.9075705964641259 8 0 C8.77490234375 -0.21875 8.77490234375 -0.21875 9.60546875 -0.21875 C10.403076171875 -0.123046875 10.403076171875 -0.123046875 11 0 C10.59346789934267 1.3882516701657153 10.184452174919613 2.7757388733748485 9.773193359375 4.16259765625 C9.63384880598727 4.633753399917879 9.495165764579951 5.1051053419704715 9.357177734375 5.57666015625 C9.157857077859944 6.257372578860981 8.95610864130748 6.937326288154281 8.75390625 7.6171875 C8.693446197509786 7.825602722167957 8.632986145019515 8.034017944335943 8.570693969726563 8.248748779296875 C8.393958065012612 8.838165172672603 8.20289975622552 9.41910377721112 8 10 C7.933703918457013 10.197176208496103 7.867407836914083 10.394352416992177 7.799102783203125 10.597503662109375 C7.58009470577025 11.1443827837154 7.392447612484887 11.560321521762205 7 12 C6.0888671875 12.11279296875 6.0888671875 12.11279296875 5.57843017578125 12.017852783203125 C5.403016967773453 11.968133239746095 5.2276037597656 11.918413696289065 5.046875 11.8671875 C4.777229309082031 11.793695831298834 4.777229309082031 11.793695831298834 4.50213623046875 11.718719482421875 C3.948283506232656 11.527797841590967 3.4909589852820773 11.319955250494473 3 11 C2.3115643857606187 10.102377358282752 1.9406953642588292 9.278227763845194 1.58203125 8.21484375 C1.5274072265625023 8.03550292968751 1.4727832031250045 7.856162109374992 1.41650390625 7.67138671875 C1.250599793275569 7.126968236584673 1.0637091593388845 6.594074440412726 0.87109375 6.05859375 C0.3117987844278787 4.442915006769169 -0.07407088546460727 2.9672132348150058 -0.078125 1.2421875 C-0.05874627934230148 0.8277597167920021 -0.03553205648290714 0.4133562570847573 0 0 Z " fill="#000000" transform="translate(292,234)"/>
<path d="M0 0 C3.3000000000000114 0 6.600000000000023 0 10 0 C10 0.6599999999999966 10 1.3199999999999932 10 2 C8.680000000000007 2 7.360000000000014 2 6 2 C6 5.300000000000011 6 8.599999999999994 6 12 C5.339999999999975 12 4.680000000000007 12 4 12 C4 8.699999999999989 4 5.400000000000006 4 2 C2.680000000000007 2 1.3600000000000136 2 0 2 C0 1.3400000000000034 0 0.6800000000000068 0 0 Z " fill="#000000" transform="translate(346,234)"/>
<path d="M0 0 C3.3000000000000114 0 6.600000000000023 0 10 0 C10 0.6599999999999966 10 1.3199999999999932 10 2 C8.680000000000007 2 7.360000000000014 2 6 2 C6 5.300000000000011 6 8.599999999999994 6 12 C5.339999999999975 12 4.680000000000007 12 4 12 C4 8.699999999999989 4 5.400000000000006 4 2 C2.680000000000007 2 1.3600000000000136 2 0 2 C0 1.3400000000000034 0 0.6800000000000068 0 0 Z " fill="#000000" transform="translate(306,234)"/>
<path d="M0 0 C0.660000000000025 0 1.3199999999999932 0 2 0 C2 3.3000000000000114 2 6.599999999999994 2 10 C3.980000000000018 10 5.9599999999999795 10 8 10 C8 10.659999999999997 8 11.319999999999993 8 12 C5.360000000000014 12 2.7200000000000273 12 0 12 C0 8.039999999999992 0 4.0800000000000125 0 0 Z " fill="#000000" transform="translate(335,234)"/>
<path d="M0 0 C1.9799999999999898 0 3.960000000000008 0 6 0 C6 0.6599999999999966 6 1.3199999999999932 6 2 C4.02000000000001 2 2.039999999999992 2 0 2 C0 1.3400000000000034 0 0.6800000000000068 0 0 Z " fill="#000000" transform="translate(141,241)"/>
<path d="M0 0 C0.660000000000025 0 1.3199999999999932 0 2 0 C2 0.6599999999999966 2 1.3199999999999932 2 2 C1.339999999999975 2 0.6800000000000068 2 0 2 C0 1.3400000000000034 0 0.6800000000000068 0 0 Z " fill="#000000" transform="translate(375,244)"/>
<path d="M0 0 C0.660000000000025 0 1.3199999999999932 0 2 0 C2 0.6599999999999966 2 1.3199999999999932 2 2 C1.339999999999975 2 0.6800000000000068 2 0 2 C0 1.3400000000000034 0 0.6800000000000068 0 0 Z " fill="#000000" transform="translate(320,244)"/>
</svg>
