<?xml version="1.0" encoding="utf-8" ?>
<svg baseProfile="full" height="400" version="1.1" width="400" xmlns="http://www.w3.org/2000/svg" xmlns:ev="http://www.w3.org/2001/xml-events" xmlns:xlink="http://www.w3.org/1999/xlink"><defs /><rect fill="rgb(254,184,91)" height="400.0" stroke="none" stroke-width="0.0" width="400.0" x="0.0" y="0.0" /><rect fill="rgb(254,184,91)" height="24.0" stroke="none" stroke-width="0.0" width="14.0" x="199.0" y="212.0" /><rect fill="rgb(254,184,91)" height="22.0" stroke="none" stroke-width="0.0" width="12.0" x="222.0" y="215.0" /><rect fill="rgb(254,184,91)" height="49.0" stroke="none" stroke-width="0.0" width="8.0" x="198.0" y="247.0" /><rect fill="rgb(97,42,82)" height="62.0" stroke="none" stroke-width="0.0" width="65.0" x="155.0" y="65.0" /><rect fill="rgb(97,42,82)" height="11.0" stroke="none" stroke-width="0.0" width="30.0" x="95.0" y="164.0" /><rect fill="rgb(97,42,82)" height="12.0" stroke="none" stroke-width="0.0" width="29.0" x="198.0" y="210.0" /><rect fill="rgb(97,42,82)" height="73.0" stroke="none" stroke-width="0.0" width="39.0" x="182.0" y="228.0" /><rect fill="rgb(239,59,104)" height="85.0" stroke="none" stroke-width="0.0" width="92.0" x="135.0" y="147.0" /><rect fill="rgb(239,59,104)" height="7.0" stroke="none" stroke-width="0.0" width="14.0" x="213.0" y="212.0" /><rect fill="rgb(232,142,79)" height="28.0" stroke="none" stroke-width="0.0" width="141.0" x="130.0" y="291.0" /><rect fill="rgb(254,168,143)" height="17.0" stroke="none" stroke-width="0.0" width="39.0" x="158.0" y="88.0" /><rect fill="rgb(254,168,143)" height="67.0" stroke="none" stroke-width="0.0" width="46.0" x="159.0" y="105.0" /><rect fill="rgb(254,168,143)" height="22.0" stroke="none" stroke-width="0.0" width="19.0" x="121.0" y="157.0" /><rect fill="rgb(254,168,143)" height="17.0" stroke="none" stroke-width="0.0" width="18.0" x="204.0" y="221.0" /><rect fill="rgb(64,14,56)" height="34.0" stroke="none" stroke-width="0.0" width="9.0" x="213.0" y="235.0" /><rect fill="rgb(160,197,202)" height="23.0" stroke="none" stroke-width="0.0" width="22.0" x="92.0" y="149.0" /><rect fill="rgb(160,197,202)" height="7.0" stroke="none" stroke-width="0.0" width="24.0" x="171.0" y="303.0" /><rect fill="rgb(160,197,202)" height="11.0" stroke="none" stroke-width="0.0" width="13.0" x="203.0" y="304.0" /><rect fill="rgb(251,239,234)" height="14.0" stroke="none" stroke-width="0.0" width="11.0" x="157.0" y="99.0" /><rect fill="rgb(251,239,234)" height="13.0" stroke="none" stroke-width="0.0" width="14.0" x="173.0" y="101.0" /></svg>