<?xml version="1.0" encoding="utf-8" ?>
<svg baseProfile="full" height="512" version="1.1" width="214" xmlns="http://www.w3.org/2000/svg" xmlns:ev="http://www.w3.org/2001/xml-events" xmlns:xlink="http://www.w3.org/1999/xlink"><defs /><path d="M 0.0,0.0 C 214.0,0.0 214.0,512.0 0.0,512.0 Z" fill="rgb(251,251,253)" stroke="none" stroke-width="0.0" /><path d="M 0.0,0.0 C 3.1187896728515625,-0.1258411407470703 4.103704810142517,-0.13024550676345825 7.402587890625,-0.126983642578125 C 9.778923988342285,-0.13171088695526123 16.33366060256958,-0.13072466850280762 23.393035888671875,-0.13470458984375 C 37.23213076591492,-0.1352919489145279 48.474884033203125,-0.13381576538085938 50.08835417032242,-0.13428010791540146 C 53.332844376564026,-0.1352526992559433 83.78924334049225,-0.12945233285427094 109.9482421875,-0.13037109375 C 140.292254447937,-0.1347588300704956 143.52511596679688,-0.13381576538085938 145.1320052742958,-0.1333482638001442 C 156.36721801757812,-0.13629531860351562 170.05061173439026,-0.13301457464694977 177.0381736755371,-0.13266372680664062 C 183.42587077617645,-0.12868617475032806 185.74546921253204,-0.130561962723732 188.88121032714844,-0.1258411407470703 C 190.64584255218506,-0.12534916400909424 192.0,0.0 193.0,1.0 C 193.12025451660156,4.9546051025390625 193.1228485107422,6.2039794921875 193.113525390625,10.385009765625 C 193.11389064788818,13.41910457611084 193.10128021240234,21.567588806152344 193.0946044921875,29.2049560546875 C 193.0625,51.5625 193.0,102.0 -1.0,102.0 C -1.0625,51.5625 -1.090087890625,35.611572265625 -1.0954437255859375,26.209823608398438 C -1.1055755615234375,19.907455444335938 -1.1130722761154175,11.881868243217468 -1.1192151308059692,8.92806351184845 C -1.1202545166015625,4.9546051025390625 -1.1290807723999023,3.772902488708496 -1.0,1.0 Z" fill="rgb(254,254,254)" stroke="none" stroke-width="0.0" /><path d="M 0.0,0.0 C 194.0,0.0 194.0625,50.4375 194.090087890625,66.388427734375 C 194.09544372558594,75.79017639160156 194.10557556152344,82.09254455566406 194.11307227611542,90.11813175678253 C 194.11921513080597,93.07193648815155 194.12025451660156,97.04539489746094 194.1290807723999,98.2270975112915 C 194.0,101.0 193.0,102.0 189.88121032714844,102.12584114074707 C 188.89629518985748,102.13024550676346 185.597412109375,102.12698364257812 183.22107601165771,102.13171088695526 C 176.66633939743042,102.13072466850281 169.60696411132812,102.13470458984375 155.76786923408508,102.13529194891453 C 144.52511596679688,102.13381576538086 142.91164582967758,102.1342801079154 139.66715562343597,102.13525269925594 C 109.21075665950775,102.12945233285427 83.0517578125,102.13037109375 52.70774555206299,102.1347588300705 C 49.474884033203125,102.13381576538086 47.86799472570419,102.13334826380014 36.632781982421875,102.13629531860352 C 22.94938826560974,102.13301457464695 15.96182632446289,102.13266372680664 9.574129223823547,102.12868617475033 C 7.2545307874679565,102.13056196272373 4.1187896728515625,102.12584114074707 2.3541574478149414,102.1253491640091 C 1.0,102.0 0.0,101.0 -0.1202545166015625,97.04539489746094 C -0.1228485107421875,95.7960205078125 -0.113525390625,91.614990234375 -0.1138906478881836,88.58089542388916 C -0.10128021240234375,80.43241119384766 -0.0946044921875,72.7950439453125 -0.0625,50.4375 Z" fill="rgb(253,253,253)" stroke="none" stroke-width="0.0" /><path d="M 0.0,0.0 C 3.1187896728515625,-0.1258411407470703 4.103704810142517,-0.13024550676345825 7.402587890625,-0.126983642578125 C 9.778923988342285,-0.13171088695526123 16.33366060256958,-0.13072466850280762 23.393035888671875,-0.13470458984375 C 37.23213076591492,-0.1352919489145279 48.474884033203125,-0.13381576538085938 50.08835417032242,-0.13428010791540146 C 53.332844376564026,-0.1352526992559433 83.78924334049225,-0.12945233285427094 109.9482421875,-0.13037109375 C 140.292254447937,-0.1347588300704956 143.52511596679688,-0.13381576538085938 145.1320052742958,-0.1333482638001442 C 156.36721801757812,-0.13629531860351562 170.05061173439026,-0.13301457464694977 177.0381736755371,-0.13266372680664062 C 183.42587077617645,-0.12868617475032806 185.74546921253204,-0.130561962723732 188.88121032714844,-0.1258411407470703 C 190.64584255218506,-0.12534916400909424 192.0,0.0 193.0,1.0 C 193.1328125,5.21875 193.13571166992188,6.4852294921875 193.13037109375,9.13818359375 C 193.13671875,13.20703125 193.1328125,15.78125 193.13894653320312,17.0155029296875 C 193.0,20.0 192.0,21.0 188.88121032714844,21.12584114074707 C 187.89629518985748,21.13024550676346 184.597412109375,21.126983642578125 182.22107601165771,21.13171088695526 C 175.66633939743042,21.130724668502808 168.60696411132812,21.13470458984375 154.76786923408508,21.135291948914528 C 143.52511596679688,21.13381576538086 141.91164582967758,21.1342801079154 138.66715562343597,21.135252699255943 C 108.21075665950775,21.12945233285427 82.0517578125,21.13037109375 51.70774555206299,21.134758830070496 C 48.474884033203125,21.13381576538086 46.86799472570419,21.133348263800144 35.632781982421875,21.136295318603516 C 21.94938826560974,21.13301457464695 14.96182632446289,21.13266372680664 8.574129223823547,21.128686174750328 C 6.2545307874679565,21.130561962723732 3.1187896728515625,21.12584114074707 1.3541574478149414,21.125349164009094 C 0.0,21.0 -1.0,20.0 -1.1328125,15.78125 C -1.135711669921875,14.5147705078125 -1.13037109375,11.86181640625 -1.13671875,7.79296875 C -1.1328125,5.21875 -1.138946533203125,3.9844970703125 -1.0,1.0 Z" fill="rgb(254,254,254)" stroke="none" stroke-width="0.0" /><path d="M 0.0,0.0 C 3.1187896728515625,-0.2516822814941406 4.103704810142517,-0.2604910135269165 7.402587890625,-0.25396728515625 C 9.778923988342285,-0.26342177391052246 16.33366060256958,-0.26144933700561523 23.393035888671875,-0.2694091796875 C 37.23213076591492,-0.2705838978290558 48.474884033203125,-0.26763153076171875 50.08835417032242,-0.2685602158308029 C 53.332844376564026,-0.2705053985118866 83.78924334049225,-0.25890466570854187 109.9482421875,-0.2607421875 C 140.292254447937,-0.2695176601409912 143.52511596679688,-0.26763153076171875 145.1320052742958,-0.2666965276002884 C 156.36721801757812,-0.27259063720703125 170.05061173439026,-0.26602914929389954 177.0381736755371,-0.26532745361328125 C 183.42587077617645,-0.25737234950065613 185.74546921253204,-0.261123925447464 188.88121032714844,-0.2516822814941406 C 190.64584255218506,-0.2506983280181885 192.0,0.0 193.0,2.0 C 193.1328125,6.09765625 193.13571166992188,7.2925872802734375 193.13037109375,9.786376953125 C 193.13671875,13.611328125 193.1328125,16.03515625 193.13894653320312,17.193618774414062 C 193.0,20.0 192.0,21.0 188.88121032714844,21.12584114074707 C 187.89629518985748,21.13024550676346 184.597412109375,21.126983642578125 182.22107601165771,21.13171088695526 C 175.66633939743042,21.130724668502808 168.60696411132812,21.13470458984375 154.76786923408508,21.135291948914528 C 143.52511596679688,21.13381576538086 141.91164582967758,21.1342801079154 138.66715562343597,21.135252699255943 C 108.21075665950775,21.12945233285427 82.0517578125,21.13037109375 51.70774555206299,21.134758830070496 C 48.474884033203125,21.13381576538086 46.86799472570419,21.133348263800144 35.632781982421875,21.136295318603516 C 21.94938826560974,21.13301457464695 14.96182632446289,21.13266372680664 8.574129223823547,21.128686174750328 C 6.2545307874679565,21.130561962723732 3.1187896728515625,21.12584114074707 1.3541574478149414,21.125349164009094 C 0.0,21.0 -1.0,20.0 -1.1328125,16.03515625 C -1.135711669921875,14.843124389648438 -1.13037109375,12.343994140625 -1.13671875,8.525390625 C -1.1328125,6.09765625 -1.138946533203125,4.9453277587890625 -0.6868371963500977,0.8992598056793213 Z" fill="rgb(254,254,254)" stroke="none" stroke-width="0.0" /><path d="M 0.0,0.0 C 3.315239906311035,-0.37473011016845703 4.290891319513321,-0.3870353400707245 7.5224761962890625,-0.3742218017578125 C 9.864729344844818,-0.38626545667648315 16.29750382900238,-0.37751495838165283 23.236175537109375,-0.3833770751953125 C 36.82679886370897,-0.37411413341760635 52.64630829542875,-0.3642474636435509 80.865966796875,-0.336181640625 C 108.264404296875,-0.315673828125 138.086605489254,-0.3101879954338074 141.26466178894043,-0.30657005310058594 C 142.84420861676335,-0.30474114790558815 153.87820625305176,-0.30315589904785156 167.3176273778081,-0.2855423465371132 C 174.17801094055176,-0.27878570556640625 180.4527498409152,-0.26515962928533554 182.72780806571245,-0.26680270582437515 C 185.81060123443604,-0.25447559356689453 187.5431814789772,-0.2518489956855774 189.0,0.0 C 191.0,2.0 191.0,19.0 -3.0,19.0 Z" fill="rgb(254,254,254)" stroke="none" stroke-width="0.0" /><path d="M 0.0,0.0 C 1.7479791641235352,-0.006220817565917969 2.724320948123932,-0.017813384532928467 5.959908485412598,-0.02018260955810547 C 8.281136512756348,-0.03567028045654297 14.584903478622437,-0.04710698127746582 19.84828144311905,-0.05571240186691284 C 32.2670373916626,-0.06119823455810547 45.07508701086044,-0.08876830339431763 56.07398372888565,-0.10913056135177612 C 62.641974449157715,-0.12384510040283203 68.82006168365479,-0.12143421173095703 71.08515453338623,-0.13005733489990234 C 77.5285120010376,0.25447559356689453 80.5285120010376,3.2544755935668945 80.8917932510376,6.5044755935668945 C 80.8898401260376,8.348225593566895 80.8410120010376,10.254475593566895 80.8507776260376,12.160725593566895 C 79.71535587310791,18.82971954345703 78.5285120010376,20.254475593566895 75.2643518447876,20.628697395324707 C 74.27349758148193,20.640741050243378 70.9894495010376,20.626790046691895 68.63379764556885,20.637852668762207 C 62.23725986480713,20.624520540237427 55.5456018447876,20.619267463684082 44.3078088760376,20.590657234191895 C 31.312247276306152,20.57221919298172 18.814949989318848,20.56104564666748 13.494515419006348,20.557631492614746 C 7.230256080627441,20.535571098327637 4.930039405822754,20.5332612991333 1.7926721572875977,20.515172004699707 C 0.018410682678222656,20.50895118713379 -2.6593236923217773,19.342185974121094 -3.7302770614624023,16.590413093566895 C -3.7371129989624023,14.629475593566895 -3.7429113388061523,13.576252937316895 -3.7322301864624023,11.377522468566895 C -3.7449254989624023,8.020100593566895 -3.7371129989624023,5.8794755935668945 -3.7302770614624023,3.9185380935668945 Z" fill="rgb(67,19,68)" stroke="none" stroke-width="0.0" /><path d="M 0.0,0.0 C 1.9306869506835938,0.0016508102416992188 3.008162021636963,-0.005665600299835205 6.582420349121094,0.005969047546386719 C 9.144966125488281,0.00021648406982421875 16.10553550720215,0.013169527053833008 23.385765075683594,0.01980876922607422 C 35.612205505371094,0.04307842254638672 49.75293016433716,0.0633428692817688 63.34906768798828,0.07613468170166016 C 69.1384048461914,0.08202838897705078 75.95422554016113,0.09919452667236328 78.4576244354248,0.1027669906616211 C 81.8708724975586,0.11517620086669922 83.80155944824219,0.1202545166015625 86.605224609375,0.6650829315185547 C 87.4007797241211,1.2488889694213867 87.6664047241211,4.592638969421387 87.67220306396484,5.590075492858887 C 87.6615219116211,7.678088188171387 87.6742172241211,10.877795219421387 87.6664047241211,12.905138969421387 C 87.6595687866211,14.774279594421387 87.4007797241211,16.248888969421387 85.4007797241211,17.248888969421387 C 81.8708724975586,17.382601737976074 80.79339742660522,17.38946706056595 77.2191390991211,17.394152641296387 C 74.6565933227539,17.404330253601074 67.69602394104004,17.41614603996277 61.888076305389404,17.4243181347847 C 48.189353942871094,17.434191703796387 34.04862928390503,17.45993536710739 21.913483142852783,17.47773629426956 C 14.663154602050781,17.490914344787598 7.847333908081055,17.49339771270752 5.343935012817383,17.500758171081543 C 1.9306869506835938,17.496127128601074 0.0,17.497777938842773 -2.8036651611328125,16.320228576660156 C -3.8580093383789062,13.860217094421387 -3.8648452758789062,12.280138969421387 -3.8726577758789062,10.549670219421387 C -3.8492202758789062,8.748888969421387 -3.8726577758789062,6.948107719421387 -3.8648452758789062,5.217638969421387 C -3.8580093383789062,3.6375608444213867 -2.8036651611328125,1.1775493621826172 0.0,0.0 Z" fill="rgb(249,250,252)" stroke="none" stroke-width="0.0" /><path d="M 0.0,0.0 C 1.9569692611694336,0.0016508102416992188 3.04895681142807,-0.005665600299835205 6.671675682067871,0.005969047546386719 C 9.268645286560059,0.00021648406982421875 16.321985483169556,0.013169527053833008 23.69570827484131,0.01980876922607422 C 36.07597255706787,0.04307842254638672 50.404209196567535,0.0633428692817688 64.17335224151611,0.07613468170166016 C 70.04052829742432,0.08202838897705078 76.94252109527588,0.09919452667236328 79.4810438156128,0.1027669906616211 C 82.93475246429443,0.11517620086669922 84.89057922363281,0.1202545166015625 86.38236904144287,0.24888896942138672 C 87.38236904144287,1.2488889694213867 87.51518154144287,4.373888969421387 87.51908779144287,6.264513969421387 C 87.50736904144287,8.248888969421387 87.51908779144287,10.233263969421387 87.51518154144287,12.123888969421387 C 87.51176357269287,13.866076469421387 87.38236904144287,15.248888969421387 86.38236904144287,16.248888969421387 C 82.89005947113037,16.37587261199951 81.7882866859436,16.380599856376648 78.11479091644287,16.378283500671387 C 75.48870754241943,16.383593559265137 68.34221744537354,16.383214473724365 60.87638759613037,16.38460063934326 C 48.33695888519287,16.379260063171387 33.823036670684814,16.381086468696594 21.379720211029053,16.383647799491882 C 13.939970970153809,16.385184288024902 6.946911811828613,16.380290031433105 4.374527931213379,16.381552696228027 C 0.8746786117553711,16.37587261199951 -1.1074304580688477,16.374730110168457 -2.617630958557129,16.248888969421387 C -3.617630958557129,15.248888969421387 -3.805130958557129,8.811388969421387 -3.842240333557129,6.996935844421387 C -3.848099708557129,5.252795219421387 -3.860550880432129,3.6534299850463867 -2.8258609771728516,1.1765575408935547 Z" fill="rgb(250,250,252)" stroke="none" stroke-width="0.0" /><path d="M 0.0,0.0 C 3.4476165771484375,-0.1337127685546875 4.534876883029938,-0.14057809114456177 8.159912109375,-0.145263671875 C 10.751571655273438,-0.1554412841796875 17.805290937423706,-0.16725707054138184 23.687647879123688,-0.17542916536331177 C 37.563232421875,-0.185302734375 51.88964265584946,-0.21104639768600464 64.17759329080582,-0.22884732484817505 C 71.52186393737793,-0.24202537536621094 78.42875099182129,-0.2445087432861328 80.96601104736328,-0.25186920166015625 C 84.42539978027344,-0.2472381591796875 86.38236904144287,-0.24888896942138672 89.20723819732666,0.9343976974487305 C 90.2587890625,3.296875 90.265625,4.75 90.2734375,6.34375 C 90.25,8.0 90.2734375,9.65625 90.265625,11.25 C 90.2587890625,12.703125 89.20723819732666,15.06560230255127 86.38236904144287,16.248888969421387 C 84.42539978027344,16.247238159179688 83.3334122300148,16.254554569721222 79.710693359375,16.242919921875 C 77.11372375488281,16.248672485351562 70.06038355827332,16.235719442367554 62.68666076660156,16.229080200195312 C 50.306396484375,16.205810546875 35.978159844875336,16.185546100139618 22.209016799926758,16.172754287719727 C 16.341840744018555,16.166860580444336 9.439847946166992,16.149694442749023 6.901325225830078,16.146121978759766 C 3.4476165771484375,16.133712768554688 1.4917898178100586,16.128634452819824 0.0,16.0 C -1.0,15.0 -1.1328125,11.875 -1.13671875,9.984375 C -1.125,8.0 -1.13671875,6.015625 -1.1328125,4.125 C -1.12939453125,2.3828125 -1.0,1.0 0.0,0.0 Z" fill="rgb(66,18,67)" stroke="none" stroke-width="0.0" /><path d="M 0.0,0.0 C 3.4923095703125,-0.126983642578125 4.594082355499268,-0.13171088695526123 8.267578125,-0.12939453125 C 10.893661499023438,-0.13470458984375 18.040151596069336,-0.13432550430297852 25.5059814453125,-0.135711669921875 C 38.04541015625,-0.13037109375 52.55933237075806,-0.13219749927520752 65.00264883041382,-0.1347588300704956 C 72.44239807128906,-0.13629531860351562 79.43545722961426,-0.13140106201171875 82.00784111022949,-0.13266372680664062 C 85.5076904296875,-0.126983642578125 87.48979949951172,-0.1258411407470703 89.0,0.0 C 90.0,1.0 90.1875,7.4375 90.224609375,9.251953125 C 90.23046875,10.99609375 90.242919921875,12.595458984375 89.20543670654297,15.071910858154297 C 86.4007797241211,16.25168228149414 84.4700927734375,16.25396728515625 83.39261770248413,16.263421773910522 C 79.818359375,16.2587890625 77.25581359863281,16.2694091796875 70.29524421691895,16.268651008605957 C 63.0150146484375,16.27142333984375 50.78857421875,16.2607421875 36.647849559783936,16.264394998550415 C 24.51270341873169,16.26951766014099 17.262374877929688,16.27259063720703 10.446554183959961,16.262802124023438 C 7.943155288696289,16.26532745361328 4.5299072265625,16.25396728515625 2.5992202758789062,16.25168228149414 C -0.20543670654296875,15.071910858154297 -1.242919921875,12.595458984375 -1.23046875,10.99609375 C -1.224609375,9.251953125 -1.1875,7.4375 -1.185546875,5.611328125 Z" fill="rgb(69,22,70)" stroke="none" stroke-width="0.0" /><path d="M 0.0,0.0 C 4.13671875,-0.372314453125 5.432769775390625,-0.3833770751953125 9.6875,-0.36328125 C 12.635498046875,-0.3647918701171875 18.8193359375,-0.336181640625 26.759017944335938,-0.3196992874145508 C 32.848052978515625,-0.30657005310058594 35.776214599609375,-0.30315589904785156 39.86328125,-0.274658203125 C 41.094390869140625,-0.28216552734375 44.0,0.0 45.0,20.0 Z" fill="rgb(245,242,245)" stroke="none" stroke-width="0.0" /><path d="M 0.0,0.0 C 6.6015625,6.53125 8.7265625,14.28125 6.5390625,22.03125 C -0.7734375,29.28125 -10.67529296875,30.4990234375 -18.92333984375,26.111328125 C -23.5263671875,18.376953125 -23.24560546875,9.40576171875 -14.515625,-0.6953125 Z" fill="rgb(241,218,241)" stroke="none" stroke-width="0.0" /><path d="M 0.0,0.0 C 2.375,-0.125 3.7109375,-0.1953125 5.0,0.0 C 5.875,1.0 7.0,2.0 11.625,2.125 C 12.8984375,2.09765625 16.0,2.0 17.0,7.0 C 13.0,8.0 13.0,10.0 11.0,10.0 C 11.0,8.0 0.0,8.0 0.0,0.0 Z" fill="rgb(135,122,142)" stroke="none" stroke-width="0.0" /><path d="M 0.0,0.0 C 4.0,0.0 4.0,2.0 20.0,2.0 C 19.0,6.0 17.35546875,5.96484375 15.1875,5.9375 C 14.107421875,5.912109375 9.5,6.53125 3.8125,6.5625 C 2.697265625,6.404296875 0.0,6.0 0.0,0.0 Z" fill="rgb(145,126,145)" stroke="none" stroke-width="0.0" /><path d="M 0.0,0.0 C 3.0625,-0.0625 4.72265625,-0.03515625 6.0,0.0 C 6.0,2.0 7.9375,2.5625 9.02734375,2.87890625 C 10.0,3.0 11.0,2.0 13.5625,1.9375 C 14.94140625,1.96484375 16.0,2.0 16.0,6.0 C 0.0,6.0 -1.0,1.0 0.0,0.0 Z" fill="rgb(193,175,196)" stroke="none" stroke-width="0.0" /><path d="M 0.0,0.0 C 3.5,-0.125 5.40625,-0.1328125 7.0,0.0 C 8.0,1.0 8.1875,3.9375 8.23046875,5.52734375 C 7.14453125,8.17578125 4.78125,9.265625 3.5,9.25 C 2.21875,9.265625 -0.14453125,8.17578125 -1.23046875,5.52734375 C -1.1875,3.9375 -1.16796875,2.33984375 -1.0,1.0 Z" fill="rgb(241,244,249)" stroke="none" stroke-width="0.0" /><path d="M 0.0,0.0 C 3.5,-0.125 5.40625,-0.1328125 7.0,0.0 C 8.0,1.0 8.1875,3.9375 8.23046875,5.52734375 C 7.14453125,8.17578125 4.78125,9.265625 3.5,9.25 C 2.21875,9.265625 -0.14453125,8.17578125 -1.23046875,5.52734375 C -1.1875,3.9375 -1.16796875,2.33984375 -1.0,1.0 Z" fill="rgb(241,244,249)" stroke="none" stroke-width="0.0" /><path d="M 0.0,0.0 C 3.625,0.375 5.5390625,0.7109375 7.0,1.0 C 7.0625,4.4375 7.09765625,6.37109375 7.0,8.0 C 6.0,9.0 2.4375,9.0625 0.49609375,9.03515625 C -1.0,9.0 -1.625,5.625 -1.9765625,3.7265625 Z" fill="rgb(230,234,245)" stroke="none" stroke-width="0.0" /><path d="M 0.0,0.0 C 0.816650390625,0.985595703125 2.0,2.0 4.93359375,2.23046875 C 6.650390625,2.224609375 8.4375,2.1875 10.212890625,2.185546875 C 18.0,1.0 18.0,6.0 -1.0,6.0 C -1.0625,3.5625 -1.09765625,2.19140625 -1.0,1.0 Z" fill="rgb(142,123,142)" stroke="none" stroke-width="0.0" /><path d="M 0.0,0.0 C 3.5,-0.125 5.40625,-0.1328125 7.0,0.0 C 8.0,1.0 8.125,4.0 8.1328125,5.625 C 8.0,7.0 7.0,8.0 3.5,8.125 C 1.59375,8.1328125 0.0,8.0 -1.0,7.0 C -1.125,4.0 -1.1328125,2.375 -1.0,1.0 Z" fill="rgb(241,244,249)" stroke="none" stroke-width="0.0" /><path d="M 0.0,0.0 C 2.9375,-0.0625 4.58984375,-0.09765625 6.0,0.0 C 7.0,1.0 10.375,0.5625 17.0,0.0 C 18.6875,0.0 20.0,0.0 20.0,3.0 C 17.0,3.0 17.0,5.0 4.0,5.0 C 4.0,3.0 2.0,3.0 1.0,5.0 Z" fill="rgb(155,137,155)" stroke="none" stroke-width="0.0" /><path d="M 0.0,0.0 C 15.0,0.0 16.0,4.0 1.0,4.0 Z" fill="rgb(144,125,144)" stroke="none" stroke-width="0.0" /><path d="M 0.0,0.0 C 2.0,0.0 2.0,2.0 6.0,2.0 C 4.0,7.0 2.0,6.0 -0.875,6.4375 C -8.0,7.0 -8.0,2.0 0.0,2.0 Z" fill="rgb(162,139,163)" stroke="none" stroke-width="0.0" /><path d="M 0.0,0.0 C -2.0,6.0 -4.0,4.0 -6.875,4.375 C -14.0,5.0 -14.0,0.0 0.0,0.0 Z" fill="rgb(167,145,167)" stroke="none" stroke-width="0.0" /><path d="M 0.0,0.0 C 15.0,1.0 14.0,5.0 10.0625,5.875 C 8.970703125,6.015625 6.0,6.0 4.0,4.0 Z" fill="rgb(177,177,177)" stroke="none" stroke-width="0.0" /><path d="M 0.0,0.0 C 0.0,2.0 8.0,2.0 7.0,6.0 C -4.0,6.0 -4.0,1.0 0.0,0.0 Z" fill="rgb(159,142,159)" stroke="none" stroke-width="0.0" /><path d="M 0.0,0.0 C 2.98046875,0.70703125 7.0,1.0 7.75,6.25 C 7.0,7.0 4.0,7.0 4.0,5.0 C 2.0,5.0 2.0,7.0 -1.0,7.0 C -2.0,2.0 -1.3125,0.625 0.0,0.0 Z" fill="rgb(202,205,213)" stroke="none" stroke-width="0.0" /><path d="M 0.0,0.0 C 7.0,0.0 7.0,7.0 0.0,7.0 Z" fill="rgb(87,46,90)" stroke="none" stroke-width="0.0" /><path d="M 0.0,0.0 C 7.0,0.0 7.0,7.0 0.0,7.0 Z" fill="rgb(97,59,102)" stroke="none" stroke-width="0.0" /><path d="M 0.0,0.0 C 5.0,0.0 7.0,6.0 6.0,8.0 Z" fill="rgb(166,156,171)" stroke="none" stroke-width="0.0" /><path d="M 0.0,0.0 C 2.5,-0.125 3.84375,-0.1328125 5.0,0.0 C 6.0,1.0 6.125,3.5 6.1328125,4.84375 C 6.0,6.0 5.0,7.0 2.5,7.125 C 1.15625,7.1328125 0.0,7.0 -1.0,6.0 C -1.125,3.5 -1.1328125,2.15625 -1.0,1.0 Z" fill="rgb(197,203,212)" stroke="none" stroke-width="0.0" /><path d="M 0.0,0.0 C 1.6875,0.5625 9.0,0.0 9.0,2.0 C 7.0,2.0 7.0,6.0 -1.0,5.0 Z" fill="rgb(126,112,133)" stroke="none" stroke-width="0.0" /><path d="M 0.0,0.0 C 6.0,2.0 6.0,1.0 15.0,1.0 C 11.0,5.0 2.91357421875,5.30126953125 0.97265625,3.87109375 Z" fill="rgb(167,167,167)" stroke="none" stroke-width="0.0" /><path d="M 0.0,0.0 C 5.0,1.0 5.0,8.0 0.0,7.0 C -1.0,6.0 -1.125,3.5 -1.1328125,2.15625 Z" fill="rgb(72,51,82)" stroke="none" stroke-width="0.0" /><path d="M 0.0,0.0 C 0.0,2.0 7.0,2.0 7.0,6.0 C -4.0,6.0 -4.0,1.0 0.0,0.0 Z" fill="rgb(138,109,139)" stroke="none" stroke-width="0.0" /><path d="M 0.0,0.0 C 2.0,0.0 1.5625,2.875 1.31640625,4.4921875 C 0.0,8.0 -2.0,8.0 -2.0,5.0 C -4.0,5.0 -4.0,8.0 -6.0,8.0 C -7.125,4.5 -7.38671875,3.48828125 -8.0,1.0 C -6.0,1.0 -5.0,3.0 -4.625,2.0 C -4.0,1.0 -2.0,1.0 -2.0,3.0 Z" fill="rgb(118,103,126)" stroke="none" stroke-width="0.0" /><path d="M 0.0,0.0 C 12.0,1.0 11.0,5.0 7.0,5.0 C 7.0,2.0 5.0,2.0 4.625,3.5 C 4.0,5.0 0.0,5.0 0.0,0.0 Z" fill="rgb(152,152,152)" stroke="none" stroke-width="0.0" /><path d="M 0.0,0.0 C 6.0,1.0 5.0,6.0 -4.0,5.0 C -4.0,2.0 0.0,2.0 0.0,0.0 Z" fill="rgb(212,185,212)" stroke="none" stroke-width="0.0" /><path d="M 0.0,0.0 C 1.13671875,0.21875 11.0,1.0 12.0,5.0 C 8.97265625,4.12109375 8.0,4.0 7.0,5.0 C 3.4375,5.0625 1.49609375,5.03515625 0.0,5.0 Z" fill="rgb(163,163,163)" stroke="none" stroke-width="0.0" /><path d="M 0.0,0.0 C 11.0,1.0 9.0,2.0 9.0,5.0 Z" fill="rgb(160,160,160)" stroke="none" stroke-width="0.0" /><path d="M 0.0,0.0 C 9.0,0.0 8.0,5.0 -1.0,4.0 Z" fill="rgb(168,168,168)" stroke="none" stroke-width="0.0" /><path d="M 0.0,0.0 C 2.125,0.5 11.0,1.0 10.0,5.0 C 4.0,4.5546875 2.0,3.0 2.0,5.0 Z" fill="rgb(166,151,166)" stroke="none" stroke-width="0.0" /><path d="M 0.0,0.0 C 4.4375,0.375 5.712890625,0.46875 6.93359375,0.5859375 C 8.060302734375,0.68115234375 9.0,1.0 10.0,3.0 C 9.0,5.0 6.4375,5.125 5.05859375,5.0703125 C 4.0,5.0 4.0,2.0 2.0,2.0 C 1.0,4.0 3.0,5.0 -1.0,4.0 Z" fill="rgb(168,143,172)" stroke="none" stroke-width="0.0" /><path d="M 0.0,0.0 C 3.0,0.0 4.0,2.0 7.0,2.0 C 7.0,0.0 11.0,1.0 11.0,5.0 C 4.0,4.0 4.0,6.0 0.0,6.0 C 0.5625,4.125 1.0,2.0 0.0,0.0 Z" fill="rgb(171,171,171)" stroke="none" stroke-width="0.0" /><path d="M 0.0,0.0 C 4.0,0.0 4.0,2.0 7.0,2.0 C 8.0,6.0 0.0,6.0 0.0,0.0 Z" fill="rgb(175,161,175)" stroke="none" stroke-width="0.0" /><path d="M 0.0,0.0 C 3.02734375,0.78125 5.0,1.0 11.0,1.0 C 10.0,5.0 1.0,5.0 0.0,0.0 Z" fill="rgb(172,151,172)" stroke="none" stroke-width="0.0" /><path d="M 0.0,0.0 C 0.8046875,0.9921875 2.0,2.0 5.125,2.125 C 6.7578125,2.0703125 8.0,2.0 7.0,6.0 C -1.0,6.0 -1.0,1.0 0.0,0.0 Z" fill="rgb(160,143,160)" stroke="none" stroke-width="0.0" /><path d="M 0.0,0.0 C 1.8125,0.5625 4.0,1.0 7.0,0.0 C 12.0,0.0 10.0,2.0 8.0,1.0 C 8.0,4.0 -1.0,4.0 0.0,0.0 Z" fill="rgb(151,151,151)" stroke="none" stroke-width="0.0" /><path d="M 0.0,0.0 C 6.0,0.0 6.0,5.0 5.0,6.0 C 2.4375,6.0625 0.0,6.0 0.0,0.0 Z" fill="rgb(254,254,254)" stroke="none" stroke-width="0.0" /><path d="M 0.0,0.0 C 2.0,0.0 2.0,8.0 -3.0,7.0 C -4.0,2.0 -2.5625,2.125 -1.0,2.0 Z" fill="rgb(175,166,180)" stroke="none" stroke-width="0.0" /><path d="M 0.0,0.0 C 8.0,1.0 8.0,5.0 0.0,5.0 Z" fill="rgb(177,128,178)" stroke="none" stroke-width="0.0" /><path d="M 0.0,0.0 C 3.875,0.4375 4.98046875,0.556640625 10.0,2.0 C 8.0,5.0 3.875,5.1875 2.74609375,5.146484375 Z" fill="rgb(152,152,152)" stroke="none" stroke-width="0.0" /><path d="M 0.0,0.0 C 7.0,0.0 7.0,3.0 4.0,3.0 C 4.0,5.0 -1.0,4.0 0.0,0.0 Z" fill="rgb(183,187,194)" stroke="none" stroke-width="0.0" /><path d="M 0.0,0.0 C 1.0,0.0 1.0,9.0 -8.0,9.0 C -4.0,6.0 -2.0,6.0 -0.9375,3.0 Z" fill="rgb(45,45,45)" stroke="none" stroke-width="0.0" /><path d="M 0.0,0.0 C 6.0,2.0 5.0,6.0 -1.0,5.0 Z" fill="rgb(173,173,173)" stroke="none" stroke-width="0.0" /><path d="M 0.0,0.0 C 1.625,0.0625 3.0,1.0 3.0,6.0 C 0.0,7.0 -2.0,6.0 -3.0,8.0 C -2.625,5.125 -2.4140625,3.5078125 -1.0625,0.80078125 Z" fill="rgb(203,207,213)" stroke="none" stroke-width="0.0" /><path d="M 0.0,0.0 C 3.0,4.0 3.0,6.0 5.5,7.0625 C 8.0,8.0 8.0,9.0 0.0,9.0 Z" fill="rgb(19,19,19)" stroke="none" stroke-width="0.0" /><path d="M 0.0,0.0 C 2.5625,0.4375 3.94140625,0.74609375 5.0,1.0 C 5.0,5.0 0.0,6.0 -1.0,1.0 Z" fill="rgb(175,152,179)" stroke="none" stroke-width="0.0" /><path d="M 0.0,0.0 C 5.0625,-0.1875 6.494140625,-0.146484375 10.0,0.0 C 9.0,4.0 5.0,4.0 5.0,1.0 C 3.0,1.0 3.0,4.0 -1.0,3.0 Z" fill="rgb(153,153,153)" stroke="none" stroke-width="0.0" /><path d="M 0.0,0.0 C 9.0,0.0 9.0,8.0 6.0,5.0 C 6.0,3.0 3.0,1.9375 0.0,1.0 Z" fill="rgb(19,19,19)" stroke="none" stroke-width="0.0" /><path d="M 0.0,0.0 C 0.0,5.0 -3.0,5.0 -3.0,2.0 C -5.0,2.0 -5.0,5.0 -10.0,4.0 C -9.0,1.0 -5.0,0.3125 -3.8828125,0.208984375 Z" fill="rgb(133,140,152)" stroke="none" stroke-width="0.0" /><path d="M 0.0,0.0 C 3.5625,0.4375 5.50390625,0.74609375 7.0,1.0 C 6.0,4.0 2.9375,4.6875 1.27734375,4.88671875 C 0.0,5.0 -0.5625,3.0625 -0.87890625,1.97265625 Z" fill="rgb(151,124,151)" stroke="none" stroke-width="0.0" /><path d="M 0.0,0.0 C 0.76953125,0.765625 0.76953125,3.765625 -6.23046875,3.765625 C -6.23046875,-0.234375 -4.98046875,-1.109375 0.0,0.0 Z" fill="rgb(187,144,188)" stroke="none" stroke-width="0.0" /><path d="M 0.0,0.0 C 7.0,0.0 7.0,4.0 0.0,4.0 Z" fill="rgb(159,143,159)" stroke="none" stroke-width="0.0" /><path d="M 0.0,0.0 C 3.0625,-0.0625 4.72265625,-0.03515625 6.0,0.0 C 7.0,4.0 0.0,5.0 -1.0,1.0 Z" fill="rgb(196,158,196)" stroke="none" stroke-width="0.0" /><path d="M 0.0,0.0 C 8.0,0.0 5.6875,1.75 0.0,8.0 Z" fill="rgb(11,11,11)" stroke="none" stroke-width="0.0" /><path d="M 0.0,0.0 C 7.0,0.0 7.0,4.0 0.0,5.0 Z" fill="rgb(152,152,152)" stroke="none" stroke-width="0.0" /><path d="M 0.0,0.0 C 4.0,1.0 4.0,6.0 -1.0,5.0 Z" fill="rgb(121,106,128)" stroke="none" stroke-width="0.0" /><path d="M 0.0,0.0 C 7.0,1.0 7.9375,3.0625 8.0,5.0 C 5.0,5.0 3.4375,5.3125 2.0,5.0 Z" fill="rgb(159,159,159)" stroke="none" stroke-width="0.0" /><path d="M 0.0,0.0 C 1.6171875,0.59765625 3.25,1.1875 4.4921875,1.66015625 C 3.4921875,4.66015625 3.4921875,2.66015625 1.4921875,2.66015625 C 1.4921875,4.66015625 -3.5078125,4.66015625 -3.5078125,0.66015625 Z" fill="rgb(194,156,195)" stroke="none" stroke-width="0.0" /><path d="M 0.0,0.0 C 4.0,1.0 4.0,6.0 -1.0,5.0 Z" fill="rgb(93,75,102)" stroke="none" stroke-width="0.0" /><path d="M 0.0,0.0 C 3.0,1.0 3.0,6.0 -1.0,6.0 C -1.0625,3.5625 -1.09765625,2.19140625 -1.0,1.0 Z" fill="rgb(201,205,212)" stroke="none" stroke-width="0.0" /><path d="M 0.0,0.0 C 3.0,1.0 3.0,6.0 -1.0,6.0 C -1.0625,3.5625 -1.09765625,2.19140625 -1.0,1.0 Z" fill="rgb(201,204,212)" stroke="none" stroke-width="0.0" /><path d="M 0.0,0.0 C 3.0625,-0.0625 4.72265625,-0.03515625 6.0,0.0 C 5.0,4.0 -2.0,4.0 0.0,0.0 Z" fill="rgb(151,151,151)" stroke="none" stroke-width="0.0" /><path d="M 0.0,0.0 C 4.0,2.0 3.0,6.0 -1.0,5.0 Z" fill="rgb(121,106,128)" stroke="none" stroke-width="0.0" /><path d="M 0.0,0.0 C 4.0,1.0 3.0,6.0 -1.0,4.0 Z" fill="rgb(124,109,131)" stroke="none" stroke-width="0.0" /><path d="M 0.0,0.0 C 1.3515625,0.30859375 2.375,0.5625 2.375,3.5625 C -4.625,2.5625 -4.625,0.5625 0.0,0.0 Z" fill="rgb(181,168,181)" stroke="none" stroke-width="0.0" /><path d="M 0.0,0.0 C 0.0,5.0 -5.0,5.0 -6.0,3.0 Z" fill="rgb(142,122,142)" stroke="none" stroke-width="0.0" /><path d="M 0.0,0.0 C 5.0,0.0 5.0,4.0 -1.0,4.0 Z" fill="rgb(182,161,185)" stroke="none" stroke-width="0.0" /><path d="M 0.0,0.0 C 6.0,0.0 7.0,4.0 4.0,5.0 C 4.0,3.0 2.0,3.0 1.0,5.0 Z" fill="rgb(120,97,120)" stroke="none" stroke-width="0.0" /><path d="M 0.0,0.0 C 6.0,0.0 5.0,4.0 -1.0,4.0 Z" fill="rgb(175,152,179)" stroke="none" stroke-width="0.0" /><path d="M 0.0,0.0 C 1.0546875,0.515625 2.125,1.0 2.9296875,1.765625 C 2.9296875,4.765625 -3.0703125,4.765625 -3.0703125,0.765625 Z" fill="rgb(151,133,151)" stroke="none" stroke-width="0.0" /><path d="M 0.0,0.0 C 2.0,2.0 2.0,5.0 -4.0,5.0 Z" fill="rgb(148,130,148)" stroke="none" stroke-width="0.0" /><path d="M 0.0,0.0 C 5.0,1.0 5.0,6.0 3.0,6.0 C 3.0,2.0 1.0,2.0 0.0,6.0 Z" fill="rgb(102,85,110)" stroke="none" stroke-width="0.0" /><path d="M 0.0,0.0 C 2.0,0.0 3.0,2.0 3.375,1.0 C 4.0,0.0 6.0,0.0 6.0,3.0 C 4.0,3.0 4.0,7.0 2.0,7.0 C 0.875,3.5 0.61328125,2.48828125 0.0,0.0 Z" fill="rgb(81,62,91)" stroke="none" stroke-width="0.0" /><path d="M 0.0,0.0 C 4.0,1.0 3.0,6.0 -1.0,4.0 Z" fill="rgb(97,80,106)" stroke="none" stroke-width="0.0" /><path d="M 0.0,0.0 C 5.0,1.0 5.0,5.0 4.0625,4.4375 C 3.0,4.0 2.0,5.0 0.0,5.0 Z" fill="rgb(111,94,118)" stroke="none" stroke-width="0.0" /><path d="M 0.0,0.0 C 4.0,1.0 3.0,6.0 -1.0,4.0 Z" fill="rgb(98,81,107)" stroke="none" stroke-width="0.0" /><path d="M 0.0,0.0 C 7.0,0.0 7.0,4.0 4.625,4.0625 C 3.2890625,4.09765625 0.8359375,3.68359375 0.0,3.0 Z" fill="rgb(180,160,180)" stroke="none" stroke-width="0.0" /><path d="M 0.0,0.0 C 2.0,0.0 2.0,6.0 -2.0,5.0 Z" fill="rgb(202,168,202)" stroke="none" stroke-width="0.0" /><path d="M 0.0,0.0 C 0.0,5.0 -5.0,4.0 -5.0,1.0 Z" fill="rgb(151,151,151)" stroke="none" stroke-width="0.0" /><path d="M 0.0,0.0 C 6.0,0.0 5.0,5.0 2.0,5.0 Z" fill="rgb(125,103,125)" stroke="none" stroke-width="0.0" /><path d="M 0.0,0.0 C 5.0,0.0 4.0,6.0 0.0,6.0 Z" fill="rgb(109,93,117)" stroke="none" stroke-width="0.0" /><path d="M 0.0,0.0 C 2.0625,0.4375 3.16015625,0.74609375 4.0,1.0 C 1.0,2.0 2.0,4.0 4.0,5.0 C 0.0,6.0 -0.5625,3.5625 -0.87890625,2.19140625 Z" fill="rgb(105,89,114)" stroke="none" stroke-width="0.0" /><path d="M 0.0,0.0 C 3.0,0.0 4.0,5.0 0.0,5.0 Z" fill="rgb(165,142,166)" stroke="none" stroke-width="0.0" /><path d="M 0.0,0.0 C 5.0,2.0 4.0,5.0 0.0,5.0 Z" fill="rgb(183,163,187)" stroke="none" stroke-width="0.0" /><path d="M 0.0,0.0 C 5.0,0.0 3.0,4.0 -1.0,4.0 Z" fill="rgb(157,157,157)" stroke="none" stroke-width="0.0" /><path d="M 0.0,0.0 C 3.0,0.0 3.0,5.0 -1.0,5.0 Z" fill="rgb(194,155,194)" stroke="none" stroke-width="0.0" /><path d="M 0.0,0.0 C 4.0,0.0 4.0,2.0 2.0,2.0 C 2.0,6.0 0.0,6.0 -0.8125,0.75 Z" fill="rgb(138,124,144)" stroke="none" stroke-width="0.0" /><path d="M 0.0,0.0 C 5.0,0.0 6.0,4.0 0.0,2.0 Z" fill="rgb(157,157,157)" stroke="none" stroke-width="0.0" /><path d="M 0.0,0.0 C -1.0,6.0 -4.0,6.0 -4.125,3.5625 C -4.1953125,2.19140625 -4.0,1.0 0.0,0.0 Z" fill="rgb(175,162,175)" stroke="none" stroke-width="0.0" /><path d="M 0.0,0.0 C 6.0,1.0 4.0,5.0 3.0,3.0 C 1.0,3.0 0.0,5.0 0.0,0.0 Z" fill="rgb(129,107,129)" stroke="none" stroke-width="0.0" /><path d="M 0.0,0.0 C 5.0,0.0 4.0,4.0 -1.0,3.0 Z" fill="rgb(165,150,165)" stroke="none" stroke-width="0.0" /><path d="M 0.0,0.0 C 5.0,1.0 3.0,6.0 0.0,4.0 Z" fill="rgb(173,153,174)" stroke="none" stroke-width="0.0" /><path d="M 0.0,0.0 C 4.0,1.0 4.0,4.0 2.0,3.0 C 2.0,5.0 0.0,5.0 0.0,0.0 Z" fill="rgb(153,135,153)" stroke="none" stroke-width="0.0" /><path d="M 0.0,0.0 C 4.0,0.0 4.0,2.0 2.0,2.0 C 2.0,6.0 0.0,6.0 0.0,0.0 Z" fill="rgb(131,117,138)" stroke="none" stroke-width="0.0" /><path d="M 0.0,0.0 C 3.0,1.0 4.0,5.0 0.0,6.0 Z" fill="rgb(92,74,101)" stroke="none" stroke-width="0.0" /><path d="M 0.0,0.0 C 1.0,0.0 1.0,5.0 -4.0,5.0 C -2.0625,2.5 -0.97265625,1.09375 0.0,0.0 Z" fill="rgb(0,0,0)" stroke="none" stroke-width="0.0" /><path d="M 0.0,0.0 C 6.0,0.0 4.0,1.0 4.0,4.0 Z" fill="rgb(147,147,147)" stroke="none" stroke-width="0.0" /><path d="M 0.0,0.0 C 2.0,0.0 1.0,5.0 -3.0,4.0 C -2.0,1.0 1.0,3.0 0.0,0.0 Z" fill="rgb(249,250,250)" stroke="none" stroke-width="0.0" /><path d="M 0.0,0.0 C 4.0,1.0 2.5,1.375 1.0,2.0 C 1.0,4.0 3.0,5.0 -1.0,4.0 Z" fill="rgb(160,166,175)" stroke="none" stroke-width="0.0" /><path d="M 0.0,0.0 C 1.0,4.0 -5.0,4.0 -4.0,2.0 C -1.9375,0.875 -0.83984375,0.3671875 0.0,0.0 Z" fill="rgb(66,18,67)" stroke="none" stroke-width="0.0" /><path d="M 0.0,0.0 C 3.0,1.0 3.0,4.0 0.0,5.0 C -0.5625,3.0625 -0.87890625,1.97265625 -1.0,1.0 Z" fill="rgb(228,225,229)" stroke="none" stroke-width="0.0" /><path d="M 0.0,0.0 C 2.0,0.0 3.0,5.0 -1.0,5.0 Z" fill="rgb(186,169,187)" stroke="none" stroke-width="0.0" /><path d="M 0.0,0.0 C 2.5625,-0.125 3.94140625,-0.0703125 5.0,0.0 C 4.0,4.0 -1.0,2.0 0.0,0.0 Z" fill="rgb(205,210,218)" stroke="none" stroke-width="0.0" /><path d="M 0.0,0.0 C 2.0,0.0 2.0,2.0 4.0,2.0 C 4.0,4.0 -1.0,3.0 0.0,0.0 Z" fill="rgb(154,160,170)" stroke="none" stroke-width="0.0" /><path d="M 0.0,0.0 C 2.0,0.0 3.0,5.0 -1.0,5.0 Z" fill="rgb(196,181,196)" stroke="none" stroke-width="0.0" /><path d="M 0.0,0.0 C 3.0,1.0 3.0,4.0 -1.0,4.0 Z" fill="rgb(161,161,161)" stroke="none" stroke-width="0.0" /><path d="M 0.0,0.0 C 2.0,0.0 2.0,5.0 -1.0,4.0 Z" fill="rgb(191,150,191)" stroke="none" stroke-width="0.0" /><path d="M 0.0,0.0 C 4.0,1.0 2.0,1.0 3.0,5.0 Z" fill="rgb(156,130,156)" stroke="none" stroke-width="0.0" /><path d="M 0.0,0.0 C 3.0,0.0 3.0,4.0 0.0,4.0 Z" fill="rgb(169,147,170)" stroke="none" stroke-width="0.0" /><path d="M 0.0,0.0 C 3.0,0.0 3.0,3.0 -1.0,4.0 Z" fill="rgb(189,177,189)" stroke="none" stroke-width="0.0" /><path d="M 0.0,0.0 C 4.0,0.0 4.0,2.0 2.0,2.0 Z" fill="rgb(158,141,158)" stroke="none" stroke-width="0.0" /><path d="M 0.0,0.0 C 2.0,0.0 1.0,5.0 -1.0,4.0 Z" fill="rgb(195,156,195)" stroke="none" stroke-width="0.0" /><path d="M 0.0,0.0 C 4.0,1.0 3.0,5.0 1.0,4.0 Z" fill="rgb(188,180,191)" stroke="none" stroke-width="0.0" /><path d="M 0.0,0.0 C 1.0,2.0 3.0,3.0 -1.0,4.0 Z" fill="rgb(219,215,221)" stroke="none" stroke-width="0.0" /><path d="M 0.0,0.0 C 2.0,0.0 2.0,4.0 -1.0,4.0 Z" fill="rgb(150,150,150)" stroke="none" stroke-width="0.0" /><path d="M 0.0,0.0 C 2.0,0.0 2.0,5.0 0.0,5.0 C -0.5625,3.0625 -0.87890625,1.97265625 -1.0,1.0 Z" fill="rgb(176,164,176)" stroke="none" stroke-width="0.0" /><path d="M 0.0,0.0 C 3.0,1.0 3.0,4.0 0.0,4.0 Z" fill="rgb(146,146,146)" stroke="none" stroke-width="0.0" /><path d="M 0.0,0.0 C 3.0,1.0 2.0,4.0 0.0,4.0 Z" fill="rgb(170,170,170)" stroke="none" stroke-width="0.0" /><path d="M 0.0,0.0 C 3.0,0.0 2.0,5.0 0.0,3.0 Z" fill="rgb(181,133,181)" stroke="none" stroke-width="0.0" /><path d="M 0.0,0.0 C 3.0,0.0 2.0,5.0 0.0,3.0 Z" fill="rgb(183,137,184)" stroke="none" stroke-width="0.0" /><path d="M 0.0,0.0 C 3.0,2.0 2.0,5.0 0.0,4.0 Z" fill="rgb(163,153,168)" stroke="none" stroke-width="0.0" /><path d="M 0.0,0.0 C 2.0,2.0 2.0,7.0 0.0,6.0 C -0.6875,3.5 -0.94921875,2.15625 -1.0,1.0 Z" fill="rgb(56,33,67)" stroke="none" stroke-width="0.0" /><path d="M 0.0,0.0 C 4.0,0.0 4.0,2.0 1.0,3.0 Z" fill="rgb(244,240,244)" stroke="none" stroke-width="0.0" /><path d="M 0.0,0.0 C 2.0,4.0 -1.0,5.0 0.0,0.0 Z" fill="rgb(129,107,129)" stroke="none" stroke-width="0.0" /><path d="M 0.0,0.0 C 3.0,1.0 3.0,3.0 -1.0,2.0 Z" fill="rgb(105,88,113)" stroke="none" stroke-width="0.0" /><path d="M 0.0,0.0 C 2.0,0.0 0.0,4.0 -1.0,1.0 Z" fill="rgb(130,138,151)" stroke="none" stroke-width="0.0" /><path d="M 0.0,0.0 C 3.0,1.0 3.0,3.0 0.0,2.0 Z" fill="rgb(174,174,174)" stroke="none" stroke-width="0.0" /></svg>