<?xml version="1.0" encoding="utf-8" ?>
<svg baseProfile="full" height="265" version="1.1" width="506" xmlns="http://www.w3.org/2000/svg" xmlns:ev="http://www.w3.org/2001/xml-events" xmlns:xlink="http://www.w3.org/1999/xlink"><defs /><rect fill="rgb(204,51,0)" height="28.0" stroke="none" stroke-width="0.0" width="108.0" x="255.0" y="49.0" /><rect fill="rgb(204,51,0)" height="102.0" stroke="none" stroke-width="0.0" width="28.0" x="257.0" y="42.0" /><rect fill="rgb(204,51,0)" height="95.27407836914062" stroke="none" stroke-width="0.0" width="27.83710289001465" x="181.66225910186768" y="41.84770965576172" /><path d="M 0.0,0.0 C 0.0,264.0 505.0,264.0 505.0,0.0 C 248.0,0.0 247.0,160.0 245.0,0.0 Z" fill="rgb(0,0,0)" stroke="none" stroke-width="0.0" /><path d="M 265.0,188.0 C 265.0,211.0 267.0,201.0 286.0,201.0 C 290.0,211.0 287.0,201.0 291.0,196.0 Z" fill="rgb(0,0,0)" stroke="none" stroke-width="0.0" /><path d="M 174.0,188.0 C 174.0,211.0 200.0,209.0 202.0,204.0 Z" fill="rgb(0,0,0)" stroke="none" stroke-width="0.0" /><path d="M 90.0,188.0 C 90.0,211.0 93.0,201.0 111.0,201.0 C 116.0,211.0 113.0,201.0 117.0,196.0 Z" fill="rgb(0,0,0)" stroke="none" stroke-width="0.0" /><path d="M 246.0,1.0 C 221.0,20.0 221.0,158.0 246.0,158.0 Z" fill="rgb(204,51,0)" stroke="none" stroke-width="0.0" /></svg>