<?xml version="1.0" encoding="UTF-8"?>
<!-- Generator: visioncortex VTracer 0.6.4 -->
<svg version="1.1" xmlns="http://www.w3.org/2000/svg" width="506" height="265">
<path d="M0 0 C0.3648122034148287 0.7941911490702919 0.31507616663671456 1.6369152955419115 0.3243083953857422 2.498779296875 C0.3350047856569347 2.768919086456299 0.3457011759281272 3.039058876037598 0.3567216992378235 3.317384719848633 C0.39048635634395623 4.236277482133125 0.40965555828012157 5.154915335809139 0.428924560546875 6.07421875 C0.44981836101302974 6.734226351458891 0.4714651072854963 7.394172108329886 0.4939690828323364 8.054122924804688 C0.5476722882087586 9.686340864542482 0.590041482723592 11.318681706865018 0.628805220592767 12.951315343379974 C0.6613110702481322 14.309084472054465 0.698421664348416 15.66666296197949 0.7384300231933594 17.02423095703125 C1.1778800611834015 31.967983012918808 1.421642393374583 46.91729184342344 1.6061118906363845 61.866167187690735 C1.6329136422447164 64.03058026790835 1.660746493936358 66.19497997594898 1.68896484375 68.359375 C1.6936080653127306 68.7181372463703 1.6936080653127306 68.7181372463703 1.6983450893312693 69.08414721488953 C1.7994976117809358 76.8476380825198 1.99663961630759 84.60496276208589 2.2453883346170187 92.36501574516296 C2.5004257279821616 100.33569530591456 2.6647202667502086 108.30301831512757 2.7118037403561175 116.27777606248856 C2.7184720500176525 117.40215028150284 2.7261549121089104 118.5265155002546 2.7344398498535156 119.65087890625 C2.7360346933733695 119.87218298316002 2.7376295368932233 120.09348706007003 2.739272709004581 120.32149732112885 C2.764137582411081 123.4517552544497 2.8539708958813605 126.5746318841133 2.9921292760409415 129.70185372559354 C3.2219993161136244 134.90777274406292 3.3531777536577465 140.10205993125248 3.21044921875 145.3125 C3.205468496587116 145.5000112424232 3.2004877744242606 145.68752248484643 3.19535612128675 145.88071588613093 C2.862856718947228 157.3581770058118 2.862856718947228 157.3581770058118 -0.6117282211780548 160.56449827551842 C-6.399559474748457 164.83847244543531 -14.961431858797084 164.79059379600488 -21.654296875 163.09030151367188 C-25.017531871482475 162.11111299414986 -28.061795277106796 160.80007353208748 -29.631179809570313 157.5020637512207 C-32.579902387999425 150.20112582583434 -31.57156915325868 140.9365364616542 -31.248438764363527 133.18982023373246 C-31.13708682460981 130.47407927192066 -31.08879187221524 127.76292515334555 -31.08488655090332 125.04496574401855 C-31.084558213078424 124.85218331744429 -31.084229875253527 124.65940089087002 -31.083891587797552 124.46077657258138 C-31.082718967758666 123.67814507567344 -31.08192400407711 122.8955144684234 -31.081631821813062 122.11288213613443 C-31.078758662591213 114.96421054680371 -30.939127148269364 107.82486807007868 -30.716552734375 100.679931640625 C-30.506913438063634 93.95005863769244 -30.385817033936775 87.2265773468818 -30.367919921875 80.493408203125 C-30.367350885672494 80.28678794537672 -30.366781849469987 80.08016768762842 -30.366195569746196 79.86728620994836 C-30.364476511558166 79.2421661183177 -30.36278590347439 78.61704595435765 -30.36109870672226 77.99192577600479 C-30.35884310246803 77.16141118264281 -30.356533222199488 76.3308967627968 -30.354186058044434 75.50038242340088 C-30.35362798407209 75.2954184003966 -30.35306991009972 75.0904543773923 -30.352494924794883 74.87927932338789 C-30.334087674060243 68.44362530036622 -30.235759790562582 62.00904183973425 -30.123745398130268 55.57442384073511 C-30.08668544549363 53.4438570092315 -30.054428048312985 51.31344912193935 -30.03741717338562 49.182618379592896 C-30.035884805372916 48.99186521845404 -30.034352437360212 48.80111205731519 -30.032773633953184 48.60457849735394 C-30.03125132106709 48.41426455780398 -30.02972900818102 48.22395061825402 -30.02816056460142 48.02786958962679 C-29.998557913458058 44.335644810596136 -29.933677177403837 40.64762519852604 -29.79488467425108 36.957741625607014 C-29.73230766210557 35.27256927287349 -29.686506732869134 33.59213604632818 -29.688091278076172 31.905406951904297 C-29.68190774647593 25.373093538305593 -29.379431253918113 20.43234292655017 -24.156665861606598 16.004687249660492 C-22.296140683562356 14.5188876109575 -20.350852616445053 13.17441775744459 -18.350093007087708 11.885764002799988 C-16.545335744969123 10.720448446407048 -14.867827608748058 9.40092623177966 -13.17982941120863 8.075182981789112 C-12.094427716402322 7.2340542212323085 -10.980261507352793 6.431004780794086 -9.871337890625 5.621337890625 C-9.06401196566381 5.031736945163488 -8.262386513435388 4.434796154753198 -7.461600303649902 3.8363561630249023 C-6.8248815365437 3.3620854568860707 -6.185028098733653 2.8922005001343316 -5.544160842895508 2.423555374145508 C-5.246045329125991 2.2045792144572287 -4.949007537845091 1.9841266216083147 -4.653181076049805 1.7620677947998047 C-4.2486292095127 1.4591519943170312 -3.8391248792515853 1.1628846494519394 -3.429443359375 0.866943359375 C-3.2005894470214855 0.6986753845214844 -2.971735534667971 0.5304074096679687 -2.7359466552734375 0.3570404052734375 C-1.6838386799240936 -0.153383896839295 -1.1628593731539354 -0.21303821171506135 0 0 Z " fill="#DD390D" transform="translate(248,0)"/>
<path d="M0 0 C0.3757470474828324 1.3873037043858343 0.3841834917191136 2.789808320297551 0.428924560546875 4.2203521728515625 C0.4498388592920719 4.666730274667193 0.4715423373962153 5.113071986675422 0.4939690828323364 5.559376657009125 C0.5529194669165349 6.788212756467011 0.5989807890321117 8.017244114142805 0.6425845623016357 9.246708512306213 C0.6814494993702738 10.300408361168213 0.7275161921922972 11.353748902755772 0.7733722776174545 12.407163925468922 C1.2048551871681639 22.374824377859724 1.4320297406085842 32.35154361316083 1.6150035858154297 42.3264856338501 C1.6392209114149523 43.62367154416517 1.6638881019732708 44.92084799937345 1.68896484375 46.218017578125 C1.6951785327494235 46.54043847195804 1.701392221748847 46.86285936579108 1.7077942043542862 47.195050589740276 C1.8052439595585383 52.105134739136396 1.9906432701244512 57.006915752365586 2.22216796875 61.912353515625 C2.5715942479794194 69.41056895593366 2.803517042075441 76.90317936260871 2.8046875 84.41015625 C2.8050634290277685 84.84929472774267 2.8050634290277685 84.84929472774267 2.8054469525814056 85.29730468988419 C2.7934970066948495 106.3515121318035 2.7934970066948495 106.3515121318035 -2.4156173542141914 110.73203607648611 C-7.085739187911997 114.35056250998741 -13.284457199413453 114.81081533282472 -18.90316551923752 113.60969930887222 C-22.838722021209435 112.55729291061746 -26.943038408149675 110.54463937305249 -28.695429280400276 106.64716850593686 C-30.955350880712672 100.97965221318573 -30.784361621202095 94.37180122253271 -30.76953125 88.375 C-30.76897131741049 88.00874063745141 -30.76897131741049 88.00874063745141 -30.768400073051453 87.63508209586143 C-30.751462906492577 81.32802372167997 -30.481513664038857 75.03750388441252 -30.120289653539658 68.74183910340071 C-29.885890678145415 64.65626977483517 -29.717155177567406 60.57390062087836 -29.613525390625 56.48291015625 C-29.606734536066654 56.21561678409577 -29.599943681508307 55.94832341194153 -29.59294704347849 55.6729302406311 C-29.559196230989528 54.33092910275056 -29.5265370027534 52.98890378217248 -29.494287133216858 51.64686584472656 C-29.294219316713736 43.399530950219315 -29.012191362768476 35.15736559037508 -28.591126322746277 26.918269872665405 C-28.558643246398162 26.27715146916634 -28.527201999092767 25.635989952903486 -28.496036529541016 24.99480628967285 C-28.365073622797468 22.327077995200085 -28.203877693071945 19.663168108210876 -28 17 C-27.986026203334347 16.81189010858536 -27.972052406668638 16.623780217170715 -27.957655161619186 16.429970026016235 C-27.872762426122847 15.303194215239422 -27.775011166288436 14.178767821061854 -27.659138940274715 13.054741501808167 C-27.624770759359762 12.708855665144775 -27.59374667829104 12.362617696160441 -27.566424287855625 12.016104102134705 C-27.425899344844538 10.281815844068035 -27.311160687588767 9.052048612310063 -25.87673854827881 7.951299667358398 C-25.05280262846918 7.438782829837422 -24.242339799433978 7.0334566633803455 -23.30419921875 6.77197265625 C-23.051200561523444 6.696824340820314 -22.79820190429689 6.621676025390624 -22.53753662109375 6.54425048828125 C-22.2776495361328 6.467772827148437 -22.017762451171848 6.391295166015624 -21.75 6.3125 C-21.21647997936992 6.128738846073542 -20.6840948504925 5.941653147796266 -20.15283203125 5.75146484375 C-19.02930214594602 5.35323272142919 -17.901645514738505 4.973120184128387 -16.7685546875 4.60302734375 C-14.940989974061154 3.9948119798066237 -13.16367274990796 3.2829842533043454 -11.3828125 2.55078125 C-10.79076405172276 2.3099580985487957 -10.19864243539314 2.0693147424527343 -9.6064453125 1.828857421875 C-8.744602530074133 1.4788507420951795 -7.883043422144397 1.1283099471372644 -7.0228271484375 0.774322509765625 C-6.223817466424521 0.4484322504756033 -5.421388422007794 0.13313186369036778 -4.6171875 -0.1796875 C-4.381218566894518 -0.2783158874511713 -4.145249633789035 -0.3769442749023444 -3.902130126953125 -0.4785614013671875 C-3.6803207397460938 -0.5628187561035158 -3.4585113525390625 -0.6470761108398442 -3.22998046875 -0.73388671875 C-3.0396725463867256 -0.8098507690429688 -2.849364624023451 -0.8858148193359376 -2.653289794921875 -0.964080810546875 C-1.546132171271779 -1.0249545678709353 -0.7728978365900048 -0.8272053785716924 0 0 Z " fill="#DD380D" transform="translate(324,10)"/>
<path d="M0 0 C0.8589514972023267 -0.1126023589814622 1.3910984850732007 -0.16221147706084338 2.191777765750885 0.17665493488311768 C2.7474174187086646 1.4080692574987808 2.7072996611504436 2.720080992628418 2.7409568428993225 4.048969388008118 C2.7622880443587974 4.46976228805503 2.784865372257002 4.890493585318993 2.808590531349182 5.311158299446106 C2.8700033534785803 6.4737918823179115 2.911907565909871 7.636451738544345 2.9504279494285583 8.800039887428284 C2.985784768868882 9.796173228721976 3.0322196762481894 10.791667124075872 3.0786514207720757 11.787336230278015 C3.516451664972294 21.208688553741794 3.7224153430121305 30.64452469264765 3.8889127373695374 40.074100613594055 C3.9109616363118676 41.301326321319266 3.933383630762137 42.528544484584074 3.956182062625885 43.75575649738312 C3.961830250099297 44.060799204111106 3.9674784375727086 44.36584191083908 3.973297782242298 44.68012833595276 C4.0621510756566295 49.32394825877181 4.241237945028217 53.95863199017768 4.468877375125885 58.59755337238312 C4.812166224984992 65.68538485587756 5.040473348964895 72.76729635454487 5.031621515750885 79.86415493488312 C5.0314181032777014 80.14098034948111 5.031214690804461 80.41780576407909 5.03100511431694 80.7030198276043 C4.984904222740113 100.03326528861697 4.984904222740113 100.03326528861697 0.18034619092941284 104.45069378614426 C-4.61791645775611 108.14460830206548 -10.814996226493975 108.65393795298408 -16.604390680789948 107.47920495271683 C-20.707102805688237 106.43989986083497 -24.889078049740817 104.45513834924469 -26.773703038692474 100.44559872150421 C-31.278870833116997 89.94868491888099 -29.664347351224734 76.15213885645187 -29.265946842730045 65.05380816757679 C-29.129527467877892 61.188775368056625 -29.129062083291274 57.34445491434002 -29.232294499874115 53.47865688800812 C-30.15557248070246 17.86427171453996 -30.15557248070246 17.86427171453996 -21.720736920833588 10.34958565235138 C-16.466873105881746 5.872396522912595 -9.92204740657138 2.925859046987604 -3.3911537528038025 0.8484231233596802 C-3.173375774025942 0.7778547996282583 -2.955597795248025 0.7072864758968365 -2.7312204837799072 0.6345797181129456 C-1.8305299020463508 0.36881791304762856 -0.9167791887974772 0.20038247036062273 0 0 Z " fill="#DC390D" transform="translate(283.8082222342491,42.82334506511688)"/>
<path d="M0 0 C0.15526652336120605 0.609142780303948 0.15526652336120605 0.609142780303948 0.19846725463867188 1.4836502075195313 C0.20771020412445296 1.6440457075834303 0.21695315361023404 1.8044412076473222 0.22647619247436523 1.9696971774101257 C0.2565417795808571 2.515182240121753 0.2792503637539596 3.0607290261753377 0.30194091796875 3.6065673828125 C0.32168389092902316 3.9984418632596572 0.3417993350029178 4.3902977288269796 0.3622581958770752 4.782135486602783 C0.4172248544147692 5.865084286845487 0.46527308556528624 6.948246140824281 0.5118598937988281 8.031584024429321 C0.5421295040675318 8.723843525477008 0.5742704524841997 9.41599120687129 0.6070289611816406 10.108137130737305 C1.0192587589316702 18.83706099328157 1.2719950969569709 27.57095492270848 1.4624813050031662 36.307315677404404 C1.4935968531993353 37.73435806153067 1.5257648859371216 39.16137495635152 1.55859375 40.58837890625 C1.5651106300950062 40.87248730957508 1.5716275101900123 41.156595712900156 1.5783418715000153 41.44931346178055 C1.6802336232106825 45.77453946604473 1.8647445470569437 50.09131362687083 2.091796875 54.41162109375 C2.4344103702770212 61.01273310242401 2.663364770133228 67.60811935195908 2.671875 74.21875 C2.6726877991855247 74.60548682138324 2.6726877991855247 74.60548682138324 2.673517018556595 75.00003650784492 C2.683958035961467 93.02315307708983 2.683958035961467 93.02315307708983 -1.9460569024085999 97.11850374937057 C-6.852919000771863 100.75099787375387 -13.320570467120262 101.13407427532883 -19.10765552520752 99.72157955169678 C-22.728255764082718 98.65450696063795 -26.18997775823317 96.91773753523006 -27.87964630126953 93.3780288696289 C-29.795708692605047 88.4291414662801 -29.871251090784284 82.91524640028369 -29.91796875 77.67578125 C-29.9199289959669 77.4604560226202 -29.921889241933826 77.2451307952404 -29.92390888929367 77.0232805609703 C-29.964321035839816 71.46496009544039 -29.742026480215998 65.92275637280056 -29.436640366911888 60.37404112517834 C-29.238872464641616 56.767698638479345 -29.1257508837451 53.16839856204312 -29.086669921875 49.556884765625 C-29.0840996130556 49.3207521352917 -29.08152930423617 49.0846195049584 -29.078881107270718 48.84133134037256 C-29.07376786525353 48.3655824680246 -29.06867062082 47.88983342346587 -29.063589472323656 47.41408420726657 C-29.059822649229318 47.06198426214978 -29.059822649229318 47.06198426214978 -29.05597972869873 46.70277118682861 C-29.053512464873506 46.468602356500924 -29.051045201048254 46.234433526173234 -29.048503171652555 45.9931686706841 C-29.00722022214407 42.32143413326065 -28.903503616061755 38.651100077435714 -28.78963389620185 34.980991426855326 C-28.75556303100592 33.87448870794125 -28.72449885214195 32.76806334015373 -28.70030379295349 31.661297082901 C-28.34230036235465 15.285533034664866 -28.34230036235465 15.285533034664866 -24.770813703536987 12.4812912940979 C-23.288065649833896 11.47489860718953 -21.66192754258276 10.842518336526389 -19.95821189880371 10.316019058227539 C-18.66957580555504 9.91442969842722 -17.588873869862454 9.233664717575643 -16.455322265625 8.514404296875 C-16.096729872731316 8.309813851561131 -15.736609906737812 8.107873750605755 -15.374893188476563 7.9088592529296875 C-15.202073841094972 7.8133345603942885 -15.029254493713381 7.71780986785889 -14.851198196411133 7.619390487670898 C-14.586476182937616 7.473280477523801 -14.586476182937616 7.473280477523801 -14.31640625 7.32421875 C-13.926603510795076 7.107284321786288 -13.536870614100536 6.890224356270124 -13.147201538085938 6.6730499267578125 C-12.352546949447913 6.2307779610705865 -11.557107903531914 5.789967254796771 -10.760986328125 5.350341796875 C-9.741769192507917 4.787356597053744 -8.724811464385027 4.220412866599965 -7.708359718322754 3.6524534225463867 C-6.913976647018075 3.209130399013702 -6.118490620338008 2.767818980023584 -5.32264518737793 2.327127456665039 C-4.946323425599132 2.118428610196432 -4.570346792094483 1.9091061034236532 -4.194734573364258 1.6991329193115234 C-3.6772395148590533 1.410230017730946 -3.1583199879854362 1.1240760230586204 -2.638916015625 0.838623046875 C-2.4106915283203136 0.7101448059082003 -2.4106915283203136 0.7101448059082003 -2.1778564453125 0.579071044921875 C-1.3577205841670548 0.13253476693233068 -0.9634810895160797 0 0 0 Z " fill="#DD390D" transform="translate(210,42)"/>
<path d="M0 0 C0.25129354476928256 -0.004241065979016412 0.25129354476928256 -0.004241065979016412 0.5076637268066406 -0.00856781005859375 C1.3952609490692112 -0.023435042357732527 2.282701127652217 -0.0327408420041877 3.17041015625 -0.037109375 C3.8922820406085066 -0.04148337429930393 4.61295054340485 -0.05533146052601978 5.33447265625 -0.078125 C9.695661828645086 -0.21306434188909407 14.159407189509125 -0.2365617369585209 17.3828125 3.203125 C18.043806543145934 4.216062762793911 18.581705113547116 5.254538789258788 18.66796875 6.4765625 C18.52681640625002 6.836210937499999 18.52681640625002 6.836210937499999 18.3828125 7.203125 C17.54380386404813 7.40209242048806 16.780967415344264 7.242837133555099 15.9453125 7.078125 C15.70377441406248 7.032041015624998 15.462236328125016 6.9859570312499955 15.21337890625 6.9384765625 C13.864891694001813 6.591266911468807 13.864891694001813 6.591266911468807 13.3828125 6.203125 C13.3983154296875 5.7303314208984375 13.3983154296875 5.7303314208984375 13.463134765625 5.182861328125 C13.436628417968734 4.859548339843741 13.410122070312525 4.53623535156251 13.3828125 4.203125 C12.610375381108895 3.865865698008406 11.798344339808352 3.948396195887767 10.96875 3.97265625 C10.71830429077147 3.9725253295898426 10.467858581542941 3.9723944091796852 10.209823608398438 3.972259521484375 C9.391925697209672 3.9754480842183284 8.575425481381615 3.99427110397221 7.7578125 4.015625 C7.203369287727639 4.025805540566182 6.648925928593144 4.035978086047692 6.094482421875 4.046142578125 C4.756404018425769 4.075432739907342 3.41960523855721 4.121905892627439 2.08233642578125 4.1763916015625 C1.4687348435487593 4.19984134355866 0.8555924142928575 4.216568120225418 0.24169921875 4.2294921875 C-0.07395996093748636 4.238837890625007 -0.3896191406249727 4.248183593750014 -0.71484375 4.2578125 C-0.9727368164062682 4.264096679687498 -1.2306298828124795 4.2703808593749955 -1.496337890625 4.27685546875 C-3.4961735673763314 4.53237443315939 -3.4961735673763314 4.53237443315939 -5.0345306396484375 5.72833251953125 C-5.683831352886386 6.958157299372402 -6.122969224810049 8.300404541564404 -5.923614501953125 9.697540283203125 C-5.451843450093747 10.4759319788663 -4.962378320886785 10.491018054307602 -4.083740234375 10.657958984375 C-1.949036116358343 10.905437137793257 0.2215671142673159 10.860571387160803 2.3668212890625 10.83514404296875 C4.218802163304588 10.814864305724626 6.07026416231389 10.825613366521594 7.921875 10.8671875 C8.218865747451787 10.873685998916613 8.218865747451787 10.873685998916613 8.521856307983398 10.880315780639648 C11.926997468056243 10.978198672487792 14.957001084692024 11.585964592644814 17.3828125 14.203125 C18.050251225318902 15.19259641769068 18.257364640098274 15.95782694110585 18.3203125 17.140625 C18.346254882812502 17.400048828124994 18.372197265625005 17.65947265624999 18.39892578125 17.9267578125 C18.55716895642388 20.406413004060028 18.165237570580928 22.409409312276807 16.3828125 24.203125 C12.946927506881707 26.658323345867842 8.478948142295508 26.547472941929982 4.4443359375 26.518798828125 C3.7360100447855302 26.514152731935724 3.0293952133484936 26.52113544711071 2.3212890625 26.539306640625 C-1.8711569700595305 26.645847041543277 -6.635694667643179 26.69363024054809 -9.6171875 23.203125 C-10.09831245170983 22.1511192569306 -10.284377950231828 21.140890113404737 -10.05859375 20 C-9.6171875 19.203125 -9.6171875 19.203125 -8.70703125 18.84375 C-8.175537109375 18.781982421875 -8.175537109375 18.781982421875 -7.6171875 18.765625 C-7.332103271484357 18.750760498046873 -7.332103271484357 18.750760498046873 -7.041259765625 18.735595703125 C-6.4921875 18.76953125 -6.4921875 18.76953125 -5.6171875 19.203125 C-5.624298095703125 19.888946533203125 -5.624298095703125 19.888946533203125 -5.72705078125 20.70751953125 C-5.77632225197641 21.50695186766032 -5.77632225197641 21.50695186766032 -5.6171875 22.203125 C-4.796974148416666 22.702712958575177 -3.9206777936864228 22.598880513466696 -2.984375 22.56640625 C-2.572897186279306 22.567154006957992 -2.572897186279306 22.567154006957992 -2.153106689453125 22.567916870117188 C-1.5661910651621724 22.56556406669273 -0.9792677043589038 22.55576334723557 -0.392578125 22.539306640625 C0.48405380667378495 22.516249889710593 1.357529380676624 22.518657168878917 2.234375 22.525390625 C8.132427256006622 22.521049215437984 8.132427256006622 22.521049215437984 13.3828125 20.203125 C14.257296439964023 18.987149997647606 14.547578645963256 17.75696480398426 14.20556640625 16.29052734375 C13.765572825594518 15.43133349821477 13.476654309487913 15.236154596283768 12.55755615234375 14.91265869140625 C9.865291243060426 14.369673083637963 7.01883217460346 14.49651848268104 4.28643798828125 14.5128173828125 C2.4276357041837855 14.52010493970917 0.5694234876351061 14.488495879643125 -1.2889156341552734 14.450368881225586 C-1.9356975750896481 14.441589779808595 -2.58120469261155 14.44679045071905 -3.2279815673828125 14.453933715820313 C-5.819772890785259 14.450118223965575 -7.724530071113804 14.168960173612248 -9.6171875 12.203125 C-10.00537109375 11.289306640625 -10.00537109375 11.289306640625 -10.015625 10.36328125 C-10.019718780517564 10.196428222656237 -10.023812561035129 10.029575195312503 -10.028030395507813 9.857666015625 C-10.034038864431011 9.32507036203188 -10.015451883636388 8.797688393852354 -9.9921875 8.265625 C-9.988531799316434 8.085710144042963 -9.98487609863281 7.905795288085926 -9.981109619140625 7.720428466796875 C-9.9198895776575 5.172447486188446 -9.63887757424294 3.3315652180459665 -7.56640625 1.67578125 C-5.160981559467473 0.3511069000702207 -2.7058451547071627 0.036069957838293476 0 0 Z " fill="#000000" transform="translate(356.6171875,186.796875)"/>
<path d="M0 0 C1.1713623691773591 0.029009307859752198 2.3390469643993583 0.08904762992676751 3.508544921875 0.16015625 C3.8011205673217887 0.1766320800781216 4.093696212768577 0.19310791015624318 4.395137786865234 0.2100830078125 C16.435423502703998 0.9321235692630978 16.435423502703998 0.9321235692630978 19.196044921875 3.78515625 C19.68543743791207 4.703360020012582 19.881626367956926 5.505293196797908 20.008544921875 6.53515625 C20.04786132812501 6.793210449218748 20.087177734375018 7.0512646484374955 20.127685546875 7.317138671875 C20.38730899777761 9.703510891421246 19.793320312896753 11.681426998260946 18.87109375 13.8681640625 C18.772077636718734 14.105029296874989 18.673061523437525 14.341894531250006 18.571044921875 14.5859375 C18.475654296875007 14.793879394531245 18.380263671875014 15.001821289062491 18.281982421875 15.216064453125 C18.239443359375002 15.497764892578118 18.239443359375002 15.497764892578118 18.196044921875 15.78515625 C18.424571533203107 16.00582763671875 18.424571533203107 16.00582763671875 18.65771484375 16.23095703125 C19.421436664194914 17.01719219334069 19.394070049893855 17.806851647959377 19.434326171875 18.8515625 C19.44643379211425 19.149086685180663 19.44643379211425 19.149086685180663 19.458786010742188 19.452621459960938 C19.472577478613005 19.87026330840706 19.483321937052438 20.288015523171424 19.4912109375 20.705810546875 C19.513742394551286 21.54010914670431 19.575616129978812 22.370807186803745 19.6412353515625 23.2027587890625 C19.612003408481485 24.179914622242535 19.54371137075168 24.8525103904137 19.196044921875 25.78515625 C17.817738538621825 26.278288876420618 16.57647181813394 26.271825175835147 15.196044921875 25.78515625 C14.794244760293566 24.687472696273375 14.936407104348518 23.60172972586068 15.015653610229492 22.454099655151367 C15.096766067190629 20.801959430972886 14.960695667811933 19.26528439759241 14.196044921875 17.78515625 C11.84797045001369 16.227908624864426 8.73175843427424 16.306567392803743 6.0029296875 16.260009765625 C4.851586939273716 16.23923334654856 3.721118669951011 16.14159299270696 2.576192855834961 16.023717880249023 C-1.2656565737527217 15.588308574015286 -1.2656565737527217 15.588308574015286 -4.803955078125 16.78515625 C-5.509413970724097 18.684546467911986 -5.2701196254480465 20.647821774081365 -4.9339752197265625 22.611923217773438 C-4.59211025764813 24.738241973618216 -4.59211025764813 24.738241973618216 -4.803955078125 25.78515625 C-6.009899807215106 26.464847354618854 -7.03783506855774 26.542533575100407 -8.34815788269043 26.076093673706055 C-9.789417466387249 25.156131123755273 -9.806814555295432 22.87992319507751 -9.98752212524414 21.340900421142578 C-10.015890312194813 21.07500484466553 -10.044258499145485 20.80910926818848 -10.073486328125 20.53515625 C-10.105238304138197 20.26983470916747 -10.136990280151394 20.004513168334967 -10.16970443725586 19.731151580810547 C-10.398768656699986 17.751795126033528 -10.525831061328176 15.77518175905783 -10.616455078125 13.78515625 C-10.631854591369631 13.500396804809583 -10.647254104614262 13.215637359619137 -10.66312026977539 12.922248840332031 C-11.096329360313291 4.105880703538276 -9.319548945151382 -0.001959532910461803 0 0 Z M-5.805861473083496 7.411084175109863 C-6.047786435607634 9.52294528296514 -5.989462526477723 11.944215086311573 -4.803955078125 13.78515625 C-2.8318332466814127 15.238227878977199 0.06981766992618077 14.695909812926317 2.3798828125 14.46142578125 C3.3041569021247597 14.37772696330208 4.22985358606752 14.348200511933385 5.156982421875 14.3125 C7.936507172074073 14.183862615610622 10.677961565045223 13.954278215000244 13.39892578125 13.343017578125 C13.569289741516116 13.30821352005006 13.739653701782231 13.273409461975092 13.915180206298828 13.237550735473633 C14.773286135883438 13.02761840991991 15.133956236376093 12.880379578864563 15.623672485351563 12.129318237304688 C15.86859346053501 11.356959985138019 15.952364338918585 10.655494287683581 16.008544921875 9.84765625 C16.046572265625002 9.582753906249991 16.084599609375005 9.31785156250001 16.123779296875 9.044921875 C16.316257927978143 7.394519995541344 16.234314115755012 6.13947586951798 15.196044921875 4.78515625 C14.450766244680267 4.530041078859142 14.007561681302207 4.4441129378494395 13.24658203125 4.415283203125 C12.95375587463377 4.393160171508782 12.95375587463377 4.393160171508782 12.655014038085938 4.3705902099609375 C12.011192792857742 4.326178934943982 11.368261126454627 4.297920268710328 10.723388671875 4.2734375 C10.503654499053937 4.2640382957458485 10.28392032623293 4.254639091491697 10.057527542114258 4.244955062866211 C8.897001524802533 4.197465599418109 7.736922712147191 4.163746242495364 6.57568359375 4.139892578125 C5.609343382420775 4.11751486350181 4.64990476028521 4.068678969391328 3.68603515625 3.996337890625 C-2.474309684523689 3.271367698365708 -2.474309684523689 3.271367698365708 -5.805861473083496 7.411084175109863 Z " fill="#000000" transform="translate(272.803955078125,186.21484375)"/>
<path d="M0 0 C1.4581145623269265 0.00030640123054581636 2.908839813886047 0.07190499926059601 4.363958358764648 0.16033554077148438 C4.802921905517579 0.18504928588868097 4.802921905517579 0.18504928588868097 5.250753402709961 0.21026229858398438 C17.544465053623 0.947440148935982 17.544465053623 0.947440148935982 20.05145835876465 3.7853355407714844 C20.41810587233924 4.582703600083192 20.432553070309382 5.230618534143389 20.37958335876465 6.097835540771484 C20.37677360534667 6.419416351318347 20.37677360534667 6.419416351318347 20.3739070892334 6.747493743896484 C20.36722273676493 7.198092915206189 20.353376343979832 7.648637550303363 20.33270835876465 8.098812103271484 C20.301521986024028 8.783937729417175 20.29173664682459 9.46675774447516 20.28583335876465 10.152523040771484 C20.27666060725629 10.592654890438808 20.266283880122913 11.032763634985912 20.25458335876465 11.472835540771484 C20.248208541870113 11.77604721069335 20.248208541870113 11.77604721069335 20.2417049407959 12.085384368896484 C20.177996265258884 13.369174283491446 19.901298104569122 14.248251550408128 19.22224998474121 15.34444808959961 C18.959287887717537 15.863958456847257 18.959287887717537 15.863958456847257 19.46942710876465 16.652523040771484 C19.569168319702143 16.81720077514649 19.668909530639652 16.981878509521493 19.77167320251465 17.151546478271484 C20.349586124941496 18.46067557654382 20.315859510626964 19.941510881387813 20.34662437438965 21.354183197021484 C20.358303790461378 21.728911504224186 20.379011923764438 22.103453650879203 20.40814781188965 22.477230072021484 C20.4225691986084 22.662693939208992 20.436990585327152 22.8481578063965 20.45184898376465 23.039241790771484 C20.46663291931152 23.20383895874022 20.481416854858395 23.368436126708986 20.49664878845215 23.538021087646484 C20.467568432152618 24.388484337915884 20.389722738240124 24.995945930673315 20.05145835876465 25.785335540771484 C18.669738032957554 26.24154127670988 17.42977372330384 26.25849606494998 16.05145835876465 25.785335540771484 C15.660734141024761 24.6863276653705 15.814228707611406 23.599377641255472 15.899768829345703 22.45427894592285 C15.988830229007618 20.791316451980038 15.850786538065194 19.261348085857918 15.051458358764648 17.785335540771484 C12.830008265065857 16.064175633872793 9.089901159776232 16.303263176524666 6.431097030639648 16.260189056396484 C5.219670537625987 16.23943172739584 4.028110552236896 16.141762559218535 2.8227806091308594 16.023897171020508 C-1.2082025148493756 15.584349330192651 -1.2082025148493756 15.584349330192651 -4.948541641235352 16.785335540771484 C-5.727832860129169 18.67488088362927 -5.502563926731995 20.630408270610644 -5.191965103149414 22.612102508544922 C-5.128797157150046 23.020061666581654 -5.06641997619262 23.428144265792554 -5.004938125610352 23.836360931396484 C-4.976395273208624 24.024446668624876 -4.947852420806882 24.212532405853267 -4.918444633483887 24.406317710876465 C-4.865686416625977 24.93014144897461 -4.865686416625977 24.93014144897461 -4.948541641235352 25.785335540771484 C-5.756332281328781 26.413038355067954 -6.186214560317211 26.417140160478226 -7.189767837524414 26.264568328857422 C-8.804983919493907 25.244416469979626 -8.80206823069588 23.1066071948473 -9.026378631591797 21.341079711914063 C-9.057411174774174 21.075184135437013 -9.088443717956537 20.809288558959963 -9.120416641235352 20.535335540771484 C-9.153085689544682 20.270013999938953 -9.185754737853998 20.00469245910645 -9.219413757324219 19.73133087158203 C-9.452082382865683 17.752527550631186 -9.593841671282831 15.774661160139516 -9.698541641235352 13.785335540771484 C-9.715330924987796 13.500576095581067 -9.732120208740241 13.215816650390622 -9.749418258666992 12.922428131103516 C-10.187508290913271 4.664987870646627 -8.91922611400662 0.20996994978298744 0 0 Z M-5.967655181884766 7.411263465881348 C-6.222638871417757 9.52369697826893 -6.176821241420498 11.961902346389138 -4.948541641235352 13.785335540771484 C-2.8327956827713194 15.255041816624043 0.2626935080528199 14.694019374890047 2.6988582611083984 14.461605072021484 C3.683536362412923 14.3778281445328 4.669562958509047 14.348374500133474 5.656927108764648 14.312679290771484 C8.562980884370745 14.186274072618033 11.42168514671124 13.983992252193417 14.265813827514648 13.343196868896484 C14.435059928894049 13.308392810821545 14.604306030273435 13.273588752746576 14.778680801391602 13.237730026245117 C15.634726993296312 13.026616067024833 15.99430565262847 12.869826166844234 16.495092391967773 12.129497528076172 C16.76131117383028 11.358082574323731 16.85631897539652 10.660283398118963 16.92645835876465 9.847835540771484 C16.996067733764647 9.45048202514647 16.996067733764647 9.45048202514647 17.06708335876465 9.045101165771484 C17.248758527573912 7.637118607499701 17.23152623882227 6.864588578066417 16.32977867126465 5.725276947021484 C14.724965621910457 4.2424762543074905 12.549802237308626 4.353122106338901 10.481145858764648 4.273616790771484 C10.262328758239747 4.264217586517333 10.043511657714845 4.254818382263181 9.818063735961914 4.245134353637695 C8.664018157512828 4.197804295380934 7.510411964268542 4.164016368520862 6.355657577514648 4.140071868896484 C5.396152784597177 4.117641246489683 4.443548476176417 4.068680118167919 3.4865169525146484 3.9965171813964844 C-2.643217038344602 3.279192688731655 -2.643217038344602 3.279192688731655 -5.967655181884766 7.411263465881348 Z " fill="#000000" transform="translate(97.94854164123535,186.21466445922852)"/>
<path d="M0 0 C0.29727745056152344 0.014441528320304542 0.5945549011230469 0.028883056640637506 0.9008407592773438 0.04376220703125 C2.952456311687911 0.14886585296449084 4.989975529355377 0.32079502983009434 7.03125 0.55078125 C7.446906566619873 0.5949640560150158 7.446906566619873 0.5949640560150158 7.870960235595703 0.6400394439697266 C12.127806664171374 1.133801873282664 12.127806664171374 1.133801873282664 12.9971923828125 2.427154541015625 C13.159065013336658 3.4453093836568485 13.121511234248374 3.85887834576738 12.5 4.6875 C11.194584254387905 5.024021244942645 9.945606438876212 4.901626725441105 8.610885620117188 4.790733337402344 C7.905033039017951 4.734277664730996 7.201281672498908 4.699446460539548 6.4937744140625 4.67120361328125 C4.484230889827813 4.5882594738297655 2.4777526222711117 4.475420090025352 0.47216796875 4.32421875 C-4.082345263005379 3.8564337455327404 -4.082345263005379 3.8564337455327404 -8.5 4.6875 C-9.694081866535214 6.044649266570389 -9.83122298069452 7.419129862300252 -9.7169189453125 9.1766357421875 C-9.467011014010154 10.235012948234498 -9.210633633893906 10.861710691636944 -8.5 11.6875 C-5.699470117614453 12.847877343490552 -2.1746439735204603 12.226481336496335 0.771240234375 11.9932861328125 C2.66424659534556 11.848377605682941 4.559634260610949 11.754938706058965 6.45635986328125 11.675437927246094 C7.123037672893872 11.640727169084727 7.785676293143922 11.58517439330791 8.45068359375 11.52716064453125 C9.527695384034814 11.454269226154992 10.453022629740758 11.397144987374844 11.5 11.6875 C12.041331984144335 12.548565965675266 12.072656319092403 13.017954502974902 11.92236328125 14.019134521484375 C11.5 14.6875 11.5 14.6875 10.70654296875 14.900543212890625 C9.732567273672885 14.937020389094016 8.76528272055424 14.85199649832245 7.79608154296875 14.760168075561523 C7.123869551369921 14.69911607979202 6.453980884239854 14.660511864753175 5.77978515625 14.628860473632813 C3.8652263680954775 14.536686553237985 1.954314799143674 14.417736502683681 0.044921875 14.248779296875 C-4.318661872368182 13.742248321781545 -4.318661872368182 13.742248321781545 -8.5 14.6875 C-9.865161863702099 16.50268388246934 -10.041673636405676 18.717321938354075 -9.5078125 20.895263671875 C-9.11154385190764 22.07561569868048 -8.74708054337583 22.574712862801647 -7.5947265625 23.100738525390625 C-4.757298597519821 23.740636241616244 -1.6306862028574187 23.30343602466982 1.23480224609375 23.06195068359375 C3.2219893567278746 22.901067305010855 5.2126870873293 22.80341863383785 7.2041778564453125 22.71437644958496 C7.904225427745303 22.67589254735165 8.599998780724718 22.615814295835207 9.2982177734375 22.552810668945313 C10.421792448162421 22.47150966293333 11.400894811877436 22.41318480429956 12.5 22.6875 C13.122789575470165 23.51490039770718 13.15883118140033 23.92874571407225 12.9971923828125 24.946609497070313 C11.801014876428042 26.729091660785542 8.996017852993134 26.61537095620892 7.03125 26.82421875 C6.754397392272949 26.85541116714478 6.477544784545898 26.88660358428956 6.192302703857422 26.91874122619629 C4.130946658439825 27.1407067121242 2.070488933711431 27.274417111803785 0 27.375 C-0.29324913024902344 27.391375122070315 -0.5864982604980469 27.40775024414063 -0.8886337280273438 27.42462158203125 C-10.373162951009704 27.90820304165524 -10.373162951009704 27.90820304165524 -12.977981567382813 25.18842315673828 C-16.594493118350158 20.212355191917794 -16.218425549815834 11.95284711495978 -14.850807189941406 6.2592315673828125 C-12.830157905047713 -0.7871892809305621 -6.231785076576557 -0.34798480479119576 0 0 Z " fill="#000000" transform="translate(320.5,186.3125)"/>
<path d="M0 0 C0.29727745056152344 0.014441528320304542 0.5945549011230469 0.028883056640637506 0.9008407592773438 0.04376220703125 C2.952456311687911 0.14886585296449084 4.989975529355405 0.32079502983009434 7.03125 0.55078125 C7.446906566619873 0.5949640560150158 7.446906566619873 0.5949640560150158 7.870960235595703 0.6400394439697266 C12.127806664171345 1.133801873282664 12.127806664171345 1.133801873282664 12.9971923828125 2.427154541015625 C13.159065013336658 3.4453093836568485 13.121511234248374 3.85887834576738 12.5 4.6875 C11.194584254387905 5.024021244942645 9.945606438876212 4.901626725441105 8.610885620117188 4.790733337402344 C7.905033039017951 4.734277664730996 7.201281672498936 4.699446460539548 6.4937744140625 4.67120361328125 C4.484230889827785 4.5882594738297655 2.4777526222711117 4.475420090025352 0.47216796875 4.32421875 C-4.082345263005379 3.8564337455327404 -4.082345263005379 3.8564337455327404 -8.5 4.6875 C-9.694081866535186 6.044649266570389 -9.83122298069452 7.419129862300252 -9.7169189453125 9.1766357421875 C-9.467011014010154 10.235012948234498 -9.210633633893906 10.861710691636944 -8.5 11.6875 C-5.699470117614453 12.847877343490552 -2.1746439735204888 12.226481336496335 0.771240234375 11.9932861328125 C2.6642465953455314 11.848377605682941 4.559634260610949 11.754938706058965 6.45635986328125 11.675437927246094 C7.123037672893844 11.640727169084727 7.785676293143922 11.58517439330791 8.45068359375 11.52716064453125 C9.527695384034814 11.454269226154992 10.453022629740758 11.397144987374844 11.5 11.6875 C12.041331984144335 12.548565965675266 12.072656319092403 13.017954502974902 11.92236328125 14.019134521484375 C11.5 14.6875 11.5 14.6875 10.70654296875 14.900543212890625 C9.732567273672913 14.937020389094016 8.76528272055424 14.85199649832245 7.79608154296875 14.760168075561523 C7.12386955136995 14.69911607979202 6.453980884239854 14.660511864753175 5.77978515625 14.628860473632813 C3.8652263680954775 14.536686553237985 1.9543147991437024 14.417736502683681 0.044921875 14.248779296875 C-4.31866187236821 13.742248321781545 -4.31866187236821 13.742248321781545 -8.5 14.6875 C-9.865161863702099 16.50268388246934 -10.041673636405648 18.717321938354075 -9.5078125 20.895263671875 C-9.111543851907669 22.07561569868048 -8.747080543375802 22.574712862801647 -7.5947265625 23.100738525390625 C-4.757298597519849 23.740636241616244 -1.6306862028574187 23.30343602466982 1.23480224609375 23.06195068359375 C3.221989356727846 22.901067305010855 5.2126870873293 22.80341863383785 7.2041778564453125 22.71437644958496 C7.904225427745303 22.67589254735165 8.59999878072469 22.615814295835207 9.2982177734375 22.552810668945313 C10.42179244816245 22.47150966293333 11.400894811877436 22.41318480429956 12.5 22.6875 C13.122789575470165 23.51490039770718 13.15883118140033 23.92874571407225 12.9971923828125 24.946609497070313 C11.801014876428042 26.729091660785542 8.996017852993162 26.61537095620892 7.03125 26.82421875 C6.754397392272949 26.85541116714478 6.477544784545898 26.88660358428956 6.192302703857422 26.91874122619629 C4.130946658439825 27.1407067121242 2.070488933711431 27.274417111803785 0 27.375 C-0.29324913024902344 27.391375122070315 -0.5864982604980469 27.40775024414063 -0.8886337280273438 27.42462158203125 C-10.373162951009704 27.90820304165524 -10.373162951009704 27.90820304165524 -12.977981567382813 25.18842315673828 C-16.594493118350186 20.212355191917794 -16.218425549815834 11.95284711495978 -14.850807189941406 6.2592315673828125 C-12.830157905047713 -0.7871892809305621 -6.231785076576529 -0.34798480479119576 0 0 Z " fill="#000000" transform="translate(146.5,186.3125)"/>
<path d="M0 0 C0.4337103652954113 0.021662292480471024 0.4337103652954113 0.021662292480471024 0.8761825561523438 0.04376220703125 C2.8888787229002446 0.15005752092662306 4.888226258989903 0.32214566376649145 6.890625 0.55078125 C7.15707195281982 0.58023645401002 7.423518905639639 0.6096916580200116 7.698040008544922 0.6400394439697266 C11.06613759122149 1.0457208709650274 14.641516294665024 1.753752579608431 16.75 4.6875 C17.36505466907721 6.004872401855295 17.316299960747983 7.388542558528002 17.28125 8.8125 C17.28395321352579 9.204599580160249 17.28784251298032 9.596692566304625 17.2928466796875 9.98876953125 C17.29870759088888 10.806320128675935 17.290314439696147 11.622109686774309 17.271484375 12.439453125 C17.248667344664142 13.479665240132903 17.261813168985526 14.51575560485719 17.28577423095703 15.555816650390625 C17.30034269046493 16.36432109598718 17.29558258529005 17.171871989548265 17.285263061523438 17.98040771484375 C17.282624680826075 18.36310333021831 17.285764052382234 18.745890176300406 17.295181274414063 19.12847900390625 C17.33370368755783 21.132531334303707 17.107455449622336 22.582712004000513 15.58016586303711 23.982699394226074 C13.004727587496745 26.011148269201783 10.07169136545707 26.472557911802028 6.890625 26.82421875 C6.617440681457509 26.85541116714478 6.344256362915047 26.88660358428956 6.062793731689453 26.91874122619629 C4.044549135046054 27.137619525446013 2.0272448739564197 27.273746318042782 0 27.375 C-0.2876900482177689 27.391375122070315 -0.5753800964355378 27.40775024414063 -0.8717880249023438 27.42462158203125 C-10.161067261225298 27.905588093804937 -10.161067261225298 27.905588093804937 -12.720016479492188 25.18842315673828 C-16.319259952576573 20.176207168031937 -15.968103328836207 11.976169776370881 -14.583641052246094 6.2592315673828125 C-12.572447151742608 -0.7216511039999602 -6.209372752076888 -0.3534332780199634 0 0 Z M-11.66796875 11.13232421875 C-11.925753435929295 14.803788974854143 -12.097791580602177 19.889259694329468 -9.25 22.6875 C-6.491991308840113 24.48476618081338 -2.498480553208509 24.0638824418987 0.625 23.875 C0.9756300354003997 23.85493896484374 0.9756300354003997 23.85493896484374 1.333343505859375 23.83447265625 C3.795548083276003 23.684587368359445 6.24614242112915 23.44484831553757 8.68701171875 23.086669921875 C8.956729164123544 23.049712600708006 8.956729164123544 23.049712600708006 9.231895446777344 23.012008666992188 C10.689760489025701 22.77819060760868 12.293586589701192 22.35362422039441 13.15966796875 21.089599609375 C13.792832781937278 18.992706728054827 13.903985809185372 17.00915543771538 13.88037109375 14.835693359375 C13.87503783348572 14.254125569647954 13.880330860873045 13.673340473596085 13.88671875 13.091796875 C13.892637393200971 10.659877850188394 13.862588912656435 7.893449530636445 12.75 5.6875 C11.520226954064725 4.824980372377411 10.151772092463148 4.489035002825119 8.68701171875 4.288330078125 C8.394136466979973 4.245352935791004 8.394136466979973 4.245352935791004 8.095344543457031 4.201507568359375 C5.61487850988587 3.854573463084904 3.1248318100605275 3.643026006796788 0.625 3.5 C0.2772703552246014 3.478972167968749 0.2772703552246014 3.478972167968749 -0.077484130859375 3.45751953125 C-6.588492571926224 3.1041095742824893 -10.896321544700385 3.9394053863673832 -11.66796875 11.13232421875 Z " fill="#000000" transform="translate(186.25,186.3125)"/>
<path d="M0 0 C0.2843912315368584 -0.004241065979016412 0.2843912315368584 -0.004241065979016412 0.5745277404785156 -0.00856781005859375 C1.578832734798766 -0.02345220036247042 2.5829982530729296 -0.03274767748666818 3.58740234375 -0.037109375 C4.4062173115299 -0.04148633087606868 5.223973334553733 -0.055347724393726594 6.04248046875 -0.078125 C15.688194670784782 -0.3408813810454774 15.688194670784782 -0.3408813810454774 18.9453125 3.203125 C19.649565417723835 4.267857741485756 19.90525842795674 5.126313348474241 20.0078125 6.390625 C20.041811523437502 6.6560107421875045 20.075810546875005 6.921396484375009 20.11083984375 7.19482421875 C20.158502837131238 7.931477017444365 20.157356260844267 8.496518531647297 19.9453125 9.203125 C18.885449939135555 9.894339713607252 18.14796585358772 9.916893148215195 16.921875 9.67578125 C16.015157605812533 9.35406936149974 15.976041763162272 9.279948157905665 15.59375 8.32421875 C15.493683136736507 7.7761841672563605 15.445255841062476 7.272719958065835 15.44970703125 6.71533203125 C15.405779538939925 6.050402181898704 15.334219101473167 5.751564438171556 14.9453125 5.203125 C14.334886018209033 4.978842572533097 13.789735615223975 4.8225743679529955 13.1591796875 4.68798828125 C12.980283241271962 4.646958265304562 12.801386795043953 4.605928249359124 12.617069244384766 4.563654899597168 C12.060801591571703 4.438311098898595 11.503444964776435 4.319857335308285 10.9453125 4.203125 C10.62296630859376 4.134094696044912 10.300620117187492 4.065064392089852 9.968505859375 3.9939422607421875 C7.5581308264152085 3.5098845263005387 5.146316890492102 3.1956147052960375 2.6953125 3.015625 C2.513192138671883 3.0016064453124898 2.3310717773437375 2.987587890625008 2.1434326171875 2.97314453125 C-0.3134035065826879 2.804008577803671 -2.9693792316309953 2.713295828967432 -5.0546875 4.203125 C-7.856446710945676 8.209175953843442 -7.519836975471634 14.810474498370667 -6.4007568359375 19.3531494140625 C-5.990132808968383 20.74179875144148 -5.540874040117927 21.855773531146127 -4.323486328125 22.72552490234375 C-2.0585509444034926 23.653651053156523 0.3008625967944454 23.574935676026428 2.6953125 23.390625 C2.877432861328117 23.377250976562493 3.0595532226562625 23.363876953124986 3.2471923828125 23.35009765625 C5.847685467529828 23.146385650941312 8.39428118908154 22.749427303195773 10.9453125 22.203125 C11.126858825683598 22.165154933929443 11.308405151367197 22.127184867858887 11.495452880859375 22.088064193725586 C12.051320986396433 21.96995347368977 12.605289377440926 21.845296820524908 13.1591796875 21.71826171875 C13.331016502380379 21.68158480644226 13.502853317260758 21.64490789413452 13.67989730834961 21.6071195602417 C14.625919610793602 21.3867454835964 14.625919610793602 21.3867454835964 15.289093017578125 20.71832275390625 C15.42821142598524 20.175234383504318 15.44978451643044 19.700620835233963 15.4453125 19.140625 C15.520214531073634 18.390929896190755 15.657063039488918 17.92374865127769 15.9453125 17.203125 C16.91944076748763 16.577209621001828 18.010606272394057 16.474939062768414 19.13671875 16.67578125 C19.9453125 17.203125 19.9453125 17.203125 20.11279296875 17.76123046875 C20.166297732664447 18.538428534270025 20.106800974841036 19.24295192861041 20.0078125 20.015625 C19.98670410156251 20.275854492187506 19.96559570312499 20.53608398437501 19.94384765625 20.80419921875 C19.52499586714299 23.006898756934135 18.136447299283816 24.166714620925973 16.293960571289063 25.264755249023438 C13.151627391781574 26.840276344955697 9.5831160842896 26.65306906250089 6.15234375 26.59423828125 C5.146458193855892 26.577134154384396 4.142950297513494 26.587297091564324 3.13714599609375 26.604549407958984 C-1.0427237568755743 26.665574269325873 -5.351397498442964 26.703297503950438 -8.64923095703125 23.713470458984375 C-10.138488260795555 21.838952177270528 -10.222356980244513 19.318216199245086 -10.2578125 17.0234375 C-10.263512573242195 16.728796081542953 -10.269212646484362 16.434154663085934 -10.27508544921875 16.130584716796875 C-10.284470834113193 15.510432090026626 -10.291043533056126 14.890231047108443 -10.294921875 14.27001953125 C-10.30459915019452 13.336646338738973 -10.335648826496453 12.405511077222513 -10.3671875 11.47265625 C-10.421149282838229 8.468983530460548 -10.265587522827673 5.95879857884583 -8.7265625 3.3203125 C-8.609841918945307 3.1176174926757767 -8.493121337890614 2.9149224853515534 -8.37286376953125 2.706085205078125 C-6.48838851670709 -0.09779108602404563 -3.0621220746427014 0.03134269003032841 0 0 Z " fill="#000000" transform="translate(228.0546875,186.796875)"/>
<path d="M0 0 C0.718725942805122 -0.1124948891347799 1.39114453165638 -0.11979703042032952 2.118682861328125 -0.10292243957519531 C2.3917828369140466 -0.10817939758300099 2.664882812500025 -0.11343635559080667 2.946258544921875 -0.11885261535644531 C3.8558649542877674 -0.13214014680411879 4.7637440073972925 -0.12329241556233228 5.673370361328125 -0.11317634582519531 C6.301140737975743 -0.11519479315506942 6.928908838484119 -0.11810430860242604 7.556671142578125 -0.12187385559082031 C8.875049648107847 -0.12630860056373194 10.192972358061752 -0.1201149850609795 11.511260986328125 -0.10585212707519531 C13.038554957700683 -0.08951945489687319 14.564648388770138 -0.09480752559304051 16.0919132232666 -0.11133134365081787 C17.55717413406859 -0.12655354241798022 19.021976176839985 -0.12498486976789991 20.487274169921875 -0.11618614196777344 C21.112479305717898 -0.11417594256377583 21.737714813164985 -0.11667221023427032 22.362884521484375 -0.12362480163574219 C23.235450100312164 -0.1311976422611849 24.1056687374155 -0.11971523855308419 24.978057861328125 -0.10292243957519531 C25.370788879394524 -0.11203147888184617 25.370788879394524 -0.11203147888184617 25.771453857421875 -0.12132453918457031 C26.97296112725047 -0.07818244691065956 26.97296112725047 -0.07818244691065956 27.548370361328125 0.2852611541748047 C27.837224772307138 1.3097064058176784 27.862436179034205 2.2645109300460717 27.548370361328125 3.2852611541748047 C26.625260907423012 3.478265153660516 25.806344916856688 3.116445558301706 24.923370361328125 2.8399486541748047 C20.427921833081882 1.6956138925718278 20.427921833081882 1.6956138925718278 16.066436767578125 2.7055492401123047 C13.535447192583717 5.5377051052509785 14.938488835674264 12.60465422106941 15.227958679199219 16.065982818603516 C15.28943668961358 16.802589411574814 15.345189815785773 17.539475060685447 15.400543212890625 18.27656364440918 C15.471966581845948 19.217406680014562 15.573975872899382 20.14813399126149 15.695220947265625 21.08375358581543 C15.914876493801614 23.175990930613068 15.914876493801614 23.175990930613068 15.548370361328125 24.285261154174805 C14.450614062875786 24.831358461072966 13.642701942018505 24.954003682013195 12.439849853515625 24.728742599487305 C11.548370361328125 24.285261154174805 11.548370361328125 24.285261154174805 11.273101806640625 23.452131271362305 C11.236184296791293 22.426416954326726 11.358916963925708 21.41250941691203 11.490585327148438 20.396455764770508 C11.61007958213986 19.45034694559081 11.679203742248262 18.502853496281915 11.750602722167969 17.552101135253906 C11.807110007710094 16.80374416495306 11.869614952539223 16.056023328557217 11.932159423828125 15.308149337768555 C12.819093818134263 8.7018875942955 12.819093818134263 8.7018875942955 11.030303955078125 2.7055492401123047 C8.254559708165402 1.1208420208197367 4.244548618597776 2.191374612664447 1.377838134765625 3.0890636444091797 C0.1936198790212984 3.420170115462298 0.1936198790212984 3.420170115462298 -0.451629638671875 3.2852611541748047 C-0.7677059507191757 2.257976590956389 -1.0266396670336349 0.6484526064340628 0 0 Z " fill="#000000" transform="translate(389.4516296386719,187.7147388458252)"/>
<path d="M0 0 C1.1676595802724137 0.11661859392233964 2.1830770427123696 0.530622560725476 3.10498046875 1.255615234375 C3.68718742384695 2.25279948725381 3.7088257727560006 3.1784059876976016 3.72998046875 4.318115234375 C3.7762898504995803 5.811179358745335 3.7762898504995803 5.811179358745335 4.10498046875 7.255615234375 C4.67868240129755 7.617028965244117 4.982872407341858 7.640894841951592 5.650390625 7.5419921875 C6.158957992889384 7.287809021703026 6.158957992889384 7.287809021703026 6.2978515625 6.69775390625 C6.418139702899964 5.623544361526655 6.4755475058119885 4.55694111266007 6.49560546875 3.476318359375 C6.657472574760305 1.6103503317563082 6.657472574760305 1.6103503317563082 7.5174560546875 0.92864990234375 C8.727185995154713 0.2072661985123716 9.731510703570848 -0.13950775317653097 11.10498046875 0.255615234375 C11.899452841041523 1.7488056742625702 11.673708225072744 3.7248956787289274 11.62646484375 5.362060546875 C11.605023580037681 6.253822196727981 11.62612946300277 7.137547689057925 11.65185546875 8.029052734375 C11.667535224026238 11.20092468352999 11.667535224026238 11.20092468352999 11.10498046875 12.255615234375 C9.776002311002998 12.487240418037544 8.789315964259316 11.980110632559473 7.58514404296875 11.4439697265625 C6.667800995773462 11.084122180656209 5.875490233783154 11.26330791620768 4.91748046875 11.380615234375 C4.223958641483847 11.443148617361118 3.804933243228163 11.410412482576902 3.10498046875 11.255615234375 C2.6348323991320513 10.390878606327703 2.4403983651386625 9.61864213247361 2.24560546875 8.657958984375 C2.1991992187500102 8.525185546875008 2.152792968749992 8.392412109374987 2.10498046875 8.255615234375 C1.8687238219219466 9.059796513001231 1.6970101562753541 9.84964781162114 1.584716796875 10.680419921875 C1.551442871093741 10.876679687500001 1.5181689453125102 11.072939453125002 1.48388671875 11.275146484375 C1.4588305664062489 11.461818847656247 1.4337744140624977 11.648491210937493 1.407958984375 11.8408203125 C1.0086740471640212 12.387464235402064 0.7632413332062526 12.393824704867342 0.102294921875 12.483154296875 C-0.4408721923828125 12.453445434570313 -0.4408721923828125 12.453445434570313 -0.89501953125 12.255615234375 C-1.2619047258956755 11.401791719687623 -1.223261250575348 10.513920808739698 -1.23095703125 9.595458984375 C-1.2376138305664028 9.326734771728525 -1.2442706298828057 9.058010559082021 -1.251129150390625 8.781143188476563 C-1.261280548819002 8.212075640530372 -1.2659453816460484 7.64288846295824 -1.265625 7.07373046875 C-1.2700267293027991 6.191672824574596 -1.3063224039656518 5.3145244457428475 -1.34423828125 4.433349609375 C-1.4245424604625327 0.406845596318675 -1.4245424604625327 0.406845596318675 0 0 Z " fill="#000000" transform="translate(181.89501953125,233.744384765625)"/>
<path d="M0 0 C0.8425766475288583 -0.046587487730221255 1.522349368192323 0.0008720684095351317 2.3386077880859375 0.214691162109375 C2.9228363037109375 0.860687255859375 2.9228363037109375 0.860687255859375 3.2175140380859375 1.738128662109375 C3.332885131835951 2.040252685546875 3.4482562255859364 2.342376708984375 3.5671234130859375 2.653656005859375 C3.677338256835924 2.962547607421868 3.7875531005859386 3.2714392089843614 3.9011077880859375 3.589691162109375 C4.442986894965884 5.014284251909629 4.442986894965884 5.014284251909629 5.3386077880859375 6.214691162109375 C6.148816003951822 5.323033443061206 6.299524532172995 3.79524013765149 6.5165863037109375 2.653656005859375 C6.581603393554701 2.351531982421875 6.646620483398436 2.049407958984375 6.7136077880859375 1.738128662109375 C6.762592163085941 1.4485729980468705 6.811576538085944 1.159017333984366 6.8620452880859375 0.860687255859375 C7.487334744503386 0.013086896391882874 7.826014196186833 0.04696451157383308 8.854965209960938 -0.044586181640625 C9.668289184570313 0 9.668289184570313 0 10.338607788085938 0.214691162109375 C10.828584174998724 1.0418774638768582 10.734844362370836 1.9004373926602511 10.701889038085938 2.839691162109375 C10.702387542724608 3.1060437011718705 10.702886047363279 3.372396240234366 10.703399658203125 3.646820068359375 C10.701051626885373 4.211837084664921 10.691278223740483 4.776863036000265 10.674789428710938 5.341644287109375 C10.651188251122107 6.2117248134767635 10.654212811826682 7.0787475975650125 10.660873413085938 7.949066162109375 C10.655296749799476 8.49595961876895 10.648186873560547 9.04284003958935 10.639389038085938 9.589691162109375 C10.640756149292002 9.983419189453116 10.640756149292002 9.983419189453116 10.64215087890625 10.385101318359375 C10.59346406841388 11.61222498566599 10.59346406841388 11.61222498566599 10.338607788085938 12.214691162109375 C9.643243562141407 12.490094557805406 9.046515392789871 12.43117994347159 8.338607788085938 12.214691162109375 C7.9597015380859375 11.706878662109375 7.9597015380859375 11.706878662109375 7.7761077880859375 11.089691162109375 C7.631732788085941 10.800941162109382 7.487357788085944 10.512191162109389 7.3386077880859375 10.214691162109375 C7.128470016096713 10.70501263008424 6.920647633476108 11.19639864291446 6.7214202880859375 11.691253662109375 C6.3386077880859375 12.214691162109375 6.3386077880859375 12.214691162109375 5.6432952880859375 12.425628662109375 C4.801259094256778 12.466504205499149 4.147143091152714 12.459977152927394 3.3386077880859375 12.214691162109375 C2.9557952880859375 11.691253662109375 2.9557952880859375 11.691253662109375 2.7136077880859375 11.089691162109375 C2.5898577880859364 10.800941162109382 2.4661077880859352 10.512191162109389 2.3386077880859375 10.214691162109375 C1.8996011670777193 11.029401594120486 1.8996011670777193 11.029401594120486 1.7175140380859375 11.706878662109375 C1.2551055497224297 12.326601378472844 1.0831984840824873 12.335781366268463 0.3337249755859375 12.410491943359375 C-0.20947265625 12.3936767578125 -0.20947265625 12.3936767578125 -0.6613922119140625 12.214691162109375 C-1.0180781067793419 11.371505398767596 -0.9653135044830776 10.494023421983371 -0.9621734619140625 9.589691162109375 C-0.9664585876464855 9.32333862304688 -0.9707437133789085 9.056986083984384 -0.97515869140625 8.782562255859375 C-0.9809190935049799 8.217649860453463 -0.9813894473395521 7.652663257704916 -0.9770660400390625 7.087738037109375 C-0.9739017925825237 6.217326582908726 -0.9973209811722654 5.350305745187683 -1.0227203369140625 4.480316162109375 C-1.024992957759224 3.933445496709652 -1.025696990508692 3.386565591818311 -1.0246734619140625 2.839691162109375 C-1.0338832092285202 2.5772058105468716 -1.0430929565429778 2.314720458984368 -1.052581787109375 2.044281005859375 C-1.0080646620429832 0.3272227429909833 -1.0080646620429832 0.3272227429909833 0 0 Z " fill="#000000" transform="translate(198.66139221191406,233.78530883789063)"/>
<path d="M0 0 C1.5827701254807778 1.131201703513625 2.3342245525251712 2.6282315780354963 2.484375 4.55126953125 C2.4638648094420716 7.098635198544116 2.271083723792003 10.423447434963265 0.23095703125 12.20703125 C-2.158596769804575 13.283513407900813 -5.224974907001808 12.619952313121502 -7.58154296875 11.70703125 C-9.294212050916599 10.61349606138657 -9.54803390567929 9.172932372195277 -9.79638671875 7.28125 C-9.988489797317811 5.030395178692487 -10.069053354146604 2.5942827245464173 -8.45654296875 0.83203125 C-6.339558530480872 -1.078483521712144 -2.482072681075067 -1.2504144489043085 0 0 Z M-7.01904296875 3.95703125 C-7.5716239128601615 5.625321756767391 -7.800385482956557 6.974268768844212 -7.01904296875 8.58203125 C-6.026621503585858 9.719043922009234 -5.094679375222995 9.898618212838045 -3.645751953125 9.85400390625 C-2.464571342564682 9.709232921037852 -1.4898097449255943 9.51284110325335 -0.58154296875 8.70703125 C0.23396582348698303 7.033431719095944 0.18311099902234673 5.12333495115513 -0.27294921875 3.34912109375 C-0.7364354746410982 2.384747001191755 -1.2952522427696351 2.04507626445411 -2.281005859375 1.6748046875 C-4.735373429574395 1.1106638220692844 -6.06424551787714 1.5652418365349092 -7.01904296875 3.95703125 Z " fill="#000000" transform="translate(174.58154296875,234.29296875)"/>
<path d="M0 0 C2.3507477889410495 -0.6080760862209615 4.95561171732794 -0.17244517697139372 7.23828125 0.58447265625 C7.421564788818358 0.6394995117187534 7.6048483276367165 0.6945263671875068 7.7936859130859375 0.751220703125 C8.599101524454397 1.0558475538218204 9.122262154413477 1.2691403610447196 9.4300537109375 2.1056976318359375 C9.521255700149425 2.7856326386686874 9.541683215896569 3.4374867550792203 9.5390625 4.12353515625 C9.543347625732423 4.368648376464847 9.547632751464846 4.613761596679694 9.552047729492188 4.866302490234375 C9.55778071805301 5.382353801657217 9.558298516931302 5.898485903818482 9.553955078125 6.41455078125 C9.550760280892149 7.2147246112658365 9.574342038301097 8.011311684032535 9.599609375 8.81103515625 C9.615458148275792 10.12944842320789 9.617398409042892 11.314694366598502 9.23828125 12.58447265625 C8.276524599267049 12.816119388230334 7.764048622313652 12.541679929372293 6.871337890625 12.144775390625 C6.23828125 11.58447265625 6.23828125 11.58447265625 6.202392578125 10.794189453125 C6.255485839843743 10.539357910156241 6.308579101562486 10.28452636718751 6.36328125 10.02197265625 C6.523193933801366 9.244541798990724 6.523193933801366 9.244541798990724 6.23828125 8.58447265625 C4.777880199128106 7.966266076433072 2.67609586092388 7.875034241336209 1.23828125 8.58447265625 C0.9532745836178265 9.567107580642215 0.9725517139058582 10.172196016253906 1.16015625 11.160888671875 C1.2578125 11.70947265625 1.2578125 11.70947265625 1.23828125 12.58447265625 C-0.045242378986870335 12.873499339228687 -0.045242378986870335 12.873499339228687 -0.76171875 12.58447265625 C-1.1753551963230677 11.753687730554276 -1.1855927409625053 10.875216506158182 -1.23828125 9.95947265625 C-1.2669830322265625 9.559060134887687 -1.2669830322265625 9.559060134887687 -1.2962646484375 9.150558471679688 C-1.3454412781211147 8.294738085821223 -1.3704145924342868 7.44152386142477 -1.38671875 6.58447265625 C-1.39394958496095 6.300687561035147 -1.4011804199218716 6.016902465820323 -1.40863037109375 5.724517822265625 C-1.4568295834968126 1.1178365457984967 -1.4568295834968126 1.1178365457984967 0 0 Z M0.978759765625 3.265625 C0.8862626606746176 4.164857724648016 0.8961921479632906 4.745045572096586 1.23828125 5.58447265625 C2.2332359878453474 6.082569548670705 3.2076957538840816 6.010639656346825 4.30078125 5.95947265625 C4.721942138671864 5.950771484374997 4.721942138671864 5.950771484374997 5.151611328125 5.94189453125 C5.893350746259813 5.89285390856341 6.534151080092414 5.822436925109571 7.23828125 5.58447265625 C7.678911598577088 4.906005263764769 7.678911598577088 4.906005263764769 7.42578125 4.08447265625 C6.950206883375586 3.1597447211469785 6.662936267355889 2.727738622312984 5.673828125 2.39404296875 C5.000039422321379 2.273502787995568 4.359909828216729 2.226884200128268 3.67578125 2.20947265625 C3.4420581054687602 2.1959375000000136 3.208334960937492 2.182402343749999 2.967529296875 2.16845703125 C1.638510123082483 2.200534427451373 1.638510123082483 2.200534427451373 0.978759765625 3.265625 Z " fill="#000000" transform="translate(228.76171875,233.41552734375)"/>
<path d="M0 0 C0.8295051899414148 -0.08142961289451023 1.6262368623092982 -0.06461077202800425 2.45703125 -0.0078125 C2.6713882446289006 0.004916992187503411 2.885745239257801 0.01764648437500682 3.106597900390625 0.03076171875 C3.7393790018431616 0.08093740433267271 4.360563041561619 0.15619596383197631 4.98828125 0.25 C5.1852409362792855 0.27780548095702784 5.382200622558599 0.3056109619140557 5.5851287841796875 0.334259033203125 C6.130859375 0.44970703125 6.130859375 0.44970703125 6.95703125 0.8671875 C7.230227189698468 1.655945916178041 7.137571369409557 2.015854865498511 6.95703125 2.8671875 C6.40625 3.046630859375 6.40625 3.046630859375 5.64453125 2.95703125 C5.373828124999989 2.937050781250008 5.103125000000006 2.9170703124999875 4.82421875 2.896484375 C4.245671936000548 2.8352418068514 3.667521852860034 2.7701289458368876 3.08984375 2.701171875 C2.0000633446861684 2.6160378004065876 2.0000633446861684 2.6160378004065876 0.95703125 2.8671875 C0.49103076616080443 3.9331636067821307 0.49103076616080443 4.801211393217869 0.95703125 5.8671875 C1.9453103893652326 6.237371990553044 2.92558042201307 6.052811134872314 3.95703125 5.9296875 C6.132936206376456 5.699355218581758 6.132936206376456 5.699355218581758 6.95703125 5.8671875 C7.335236324800036 6.439222675635051 7.349324672646645 6.7497878063778955 7.25 7.424072265625 C6.95703125 7.8671875 6.95703125 7.8671875 6.3828125 7.984130859375 C5.277379669139009 7.9435544558612605 4.187909765546465 7.83224732280172 3.08984375 7.701171875 C2.00014698203762 7.616377923554751 2.00014698203762 7.616377923554751 0.95703125 7.8671875 C0.4599126635141886 8.939978789232356 0.4406480418635397 9.799814076555293 0.95703125 10.8671875 C2.1065031246635044 11.237320804670532 3.2727456299787434 11.055155918995553 4.45703125 10.9296875 C5.113670035420824 10.867045544919108 5.767028019909787 10.819019974760806 6.42578125 10.77734375 C6.865673828125011 10.732991943359366 6.865673828125011 10.732991943359366 7.314453125 10.687744140625 C7.526503906250014 10.746960449218761 7.738554687499999 10.806176757812494 7.95703125 10.8671875 C8.254484682420127 12.104806245605204 8.254484682420127 12.104806245605204 7.95703125 12.8671875 C7.283363647024345 13.312952455778202 6.560280734595466 13.383900560782905 5.76953125 13.484375 C5.546709747314452 13.514355773925786 5.323888244628904 13.544336547851572 5.0943145751953125 13.575225830078125 C4.381629640246928 13.654123375939946 3.673006541245229 13.7039521386356 2.95703125 13.7421875 C2.606371002197278 13.763698730468747 2.606371002197278 13.763698730468747 2.248626708984375 13.78564453125 C0.7341940233749824 13.835640289605436 -0.7927447082157641 13.815655641961854 -2.04296875 12.8671875 C-3.9130049367590516 9.999776972296672 -3.5298258918929832 5.200401295271064 -2.63037109375 2.0537109375 C-2.0946049352403975 0.7077772428174853 -1.4097963549349402 0.24626244433014222 0 0 Z " fill="#000000" transform="translate(216.04296875,233.1328125)"/>
<path d="M0 0 C0.8295051899414148 -0.08142961289451023 1.6262368623092982 -0.06461077202800425 2.45703125 -0.0078125 C2.6713882446289006 0.004916992187503411 2.885745239257801 0.01764648437500682 3.106597900390625 0.03076171875 C3.7393790018431616 0.08093740433267271 4.360563041561619 0.15619596383197631 4.98828125 0.25 C5.1852409362792855 0.27780548095702784 5.382200622558599 0.3056109619140557 5.5851287841796875 0.334259033203125 C6.130859375 0.44970703125 6.130859375 0.44970703125 6.95703125 0.8671875 C7.230227189698468 1.655945916178041 7.137571369409557 2.015854865498511 6.95703125 2.8671875 C6.40625 3.046630859375 6.40625 3.046630859375 5.64453125 2.95703125 C5.373828124999989 2.937050781250008 5.103125000000006 2.9170703124999875 4.82421875 2.896484375 C4.245671936000548 2.8352418068514 3.667521852860034 2.7701289458368876 3.08984375 2.701171875 C2.0000633446861684 2.6160378004065876 2.0000633446861684 2.6160378004065876 0.95703125 2.8671875 C0.49103076616080443 3.9331636067821307 0.49103076616080443 4.801211393217869 0.95703125 5.8671875 C1.9453103893652326 6.237371990553044 2.92558042201307 6.052811134872314 3.95703125 5.9296875 C6.132936206376456 5.699355218581758 6.132936206376456 5.699355218581758 6.95703125 5.8671875 C7.335236324800036 6.439222675635051 7.349324672646645 6.7497878063778955 7.25 7.424072265625 C6.95703125 7.8671875 6.95703125 7.8671875 6.3828125 7.984130859375 C5.277379669139009 7.9435544558612605 4.187909765546465 7.83224732280172 3.08984375 7.701171875 C2.00014698203762 7.616377923554751 2.00014698203762 7.616377923554751 0.95703125 7.8671875 C0.4599126635141886 8.939978789232356 0.4406480418635397 9.799814076555293 0.95703125 10.8671875 C2.1065031246635044 11.237320804670532 3.2727456299787434 11.055155918995553 4.45703125 10.9296875 C5.113670035420824 10.867045544919108 5.767028019909787 10.819019974760806 6.42578125 10.77734375 C6.865673828125011 10.732991943359366 6.865673828125011 10.732991943359366 7.314453125 10.687744140625 C7.526503906250014 10.746960449218761 7.738554687499999 10.806176757812494 7.95703125 10.8671875 C8.254484682420127 12.104806245605204 8.254484682420127 12.104806245605204 7.95703125 12.8671875 C7.283363647024345 13.312952455778202 6.560280734595466 13.383900560782905 5.76953125 13.484375 C5.546709747314452 13.514355773925786 5.323888244628904 13.544336547851572 5.0943145751953125 13.575225830078125 C4.381629640246928 13.654123375939946 3.673006541245229 13.7039521386356 2.95703125 13.7421875 C2.606371002197278 13.763698730468747 2.606371002197278 13.763698730468747 2.248626708984375 13.78564453125 C0.7341940233749824 13.835640289605436 -0.7927447082157641 13.815655641961854 -2.04296875 12.8671875 C-3.9130049367590516 9.999776972296672 -3.5298258918929974 5.200401295271064 -2.63037109375 2.0537109375 C-2.0946049352403975 0.7077772428174853 -1.4097963549349402 0.24626244433014222 0 0 Z " fill="#000000" transform="translate(130.04296875,233.1328125)"/>
<path d="M0 0 C2.3934052348462274 -0.2578020514669106 5.569311857593959 0.3487303699358506 7.453125 1.96484375 C9.286609414981797 3.977461699778843 9.018650670538591 7.617503446135146 8.712890625 10.1328125 C8.361322182712343 11.504277512488386 7.745855238234697 12.217245473617794 6.515625 12.90234375 C5.144723385863415 13.419865518841846 3.8497001482854785 13.675388363442806 2.390625 13.77734375 C2.208534851074205 13.791684570312498 2.02644470214841 13.806025390624995 1.838836669921875 13.82080078125 C0.5295194579850886 13.876019588012184 -0.4120437206792644 13.72413033789067 -1.484375 12.90234375 C-3.090531950840159 9.734635326909597 -2.7463082153560094 4.748908548634574 -1.732177734375 1.44305419921875 C-1.3354111419565697 0.5773016765008094 -0.884111233422118 0.31156932021201555 0 0 Z M0.1943359375 3.67333984375 C-0.010030013486471034 4.767300779297813 -0.007610348297134806 5.855804931030747 0.015625 6.96484375 C0.015393371582035797 7.154537353515622 0.015161743164071595 7.344230957031243 0.014923095703125 7.5396728515625 C0.0250385112613003 8.713061056310522 0.10229695208346357 9.790311593257627 0.515625 10.90234375 C1.3345076903019049 11.481873341635094 2.0053652667448887 11.36953868887096 2.953125 11.15234375 C4.488564417030489 10.68599715739768 5.737619428351593 10.068159783353934 6.378173828125 8.53515625 C6.735405037367798 7.215367768250331 6.767015377994653 6.143497605150799 6 4.97265625 C5.653056580333214 4.545565635595125 5.653056580333214 4.545565635595125 5.265625 4.15234375 C5.144453124999984 4.024887695312486 5.023281250000025 3.897431640625001 4.8984375 3.76611328125 C3.8165426881329836 2.8207811723514737 2.57852927831658 2.5426335136396574 1.1572265625 2.60400390625 C0.4347562841286958 2.8521848201204136 0.4347562841286958 2.8521848201204136 0.1943359375 3.67333984375 Z " fill="#000000" transform="translate(361.484375,233.09765625)"/>
<path d="M0 0 C0.2654663085937443 -0.0012890625000068212 0.5309326171874886 -0.0025781250000136424 0.804443359375 -0.00390625 C2.155582418818568 0.07001369854276618 3.0429926637755216 0.21366342030532337 3.94140625 1.2734375 C4.590894595858828 2.2886660916828987 4.9527059729852 3.1663748651776586 5 4.375 C4.220198346029548 4.843971624066143 3.626646607527391 4.750071591631638 2.7265625 4.7109375 C2.4867968750000102 4.60007812500001 2.247031249999992 4.489218749999992 2 4.375 C1.987548828125 3.9033203125 1.987548828125 3.9033203125 2.05859375 3.3515625 C2.0392578125000114 3.029296875 2.0199218749999943 2.70703125 2 2.375 C0.615555585129755 1.8932698515604613 -1.2324015367268544 2.360360471755399 -2.52587890625 2.9560546875 C-3.374462901340422 3.705884829402777 -3.3575274025310478 4.562142223329374 -3.348876953125 5.64697265625 C-3.1173980197124536 7.70002374411709 -3.1173980197124536 7.70002374411709 -2 9.375 C-0.585225028207816 9.589630842749756 0.7494905803656025 9.216828983009549 2.117401123046875 8.8780517578125 C4.103937767061524 8.388464496362701 4.103937767061524 8.388464496362701 5 8.375 C5.571805641255139 9.349555701617447 5.469361805990985 9.773024679286294 5.126708984375 10.81494140625 C4.414394047783446 12.244627641006076 3.4772822378252215 12.787198105777577 1.9697265625 13.22119140625 C-0.20511029699656547 13.648827867386956 -2.049787863014643 13.698584769345416 -3.902587890625 12.36083984375 C-5.434828212398685 10.969165612654791 -6.106713782436202 9.711320859745626 -6.08984375 7.6171875 C-5.867694191844464 5.0866719360550405 -5.62453801833567 2.478864961135116 -3.60205078125 0.72802734375 C-2.4492139905817965 0.05203302124138531 -1.3138849797271064 -0.0064903240739795365 0 0 Z " fill="#000000" transform="translate(156,233.625)"/>
<path d="M0 0 C1.1696285397539157 0.8362700370230698 1.8724694936125559 1.6767008288299792 2.091796875 3.11181640625 C2.046357421875001 3.5514672851562636 2.046357421875001 3.5514672851562636 2 4 C1.3190539414760565 4.063316449962997 0.9426948700292996 3.9985510124102177 0.29296875 3.83203125 C-0.06731055523223972 3.7602112713381075 -0.42775014372557507 3.6891915625961644 -0.788330078125 3.618896484375 C-1.1714724999431212 3.538002887689288 -1.5545282284023187 3.456697683815065 -1.9375 3.375 C-3.9556687792492653 2.9331637253775114 -3.9556687792492653 2.9331637253775114 -6 3 C-6.885971587996636 4.18918031107313 -6.535787560199481 5.516986847019723 -6.258056640625 6.8818359375 C-5.94799106503288 7.782591022795884 -5.689195622824286 8.338898214359375 -5 9 C-3.745023204607776 9.201233072225733 -2.592821452233153 8.929814635892171 -1.375 8.625 C1.0824138168360378 8.013881787944996 1.0824138168360378 8.013881787944996 2 8 C2.531065626914568 8.981970404483548 2.405491143021351 9.41774231333443 2.056396484375 10.4443359375 C1.424273277440676 11.739306611651699 0.7003551596134798 12.331853221140477 -0.671875 12.74462890625 C-2.8766224813463452 13.193308462286183 -5.291332615625265 13.263581363935003 -7.20703125 11.9296875 C-8.998664783306424 10.210884598128786 -9.112088390619249 7.177423821818508 -9.08203125 4.84423828125 C-8.895790692611342 2.927512544791682 -8.17117796720862 1.4298956534961462 -6.5859375 0.29736328125 C-4.609273394894558 -0.7057937520910116 -2.061106650860552 -0.7941190228006008 0 0 Z " fill="#000000" transform="translate(251,234)"/>
<path d="M0 0 C0.8307844326968166 -0.08145197857629682 1.628863497015118 -0.06460827127074253 2.4609375 -0.0078125 C2.782608947753886 0.011281738281240905 2.782608947753886 0.011281738281240905 3.11077880859375 0.03076171875 C3.7434717362102674 0.08093278069637222 4.364559833226508 0.15618830325928457 4.9921875 0.25 C5.287619476318355 0.29170822143555597 5.287619476318355 0.29170822143555597 5.589019775390625 0.334259033203125 C6.134765625 0.44970703125 6.134765625 0.44970703125 6.9609375 0.8671875 C7.24999142980289 1.6649894758893993 7.15662095981628 2.0021180978434074 6.9609375 2.8671875 C6.318359375 3.046630859375 6.318359375 3.046630859375 5.4296875 2.95703125 C5.113867187499977 2.937050781250008 4.798046875000011 2.9170703124999875 4.47265625 2.896484375 C3.9650010869539756 2.8528230708896274 3.4583549837083183 2.804413896883773 2.95166015625 2.750732421875 C1.437640578901835 2.5969620695336744 1.437640578901835 2.5969620695336744 -0.0390625 2.8671875 C-0.5554457081364603 3.9345609234447068 -0.536181086485783 4.7943962107676725 -0.0390625 5.8671875 C0.950042067476204 6.23642526438411 1.9288705712992282 6.052884678425983 2.9609375 5.9296875 C5.136842456376485 5.699355218581758 5.136842456376485 5.699355218581758 5.9609375 5.8671875 C6.339142574800007 6.439222675635051 6.353230922646674 6.7497878063778955 6.25390625 7.424072265625 C5.9609375 7.8671875 5.9609375 7.8671875 5.38671875 7.984130859375 C4.281285919139009 7.9435544558612605 3.1918160155464648 7.83224732280172 2.09375 7.701171875 C1.00405323203762 7.616377923554751 1.00405323203762 7.616377923554751 -0.0390625 7.8671875 C-0.536181086485783 8.939978789232356 -0.5554457081364603 9.799814076555293 -0.0390625 10.8671875 C1.1104093746635044 11.237320804670532 2.276651879978715 11.055155918995553 3.4609375 10.9296875 C4.117576285420796 10.867045544919108 4.770934269909787 10.819019974760806 5.4296875 10.77734375 C5.722949218749989 10.747775878906253 6.016210937499977 10.718208007812507 6.318359375 10.687744140625 C6.530410156250014 10.746960449218761 6.742460937500027 10.806176757812494 6.9609375 10.8671875 C7.239457830333663 12.098458737111116 7.239457830333663 12.098458737111116 6.9609375 12.8671875 C6.222475544619272 13.240346466814714 5.788101909800844 13.37201013394386 4.9921875 13.484375 C4.791607360839862 13.514355773925786 4.591027221679667 13.544336547851572 4.384368896484375 13.575225830078125 C3.742946762096551 13.654111980542808 3.106008265003993 13.703896458064946 2.4609375 13.7421875 C2.250840454101535 13.756528320312498 2.0407434082031273 13.770869140624995 1.82427978515625 13.78564453125 C0.4343001701870435 13.836717758576128 -0.9316047856423211 13.794339331128896 -2.0390625 12.8671875 C-3.791545425690572 9.941066027942554 -3.4744141229032834 5.223822814883732 -2.6103515625 2.0537109375 C-2.090828563158368 0.7016288095022105 -1.4081701090046295 0.24571093389684506 0 0 Z " fill="#000000" transform="translate(260.0390625,233.1328125)"/>
<path d="M0 0 C2.1873517958713933 -0.3936335911609774 5.532990847102212 -0.17535369511330146 7.345947265625 1.187530517578125 C8.48550257069627 2.7409712130661035 8.470580198390792 5.3145183702816325 8.099609375 7.138458251953125 C7.599772709746901 8.004748202686727 7.156937186260336 8.03642770881359 6.189453125 8.217559814453125 C5.209791527411255 8.319096206449274 4.23713356321349 8.366602268454187 3.253173828125 8.406768798828125 C1.6760283957748925 8.382289439332226 1.6760283957748925 8.382289439332226 0.45263671875 9.154571533203125 C0.2744104130210303 10.127961356799773 0.47101841391173593 10.953514124290535 0.701171875 11.901153564453125 C0.717929687499975 12.178302001953114 0.7346875000000068 12.45545043945313 0.751953125 12.740997314453125 C-0.5287709671670768 13.02779415104797 -0.5287709671670768 13.02779415104797 -1.248046875 12.740997314453125 C-1.662119909566286 11.910555191570268 -1.6719466563094443 11.031598119803022 -1.724609375 10.115997314453125 C-1.7436985778808776 9.849055633544936 -1.7627877807616983 9.582113952636718 -1.7824554443359375 9.307083129882813 C-1.8315213940502986 8.451283500102306 -1.8564726133570275 7.598015986812072 -1.873046875 6.740997314453125 C-1.880610046386721 6.457212219238272 -1.888173217773442 6.173427124023448 -1.895965576171875 5.88104248046875 C-1.958036661988956 0.6517893327713864 -1.958036661988956 0.6517893327713864 0 0 Z M0.314453125 3.678497314453125 C0.10723116389357301 4.880384688870322 0.14181152710085598 5.6707489378104015 0.751953125 6.740997314453125 C2.3401709668302715 7.163930557249643 4.400515619442388 6.634320411347147 5.751953125 5.740997314453125 C6.087462926203045 4.734467910843989 5.888169565937176 4.324484775916886 5.416015625 3.389434814453125 C4.413203519716376 2.4102182881173633 3.5121767174011325 2.3012837083749105 2.14501953125 2.304962158203125 C1.0993487803413586 2.4281561674996226 0.63847665013094 2.70642673906039 0.314453125 3.678497314453125 Z " fill="#000000" transform="translate(280.248046875,233.25900268554688)"/>
<path d="M0 0 C1.2050037520925798 -0.15777614211930313 2.052438779644433 0.2855287055073177 3 1 C3.562983740598895 2.120280776747336 3.7636237115435165 3.2749936655849297 4 4.5 C4.247924069323801 5.478352678300325 4.45859365374622 6.141770680753297 5 7 C5.93468812972543 5.838256482576725 6.339380929655022 4.2086724384255945 6.771484375 2.794921875 C7.608519501709509 0.20128563293656043 7.608519501709509 0.20128563293656043 8.81005859375 -0.41650390625 C10.230670870976326 -0.6304370579811973 10.230670870976326 -0.6304370579811973 11 0 C10.956046975657046 1.708277337865809 10.310393300464682 3.2749729444657874 9.75 4.875 C9.599060083120548 5.339455375922512 9.449302213412295 5.804296708980104 9.30078125 6.26953125 C8.89285373289971 7.523715206980995 8.474538560245662 8.769310386643156 8 10 C7.931498413085933 10.197176208496103 7.862996826171866 10.394352416992177 7.79241943359375 10.597503662109375 C7.5745268318196395 11.141819680788103 7.388030316387528 11.56013932757665 7 12 C6.168304580656979 12.10295907924342 5.818277783934377 12.085835768703873 5.046875 11.8671875 C4.777229309082031 11.793695831298834 4.777229309082031 11.793695831298834 4.50213623046875 11.718719482421875 C2.94603007886667 11.182305510312773 2.3228528782585727 10.243870882619063 1.7608642578125 8.74505615234375 C1.6407448976254386 8.388920697755026 1.5260133100756548 8.030926442814831 1.41650390625 7.67138671875 C1.250599793275569 7.126968236584673 1.0637091593388845 6.594074440412726 0.87109375 6.05859375 C-0.7331070012476175 1.4407796779621833 -0.7331070012476175 1.4407796779621833 0 0 Z " fill="#000000" transform="translate(292,234)"/>
<path d="M0 0 C0.4229735697178967 -0.013318986652080866 0.8464204954018442 -0.014666992902789389 1.26953125 -0.0068359375 C1.4914916992187273 -0.008749389648443184 1.7134521484375114 -0.010662841796886369 1.942138671875 -0.01263427734375 C2.412934660428732 -0.013999502969596733 2.8837678426998536 -0.010278861710759202 3.3544921875 -0.001953125 C4.079627059549864 0.008753564385983736 4.802286849975928 -0.0018243018533041777 5.52734375 -0.0146484375 C5.983078440954046 -0.013326886990199682 6.4388115763010205 -0.01076455537670995 6.89453125 -0.0068359375 C7.222637939453136 -0.012908630371100571 7.222637939453136 -0.012908630371100571 7.557373046875 -0.01910400390625 C8.1640625 0 8.1640625 0 9.08203125 0.2587890625 C9.393093449838204 0.9737442725239305 9.41980903237544 1.5495478686489719 9.08203125 2.2587890625 C8.34748253944332 2.275268001603905 7.800753372080521 2.2048554994746894 7.08984375 2.0712890625 C6.294841966777028 1.9937320795114033 5.88071620528433 2.0437251440303896 5.08203125 2.2587890625 C4.556620577799606 3.8987594229418505 4.801216860368584 5.564165408844644 4.95703125 7.2587890625 C5.0120752524896375 7.971967877366097 5.061452628053246 8.68438428747254 5.099395751953125 9.398681640625 C5.124137668926437 9.844562139473311 5.159585225604303 10.28998560592811 5.206024169921875 10.734130859375 C5.24560546875 11.3408203125 5.24560546875 11.3408203125 5.08203125 12.2587890625 C4.36515668110269 12.596923614798385 3.7989058188973104 12.596923614798385 3.08203125 12.2587890625 C2.9347092018425656 11.432026523586728 2.941616508710297 10.891190286988149 3.02734375 10.0712890625 C3.052630503198941 9.615589928808845 3.077352879126863 9.159859189524923 3.1015625 8.7041015625 C3.151393149138869 7.9788435997858755 3.207363818466206 7.255172076991755 3.27392578125 6.53125 C3.470134515866903 4.368653968118622 3.470134515866903 4.368653968118622 3.08203125 2.2587890625 C2.11390166094435 1.9980983588237677 1.4721943125350663 1.996517001129888 0.498565673828125 2.179443359375 C-0.04736328125 2.2783203125 -0.04736328125 2.2783203125 -0.91796875 2.2587890625 C-1.476897190217585 1.0851918192786343 -1.2227369084684483 0.3447077454724763 0 0 Z " fill="#000000" transform="translate(346.91796875,233.7412109375)"/>
<path d="M0 0 C0.4229735697178967 -0.013318986652080866 0.8464204954018442 -0.014666992902789389 1.26953125 -0.0068359375 C1.4914916992187273 -0.008749389648443184 1.7134521484375114 -0.010662841796886369 1.942138671875 -0.01263427734375 C2.412934660428732 -0.013999502969596733 2.8837678426998536 -0.010278861710759202 3.3544921875 -0.001953125 C4.079627059549864 0.008753564385983736 4.802286849975928 -0.0018243018533041777 5.52734375 -0.0146484375 C5.983078440954046 -0.013326886990199682 6.4388115763010205 -0.01076455537670995 6.89453125 -0.0068359375 C7.222637939453136 -0.012908630371100571 7.222637939453136 -0.012908630371100571 7.557373046875 -0.01910400390625 C8.1640625 0 8.1640625 0 9.08203125 0.2587890625 C9.393093449838204 0.9737442725239305 9.41980903237544 1.5495478686489719 9.08203125 2.2587890625 C8.34748253944332 2.275268001603905 7.800753372080521 2.2048554994746894 7.08984375 2.0712890625 C6.294841966777028 1.9937320795114033 5.88071620528433 2.0437251440303896 5.08203125 2.2587890625 C4.556620577799606 3.8987594229418505 4.801216860368584 5.564165408844644 4.95703125 7.2587890625 C5.0120752524896375 7.971967877366097 5.061452628053246 8.68438428747254 5.099395751953125 9.398681640625 C5.124137668926437 9.844562139473311 5.159585225604303 10.28998560592811 5.206024169921875 10.734130859375 C5.24560546875 11.3408203125 5.24560546875 11.3408203125 5.08203125 12.2587890625 C4.36515668110269 12.596923614798385 3.7989058188973104 12.596923614798385 3.08203125 12.2587890625 C2.9347092018425656 11.432026523586728 2.941616508710297 10.891190286988149 3.02734375 10.0712890625 C3.052630503198941 9.615589928808845 3.077352879126863 9.159859189524923 3.1015625 8.7041015625 C3.151393149138869 7.9788435997858755 3.207363818466206 7.255172076991755 3.27392578125 6.53125 C3.470134515866903 4.368653968118622 3.470134515866903 4.368653968118622 3.08203125 2.2587890625 C2.11390166094435 1.9980983588237677 1.4721943125350663 1.996517001129888 0.498565673828125 2.179443359375 C-0.04736328125 2.2783203125 -0.04736328125 2.2783203125 -0.91796875 2.2587890625 C-1.476897190217585 1.0851918192786343 -1.2227369084684483 0.3447077454724763 0 0 Z " fill="#000000" transform="translate(306.91796875,233.7412109375)"/>
<path d="M0 0 C0.6217485721793423 -0.07043834386161052 0.9683334638593806 -0.05531523867742294 1.5230712890625 0.238037109375 C1.6418973334536986 1.0654184555062898 1.6167837543332553 1.6115387901353415 1.5074462890625 2.425537109375 C1.4679731349925191 2.8817723707621212 1.4302647083957254 3.338163159033485 1.3941650390625 3.794677734375 C1.362985839843759 4.150096435546885 1.362985839843759 4.150096435546885 1.3311767578125 4.5126953125 C1.0366006658660467 7.408492098146752 1.0366006658660467 7.408492098146752 1.5230712890625 10.238037109375 C2.9083497727016834 11.292154743389972 4.635849025637981 10.731326357194746 6.2105712890625 10.394287109375 C6.587622070312477 10.283105468749994 6.587622070312477 10.283105468749994 6.9722900390625 10.169677734375 C7.244926757812493 10.203515624999994 7.244926757812493 10.203515624999994 7.5230712890625 10.238037109375 C7.767932727268942 11.455473188620687 7.767932727268942 11.455473188620687 7.5230712890625 12.238037109375 C6.857400452512593 12.616460357546657 6.503523356442145 12.739191115442821 5.7730712890625 12.855224609375 C5.595049743652339 12.885205383300786 5.417028198242178 12.915186157226572 5.233612060546875 12.946075439453125 C4.663113045445186 13.025100326322729 4.097691947221051 13.074773464242128 3.5230712890625 13.113037109375 C3.3343243408203307 13.127377929687498 3.1455773925781045 13.141718749999995 2.95111083984375 13.156494140625 C1.571909662299845 13.212781955968154 0.6399103218988103 13.082878444177368 -0.4769287109375 12.238037109375 C-1.3118752774868767 10.39344617484565 -1.1570345995472735 8.216366625715608 -1.1019287109375 6.238037109375 C-1.0962890624999773 5.95120056152345 -1.0906494140625114 5.664364013671872 -1.0848388671875 5.36883544921875 C-1.0596849178853063 4.531220802525667 -1.013109508039065 3.698859782278163 -0.9534912109375 2.863037109375 C-0.9383950805664085 2.6004812622070403 -0.923298950195317 2.3379254150390523 -0.907745361328125 2.067413330078125 C-0.7278944031729111 0.3632951333983101 -0.7278944031729111 0.3632951333983101 0 0 Z " fill="#000000" transform="translate(335.4769287109375,233.761962890625)"/>
<path d="M0 0 C0.8165134583902329 -0.07668314225622908 1.6060042161183787 -0.07586707355085309 2.42578125 -0.0537109375 C2.8550390624999977 -0.06531250000000455 2.8550390624999977 -0.06531250000000455 3.29296875 -0.0771484375 C4.063924522598285 -0.06980600157049821 4.69579062836317 -0.05324854795748024 5.42578125 0.1962890625 C5.795973657618845 0.770087294309235 5.819704837914003 1.0703570905485833 5.71875 1.7421875 C5.42578125 2.1962890625 5.42578125 2.1962890625 4.8515625 2.392578125 C4.035049041609767 2.469261267256229 3.2455582838816213 2.468445198550853 2.42578125 2.4462890625 C1.9965234375000023 2.4578906250000045 1.9965234375000023 2.4578906250000045 1.55859375 2.4697265625 C0.7876379774017153 2.462384126570498 0.15577187163682993 2.4458266729574802 -0.57421875 2.1962890625 C-0.9444111576188448 1.622490830690765 -0.9681423379139744 1.3222210344514167 -0.8671875 0.650390625 C-0.57421875 0.1962890625 -0.57421875 0.1962890625 0 0 Z " fill="#000000" transform="translate(141.57421875,240.8037109375)"/>
<path d="M0 0 C0.6071769682785089 -0.05204374013814572 0.9885016239776405 -0.047180306492776936 1.546875 0.203125 C1.864008611461827 0.9105769024917834 1.864008611461827 1.4956730975082166 1.546875 2.203125 C0.8394230975082451 2.520258611461827 0.25432690249175494 2.520258611461827 -0.453125 2.203125 C-0.8188197647958191 1.3873443708400544 -0.9111671263546555 0.4084542290555362 0 0 Z " fill="#000000" transform="translate(375.453125,243.796875)"/>
<path d="M0 0 C0.6071769682785089 -0.05204374013814572 0.9885016239776405 -0.047180306492776936 1.546875 0.203125 C1.864008611461827 0.9105769024917834 1.864008611461827 1.4956730975082166 1.546875 2.203125 C0.8394230975082451 2.520258611461827 0.25432690249175494 2.520258611461827 -0.453125 2.203125 C-0.8188197647958191 1.3873443708400544 -0.9111671263546555 0.4084542290555362 0 0 Z " fill="#000000" transform="translate(320.453125,243.796875)"/>
</svg>
