<?xml version="1.0" encoding="UTF-8"?>
<!-- Generator: visioncortex VTracer 0.6.4 -->
<svg version="1.1" xmlns="http://www.w3.org/2000/svg" width="639" height="329">
<path d="M0 0 C0.6599999999999682 0 1.3199999999999932 0 2 0 C2 70.29 2 140.58 2 213 C-9.879999999999995 213 -21.75999999999999 213 -34 213 C-34 151.29 -34 89.58 -34 26 C-28.060000000000002 21.379999999999995 -22.120000000000005 16.759999999999998 -16 12 C-10.720000000000027 8.04 -5.439999999999998 4.079999999999998 0 0 Z " fill="#DD390D" transform="translate(310,31)"/>
<path d="M0 0 C0.9900000000000091 0 1.9800000000000182 0 3 0 C3 47.52000000000001 3 95.04000000000002 3 144 C-8.879999999999995 144 -20.75999999999999 144 -33 144 C-33 103.41 -33 62.81999999999999 -33 21 C-32.670000000000016 18.03 -32.339999999999975 15.060000000000002 -32 12 C-21.439999999999998 8.04 -10.879999999999995 4.079999999999998 0 0 Z " fill="#DC390D" transform="translate(410,44)"/>
<path d="M0 0 C0.6599999999999682 0 1.3199999999999932 0 2 0 C2 44.879999999999995 2 89.75999999999999 2 136 C-9.879999999999995 136 -21.75999999999999 136 -34 136 C-34 97.72 -34 59.44 -34 20 C-25.420000000000016 15.049999999999997 -16.839999999999975 10.099999999999994 -8 5 C-4.0400000000000205 2.5250000000000057 -4.0400000000000205 2.5250000000000057 0 0 Z " fill="#DD390D" transform="translate(361,88)"/>
<path d="M0 0 C0.6599999999999682 0 1.3199999999999932 0 2 0 C2 41.25 2 82.5 2 125 C-9.879999999999995 125 -21.75999999999999 125 -34 125 C-34 90.01999999999998 -34 55.03999999999999 -34 19 C-29.379999999999995 16.36 -24.75999999999999 13.719999999999999 -20 11 C-13.400000000000006 7.3700000000000045 -6.800000000000011 3.739999999999995 0 0 Z " fill="#DD390D" transform="translate(260,88)"/>
<path d="M0 0 C5.28 0 10.56 0 16 0 C19.465 1.4850000000000136 19.465 1.4850000000000136 23 3 C23.990000000000002 4.485000000000014 23.990000000000002 4.485000000000014 25 6 C25 8.310000000000002 25 10.620000000000005 25 13 C23.68 14.319999999999993 22.36 15.639999999999986 21 17 C21.66 18.649999999999977 22.32 20.30000000000001 23 22 C24.32 23.649999999999977 25.64 25.30000000000001 27 27 C27 27.660000000000025 27 28.319999999999993 27 29 C28.32 29.329999999999984 29.64 29.660000000000025 31 30 C31 30.99000000000001 31 31.980000000000018 31 33 C28.36 33 25.72 33 23 33 C21.35 31.350000000000023 19.7 29.69999999999999 18 28 C16.35 25.689999999999998 14.7 23.379999999999995 13 21 C13 20.339999999999975 13 19.680000000000007 13 19 C12.34 19 11.68 19 11 19 C11.33 22.30000000000001 11.66 25.600000000000023 12 29 C12.99 29.329999999999984 13.98 29.660000000000025 15 30 C15 30.99000000000001 15 31.980000000000018 15 33 C10.05 33 5.1 33 0 33 C0 32.00999999999999 0 31.019999999999982 0 30 C0.9900000000000002 29.670000000000016 1.98 29.339999999999975 3 29 C3 20.75 3 12.5 3 4 C2.01 3.670000000000016 1.02 3.339999999999975 0 3 C0 2.009999999999991 0 1.0199999999999818 0 0 Z M11 4 C11 7.6299999999999955 11 11.259999999999991 11 15 C12.98 14.670000000000016 14.96 14.339999999999975 17 14 C17.33 12.019999999999982 17.66 10.04000000000002 18 8 C17.009999999999998 6.680000000000007 16.02 5.360000000000014 15 4 C13.68 4 12.36 4 11 4 Z " fill="#000000" transform="translate(2,285)"/>
<path d="M0 0 C0.9900000000000091 0.660000000000025 1.9800000000000182 1.3199999999999932 3 2 C4.319999999999993 1.339999999999975 5.639999999999986 0.6800000000000068 7 0 C9.970000000000027 0.49500000000000455 9.970000000000027 0.49500000000000455 13 1 C13.660000000000025 1.660000000000025 14.319999999999993 2.319999999999993 15 3 C16.649999999999977 2.009999999999991 18.30000000000001 1.0199999999999818 20 0 C22.970000000000027 0.49500000000000455 22.970000000000027 0.49500000000000455 26 1 C26.659999999999968 1.990000000000009 27.319999999999993 2.980000000000018 28 4 C28 9.279999999999973 28 14.560000000000002 28 20 C28.99000000000001 20 29.980000000000018 20 31 20 C31 20.99000000000001 31 21.980000000000018 31 23 C27.04000000000002 23 23.079999999999984 23 19 23 C19 22.00999999999999 19 21.019999999999982 19 20 C19.99000000000001 20 20.980000000000018 20 22 20 C21.670000000000016 15.050000000000011 21.339999999999975 10.100000000000023 21 5 C19.350000000000023 5.329999999999984 17.69999999999999 5.660000000000025 16 6 C15.670000000000016 10.620000000000005 15.339999999999975 15.240000000000009 15 20 C15.990000000000009 20.329999999999984 16.980000000000018 20.660000000000025 18 21 C17.670000000000016 21.660000000000025 17.339999999999975 22.319999999999993 17 23 C13.370000000000005 23 9.740000000000009 23 6 23 C6 22.00999999999999 6 21.019999999999982 6 20 C6.660000000000025 19.670000000000016 7.319999999999993 19.339999999999975 8 19 C8 14.379999999999995 8 9.759999999999991 8 5 C6.350000000000023 5.660000000000025 4.699999999999989 6.319999999999993 3 7 C2.670000000000016 11.29000000000002 2.339999999999975 15.579999999999984 2 20 C2.660000000000025 20 3.319999999999993 20 4 20 C4 20.99000000000001 4 21.980000000000018 4 23 C0.040000000000020464 23 -3.920000000000016 23 -8 23 C-8 22.00999999999999 -8 21.019999999999982 -8 20 C-7.009999999999991 20 -6.019999999999982 20 -5 20 C-5 14.720000000000027 -5 9.439999999999998 -5 4 C-5.990000000000009 3.670000000000016 -6.980000000000018 3.339999999999975 -8 3 C-8 2.339999999999975 -8 1.6800000000000068 -8 1 C-5.360000000000014 0.6700000000000159 -2.7200000000000273 0.339999999999975 0 0 Z " fill="#000000" transform="translate(352,295)"/>
<path d="M0 0 C0.660000000000025 0 1.3199999999999932 0 2 0 C2.329999999999984 0.660000000000025 2.660000000000025 1.3199999999999932 3 2 C4.319999999999993 1.339999999999975 5.639999999999986 0.6800000000000068 7 0 C9.970000000000027 0.49500000000000455 9.970000000000027 0.49500000000000455 13 1 C13.990000000000009 1.660000000000025 14.980000000000018 2.319999999999993 16 3 C17.319999999999993 2.009999999999991 18.639999999999986 1.0199999999999818 20 0 C22.970000000000027 0.49500000000000455 22.970000000000027 0.49500000000000455 26 1 C26.659999999999968 1.660000000000025 27.319999999999993 2.319999999999993 28 3 C28.329999999999984 8.279999999999973 28.659999999999968 13.560000000000002 29 19 C29.99000000000001 19.99000000000001 30.980000000000018 20.980000000000018 32 22 C31.00999999999999 22.329999999999984 30.019999999999982 22.660000000000025 29 23 C25.69999999999999 23 22.399999999999977 23 19 23 C19.329999999999984 22.00999999999999 19.660000000000025 21.019999999999982 20 20 C20.660000000000025 20 21.319999999999993 20 22 20 C21.670000000000016 15.379999999999995 21.339999999999975 10.759999999999991 21 6 C19.680000000000007 6.329999999999984 18.360000000000014 6.660000000000025 17 7 C16.670000000000016 7.329999999999984 16.339999999999975 7.660000000000025 16 8 C15.670000000000016 11.95999999999998 15.339999999999975 15.920000000000016 15 20 C15.990000000000009 20 16.980000000000018 20 18 20 C18 20.99000000000001 18 21.980000000000018 18 23 C14.04000000000002 23 10.079999999999984 23 6 23 C6 22.00999999999999 6 21.019999999999982 6 20 C6.990000000000009 20 7.980000000000018 20 9 20 C8.670000000000016 15.050000000000011 8.339999999999975 10.100000000000023 8 5 C6.350000000000023 5.329999999999984 4.699999999999989 5.660000000000025 3 6 C2.670000000000016 10.620000000000005 2.339999999999975 15.240000000000009 2 20 C2.990000000000009 20.329999999999984 3.980000000000018 20.660000000000025 5 21 C4.670000000000016 21.660000000000025 4.339999999999975 22.319999999999993 4 23 C0.37000000000000455 23 -3.259999999999991 23 -7 23 C-7 22.00999999999999 -7 21.019999999999982 -7 20 C-6.339999999999975 19.670000000000016 -5.680000000000007 19.339999999999975 -5 19 C-5 14.379999999999995 -5 9.759999999999991 -5 5 C-5.990000000000009 4.339999999999975 -6.980000000000018 3.680000000000007 -8 3 C-8 2.339999999999975 -8 1.6800000000000068 -8 1 C-5.360000000000014 0.6700000000000159 -2.7200000000000273 0.339999999999975 0 0 Z " fill="#000000" transform="translate(311,295)"/>
<path d="M0 0 C7.9199999999999875 0 15.840000000000003 0 24 0 C24.329999999999984 2.9700000000000273 24.659999999999997 5.939999999999998 25 9 C24.00999999999999 8.670000000000016 23.02000000000001 8.339999999999975 22 8 C21.340000000000003 7.009999999999991 20.680000000000007 6.019999999999982 20 5 C17.03 4.670000000000016 14.060000000000002 4.339999999999975 11 4 C11 7.300000000000011 11 10.600000000000023 11 14 C13.310000000000002 14 15.620000000000005 14 18 14 C18.329999999999984 13.009999999999991 18.659999999999997 12.019999999999982 19 11 C19.659999999999997 11 20.319999999999993 11 21 11 C21 14.300000000000011 21 17.600000000000023 21 21 C20.00999999999999 20.670000000000016 19.02000000000001 20.339999999999975 18 20 C18 19.339999999999975 18 18.680000000000007 18 18 C15.689999999999998 18 13.379999999999995 18 11 18 C11 21.629999999999995 11 25.25999999999999 11 29 C14.300000000000011 28.670000000000016 17.599999999999994 28.339999999999975 21 28 C21.99000000000001 26.680000000000007 22.97999999999999 25.360000000000014 24 24 C24.99000000000001 24 25.97999999999999 24 27 24 C26.340000000000003 26.970000000000027 25.680000000000007 29.939999999999998 25 33 C16.75 33 8.5 33 0 33 C0 32.00999999999999 0 31.019999999999982 0 30 C0.9900000000000091 29.670000000000016 1.9799999999999898 29.339999999999975 3 29 C3 20.75 3 12.5 3 4 C2.009999999999991 3.670000000000016 1.0200000000000102 3.339999999999975 0 3 C0 2.009999999999991 0 1.0199999999999818 0 0 Z " fill="#000000" transform="translate(202,285)"/>
<path d="M0 0 C5.279999999999973 0 10.560000000000002 0 16 0 C19.464999999999975 1.4850000000000136 19.464999999999975 1.4850000000000136 23 3 C23.660000000000025 3.660000000000025 24.319999999999993 4.319999999999993 25 5 C25 7.639999999999986 25 10.279999999999973 25 13 C23.680000000000007 14.649999999999977 22.360000000000014 16.30000000000001 21 18 C20.339999999999975 18.329999999999984 19.680000000000007 18.660000000000025 19 19 C16.360000000000014 19 13.720000000000027 19 11 19 C11.329999999999984 22.30000000000001 11.660000000000025 25.600000000000023 12 29 C13.319999999999993 29.660000000000025 14.639999999999986 30.319999999999993 16 31 C15.670000000000016 31.660000000000025 15.339999999999975 32.31999999999999 15 33 C10.050000000000011 33 5.100000000000023 33 0 33 C0 32.00999999999999 0 31.019999999999982 0 30 C0.9900000000000091 29.670000000000016 1.9800000000000182 29.339999999999975 3 29 C3 20.75 3 12.5 3 4 C2.009999999999991 3.670000000000016 1.0199999999999818 3.339999999999975 0 3 C0 2.009999999999991 0 1.0199999999999818 0 0 Z M11 4 C11 7.9599999999999795 11 11.920000000000016 11 16 C12.649999999999977 15.670000000000016 14.300000000000011 15.339999999999975 16 15 C16.660000000000025 14.009999999999991 17.319999999999993 13.019999999999982 18 12 C17.670000000000016 9.689999999999998 17.339999999999975 7.3799999999999955 17 5 C16.670000000000016 4.670000000000016 16.339999999999975 4.339999999999975 16 4 C14.350000000000023 4 12.699999999999989 4 11 4 Z " fill="#000000" transform="translate(482,285)"/>
<path d="M0 0 C1.32000000000005 0 2.6399999999999864 0 4 0 C4 10.230000000000018 4 20.45999999999998 4 31 C4.990000000000009 31.329999999999984 5.980000000000018 31.660000000000025 7 32 C7 32.65999999999997 7 33.31999999999999 7 34 C2.544999999999959 34.495000000000005 2.544999999999959 34.495000000000005 -2 35 C-2.330000000000041 34.34000000000003 -2.659999999999968 33.68000000000001 -3 33 C-3.990000000000009 33.65999999999997 -4.980000000000018 34.31999999999999 -6 35 C-7.980000000000018 35 -9.960000000000036 35 -12 35 C-13.32000000000005 34.34000000000003 -14.639999999999986 33.68000000000001 -16 33 C-16.659999999999968 31.680000000000007 -17.32000000000005 30.360000000000014 -18 29 C-18 26.029999999999973 -18 23.060000000000002 -18 20 C-17.00999999999999 18.350000000000023 -16.019999999999982 16.69999999999999 -15 15 C-13.019999999999982 14.009999999999991 -11.039999999999964 13.019999999999982 -9 12 C-6.690000000000055 12.329999999999984 -4.3799999999999955 12.660000000000025 -2 13 C-2.330000000000041 10.360000000000014 -2.659999999999968 7.720000000000027 -3 5 C-3.990000000000009 4.339999999999975 -4.980000000000018 3.680000000000007 -6 3 C-6 2.339999999999975 -6 1.6800000000000068 -6 1 C-4.019999999999982 0.6700000000000159 -2.0399999999999636 0.339999999999975 0 0 Z M-8 15 C-8.990000000000009 15.990000000000009 -9.980000000000018 16.980000000000018 -11 18 C-11 21.30000000000001 -11 24.600000000000023 -11 28 C-10.009999999999991 29.485000000000014 -10.009999999999991 29.485000000000014 -9 31 C-7.350000000000023 30.670000000000016 -5.7000000000000455 30.339999999999975 -4 30 C-3.340000000000032 29.00999999999999 -2.67999999999995 28.019999999999982 -2 27 C-2 23.69999999999999 -2 20.399999999999977 -2 17 C-3.980000000000018 16.339999999999975 -5.960000000000036 15.680000000000007 -8 15 Z " fill="#000000" transform="translate(631,283)"/>
<path d="M0 0 C0.6599999999999682 0 1.32000000000005 0 2 0 C2 1.6499999999999773 2 3.3000000000000114 2 5 C3.980000000000018 5 5.960000000000036 5 8 5 C8 5.990000000000009 8 6.980000000000018 8 8 C6.019999999999982 8 4.039999999999964 8 2 8 C2.330000000000041 12.949999999999989 2.659999999999968 17.899999999999977 3 23 C4.649999999999977 22.670000000000016 6.2999999999999545 22.339999999999975 8 22 C8 22.99000000000001 8 23.980000000000018 8 25 C7.009999999999991 25.660000000000025 6.019999999999982 26.319999999999993 5 27 C3.019999999999982 27 1.0399999999999636 27 -1 27 C-1.990000000000009 26.00999999999999 -2.980000000000018 25.019999999999982 -4 24 C-4 18.720000000000027 -4 13.439999999999998 -4 8 C-5.649999999999977 8 -7.2999999999999545 8 -9 8 C-10.649999999999977 11.300000000000011 -12.299999999999955 14.600000000000023 -14 18 C-15.980000000000018 22.454999999999984 -15.980000000000018 22.454999999999984 -18 27 C-18.99000000000001 26.670000000000016 -19.980000000000018 26.339999999999975 -21 26 C-23.309999999999945 20.720000000000027 -25.620000000000005 15.439999999999998 -28 10 C-28 9.339999999999975 -28 8.680000000000007 -28 8 C-28.99000000000001 7.670000000000016 -29.980000000000018 7.339999999999975 -31 7 C-31 6.339999999999975 -31 5.680000000000007 -31 5 C-27.04000000000002 5 -23.08000000000004 5 -19 5 C-19 5.660000000000025 -19 6.319999999999993 -19 7 C-19.659999999999968 7 -20.32000000000005 7 -21 7 C-20.00999999999999 9.639999999999986 -19.019999999999982 12.279999999999973 -18 15 C-17.340000000000032 14.009999999999991 -16.67999999999995 13.019999999999982 -16 12 C-15.669999999999959 10.680000000000007 -15.340000000000032 9.360000000000014 -15 8 C-15.330000000000041 7.009999999999991 -15.659999999999968 6.019999999999982 -16 5 C-12.700000000000045 5 -9.399999999999977 5 -6 5 C-5.009999999999991 4.670000000000016 -4.019999999999982 4.339999999999975 -3 4 C-2.009999999999991 2.680000000000007 -1.0199999999999818 1.3600000000000136 0 0 Z " fill="#000000" transform="translate(539,291)"/>
<path d="M0 0 C1.6500000000000057 0 3.299999999999997 0 5 0 C4.670000000000002 10.230000000000018 4.340000000000003 20.45999999999998 4 31 C4.989999999999995 31.329999999999984 5.980000000000004 31.660000000000025 7 32 C7 32.65999999999997 7 33.31999999999999 7 34 C2.5450000000000017 34.495000000000005 2.5450000000000017 34.495000000000005 -2 35 C-2.989999999999995 35 -3.980000000000004 35 -5 35 C-7.310000000000002 35 -9.620000000000005 35 -12 35 C-13.649999999999999 33.68000000000001 -15.299999999999997 32.360000000000014 -17 31 C-17.33 30.00999999999999 -17.659999999999997 29.019999999999982 -18 28 C-18 25.689999999999998 -18 23.379999999999995 -18 21 C-16.68 19.019999999999982 -15.36 17.04000000000002 -14 15 C-12.019999999999996 14.009999999999991 -10.04 13.019999999999982 -8 12 C-5.030000000000001 12.495000000000005 -5.030000000000001 12.495000000000005 -2 13 C-2.3299999999999983 10.029999999999973 -2.6599999999999966 7.060000000000002 -3 4 C-3.6599999999999966 3.670000000000016 -4.319999999999993 3.339999999999975 -5 3 C-5 2.339999999999975 -5 1.6800000000000068 -5 1 C-3.3499999999999943 0.6700000000000159 -1.7000000000000028 0.339999999999975 0 0 Z M-7 15 C-8.319999999999993 16.319999999999993 -9.64 17.639999999999986 -11 19 C-11 21.639999999999986 -11 24.279999999999973 -11 27 C-10.340000000000003 28.319999999999993 -9.680000000000007 29.639999999999986 -9 31 C-7.349999999999994 31 -5.700000000000003 31 -4 31 C-3.3400000000000034 30.00999999999999 -2.680000000000007 29.019999999999982 -2 28 C-2 24.370000000000005 -2 20.74000000000001 -2 17 C-4.474999999999994 16.00999999999999 -4.474999999999994 16.00999999999999 -7 15 Z " fill="#000000" transform="translate(74,283)"/>
<path d="M0 0 C4.289999999999992 0 8.579999999999998 0 13 0 C13.989999999999995 0.3299999999999841 14.980000000000004 0.660000000000025 16 1 C16.33 3.6399999999999864 16.659999999999997 6.279999999999973 17 9 C15.680000000000007 8.670000000000016 14.36 8.339999999999975 13 8 C11.680000000000007 6.680000000000007 10.36 5.360000000000014 9 4 C6.359999999999999 4.329999999999984 3.719999999999999 4.660000000000025 1 5 C0.010000000000005116 5.990000000000009 -0.980000000000004 6.980000000000018 -2 8 C-2.3299999999999983 8.990000000000009 -2.6599999999999966 9.980000000000018 -3 11 C-3 13.970000000000027 -3 16.939999999999998 -3 20 C-2.010000000000005 21.980000000000018 -1.019999999999996 23.95999999999998 0 26 C1.6500000000000057 26.99000000000001 3.299999999999997 27.980000000000018 5 29 C8.960000000000008 28.504999999999995 8.960000000000008 28.504999999999995 13 28 C13.659999999999997 26.350000000000023 14.319999999999993 24.69999999999999 15 23 C15.989999999999995 23 16.980000000000004 23 18 23 C17.340000000000003 25.970000000000027 16.680000000000007 28.939999999999998 16 32 C15.009999999999991 32.495000000000005 15.009999999999991 32.495000000000005 14 33 C9.379999999999995 33 4.759999999999991 33 0 33 C-1.980000000000004 32.00999999999999 -3.960000000000008 31.019999999999982 -6 30 C-7.319999999999993 28.680000000000007 -8.64 27.360000000000014 -10 26 C-10.659999999999997 22.370000000000005 -11.319999999999993 18.74000000000001 -12 15 C-11.010000000000005 12.029999999999973 -10.019999999999996 9.060000000000002 -9 6 C-7.019999999999996 4.350000000000023 -5.040000000000006 2.6999999999999886 -3 1 C-2.010000000000005 0.6700000000000159 -1.019999999999996 0.339999999999975 0 0 Z " fill="#000000" transform="translate(95,285)"/>
<path d="M0 0 C3.9599999999999795 0 7.920000000000016 0 12 0 C12.990000000000009 0.3299999999999841 13.980000000000018 0.660000000000025 15 1 C15.660000000000025 3.6399999999999864 16.319999999999993 6.279999999999973 17 9 C15.680000000000007 9 14.360000000000014 9 13 9 C12.339999999999975 7.680000000000007 11.680000000000007 6.360000000000014 11 5 C8.689999999999998 4.670000000000016 6.3799999999999955 4.339999999999975 4 4 C2.3500000000000227 4.329999999999984 0.6999999999999886 4.660000000000025 -1 5 C-1.660000000000025 6.649999999999977 -2.319999999999993 8.300000000000011 -3 10 C-3 13.629999999999995 -3 17.25999999999999 -3 21 C-1.0199999999999818 23.970000000000027 -1.0199999999999818 23.970000000000027 1 27 C2.319999999999993 27.660000000000025 3.6399999999999864 28.319999999999993 5 29 C6.980000000000018 28.670000000000016 8.95999999999998 28.339999999999975 11 28 C12.319999999999993 26.350000000000023 13.639999999999986 24.69999999999999 15 23 C15.990000000000009 23.329999999999984 16.980000000000018 23.660000000000025 18 24 C17.00999999999999 26.639999999999986 16.019999999999982 29.279999999999973 15 32 C14.009999999999991 32.495000000000005 14.009999999999991 32.495000000000005 13 33 C8.70999999999998 33 4.420000000000016 33 0 33 C-2.6399999999999864 31.680000000000007 -5.280000000000001 30.360000000000014 -8 29 C-8.990000000000009 27.350000000000023 -9.97999999999999 25.69999999999999 -11 24 C-11.330000000000013 20.69999999999999 -11.659999999999997 17.399999999999977 -12 14 C-11.009999999999991 11.360000000000014 -10.02000000000001 8.720000000000027 -9 6 C-7.02000000000001 4.350000000000023 -5.039999999999992 2.6999999999999886 -3 1 C-2.009999999999991 0.6700000000000159 -1.0199999999999818 0.339999999999975 0 0 Z " fill="#000000" transform="translate(258,285)"/>
<path d="M0 0 C4.6200000000000045 0 9.240000000000009 0 14 0 C14 0.9900000000000091 14 1.9800000000000182 14 3 C13.009999999999991 3.329999999999984 12.019999999999982 3.660000000000025 11 4 C11 11.920000000000016 11 19.839999999999975 11 28 C13.970000000000027 28 16.940000000000055 28 20 28 C20.99000000000001 26.680000000000007 21.980000000000018 25.360000000000014 23 24 C23.99000000000001 24.329999999999984 24.980000000000018 24.660000000000025 26 25 C25.340000000000032 27.639999999999986 24.67999999999995 30.279999999999973 24 33 C16.08000000000004 33 8.159999999999968 33 0 33 C0 32.00999999999999 0 31.019999999999982 0 30 C0.6599999999999682 29.670000000000016 1.32000000000005 29.339999999999975 2 29 C2.330000000000041 20.420000000000016 2.659999999999968 11.839999999999975 3 3 C2.009999999999991 3 1.0199999999999818 3 0 3 C0 2.009999999999991 0 1.0199999999999818 0 0 Z " fill="#000000" transform="translate(570,285)"/>
<path d="M0 0 C2.6399999999999864 0.3299999999999841 5.279999999999973 0.660000000000025 8 1 C9.649999999999977 2.319999999999993 11.300000000000011 3.6399999999999864 13 5 C13.329999999999984 5.660000000000025 13.660000000000025 6.319999999999993 14 7 C14 9.970000000000027 14 12.939999999999998 14 16 C12.350000000000023 17.980000000000018 10.699999999999989 19.95999999999998 9 22 C8.009999999999991 22.329999999999984 7.019999999999982 22.660000000000025 6 23 C3.6899999999999977 23 1.3799999999999955 23 -1 23 C-2.6499999999999773 22.00999999999999 -4.300000000000011 21.019999999999982 -6 20 C-6.990000000000009 18.680000000000007 -7.980000000000018 17.360000000000014 -9 16 C-9 13.360000000000014 -9 10.720000000000027 -9 8 C-7.680000000000007 6.019999999999982 -6.360000000000014 4.0400000000000205 -5 2 C-3.3500000000000227 1.339999999999975 -1.6999999999999886 0.6800000000000068 0 0 Z M1 3 C0.009999999999990905 3.990000000000009 -0.9800000000000182 4.980000000000018 -2 6 C-2 9.300000000000011 -2 12.600000000000023 -2 16 C-1.009999999999991 17.319999999999993 -0.01999999999998181 18.639999999999986 1 20 C2.6499999999999773 19.670000000000016 4.300000000000011 19.339999999999975 6 19 C6.329999999999984 18.670000000000016 6.660000000000025 18.339999999999975 7 18 C7 14.699999999999989 7 11.399999999999977 7 8 C6.339999999999975 6.680000000000007 5.680000000000007 5.360000000000014 5 4 C3.680000000000007 3.670000000000016 2.3600000000000136 3.339999999999975 1 3 Z " fill="#000000" transform="translate(287,295)"/>
<path d="M0 0 C2.3100000000000023 0.3299999999999841 4.6200000000000045 0.660000000000025 7 1 C8.32 2.319999999999993 9.64 3.6399999999999864 11 5 C11.329999999999998 7.310000000000002 11.659999999999997 9.620000000000005 12 12 C7.3799999999999955 12 2.759999999999998 12 -2 12 C-1.3400000000000034 13.649999999999977 -0.6799999999999997 15.300000000000011 0 17 C0.3299999999999983 17.329999999999984 0.6599999999999966 17.660000000000025 1 18 C2.980000000000004 18 4.960000000000001 18 7 18 C8.649999999999999 17.670000000000016 10.299999999999997 17.339999999999975 12 17 C11.340000000000003 18.319999999999993 10.68 19.639999999999986 10 21 C8.019999999999996 21.99000000000001 8.019999999999996 21.99000000000001 6 23 C3.3599999999999994 23 0.7199999999999989 23 -2 23 C-3.980000000000004 21.680000000000007 -5.960000000000001 20.360000000000014 -8 19 C-8.329999999999998 18.339999999999975 -8.659999999999997 17.680000000000007 -9 17 C-9 14.029999999999973 -9 11.060000000000002 -9 8 C-7.020000000000003 5.689999999999998 -5.039999999999999 3.3799999999999955 -3 1 C-2.009999999999998 0.6700000000000159 -1.019999999999996 0.339999999999975 0 0 Z M1 3 C0.00999999999999801 3.660000000000025 -0.980000000000004 4.319999999999993 -2 5 C-2 6.319999999999993 -2 7.639999999999986 -2 9 C0.3100000000000023 9 2.6200000000000045 9 5 9 C4.670000000000002 7.680000000000007 4.340000000000003 6.360000000000014 4 5 C3.009999999999998 4.339999999999975 2.019999999999996 3.680000000000007 1 3 Z " fill="#000000" transform="translate(42,295)"/>
<path d="M0 0 C2.3100000000000023 0.3299999999999841 4.6200000000000045 0.660000000000025 7 1 C8.319999999999993 2.6499999999999773 9.639999999999986 4.300000000000011 11 6 C11 7.980000000000018 11 9.95999999999998 11 12 C6.3799999999999955 12 1.759999999999991 12 -3 12 C-2.339999999999975 13.649999999999977 -1.6800000000000068 15.300000000000011 -1 17 C1.3100000000000023 17.329999999999984 3.6200000000000045 17.660000000000025 6 18 C7.649999999999977 17.670000000000016 9.300000000000011 17.339999999999975 11 17 C11 17.99000000000001 11 18.980000000000018 11 20 C9.019999999999982 20.99000000000001 7.0400000000000205 21.980000000000018 5 23 C2.3600000000000136 23 -0.2799999999999727 23 -3 23 C-4.980000000000018 21.350000000000023 -6.9599999999999795 19.69999999999999 -9 18 C-9.329999999999984 15.360000000000014 -9.660000000000025 12.720000000000027 -10 10 C-9.009999999999991 8.019999999999982 -8.019999999999982 6.0400000000000205 -7 4 C-5.680000000000007 3.009999999999991 -4.360000000000014 2.019999999999982 -3 1 C-2.009999999999991 0.6700000000000159 -1.0199999999999818 0.339999999999975 0 0 Z M0 3 C-0.9900000000000091 3.990000000000009 -1.9800000000000182 4.980000000000018 -3 6 C-3 6.990000000000009 -3 7.980000000000018 -3 9 C-0.6899999999999977 9 1.6200000000000045 9 4 9 C3.5049999999999955 6.524999999999977 3.5049999999999955 6.524999999999977 3 4 C2.009999999999991 3.670000000000016 1.0199999999999818 3.339999999999975 0 3 Z " fill="#000000" transform="translate(458,295)"/>
<path d="M0 0 C2.3100000000000023 0.3299999999999841 4.6200000000000045 0.660000000000025 7 1 C8.319999999999993 2.6499999999999773 9.639999999999986 4.300000000000011 11 6 C11 7.980000000000018 11 9.95999999999998 11 12 C6.3799999999999955 12 1.759999999999991 12 -3 12 C-2.3400000000000034 13.649999999999977 -1.6800000000000068 15.300000000000011 -1 17 C1.3100000000000023 17.329999999999984 3.6200000000000045 17.660000000000025 6 18 C7.650000000000006 17.670000000000016 9.300000000000011 17.339999999999975 11 17 C11 17.99000000000001 11 18.980000000000018 11 20 C8.525000000000006 21.485000000000014 8.525000000000006 21.485000000000014 6 23 C3.030000000000001 23 0.060000000000002274 23 -3 23 C-4.97999999999999 21.350000000000023 -6.960000000000008 19.69999999999999 -9 18 C-9.330000000000013 15.360000000000014 -9.659999999999997 12.720000000000027 -10 10 C-9.009999999999991 8.019999999999982 -8.02000000000001 6.0400000000000205 -7 4 C-5.680000000000007 3.009999999999991 -4.360000000000014 2.019999999999982 -3 1 C-2.009999999999991 0.6700000000000159 -1.0200000000000102 0.339999999999975 0 0 Z M0 3 C-0.9900000000000091 3.990000000000009 -1.9799999999999898 4.980000000000018 -3 6 C-3 6.990000000000009 -3 7.980000000000018 -3 9 C-0.6899999999999977 9 1.6200000000000045 9 4 9 C3.5049999999999955 6.524999999999977 3.5049999999999955 6.524999999999977 3 4 C2.009999999999991 3.670000000000016 1.0200000000000102 3.339999999999975 0 3 Z " fill="#000000" transform="translate(143,295)"/>
<path d="M0 0 C2.9700000000000273 0.49500000000000455 2.9700000000000273 0.49500000000000455 6 1 C7.319999999999993 1.990000000000009 8.639999999999986 2.980000000000018 10 4 C10.329999999999984 6.639999999999986 10.660000000000025 9.279999999999973 11 12 C6.3799999999999955 12 1.759999999999991 12 -3 12 C-2.009999999999991 13.980000000000018 -1.0199999999999818 15.95999999999998 0 18 C1.9800000000000182 18 3.9599999999999795 18 6 18 C7.649999999999977 17.670000000000016 9.300000000000011 17.339999999999975 11 17 C10.339999999999975 18.319999999999993 9.680000000000007 19.639999999999986 9 21 C7.019999999999982 21.99000000000001 7.019999999999982 21.99000000000001 5 23 C2.3600000000000136 23 -0.2799999999999727 23 -3 23 C-4.649999999999977 22.00999999999999 -6.300000000000011 21.019999999999982 -8 20 C-8.660000000000025 18.680000000000007 -9.319999999999993 17.360000000000014 -10 16 C-10 13.689999999999998 -10 11.379999999999995 -10 9 C-8.680000000000007 7.019999999999982 -7.360000000000014 5.0400000000000205 -6 3 C-4.019999999999982 2.009999999999991 -2.0400000000000205 1.0199999999999818 0 0 Z M0 3 C-0.9900000000000091 3.660000000000025 -1.9800000000000182 4.319999999999993 -3 5 C-3 6.319999999999993 -3 7.639999999999986 -3 9 C-0.6899999999999977 9 1.6200000000000045 9 4 9 C3.5049999999999955 6.524999999999977 3.5049999999999955 6.524999999999977 3 4 C2.009999999999991 3.670000000000016 1.0199999999999818 3.339999999999975 0 3 Z " fill="#000000" transform="translate(395,295)"/>
<path d="M0 0 C2.6399999999999864 0.3299999999999841 5.280000000000001 0.660000000000025 8 1 C8.330000000000013 1.329999999999984 8.659999999999997 1.660000000000025 9 2 C9 3.980000000000018 9 5.9599999999999795 9 8 C8.009999999999991 7.670000000000016 7.02000000000001 7.339999999999975 6 7 C5.009999999999991 6.009999999999991 4.02000000000001 5.019999999999982 3 4 C2.009999999999991 4.329999999999984 1.0200000000000102 4.660000000000025 0 5 C0.9900000000000091 5.990000000000009 1.9799999999999898 6.980000000000018 3 8 C4.97999999999999 8.990000000000009 6.960000000000008 9.980000000000018 9 11 C9.330000000000013 11.329999999999984 9.659999999999997 11.660000000000025 10 12 C10 14.310000000000002 10 16.620000000000005 10 19 C8.680000000000007 20.319999999999993 7.360000000000014 21.639999999999986 6 23 C3.030000000000001 23 0.060000000000002274 23 -3 23 C-3.990000000000009 22.670000000000016 -4.97999999999999 22.339999999999975 -6 22 C-6 19.689999999999998 -6 17.379999999999995 -6 15 C-5.009999999999991 15.329999999999984 -4.02000000000001 15.660000000000025 -3 16 C-2.3400000000000034 16.99000000000001 -1.6800000000000068 17.980000000000018 -1 19 C0.6500000000000057 19 2.3000000000000114 19 4 19 C4.3300000000000125 18.00999999999999 4.659999999999997 17.019999999999982 5 16 C2.030000000000001 15.009999999999991 -0.9399999999999977 14.019999999999982 -4 13 C-4.659999999999997 12.009999999999991 -5.319999999999993 11.019999999999982 -6 10 C-5.6699999999999875 7.689999999999998 -5.340000000000003 5.3799999999999955 -5 3 C-3.3499999999999943 2.009999999999991 -1.6999999999999886 1.0199999999999818 0 0 Z " fill="#000000" transform="translate(163,295)"/>
<path d="M0 0 C2.3100000000000023 0.3299999999999841 4.6200000000000045 0.660000000000025 7 1 C8.319999999999993 1.990000000000009 9.639999999999986 2.980000000000018 11 4 C11 4.990000000000009 11 5.980000000000018 11 7 C9.019999999999982 7.329999999999984 7.0400000000000205 7.660000000000025 5 8 C3.680000000000007 6.680000000000007 2.3600000000000136 5.360000000000014 1 4 C0.009999999999990905 4.4950000000000045 0.009999999999990905 4.4950000000000045 -1 5 C-1 8.629999999999995 -1 12.259999999999991 -1 16 C-0.339999999999975 16.660000000000025 0.3199999999999932 17.319999999999993 1 18 C2.980000000000018 18 4.9599999999999795 18 7 18 C7.990000000000009 17.670000000000016 8.980000000000018 17.339999999999975 10 17 C10 18.319999999999993 10 19.639999999999986 10 21 C8.019999999999982 21.99000000000001 8.019999999999982 21.99000000000001 6 23 C3.3600000000000136 23 0.7200000000000273 23 -2 23 C-3.6499999999999773 22.00999999999999 -5.300000000000011 21.019999999999982 -7 20 C-7.660000000000025 19.00999999999999 -8.319999999999993 18.019999999999982 -9 17 C-9 14.029999999999973 -9 11.060000000000002 -9 8 C-7.680000000000007 6.019999999999982 -6.360000000000014 4.0400000000000205 -5 2 C-3.3500000000000227 1.339999999999975 -1.6999999999999886 0.6800000000000068 0 0 Z " fill="#000000" transform="translate(436,295)"/>
<path d="M0 0 C1.3199999999999932 0.3299999999999841 2.6399999999999864 0.660000000000025 4 1 C4 2.319999999999993 4 3.6399999999999864 4 5 C2.019999999999982 5.329999999999984 0.040000000000020464 5.660000000000025 -2 6 C-2.660000000000025 6 -3.319999999999993 6 -4 6 C-4.329999999999984 10.620000000000005 -4.660000000000025 15.240000000000009 -5 20 C-3.680000000000007 20 -2.3600000000000136 20 -1 20 C-1 20.99000000000001 -1 21.980000000000018 -1 23 C-5.6200000000000045 23 -10.240000000000009 23 -15 23 C-15 22.00999999999999 -15 21.019999999999982 -15 20 C-14.009999999999991 20 -13.019999999999982 20 -12 20 C-12 14.720000000000027 -12 9.439999999999998 -12 4 C-12.990000000000009 4 -13.980000000000018 4 -15 4 C-15 3.009999999999991 -15 2.019999999999982 -15 1 C-11.04000000000002 1 -7.079999999999984 1 -3 1 C-2.009999999999991 0.6700000000000159 -1.0199999999999818 0.339999999999975 0 0 Z " fill="#000000" transform="translate(423,295)"/>
<path d="M0 0 C0.9900000000000091 0 1.9800000000000182 0 3 0 C3 1.6499999999999773 3 3.3000000000000114 3 5 C4.649999999999977 5 6.2999999999999545 5 8 5 C8 5.990000000000009 8 6.980000000000018 8 8 C6.350000000000023 8 4.7000000000000455 8 3 8 C3 12.949999999999989 3 17.899999999999977 3 23 C4.649999999999977 22.670000000000016 6.2999999999999545 22.339999999999975 8 22 C8 22.99000000000001 8 23.980000000000018 8 25 C7.009999999999991 25.660000000000025 6.019999999999982 26.319999999999993 5 27 C3.019999999999982 27 1.0399999999999636 27 -1 27 C-1.990000000000009 25.680000000000007 -2.980000000000018 24.360000000000014 -4 23 C-4 18.05000000000001 -4 13.100000000000023 -4 8 C-4.990000000000009 8 -5.980000000000018 8 -7 8 C-6.669999999999959 7.009999999999991 -6.340000000000032 6.019999999999982 -6 5 C-5.009999999999991 4.670000000000016 -4.019999999999982 4.339999999999975 -3 4 C-2.009999999999991 2.680000000000007 -1.0199999999999818 1.3600000000000136 0 0 Z " fill="#000000" transform="translate(603,291)"/>
<path d="M0 0 C1.3199999999999932 0.3299999999999841 2.6399999999999864 0.660000000000025 4 1 C4.329999999999984 2.319999999999993 4.659999999999997 3.6399999999999864 5 5 C3.0200000000000102 5.329999999999984 1.039999999999992 5.660000000000025 -1 6 C-1.6599999999999966 6 -2.319999999999993 6 -3 6 C-3.3299999999999983 6.660000000000025 -3.6599999999999966 7.319999999999993 -4 8 C-4 11.629999999999995 -4 15.259999999999991 -4 19 C-2.680000000000007 19.329999999999984 -1.3599999999999994 19.660000000000025 0 20 C0 20.99000000000001 0 21.980000000000018 0 23 C-4.6200000000000045 23 -9.239999999999995 23 -14 23 C-14 22.00999999999999 -14 21.019999999999982 -14 20 C-13.010000000000005 20 -12.019999999999996 20 -11 20 C-11 14.720000000000027 -11 9.439999999999998 -11 4 C-11.989999999999995 4 -12.980000000000004 4 -14 4 C-14 3.009999999999991 -14 2.019999999999982 -14 1 C-11.030000000000001 1 -8.060000000000002 1 -5 1 C-4.010000000000005 1 -3.019999999999996 1 -2 1 C-1.3400000000000034 0.6700000000000159 -0.6800000000000068 0.339999999999975 0 0 Z " fill="#000000" transform="translate(129,295)"/>
<path d="M0 0 C0.6599999999999966 0 1.3199999999999932 0 2 0 C2 1.6499999999999773 2 3.3000000000000114 2 5 C3.9799999999999898 5 5.960000000000008 5 8 5 C8 5.990000000000009 8 6.980000000000018 8 8 C6.02000000000001 8 4.039999999999992 8 2 8 C2.3300000000000125 12.949999999999989 2.6599999999999966 17.899999999999977 3 23 C4.650000000000006 22.670000000000016 6.300000000000011 22.339999999999975 8 22 C8 22.99000000000001 8 23.980000000000018 8 25 C7.009999999999991 25.660000000000025 6.02000000000001 26.319999999999993 5 27 C3.0200000000000102 27 1.039999999999992 27 -1 27 C-1.990000000000009 26.00999999999999 -2.9799999999999898 25.019999999999982 -4 24 C-4 18.720000000000027 -4 13.439999999999998 -4 8 C-4.990000000000009 8 -5.97999999999999 8 -7 8 C-6.6699999999999875 7.009999999999991 -6.340000000000003 6.019999999999982 -6 5 C-5.009999999999991 4.670000000000016 -4.02000000000001 4.339999999999975 -3 4 C-2.009999999999991 2.680000000000007 -1.0200000000000102 1.3600000000000136 0 0 Z " fill="#000000" transform="translate(182,291)"/>
<path d="M0 0 C1.6499999999999773 0 3.2999999999999545 0 5 0 C5.330000000000041 0.3299999999999841 5.659999999999968 0.660000000000025 6 1 C6 2.980000000000018 6 4.9599999999999795 6 7 C5.669999999999959 7.329999999999984 5.340000000000032 7.660000000000025 5 8 C3.3500000000000227 8 1.7000000000000455 8 0 8 C-0.3300000000000409 7.670000000000016 -0.6599999999999682 7.339999999999975 -1 7 C-1 5.019999999999982 -1 3.0400000000000205 -1 1 C-0.6699999999999591 0.6700000000000159 -0.34000000000003183 0.339999999999975 0 0 Z " fill="#000000" transform="translate(550,310)"/>
<path d="M0 0 C3.6299999999999955 0 7.259999999999991 0 11 0 C11.330000000000013 0.660000000000025 11.659999999999997 1.3199999999999932 12 2 C11.669999999999987 2.660000000000025 11.340000000000003 3.319999999999993 11 4 C7.3700000000000045 4 3.740000000000009 4 0 4 C0 2.680000000000007 0 1.3600000000000136 0 0 Z " fill="#000000" transform="translate(232,304)"/>
</svg>
