<?xml version="1.0" encoding="UTF-8"?>
<!-- Generator: visioncortex VTracer 0.6.4 -->
<svg version="1.1" xmlns="http://www.w3.org/2000/svg" width="639" height="329">
<path d="M0 0 C0.6599999999999682 0 1.3199999999999932 0 2 0 C2 70.29 2 140.58 2 213 C-9.879999999999995 213 -21.75999999999999 213 -34 213 C-34 151.29 -34 89.58 -34 26 C-28.060000000000002 21.379999999999995 -22.120000000000005 16.759999999999998 -16 12 C-14.264921875000027 10.682578125 -12.529843749999998 9.365156249999998 -10.7421875 8.0078125 C-9.466015625000011 7.056484374999997 -8.189843750000023 6.10515625 -6.875 5.125 C-5.552421874999993 4.137578124999997 -4.229843749999986 3.150156250000002 -2.8671875 2.1328125 C-1.9210156249999955 1.4289843749999989 -0.9748437499999909 0.7251562500000013 0 0 Z " fill="#DD390D" transform="translate(310,31)"/>
<path d="M0 0 C0.9900000000000091 0 1.9800000000000182 0 3 0 C3 47.52000000000001 3 95.04000000000002 3 144 C-8.879999999999995 144 -20.75999999999999 144 -33 144 C-33.00523681640624 140.32109619140624 -33.01047363281248 136.6421923828125 -33.015869140625 132.851806640625 C-33.0176142215729 131.5715136051178 -33.01935930252074 130.2912205696106 -33.02115726470947 128.97213077545166 C-33.02263987541198 127.81892054557801 -33.02412248611449 126.66571031570436 -33.02565002441406 125.47755432128906 C-33.027272052764886 124.16363771438597 -33.02889408111571 122.8497211074829 -33.03056526184082 121.4959888458252 C-33.032080287933354 120.14766408920286 -33.03359531402589 118.79933933258059 -33.03515625 117.41015625 C-33.0364043998718 116.06438444137575 -33.037652549743655 114.71861263275144 -33.03893852233887 113.33205986022949 C-33.04006204605105 111.96906320571901 -33.04118556976317 110.6060665512085 -33.04234313964844 109.20176696777344 C-33.043435506820686 107.81340605735778 -33.044527873992934 106.42504514694213 -33.045653343200684 104.99461269378662 C-33.04722486019136 102.87709386348723 -33.04722486019136 102.87709386348723 -33.048828125 100.716796875 C-33.049812860488885 99.2772995853424 -33.05079759597777 97.83780229568481 -33.051812171936035 96.3546838760376 C-33.0528415966034 94.89886622428895 -33.053871021270766 93.44304857254028 -33.054931640625 91.943115234375 C-33.05603942871096 90.47902221679686 -33.057147216796864 89.01492919921876 -33.05828857421875 87.5064697265625 C-33.059678344726535 86.03995971679689 -33.06106811523438 84.57344970703124 -33.0625 83.0625 C-33.06453430175782 81.60179077148437 -33.066568603515634 80.14108154296875 -33.06866455078125 78.6361083984375 C-33.072018127441424 76.45519592285157 -33.072018127441424 76.45519592285157 -33.075439453125 74.230224609375 C-33.07764779090883 72.78501717567444 -33.079856128692654 71.33980974197388 -33.08213138580322 69.85080814361572 C-33.084031934738164 68.41955317497253 -33.085932483673105 66.98829820632935 -33.087890625 65.513671875 C-33.08896285057068 64.10221358299255 -33.09003507614136 62.69075529098511 -33.091139793395996 61.236525535583496 C-33.09187527656553 59.84495266914368 -33.09261075973512 58.453379802703864 -33.09336853027344 57.01963806152344 C-33.09386640548706 55.651010570526125 -33.09436428070069 54.28238307952881 -33.09487724304199 52.87228202819824 C-33.09579431533814 51.523530521392814 -33.096711387634286 50.1747790145874 -33.09765625 48.78515625 C-33.10165278434755 46.77818507194519 -33.10165278434755 46.77818507194519 -33.105730056762695 44.730669021606445 C-33.108226985931424 43.424626522064216 -33.110723915100095 42.11858402252197 -33.11329650878906 40.77296447753906 C-33.11351806640624 39.51209518432617 -33.113739624023424 38.25122589111328 -33.11396789550781 36.9521484375 C-33.11382186889648 35.75114501953125 -33.11367584228515 34.5501416015625 -33.113525390625 33.312744140625 C-33.11712066650392 32.19496078491211 -33.12071594238279 31.077177429199224 -33.124420166015625 29.925521850585938 C-33.12304550170899 28.87820892333984 -33.12167083740235 27.830895996093744 -33.12025451660156 26.751846313476563 C-33.08057052612304 24.853737030029293 -33.04088653564452 22.955627746582024 -33 21 C-32.83265853881835 19.261049652099608 -32.6653170776367 17.522099304199216 -32.49290466308594 15.730453491210938 C-32.3302461242676 14.499403839111324 -32.16758758544921 13.268354187011717 -32 12 C-31.04633544921876 11.636484375000002 -30.092670898437518 11.272968750000004 -29.110107421875 10.8984375 C-27.12781127929685 10.144335937500003 -27.12781127929685 10.144335937500003 -25.10546875 9.375 C-23.67525390625002 8.833593749999999 -22.245039062499984 8.292187499999997 -20.771484375 7.734375 C-19.258769531249982 7.162031249999998 -17.74605468750002 6.589687499999997 -16.1875 6 C-14.686386718749986 5.427656249999998 -13.185273437499973 4.855312499999997 -11.638671875 4.265625 C-10.20458984375 3.7242187499999986 -8.7705078125 3.182812499999997 -7.29296875 2.625 C-5.305596923828148 1.8708984375000028 -5.305596923828148 1.8708984375000028 -3.278076171875 1.1015625 C-2.1963110351562705 0.738046875000002 -1.114545898437484 0.3745312499999969 0 0 Z " fill="#DC390D" transform="translate(410,44)"/>
<path d="M0 0 C0.6599999999999682 0 1.3199999999999932 0 2 0 C2 44.879999999999995 2 89.75999999999999 2 136 C-9.879999999999995 136 -21.75999999999999 136 -34 136 C-34 97.72 -34 59.44 -34 20 C-25.420000000000016 15.049999999999997 -16.839999999999975 10.099999999999994 -8 5 C-4.0400000000000205 2.5250000000000057 -4.0400000000000205 2.5250000000000057 0 0 Z " fill="#DD390D" transform="translate(361,88)"/>
<path d="M0 0 C0.6599999999999682 0 1.3199999999999932 0 2 0 C2 41.25 2 82.5 2 125 C-9.879999999999995 125 -21.75999999999999 125 -34 125 C-34 90.01999999999998 -34 55.03999999999999 -34 19 C-29.379999999999995 16.36 -24.75999999999999 13.719999999999999 -20 11 C-18.105078125000006 9.948125000000005 -16.21015625000001 8.896249999999995 -14.2578125 7.8125 C-11.717070312499999 6.420312499999994 -11.717070312499999 6.420312499999994 -9.125 5 C-7.395078124999998 4.051249999999996 -5.6651562499999955 3.1025000000000063 -3.8828125 2.125 C-1.9608203125000045 1.0731250000000045 -1.9608203125000045 1.0731250000000045 0 0 Z " fill="#DD390D" transform="translate(260,88)"/>
<path d="M0 0 C1.0737890625 -0.03480468750001364 2.147578125 -0.06960937500002728 3.25390625 -0.10546875 C4.6757421875 -0.13253906249997272 6.097578125 -0.15960937500000227 7.5625 -0.1875 C8.9662890625 -0.22230468750001364 10.370078125 -0.2571093750000273 11.81640625 -0.29296875 C13.1969921875 -0.1962890625 14.577578125000002 -0.099609375 16 0 C17.3290234375 0.498867187500025 18.658046875 0.9977343749999932 20.02734375 1.51171875 C21.49880859375 2.2484179687500045 21.49880859375 2.2484179687500045 23 3 C23.990000000000002 4.485000000000014 23.990000000000002 4.485000000000014 25 6 C25 8.310000000000002 25 10.620000000000005 25 13 C23.68 14.319999999999993 22.36 15.639999999999986 21 17 C21.66 18.649999999999977 22.32 20.30000000000001 23 22 C24.32 23.649999999999977 25.64 25.30000000000001 27 27 C27 27.660000000000025 27 28.319999999999993 27 29 C28.32 29.329999999999984 29.64 29.660000000000025 31 30 C31 30.99000000000001 31 31.980000000000018 31 33 C28.36 33 25.72 33 23 33 C22.278125 32.31937499999998 21.55625 31.638750000000016 20.8125 30.9375 C19.884375 29.968124999999986 18.95625 28.998749999999973 18 28 C17.071875 26.741874999999993 16.14375 25.483749999999986 15.1875 24.1875 C14.465625 23.135625000000005 13.74375 22.08375000000001 13 21 C13 20.339999999999975 13 19.680000000000007 13 19 C12.34 19 11.68 19 11 19 C11.33 22.30000000000001 11.66 25.600000000000023 12 29 C12.99 29.329999999999984 13.98 29.660000000000025 15 30 C15 30.99000000000001 15 31.980000000000018 15 33 C10.05 33 5.1 33 0 33 C0 32.00999999999999 0 31.019999999999982 0 30 C0.9900000000000002 29.670000000000016 1.98 29.339999999999975 3 29 C3 20.75 3 12.5 3 4 C2.01 3.670000000000016 1.02 3.339999999999975 0 3 C0 2.009999999999991 0 1.0199999999999818 0 0 Z M11 4 C11 7.6299999999999955 11 11.259999999999991 11 15 C12.98 14.670000000000016 14.96 14.339999999999975 17 14 C17.33 12.019999999999982 17.66 10.04000000000002 18 8 C17.009999999999998 6.680000000000007 16.02 5.360000000000014 15 4 C13.68 4 12.36 4 11 4 Z " fill="#000000" transform="translate(2,285)"/>
<path d="M0 0 C0.9900000000000091 0.660000000000025 1.9800000000000182 1.3199999999999932 3 2 C4.319999999999993 1.339999999999975 5.639999999999986 0.6800000000000068 7 0 C9.970000000000027 0.49500000000000455 9.970000000000027 0.49500000000000455 13 1 C13.660000000000025 1.660000000000025 14.319999999999993 2.319999999999993 15 3 C16.649999999999977 2.009999999999991 18.30000000000001 1.0199999999999818 20 0 C22.970000000000027 0.49500000000000455 22.970000000000027 0.49500000000000455 26 1 C26.659999999999968 1.990000000000009 27.319999999999993 2.980000000000018 28 4 C28 9.279999999999973 28 14.560000000000002 28 20 C28.99000000000001 20 29.980000000000018 20 31 20 C31 20.99000000000001 31 21.980000000000018 31 23 C27.04000000000002 23 23.079999999999984 23 19 23 C19 22.00999999999999 19 21.019999999999982 19 20 C19.99000000000001 20 20.980000000000018 20 22 20 C21.670000000000016 15.050000000000011 21.339999999999975 10.100000000000023 21 5 C19.350000000000023 5.329999999999984 17.69999999999999 5.660000000000025 16 6 C15.670000000000016 10.620000000000005 15.339999999999975 15.240000000000009 15 20 C15.990000000000009 20.329999999999984 16.980000000000018 20.660000000000025 18 21 C17.670000000000016 21.660000000000025 17.339999999999975 22.319999999999993 17 23 C13.370000000000005 23 9.740000000000009 23 6 23 C6 22.00999999999999 6 21.019999999999982 6 20 C6.660000000000025 19.670000000000016 7.319999999999993 19.339999999999975 8 19 C8 14.379999999999995 8 9.759999999999991 8 5 C6.350000000000023 5.660000000000025 4.699999999999989 6.319999999999993 3 7 C2.670000000000016 11.29000000000002 2.339999999999975 15.579999999999984 2 20 C2.660000000000025 20 3.319999999999993 20 4 20 C4 20.99000000000001 4 21.980000000000018 4 23 C0.040000000000020464 23 -3.920000000000016 23 -8 23 C-8 22.00999999999999 -8 21.019999999999982 -8 20 C-7.009999999999991 20 -6.019999999999982 20 -5 20 C-5 14.720000000000027 -5 9.439999999999998 -5 4 C-5.990000000000009 3.670000000000016 -6.980000000000018 3.339999999999975 -8 3 C-8 2.339999999999975 -8 1.6800000000000068 -8 1 C-5.360000000000014 0.6700000000000159 -2.7200000000000273 0.339999999999975 0 0 Z " fill="#000000" transform="translate(352,295)"/>
<path d="M0 0 C0.660000000000025 0 1.3199999999999932 0 2 0 C2.329999999999984 0.660000000000025 2.660000000000025 1.3199999999999932 3 2 C4.319999999999993 1.339999999999975 5.639999999999986 0.6800000000000068 7 0 C9.970000000000027 0.49500000000000455 9.970000000000027 0.49500000000000455 13 1 C13.990000000000009 1.660000000000025 14.980000000000018 2.319999999999993 16 3 C17.319999999999993 2.009999999999991 18.639999999999986 1.0199999999999818 20 0 C22.970000000000027 0.49500000000000455 22.970000000000027 0.49500000000000455 26 1 C26.659999999999968 1.660000000000025 27.319999999999993 2.319999999999993 28 3 C28.329999999999984 8.279999999999973 28.659999999999968 13.560000000000002 29 19 C29.99000000000001 19.99000000000001 30.980000000000018 20.980000000000018 32 22 C31.00999999999999 22.329999999999984 30.019999999999982 22.660000000000025 29 23 C27.28812499999998 23.020624999999995 25.576250000000016 23.04124999999999 23.8125 23.0625 C22.22437500000001 23.041875000000005 20.636250000000018 23.02125000000001 19 23 C19.329999999999984 22.00999999999999 19.660000000000025 21.019999999999982 20 20 C20.660000000000025 20 21.319999999999993 20 22 20 C21.670000000000016 15.379999999999995 21.339999999999975 10.759999999999991 21 6 C19.680000000000007 6.329999999999984 18.360000000000014 6.660000000000025 17 7 C16.670000000000016 7.329999999999984 16.339999999999975 7.660000000000025 16 8 C15.670000000000016 11.95999999999998 15.339999999999975 15.920000000000016 15 20 C15.990000000000009 20 16.980000000000018 20 18 20 C18 20.99000000000001 18 21.980000000000018 18 23 C14.04000000000002 23 10.079999999999984 23 6 23 C6 22.00999999999999 6 21.019999999999982 6 20 C6.990000000000009 20 7.980000000000018 20 9 20 C8.670000000000016 15.050000000000011 8.339999999999975 10.100000000000023 8 5 C6.350000000000023 5.329999999999984 4.699999999999989 5.660000000000025 3 6 C2.670000000000016 10.620000000000005 2.339999999999975 15.240000000000009 2 20 C2.990000000000009 20.329999999999984 3.980000000000018 20.660000000000025 5 21 C4.670000000000016 21.660000000000025 4.339999999999975 22.319999999999993 4 23 C0.37000000000000455 23 -3.259999999999991 23 -7 23 C-7 22.00999999999999 -7 21.019999999999982 -7 20 C-6.339999999999975 19.670000000000016 -5.680000000000007 19.339999999999975 -5 19 C-5 14.379999999999995 -5 9.759999999999991 -5 5 C-5.990000000000009 4.339999999999975 -6.980000000000018 3.680000000000007 -8 3 C-8 2.339999999999975 -8 1.6800000000000068 -8 1 C-6.081875000000025 0.7524999999999977 -6.081875000000025 0.7524999999999977 -4.125 0.5 C-2.763750000000016 0.33499999999997954 -1.402499999999975 0.17000000000001592 0 0 Z " fill="#000000" transform="translate(311,295)"/>
<path d="M0 0 C7.9199999999999875 0 15.840000000000003 0 24 0 C24.329999999999984 2.9700000000000273 24.659999999999997 5.939999999999998 25 9 C24.00999999999999 8.670000000000016 23.02000000000001 8.339999999999975 22 8 C21.340000000000003 7.009999999999991 20.680000000000007 6.019999999999982 20 5 C17.03 4.670000000000016 14.060000000000002 4.339999999999975 11 4 C11 7.300000000000011 11 10.600000000000023 11 14 C13.310000000000002 14 15.620000000000005 14 18 14 C18.329999999999984 13.009999999999991 18.659999999999997 12.019999999999982 19 11 C19.659999999999997 11 20.319999999999993 11 21 11 C21 14.300000000000011 21 17.600000000000023 21 21 C20.00999999999999 20.670000000000016 19.02000000000001 20.339999999999975 18 20 C18 19.339999999999975 18 18.680000000000007 18 18 C15.689999999999998 18 13.379999999999995 18 11 18 C11 21.629999999999995 11 25.25999999999999 11 29 C14.300000000000011 28.670000000000016 17.599999999999994 28.339999999999975 21 28 C21.99000000000001 26.680000000000007 22.97999999999999 25.360000000000014 24 24 C24.99000000000001 24 25.97999999999999 24 27 24 C26.340000000000003 26.970000000000027 25.680000000000007 29.939999999999998 25 33 C16.75 33 8.5 33 0 33 C0 32.00999999999999 0 31.019999999999982 0 30 C0.9900000000000091 29.670000000000016 1.9799999999999898 29.339999999999975 3 29 C3 20.75 3 12.5 3 4 C2.009999999999991 3.670000000000016 1.0200000000000102 3.339999999999975 0 3 C0 2.009999999999991 0 1.0199999999999818 0 0 Z " fill="#000000" transform="translate(202,285)"/>
<path d="M0 0 C1.0737890624999977 -0.03480468750001364 2.1475781249999955 -0.06960937500002728 3.25390625 -0.10546875 C4.6757421875000205 -0.13253906249997272 6.097578124999984 -0.15960937500000227 7.5625 -0.1875 C8.966289062499982 -0.22230468750001364 10.37007812500002 -0.2571093750000273 11.81640625 -0.29296875 C13.196992187499973 -0.1962890625 14.577578125000002 -0.099609375 16 0 C17.287773437499993 0.45761718749997726 18.575546874999986 0.9152343750000114 19.90234375 1.38671875 C20.92457031250001 1.919101562499975 21.946796875000018 2.451484375000007 23 3 C23.660000000000025 3.660000000000025 24.319999999999993 4.319999999999993 25 5 C25 7.639999999999986 25 10.279999999999973 25 13 C23.680000000000007 14.649999999999977 22.360000000000014 16.30000000000001 21 18 C20.339999999999975 18.329999999999984 19.680000000000007 18.660000000000025 19 19 C16.360000000000014 19 13.720000000000027 19 11 19 C11.329999999999984 22.30000000000001 11.660000000000025 25.600000000000023 12 29 C13.319999999999993 29.660000000000025 14.639999999999986 30.319999999999993 16 31 C15.670000000000016 31.660000000000025 15.339999999999975 32.31999999999999 15 33 C10.050000000000011 33 5.100000000000023 33 0 33 C0 32.00999999999999 0 31.019999999999982 0 30 C0.9900000000000091 29.670000000000016 1.9800000000000182 29.339999999999975 3 29 C3 20.75 3 12.5 3 4 C2.009999999999991 3.670000000000016 1.0199999999999818 3.339999999999975 0 3 C0 2.009999999999991 0 1.0199999999999818 0 0 Z M11 4 C11 7.9599999999999795 11 11.920000000000016 11 16 C12.649999999999977 15.670000000000016 14.300000000000011 15.339999999999975 16 15 C16.660000000000025 14.009999999999991 17.319999999999993 13.019999999999982 18 12 C17.670000000000016 9.689999999999998 17.339999999999975 7.3799999999999955 17 5 C16.670000000000016 4.670000000000016 16.339999999999975 4.339999999999975 16 4 C14.350000000000023 4 12.699999999999989 4 11 4 Z " fill="#000000" transform="translate(482,285)"/>
<path d="M0 0 C1.32000000000005 0 2.6399999999999864 0 4 0 C4 10.230000000000018 4 20.45999999999998 4 31 C4.990000000000009 31.329999999999984 5.980000000000018 31.660000000000025 7 32 C7 32.65999999999997 7 33.31999999999999 7 34 C2.544999999999959 34.495000000000005 2.544999999999959 34.495000000000005 -2 35 C-2.330000000000041 34.34000000000003 -2.659999999999968 33.68000000000001 -3 33 C-3.990000000000009 33.65999999999997 -4.980000000000018 34.31999999999999 -6 35 C-7.980000000000018 35 -9.960000000000036 35 -12 35 C-13.32000000000005 34.34000000000003 -14.639999999999986 33.68000000000001 -16 33 C-16.659999999999968 31.680000000000007 -17.32000000000005 30.360000000000014 -18 29 C-18 26.029999999999973 -18 23.060000000000002 -18 20 C-17.00999999999999 18.350000000000023 -16.019999999999982 16.69999999999999 -15 15 C-13.019999999999982 14.009999999999991 -11.039999999999964 13.019999999999982 -9 12 C-6.690000000000055 12.329999999999984 -4.3799999999999955 12.660000000000025 -2 13 C-2.330000000000041 10.360000000000014 -2.659999999999968 7.720000000000027 -3 5 C-3.990000000000009 4.339999999999975 -4.980000000000018 3.680000000000007 -6 3 C-6 2.339999999999975 -6 1.6800000000000068 -6 1 C-4.019999999999982 0.6700000000000159 -2.0399999999999636 0.339999999999975 0 0 Z M-8 15 C-8.990000000000009 15.990000000000009 -9.980000000000018 16.980000000000018 -11 18 C-11 21.30000000000001 -11 24.600000000000023 -11 28 C-10.009999999999991 29.485000000000014 -10.009999999999991 29.485000000000014 -9 31 C-7.350000000000023 30.670000000000016 -5.7000000000000455 30.339999999999975 -4 30 C-3.340000000000032 29.00999999999999 -2.67999999999995 28.019999999999982 -2 27 C-2 23.69999999999999 -2 20.399999999999977 -2 17 C-3.980000000000018 16.339999999999975 -5.960000000000036 15.680000000000007 -8 15 Z " fill="#000000" transform="translate(631,283)"/>
<path d="M0 0 C0.6599999999999682 0 1.32000000000005 0 2 0 C2 1.6499999999999773 2 3.3000000000000114 2 5 C3.980000000000018 5 5.960000000000036 5 8 5 C8 5.990000000000009 8 6.980000000000018 8 8 C6.019999999999982 8 4.039999999999964 8 2 8 C2.330000000000041 12.949999999999989 2.659999999999968 17.899999999999977 3 23 C4.649999999999977 22.670000000000016 6.2999999999999545 22.339999999999975 8 22 C8 22.99000000000001 8 23.980000000000018 8 25 C7.009999999999991 25.660000000000025 6.019999999999982 26.319999999999993 5 27 C3.019999999999982 27 1.0399999999999636 27 -1 27 C-1.990000000000009 26.00999999999999 -2.980000000000018 25.019999999999982 -4 24 C-4 18.720000000000027 -4 13.439999999999998 -4 8 C-5.649999999999977 8 -7.2999999999999545 8 -9 8 C-9.74249999999995 9.464375000000018 -10.485000000000014 10.92874999999998 -11.25 12.4375 C-12.157500000000027 14.273124999999993 -13.065000000000055 16.108749999999986 -14 18 C-14.763124999999945 19.691250000000025 -15.526250000000005 21.382499999999993 -16.3125 23.125 C-17.147812499999986 25.043124999999975 -17.147812499999986 25.043124999999975 -18 27 C-18.99000000000001 26.670000000000016 -19.980000000000018 26.339999999999975 -21 26 C-21.505312499999945 24.86820312499998 -22.010625000000005 23.736406250000016 -22.53125 22.5703125 C-23.50578125000004 20.36988281250001 -23.50578125000004 20.36988281250001 -24.5 18.125 C-25.149687500000027 16.663203124999995 -25.799375000000055 15.201406249999991 -26.46875 13.6953125 C-26.974062499999945 12.475859375000027 -27.479375000000005 11.256406249999998 -28 10 C-28 9.339999999999975 -28 8.680000000000007 -28 8 C-28.99000000000001 7.670000000000016 -29.980000000000018 7.339999999999975 -31 7 C-31 6.339999999999975 -31 5.680000000000007 -31 5 C-27.04000000000002 5 -23.08000000000004 5 -19 5 C-19 5.660000000000025 -19 6.319999999999993 -19 7 C-19.659999999999968 7 -20.32000000000005 7 -21 7 C-20.00999999999999 9.639999999999986 -19.019999999999982 12.279999999999973 -18 15 C-17.340000000000032 14.009999999999991 -16.67999999999995 13.019999999999982 -16 12 C-15.669999999999959 10.680000000000007 -15.340000000000032 9.360000000000014 -15 8 C-15.330000000000041 7.009999999999991 -15.659999999999968 6.019999999999982 -16 5 C-13.617812500000014 5.030937499999993 -13.617812500000014 5.030937499999993 -11.1875 5.0625 C-8.619687500000055 5.031562500000007 -8.619687500000055 5.031562500000007 -6 5 C-5.009999999999991 4.670000000000016 -4.019999999999982 4.339999999999975 -3 4 C-2.009999999999991 2.680000000000007 -1.0199999999999818 1.3600000000000136 0 0 Z " fill="#000000" transform="translate(539,291)"/>
<path d="M0 0 C1.6500000000000057 0 3.299999999999997 0 5 0 C4.670000000000002 10.230000000000018 4.340000000000003 20.45999999999998 4 31 C4.989999999999995 31.329999999999984 5.980000000000004 31.660000000000025 7 32 C7 32.65999999999997 7 33.31999999999999 7 34 C4.865312500000002 34.2475 4.865312500000002 34.2475 2.6875 34.5 C0.3671875 34.7475 0.3671875 34.7475 -2 35 C-2.989999999999995 35 -3.980000000000004 35 -5 35 C-6.216875000000002 35 -7.433750000000003 35 -8.6875 35 C-9.780625 35 -10.873750000000001 35 -12 35 C-13.649999999999999 33.68000000000001 -15.299999999999997 32.360000000000014 -17 31 C-17.33 30.00999999999999 -17.659999999999997 29.019999999999982 -18 28 C-18.020625000000003 26.783124999999984 -18.041249999999998 25.566250000000025 -18.0625 24.3125 C-18.041874999999997 23.219375000000014 -18.021250000000002 22.126250000000027 -18 21 C-16.68 19.019999999999982 -15.36 17.04000000000002 -14 15 C-12.019999999999996 14.009999999999991 -10.04 13.019999999999982 -8 12 C-5.030000000000001 12.495000000000005 -5.030000000000001 12.495000000000005 -2 13 C-2.3299999999999983 10.029999999999973 -2.6599999999999966 7.060000000000002 -3 4 C-3.6599999999999966 3.670000000000016 -4.319999999999993 3.339999999999975 -5 3 C-5 2.339999999999975 -5 1.6800000000000068 -5 1 C-3.3499999999999943 0.6700000000000159 -1.7000000000000028 0.339999999999975 0 0 Z M-7 15 C-8.319999999999993 16.319999999999993 -9.64 17.639999999999986 -11 19 C-11 21.639999999999986 -11 24.279999999999973 -11 27 C-10.340000000000003 28.319999999999993 -9.680000000000007 29.639999999999986 -9 31 C-7.349999999999994 31 -5.700000000000003 31 -4 31 C-3.3400000000000034 30.00999999999999 -2.680000000000007 29.019999999999982 -2 28 C-2 24.370000000000005 -2 20.74000000000001 -2 17 C-4.474999999999994 16.00999999999999 -4.474999999999994 16.00999999999999 -7 15 Z " fill="#000000" transform="translate(74,283)"/>
<path d="M0 0 C1.0003125000000068 -0.04382812500000455 2.0006249999999994 -0.0876562500000091 3.03125 -0.1328125 C4.175937500000003 -0.13023437499998636 5.320625000000007 -0.12765624999997272 6.5 -0.125 C7.644687500000003 -0.12757812500001364 8.789375000000007 -0.13015625000002728 9.96875 -0.1328125 C10.969062500000007 -0.08898437499999545 11.969375 -0.045156249999990905 13 0 C13.989999999999995 0.3299999999999841 14.980000000000004 0.660000000000025 16 1 C16.33 3.6399999999999864 16.659999999999997 6.279999999999973 17 9 C15.680000000000007 8.670000000000016 14.36 8.339999999999975 13 8 C11.680000000000007 6.680000000000007 10.36 5.360000000000014 9 4 C6.359999999999999 4.329999999999984 3.719999999999999 4.660000000000025 1 5 C0.010000000000005116 5.990000000000009 -0.980000000000004 6.980000000000018 -2 8 C-2.3299999999999983 8.990000000000009 -2.6599999999999966 9.980000000000018 -3 11 C-3.0206249999999955 12.546875 -3.041250000000005 14.09375 -3.0625 15.6875 C-3.0418750000000045 17.110625000000027 -3.021249999999995 18.533749999999998 -3 20 C-2.010000000000005 21.980000000000018 -1.019999999999996 23.95999999999998 0 26 C1.6500000000000057 26.99000000000001 3.299999999999997 27.980000000000018 5 29 C8.960000000000008 28.504999999999995 8.960000000000008 28.504999999999995 13 28 C13.659999999999997 26.350000000000023 14.319999999999993 24.69999999999999 15 23 C15.989999999999995 23 16.980000000000004 23 18 23 C17.340000000000003 25.970000000000027 16.680000000000007 28.939999999999998 16 32 C15.009999999999991 32.495000000000005 15.009999999999991 32.495000000000005 14 33 C9.379999999999995 33 4.759999999999991 33 0 33 C-1.980000000000004 32.00999999999999 -3.960000000000008 31.019999999999982 -6 30 C-7.319999999999993 28.680000000000007 -8.64 27.360000000000014 -10 26 C-10.659999999999997 22.370000000000005 -11.319999999999993 18.74000000000001 -12 15 C-11.010000000000005 12.029999999999973 -10.019999999999996 9.060000000000002 -9 6 C-8.071875000000006 5.195625000000007 -7.143749999999997 4.391250000000014 -6.1875 3.5625 C-5.1356250000000045 2.716875000000016 -4.083749999999995 1.871249999999975 -3 1 C-2.010000000000005 0.6700000000000159 -1.019999999999996 0.339999999999975 0 0 Z " fill="#000000" transform="translate(95,285)"/>
<path d="M0 0 C1.9800000000000182 -0.041249999999990905 3.9599999999999795 -0.08249999999998181 6 -0.125 C7.980000000000018 -0.0837500000000091 9.95999999999998 -0.04250000000001819 12 0 C12.990000000000009 0.3299999999999841 13.980000000000018 0.660000000000025 15 1 C15.660000000000025 3.6399999999999864 16.319999999999993 6.279999999999973 17 9 C15.680000000000007 9 14.360000000000014 9 13 9 C12.339999999999975 7.680000000000007 11.680000000000007 6.360000000000014 11 5 C9.948125000000005 4.814374999999984 8.896250000000009 4.628750000000025 7.8125 4.4375 C6.554374999999993 4.293124999999975 5.296249999999986 4.148750000000007 4 4 C2.3500000000000227 4.329999999999984 0.6999999999999886 4.660000000000025 -1 5 C-1.660000000000025 6.649999999999977 -2.319999999999993 8.300000000000011 -3 10 C-3.041249999999991 11.918124999999975 -3.0825000000000102 13.836250000000007 -3.125 15.8125 C-3.083750000000009 17.52437500000002 -3.0424999999999898 19.236249999999984 -3 21 C-1.0199999999999818 23.970000000000027 -1.0199999999999818 23.970000000000027 1 27 C2.319999999999993 27.660000000000025 3.6399999999999864 28.319999999999993 5 29 C6.980000000000018 28.670000000000016 8.95999999999998 28.339999999999975 11 28 C12.319999999999993 26.350000000000023 13.639999999999986 24.69999999999999 15 23 C15.990000000000009 23.329999999999984 16.980000000000018 23.660000000000025 18 24 C17.00999999999999 26.639999999999986 16.019999999999982 29.279999999999973 15 32 C14.009999999999991 32.495000000000005 14.009999999999991 32.495000000000005 13 33 C8.70999999999998 33 4.420000000000016 33 0 33 C-2.6399999999999864 31.680000000000007 -5.280000000000001 30.360000000000014 -8 29 C-8.990000000000009 27.350000000000023 -9.97999999999999 25.69999999999999 -11 24 C-11.226875000000007 22.24687499999999 -11.453750000000014 20.493749999999977 -11.6875 18.6875 C-11.842187499999994 16.3671875 -11.842187499999994 16.3671875 -12 14 C-11.009999999999991 11.360000000000014 -10.02000000000001 8.720000000000027 -9 6 C-8.071875000000006 5.195625000000007 -7.143750000000011 4.391250000000014 -6.1875 3.5625 C-5.1356250000000045 2.716875000000016 -4.083750000000009 1.871249999999975 -3 1 C-2.009999999999991 0.6700000000000159 -1.0199999999999818 0.339999999999975 0 0 Z " fill="#000000" transform="translate(258,285)"/>
<path d="M0 0 C4.6200000000000045 0 9.240000000000009 0 14 0 C14 0.9900000000000091 14 1.9800000000000182 14 3 C13.009999999999991 3.329999999999984 12.019999999999982 3.660000000000025 11 4 C11 11.920000000000016 11 19.839999999999975 11 28 C13.970000000000027 28 16.940000000000055 28 20 28 C20.99000000000001 26.680000000000007 21.980000000000018 25.360000000000014 23 24 C23.99000000000001 24.329999999999984 24.980000000000018 24.660000000000025 26 25 C25.340000000000032 27.639999999999986 24.67999999999995 30.279999999999973 24 33 C16.08000000000004 33 8.159999999999968 33 0 33 C0 32.00999999999999 0 31.019999999999982 0 30 C0.6599999999999682 29.670000000000016 1.32000000000005 29.339999999999975 2 29 C2.330000000000041 20.420000000000016 2.659999999999968 11.839999999999975 3 3 C2.009999999999991 3 1.0199999999999818 3 0 3 C0 2.009999999999991 0 1.0199999999999818 0 0 Z " fill="#000000" transform="translate(570,285)"/>
<path d="M0 0 C2.6399999999999864 0.3299999999999841 5.279999999999973 0.660000000000025 8 1 C9.649999999999977 2.319999999999993 11.300000000000011 3.6399999999999864 13 5 C13.329999999999984 5.660000000000025 13.660000000000025 6.319999999999993 14 7 C14 9.970000000000027 14 12.939999999999998 14 16 C12.350000000000023 17.980000000000018 10.699999999999989 19.95999999999998 9 22 C8.009999999999991 22.329999999999984 7.019999999999982 22.660000000000025 6 23 C4.783124999999984 23.020624999999995 3.566250000000025 23.04124999999999 2.3125 23.0625 C1.2193750000000136 23.041875000000005 0.12625000000002728 23.02125000000001 -1 23 C-2.6499999999999773 22.00999999999999 -4.300000000000011 21.019999999999982 -6 20 C-6.990000000000009 18.680000000000007 -7.980000000000018 17.360000000000014 -9 16 C-9 13.360000000000014 -9 10.720000000000027 -9 8 C-7.680000000000007 6.019999999999982 -6.360000000000014 4.0400000000000205 -5 2 C-3.3500000000000227 1.339999999999975 -1.6999999999999886 0.6800000000000068 0 0 Z M1 3 C0.009999999999990905 3.990000000000009 -0.9800000000000182 4.980000000000018 -2 6 C-2 9.300000000000011 -2 12.600000000000023 -2 16 C-1.009999999999991 17.319999999999993 -0.01999999999998181 18.639999999999986 1 20 C2.6499999999999773 19.670000000000016 4.300000000000011 19.339999999999975 6 19 C6.329999999999984 18.670000000000016 6.660000000000025 18.339999999999975 7 18 C7 14.699999999999989 7 11.399999999999977 7 8 C6.339999999999975 6.680000000000007 5.680000000000007 5.360000000000014 5 4 C3.680000000000007 3.670000000000016 2.3600000000000136 3.339999999999975 1 3 Z " fill="#000000" transform="translate(287,295)"/>
<path d="M0 0 C2.3100000000000023 0.3299999999999841 4.6200000000000045 0.660000000000025 7 1 C8.32 2.319999999999993 9.64 3.6399999999999864 11 5 C11.329999999999998 7.310000000000002 11.659999999999997 9.620000000000005 12 12 C7.3799999999999955 12 2.759999999999998 12 -2 12 C-1.3400000000000034 13.649999999999977 -0.6799999999999997 15.300000000000011 0 17 C0.3299999999999983 17.329999999999984 0.6599999999999966 17.660000000000025 1 18 C2.980000000000004 18 4.960000000000001 18 7 18 C8.649999999999999 17.670000000000016 10.299999999999997 17.339999999999975 12 17 C11.340000000000003 18.319999999999993 10.68 19.639999999999986 10 21 C8.019999999999996 21.99000000000001 8.019999999999996 21.99000000000001 6 23 C3.3599999999999994 23 0.7199999999999989 23 -2 23 C-3.980000000000004 21.680000000000007 -5.960000000000001 20.360000000000014 -8 19 C-8.329999999999998 18.339999999999975 -8.659999999999997 17.680000000000007 -9 17 C-9 14.029999999999973 -9 11.060000000000002 -9 8 C-7.020000000000003 5.689999999999998 -5.039999999999999 3.3799999999999955 -3 1 C-2.009999999999998 0.6700000000000159 -1.019999999999996 0.339999999999975 0 0 Z M1 3 C0.00999999999999801 3.660000000000025 -0.980000000000004 4.319999999999993 -2 5 C-2 6.319999999999993 -2 7.639999999999986 -2 9 C0.3100000000000023 9 2.6200000000000045 9 5 9 C4.670000000000002 7.680000000000007 4.340000000000003 6.360000000000014 4 5 C3.009999999999998 4.339999999999975 2.019999999999996 3.680000000000007 1 3 Z " fill="#000000" transform="translate(42,295)"/>
<path d="M0 0 C2.3100000000000023 0.3299999999999841 4.6200000000000045 0.660000000000025 7 1 C8.319999999999993 2.6499999999999773 9.639999999999986 4.300000000000011 11 6 C11 7.980000000000018 11 9.95999999999998 11 12 C6.3799999999999955 12 1.759999999999991 12 -3 12 C-2.339999999999975 13.649999999999977 -1.6800000000000068 15.300000000000011 -1 17 C0.05187499999999545 17.185625000000016 1.103749999999991 17.371249999999975 2.1875 17.5625 C3.445625000000007 17.706875000000025 4.703750000000014 17.851249999999993 6 18 C7.649999999999977 17.670000000000016 9.300000000000011 17.339999999999975 11 17 C11 17.99000000000001 11 18.980000000000018 11 20 C9.019999999999982 20.99000000000001 7.0400000000000205 21.980000000000018 5 23 C2.3600000000000136 23 -0.2799999999999727 23 -3 23 C-4.980000000000018 21.350000000000023 -6.9599999999999795 19.69999999999999 -9 18 C-9.329999999999984 15.360000000000014 -9.660000000000025 12.720000000000027 -10 10 C-9.009999999999991 8.019999999999982 -8.019999999999982 6.0400000000000205 -7 4 C-5.680000000000007 3.009999999999991 -4.360000000000014 2.019999999999982 -3 1 C-2.009999999999991 0.6700000000000159 -1.0199999999999818 0.339999999999975 0 0 Z M0 3 C-0.9900000000000091 3.990000000000009 -1.9800000000000182 4.980000000000018 -3 6 C-3 6.990000000000009 -3 7.980000000000018 -3 9 C-0.6899999999999977 9 1.6200000000000045 9 4 9 C3.5049999999999955 6.524999999999977 3.5049999999999955 6.524999999999977 3 4 C2.009999999999991 3.670000000000016 1.0199999999999818 3.339999999999975 0 3 Z " fill="#000000" transform="translate(458,295)"/>
<path d="M0 0 C2.3100000000000023 0.3299999999999841 4.6200000000000045 0.660000000000025 7 1 C8.319999999999993 2.6499999999999773 9.639999999999986 4.300000000000011 11 6 C11 7.980000000000018 11 9.95999999999998 11 12 C6.3799999999999955 12 1.759999999999991 12 -3 12 C-2.3400000000000034 13.649999999999977 -1.6800000000000068 15.300000000000011 -1 17 C0.05187499999999545 17.185625000000016 1.103749999999991 17.371249999999975 2.1875 17.5625 C3.445625000000007 17.706875000000025 4.703750000000014 17.851249999999993 6 18 C7.650000000000006 17.670000000000016 9.300000000000011 17.339999999999975 11 17 C11 17.99000000000001 11 18.980000000000018 11 20 C8.525000000000006 21.485000000000014 8.525000000000006 21.485000000000014 6 23 C3.030000000000001 23 0.060000000000002274 23 -3 23 C-4.97999999999999 21.350000000000023 -6.960000000000008 19.69999999999999 -9 18 C-9.330000000000013 15.360000000000014 -9.659999999999997 12.720000000000027 -10 10 C-9.009999999999991 8.019999999999982 -8.02000000000001 6.0400000000000205 -7 4 C-5.680000000000007 3.009999999999991 -4.360000000000014 2.019999999999982 -3 1 C-2.009999999999991 0.6700000000000159 -1.0200000000000102 0.339999999999975 0 0 Z M0 3 C-0.9900000000000091 3.990000000000009 -1.9799999999999898 4.980000000000018 -3 6 C-3 6.990000000000009 -3 7.980000000000018 -3 9 C-0.6899999999999977 9 1.6200000000000045 9 4 9 C3.5049999999999955 6.524999999999977 3.5049999999999955 6.524999999999977 3 4 C2.009999999999991 3.670000000000016 1.0200000000000102 3.339999999999975 0 3 Z " fill="#000000" transform="translate(143,295)"/>
<path d="M0 0 C2.9700000000000273 0.49500000000000455 2.9700000000000273 0.49500000000000455 6 1 C7.319999999999993 1.990000000000009 8.639999999999986 2.980000000000018 10 4 C10.329999999999984 6.639999999999986 10.660000000000025 9.279999999999973 11 12 C6.3799999999999955 12 1.759999999999991 12 -3 12 C-2.009999999999991 13.980000000000018 -1.0199999999999818 15.95999999999998 0 18 C1.9800000000000182 18 3.9599999999999795 18 6 18 C7.649999999999977 17.670000000000016 9.300000000000011 17.339999999999975 11 17 C10.339999999999975 18.319999999999993 9.680000000000007 19.639999999999986 9 21 C7.019999999999982 21.99000000000001 7.019999999999982 21.99000000000001 5 23 C2.3600000000000136 23 -0.2799999999999727 23 -3 23 C-4.649999999999977 22.00999999999999 -6.300000000000011 21.019999999999982 -8 20 C-8.660000000000025 18.680000000000007 -9.319999999999993 17.360000000000014 -10 16 C-10 13.689999999999998 -10 11.379999999999995 -10 9 C-8.680000000000007 7.019999999999982 -7.360000000000014 5.0400000000000205 -6 3 C-4.019999999999982 2.009999999999991 -2.0400000000000205 1.0199999999999818 0 0 Z M0 3 C-0.9900000000000091 3.660000000000025 -1.9800000000000182 4.319999999999993 -3 5 C-3 6.319999999999993 -3 7.639999999999986 -3 9 C-0.6899999999999977 9 1.6200000000000045 9 4 9 C3.5049999999999955 6.524999999999977 3.5049999999999955 6.524999999999977 3 4 C2.009999999999991 3.670000000000016 1.0199999999999818 3.339999999999975 0 3 Z " fill="#000000" transform="translate(395,295)"/>
<path d="M0 0 C2.6399999999999864 0.3299999999999841 5.280000000000001 0.660000000000025 8 1 C8.330000000000013 1.329999999999984 8.659999999999997 1.660000000000025 9 2 C9 3.980000000000018 9 5.9599999999999795 9 8 C8.009999999999991 7.670000000000016 7.02000000000001 7.339999999999975 6 7 C5.009999999999991 6.009999999999991 4.02000000000001 5.019999999999982 3 4 C2.009999999999991 4.329999999999984 1.0200000000000102 4.660000000000025 0 5 C0.9900000000000091 5.990000000000009 1.9799999999999898 6.980000000000018 3 8 C4.03125 8.536249999999995 5.0625 9.072499999999991 6.125 9.625 C7.07374999999999 10.078750000000014 8.022500000000008 10.532500000000027 9 11 C9.330000000000013 11.329999999999984 9.659999999999997 11.660000000000025 10 12 C10 14.310000000000002 10 16.620000000000005 10 19 C8.680000000000007 20.319999999999993 7.360000000000014 21.639999999999986 6 23 C4.576875000000001 23.020624999999995 3.1537500000000023 23.04124999999999 1.6875 23.0625 C0.140625 23.041875000000005 -1.40625 23.02125000000001 -3 23 C-3.990000000000009 22.670000000000016 -4.97999999999999 22.339999999999975 -6 22 C-6 19.689999999999998 -6 17.379999999999995 -6 15 C-5.009999999999991 15.329999999999984 -4.02000000000001 15.660000000000025 -3 16 C-2.3400000000000034 16.99000000000001 -1.6800000000000068 17.980000000000018 -1 19 C0.6500000000000057 19 2.3000000000000114 19 4 19 C4.3300000000000125 18.00999999999999 4.659999999999997 17.019999999999982 5 16 C2.030000000000001 15.009999999999991 -0.9399999999999977 14.019999999999982 -4 13 C-4.659999999999997 12.009999999999991 -5.319999999999993 11.019999999999982 -6 10 C-5.6699999999999875 7.689999999999998 -5.340000000000003 5.3799999999999955 -5 3 C-3.3499999999999943 2.009999999999991 -1.6999999999999886 1.0199999999999818 0 0 Z " fill="#000000" transform="translate(163,295)"/>
<path d="M0 0 C2.3100000000000023 0.3299999999999841 4.6200000000000045 0.660000000000025 7 1 C8.319999999999993 1.990000000000009 9.639999999999986 2.980000000000018 11 4 C11 4.990000000000009 11 5.980000000000018 11 7 C9.019999999999982 7.329999999999984 7.0400000000000205 7.660000000000025 5 8 C3.680000000000007 6.680000000000007 2.3600000000000136 5.360000000000014 1 4 C0.009999999999990905 4.4950000000000045 0.009999999999990905 4.4950000000000045 -1 5 C-1 8.629999999999995 -1 12.259999999999991 -1 16 C-0.339999999999975 16.660000000000025 0.3199999999999932 17.319999999999993 1 18 C2.980000000000018 18 4.9599999999999795 18 7 18 C7.990000000000009 17.670000000000016 8.980000000000018 17.339999999999975 10 17 C10 18.319999999999993 10 19.639999999999986 10 21 C8.019999999999982 21.99000000000001 8.019999999999982 21.99000000000001 6 23 C3.3600000000000136 23 0.7200000000000273 23 -2 23 C-3.6499999999999773 22.00999999999999 -5.300000000000011 21.019999999999982 -7 20 C-7.660000000000025 19.00999999999999 -8.319999999999993 18.019999999999982 -9 17 C-9 14.029999999999973 -9 11.060000000000002 -9 8 C-7.680000000000007 6.019999999999982 -6.360000000000014 4.0400000000000205 -5 2 C-3.3500000000000227 1.339999999999975 -1.6999999999999886 0.6800000000000068 0 0 Z " fill="#000000" transform="translate(436,295)"/>
<path d="M0 0 C1.3199999999999932 0.3299999999999841 2.6399999999999864 0.660000000000025 4 1 C4 2.319999999999993 4 3.6399999999999864 4 5 C2.019999999999982 5.329999999999984 0.040000000000020464 5.660000000000025 -2 6 C-2.660000000000025 6 -3.319999999999993 6 -4 6 C-4.329999999999984 10.620000000000005 -4.660000000000025 15.240000000000009 -5 20 C-3.680000000000007 20 -2.3600000000000136 20 -1 20 C-1 20.99000000000001 -1 21.980000000000018 -1 23 C-5.6200000000000045 23 -10.240000000000009 23 -15 23 C-15 22.00999999999999 -15 21.019999999999982 -15 20 C-14.009999999999991 20 -13.019999999999982 20 -12 20 C-12 14.720000000000027 -12 9.439999999999998 -12 4 C-12.990000000000009 4 -13.980000000000018 4 -15 4 C-15 3.009999999999991 -15 2.019999999999982 -15 1 C-13.081875000000025 1.0206249999999955 -11.163749999999993 1.041249999999991 -9.1875 1.0625 C-6.124687499999993 1.0315625000000068 -6.124687499999993 1.0315625000000068 -3 1 C-2.009999999999991 0.6700000000000159 -1.0199999999999818 0.339999999999975 0 0 Z " fill="#000000" transform="translate(423,295)"/>
<path d="M0 0 C0.9900000000000091 0 1.9800000000000182 0 3 0 C3 1.6499999999999773 3 3.3000000000000114 3 5 C4.649999999999977 5 6.2999999999999545 5 8 5 C8 5.990000000000009 8 6.980000000000018 8 8 C6.350000000000023 8 4.7000000000000455 8 3 8 C3 12.949999999999989 3 17.899999999999977 3 23 C4.649999999999977 22.670000000000016 6.2999999999999545 22.339999999999975 8 22 C8 22.99000000000001 8 23.980000000000018 8 25 C7.009999999999991 25.660000000000025 6.019999999999982 26.319999999999993 5 27 C3.019999999999982 27 1.0399999999999636 27 -1 27 C-1.990000000000009 25.680000000000007 -2.980000000000018 24.360000000000014 -4 23 C-4 18.05000000000001 -4 13.100000000000023 -4 8 C-4.990000000000009 8 -5.980000000000018 8 -7 8 C-6.669999999999959 7.009999999999991 -6.340000000000032 6.019999999999982 -6 5 C-5.009999999999991 4.670000000000016 -4.019999999999982 4.339999999999975 -3 4 C-2.009999999999991 2.680000000000007 -1.0199999999999818 1.3600000000000136 0 0 Z " fill="#000000" transform="translate(603,291)"/>
<path d="M0 0 C1.3199999999999932 0.3299999999999841 2.6399999999999864 0.660000000000025 4 1 C4.329999999999984 2.319999999999993 4.659999999999997 3.6399999999999864 5 5 C3.0200000000000102 5.329999999999984 1.039999999999992 5.660000000000025 -1 6 C-1.6599999999999966 6 -2.319999999999993 6 -3 6 C-3.3299999999999983 6.660000000000025 -3.6599999999999966 7.319999999999993 -4 8 C-4 11.629999999999995 -4 15.259999999999991 -4 19 C-2.680000000000007 19.329999999999984 -1.3599999999999994 19.660000000000025 0 20 C0 20.99000000000001 0 21.980000000000018 0 23 C-4.6200000000000045 23 -9.239999999999995 23 -14 23 C-14 22.00999999999999 -14 21.019999999999982 -14 20 C-13.010000000000005 20 -12.019999999999996 20 -11 20 C-11 14.720000000000027 -11 9.439999999999998 -11 4 C-11.989999999999995 4 -12.980000000000004 4 -14 4 C-14 3.009999999999991 -14 2.019999999999982 -14 1 C-12.576875000000001 1 -11.153750000000002 1 -9.6875 1 C-8.140625 1 -6.59375 1 -5 1 C-4.010000000000005 1 -3.019999999999996 1 -2 1 C-1.3400000000000034 0.6700000000000159 -0.6800000000000068 0.339999999999975 0 0 Z " fill="#000000" transform="translate(129,295)"/>
<path d="M0 0 C0.6599999999999966 0 1.3199999999999932 0 2 0 C2 1.6499999999999773 2 3.3000000000000114 2 5 C3.9799999999999898 5 5.960000000000008 5 8 5 C8 5.990000000000009 8 6.980000000000018 8 8 C6.02000000000001 8 4.039999999999992 8 2 8 C2.3300000000000125 12.949999999999989 2.6599999999999966 17.899999999999977 3 23 C4.650000000000006 22.670000000000016 6.300000000000011 22.339999999999975 8 22 C8 22.99000000000001 8 23.980000000000018 8 25 C7.009999999999991 25.660000000000025 6.02000000000001 26.319999999999993 5 27 C3.0200000000000102 27 1.039999999999992 27 -1 27 C-1.990000000000009 26.00999999999999 -2.9799999999999898 25.019999999999982 -4 24 C-4 18.720000000000027 -4 13.439999999999998 -4 8 C-4.990000000000009 8 -5.97999999999999 8 -7 8 C-6.6699999999999875 7.009999999999991 -6.340000000000003 6.019999999999982 -6 5 C-5.009999999999991 4.670000000000016 -4.02000000000001 4.339999999999975 -3 4 C-2.009999999999991 2.680000000000007 -1.0200000000000102 1.3600000000000136 0 0 Z " fill="#000000" transform="translate(182,291)"/>
<path d="M0 0 C1.6499999999999773 0 3.2999999999999545 0 5 0 C5.330000000000041 0.3299999999999841 5.659999999999968 0.660000000000025 6 1 C6 2.980000000000018 6 4.9599999999999795 6 7 C5.669999999999959 7.329999999999984 5.340000000000032 7.660000000000025 5 8 C3.3500000000000227 8 1.7000000000000455 8 0 8 C-0.3300000000000409 7.670000000000016 -0.6599999999999682 7.339999999999975 -1 7 C-1 5.019999999999982 -1 3.0400000000000205 -1 1 C-0.6699999999999591 0.6700000000000159 -0.34000000000003183 0.339999999999975 0 0 Z " fill="#000000" transform="translate(550,310)"/>
<path d="M0 0 C3.6299999999999955 0 7.259999999999991 0 11 0 C11.330000000000013 0.660000000000025 11.659999999999997 1.3199999999999932 12 2 C11.669999999999987 2.660000000000025 11.340000000000003 3.319999999999993 11 4 C7.3700000000000045 4 3.740000000000009 4 0 4 C0 2.680000000000007 0 1.3600000000000136 0 0 Z " fill="#000000" transform="translate(232,304)"/>
</svg>
