<?xml version="1.0" encoding="UTF-8"?>
<!-- Generator: visioncortex VTracer 0.6.4 -->
<svg version="1.1" xmlns="http://www.w3.org/2000/svg" width="506" height="265">
<path d="M0 0 C0 52.800000000000004 0 105.60000000000001 0 160 C-9.240000000000009 160 -18.47999999999999 160 -28 160 C-28.22143859879725 143.87834089455822 -28.22143859879725 143.87834089455822 -28.282150268554688 138.88563537597656 C-28.284320938875908 138.7075770205725 -28.2864916091971 138.52951866516844 -28.288728057406843 138.34606460202485 C-28.36169902435438 132.34400747336002 -28.41941587764569 126.34190386223442 -28.465774536132813 120.33958435058594 C-28.46729316390119 120.14346360829659 -28.468811791669566 119.94734286600723 -28.470376438461244 119.74527907092124 C-28.503309542803294 115.48155937569743 -28.533779937461958 111.2178253988266 -28.561718624085188 106.95407012477517 C-28.575437588115847 104.86268747066943 -28.589699920105403 102.77130867957194 -28.604248046875 100.679931640625 C-28.605686396518735 100.47183049510232 -28.60712474616244 100.26372934957966 -28.608606682159007 100.04932210873812 C-28.655362552593374 93.32142821980602 -28.737891711362607 86.59456024090922 -28.839269428513944 79.86728620994836 C-28.943384954403598 72.94565232453556 -29.010820211869827 66.02458445454907 -29.033064890885726 59.1021808560472 C-29.036233916948532 58.12124452066707 -29.039815901242946 57.140310095370296 -29.043649673461914 56.15937614440918 C-29.04439132656435 55.96634188419674 -29.045132979666818 55.773307623984294 -29.045897107105702 55.57442384073511 C-29.058825365404743 52.48460829882537 -29.109635850243677 49.39655913342901 -29.17515237350017 46.30746018793434 C-29.24043118618303 43.19053201374688 -29.26452656623809 40.075327369725336 -29.248515151441097 36.957741625607014 C-29.24095121350601 35.271518446446954 -29.25156173053935 33.59101258309694 -29.311260223388672 31.905406951904297 C-29.513063848758094 25.911810907979984 -29.611594184863378 20.875968589051386 -24.913848761469126 16.621660690754652 C-22.849090492642034 14.869696080095805 -20.635442550614158 13.344304989580209 -18.357252717018127 11.885764002799988 C-16.54724861298189 10.72381448273299 -14.868580562449864 9.403394547079406 -13.179381929337978 8.075182981789112 C-12.094466471988596 7.23362114716328 -10.980156113686519 6.430940399326227 -9.871337890625 5.621337890625 C-9.06401196566381 5.031736945163488 -8.262386513435388 4.434796154753198 -7.461600303649902 3.8363561630249023 C-6.8248815365437 3.3620854568860707 -6.185028098733653 2.8922005001343316 -5.544160842895508 2.423555374145508 C-5.246045329125991 2.2045792144572287 -4.949007537845091 1.9841266216083147 -4.653181076049805 1.7620677947998047 C-4.2486292095127 1.4591519943170312 -3.8391248792515853 1.1628846494519394 -3.429443359375 0.866943359375 C-3.2005894470214855 0.6986753845214844 -2.971735534667971 0.5304074096679687 -2.7359466552734375 0.3570404052734375 C-2 -0.00000000000000005551115123125783 -2 -0.00000000000000005551115123125783 0 0 Z " fill="#DD390D" transform="translate(248,0)"/>
<path d="M0 0 C0.32086251593528914 1.3965108086158367 0.261000619315098 2.7940544903042195 0.240509033203125 4.2203521728515625 C0.24138076486201498 4.666696153936202 0.24313115585130163 5.113039144403878 0.2456873655319214 5.559376657009125 C0.25017179704963155 6.788617592414248 0.24214344806574672 8.017511787926932 0.2321312427520752 9.246708512306213 C0.22351416086956988 10.571175106643611 0.22641564459235042 11.895621302345056 0.227935791015625 13.220108032226563 C0.22898576753027555 15.515749267041897 0.2226976783318264 17.81127703360775 0.21146011352539063 20.106889724731445 C0.19522302700124783 23.425961962488543 0.18999897716946634 26.744979195422417 0.18748413026332855 30.064086847007275 C0.18310418236688975 35.44876154923326 0.16978703581065702 40.83337574192713 0.15087890625 46.218017578125 C0.13252780916542406 51.44945980490116 0.11836756501281798 56.68088561123102 0.10986328125 61.912353515625 C0.10933783426878563 62.23468631453812 0.1088123872876281 62.55701911345125 0.10827101767063141 62.88911957293749 C0.10566098961226089 64.50612853034495 0.10313356239021232 66.12313760430487 0.1006472110748291 67.74014675617218 C0.07990537298246636 81.16015157649191 0.04303071342178555 94.58004450570441 0 108 C-9.240000000000009 108 -18.480000000000018 108 -28 108 C-28.02210009581995 96.54331032692599 -28.040543102886318 85.0866409736634 -28.05106532946229 73.62993603944778 C-28.05231583860575 72.27331018672399 -28.053610180145256 70.91668437912753 -28.054931640625 69.56005859375 C-28.0551939510554 69.29001113295556 -28.0554562614858 69.0199636721611 -28.055726520717144 68.74173295497894 C-28.060062190439737 64.38545829213633 -28.067938025615092 60.02919700417236 -28.07715279608965 55.6729302406311 C-28.086548085783193 51.193523288684084 -28.092067971447307 46.71412327751631 -28.09408849477768 42.23470687866211 C-28.095451597970964 39.477003630566536 -28.099735655280142 36.71933820426332 -28.107916466891766 33.96164661645889 C-28.11325664050662 32.063280340401256 -28.114788025773066 30.164933236109363 -28.113501377403736 28.26656001806259 C-28.112869178014876 27.17594961123855 -28.11374517957057 26.085404651451356 -28.119205474853516 24.99480628967285 C-28.137996617091744 21.00600979975205 -28.102741462646804 17.025829070743338 -27.688535682857037 13.054741501808167 C-27.653100277601368 12.708845873568066 -27.620796023045955 12.362612062570946 -27.591957040131092 12.016104102134705 C-27.44156764298583 10.282875663779755 -27.30684154090153 9.05045914689941 -25.87500286102295 7.951299667358398 C-25.051620281608564 7.438471337288142 -24.24207517847475 7.033382906685226 -23.30419921875 6.77197265625 C-23.051200561523444 6.696824340820314 -22.79820190429689 6.621676025390624 -22.53753662109375 6.54425048828125 C-22.2776495361328 6.467772827148437 -22.017762451171848 6.391295166015624 -21.75 6.3125 C-21.21647997936992 6.128738846073542 -20.6840948504925 5.941653147796266 -20.15283203125 5.75146484375 C-19.02930214594602 5.35323272142919 -17.901645514738505 4.973120184128387 -16.7685546875 4.60302734375 C-14.940989974061154 3.9948119798066237 -13.16367274990796 3.2829842533043454 -11.3828125 2.55078125 C-10.79076405172276 2.3099580985487957 -10.19864243539314 2.0693147424527343 -9.6064453125 1.828857421875 C-8.744602530074133 1.4788507420951795 -7.883043422144397 1.1283099471372644 -7.0228271484375 0.774322509765625 C-6.223817466424521 0.4484322504756033 -5.421388422007794 0.13313186369036778 -4.6171875 -0.1796875 C-4.381218566894518 -0.2783158874511713 -4.145249633789035 -0.3769442749023444 -3.902130126953125 -0.4785614013671875 C-3.6803207397460938 -0.5628187561035158 -3.4585113525390625 -0.6470761108398442 -3.22998046875 -0.73388671875 C-3.0396725463867256 -0.8098507690429688 -2.849364624023451 -0.8858148193359376 -2.653289794921875 -0.964080810546875 C-1.5485954459801405 -1.0248191320634081 -0.7623503438103398 -0.8373440553554712 0 0 Z " fill="#DD380D" transform="translate(324,10)"/>
<path d="M0 0 C0 33.66 0 67.32000000000001 0 102 C-9.240000000000009 102 -18.480000000000018 102 -28 102 C-28.554472931120984 91.17088774462326 -29.0144591875802 80.35543076994524 -29.276633236557245 69.51612242683768 C-29.307889739239045 68.22857824592309 -29.340248843132542 66.94106398634501 -29.373291015625 65.653564453125 C-29.379848776385188 65.39731562443077 -29.386406537145376 65.14106679573655 -29.3931630179286 64.87705285102129 C-29.487783603631215 61.26922353475517 -29.641955065195305 57.66819493083375 -29.843361422419548 54.06481321156025 C-30.1891580499331 47.876469654414535 -30.426446182446654 41.69480833451567 -30.44140625 35.49609375 C-30.44217180788516 35.25815154969692 -30.442937365770348 35.02020934939384 -30.443726122379303 34.77505677938461 C-30.47632022270281 15.487946949970123 -30.47632022270281 15.487946949970123 -23.236576676368713 9.50869882106781 C-18.079707042721395 5.402180658558706 -11.865551437787644 2.6385445559681173 -5.6107025146484375 0.6717681884765625 C-5.390179062485686 0.6011998647451406 -5.169655610322934 0.5306315410137188 -4.942449629306793 0.4579247832298279 C-3.164989950449808 -0.06028098057908693 -1.9810248019054484 0 0 0 Z " fill="#DC390D" transform="translate(286,43)"/>
<path d="M0 0 C0 31.349999999999994 0 62.7 0 95 C-8.909999999999997 95 -17.819999999999993 95 -27 95 C-27.176622415855803 84.89346156963501 -27.324224542425128 74.78838695819738 -27.40852263569832 64.68074502423406 C-27.41852738239166 63.485484200007974 -27.428882047833696 62.290226646321344 -27.439453125 61.094970703125 C-27.441551608443262 60.85703307352961 -27.443650091886525 60.6190954439342 -27.445812165737152 60.37394758313894 C-27.480553645130158 56.52923051724656 -27.543586037089568 52.68547772600009 -27.617222368717194 48.84133134037256 C-27.692238744601383 44.891974181099215 -27.736511033146712 40.9431191430009 -27.752707958221436 36.993078887462616 C-27.76266945712362 34.775912792303274 -27.786673784462153 32.56076915803965 -27.845840454101563 30.344324111938477 C-28.23020679701972 15.509556879176252 -28.23020679701972 15.509556879176252 -25.330429077148438 12.873458862304688 C-23.737384379788892 11.612544092033694 -21.900964303659208 10.901458749070684 -19.973506927490234 10.316019058227539 C-18.676092512030692 9.918494033570376 -17.59351576212606 9.239347949475643 -16.455322265625 8.514404296875 C-16.096767295400667 8.309748273552017 -15.736646308127433 8.107807575309664 -15.374893188476563 7.9088592529296875 C-15.202073841094972 7.8133345603942885 -15.029254493713381 7.71780986785889 -14.851198196411133 7.619390487670898 C-14.586476182937616 7.473280477523801 -14.586476182937616 7.473280477523801 -14.31640625 7.32421875 C-13.926603510795076 7.107284321786288 -13.536870614100536 6.890224356270124 -13.147201538085938 6.6730499267578125 C-12.352546949447913 6.2307779610705865 -11.557107903531914 5.789967254796771 -10.760986328125 5.350341796875 C-9.741769192507917 4.787356597053744 -8.724811464385027 4.220412866599965 -7.708359718322754 3.6524534225463867 C-6.913976647018075 3.209130399013702 -6.118490620338008 2.767818980023584 -5.32264518737793 2.327127456665039 C-4.946323425599132 2.118428610196432 -4.570346792094483 1.9091061034236532 -4.194734573364258 1.6991329193115234 C-3.6772395148590533 1.410230017730946 -3.1583199879854362 1.1240760230586204 -2.638916015625 0.838623046875 C-2.4106915283203136 0.7101448059082003 -2.4106915283203136 0.7101448059082003 -2.1778564453125 0.579071044921875 C-1.3577205841670548 0.13253476693233068 -0.9634810895160797 0 0 0 Z " fill="#DD390D" transform="translate(210,42)"/>
<path d="M0 0 C0.25129354476928256 -0.004241065979016412 0.25129354476928256 -0.004241065979016412 0.5076637268066406 -0.00856781005859375 C1.3952609490692112 -0.023435042357732527 2.282701127652217 -0.0327408420041877 3.17041015625 -0.037109375 C3.8922820406085066 -0.04148337429930393 4.61295054340485 -0.05533146052601978 5.33447265625 -0.078125 C9.626933321091542 -0.21094664860390822 14.269341642194206 -0.29034981123990633 17.3828125 3.203125 C18.07565435789553 4.479720576696252 18.30261957380509 5.7669425945090325 18.3828125 7.203125 C17.546643455870253 7.093711391034077 16.715205018157178 6.963107570511966 15.8828125 6.828125 C15.525097656250011 6.78171875000001 15.525097656250011 6.78171875000001 15.16015625 6.734375 C14.9345703125 6.695703124999994 14.708984375 6.657031249999989 14.4765625 6.6171875 C14.162353515625 6.570056152343739 14.162353515625 6.570056152343739 13.841796875 6.52197265625 C13.3828125 6.203125 13.3828125 6.203125 13.315673828125 5.73114013671875 C13.314550238999573 5.221311571062699 13.34712274073945 4.711704069462513 13.3828125 4.203125 C9.381822335983259 4.138279845191789 5.3837809593943575 4.131909786169047 1.3828125 4.203125 C1.084888000488263 4.207354736328114 1.084888000488263 4.207354736328114 0.78094482421875 4.211669921875 C0.2822549211202272 4.220023753868048 -0.21631765247246904 4.234731206813848 -0.71484375 4.25 C-0.9727368164062682 4.257412109374997 -1.2306298828124795 4.264824218749993 -1.496337890625 4.2724609375 C-3.1388155905610233 4.498243352481211 -3.1388155905610233 4.498243352481211 -4.6171875 5.203125 C-5.0439272904318955 6.023668680796533 -5.150331557344828 6.842686129146813 -5.26171875 7.75390625 C-5.298980712890625 7.988717041015633 -5.33624267578125 8.223527832031237 -5.3746337890625 8.4654541015625 C-5.465045369788697 9.04394120750976 -5.54541901820221 9.62208053437854 -5.6171875 10.203125 C-5.402785186767574 10.208991241455067 -5.188382873535147 10.214857482910162 -4.9674835205078125 10.220901489257813 C-2.9228170550828736 10.279393906115644 -0.8791788635819557 10.35176497209656 1.1644773483276367 10.43883991241455 C2.2146317404183264 10.483118269877394 3.2644366261623077 10.522451121249532 4.315185546875 10.549560546875 C14.193091772057755 10.812544706827623 14.193091772057755 10.812544706827623 17.3828125 14.203125 C18.05116338084366 15.191842418768744 18.257378311238767 15.95808382352405 18.3203125 17.140625 C18.346254882812502 17.400048828124994 18.372197265625005 17.65947265624999 18.39892578125 17.9267578125 C18.55716895642388 20.406413004060028 18.165237570580928 22.409409312276807 16.3828125 24.203125 C12.946927506881707 26.658323345867842 8.478948142295508 26.547472941929982 4.4443359375 26.518798828125 C3.7360100447855302 26.514152731935724 3.0293952133484936 26.52113544711071 2.3212890625 26.539306640625 C-1.8942925051827046 26.646435745181037 -5.873413145379629 26.555067437060785 -9.250335693359375 23.65277099609375 C-10.334885706986938 22.32345064830335 -9.887542745658436 20.771185424819066 -9.6171875 19.203125 C-8.297187500000007 19.203125 -6.977187500000014 19.203125 -5.6171875 19.203125 C-5.6171875 20.19312500000001 -5.6171875 21.18312499999999 -5.6171875 22.203125 C-3.8756915876436437 22.253457251802217 -2.1346401106324038 22.28926739364607 -0.392578125 22.31298828125 C0.19701530992426797 22.32290010146835 0.7865616262770345 22.336434169680928 1.3759765625 22.35400390625 C7.714270736683773 22.607839866955374 7.714270736683773 22.607839866955374 13.3828125 20.203125 C14.256576161269436 18.986404410290362 14.547653520084964 17.75738942942911 14.20556640625 16.29052734375 C13.765572825594518 15.43133349821477 13.476654309487913 15.236154596283768 12.55755615234375 14.91265869140625 C9.865291243060426 14.369673083637963 7.01883217460346 14.49651848268104 4.28643798828125 14.5128173828125 C2.4276357041837855 14.52010493970917 0.5694234876351061 14.488495879643125 -1.2889156341552734 14.450368881225586 C-1.9356975750896481 14.441589779808595 -2.58120469261155 14.44679045071905 -3.2279815673828125 14.453933715820313 C-5.819772890785259 14.450118223965575 -7.724530071113804 14.168960173612248 -9.6171875 12.203125 C-10.00537109375 11.289306640625 -10.00537109375 11.289306640625 -10.015625 10.36328125 C-10.019718780517564 10.196428222656237 -10.023812561035129 10.029575195312503 -10.028030395507813 9.857666015625 C-10.034038864431011 9.32507036203188 -10.015451883636388 8.797688393852354 -9.9921875 8.265625 C-9.988531799316434 8.085710144042963 -9.98487609863281 7.905795288085926 -9.981109619140625 7.720428466796875 C-9.9198895776575 5.172447486188446 -9.63887757424294 3.3315652180459665 -7.56640625 1.67578125 C-5.160981559467473 0.3511069000702207 -2.7058451547071627 0.036069957838293476 0 0 Z " fill="#000000" transform="translate(356.6171875,186.796875)"/>
<path d="M0 0 C6.118821690774382 -0.08021761867001942 6.118821690774382 -0.08021761867001942 8.740234375 -0.09765625 C10.524454680720282 -0.1095820861984862 12.308468440890238 -0.12364320895741798 14.092529296875 -0.15087890625 C15.531981812193294 -0.17271460687766194 16.971212662586083 -0.18459050337554572 18.410818099975586 -0.18975448608398438 C18.958218120721938 -0.19343133493561027 19.505606900021746 -0.20061143152457817 20.05291175842285 -0.21146011352539063 C25.872654518627485 -0.3221624625107893 25.872654518627485 -0.3221624625107893 28 2 C28.487647842586853 2.9194468133981957 28.685517104908456 3.7196148592439897 28.8125 4.75 C28.85181640625001 5.008054199218748 28.891132812500018 5.2661083984374955 28.931640625 5.531982421875 C29.19126407590261 7.918354641421246 28.597275391021753 9.896270748260946 27.675048828125 12.0830078125 C27.576032714843734 12.319873046874989 27.477016601562525 12.556738281250006 27.375 12.80078125 C27.279609375000007 13.008723144531245 27.184218750000014 13.216665039062491 27.0859375 13.430908203125 C27.043398437500002 13.712608642578118 27.043398437500002 13.712608642578118 27 14 C27.15525146484373 14.14711425781249 27.310502929687516 14.294228515625008 27.470458984375 14.44580078125 C28.23427615512594 15.24518527991512 28.125808181644345 16.020774845480275 28.09765625 17.06640625 C28.096241302490228 17.2647557067871 28.094826354980455 17.463105163574227 28.093368530273438 17.667465209960938 C28.087782866579687 18.299298683328118 28.075235439079904 18.930774163377095 28.0625 19.5625 C28.057483036133647 19.991531329345662 28.052920467094054 20.42056822986035 28.048828125 20.849609375 C28.038670753430495 21.899881595285507 28.019716029200538 22.949869597984076 28 24 C26.60281947346914 24.222399623404414 25.37773168165552 24.377052558029163 24 24 C23.593638981363938 22.894425865351252 23.74023393159763 21.793685213075747 23.819608688354492 20.636962890625 C23.899619184335393 18.998208642307105 23.780325803858773 17.459432875995276 23 16 C20.45495358801952 14.512519049125899 16.970830042787895 14.9125975838935 14.1236572265625 14.98712158203125 C12.78353291782696 15.012274244292712 11.443765754176354 14.9781720139313 10.103797912597656 14.953994750976563 C8.065877651256017 14.9238727566391 6.041992131656002 14.969031398951188 4 15 C4 17.97 4 20.939999999999998 4 24 C2.680000000000007 24 1.3600000000000136 24 0 24 C0 16.079999999999984 0 8.159999999999997 0 0 Z M4 3 C4 5.969999999999999 4 8.939999999999998 4 12 C6.015360096121697 12.021090977750106 8.03031014314007 12.041110489397681 10.045684814453125 12.051750183105469 C10.984607162569262 12.056985949609413 11.923436190951634 12.063957037620725 12.8623046875 12.075439453125 C13.770071877888995 12.086469413947441 14.67774978325275 12.092318219030375 15.585578918457031 12.094877243041992 C16.09286957490798 12.097568680251413 16.600125329953414 12.105347202972325 17.10736083984375 12.113296508789063 C18.856635031421035 12.11370935907658 20.501003110760507 11.966050760446933 22.202880859375 11.57763671875 C22.373244819641116 11.541628885269176 22.54360877990723 11.505621051788324 22.719135284423828 11.468522071838379 C23.574249557758662 11.250401665558854 23.93960887695914 11.092794381458873 24.427627563476563 10.342926025390625 C24.672845087501628 9.571029906500428 24.75634394202092 8.869985385423462 24.8125 8.0625 C24.850527343750002 7.797597656249991 24.888554687500005 7.53269531250001 24.927734375 7.259765625 C25.11908878404654 5.619003351685819 25.04877698803898 4.340802803936555 24 3 C23.240854661769617 2.7924108044415163 22.81040373688205 2.743160344207638 22.050537109375 2.77294921875 C21.855319671630866 2.7726571655273347 21.660102233886732 2.7723651123046977 21.458969116210938 2.772064208984375 C20.814639111769452 2.77345612376223 20.17147107056985 2.788999720709171 19.52734375 2.8046875 C19.080374472712208 2.808418400261587 18.633397008945167 2.811265016237286 18.186416625976563 2.813262939453125 C17.01074585804065 2.820894334441249 15.835570434789418 2.840535390860282 14.66009521484375 2.8626708984375 C13.249328489699394 2.8867417556449766 11.8383959714389 2.895912998344045 10.427482604980469 2.9075775146484375 C8.28464405389974 2.9269636690646905 6.142891950786975 2.9652816785651055 4 3 Z " fill="#000000" transform="translate(264,188)"/>
<path d="M0 0 C6.118821690774368 -0.08021761867001942 6.118821690774368 -0.08021761867001942 8.740234375 -0.09765625 C10.524454680720268 -0.1095820861984862 12.308468440890266 -0.12364320895741798 14.092529296875 -0.15087890625 C15.531981812193308 -0.17271460687766194 16.971212662586055 -0.18459050337554572 18.410818099975586 -0.18975448608398438 C18.958218120721952 -0.19343133493561027 19.50560690002176 -0.20061143152457817 20.05291175842285 -0.21146011352539063 C25.397088921113664 -0.3131163189077881 25.397088921113664 -0.3131163189077881 27.512496948242188 1.418487548828125 C28.308000096709222 2.367394399999654 28.40199663824322 3.103077876983832 28.328125 4.3125 C28.325315246582022 4.6340808105468625 28.325315246582022 4.6340808105468625 28.32244873046875 4.962158203125 C28.31576437800028 5.412757374434705 28.301917985215184 5.863302009531878 28.28125 6.3134765625 C28.25006362725938 6.998602188645691 28.24027828805994 7.681422203703676 28.234375 8.3671875 C28.22520224849164 8.807319349667324 28.214825521358264 9.247428094214428 28.203125 9.6875 C28.196750183105465 9.990711669921865 28.196750183105465 9.990711669921865 28.19024658203125 10.300048828125 C28.126507033340232 11.58446086589879 27.849595334138343 12.462920931169123 27.169265747070313 13.559112548828125 C26.906883160436024 14.080454344483371 26.906883160436024 14.080454344483371 27.43359375 14.8671875 C27.5339794921875 15.031865234375005 27.634365234374997 15.196542968750009 27.73779296875 15.3662109375 C28.336472616506825 16.813298801165445 28.098457852442735 18.57949079500841 28.0625 20.125 C28.057476235792393 20.501296144840097 28.0529148700886 20.877598762241746 28.048828125 21.25390625 C28.03874539370304 22.169418251764682 28.019798410582993 23.084648666914887 28 24 C26.603181806747898 24.222061415038695 25.37716108554099 24.377821456159324 24 24 C23.605162266115315 22.892704626885262 23.762613848926037 21.791377116109032 23.848310470581055 20.636962890625 C23.936164293579992 18.98742945591951 23.815358730674035 17.454740756886054 23 16 C20.298047357618458 14.496371530590665 16.654475162615014 14.912700229524944 13.66009521484375 14.98712158203125 C12.24906131363339 15.012269664906114 10.838367817077227 14.978173484500331 9.427482604980469 14.953994750976563 C7.28183307064748 14.923873325599857 5.149519441952336 14.969043824418321 3 15 C3 17.97 3 20.939999999999998 3 24 C2.010000000000005 24 1.019999999999996 24 0 24 C0 16.079999999999984 0 8.159999999999997 0 0 Z M3 3 C3 5.969999999999999 3 8.939999999999998 3 12 C5.923818695351429 12.02917666738324 5.923818695351429 12.02917666738324 8.84765625 12.048828125 C10.043503235723307 12.05476258035685 11.239272318363135 12.061714680447096 12.43505859375 12.075439453125 C13.401179929676985 12.086456427933086 14.367217516161844 12.092315644164813 15.333396911621094 12.094877243041992 C15.698527683086382 12.096698222593545 16.063654862831584 12.10025232350236 16.428749084472656 12.105730056762695 C18.408369113857347 12.134198774250933 20.279076053691256 12.020609225058223 22.21435546875 11.57763671875 C22.3836015701294 11.541628885269176 22.552847671508786 11.505621051788324 22.727222442626953 11.468522071838379 C23.58012874874224 11.249213904896237 23.944634257895586 11.082003150116947 24.443634033203125 10.342926025390625 C24.710172566368954 9.571980116855485 24.804890029985216 8.87460715267133 24.875 8.0625 C24.944609375 7.665146484374986 24.944609375 7.665146484374986 25.015625 7.259765625 C25.19792136762638 5.846968775895505 25.173875931265542 5.069744214960934 24.2783203125 3.920166015625 C22.664643851354825 2.4283776841629674 20.48377523393232 2.754043284784302 18.4296875 2.8046875 C17.984147513879307 2.8084220561851794 17.53859926239815 2.8112669437072384 17.093048095703125 2.813262939453125 C15.925607832308941 2.8208655841825987 14.758672629453798 2.8404815067337097 13.5914306640625 2.8626708984375 C12.188150400363611 2.8868200391145535 10.784700352410368 2.8959267136801543 9.381271362304688 2.9075775146484375 C7.253830652912825 2.926911823821854 5.1274959897740615 2.9652496117822693 3 3 Z " fill="#000000" transform="translate(90,188)"/>
<path d="M0 0 C8.25 0 16.5 0 25 0 C25 0.9900000000000091 25 1.9799999999999898 25 3 C18.069999999999993 3 11.139999999999986 3 4 3 C4 5.310000000000002 4 7.6200000000000045 4 10 C10.600000000000023 10 17.19999999999999 10 24 10 C24 10.990000000000009 24 11.97999999999999 24 13 C17.399999999999977 13 10.800000000000011 13 4 13 C4 15.639999999999986 4 18.28 4 21 C10.930000000000007 21 17.860000000000014 21 25 21 C25 21.99000000000001 25 22.97999999999999 25 24 C16.75 24 8.5 24 0 24 C0 16.079999999999984 0 8.159999999999997 0 0 Z " fill="#000000" transform="translate(308,188)"/>
<path d="M0 0 C8.25 0 16.5 0 25 0 C25 0.9900000000000091 25 1.9799999999999898 25 3 C18.069999999999993 3 11.139999999999986 3 4 3 C4 5.310000000000002 4 7.6200000000000045 4 10 C10.599999999999994 10 17.19999999999999 10 24 10 C24 10.990000000000009 24 11.97999999999999 24 13 C17.400000000000006 13 10.800000000000011 13 4 13 C4 15.639999999999986 4 18.28 4 21 C10.930000000000007 21 17.860000000000014 21 25 21 C25 21.99000000000001 25 22.97999999999999 25 24 C16.75 24 8.5 24 0 24 C0 16.079999999999984 0 8.159999999999997 0 0 Z " fill="#000000" transform="translate(134,188)"/>
<path d="M0 0 C6.078712881439344 -0.12032642800502913 6.078712881439344 -0.12032642800502913 8.69140625 -0.146484375 C10.46691139045467 -0.16434544248832594 12.241947765654345 -0.1853563808561205 14.01708984375 -0.226318359375 C15.4500919504558 -0.2591743401580118 16.882590863611682 -0.2769055560411857 18.315940856933594 -0.28463172912597656 C18.85976831313502 -0.2901294713735183 19.40357152627564 -0.3008652045370468 19.947181701660156 -0.31719017028808594 C23.3693792113188 -0.4157726392385541 26.281796123269658 -0.17434903963760462 28.676536560058594 2.536336898803711 C29.6421557365353 3.9204870890721963 29.571194793659174 5.502182599773818 29.53125 7.125 C29.53395321352579 7.517099580160249 29.53784251298032 7.909192566304625 29.5428466796875 8.30126953125 C29.54870759088888 9.118820128675935 29.540314439696147 9.934609686774309 29.521484375 10.751953125 C29.498667344664142 11.792165240132903 29.511813168985526 12.82825560485719 29.53577423095703 13.868316650390625 C29.55034269046493 14.67682109598718 29.54558258529005 15.484371989548265 29.535263061523438 16.29290771484375 C29.532624680826075 16.67560333021831 29.535764052382234 17.058390176300406 29.545181274414063 17.44097900390625 C29.583894334969017 19.454949388689727 29.33972394868431 20.90968999120426 27.83016586303711 22.33820629119873 C25.182013955465152 24.475739559507105 22.3989751918555 24.390819117221866 19.140625 24.29296875 C18.585847554161063 24.287360310471627 18.031055058342986 24.28309611186603 17.47625732421875 24.280105590820313 C16.029170867757642 24.268752711683646 14.58301493971777 24.239377264298923 13.13629150390625 24.20599365234375 C11.393480715688128 24.16962758466039 9.650355427480605 24.156085249736094 7.9072723388671875 24.138633728027344 C5.270871464826087 24.109724366287793 2.636504399148407 24.05218887007112 0 24 C0 16.079999999999984 0 8.159999999999997 0 0 Z M3 3 C3 8.939999999999998 3 14.879999999999995 3 21 C6.505851368552669 21.029107497541673 6.505851368552669 21.029107497541673 10.01171875 21.048828125 C11.442583505993099 21.054795644671856 12.873383996261992 21.06183947969666 14.30419921875 21.075439453125 C15.458341749531485 21.086340428644093 16.61241531934641 21.0922919524877 17.766605377197266 21.094877243041992 C18.205955096534126 21.096718577448456 18.645301232339392 21.10031426408665 19.08462142944336 21.105730056762695 C19.70216648449258 21.113037094259425 20.31943008204027 21.113987008942047 20.93701171875 21.113525390625 C21.206748046874992 21.118918304443355 21.206748046874992 21.118918304443355 21.48193359375 21.124420166015625 C22.823483698309786 21.1136375251823 23.883022761261998 20.753370177958374 25 20 C26.31171789347883 18.085579784785693 26.15465495295618 15.383242400927372 26.13037109375 13.148193359375 C26.12503783348572 12.566625569647954 26.130330860873045 11.985840473596085 26.13671875 11.404296875 C26.14263739320097 8.972377850188394 26.112588912656435 6.205949530636445 25 4 C23.72813636735927 3.0764213969488026 22.471511728064797 2.855794921688755 20.93701171875 2.886474609375 C20.6439665222168 2.886255569458001 20.6439665222168 2.886255569458001 20.345001220703125 2.8860321044921875 C19.70644587213397 2.8867225703168344 19.068191162022174 2.8944724900870824 18.4296875 2.90234375 C17.984142652472144 2.9042110484669763 17.53859573847342 2.9056334797469106 17.093048095703125 2.9066314697265625 C15.925783654607017 2.9104322195932752 14.758645526768817 2.9202410109792822 13.5914306640625 2.93133544921875 C12.188070778951811 2.943410704662284 10.784668434423878 2.9479634893263267 9.381271362304688 2.9537887573242188 C7.254093314528546 2.963454718368638 5.127191898989139 2.982627289391189 3 3 Z " fill="#000000" transform="translate(174,188)"/>
<path d="M0 0 C0.2843912315368584 -0.004241065979016412 0.2843912315368584 -0.004241065979016412 0.5745277404785156 -0.00856781005859375 C1.578832734798766 -0.02345220036247042 2.5829982530729296 -0.03274767748666818 3.58740234375 -0.037109375 C4.4062173115299 -0.04148633087606868 5.223973334553733 -0.055347724393726594 6.04248046875 -0.078125 C15.79255611594752 -0.3437259320590158 15.79255611594752 -0.3437259320590158 18.9453125 3.203125 C19.575162168884532 4.285760789773519 19.730241174213205 5.14991533959423 19.7578125 6.390625 C19.78294921874999 6.663261718749993 19.80808593750001 6.935898437499986 19.833984375 7.216796875 C19.892189805601475 7.880338783856814 19.928840630493056 8.537467685218928 19.9453125 9.203125 C18.542293973482657 9.438049032347095 17.329386501044894 9.587909058381769 15.9453125 9.203125 C15.589068182469958 8.326523814167672 15.442394226467144 7.653583716720391 15.449462890625 6.7138671875 C15.40574525918845 6.049359189664614 15.332672515793831 5.752247493651225 14.9453125 5.203125 C14.332966740391328 4.960760979614605 13.795113922792211 4.793081406388836 13.1591796875 4.6484375 C12.980283241271962 4.606132898330685 12.801386795043953 4.56382829666137 12.617069244384766 4.520241737365723 C10.764219793463468 4.113774278786366 8.9477285884835 4.075670011993367 7.0546875 4.10546875 C6.744184570312484 4.106475830078125 6.433681640624997 4.10748291015625 6.11376953125 4.1085205078125 C4.974245283507315 4.113679880936161 3.834774443312625 4.127640006091724 2.6953125 4.140625 C0.13781249999999545 4.1612499999999955 -2.419687500000009 4.181874999999991 -5.0546875 4.203125 C-5.0546875 10.143124999999998 -5.0546875 16.083124999999995 -5.0546875 22.203125 C-2.4971874999999955 22.223749999999995 0.060312500000009095 22.24437499999999 2.6953125 22.265625 C3.494208984375007 22.27472900390626 4.293105468750014 22.28383300781249 5.1162109375 22.293212890625 C5.762368093514738 22.296138467567317 6.408527119661983 22.29868550408557 7.0546875 22.30078125 C7.379692382812493 22.305897216796865 7.704697265624986 22.311013183593758 8.03955078125 22.3162841796875 C9.80408493126447 22.316941606718046 11.446261257488487 22.162875503774217 13.1591796875 21.7578125 C13.331016502380379 21.718728036880492 13.502853317260758 21.679643573760984 13.67989730834961 21.63937473297119 C14.625443691317003 21.394436801961945 14.625443691317003 21.394436801961945 15.289108276367188 20.71575927734375 C15.428714635947955 20.17356356845295 15.449519446124725 19.699901367169332 15.4453125 19.140625 C15.521430380728077 18.39064969031554 15.65392201132704 17.920142045161526 15.9453125 17.203125 C17.329386501044894 16.81834094161823 18.542293973482657 16.968200967652905 19.9453125 17.203125 C19.92198742687185 18.145732367001813 19.844363455246224 19.076880023867915 19.7578125 20.015625 C19.752011718749998 20.27666015624999 19.746210937499995 20.537695312500006 19.740234375 20.806640625 C19.520910718370743 22.78055353466337 18.54428354768399 23.814843375515267 16.95703125 24.87890625 C13.652470728226632 26.839222995585715 9.86950878271665 26.657980520413474 6.15234375 26.59423828125 C5.146458193855892 26.577134154384396 4.142950297513494 26.587297091564324 3.13714599609375 26.604549407958984 C-1.0427237568755743 26.665574269325873 -5.351397498442964 26.703297503950438 -8.64923095703125 23.713470458984375 C-10.138488260795555 21.838952177270528 -10.222356980244513 19.318216199245086 -10.2578125 17.0234375 C-10.263512573242195 16.728796081542953 -10.269212646484362 16.434154663085934 -10.27508544921875 16.130584716796875 C-10.284470834113193 15.510432090026626 -10.291043533056126 14.890231047108443 -10.294921875 14.27001953125 C-10.30459915019452 13.336646338738973 -10.335648826496453 12.405511077222513 -10.3671875 11.47265625 C-10.421149282838229 8.468983530460548 -10.265587522827673 5.95879857884583 -8.7265625 3.3203125 C-8.609841918945307 3.1176174926757767 -8.493121337890614 2.9149224853515534 -8.37286376953125 2.706085205078125 C-6.48838851670709 -0.09779108602404563 -3.0621220746427014 0.03134269003032841 0 0 Z " fill="#000000" transform="translate(228.0546875,186.796875)"/>
<path d="M0 0 C9.240000000000009 0 18.480000000000018 0 28 0 C28 0.9900000000000091 28 1.9799999999999898 28 3 C24.04000000000002 3 20.079999999999984 3 16 3 C16 9.930000000000007 16 16.860000000000014 16 24 C14.680000000000007 24 13.360000000000014 24 12 24 C12 17.069999999999993 12 10.139999999999986 12 3 C8.04000000000002 3 4.079999999999984 3 0 3 C0 2.009999999999991 0 1.0200000000000102 0 0 Z " fill="#000000" transform="translate(389,188)"/>
<path d="M0 0 C1.3199999999999932 0.3300000000000125 2.6399999999999864 0.6599999999999966 4 1 C4.466132349533893 2.2193752042155097 4.601889165609265 2.8174037971985513 4.625 4.0625 C4.67130938174958 5.555564124370335 4.67130938174958 5.555564124370335 5 7 C5.57370193254755 7.361413730869117 5.877891938591858 7.385279607576592 6.54541015625 7.286376953125 C7.053977524139384 7.032193787328026 7.053977524139384 7.032193787328026 7.19287109375 6.442138671875 C7.313159234149964 5.367929127151655 7.3705670370619885 4.30132587828507 7.390625 3.220703125 C7.4609375 2.41015625 7.4609375 2.41015625 8 1 C9.319999999999993 0.6699999999999875 10.639999999999986 0.3400000000000034 12 0 C12 3.960000000000008 12 7.9199999999999875 12 12 C10.680000000000007 11.669999999999987 9.360000000000014 11.340000000000003 8 11 C6.812399797247679 10.98390683314588 6.812399797247679 10.98390683314588 5.8125 11.125 C4.81640625 11.1640625 4.81640625 11.1640625 4 11 C3.330264992857792 10.059049989965501 3.135190317361264 9.135598665834493 3 8 C2.9510156249999966 8.288749999999993 2.902031249999993 8.577499999999986 2.8515625 8.875 C2.7765424010860897 9.250100494569523 2.700994129566027 9.625095627474337 2.625 10 C2.594062500000007 10.190781249999986 2.5631250000000136 10.381562500000001 2.53125 10.578125 C2.4140625 11.125 2.4140625 11.125 2 12 C1.3400000000000034 12 0.6800000000000068 12 0 12 C0 8.039999999999992 0 4.0800000000000125 0 0 Z " fill="#000000" transform="translate(181,234)"/>
<path d="M0 0 C3 0 3 0 3.615966796875 0.55078125 C3.7259399414062386 0.8021484374999943 3.8359130859375057 1.0535156249999886 3.94921875 1.3125 C4.137744140624989 1.7185546874999886 4.137744140624989 1.7185546874999886 4.330078125 2.1328125 C4.448027343749999 2.418984375000008 4.565976562499998 2.7051562499999875 4.6875 3 C4.881826171874991 3.4292578124999977 4.881826171874991 3.4292578124999977 5.080078125 3.8671875 C5.398134030574056 4.573978401275639 5.703818640306849 5.283831567558707 6 6 C6.044875488281264 5.8182421875000045 6.089750976562499 5.636484375000009 6.135986328125 5.44921875 C6.347252463875577 4.628359044468539 6.579404540519079 3.8149164095238746 6.8125 3 C6.882753906250002 2.713828124999992 6.9530078125000045 2.4276562500000125 7.025390625 2.1328125 C7.10595703125 1.8621093749999886 7.1865234375 1.5914062500000057 7.26953125 1.3125 C7.337609863281244 1.0611328125000057 7.405688476562489 0.8097656250000114 7.475830078125 0.55078125 C8 0 8 0 11 0 C11 3.960000000000008 11 7.9199999999999875 11 12 C9 12 9 12 8.5859375 11.5625 C8.516328125000001 11.376875000000013 8.446718750000002 11.191249999999997 8.375 11 C8.300234375000002 10.814375000000013 8.225468750000005 10.628749999999997 8.1484375 10.4375 C8.074960937500009 10.220937499999991 8.074960937500009 10.220937499999991 8 10 C7.962617187500001 10.144374999999997 7.925234375000002 10.288749999999993 7.88671875 10.4375 C7.659344037948813 11.079499186968064 7.463944732170489 11.49703187914227 7 12 C5.950045934744907 12.305014588789192 5.049954065255093 12.305014588789192 4 12 C3.4430869981498233 11.396243848461495 3.2043483503117614 10.789207421893678 3 10 C2.9510156249999966 10.144374999999997 2.902031249999993 10.288749999999993 2.8515625 10.4375 C2.7767968750000023 10.623124999999987 2.7020312500000045 10.808750000000003 2.625 11 C2.555390625000001 11.185624999999987 2.4857812500000023 11.371250000000003 2.4140625 11.5625 C2 12 2 12 0 12 C0 8.039999999999992 0 4.0800000000000125 0 0 Z " fill="#000000" transform="translate(198,234)"/>
<path d="M0 0 C1.5827701254807778 1.131201703513625 2.3342245525251712 2.6282315780354963 2.484375 4.55126953125 C2.4638648094420716 7.098635198544116 2.271083723792003 10.423447434963265 0.23095703125 12.20703125 C-2.158596769804575 13.283513407900813 -5.224974907001808 12.619952313121502 -7.58154296875 11.70703125 C-9.294212050916599 10.61349606138657 -9.54803390567929 9.172932372195277 -9.79638671875 7.28125 C-9.988489797317811 5.030395178692487 -10.069053354146604 2.5942827245464173 -8.45654296875 0.83203125 C-6.339558530480872 -1.078483521712144 -2.482072681075067 -1.2504144489043085 0 0 Z M-7.01904296875 3.95703125 C-7.5716239128601615 5.625321756767391 -7.800385482956557 6.974268768844212 -7.01904296875 8.58203125 C-6.026621503585858 9.719043922009234 -5.094679375222995 9.898618212838045 -3.645751953125 9.85400390625 C-2.464571342564682 9.709232921037852 -1.4898097449255943 9.51284110325335 -0.58154296875 8.70703125 C0.23396582348698303 7.033431719095944 0.18311099902234673 5.12333495115513 -0.27294921875 3.34912109375 C-0.7364354746410982 2.384747001191755 -1.2952522427696351 2.04507626445411 -2.281005859375 1.6748046875 C-4.735373429574395 1.1106638220692844 -6.06424551787714 1.5652418365349092 -7.01904296875 3.95703125 Z " fill="#000000" transform="translate(174.58154296875,234.29296875)"/>
<path d="M0 0 C1.9181250000000034 -0.03093749999999318 1.9181250000000034 -0.03093749999999318 3.875 -0.0625 C4.274448242187503 -0.0716040039062591 4.673896484375007 -0.08070800781248977 5.08544921875 -0.090087890625 C5.405297851562494 -0.09258544921874545 5.725146484374989 -0.0950830078124909 6.0546875 -0.09765625 C6.379370117187506 -0.10289306640623863 6.704052734375011 -0.10812988281250568 7.03857421875 -0.113525390625 C8.18295063876431 0.021602856024742323 9.146159570560712 0.18252375623373496 10 1 C10.277390475946135 1.836201972282936 10.2335878862186 2.6308726967341443 10.1953125 3.50390625 C10.192482604980455 3.7466477966308673 10.189652709960939 3.9893893432617062 10.186737060546875 4.2394866943359375 C10.175546107029561 5.014327741977894 10.150456134380192 5.788009119093601 10.125 6.5625 C10.114968222182654 7.08787391246716 10.105842692918856 7.613265968467175 10.09765625 8.138671875 C10.075612170919925 9.426227632751619 10.041100651377405 10.712917294173849 10 12 C9.501695774789113 11.874347187103893 9.006016249360357 11.738246834243114 8.51171875 11.59765625 C8.235456542968763 11.522971191406242 7.959194335937497 11.448286132812513 7.674560546875 11.371337890625 C7 11 7 11 6.800048828125 10.271240234375 C6.8125 9.4375 6.8125 9.4375 7 8 C5.349999999999994 8 3.6999999999999886 8 2 8 C2 9.319999999999993 2 10.639999999999986 2 12 C1.3400000000000034 12 0.6800000000000068 12 0 12 C0 8.039999999999992 0 4.0800000000000125 0 0 Z M2 2 C2 2.990000000000009 2 3.9799999999999898 2 5 C3.9799999999999898 5 5.960000000000008 5 8 5 C7.834169366284783 3.336374307599357 7.834169366284783 3.336374307599357 7 2 C5.394428704231501 1.576024276707244 3.63002381940305 1.8375991028638907 2 2 Z " fill="#000000" transform="translate(228,234)"/>
<path d="M0 0 C2.969999999999999 0 5.939999999999998 0 9 0 C9 0.6599999999999966 9 1.3199999999999932 9 2 C7.02000000000001 2 5.039999999999992 2 3 2 C3 2.990000000000009 3 3.9799999999999898 3 5 C4.97999999999999 5 6.960000000000008 5 9 5 C9 5.659999999999997 9 6.319999999999993 9 7 C7.02000000000001 7 5.039999999999992 7 3 7 C3 7.990000000000009 3 8.97999999999999 3 10 C5.310000000000002 10 7.6200000000000045 10 10 10 C10 10.659999999999997 10 11.319999999999993 10 12 C6.699999999999989 12 3.4000000000000057 12 0 12 C0 8.039999999999992 0 4.0800000000000125 0 0 Z " fill="#000000" transform="translate(214,234)"/>
<path d="M0 0 C2.969999999999999 0 5.939999999999998 0 9 0 C9 0.6599999999999966 9 1.3199999999999932 9 2 C7.02000000000001 2 5.039999999999992 2 3 2 C3 2.990000000000009 3 3.9799999999999898 3 5 C4.97999999999999 5 6.960000000000008 5 9 5 C9 5.659999999999997 9 6.319999999999993 9 7 C7.02000000000001 7 5.039999999999992 7 3 7 C3 7.990000000000009 3 8.97999999999999 3 10 C5.310000000000002 10 7.6200000000000045 10 10 10 C10 10.659999999999997 10 11.319999999999993 10 12 C6.699999999999989 12 3.4000000000000057 12 0 12 C0 8.039999999999992 0 4.0800000000000125 0 0 Z " fill="#000000" transform="translate(128,234)"/>
<path d="M0 0 C7.346110005541846 -0.4158175474834991 7.346110005541846 -0.4158175474834991 8.9375 1.0625 C10.765169494451015 3.0844906763322797 10.50493262005017 6.705250206852924 10.197265625 9.2275390625 C9.848494318050655 10.593272249613534 9.279622324216803 11.384753620093022 8 12 C6.606834372283629 12.231139688702058 5.2876120670792375 12.189390949406999 3.875 12.125 C2.5962499999999977 12.083750000000009 1.3174999999999955 12.04249999999999 0 12 C0 8.039999999999992 0 4.0800000000000125 0 0 Z M2 2 C2 4.639999999999986 2 7.280000000000001 2 10 C4.867286459313107 9.875005951202127 4.867286459313107 9.875005951202127 7.38330078125 8.6083984375 C8.055643517626095 7.491384579182011 8.274008733603068 6.276303838098585 8 5 C7.682087052026304 4.309313020110295 7.275359536522956 3.796132681461984 6.75 3.25 C6.628828124999984 3.1225439453124864 6.507656250000025 2.995087890625001 6.3828125 2.86376953125 C4.93043812628332 1.5947218248039405 4.175979943548668 2 2 2 Z " fill="#000000" transform="translate(360,234)"/>
<path d="M0 0 C0.2676416015625023 -0.0012890625000068212 0.5352832031250045 -0.0025781250000136424 0.81103515625 -0.00390625 C2.13291942658455 0.06794416123497626 3.024352874038783 0.16593998092693596 3.8359375 1.2734375 C4.383627973146929 2.263424062481022 4.717138147496684 3.28256801791818 5 4.375 C4.009999999999991 4.375 3.0200000000000102 4.375 2 4.375 C2 3.7150000000000034 2 3.055000000000007 2 2.375 C-0.6567305237403787 2.324042360859039 -0.6567305237403787 2.324042360859039 -3 3.375 C-3.6829821252621855 5.146774989029666 -3.340575342651789 7.182075867869429 -2.51025390625 8.849609375 C-1.799916357646481 9.581019137964006 -1.3632042052813347 9.55795510396132 -0.35546875 9.546875 C1.4701453108533542 9.333602329339556 3.2402580165101824 8.90011194365141 5 8.375 C4.9866911566005 9.8057006654455 4.92311680231083 11.21708775935042 4 12.375 C2.228228149684071 13.465903077777796 0.02692141657854563 13.705504383849757 -2 13.375 C-3.9168204708214205 12.678963063077617 -5.321698926558611 11.303074019004157 -6 9.375 C-6.305793986104618 6.704296744473197 -5.941596659852991 3.287720277085043 -4.1328125 1.1875 C-2.8833640870652744 0.10587078512273251 -1.607547154099393 -0.007933607176312307 0 0 Z " fill="#000000" transform="translate(156,233.625)"/>
<path d="M0 0 C1.243519723103475 1.0914906660469512 1.5092950097458413 2.4297440311866865 2 4 C-0.6399999999999864 3.6699999999999875 -3.280000000000001 3.3400000000000034 -6 3 C-6.1282617788314155 6.143558334931981 -6.1282617788314155 6.143558334931981 -5 9 C-2.789400418898339 9.559998963031745 -0.12363675567689825 8.633699164335212 2 8 C1.9283115086884095 9.401184148362802 1.8321779676026893 10.823428381189444 1 12 C-0.8667483874594097 13.260536282253526 -3.6173452190704722 13.279102241716714 -5.73095703125 12.7021484375 C-7.023302377256755 12.198826731717503 -7.755150334440174 11.562811517414332 -8.31396484375 10.2783203125 C-9.131826842172643 7.660548137436166 -9.617479495673734 4.601750727963122 -8.29296875 2.07958984375 C-6.47539049834279 -0.5643873107898116 -2.9224247603896174 -1.168071387703776 0 0 Z " fill="#000000" transform="translate(251,234)"/>
<path d="M0 0 C2.9700000000000273 0 5.939999999999998 0 9 0 C9 0.6599999999999966 9 1.3199999999999932 9 2 C6.689999999999998 2 4.3799999999999955 2 2 2 C2 2.990000000000009 2 3.9799999999999898 2 5 C3.980000000000018 5 5.9599999999999795 5 8 5 C8 5.659999999999997 8 6.319999999999993 8 7 C6.019999999999982 7 4.0400000000000205 7 2 7 C2 7.990000000000009 2 8.97999999999999 2 10 C4.310000000000002 10 6.6200000000000045 10 9 10 C9 10.659999999999997 9 11.319999999999993 9 12 C6.029999999999973 12 3.0600000000000023 12 0 12 C0 8.039999999999992 0 4.0800000000000125 0 0 Z " fill="#000000" transform="translate(258,234)"/>
<path d="M0 0 C1.2993749999999977 -0.020624999999995453 2.5987499999999955 -0.041249999999990905 3.9375 -0.0625 C4.346052246093734 -0.0716040039062591 4.754604492187525 -0.08070800781248977 5.175537109375 -0.090087890625 C5.497883300781268 -0.09258544921874545 5.8202294921874795 -0.0950830078124909 6.15234375 -0.09765625 C6.482263183593773 -0.10289306640623863 6.812182617187489 -0.10812988281250568 7.152099609375 -0.113525390625 C8.147972247212977 0.019812005457538362 8.429047981035808 0.18459949185808 9 1 C9.609652278673593 2.76003962190984 9.960900658579305 5.334618802406112 9 7 C7.582963832373537 7.642469787864542 6.038107566410474 7.602936664966705 4.505615234375 7.665771484375 C2.922572447156142 7.651132057264789 2.922572447156142 7.651132057264789 1.66845703125 8.41357421875 C1.3539045646659815 9.64067450047878 1.6511635699938552 10.809526469026594 2 12 C1.339999999999975 12 0.6800000000000068 12 0 12 C0 8.039999999999992 0 4.0800000000000125 0 0 Z M2 2 C2 3.319999999999993 2 4.639999999999986 2 6 C3.6499999999999773 5.6699999999999875 5.300000000000011 5.340000000000003 7 5 C6.760927476188044 3.3737987485363305 6.760927476188044 3.3737987485363305 6 2 C4.549988652801346 1.6981609032362144 3.527106454556815 1.8522155043977193 2 2 Z " fill="#000000" transform="translate(279,234)"/>
<path d="M0 0 C2.648428252005772 0.47875838484807787 2.648428252005772 0.47875838484807787 3.43505859375 1.64501953125 C3.743593550212722 2.4441505672451456 3.9774936181036082 3.2321077926849853 4.1875 4.0625 C4.269355468750007 4.3441601562500125 4.351210937500014 4.625820312499997 4.435546875 4.916015625 C4.635030207927002 5.608340133393796 4.822496845344347 6.3017784347386225 5 7 C5.075168457031225 6.787949218749986 5.150336914062507 6.575898437500001 5.227783203125 6.357421875 C5.513941503965327 5.570108031418158 5.8111639694079145 4.789071624483853 6.116943359375 4.00927734375 C6.246636722367555 3.671524091312449 6.371709489130922 3.3319578308475286 6.491943359375 2.99072265625 C6.876991337631978 1.9037147834751806 7.268676372045661 0.9075705964641259 8 0 C9.053335088394363 -0.29734979180886967 9.936241658417089 -0.2192777931115586 11 0 C10.59346789934267 1.3882516701657153 10.184452174919613 2.7757388733748485 9.773193359375 4.16259765625 C9.63384880598727 4.633753399917879 9.495165764579951 5.1051053419704715 9.357177734375 5.57666015625 C9.157857077859944 6.257372578860981 8.95610864130748 6.937326288154281 8.75390625 7.6171875 C8.693446197509786 7.825602722167957 8.632986145019515 8.034017944335943 8.570693969726563 8.248748779296875 C8.393958065012612 8.838165172672603 8.20289975622552 9.41910377721112 8 10 C7.933703918457013 10.197176208496103 7.867407836914083 10.394352416992177 7.799102783203125 10.597503662109375 C7.58009470577025 11.1443827837154 7.392447612484887 11.560321521762205 7 12 C6.168304580656979 12.10295907924342 5.818277783934377 12.085835768703873 5.046875 11.8671875 C4.777229309082031 11.793695831298834 4.777229309082031 11.793695831298834 4.50213623046875 11.718719482421875 C2.94603007886667 11.182305510312773 2.3228528782585727 10.243870882619063 1.7608642578125 8.74505615234375 C1.6407448976254386 8.388920697755026 1.5260133100756548 8.030926442814831 1.41650390625 7.67138671875 C1.250599793275569 7.126968236584673 1.0637091593388845 6.594074440412726 0.87109375 6.05859375 C0.16374398354707864 4.015217621058383 -0.18761110632880218 2.1825425369582945 0 0 Z " fill="#000000" transform="translate(292,234)"/>
<path d="M0 0 C3.3000000000000114 0 6.600000000000023 0 10 0 C10 0.6599999999999966 10 1.3199999999999932 10 2 C8.680000000000007 2 7.360000000000014 2 6 2 C6 5.300000000000011 6 8.599999999999994 6 12 C5.339999999999975 12 4.680000000000007 12 4 12 C4 8.699999999999989 4 5.400000000000006 4 2 C2.680000000000007 2 1.3600000000000136 2 0 2 C0 1.3400000000000034 0 0.6800000000000068 0 0 Z " fill="#000000" transform="translate(346,234)"/>
<path d="M0 0 C3.3000000000000114 0 6.600000000000023 0 10 0 C10 0.6599999999999966 10 1.3199999999999932 10 2 C8.680000000000007 2 7.360000000000014 2 6 2 C6 5.300000000000011 6 8.599999999999994 6 12 C5.339999999999975 12 4.680000000000007 12 4 12 C4 8.699999999999989 4 5.400000000000006 4 2 C2.680000000000007 2 1.3600000000000136 2 0 2 C0 1.3400000000000034 0 0.6800000000000068 0 0 Z " fill="#000000" transform="translate(306,234)"/>
<path d="M0 0 C0.660000000000025 0 1.3199999999999932 0 2 0 C2 3.3000000000000114 2 6.599999999999994 2 10 C3.980000000000018 10 5.9599999999999795 10 8 10 C8 10.659999999999997 8 11.319999999999993 8 12 C5.360000000000014 12 2.7200000000000273 12 0 12 C0 8.039999999999992 0 4.0800000000000125 0 0 Z " fill="#000000" transform="translate(335,234)"/>
<path d="M0 0 C1.9799999999999898 0 3.960000000000008 0 6 0 C6 0.6599999999999966 6 1.3199999999999932 6 2 C4.02000000000001 2 2.039999999999992 2 0 2 C0 1.3400000000000034 0 0.6800000000000068 0 0 Z " fill="#000000" transform="translate(141,241)"/>
<path d="M0 0 C0.660000000000025 0 1.3199999999999932 0 2 0 C2 0.6599999999999966 2 1.3199999999999932 2 2 C1.339999999999975 2 0.6800000000000068 2 0 2 C0 1.3400000000000034 0 0.6800000000000068 0 0 Z " fill="#000000" transform="translate(375,244)"/>
<path d="M0 0 C0.660000000000025 0 1.3199999999999932 0 2 0 C2 0.6599999999999966 2 1.3199999999999932 2 2 C1.339999999999975 2 0.6800000000000068 2 0 2 C0 1.3400000000000034 0 0.6800000000000068 0 0 Z " fill="#000000" transform="translate(320,244)"/>
</svg>
