<?xml version="1.0" encoding="UTF-8"?>
<!-- Generator: visioncortex VTracer 0.6.4 -->
<svg version="1.1" xmlns="http://www.w3.org/2000/svg" width="506" height="265">
<path d="M0 0 C0.6599999999999966 0 1.3199999999999932 0 2 0 C2 52.800000000000004 2 105.60000000000001 2 160 C-7.240000000000009 160 -16.47999999999999 160 -26 160 C-26.22143859879725 143.87834089455822 -26.22143859879725 143.87834089455822 -26.282150268554688 138.88563537597656 C-26.284320938875908 138.7075770205725 -26.2864916091971 138.52951866516844 -26.288728057406843 138.34606460202485 C-26.36169902435438 132.34400747336002 -26.41941587764569 126.34190386223442 -26.465774536132813 120.33958435058594 C-26.46729316390119 120.14346360829659 -26.468811791669566 119.94734286600723 -26.470376438461244 119.74527907092124 C-26.503309542803294 115.48155937569743 -26.533779937461958 111.2178253988266 -26.561718624085188 106.95407012477517 C-26.575437588115847 104.86268747066943 -26.589699920105403 102.77130867957194 -26.604248046875 100.679931640625 C-26.605686396518735 100.47183049510232 -26.60712474616244 100.26372934957966 -26.608606682159007 100.04932210873812 C-26.655362552593374 93.32142821980602 -26.737891711362607 86.59456024090922 -26.839269428513944 79.86728620994836 C-26.943384954403598 72.94565232453556 -27.010820211869827 66.02458445454907 -27.033064890885726 59.1021808560472 C-27.036233916948532 58.12124452066707 -27.039815901242946 57.140310095370296 -27.043649673461914 56.15937614440918 C-27.04439132656435 55.96634188419674 -27.045132979666818 55.773307623984294 -27.045897107105702 55.57442384073511 C-27.058825365404743 52.48460829882537 -27.109635850243677 49.39655913342901 -27.17515237350017 46.30746018793434 C-27.24043118618303 43.19053201374688 -27.26452656623809 40.075327369725336 -27.248515151441097 36.957741625607014 C-27.240952228260483 35.27174466491921 -27.25037995504988 33.590446059854735 -27.311260223388672 31.905406951904297 C-27.422521481830188 28.70399973522871 -27.519064603655266 25.41129301234524 -26.838076256215572 22.262420065701008 C-26.63743365552091 21.46935795045805 -26.382479216168633 20.724667436308888 -26 20 C-25.249355556664938 18.837672892414144 -24.2825775736041 17.87105567827373 -23.268881064374 16.93800158938393 C-21.026577352558263 14.940064034429643 -18.534974122051324 13.27762459999736 -16.00989287835546 11.663753753295168 C-14.321162904978138 10.57482169721801 -12.757513782724772 9.316063087972873 -11.179381929337978 8.075182981789112 C-10.094466471988596 7.23362114716328 -8.980156113686519 6.430940399326227 -7.871337890625 5.621337890625 C-7.064011965663809 5.031736945163488 -6.262386513435388 4.434796154753198 -5.461600303649902 3.8363561630249023 C-4.8248815365437 3.3620854568860707 -4.185028098733653 2.8922005001343316 -3.544160842895508 2.423555374145508 C-3.246045329125991 2.2045792144572287 -2.949007537845091 1.9841266216083147 -2.6531810760498047 1.7620677947998047 C-2.2484568200932245 1.4590229145047366 -1.8397422503252585 1.1623765086313202 -1.429443359375 0.866943359375 C-1.3136543273925838 0.7782246398925781 -1.1978652954101676 0.6895059204101562 -1.0785675048828125 0.5980987548828125 C-0.7359466552734375 0.3570404052734397 -0.7359466552734375 0.3570404052734397 0 0 Z M76 9 C76.66000000000003 9.33 77.32 9.66 78 10 C78 45.64 78 81.28 78 118 C68.75999999999999 118 59.51999999999998 118 50 118 C49.977899904577384 106.54331053292191 49.95945486958294 95.08664076624086 49.94893467053771 83.62993603944778 C49.947687576042824 82.27331018387986 49.94639098870056 80.9166843776295 49.945068359375 79.56005859375 C49.94493760031651 79.42507398113608 49.94480684125796 79.29008936852216 49.94467211980373 79.15101431310177 C49.94042766285463 74.79326086439907 49.9329291660967 70.43552057281835 49.923702779226005 66.07777506113052 C49.913951073319595 61.4634207722633 49.90799289959148 56.849071845228025 49.90591150522232 52.23470687866211 C49.904548402029036 49.477003630566536 49.90026434471986 46.71933820426332 49.892083533108234 43.96164661645889 C49.88674335949338 42.063280340401256 49.885211974226934 40.16493323610936 49.886498622596264 38.26656001806259 C49.887130821985124 37.17594961123855 49.88625482042943 36.085404651451356 49.880794525146484 34.99480628967285 C49.85500512720904 29.585076362521196 50.18031304009264 24.35009677808644 51 19 C51.34556036200411 18.853654622991588 51.69112352036541 18.707315848915016 52.03668785095215 18.56097984313965 C52.229123033285134 18.479486726522445 52.42155821561812 18.397993609905242 52.61982476711273 18.3140310049057 C55.92148926167829 16.9166146737342 59.233328598973 15.544076978483469 62.550636291503906 14.184257507324219 C63.00199350013435 13.999182583375859 63.45323738911321 13.813833178760197 63.90447998046875 13.62847900390625 C65.543496180126 12.955978959601268 67.18500209546886 12.290379238255237 68.83234691619873 11.638516426086426 C69.54880806733377 11.354974957285473 70.26404839906485 11.069036542856539 70.97689819335938 10.776519775390625 C71.65011645222552 10.500457168116013 72.32590907182521 10.23205088378941 73.00436592102051 9.969137191772461 C73.37092825594868 9.824985997016826 73.73448605268703 9.673265933094298 74.09788513183594 9.521316528320313 C74.3196894836426 9.43709945678711 74.54149383544922 9.352882385253906 74.77001953125 9.26611328125 C74.96032745361327 9.190149230957031 75.15063537597655 9.114185180664062 75.34671020507813 9.035919189453125 C75.56229583740236 9.024065856933595 75.77788146972654 9.012212524414062 76 9 Z M-37 42 C-36.670000000000016 42 -36.34 42 -36 42 C-36 73.35 -36 104.7 -36 137 C-44.91 137 -53.81999999999999 137 -63 137 C-63.1766224158558 126.89346156963501 -63.32422454242513 116.78838695819738 -63.40852263569832 106.68074502423406 C-63.41852738239166 105.48548420000797 -63.428882047833696 104.29022664632134 -63.439453125 103.094970703125 C-63.44155160844326 102.8570330735296 -63.443650091886525 102.6190954439342 -63.44581216573715 102.37394758313894 C-63.48055364513016 98.52923051724656 -63.54358603708957 94.68547772600009 -63.617222368717194 90.84133134037256 C-63.69223874460138 86.89197418109922 -63.73651103314671 82.9431191430009 -63.752707958221436 78.99307888746262 C-63.76266945712362 76.77591279230327 -63.78667378446215 74.56076915803965 -63.84584045410156 72.34432411193848 C-64.11394251834002 61.996821551217096 -64.11394251834002 61.996821551217096 -63.351460944861174 58.1912277713418 C-63.188472395472985 57.513346564388385 -62.98666274751815 56.97498612577763 -62.656168699264526 56.35514807701111 C-62.25033071805123 55.796113051591426 -61.84132009853158 55.33789404955256 -61.33042907714844 54.87345886230469 C-60.505421352534256 54.220454946420894 -59.64630213010187 53.73080826667318 -58.69447410106659 53.286503076553345 C-57.80201297491678 52.90889929655004 -56.90032278465594 52.59752711936354 -55.973506927490234 52.31601905822754 C-55.098785675130074 52.0480063220738 -54.38080188363239 51.70565576171104 -53.596099853515625 51.23515319824219 C-53.215022179638765 50.996203937679994 -52.83470184121259 50.75604055300722 -52.455322265625 50.514404296875 C-52.09676729540067 50.30974827355202 -51.73664630812743 50.107807575309664 -51.37489318847656 49.90885925292969 C-51.20207384109497 49.81333456039429 -51.02925449371338 49.71780986785889 -50.85119819641113 49.6193904876709 C-50.586476182937616 49.4732804775238 -50.586476182937616 49.4732804775238 -50.31640625 49.32421875 C-49.926603510795076 49.10728432178629 -49.536870614100536 48.890224356270124 -49.14720153808594 48.67304992675781 C-48.35254694944791 48.23077796107059 -47.557107903531914 47.78996725479677 -46.760986328125 47.350341796875 C-45.74176919250792 46.787356597053744 -44.72481146438503 46.220412866599965 -43.708359718322754 45.65245342254639 C-42.913976647018075 45.2091303990137 -42.11849062033801 44.767818980023584 -41.32264518737793 44.32712745666504 C-40.94632342559913 44.11842861019643 -40.57034679209448 43.90910610342365 -40.19473457336426 43.69913291931152 C-39.67723951485905 43.410230017730946 -39.158319987985436 43.12407602305862 -38.638916015625 42.838623046875 C-38.410691528320314 42.7101448059082 -38.410691528320314 42.7101448059082 -38.1778564453125 42.579071044921875 C-38.03658828735351 42.50215530395508 -37.89532012939452 42.42523956298828 -37.74977111816406 42.34599304199219 C-37.62834527015687 42.27874369621277 -37.50691942214965 42.21149435043335 -37.38181400299072 42.14220714569092 C-37.25581538200379 42.09527878761291 -37.129816761016855 42.04835042953491 -37 42 Z M40 43 C40 76.66 40 110.32000000000001 40 145 C30.75999999999999 145 21.519999999999982 145 12 145 C11.445527068879016 134.17088774462326 10.9855408124198 123.35543076994524 10.723366763442755 112.51612242683768 C10.692110260760955 111.22857824592309 10.659751156867458 109.94106398634501 10.626708984375 108.653564453125 C10.620151223614812 108.39731562443077 10.613593462854624 108.14106679573655 10.6068369820714 107.87705285102129 C10.512216396368785 104.26922353475517 10.358044934804695 100.66819493083375 10.156638577580452 97.06481321156025 C9.810841950066902 90.87646965441454 9.573553817553346 84.69480833451567 9.55859375 78.49609375 C9.55782819211484 78.25815154969692 9.557062634229652 78.02020934939384 9.556273877620697 77.77505677938461 C9.546636118166447 72.07204539823098 9.625771903031136 66.2042826922657 11.055148966610432 60.64870614558458 C11.364390658468722 59.56300742737233 11.71921541088875 58.52205768160229 12.255126595497131 57.52564775943756 C13.080000811134823 56.16711896661539 14.086784897920722 54.98779002394668 15.21544760465622 53.87315768003464 C17.435780051319966 51.780072437120786 19.96886017854132 50.07203217731534 22.648393630981445 48.62474250793457 C26.422561010658114 46.63594896929003 30.31834269563882 44.95184030083627 34.38929748535156 43.67176818847656 C34.609820937514314 43.60119986474514 34.830344389677066 43.53063154101372 35.05755037069321 43.45792478322983 C36.83501004955019 42.93971901942091 38.01897519809455 43 40 43 Z " fill="#DD390D" transform="translate(246,0)"/>
<path d="M0 0 C0.25129354476928256 -0.004241065979016412 0.25129354476928256 -0.004241065979016412 0.5076637268066406 -0.00856781005859375 C1.3952609490692112 -0.023435042357732527 2.282701127652217 -0.0327408420041877 3.17041015625 -0.037109375 C3.8922820406085066 -0.04148337429930393 4.61295054340485 -0.05533146052601978 5.33447265625 -0.078125 C10.279870694437363 -0.23115049556591316 10.279870694437363 -0.23115049556591316 12.3828125 0.203125 C13.450830187189297 0.5193043611685368 14.389071068932026 1.0087210431162248 15.33984375 1.58203125 C15.924724957419812 1.9424146774481983 16.455098406496404 2.307849184281764 16.978668212890625 2.752471923828125 C17.3828125 3.203125 17.3828125 3.203125 17.681243896484375 3.728729248046875 C17.90639149488908 4.2882976349179955 18.07266024823042 4.799661411293243 18.1953125 5.390625 C18.257187499999986 5.98875000000001 18.319062499999973 6.586874999999992 18.3828125 7.203125 C15.907812499999977 6.7081249999999955 15.907812499999977 6.7081249999999955 13.3828125 6.203125 C13.3828125 5.543125000000003 13.3828125 4.883125000000007 13.3828125 4.203125 C11.507890918623218 4.172737627071399 9.63293969304317 4.152226398362899 7.7578125 4.140625 C7.6204216003417855 4.139768981933599 7.483030700683571 4.138912963867199 7.3414764404296875 4.138031005859375 C3.2391562037864787 4.1154237081814244 -0.5963537846980671 4.309606396599577 -4.6171875 5.203125 C-4.947187499999984 6.853125000000006 -5.277187500000025 8.503125000000011 -5.6171875 10.203125 C-4.8385534667968955 10.224998779296868 -4.8385534667968955 10.224998779296868 -4.044189453125 10.247314453125 C-2.307405640974366 10.298202190122083 -0.5714685659692691 10.364875717261867 1.1644773483276367 10.43883991241455 C2.2146317404183264 10.483118269877394 3.2644366261623077 10.522451121249532 4.315185546875 10.549560546875 C10.703688675209492 10.71964468112975 10.703688675209492 10.71964468112975 12.83584213256836 11.333568572998047 C13.979006646882794 11.730796641542867 14.998853866426089 12.287781806743965 16.00250244140625 12.964569091796875 C16.50370235396531 13.352089762466903 16.948959382213616 13.741951763606068 17.3828125 14.203125 C17.669708251953125 14.581146240234375 17.669708251953125 14.581146240234375 17.885009765625 14.946044921875 C18.16015625 15.66796875 18.16015625 15.66796875 18.28076171875 16.3974609375 C18.29381347656249 16.642705078125005 18.306865234374982 16.88794921875001 18.3203125 17.140625 C18.346254882812502 17.400048828124994 18.372197265625005 17.65947265624999 18.39892578125 17.9267578125 C18.462030128177275 18.915596802214992 18.432805274918223 19.85371603800388 18.29248046875 20.83447265625 C18.155516335782806 21.430342445062905 18.028497505900248 21.90280472437621 17.7578125 22.453125 C17.355879456673904 23.099342856055472 16.919658350214377 23.6628785462712 16.3828125 24.203125 C15.535256179163866 24.80876776194185 14.612170604257983 25.167612314273555 13.64892578125 25.550582885742188 C12.2870281927502 26.029908479814424 10.990507494737926 26.295346944344885 9.55615234375 26.40966796875 C7.853484334781797 26.523368614573656 6.150099705195032 26.53092174401297 4.4443359375 26.518798828125 C3.7360100447855302 26.514152731935724 3.0293952133484936 26.52113544711071 2.3212890625 26.539306640625 C-2.4949975810528144 26.66170125382962 -2.4949975810528144 26.66170125382962 -4.6171875 26.203125 C-5.927916169930143 25.80853127274949 -7.051067633444234 25.14875666599093 -8.2193603515625 24.446731567382813 C-8.774169921875 24.06201171875 -8.774169921875 24.06201171875 -9.250335693359375 23.65277099609375 C-9.371396789550772 23.50438781738282 -9.49245788574217 23.35600463867189 -9.6171875 23.203125 C-9.820220947265625 22.67779541015625 -9.820220947265625 22.67779541015625 -9.919189453125 22.12158203125 C-10.009014950664437 21.07777270192625 -9.804875874704749 20.291717573287457 -9.6171875 19.203125 C-8.297187500000007 19.203125 -6.977187500000014 19.203125 -5.6171875 19.203125 C-5.6171875 20.19312500000001 -5.6171875 21.18312499999999 -5.6171875 22.203125 C-4.025803096242157 22.249118768894732 -2.434972264190151 22.28544638704244 -0.8430919647216797 22.30674934387207 C-0.10314286644523918 22.316996523159276 0.6363121333696995 22.330774948368145 1.3759765625 22.35400390625 C4.616578877747315 22.484288508147245 4.616578877747315 22.484288508147245 7.8253021240234375 22.110641479492188 C9.73215631383431 21.638193496024712 11.564260635975302 20.938672425166402 13.3828125 20.203125 C13.3828125 18.553124999999994 13.3828125 16.90312499999999 13.3828125 15.203125 C12.79266357421875 15.183305664062487 12.2025146484375 15.163486328125003 11.594482421875 15.14306640625 C9.634361102574076 15.075854356080157 7.674749422199909 14.998223814984783 5.7152204513549805 14.915597915649414 C4.528281070808873 14.86586429663285 3.341420783733156 14.8195389498064 2.154052734375 14.78125 C1.0059598563729537 14.744097738243795 -0.14143085657923393 14.697670055209272 -1.2889156341552734 14.645061492919922 C-1.7245101108366043 14.626673335924124 -2.160254212934092 14.611508712608497 -2.596078872680664 14.599781036376953 C-3.9477385262885036 14.562140077713678 -5.29829772311507 14.523778176260379 -6.6171875 14.203125 C-7.251963985357634 13.96048905507564 -7.816023454517278 13.664509200926062 -8.384033203125 13.292236328125 C-8.849644171416628 12.952722250740806 -9.210603657233094 12.620691905059658 -9.6171875 12.203125 C-9.706460113525395 12.048981323242174 -9.79573272705079 11.894837646484376 -9.887710571289063 11.73602294921875 C-10.00537109375 11.289306640625 -10.00537109375 11.289306640625 -10.033615112304688 10.83349609375 C-10.02471000671386 10.600739746093751 -10.02471000671386 10.600739746093751 -10.015625 10.36328125 C-10.019718780517564 10.196428222656237 -10.023812561035129 10.029575195312503 -10.028030395507813 9.857666015625 C-10.034038864431011 9.32507036203188 -10.015451883636388 8.797688393852354 -9.9921875 8.265625 C-9.988531799316434 8.085710144042963 -9.98487609863281 7.905795288085926 -9.981109619140625 7.720428466796875 C-9.95261571607233 6.534510892706294 -9.884962323853927 5.361975394664853 -9.6171875 4.203125 C-9.35791015625 3.5546875 -9.35791015625 3.5546875 -9.04296875 3.046875 C-8.59958213142346 2.520541905159149 -8.124495441112288 2.0781329082156788 -7.56640625 1.67578125 C-6.448391187660036 1.0799777142607354 -5.267260136976972 0.6442108899092887 -4.04893684387207 0.3030681610107422 C-2.725252451667018 -0.0033438908318998983 -1.3519544350348838 0.01573448360539942 0 0 Z " fill="#000000" transform="translate(356.6171875,186.796875)"/>
<path d="M0 0 C6.127190745548944 -0.08032733679524995 6.127190745548944 -0.08032733679524995 9.170212745666504 -0.10050773620605469 C10.811103781335419 -0.11155869323283696 12.451789820140903 -0.1255511866075949 14.092529296875 -0.15087890625 C15.392324661249859 -0.17093383159189557 16.69196483335611 -0.18374436552679185 17.99191063642502 -0.1881769895553589 C18.679106718544404 -0.19076479122603018 19.365859204569176 -0.19675995100331534 20.05291175842285 -0.21146011352539063 C23.496680823938902 -0.276967016600679 23.496680823938902 -0.276967016600679 25 0 C25.66915267557073 0.2346119653495009 26.23854552469936 0.5323731712547897 26.82373046875 0.93115234375 C27.287258008274478 1.264519708726425 27.606659785891736 1.570638672375452 28 2 C28.355850219726563 2.67095947265625 28.355850219726563 2.67095947265625 28.58203125 3.296875 C28.720947265625 4.00537109375 28.720947265625 4.00537109375 28.8125 4.75 C28.851091308593766 5.0073291015625045 28.889682617187475 5.264658203125009 28.929443359375 5.52978515625 C29.029935190218737 6.358156082319226 29.067766396762067 7.167338422764033 29 8 C28.66373787777553 10.081875490052823 27.8411791806231 12.078775580119043 27 14 C27.16298583984377 14.122380371093755 27.325971679687484 14.244760742187509 27.493896484375 14.370849609375 C27.770721435546875 14.649871826171875 27.770721435546875 14.649871826171875 28 15 C28.140459864252023 15.689447411523133 28.116533508587963 16.365258823948437 28.09765625 17.06640625 C28.096241302490228 17.2647557067871 28.094826354980455 17.463105163574227 28.093368530273438 17.667465209960938 C28.087782866579687 18.299298683328118 28.075235439079904 18.930774163377095 28.0625 19.5625 C28.057483036133647 19.991531329345662 28.052920467094054 20.42056822986035 28.048828125 20.849609375 C28.038669728890966 21.89998753267568 28.01909828331884 22.949594417463686 28 24 C26.680000000000007 24 25.360000000000014 24 24 24 C23.670000000000016 21.360000000000014 23.339999999999975 18.72 23 16 C16.730000000000018 15.669999999999987 10.45999999999998 15.340000000000003 4 15 C4 17.97 4 20.939999999999998 4 24 C2.680000000000007 24 1.3600000000000136 24 0 24 C0 16.079999999999984 0 8.159999999999997 0 0 Z M4 3 C4 5.969999999999999 4 8.939999999999998 4 12 C6.746083729327722 12.029184339802129 6.746083729327722 12.029184339802129 9.4921875 12.048828125 C10.615609173955818 12.05475896390837 11.738947809549131 12.061700734146086 12.8623046875 12.075439453125 C13.770071877888995 12.086469413947441 14.67774978325275 12.092318219030375 15.585578918457031 12.094877243041992 C15.928381878670166 12.096695988628738 16.27118110089083 12.100245367808526 16.61394500732422 12.105730056762695 C18.36391610230868 12.132565580604961 19.986796681718204 12.046142807668843 21.694644927978516 11.635390281677246 C22.46712919033746 11.436123337721426 23.23412753797686 11.223382106482177 24 11 C24.167979079706242 10.183304204377379 24.32962306604861 9.366069168629195 24.482177734375 8.54638671875 C24.5351320269894 8.268577876645281 24.590420891527685 7.991202451425778 24.648193359375 7.71435546875 C24.731480921509274 7.313126691163916 24.805869426193283 6.911018134689925 24.87890625 6.5078125 C24.949603271484364 6.146472167968739 24.949603271484364 6.146472167968739 25.021728515625 5.77783203125 C25.014558105468723 5.521147460937499 25.007387695312502 5.264462890624998 25 5 C24.670000000000016 4.340000000000003 24.339999999999975 3.680000000000007 24 3 C17.399999999999977 3 10.800000000000011 3 4 3 Z " fill="#000000" transform="translate(264,188)"/>
<path d="M0 0 C6.127190745548958 -0.08032733679524995 6.127190745548958 -0.08032733679524995 9.170212745666504 -0.10050773620605469 C10.811103781335433 -0.11155869323283696 12.451789820140903 -0.1255511866075949 14.092529296875 -0.15087890625 C15.392324661249845 -0.17093383159189557 16.69196483335611 -0.18374436552679185 17.99191063642502 -0.1881769895553589 C18.679106718544404 -0.19076479122603018 19.365859204569176 -0.19675995100331534 20.05291175842285 -0.21146011352539063 C23.436266455721068 -0.2758178227703638 23.436266455721068 -0.2758178227703638 25 0 C25.517162309022027 0.16400662388628007 25.969777712605946 0.35451389334599526 26.44699001312256 0.6116199493408203 C26.82863919111921 0.8605275122281739 27.172516693075067 1.1152814050668667 27.512496948242188 1.418487548828125 C27.673372955322264 1.6103866577148551 27.83424896240234 1.8022857666015568 28 2 C28.252517700195313 2.552459716796875 28.252517700195313 2.552459716796875 28.3564453125 3.11328125 C28.36553955078125 3.699951171875 28.36553955078125 3.699951171875 28.328125 4.3125 C28.325315246582022 4.6340808105468625 28.325315246582022 4.6340808105468625 28.32244873046875 4.962158203125 C28.31576437800028 5.412757374434705 28.301917985215184 5.863302009531878 28.28125 6.3134765625 C28.25006362725938 6.998602188645691 28.24027828805994 7.681422203703676 28.234375 8.3671875 C28.22520224849164 8.807319349667324 28.214825521358264 9.247428094214428 28.203125 9.6875 C28.196750183105465 9.990711669921865 28.196750183105465 9.990711669921865 28.19024658203125 10.300048828125 C28.16130672362219 10.883214276820809 28.116278963541475 11.427517943400233 28 12 C27.75407966353127 12.546154366881467 27.48500532673785 13.050372245343254 27.169265747070313 13.559112548828125 C27.113408050537117 13.704605407714837 27.057550354003908 13.850098266601549 27 14 C27.15262799265136 14.466877927030282 27.15262799265136 14.466877927030282 27.43359375 14.8671875 C27.73779296875 15.3662109375 27.73779296875 15.3662109375 28 16 C28.18688370289493 17.359118991623376 28.094319737536367 18.757351658342458 28.0625 20.125 C28.057476235792393 20.501296144840097 28.0529148700886 20.877598762241746 28.048828125 21.25390625 C28.038743796439505 22.169563283292604 28.01916560947342 23.084309769603124 28 24 C26.680000000000007 24 25.36 24 24 24 C23.67 21.360000000000014 23.340000000000003 18.72 23 16 C16.400000000000006 15.669999999999987 9.799999999999997 15.340000000000003 3 15 C3 17.97 3 20.939999999999998 3 24 C2.010000000000005 24 1.019999999999996 24 0 24 C0 16.079999999999984 0 8.159999999999997 0 0 Z M3 3 C3 5.969999999999999 3 8.939999999999998 3 12 C5.923818695351429 12.02917666738324 5.923818695351429 12.02917666738324 8.84765625 12.048828125 C10.043503235723307 12.05476258035685 11.239272318363135 12.061714680447096 12.43505859375 12.075439453125 C13.401179929676985 12.086456427933086 14.367217516161844 12.092315644164813 15.333396911621094 12.094877243041992 C15.698527683086382 12.096698222593545 16.063654862831584 12.10025232350236 16.428749084472656 12.105730056762695 C18.24374039975251 12.131831265192261 19.937606626807096 12.06051531361669 21.709407806396484 11.635390281677246 C22.477299574719936 11.436913228628839 23.23921550187464 11.224234064104081 24 11 C24.19168033423243 10.184138795567037 24.372216314849496 9.36797597775572 24.537109375 8.54638671875 C24.595143137854066 8.268147066844108 24.657252108164613 7.99072265858203 24.7236328125 7.71435546875 C24.81909715996359 7.313694495304304 24.89891095616818 6.912256738155065 24.9765625 6.5078125 C25.0289306640625 6.266918945312511 25.081298828125 6.026025390624994 25.13525390625 5.77783203125 C25.0906201171875 5.521147460937499 25.045986328124997 5.264462890624998 25 5 C24.722618623901553 4.4446268617269595 24.722618623901553 4.4446268617269595 24.287109375 3.91796875 C23.78347265452382 3.429431468452094 23.78347265452382 3.429431468452094 23.388721466064453 3.1815528869628906 C22.999081882790776 2.9836991416400735 22.999081882790776 2.9836991416400735 22.546123504638672 2.8915977478027344 C21.178969627360843 2.7157662825206614 19.804294437735763 2.7707961094612017 18.4296875 2.8046875 C17.984147513879307 2.8084220561851794 17.53859926239815 2.8112669437072384 17.093048095703125 2.813262939453125 C15.925607832308941 2.8208655841825987 14.758672629453798 2.8404815067337097 13.5914306640625 2.8626708984375 C12.188150400363611 2.8868200391145535 10.784700352410368 2.8959267136801543 9.381271362304688 2.9075775146484375 C7.253830652912825 2.926911823821854 5.1274959897740615 2.9652496117822693 3 3 Z " fill="#000000" transform="translate(90,188)"/>
<path d="M0 0 C8.25 0 16.5 0 25 0 C25 0.9900000000000091 25 1.9799999999999898 25 3 C18.069999999999993 3 11.139999999999986 3 4 3 C4 5.310000000000002 4 7.6200000000000045 4 10 C10.600000000000023 10 17.19999999999999 10 24 10 C24 10.990000000000009 24 11.97999999999999 24 13 C17.399999999999977 13 10.800000000000011 13 4 13 C4 15.639999999999986 4 18.28 4 21 C10.930000000000007 21 17.860000000000014 21 25 21 C25 21.99000000000001 25 22.97999999999999 25 24 C16.75 24 8.5 24 0 24 C0 16.079999999999984 0 8.159999999999997 0 0 Z " fill="#000000" transform="translate(308,188)"/>
<path d="M0 0 C8.25 0 16.5 0 25 0 C25 0.9900000000000091 25 1.9799999999999898 25 3 C18.069999999999993 3 11.139999999999986 3 4 3 C4 5.310000000000002 4 7.6200000000000045 4 10 C10.599999999999994 10 17.19999999999999 10 24 10 C24 10.990000000000009 24 11.97999999999999 24 13 C17.400000000000006 13 10.800000000000011 13 4 13 C4 15.639999999999986 4 18.28 4 21 C10.930000000000007 21 17.860000000000014 21 25 21 C25 21.99000000000001 25 22.97999999999999 25 24 C16.75 24 8.5 24 0 24 C0 16.079999999999984 0 8.159999999999997 0 0 Z " fill="#000000" transform="translate(134,188)"/>
<path d="M0 0 C6.087027077151333 -0.12049100519288913 6.087027077151333 -0.12049100519288913 9.119958877563477 -0.15076160430908203 C10.75260614745332 -0.1673104866740971 12.384787680179613 -0.18822815231601453 14.01708984375 -0.226318359375 C15.310670953176697 -0.2564896861760815 16.603898907157543 -0.2756360497014043 17.89782214164734 -0.28226548433303833 C18.58138771372475 -0.2861339633473108 19.26394435120247 -0.29502525144960146 19.947181701660156 -0.31719017028808594 C21.649310842186253 -0.36622301911461363 23.334031330156506 -0.3950692798108548 25 0 C25.853290112380563 0.32753284172287067 26.587749322848452 0.7324285399704422 27.3330078125 1.260498046875 C27.827280963348215 1.6594650776366109 28.256050974752753 2.0603753516165284 28.676536560058594 2.536336898803711 C29 3 29 3 29.216346740722656 3.4670963287353516 C29.420308210763324 4.135959612396391 29.507524117115196 4.771860015535452 29.547931671142578 5.4689741134643555 C29.555998959934556 6.021911533372247 29.54485686738704 6.572200520131332 29.53125 7.125 C29.53395321352579 7.517099580160249 29.53784251298032 7.909192566304625 29.5428466796875 8.30126953125 C29.54870759088888 9.118820128675935 29.540314439696147 9.934609686774309 29.521484375 10.751953125 C29.498667344664142 11.792165240132903 29.511813168985526 12.82825560485719 29.53577423095703 13.868316650390625 C29.55034269046493 14.67682109598718 29.54558258529005 15.484371989548265 29.535263061523438 16.29290771484375 C29.532624680826075 16.67560333021831 29.535764052382234 17.058390176300406 29.545181274414063 17.44097900390625 C29.56223759525119 18.328300350938747 29.53552766971694 19.18266485675744 29.36212158203125 20.054855346679688 C29.216346740722656 20.53290367126465 29.216346740722656 20.53290367126465 29 21 C28.64752892558144 21.5052435956178 28.27769818588058 21.914700084955456 27.83016586303711 22.33820629119873 C27.1328409819007 22.90107246514677 26.433662061906603 23.357725032892972 25.631256103515625 23.757694244384766 C24.97152712400984 24.01092922776178 24.37306970765306 24.15091039200655 23.674072265625 24.252044677734375 C22.296458354576686 24.370300818800786 20.926928543773556 24.348974160468288 19.546196937561035 24.304181814193726 C18.856312423387664 24.28510820818883 18.16636481775268 24.283641366664853 17.47625732421875 24.280105590820313 C16.176251596940915 24.270871566242334 14.877025178412396 24.246385180142425 13.577358961105347 24.216057121753693 C11.948859019662478 24.178900992736885 10.320225820370865 24.162741036043485 8.69140625 24.146484375 C5.793667537784103 24.11747259101054 2.897623196612585 24.057357643921222 0 24 C0 16.079999999999984 0 8.159999999999997 0 0 Z M3 3 C3 8.939999999999998 3 14.879999999999995 3 21 C6.505851368552669 21.029107497541673 6.505851368552669 21.029107497541673 10.01171875 21.048828125 C11.442583505993099 21.054795644671856 12.873383996261992 21.06183947969666 14.30419921875 21.075439453125 C15.458341749531485 21.086340428644093 16.61241531934641 21.0922919524877 17.766605377197266 21.094877243041992 C18.205955096534126 21.096718577448456 18.645301232339392 21.10031426408665 19.08462142944336 21.105730056762695 C19.70216648449258 21.113037094259425 20.31943008204027 21.113987008942047 20.93701171875 21.113525390625 C21.206748046874992 21.118918304443355 21.206748046874992 21.118918304443355 21.48193359375 21.124420166015625 C22.00527063481411 21.12021387112631 22.484538667141692 21.092242848852436 23 21 C23.710183861114643 20.733750526616546 24.370578127378565 20.424527601586107 25 20 C25.135190429687498 19.80269287109374 25.270380859374995 19.605385742187508 25.40966796875 19.402099609375 C25.810843909586595 18.073499287663168 26.049410099465092 16.8252906992941 26.11724853515625 15.435699462890625 C26.138573500487524 14.672809281578537 26.138662249263547 13.911298557217918 26.13037109375 13.148193359375 C26.12503783348572 12.566625569647954 26.130330860873045 11.985840473596085 26.13671875 11.404296875 C26.141361536858312 9.49661612698165 26.018287633731518 7.645574973909987 25.6171875 5.77734375 C25.586824035644526 5.612550201416013 25.55646057128905 5.447756652832027 25.525177001953125 5.2779693603515625 C25.42137461872389 4.817148123393167 25.42137461872389 4.817148123393167 25.2536563873291 4.4110002517700195 C25.16994977951049 4.2753701686859245 25.086243171691905 4.139740085601801 25 4 C24.540068047893726 3.6660150515170074 24.072958263032348 3.442144020794103 23.5581111907959 3.2017011642456055 C23.017411477437122 2.9883619646875843 23.017411477437122 2.9883619646875843 22.49759864807129 2.9109315872192383 C21.974633029740943 2.878141576970819 21.46088496925975 2.876000665018381 20.93701171875 2.886474609375 C20.6439665222168 2.886255569458001 20.6439665222168 2.886255569458001 20.345001220703125 2.8860321044921875 C19.70644587213397 2.8867225703168344 19.068191162022174 2.8944724900870824 18.4296875 2.90234375 C17.984142652472144 2.9042110484669763 17.53859573847342 2.9056334797469106 17.093048095703125 2.9066314697265625 C15.925783654607017 2.9104322195932752 14.758645526768817 2.9202410109792822 13.5914306640625 2.93133544921875 C12.188070778951811 2.943410704662284 10.784668434423878 2.9479634893263267 9.381271362304688 2.9537887573242188 C7.254093314528546 2.963454718368638 5.127191898989139 2.982627289391189 3 3 Z " fill="#000000" transform="translate(174,188)"/>
<path d="M0 0 C0.2843912315368584 -0.004241065979016412 0.2843912315368584 -0.004241065979016412 0.5745277404785156 -0.00856781005859375 C1.578832734798766 -0.02345220036247042 2.5829982530729296 -0.03274767748666818 3.58740234375 -0.037109375 C4.4062173115299 -0.04148633087606868 5.223973334553733 -0.055347724393726594 6.04248046875 -0.078125 C11.593064675267414 -0.22932796416847623 11.593064675267414 -0.22932796416847623 13.9453125 0.203125 C14.787896007689028 0.42499496722433605 15.535859868219546 0.744005826570941 16.315658569335938 1.1324310302734375 C17.13161924988492 1.6189771932737358 17.866988123471174 2.1274266222013694 18.56396484375 2.77410888671875 C18.9453125 3.203125 18.9453125 3.203125 19.21875 3.61163330078125 C19.415661630633394 4.01148819924876 19.54949829119957 4.375264001148821 19.65234375 4.80859375 C19.740234375 5.599609375 19.740234375 5.599609375 19.7578125 6.390625 C19.781061992257804 6.666204645992821 19.806449630618857 6.941612358670227 19.833984375 7.216796875 C19.89193277603195 7.877408646764337 19.921720216060095 8.540396296596953 19.9453125 9.203125 C18.625312500000007 9.203125 17.305312500000014 9.203125 15.9453125 9.203125 C15.615312500000016 7.883125000000007 15.285312500000003 6.563125000000014 14.9453125 5.203125 C12.024922674447339 4.381147828395456 12.024922674447339 4.381147828395456 9.0224609375 4.089599609375 C8.366292392991568 4.086520123555658 7.710756366513522 4.094861281410573 7.0546875 4.10546875 C6.74105000753849 4.106946249558376 6.427410006484848 4.1079619588506375 6.11376953125 4.1085205078125 C4.974245283507315 4.113679880936161 3.834774443312625 4.127640006091724 2.6953125 4.140625 C0.13781249999999545 4.1612499999999955 -2.419687500000009 4.181874999999991 -5.0546875 4.203125 C-5.0546875 10.143124999999998 -5.0546875 16.083124999999995 -5.0546875 22.203125 C-2.4971874999999955 22.223749999999995 0.060312500000009095 22.24437499999999 2.6953125 22.265625 C3.494208984375007 22.27472900390626 4.293105468750014 22.28383300781249 5.1162109375 22.293212890625 C5.850614334112777 22.29656322311041 5.850614334112777 22.29656322311041 6.58502197265625 22.298568725585938 C6.904860473669316 22.300075437172893 7.224694375962656 22.30352995930295 7.54449462890625 22.308700561523438 C9.282426147466367 22.335323418283537 10.896381081087924 22.25246430608604 12.593818664550781 21.851972579956055 C13.380668066169505 21.646941792912628 14.162533726840763 21.4231863477072 14.9453125 21.203125 C15.275312499999984 19.883125000000007 15.605312499999997 18.563125000000014 15.9453125 17.203125 C17.265312499999993 17.203125 18.585312499999986 17.203125 19.9453125 17.203125 C19.916547388566386 18.011163130271257 19.87305338865758 18.79899416601981 19.792724609375 19.601806640625 C19.75893027004352 20.002375907526215 19.74916533192453 20.404747563396484 19.740234375 20.806640625 C19.674111192322925 21.401749269093642 19.612345892935622 21.843022691237195 19.41650390625 22.39453125 C19.21929931640625 22.795166015625 19.21929931640625 22.795166015625 18.9453125 23.203125 C18.347328767352565 23.869180436013608 17.69973139431289 24.381014609464387 16.95703125 24.87890625 C16.128069687833715 25.370659153617396 15.301754880858198 25.77612408681361 14.389278411865234 26.081188201904297 C12.499263124806276 26.600287543310174 10.481028447291436 26.600556098060622 8.534225463867188 26.616806030273438 C7.740040679715435 26.61731914846152 6.9464015037820275 26.607854846241253 6.15234375 26.59423828125 C5.146458193855892 26.577134154384396 4.142950297513494 26.587297091564324 3.13714599609375 26.604549407958984 C-1.7102455343268446 26.675319889724562 -1.7102455343268446 26.675319889724562 -4.0546875 26.203125 C-5.136623174262525 25.90179576970604 -6.086675950436444 25.438659250484704 -7.0546875 24.8671875 C-7.641498652903408 24.518526692974746 -8.143550434608017 24.171922142806125 -8.64923095703125 23.713470458984375 C-9.0546875 23.203125 -9.0546875 23.203125 -9.39129638671875 22.541656494140625 C-9.774699740733212 21.5072653111215 -10.011938112446671 20.525622395888433 -10.1568603515625 19.432342529296875 C-10.218025143280698 18.627734257289546 -10.246935609821122 17.829936337580165 -10.2578125 17.0234375 C-10.262053565979016 16.805241641998293 -10.262053565979016 16.805241641998293 -10.266380310058594 16.582637786865234 C-10.281225256780147 15.81174790021177 -10.290544381482903 15.041037672305492 -10.294921875 14.27001953125 C-10.299292143409815 13.645071148644917 -10.313122378049457 13.021516102450107 -10.3359375 12.39697265625 C-10.486845571160842 8.174503599212073 -10.486845571160842 8.174503599212073 -10.0546875 6.203125 C-9.743349629611913 5.170071060918673 -9.270097658116043 4.252142669607991 -8.7265625 3.3203125 C-8.609841918945307 3.1176174926757767 -8.493121337890614 2.9149224853515534 -8.37286376953125 2.706085205078125 C-7.9951171875 2.14404296875 -7.9951171875 2.14404296875 -7.563629150390625 1.6387939453125 C-7.0546875 1.203125 -7.0546875 1.203125 -6.423431396484375 0.8582763671875 C-4.337234922873023 0.061900692095434806 -2.209840971131314 0.022619072292400233 0 0 Z " fill="#000000" transform="translate(228.0546875,186.796875)"/>
<path d="M0 0 C9.240000000000009 0 18.480000000000018 0 28 0 C28 0.9900000000000091 28 1.9799999999999898 28 3 C24.04000000000002 3 20.079999999999984 3 16 3 C16 9.930000000000007 16 16.860000000000014 16 24 C14.680000000000007 24 13.360000000000014 24 12 24 C12 17.069999999999993 12 10.139999999999986 12 3 C8.04000000000002 3 4.079999999999984 3 0 3 C0 2.009999999999991 0 1.0200000000000102 0 0 Z " fill="#000000" transform="translate(389,188)"/>
<path d="M0 0 C1.3199999999999932 0.3300000000000125 2.6399999999999864 0.6599999999999966 4 1 C4.3300000000000125 2.9799999999999898 4.659999999999997 4.960000000000008 5 7 C5.659999999999997 7 6.319999999999993 7 7 7 C7.3300000000000125 5.02000000000001 7.659999999999997 3.039999999999992 8 1 C9.319999999999993 0.6699999999999875 10.639999999999986 0.3400000000000034 12 0 C12 3.960000000000008 12 7.9199999999999875 12 12 C10.680000000000007 11.669999999999987 9.360000000000014 11.340000000000003 8 11 C7.204442788931232 10.938614412726167 6.528470146493817 10.896024131539264 5.75 10.9375 C5.5772656249999955 10.942011718749995 5.404531249999991 10.946523437499991 5.2265625 10.951171875 C4.817542266373209 10.962533548156301 4.4087099394889435 10.980434098641496 4 11 C3.6699999999999875 10.009999999999991 3.3400000000000034 9.02000000000001 3 8 C2.6699999999999875 9.319999999999993 2.3400000000000034 10.639999999999986 2 12 C1.3400000000000034 12 0.6800000000000068 12 0 12 C0 8.039999999999992 0 4.0800000000000125 0 0 Z " fill="#000000" transform="translate(181,234)"/>
<path d="M0 0 C0.9900000000000091 0 1.9799999999999898 0 3 0 C3.990000000000009 1.9799999999999898 4.97999999999999 3.960000000000008 6 6 C6.659999999999997 4.02000000000001 7.319999999999993 2.039999999999992 8 0 C8.990000000000009 0 9.97999999999999 0 11 0 C11 3.960000000000008 11 7.9199999999999875 11 12 C10.340000000000003 12 9.680000000000007 12 9 12 C8.669999999999987 11.340000000000003 8.340000000000003 10.680000000000007 8 10 C7.6699999999999875 10.659999999999997 7.340000000000003 11.319999999999993 7 12 C6.009999999999991 12 5.02000000000001 12 4 12 C3.6699999999999875 11.340000000000003 3.3400000000000034 10.680000000000007 3 10 C2.6699999999999875 10.659999999999997 2.3400000000000034 11.319999999999993 2 12 C1.3400000000000034 12 0.6800000000000068 12 0 12 C0 8.039999999999992 0 4.0800000000000125 0 0 Z " fill="#000000" transform="translate(198,234)"/>
<path d="M0 0 C1.0655261630576263 -0.04686873002683001 2.0570466902471765 0.0033395225048025168 3.106689453125 0.195556640625 C3.793701171875 0.402587890625 3.793701171875 0.402587890625 4.375244140625 0.695556640625 C4.911558361406037 1.0788590232004935 5.311302480590456 1.4571292646983522 5.731201171875 1.965087890625 C6.120875572304044 2.5283348582301244 6.388010886962377 3.0460691401917757 6.630126953125 3.687255859375 C6.822367001598735 4.527947414640693 6.874415276493181 5.296622366066316 6.852294921875 6.156494140625 C6.767476299954552 7.698498716292221 6.508461891611461 9.203946613063351 6.055908203125 10.680908203125 C5.833620421764238 11.292717031525797 5.625306344560471 11.797980972391827 5.258544921875 12.332275390625 C4.9482421875 12.6533203125 4.9482421875 12.6533203125 4.606201171875 12.902587890625 C4.23486328125 13.10693359375 4.23486328125 13.10693359375 3.817138671875 13.258056640625 C2.9856768647774743 13.426596196117742 2.1788877548535766 13.419432565082246 1.332763671875 13.390869140625 C-0.016026240930017366 13.276775869009697 -1.272872653216524 13.04570816947026 -2.571044921875 12.648681640625 C-3.206298828125 12.402587890625 -3.206298828125 12.402587890625 -3.673583984375 12.148681640625 C-4.038330078125 11.871337890625 -4.038330078125 11.871337890625 -4.338134765625 11.5595703125 C-4.600327013214525 11.188131295081519 -4.788427582674672 10.84346479732244 -4.960205078125 10.422119140625 C-5.332438175351314 9.109077116343144 -5.465417393259173 7.7625633523237525 -5.518798828125 6.402587890625 C-5.503671339031513 5.377385348518345 -5.423653965775998 4.405434367311727 -5.206298828125 3.402587890625 C-4.999755859375 2.837158203125 -4.999755859375 2.837158203125 -4.741455078125 2.347900390625 C-4.424887829002614 1.9002878567747246 -4.102559665167064 1.5467751564799244 -3.69580078125 1.1796875 C-2.5669977228710366 0.38933521824898776 -1.3534877652915895 0.15019842224077706 0 0 Z M-1.206298828125 2.402587890625 C-1.9353687095947407 3.8214700445622896 -2.630963325855305 5.243173494422621 -3.104736328125 6.769775390625 C-3.138251953125007 6.978603515624997 -3.1717675781250136 7.187431640624993 -3.206298828125 7.402587890625 C-3.1256418300937128 7.935779397576226 -3.1256418300937128 7.935779397576226 -2.893798828125 8.402587890625 C-2.4317450478226306 9.193561311142616 -1.8599443297955247 9.712628749972794 -1.206298828125 10.402587890625 C0.4437011718750057 10.072587890624987 2.0937011718750114 9.742587890625003 3.793701171875 9.402587890625 C3.793701171875 7.42258789062501 3.793701171875 5.442587890624992 3.793701171875 3.402587890625 C2.1437011718749943 3.0725878906249875 0.49370117187498863 2.7425878906250034 -1.206298828125 2.402587890625 Z " fill="#000000" transform="translate(170.206298828125,233.597412109375)"/>
<path d="M0 0 C1.9181250000000034 -0.03093749999999318 1.9181250000000034 -0.03093749999999318 3.875 -0.0625 C4.274448242187503 -0.0716040039062591 4.673896484375007 -0.08070800781248977 5.08544921875 -0.090087890625 C5.408525249724931 -0.09301344450312854 5.7316050206811155 -0.09556048923639082 6.0546875 -0.09765625 C6.217189941406247 -0.10277221679686477 6.379692382812493 -0.10788818359375796 6.547119140625 -0.1131591796875 C7.03857421875 -0.113525390625 7.03857421875 -0.113525390625 8 0 C8.659999999999997 0.3300000000000125 9.319999999999993 0.6599999999999966 10 1 C10 4.6299999999999955 10 8.259999999999991 10 12 C9.009999999999991 11.669999999999987 8.02000000000001 11.340000000000003 7 11 C7 10.009999999999991 7 9.02000000000001 7 8 C5.349999999999994 8 3.6999999999999886 8 2 8 C2 9.319999999999993 2 10.639999999999986 2 12 C1.3400000000000034 12 0.6800000000000068 12 0 12 C0 8.039999999999992 0 4.0800000000000125 0 0 Z M2 2 C2 2.990000000000009 2 3.9799999999999898 2 5 C3.9799999999999898 5 5.960000000000008 5 8 5 C7.6699999999999875 4.009999999999991 7.340000000000003 3.0200000000000102 7 2 C5.349999999999994 2 3.6999999999999886 2 2 2 Z " fill="#000000" transform="translate(228,234)"/>
<path d="M0 0 C2.969999999999999 0 5.939999999999998 0 9 0 C9 0.6599999999999966 9 1.3199999999999932 9 2 C7.02000000000001 2 5.039999999999992 2 3 2 C3 2.990000000000009 3 3.9799999999999898 3 5 C4.97999999999999 5 6.960000000000008 5 9 5 C9 5.659999999999997 9 6.319999999999993 9 7 C7.02000000000001 7 5.039999999999992 7 3 7 C3 7.990000000000009 3 8.97999999999999 3 10 C5.310000000000002 10 7.6200000000000045 10 10 10 C10 10.659999999999997 10 11.319999999999993 10 12 C6.699999999999989 12 3.4000000000000057 12 0 12 C0 8.039999999999992 0 4.0800000000000125 0 0 Z " fill="#000000" transform="translate(214,234)"/>
<path d="M0 0 C2.969999999999999 0 5.939999999999998 0 9 0 C9 0.6599999999999966 9 1.3199999999999932 9 2 C7.02000000000001 2 5.039999999999992 2 3 2 C3 2.990000000000009 3 3.9799999999999898 3 5 C4.97999999999999 5 6.960000000000008 5 9 5 C9 5.659999999999997 9 6.319999999999993 9 7 C7.02000000000001 7 5.039999999999992 7 3 7 C3 7.990000000000009 3 8.97999999999999 3 10 C5.310000000000002 10 7.6200000000000045 10 10 10 C10 10.659999999999997 10 11.319999999999993 10 12 C6.699999999999989 12 3.4000000000000057 12 0 12 C0 8.039999999999992 0 4.0800000000000125 0 0 Z " fill="#000000" transform="translate(128,234)"/>
<path d="M0 0 C5.1692713236678856 -0.2926002636038447 5.1692713236678856 -0.2926002636038447 7 0 C7.6259765625 0.181640625 7.6259765625 0.181640625 8.1328125 0.421875 C8.578630630320163 0.7261157510968701 8.915864962206456 1.0385646851996455 9.27734375 1.4384765625 C9.5703125 1.875 9.5703125 1.875 9.8095703125 2.3828125 C10.13762334384927 3.4460407862191573 10.244529558270528 4.50806932821817 10.293212890625 5.616943359375 C10.301039393093788 5.9320973016441485 10.307470795512643 6.247289009438276 10.3125 6.5625 C10.316357116699237 6.716069641113279 10.320214233398417 6.869639282226558 10.324188232421875 7.027862548828125 C10.333320589935624 7.7698542557947405 10.307000254669504 8.493008094922857 10.197265625 9.2275390625 C10 10 10 10 9.677734375 10.6552734375 C9.23828125 11.20703125 9.23828125 11.20703125 8.693115234375 11.666748046875 C8 12 8 12 7.564239501953125 12.093902587890625 C6.330715091151433 12.242807449737171 5.113717810798391 12.181464345550722 3.875 12.125 C2.5962499999999977 12.083750000000009 1.3174999999999955 12.04249999999999 0 12 C0 8.039999999999992 0 4.0800000000000125 0 0 Z M2 2 C2 4.639999999999986 2 7.280000000000001 2 10 C3.6499999999999773 9.669999999999987 5.300000000000011 9.340000000000003 7 9 C7.671606838190314 7.289121953566109 7.671606838190314 7.289121953566109 8.03076171875 5.53466796875 C8.020610351562482 5.358227539062511 8.01045898437502 5.181787109374994 8 5 C7.815220712900157 4.505718563254305 7.815220712900157 4.505718563254305 7.50390625 4.06640625 C7.148383985455666 3.6404857465510645 7.148383985455666 3.6404857465510645 6.75 3.25 C6.628425292968757 3.1226245117187545 6.506850585937514 2.995249023437509 6.381591796875 2.864013671875 C5.923140655209863 2.434361449746291 5.923140655209863 2.434361449746291 5 2 C4.009999999999991 2 3.019999999999982 2 2 2 Z " fill="#000000" transform="translate(360,234)"/>
<path d="M0 0 C0.7811241788386667 -0.16380958841457982 1.5151428244859915 -0.20664803735033388 2.30859375 -0.17578125 C2.580743054975102 -0.15907894608454853 2.852878487428484 -0.1421491559646597 3.125 -0.125 C3.4049157202807123 -0.11494509000149833 3.684866597572551 -0.1058236115060538 3.96484375 -0.09765625 C4.643606292671365 -0.07425064508029777 5.321919444293684 -0.03838191824752357 6 0 C6.659999999999997 1.3199999999999932 7.319999999999993 2.6399999999999864 8 4 C7.009999999999991 4 6.02000000000001 4 5 4 C5 3.3400000000000034 5 2.680000000000007 5 2 C3.3499999999999943 2.3300000000000125 1.6999999999999886 2.6599999999999966 0 3 C0.3300000000000125 4.97999999999999 0.6599999999999966 6.960000000000008 1 9 C4.465000000000003 8.504999999999995 4.465000000000003 8.504999999999995 8 8 C7.6699999999999875 9.319999999999993 7.340000000000003 10.639999999999986 7 12 C5.416478804963475 12.485613166477862 3.8464751445085312 12.916816573145411 2.1915130615234375 13.048583984375 C1.78271484375 13.060546875 1.78271484375 13.060546875 1 13 C0.30712890625 12.767578125 0.30712890625 12.767578125 -0.32421875 12.421875 C-0.9260448125497192 11.978983658762814 -1.425555946967961 11.5126185954623 -1.93896484375 10.97021484375 C-2.37890625 10.3828125 -2.37890625 10.3828125 -2.74267578125 9.7314453125 C-3 9 -3 9 -3.06512451171875 8.5867919921875 C-3.14501974070663 7.501129966283571 -3.0362863677402174 6.4484636438887435 -2.875 5.375 C-2.853075866699214 5.223293457031247 -2.8311517333984284 5.071586914062493 -2.808563232421875 4.915283203125 C-2.668152005392642 4.038880664395947 -2.4772313321504384 3.1990054458403563 -2.16485595703125 2.36700439453125 C-2 2 -2 2 -1.60693359375 1.34912109375 C-1.140625 0.796875 -1.140625 0.796875 -0.61083984375 0.33544921875 C-0.40926269531249204 0.22475097656248977 -0.2076855468750125 0.11405273437500796 0 0 Z " fill="#000000" transform="translate(153,234)"/>
<path d="M0 0 C1.761248878603709 -0.21313354585436173 3.5098966170782546 -0.045745699041845 5.2646484375 0.15869140625 C5.924648437499997 1.4786914062499932 6.584648437499993 2.7986914062499864 7.2646484375 4.15869140625 C4.624648437500014 3.8286914062499875 1.9846484374999989 3.4986914062500034 -0.7353515625 3.15869140625 C-0.4053515624999875 5.13869140624999 -0.07535156250000341 7.118691406250008 0.2646484375 9.15869140625 C3.7296484375000034 8.663691406249995 3.7296484375000034 8.663691406249995 7.2646484375 8.15869140625 C6.9346484374999875 9.478691406249993 6.604648437500003 10.798691406249986 6.2646484375 12.15869140625 C4.616635379284901 12.658498645216866 2.991155880790558 13.071368052904376 1.2646484375 13.15869140625 C0.6514657242606461 13.122564399259772 0.12168698011933543 13.038632672369175 -0.468505859375 12.86962890625 C-1.0079902024324952 12.649452018011146 -1.4632310893744034 12.420820503680346 -1.9423828125 12.08837890625 C-2.36279296875 11.68505859375 -2.36279296875 11.68505859375 -2.7353515625 11.15869140625 C-3.2135696099795723 10.059459253567553 -3.4921938618509216 8.96726558602569 -3.6728515625 7.78369140625 C-3.8274525256036043 6.572611189937675 -3.8857764262463377 5.373119062240534 -3.7353515625 4.15869140625 C-3.56939677858864 3.4519362945344767 -3.3657908448319063 2.8806674894925663 -3.02783203125 2.2392578125 C-2.662203939280687 1.7056520276589424 -2.3021512618255144 1.253172762498025 -1.8369140625 0.80322265625 C-1.214201960284555 0.35508591217009666 -0.7536274315738183 0.16263540190004733 0 0 Z " fill="#000000" transform="translate(245.7353515625,233.84130859375)"/>
<path d="M0 0 C2.9700000000000273 0 5.939999999999998 0 9 0 C9 0.6599999999999966 9 1.3199999999999932 9 2 C6.689999999999998 2 4.3799999999999955 2 2 2 C2 2.990000000000009 2 3.9799999999999898 2 5 C3.980000000000018 5 5.9599999999999795 5 8 5 C8 5.659999999999997 8 6.319999999999993 8 7 C6.019999999999982 7 4.0400000000000205 7 2 7 C2 7.990000000000009 2 8.97999999999999 2 10 C4.310000000000002 10 6.6200000000000045 10 9 10 C9 10.659999999999997 9 11.319999999999993 9 12 C6.029999999999973 12 3.0600000000000023 12 0 12 C0 8.039999999999992 0 4.0800000000000125 0 0 Z " fill="#000000" transform="translate(258,234)"/>
<path d="M0 0 C1.2993749999999977 -0.020624999999995453 2.5987499999999955 -0.041249999999990905 3.9375 -0.0625 C4.346052246093734 -0.0716040039062591 4.754604492187525 -0.08070800781248977 5.175537109375 -0.090087890625 C5.501135985573399 -0.09300983057633516 5.826738525595715 -0.09555773733950446 6.15234375 -0.09765625 C6.403771362304667 -0.10533020019531136 6.403771362304667 -0.10533020019531136 6.6602783203125 -0.1131591796875 C7.126660607025485 -0.11350644870216797 7.543660033668914 -0.09579915199245193 8 0 C8.201093749999984 0.1379296874999909 8.402187500000025 0.27585937500001023 8.609375 0.41796875 C8.73828125 0.6100390624999932 8.8671875 0.8021093749999864 9 1 C9.113525390625 1.664306640625 9.113525390625 1.664306640625 9.09765625 2.41015625 C9.095158691406255 2.6512915039062364 9.092661132812509 2.892426757812501 9.090087890625 3.140869140625 C9.076431884765611 3.597076416015625 9.076431884765611 3.597076416015625 9.0625 4.0625 C9.041875000000005 5.031875000000014 9.021250000000009 6.001249999999999 9 7 C6.689999999999998 7.3300000000000125 4.3799999999999955 7.659999999999997 2 8 C2 9.319999999999993 2 10.639999999999986 2 12 C1.339999999999975 12 0.6800000000000068 12 0 12 C0 8.039999999999992 0 4.0800000000000125 0 0 Z M2 2 C2 3.319999999999993 2 4.639999999999986 2 6 C3.6499999999999773 5.6699999999999875 5.300000000000011 5.340000000000003 7 5 C6.670000000000016 4.009999999999991 6.339999999999975 3.0200000000000102 6 2 C4.680000000000007 2 3.3600000000000136 2 2 2 Z " fill="#000000" transform="translate(279,234)"/>
<path d="M0 0 C0.9216631036214835 0.16660973863639583 1.800482575419835 0.37361965448553747 2.65289306640625 0.76971435546875 C2.8247109985351813 0.8837057495117051 2.8247109985351813 0.8837057495117051 3 1 C3.3417194883091383 1.5066346173472311 3.536766386114664 1.8513799879943065 3.73046875 2.41015625 C3.897539343030928 2.95665055048255 4.0470709881559515 3.508561107929637 4.1875 4.0625 C4.455624999999998 5.031875000000014 4.7237499999999955 6.001249999999999 5 7 C5.990000000000009 4.689999999999998 6.980000000000018 2.3799999999999955 8 0 C8.990000000000009 0 9.980000000000018 0 11 0 C10.59346789934267 1.3882516701657153 10.184452174919613 2.7757388733748485 9.773193359375 4.16259765625 C9.63384880598727 4.633753399917879 9.495165764579951 5.1051053419704715 9.357177734375 5.57666015625 C9.157857077859944 6.257372578860981 8.95610864130748 6.937326288154281 8.75390625 7.6171875 C8.693446197509786 7.825602722167957 8.632986145019515 8.034017944335943 8.570693969726563 8.248748779296875 C8.17243618829633 9.576943327792122 7.662163795707443 10.781627024994862 7 12 C5.980202588102486 11.90894993436305 4.987088677526742 11.745936850149548 4.001953125 11.4638671875 C3.469970703125 11.2635498046875 3.469970703125 11.2635498046875 3 11 C2.658935546875 10.6387939453125 2.658935546875 10.6387939453125 2.388671875 10.2158203125 C1.9771777906709644 9.397687213006833 1.6829949887642215 8.546326467535664 1.41650390625 7.67138671875 C1.250599793275569 7.126968236584673 1.0637091593388845 6.594074440412726 0.87109375 6.05859375 C0.47157262972126546 4.904466104946266 0.08132165646043177 3.746347809173642 -0.051513671875 2.5272216796875 C-0.09754307512702098 1.6797793495182987 -0.07273473754605675 0.8461474467856078 0 0 Z " fill="#000000" transform="translate(292,234)"/>
<path d="M0 0 C3.3000000000000114 0 6.600000000000023 0 10 0 C10 0.6599999999999966 10 1.3199999999999932 10 2 C8.680000000000007 2 7.360000000000014 2 6 2 C6 5.300000000000011 6 8.599999999999994 6 12 C5.339999999999975 12 4.680000000000007 12 4 12 C4 8.699999999999989 4 5.400000000000006 4 2 C2.680000000000007 2 1.3600000000000136 2 0 2 C0 1.3400000000000034 0 0.6800000000000068 0 0 Z " fill="#000000" transform="translate(346,234)"/>
<path d="M0 0 C3.3000000000000114 0 6.600000000000023 0 10 0 C10 0.6599999999999966 10 1.3199999999999932 10 2 C8.680000000000007 2 7.360000000000014 2 6 2 C6 5.300000000000011 6 8.599999999999994 6 12 C5.339999999999975 12 4.680000000000007 12 4 12 C4 8.699999999999989 4 5.400000000000006 4 2 C2.680000000000007 2 1.3600000000000136 2 0 2 C0 1.3400000000000034 0 0.6800000000000068 0 0 Z " fill="#000000" transform="translate(306,234)"/>
<path d="M0 0 C0.660000000000025 0 1.3199999999999932 0 2 0 C2 3.3000000000000114 2 6.599999999999994 2 10 C3.980000000000018 10 5.9599999999999795 10 8 10 C8 10.659999999999997 8 11.319999999999993 8 12 C5.360000000000014 12 2.7200000000000273 12 0 12 C0 8.039999999999992 0 4.0800000000000125 0 0 Z " fill="#000000" transform="translate(335,234)"/>
<path d="M0 0 C1.9799999999999898 0 3.960000000000008 0 6 0 C6 0.6599999999999966 6 1.3199999999999932 6 2 C4.02000000000001 2 2.039999999999992 2 0 2 C0 1.3400000000000034 0 0.6800000000000068 0 0 Z " fill="#000000" transform="translate(141,241)"/>
<path d="M0 0 C0.660000000000025 0 1.3199999999999932 0 2 0 C2 0.6599999999999966 2 1.3199999999999932 2 2 C1.339999999999975 2 0.6800000000000068 2 0 2 C0 1.3400000000000034 0 0.6800000000000068 0 0 Z " fill="#000000" transform="translate(375,244)"/>
<path d="M0 0 C0.660000000000025 0 1.3199999999999932 0 2 0 C2 0.6599999999999966 2 1.3199999999999932 2 2 C1.339999999999975 2 0.6800000000000068 2 0 2 C0 1.3400000000000034 0 0.6800000000000068 0 0 Z " fill="#000000" transform="translate(320,244)"/>
</svg>
