<?xml version="1.0" encoding="utf-8" ?>
<svg baseProfile="full" height="265" version="1.1" width="506" xmlns="http://www.w3.org/2000/svg" xmlns:ev="http://www.w3.org/2001/xml-events" xmlns:xlink="http://www.w3.org/1999/xlink"><defs /><path d="M 0.0,0.0 C 2.0,0.0 2.0,160.0 -26.0,160.0 C -26.561718624085188,106.95407012477517 -26.604248046875,100.679931640625 -26.612991727888584,99.41833990067244 C -26.84868075698614,79.2416180446744 -27.034973442554474,58.511410176754 -27.18708113580942,45.73788648098707 C -27.248515151441097,36.957741625607014 -27.311260223388672,31.905406951904297 -26.357524126768112,20.735000044107437 C -22.186721622943878,16.004687249660492 -16.357252717018127,11.885764002799988 -11.639301478862762,8.436816275119781 C -7.871337890625,5.621337890625 -4.970703125,3.470703125 -3.08984375,2.08984375 C -2.2314300537109375,1.4462738037109375 -1.429443359375,0.866943359375 -0.7359466552734375,0.3570404052734375 C 0.0,0.0 77.06184196472168,9.219595909118652 78.0,10.0 C 78.24050903320312,14.220352172851562 78.24568736553192,15.559376657009125 78.23213124275208,19.246708512306213 C 78.22793579101562,23.220108032226562 78.21146011352539,30.106889724731445 78.18748413026333,40.064086847007275 C 78.15087890625,56.218017578125 78.10986328125,71.912353515625 78.10827101767063,72.88911957293749 C 78.10064721107483,77.74014675617218 78.0,118.0 50.0,118.0 C 49.94893467053771,83.62993603944778 49.945068359375,79.56005859375 49.944273479282856,78.74173295497894 C 49.92284720391035,65.6729302406311 49.90591150522232,52.23470687866211 49.894269943237305,44.69866943359375 C 49.886892318725586,37.587392807006836 49.880794525146484,34.99480628967285 50.36549377441406,22.52734375 C 50.45092099905014,21.521937370300293 51.0,19.0 54.025177001953125,16.958892822265625 C 54.69580078125,16.77197265625 55.46246337890625,16.54425048828125 56.25,16.3125 C 57.84716796875,15.75146484375 61.2314453125,14.60302734375 66.6171875,12.55078125 C 68.3935546875,11.828857421875 70.9771728515625,10.774322509765625 73.3828125,9.8203125 C 74.77001953125,9.26611328125 77.06184196472168,9.219595909118652 -36.0,42.0 C -36.0,137.0 -63.0,137.0 -63.41449737548828,105.96694660186768 C -63.603515625,91.556884765625 -63.752707958221436,78.99307888746262 -63.84584045410156,72.34432411193848 C -63.0,57.0 -60.32016849517822,54.13122367858887 -55.973506927490234,52.31601905822754 C -52.455322265625,50.514404296875 -50.31640625,49.32421875 -49.14720153808594,48.67304992675781 C -46.760986328125,47.350341796875 -43.095703125,45.310546875 -40.75390625,44.01171875 C -39.65248107910156,43.39640808105469 -38.638916015625,42.838623046875 -37.74977111816406,42.34599304199219 C -36.0,42.0 40.0,43.0 40.0,145.0 C 12.0,145.0 10.723366763442755,112.51612242683768 10.626708984375,108.653564453125 C 10.6068369820714,107.87705285102129 10.156638577580452,97.06481321156025 11.57116985321045,59.01491069793701 C 15.975253105163574,53.17293071746826 35.70065402984619,43.270432472229004 40.0,43.0 Z" fill="rgb(221,57,13)" stroke="none" stroke-width="0.0" /><path d="M 0.0,0.0 C 1.027374267578125,-0.01727294921875 3.17041015625,-0.037109375 6.40234375,-0.109375 C 13.976318359375,0.811767578125 17.3828125,3.203125 18.3828125,7.203125 C 15.8828125,6.828125 14.4765625,6.6171875 13.3828125,6.203125 C 13.3828125,4.203125 1.3828125,4.203125 0.24169921875,4.220703125 C -0.71484375,4.25 -1.496337890625,4.2724609375 -4.6171875,5.203125 C -5.26171875,7.75390625 -5.479736328125,9.137939453125 -5.6171875,10.203125 C -4.9674835205078125,10.220901489257812 1.798583984375,10.465576171875 4.315185546875,10.549560546875 C 14.047607421875,11.812255859375 17.3828125,14.203125 18.16015625,15.66796875 C 18.16015625,21.41015625 16.3828125,24.203125 10.49578857421875,26.32586669921875 C 4.4443359375,26.518798828125 1.265625,26.564453125 -6.219482421875,25.590087890625 C -9.6171875,23.203125 -9.9296875,21.015625 -9.6171875,19.203125 C -5.6171875,19.203125 -5.6171875,22.203125 -0.392578125,22.31298828125 C 1.3759765625,22.35400390625 12.28857421875,20.97607421875 13.3828125,20.203125 C 13.59375,16.2265625 13.3828125,15.203125 12.643722534179688,15.178619384765625 C 5.002685546875,14.8857421875 2.154052734375,14.78125 -1.94921875,14.6171875 C -3.2279815673828125,14.582183837890625 -7.5595703125,13.795822143554688 -9.6171875,12.203125 C -10.015625,10.36328125 -10.033935546875,9.334228515625 -9.9921875,8.265625 C -9.968017578125,7.175537109375 -9.04296875,3.046875 -6.6171875,1.203125 Z" fill="rgb(0,0,0)" stroke="none" stroke-width="0.0" /><path d="M 0.0,0.0 C 8.740234375,-0.09765625 14.092529296875,-0.15087890625 18.410818099975586,-0.18975448608398438 C 20.05291175842285,-0.21146011352539062 26.003067016601562,0.4129638671875 28.0,2.0 C 29.04931640625,7.16357421875 27.675048828125,12.0830078125 27.0,14.0 C 28.0,15.0 28.09765625,17.06640625 28.087890625,18.287109375 C 28.0625,19.5625 28.048828125,20.849609375 28.0,24.0 C 24.0,24.0 23.84765625,20.0625 23.44512939453125,16.83251953125 C 23.0,16.0 19.995208740234375,15.07958984375 13.4375,15.0 C 10.705078125,14.96484375 4.0,15.0 4.0,24.0 C 0.0,24.0 0.0,0.0 4.0,3.0 C 4.0,12.0 10.6162109375,12.054931640625 12.8623046875,12.075439453125 C 16.109375,12.09765625 17.10736083984375,12.113296508789062 24.0,11.0 C 24.8125,8.0625 24.927734375,7.259765625 25.0,5.0 C 24.0,3.0 22.050537109375,2.77294921875 20.837387084960938,2.773406982421875 C 19.52734375,2.8046875 18.186416625976562,2.813262939453125 13.9375,2.875 Z" fill="rgb(0,0,0)" stroke="none" stroke-width="0.0" /><path d="M 0.0,0.0 C 8.740234375,-0.09765625 14.092529296875,-0.15087890625 18.410818099975586,-0.18975448608398438 C 20.05291175842285,-0.21146011352539062 26.011993408203125,0.37725830078125 28.0,2.0 C 28.328125,4.3125 28.3125,5.6328125 28.25,7.0 C 28.234375,8.3671875 27.460205078125,13.09033203125 27.0,14.0 C 27.43359375,14.8671875 28.08642578125,16.9072265625 28.0625,20.125 C 28.048828125,21.25390625 28.0,24.0 24.0,24.0 C 23.87890625,20.0625 23.46661376953125,16.83251953125 23.0,16.0 C 19.841644287109375,15.07958984375 12.9375,15.0 10.060546875,14.96484375 C 3.0,15.0 3.0,24.0 0.0,24.0 C 0.0,0.0 3.0,3.0 3.0,12.0 C 10.04345703125,12.054931640625 12.43505859375,12.075439453125 15.890625,12.09765625 C 16.95489501953125,12.113296508789062 24.0,11.0 24.8046875,8.876953125 C 24.875,8.0625 25.015625,7.259765625 25.0,5.0 C 23.722991943359375,3.4067840576171875 22.045318603515625,2.8269805908203125 18.4296875,2.8046875 C 17.093048095703125,2.813262939453125 12.875,2.875 10.01171875,2.90234375 Z" fill="rgb(0,0,0)" stroke="none" stroke-width="0.0" /><path d="M 0.0,0.0 C 25.0,0.0 25.0,3.0 4.0,3.0 C 4.0,10.0 24.0,10.0 24.0,13.0 C 4.0,13.0 4.0,21.0 25.0,21.0 C 25.0,24.0 0.0,24.0 0.0,0.0 Z" fill="rgb(0,0,0)" stroke="none" stroke-width="0.0" /><path d="M 0.0,0.0 C 25.0,0.0 25.0,3.0 4.0,3.0 C 4.0,10.0 24.0,10.0 24.0,13.0 C 4.0,13.0 4.0,21.0 25.0,21.0 C 25.0,24.0 0.0,24.0 0.0,0.0 Z" fill="rgb(0,0,0)" stroke="none" stroke-width="0.0" /><path d="M 0.0,0.0 C 8.69140625,-0.146484375 14.01708984375,-0.226318359375 18.315940856933594,-0.28463172912597656 C 19.947181701660156,-0.31719017028808594 25.0,0.0 28.27996826171875,2.0874481201171875 C 29.36212158203125,3.9451446533203125 29.53125,7.125 29.5428466796875,8.30126953125 C 29.521484375,10.751953125 29.546875,14.484375 29.53125,16.875 C 29.5557861328125,17.99267578125 29.0,21.0 26.234130859375,23.457183837890625 C 20.73516845703125,24.339889526367188 19.140625,24.29296875 17.47625732421875,24.280105590820312 C 13.13629150390625,24.20599365234375 7.9072723388671875,24.138633728027344 0.0,24.0 C 0.0,0.0 3.0,3.0 3.0,21.0 C 11.43505859375,21.054931640625 14.30419921875,21.075439453125 18.4296875,21.09765625 C 19.724090576171875,21.113296508789062 20.93701171875,21.113525390625 22.000213623046875,21.120254516601562 C 24.090362548828125,20.573226928710938 25.0,20.0 26.1328125,14.87890625 C 26.125,12.5625 26.13671875,11.404296875 25.40966796875,4.812255859375 C 25.0,4.0 22.000213623046875,2.8797454833984375 20.93701171875,2.886474609375 C 19.724090576171875,2.8867034912109375 18.4296875,2.90234375 17.093048095703125,2.9066314697265625 C 12.875,2.9375 10.01171875,2.951171875 3.0,3.0 Z" fill="rgb(0,0,0)" stroke="none" stroke-width="0.0" /><path d="M 0.0,0.0 C 1.161895751953125,-0.01727294921875 3.58740234375,-0.037109375 7.25390625,-0.109375 C 15.601318359375,0.776611328125 18.9453125,3.203125 19.740234375,5.599609375 C 19.7578125,6.390625 19.833984375,7.216796875 19.9453125,9.203125 C 16.88671875,9.46484375 15.9453125,9.203125 15.4140625,6.17578125 C 14.9453125,5.203125 7.0546875,4.10546875 6.11376953125,4.1085205078125 C 2.6953125,4.140625 -5.0546875,4.203125 -5.0546875,22.203125 C 2.6953125,22.265625 5.1162109375,22.293212890625 7.0546875,22.30078125 C 8.03955078125,22.3162841796875 14.9453125,21.203125 15.4453125,19.140625 C 15.9453125,17.203125 19.10546875,17.0625 19.9453125,17.203125 C 19.7578125,20.015625 19.740234375,20.806640625 18.9453125,23.203125 C 14.809661865234375,25.940643310546875 6.15234375,26.59423828125 2.5390625,26.61328125 C -5.6953125,25.6142578125 -9.0546875,23.203125 -10.24493408203125,17.856964111328125 C -10.2578125,17.0234375 -10.27508544921875,16.130584716796875 -10.294921875,14.27001953125 C -10.3671875,11.47265625 -9.474609375,4.6787109375 -7.0546875,1.203125 Z" fill="rgb(0,0,0)" stroke="none" stroke-width="0.0" /><path d="M 0.0,0.0 C 28.0,0.0 28.0,3.0 16.0,3.0 C 16.0,24.0 12.0,24.0 12.0,3.0 Z" fill="rgb(0,0,0)" stroke="none" stroke-width="0.0" /><path d="M 0.0,0.0 C 4.0,1.0 4.625,4.0625 5.0,7.0 C 6.0,7.3671875 7.0,7.0 7.390625,3.220703125 C 8.0,1.0 12.0,0.0 12.0,12.0 C 8.0,11.0 5.8125,11.125 4.0,11.0 C 3.078125,8.65625 3.0,8.0 2.8515625,8.875 C 2.625,10.0 2.4140625,11.125 2.0,12.0 Z" fill="rgb(0,0,0)" stroke="none" stroke-width="0.0" /><path d="M 0.0,0.0 C 3.0,0.0 3.94921875,1.3125 4.330078125,2.1328125 C 4.6875,3.0 5.080078125,3.8671875 6.0,6.0 C 6.33203125,4.6875 6.8125,3.0 7.025390625,2.1328125 C 7.26953125,1.3125 7.475830078125,0.55078125 8.0,0.0 C 11.0,0.0 11.0,12.0 9.0,12.0 C 8.0,10.0 7.6875,11.0 7.0,12.0 C 4.69921875,12.203125 4.0,12.0 3.0,10.0 C 2.625,11.0 2.0,12.0 0.0,12.0 Z" fill="rgb(0,0,0)" stroke="none" stroke-width="0.0" /><path d="M 0.0,0.0 C 3.0,0.4375 4.9375,2.0 6.0,4.4375 C 5.0,11.4375 3.8125,12.9375 0.5390625,13.42578125 C -4.0,12.4375 -5.375,11.25 -6.3125,6.4375 C -5.53515625,2.3828125 -4.0546875,0.91015625 0.0,0.0 C -2.0,2.4375 -3.4375,4.6875 -3.84375,8.4765625 C -2.84765625,9.98828125 -0.74609375,10.60546875 1.9375,10.16015625 C 3.0,9.4375 3.6015625,5.6162109375 3.0,3.4375 Z" fill="rgb(0,0,0)" stroke="none" stroke-width="0.0" /><path d="M 0.0,0.0 C 3.875,-0.0625 5.08544921875,-0.090087890625 6.0546875,-0.09765625 C 7.03857421875,-0.113525390625 9.109375,0.349609375 10.0,1.0 C 10.1953125,3.50390625 10.17578125,4.998046875 10.125,6.5625 C 10.09765625,8.138671875 10.0,12.0 8.51171875,11.59765625 C 7.674560546875,11.371337890625 7.0,11.0 7.0,8.0 C 2.0,8.0 2.0,12.0 0.0,12.0 C 0.0,0.0 2.0,2.0 2.0,5.0 C 8.0,5.0 7.5546875,2.66796875 7.0,2.0 Z" fill="rgb(0,0,0)" stroke="none" stroke-width="0.0" /><path d="M 0.0,0.0 C 9.0,0.0 9.0,2.0 3.0,2.0 C 3.0,5.0 9.0,5.0 9.0,7.0 C 3.0,7.0 3.0,10.0 10.0,10.0 C 10.0,12.0 0.0,12.0 0.0,0.0 Z" fill="rgb(0,0,0)" stroke="none" stroke-width="0.0" /><path d="M 0.0,0.0 C 9.0,0.0 9.0,2.0 3.0,2.0 C 3.0,5.0 9.0,5.0 9.0,7.0 C 3.0,7.0 3.0,10.0 10.0,10.0 C 10.0,12.0 0.0,12.0 0.0,0.0 Z" fill="rgb(0,0,0)" stroke="none" stroke-width="0.0" /><path d="M 0.0,0.0 C 8.1328125,0.421875 9.5703125,1.875 10.30078125,8.37890625 C 10.0,10.0 9.23828125,11.20703125 7.086181640625,12.151611328125 C 3.875,12.125 0.0,12.0 0.0,0.0 C 2.0,2.0 2.0,10.0 7.0,9.0 C 8.0,7.125 8.0,5.0 5.984375,2.515625 Z" fill="rgb(0,0,0)" stroke="none" stroke-width="0.0" /><path d="M 0.0,0.0 C 1.5625,-0.0390625 2.37353515625,-0.04296875 4.5625,0.3359375 C 6.3359375,3.4609375 6.5625,4.3359375 3.5625,4.3359375 C 3.5625,2.3359375 -1.4375,3.3359375 -0.4375,9.3359375 C 6.5625,8.3359375 6.16796875,11.36328125 5.5625,12.3359375 C 1.1328125,13.4921875 -1.7578125,12.7421875 -4.18017578125,10.0673828125 C -4.445556640625,6.646484375 -3.4375,2.3359375 0.0,0.0 Z" fill="rgb(0,0,0)" stroke="none" stroke-width="0.0" /><path d="M 0.0,0.0 C 3.740966796875,0.468994140625 5.115966796875,2.468994140625 5.740966796875,4.468994140625 C -2.259033203125,3.468994140625 -1.259033203125,9.468994140625 5.740966796875,8.468994140625 C 4.740966796875,12.468994140625 1.080810546875,13.492431640625 -2.509033203125,12.968994140625 C -4.259033203125,11.468994140625 -5.341064453125,5.313232421875 -4.852783203125,3.121337890625 Z" fill="rgb(0,0,0)" stroke="none" stroke-width="0.0" /><path d="M 0.0,0.0 C 9.0,0.0 9.0,2.0 2.0,2.0 C 2.0,5.0 8.0,5.0 8.0,7.0 C 2.0,7.0 2.0,10.0 9.0,10.0 C 9.0,12.0 0.0,12.0 0.0,0.0 Z" fill="rgb(0,0,0)" stroke="none" stroke-width="0.0" /><path d="M 0.0,0.0 C 3.9375,-0.0625 5.175537109375,-0.090087890625 6.15234375,-0.09765625 C 7.152099609375,-0.113525390625 8.0,0.0 9.0,1.0 C 9.5,5.6484375 9.0,7.0 4.505615234375,7.665771484375 C 2.0,8.0 1.53515625,8.93359375 2.0,12.0 C 0.0,12.0 0.0,0.0 2.0,2.0 C 2.0,6.0 7.0,5.0 6.48828125,2.66796875 Z" fill="rgb(0,0,0)" stroke="none" stroke-width="0.0" /><path d="M 0.0,0.0 C 3.0,1.0 4.1875,4.0625 4.435546875,4.916015625 C 5.0,7.0 5.227783203125,6.357421875 6.3125,3.5 C 6.669921875,2.48828125 8.0,0.0 11.0,0.0 C 9.5625,4.875 9.154296875,6.26953125 8.75390625,7.6171875 C 8.388916015625,8.85498046875 7.0,12.0 3.966796875,11.5341796875 C 2.392578125,10.2080078125 1.25,7.125 0.87109375,6.05859375 Z" fill="rgb(0,0,0)" stroke="none" stroke-width="0.0" /><path d="M 0.0,0.0 C 10.0,0.0 10.0,2.0 6.0,2.0 C 6.0,12.0 4.0,12.0 4.0,2.0 Z" fill="rgb(0,0,0)" stroke="none" stroke-width="0.0" /><path d="M 0.0,0.0 C 10.0,0.0 10.0,2.0 6.0,2.0 C 6.0,12.0 4.0,12.0 4.0,2.0 Z" fill="rgb(0,0,0)" stroke="none" stroke-width="0.0" /><path d="M 0.0,0.0 C 2.0,0.0 2.0,10.0 8.0,10.0 C 8.0,12.0 0.0,12.0 0.0,0.0 Z" fill="rgb(0,0,0)" stroke="none" stroke-width="0.0" /><path d="M 0.0,0.0 C 6.0,0.0 6.0,2.0 0.0,2.0 Z" fill="rgb(0,0,0)" stroke="none" stroke-width="0.0" /><path d="M 0.0,0.0 C 2.0,0.0 2.0,2.0 0.0,2.0 Z" fill="rgb(0,0,0)" stroke="none" stroke-width="0.0" /><path d="M 0.0,0.0 C 2.0,0.0 2.0,2.0 0.0,2.0 Z" fill="rgb(0,0,0)" stroke="none" stroke-width="0.0" /></svg>