<?xml version="1.0" encoding="UTF-8"?>
<!-- Generator: visioncortex VTracer 0.6.4 -->
<svg version="1.1" xmlns="http://www.w3.org/2000/svg" width="506" height="265">
<path d="M0 0 C0.6599999999999966 0 1.3199999999999932 0 2 0 C2 52.800000000000004 2 105.60000000000001 2 160 C-7.240000000000009 160 -16.47999999999999 160 -26 160 C-26 113.8 -26 67.6 -26 20 C-13.293413947610333 9.603702320772086 -13.293413947610333 9.603702320772086 -7.291259765625 5.2828369140625 C-6.457322084050929 4.6813046088169585 -5.626296922469351 4.0757694830712605 -4.794921875 3.470703125 C-3.199224534819109 2.310169724740551 -1.6007342511168474 1.1535797450455179 0 0 Z " fill="#DD390D" transform="translate(246,0)"/>
<path d="M0 0 C0.660000000000025 0.33000000000000007 1.3199999999999932 0.6600000000000001 2 1 C2 36.64 2 72.28 2 109 C-7.240000000000009 109 -16.480000000000018 109 -26 109 C-26.02210009581995 97.54331032692599 -26.040543102886318 86.0866409736634 -26.05106532946229 74.62993603944778 C-26.05231583860575 73.27331018672399 -26.053610180145256 71.91668437912753 -26.054931640625 70.56005859375 C-26.0551939510554 70.29001113295556 -26.0554562614858 70.0199636721611 -26.055726520717144 69.74173295497894 C-26.060062190439737 65.38545829213633 -26.067938025615092 61.02919700417236 -26.07715279608965 56.6729302406311 C-26.086548085783193 52.193523288684084 -26.092067971447307 47.71412327751631 -26.09408849477768 43.23470687866211 C-26.095451597970964 40.477003630566536 -26.099735655280142 37.71933820426332 -26.107916466891766 34.96164661645889 C-26.11325664050662 33.063280340401256 -26.114788025773066 31.164933236109363 -26.113501377403736 29.26656001806259 C-26.112869178014876 28.17594961123855 -26.11374517957057 27.085404651451356 -26.119205474853516 25.99480628967285 C-26.145009306357963 20.582048695898774 -25.82036554334752 15.35452589219274 -25 10 C-24.654445934511102 9.853650405742357 -24.308888360246556 9.707309096230205 -23.963329315185547 9.5609712600708 C-23.674681321382536 9.438729195296766 -23.674681321382536 9.438729195296766 -23.380202054977417 9.314017593860626 C-15.649056272332984 6.042190222384557 -7.850926647289043 2.971808893995739 0 0 Z " fill="#DD380D" transform="translate(322,9)"/>
<path d="M0 0 C0.9900000000000091 0 1.9800000000000182 0 3 0 C3 33.66 3 67.32000000000001 3 102 C-6.240000000000009 102 -15.480000000000018 102 -25 102 C-25 73.28999999999999 -25 44.58 -25 15 C-16.75 10.049999999999997 -8.5 5.100000000000001 0 0 Z " fill="#DC390D" transform="translate(283,43)"/>
<path d="M0 0 C0.3299999999999841 0 0.6599999999999966 0 1 0 C1 31.349999999999994 1 62.7 1 95 C-7.909999999999997 95 -16.819999999999993 95 -26 95 C-26 68.6 -26 42.19999999999999 -26 15 C-16.758184092503882 9.223865057814933 -16.758184092503882 9.223865057814933 -13.31640625 7.32421875 C-12.926603510795076 7.107284321786288 -12.536870614100536 6.890224356270124 -12.147201538085938 6.6730499267578125 C-11.352546949447913 6.2307779610705865 -10.557107903531914 5.789967254796771 -9.760986328125 5.350341796875 C-8.741769192507917 4.787356597053744 -7.724811464385027 4.220412866599965 -6.708359718322754 3.6524534225463867 C-5.913976647018075 3.209130399013702 -5.118490620338008 2.767818980023584 -4.32264518737793 2.327127456665039 C-3.9463234255991324 2.118428610196432 -3.570346792094483 1.9091061034236532 -3.194734573364258 1.6991329193115234 C-2.6772395148590533 1.410230017730946 -2.1583199879854362 1.1240760230586204 -1.638916015625 0.838623046875 C-1.4106915283203136 0.7101448059082003 -1.4106915283203136 0.7101448059082003 -1.1778564453125 0.579071044921875 C-0.793616172455188 0.36986519327705025 -0.39724483036061997 0.18331453952066568 0 0 Z " fill="#DD390D" transform="translate(209,42)"/>
<path d="M0 0 C0.25129354476928256 -0.004241065979016412 0.25129354476928256 -0.004241065979016412 0.5076637268066406 -0.00856781005859375 C1.3952609490692112 -0.023435042357732527 2.282701127652217 -0.0327408420041877 3.17041015625 -0.037109375 C3.8922820406085066 -0.04148337429930393 4.61295054340485 -0.05533146052601978 5.33447265625 -0.078125 C10.101558301459306 -0.2259337070576919 10.101558301459306 -0.2259337070576919 12.3828125 0.203125 C14.257253786482863 0.8882524726903682 15.834188689594725 1.962354502962313 17.3828125 3.203125 C17.712812499999984 4.523124999999993 18.042812500000025 5.843124999999986 18.3828125 7.203125 C15.907812499999977 6.7081249999999955 15.907812499999977 6.7081249999999955 13.3828125 6.203125 C13.3828125 5.543125000000003 13.3828125 4.883125000000007 13.3828125 4.203125 C4.326175016362413 3.990792138303135 4.326175016362413 3.990792138303135 -4.6171875 5.203125 C-4.947187499999984 6.853125000000006 -5.277187500000025 8.503125000000011 -5.6171875 10.203125 C-4.8385534667968955 10.224998779296868 -4.8385534667968955 10.224998779296868 -4.044189453125 10.247314453125 C-2.307405640974366 10.298202190122083 -0.5714685659692691 10.364875717261867 1.1644773483276367 10.43883991241455 C2.2146317404183264 10.483118269877394 3.2644366261623077 10.522451121249532 4.315185546875 10.549560546875 C11.082308005954928 10.729237186617695 11.082308005954928 10.729237186617695 13.27642822265625 11.52874755859375 C14.82433310330822 12.273269245780966 15.988487434640945 13.143892312873902 17.3828125 14.203125 C17.712812499999984 16.18312499999999 18.042812500000025 18.163125000000008 18.3828125 20.203125 C17.722812499999975 21.523124999999993 17.062812500000007 22.843124999999986 16.3828125 24.203125 C14.430364140275856 25.160282301349156 12.64915514872581 26.01817596771957 10.48974609375 26.33355712890625 C8.475591318085321 26.51148460811376 6.464846215593013 26.53326122860824 4.4443359375 26.518798828125 C3.7360100447855302 26.514152731935724 3.0293952133484936 26.52113544711071 2.3212890625 26.539306640625 C0.004031836925378229 26.598341049606262 -2.334344195717847 26.657603030711726 -4.6171875 26.203125 C-6.484824268345221 25.50795212740573 -8.065004596139033 24.435823141497764 -9.6171875 23.203125 C-9.6171875 21.883125000000007 -9.6171875 20.563125000000014 -9.6171875 19.203125 C-8.297187500000007 19.203125 -6.977187500000014 19.203125 -5.6171875 19.203125 C-5.6171875 20.19312500000001 -5.6171875 21.18312499999999 -5.6171875 22.203125 C-3.8756915876436437 22.253457251802217 -2.1346401106324038 22.28926739364607 -0.392578125 22.31298828125 C0.19701530992426797 22.32290010146835 0.7865616262770345 22.336434169680928 1.3759765625 22.35400390625 C4.375215260168204 22.441012537411012 7.118186114260311 22.397558920832154 9.998748779296875 21.478729248046875 C11.139542034975477 21.08140890431963 12.26288879560542 20.656099156770637 13.3828125 20.203125 C13.3828125 18.553124999999994 13.3828125 16.90312499999999 13.3828125 15.203125 C12.79266357421875 15.183305664062487 12.2025146484375 15.163486328125003 11.594482421875 15.14306640625 C9.634361102574076 15.075854356080157 7.674749422199909 14.998223814984783 5.7152204513549805 14.915597915649414 C4.528281070808873 14.86586429663285 3.341420783733156 14.8195389498064 2.154052734375 14.78125 C1.0059598563729537 14.744097738243795 -0.14143085657923393 14.697670055209272 -1.2889156341552734 14.645061492919922 C-1.7245101108366043 14.626673335924124 -2.160254212934092 14.611508712608497 -2.596078872680664 14.599781036376953 C-3.2116596823867667 14.58263836902708 -3.825686928360824 14.553571771943439 -4.440673828125 14.52197265625 C-4.6169027709960915 14.519812469482417 -4.793131713867183 14.517652282714835 -4.974700927734375 14.515426635742188 C-5.4971466064453125 14.481597900390625 -5.4971466064453125 14.481597900390625 -6.6171875 14.203125 C-7.607187500000009 13.543125000000003 -8.597187500000018 12.883125000000007 -9.6171875 12.203125 C-9.6171875 9.563125000000014 -9.6171875 6.923124999999999 -9.6171875 4.203125 C-9.184062499999982 3.728749999999991 -8.75093750000002 3.2543750000000102 -8.3046875 2.765625 C-8.175378417968773 2.6181079101562545 -8.046069335937489 2.470590820312509 -7.912841796875 2.318603515625 C-7.504569174261917 1.8924923429048022 -7.096438911633982 1.5496434337461835 -6.6171875 1.203125 C-4.459668324076404 0.21339504452771507 -2.3452393302877113 0.03126294334211366 0 0 Z " fill="#000000" transform="translate(356.6171875,186.796875)"/>
<path d="M0 0 C8.25 0 16.5 0 25 0 C25.99000000000001 0.6599999999999966 26.980000000000018 1.3199999999999932 28 2 C28.51802589102067 3.9740986657815824 28.99197276051359 5.949613685467085 29 8 C28.643387582744822 10.090567219843422 27.84764090692272 12.064017218705288 27 14 C27.329999999999984 14.330000000000013 27.660000000000025 14.659999999999997 28 15 C28 17.97 28 20.939999999999998 28 24 C26.680000000000007 24 25.360000000000014 24 24 24 C23.670000000000016 21.360000000000014 23.339999999999975 18.72 23 16 C16.730000000000018 15.669999999999987 10.45999999999998 15.340000000000003 4 15 C4 17.97 4 20.939999999999998 4 24 C2.680000000000007 24 1.3600000000000136 24 0 24 C0 16.079999999999984 0 8.159999999999997 0 0 Z M4 3 C4 5.969999999999999 4 8.939999999999998 4 12 C6.015360096121697 12.021090977750106 8.03031014314007 12.041110489397681 10.045684814453125 12.051750183105469 C10.984607162569262 12.056985949609413 11.923436190951634 12.063957037620725 12.8623046875 12.075439453125 C13.770071877888995 12.086469413947441 14.67774978325275 12.092318219030375 15.585578918457031 12.094877243041992 C16.09286957490798 12.097568680251413 16.600125329953414 12.105347202972325 17.10736083984375 12.113296508789063 C19.577501207422642 12.113879492386417 21.634475873616452 11.66501602385685 24 11 C24.329999999999984 9.02000000000001 24.660000000000025 7.039999999999992 25 5 C24.670000000000016 4.340000000000003 24.339999999999975 3.680000000000007 24 3 C17.399999999999977 3 10.800000000000011 3 4 3 Z " fill="#000000" transform="translate(264,188)"/>
<path d="M0 0 C8.25 0 16.5 0 25 0 C25.989999999999995 0.6599999999999966 26.980000000000004 1.3199999999999932 28 2 C28.024845390263337 3.3875194870138046 28.042927400898463 4.774907543861815 28.054931640625 6.16259765625 C28.059939416896555 6.6339747904560795 28.066747681841406 7.105336558721206 28.075439453125 7.57666015625 C28.087663180925887 8.256874656228888 28.093263454711177 8.936882640998789 28.09765625 9.6171875 C28.10281753540039 9.825602722167957 28.10797882080078 10.034017944335943 28.113296508789063 10.248748779296875 C28.113523091074356 10.848889725606199 28.093504219941607 11.4069233874786 28 12 C27.72197733204699 12.718869738806774 27.388835179215107 13.329965677338663 27 14 C27.245566406249992 14.367382812500011 27.245566406249992 14.367382812500011 27.49609375 14.7421875 C27.77294921875 15.2958984375 27.77294921875 15.2958984375 28 16 C28.12422023406505 17.37744803927751 28.09463756871763 18.743690914362844 28.0625 20.125 C28.057476235792393 20.501296144840097 28.0529148700886 20.877598762241746 28.048828125 21.25390625 C28.038743796439505 22.169563283292604 28.01916560947342 23.084309769603124 28 24 C26.680000000000007 24 25.36 24 24 24 C23.67 21.360000000000014 23.340000000000003 18.72 23 16 C16.400000000000006 15.669999999999987 9.799999999999997 15.340000000000003 3 15 C3 17.97 3 20.939999999999998 3 24 C2.010000000000005 24 1.019999999999996 24 0 24 C0 16.079999999999984 0 8.159999999999997 0 0 Z M3 3 C3 5.969999999999999 3 8.939999999999998 3 12 C5.923818695351429 12.02917666738324 5.923818695351429 12.02917666738324 8.84765625 12.048828125 C10.043503235723307 12.05476258035685 11.239272318363135 12.061714680447096 12.43505859375 12.075439453125 C13.401179929676985 12.086456427933086 14.367217516161844 12.092315644164813 15.333396911621094 12.094877243041992 C15.698527683086382 12.096698222593545 16.063654862831584 12.10025232350236 16.428749084472656 12.105730056762695 C19.137002364625005 12.14467717609611 21.39586128531552 11.737839302493938 24 11 C24.33 9.02000000000001 24.659999999999997 7.039999999999992 25 5 C24.340000000000003 4.340000000000003 23.680000000000007 3.680000000000007 23 3 C16.400000000000006 3 9.799999999999997 3 3 3 Z " fill="#000000" transform="translate(90,188)"/>
<path d="M0 0 C8.25 0 16.5 0 25 0 C25 0.9900000000000091 25 1.9799999999999898 25 3 C18.069999999999993 3 11.139999999999986 3 4 3 C4 5.310000000000002 4 7.6200000000000045 4 10 C10.600000000000023 10 17.19999999999999 10 24 10 C24 10.990000000000009 24 11.97999999999999 24 13 C17.399999999999977 13 10.800000000000011 13 4 13 C4 15.639999999999986 4 18.28 4 21 C10.930000000000007 21 17.860000000000014 21 25 21 C25 21.99000000000001 25 22.97999999999999 25 24 C16.75 24 8.5 24 0 24 C0 16.079999999999984 0 8.159999999999997 0 0 Z " fill="#000000" transform="translate(308,188)"/>
<path d="M0 0 C8.25 0 16.5 0 25 0 C25 0.9900000000000091 25 1.9799999999999898 25 3 C18.069999999999993 3 11.139999999999986 3 4 3 C4 5.310000000000002 4 7.6200000000000045 4 10 C10.599999999999994 10 17.19999999999999 10 24 10 C24 10.990000000000009 24 11.97999999999999 24 13 C17.400000000000006 13 10.800000000000011 13 4 13 C4 15.639999999999986 4 18.28 4 21 C10.930000000000007 21 17.860000000000014 21 25 21 C25 21.99000000000001 25 22.97999999999999 25 24 C16.75 24 8.5 24 0 24 C0 16.079999999999984 0 8.159999999999997 0 0 Z " fill="#000000" transform="translate(134,188)"/>
<path d="M0 0 C8.25 0 16.5 0 25 0 C26.319999999999993 0.9900000000000091 27.639999999999986 1.9799999999999898 29 3 C29 8.939999999999998 29 14.879999999999995 29 21 C27.680000000000007 21.99000000000001 26.360000000000014 22.97999999999999 25 24 C16.75 24 8.5 24 0 24 C0 16.079999999999984 0 8.159999999999997 0 0 Z M3 3 C3 8.939999999999998 3 14.879999999999995 3 21 C6.505851368552669 21.029107497541673 6.505851368552669 21.029107497541673 10.01171875 21.048828125 C11.442583505993099 21.054795644671856 12.873383996261992 21.06183947969666 14.30419921875 21.075439453125 C15.458341749531485 21.086340428644093 16.61241531934641 21.0922919524877 17.766605377197266 21.094877243041992 C18.205955096534126 21.096718577448456 18.645301232339392 21.10031426408665 19.08462142944336 21.105730056762695 C19.70216648449258 21.113037094259425 20.31943008204027 21.113987008942047 20.93701171875 21.113525390625 C21.206748046874992 21.118918304443355 21.206748046874992 21.118918304443355 21.48193359375 21.124420166015625 C22.006241120787195 21.120206070894596 22.483866610806842 21.094461617891056 23 21 C23.69958487478499 20.71863665064558 24.350543114322676 20.382155947819882 25 20 C25.55977583563262 18.6936438642241 25.99788801313329 17.397037611407995 26.0986328125 15.97314453125 C26.138790792242332 15.031349364428024 26.140611172910752 14.090674491363643 26.13037109375 13.148193359375 C26.12503783348572 12.566625569647954 26.130330860873045 11.985840473596085 26.13671875 11.404296875 C26.140842143618016 8.805321877562648 25.745944964779937 6.486766414477131 25 4 C24.350543114322676 3.617844052180118 23.69958487478499 3.2813633493544216 23 3 C22.307320600182152 2.8732273126354357 21.639675842944257 2.872426049096248 20.93701171875 2.886474609375 C20.6439665222168 2.886255569458001 20.6439665222168 2.886255569458001 20.345001220703125 2.8860321044921875 C19.70644587213397 2.8867225703168344 19.068191162022174 2.8944724900870824 18.4296875 2.90234375 C17.984142652472144 2.9042110484669763 17.53859573847342 2.9056334797469106 17.093048095703125 2.9066314697265625 C15.925783654607017 2.9104322195932752 14.758645526768817 2.9202410109792822 13.5914306640625 2.93133544921875 C12.188070778951811 2.943410704662284 10.784668434423878 2.9479634893263267 9.381271362304688 2.9537887573242188 C7.254093314528546 2.963454718368638 5.127191898989139 2.982627289391189 3 3 Z " fill="#000000" transform="translate(174,188)"/>
<path d="M0 0 C0.2843912315368584 -0.004241065979016412 0.2843912315368584 -0.004241065979016412 0.5745277404785156 -0.00856781005859375 C1.578832734798766 -0.02345220036247042 2.5829982530729296 -0.03274767748666818 3.58740234375 -0.037109375 C4.4062173115299 -0.04148633087606868 5.223973334553733 -0.055347724393726594 6.04248046875 -0.078125 C11.79765853527283 -0.23536536422054155 11.79765853527283 -0.23536536422054155 13.9453125 0.203125 C15.914836515456699 0.8880112685982624 17.27922014869671 1.9215154989974508 18.9453125 3.203125 C19.275312499999984 5.18312499999999 19.605312499999997 7.163125000000008 19.9453125 9.203125 C18.625312500000007 9.203125 17.305312500000014 9.203125 15.9453125 9.203125 C15.615312500000016 7.883125000000007 15.285312500000003 6.563125000000014 14.9453125 5.203125 C12.228107240092129 4.439241420123182 9.89361176979233 4.060780675847354 7.0546875 4.10546875 C6.744184570312484 4.106475830078125 6.433681640624997 4.10748291015625 6.11376953125 4.1085205078125 C4.974245283507315 4.113679880936161 3.834774443312625 4.127640006091724 2.6953125 4.140625 C0.13781249999999545 4.1612499999999955 -2.419687500000009 4.181874999999991 -5.0546875 4.203125 C-5.0546875 10.143124999999998 -5.0546875 16.083124999999995 -5.0546875 22.203125 C-2.4971874999999955 22.223749999999995 0.060312500000009095 22.24437499999999 2.6953125 22.265625 C3.494208984375007 22.27472900390626 4.293105468750014 22.28383300781249 5.1162109375 22.293212890625 C5.762368093514738 22.296138467567317 6.408527119661983 22.29868550408557 7.0546875 22.30078125 C7.379692382812493 22.305897216796865 7.704697265624986 22.311013183593758 8.03955078125 22.3162841796875 C10.514933204609349 22.317206453317652 12.57480316530291 21.869542507516996 14.9453125 21.203125 C15.275312499999984 19.883125000000007 15.605312499999997 18.563125000000014 15.9453125 17.203125 C17.265312499999993 17.203125 18.585312499999986 17.203125 19.9453125 17.203125 C19.615312500000016 19.18312499999999 19.285312500000003 21.163125000000008 18.9453125 23.203125 C17.28079974004862 24.47164480496295 15.900299657912456 25.50386623775836 13.9453125 26.203125 C11.377955833903286 26.690048553973043 8.755987143511021 26.639097348475417 6.15234375 26.59423828125 C5.146462148862213 26.577134221635504 4.142960924411824 26.587265916000433 3.1371612548828125 26.604595184326172 C0.7306355558924622 26.639544663984054 -1.683197311738752 26.65290061782872 -4.0546875 26.203125 C-5.800570366442514 25.57865854902286 -7.302380672275888 24.636058595277035 -8.738525390625 23.472564697265625 C-8.842858886718744 23.38364959716796 -8.947192382812489 23.294734497070323 -9.0546875 23.203125 C-9.75072740439478 21.412232595283058 -10.174939878737177 19.779750364711873 -10.24493408203125 17.856964111328125 C-10.24918395996093 17.581900329589843 -10.253433837890611 17.30683654785156 -10.2578125 17.0234375 C-10.263512573242195 16.728796081542953 -10.269212646484362 16.434154663085934 -10.27508544921875 16.130584716796875 C-10.284470834113193 15.510432090026626 -10.291043533056126 14.890231047108443 -10.294921875 14.27001953125 C-10.30459915019452 13.336646338738973 -10.335648826496453 12.405511077222513 -10.3671875 11.47265625 C-10.397651312934045 9.697607801018279 -10.415544712249755 7.948300688140591 -10.0546875 6.203125 C-9.346089979121388 4.363529291507774 -8.267000633131062 2.748163156514579 -7.0546875 1.203125 C-4.710160721200992 0.23734654790041532 -2.5038297498619215 0.0256282270352699 0 0 Z " fill="#000000" transform="translate(228.0546875,186.796875)"/>
<path d="M0 0 C9.240000000000009 0 18.480000000000018 0 28 0 C28 0.9900000000000091 28 1.9799999999999898 28 3 C24.04000000000002 3 20.079999999999984 3 16 3 C16 9.930000000000007 16 16.860000000000014 16 24 C14.680000000000007 24 13.360000000000014 24 12 24 C12 17.069999999999993 12 10.139999999999986 12 3 C8.04000000000002 3 4.079999999999984 3 0 3 C0 2.009999999999991 0 1.0200000000000102 0 0 Z " fill="#000000" transform="translate(389,188)"/>
<path d="M0 0 C1.3199999999999932 0.3300000000000125 2.6399999999999864 0.6599999999999966 4 1 C4.3300000000000125 2.9799999999999898 4.659999999999997 4.960000000000008 5 7 C5.659999999999997 7 6.319999999999993 7 7 7 C7.3300000000000125 5.02000000000001 7.659999999999997 3.039999999999992 8 1 C9.319999999999993 0.6699999999999875 10.639999999999986 0.3400000000000034 12 0 C12 3.960000000000008 12 7.9199999999999875 12 12 C10.680000000000007 11.669999999999987 9.360000000000014 11.340000000000003 8 11 C6.7821241388990074 10.882163015860442 6.7821241388990074 10.882163015860442 5.75 10.9375 C5.5772656249999955 10.942011718749995 5.404531249999991 10.946523437499991 5.2265625 10.951171875 C4.817542266373209 10.962533548156301 4.4087099394889435 10.980434098641496 4 11 C3.6699999999999875 10.009999999999991 3.3400000000000034 9.02000000000001 3 8 C2.6699999999999875 9.319999999999993 2.3400000000000034 10.639999999999986 2 12 C1.3400000000000034 12 0.6800000000000068 12 0 12 C0 8.039999999999992 0 4.0800000000000125 0 0 Z " fill="#000000" transform="translate(181,234)"/>
<path d="M0 0 C0.9900000000000091 0 1.9799999999999898 0 3 0 C3.990000000000009 1.9799999999999898 4.97999999999999 3.960000000000008 6 6 C6.659999999999997 4.02000000000001 7.319999999999993 2.039999999999992 8 0 C8.990000000000009 0 9.97999999999999 0 11 0 C11 3.960000000000008 11 7.9199999999999875 11 12 C10.340000000000003 12 9.680000000000007 12 9 12 C8.669999999999987 11.340000000000003 8.340000000000003 10.680000000000007 8 10 C7.6699999999999875 10.659999999999997 7.340000000000003 11.319999999999993 7 12 C6.009999999999991 12 5.02000000000001 12 4 12 C3.6699999999999875 11.340000000000003 3.3400000000000034 10.680000000000007 3 10 C2.6699999999999875 10.659999999999997 2.3400000000000034 11.319999999999993 2 12 C1.3400000000000034 12 0.6800000000000068 12 0 12 C0 8.039999999999992 0 4.0800000000000125 0 0 Z " fill="#000000" transform="translate(198,234)"/>
<path d="M0 0 C1.9799999999999898 0 3.960000000000008 0 6 0 C6.990000000000009 1.3199999999999932 7.97999999999999 2.6399999999999864 9 4 C8.669999999999987 6.310000000000002 8.340000000000003 8.620000000000005 8 11 C7.009999999999991 11.659999999999997 6.02000000000001 12.319999999999993 5 13 C2.030000000000001 12.504999999999995 2.030000000000001 12.504999999999995 -1 12 C-1.6599999999999966 11.009999999999991 -2.319999999999993 10.02000000000001 -3 9 C-3 7.02000000000001 -3 5.039999999999992 -3 3 C-2.009999999999991 2.009999999999991 -1.0200000000000102 1.0200000000000102 0 0 Z M1 2 C0.3400000000000034 3.6500000000000057 -0.3199999999999932 5.300000000000011 -1 7 C-0.009999999999990905 8.485000000000014 -0.009999999999990905 8.485000000000014 1 10 C2.6500000000000057 9.669999999999987 4.300000000000011 9.340000000000003 6 9 C6 7.02000000000001 6 5.039999999999992 6 3 C4.349999999999994 2.6699999999999875 2.6999999999999886 2.3400000000000034 1 2 Z " fill="#000000" transform="translate(168,234)"/>
<path d="M0 0 C1.9181250000000034 -0.03093749999999318 1.9181250000000034 -0.03093749999999318 3.875 -0.0625 C4.274448242187503 -0.0716040039062591 4.673896484375007 -0.08070800781248977 5.08544921875 -0.090087890625 C5.405297851562494 -0.09258544921874545 5.725146484374989 -0.0950830078124909 6.0546875 -0.09765625 C6.379370117187506 -0.10289306640623863 6.704052734375011 -0.10812988281250568 7.03857421875 -0.113525390625 C8 0 8 0 10 1 C10 4.6299999999999955 10 8.259999999999991 10 12 C9.009999999999991 11.669999999999987 8.02000000000001 11.340000000000003 7 11 C7 10.009999999999991 7 9.02000000000001 7 8 C5.349999999999994 8 3.6999999999999886 8 2 8 C2 9.319999999999993 2 10.639999999999986 2 12 C1.3400000000000034 12 0.6800000000000068 12 0 12 C0 8.039999999999992 0 4.0800000000000125 0 0 Z M2 2 C2 2.990000000000009 2 3.9799999999999898 2 5 C3.9799999999999898 5 5.960000000000008 5 8 5 C7.6699999999999875 4.009999999999991 7.340000000000003 3.0200000000000102 7 2 C5.349999999999994 2 3.6999999999999886 2 2 2 Z " fill="#000000" transform="translate(228,234)"/>
<path d="M0 0 C2.969999999999999 0 5.939999999999998 0 9 0 C9 0.6599999999999966 9 1.3199999999999932 9 2 C7.02000000000001 2 5.039999999999992 2 3 2 C3 2.990000000000009 3 3.9799999999999898 3 5 C4.97999999999999 5 6.960000000000008 5 9 5 C9 5.659999999999997 9 6.319999999999993 9 7 C7.02000000000001 7 5.039999999999992 7 3 7 C3 7.990000000000009 3 8.97999999999999 3 10 C5.310000000000002 10 7.6200000000000045 10 10 10 C10 10.659999999999997 10 11.319999999999993 10 12 C6.699999999999989 12 3.4000000000000057 12 0 12 C0 8.039999999999992 0 4.0800000000000125 0 0 Z " fill="#000000" transform="translate(214,234)"/>
<path d="M0 0 C2.969999999999999 0 5.939999999999998 0 9 0 C9 0.6599999999999966 9 1.3199999999999932 9 2 C7.02000000000001 2 5.039999999999992 2 3 2 C3 2.990000000000009 3 3.9799999999999898 3 5 C4.97999999999999 5 6.960000000000008 5 9 5 C9 5.659999999999997 9 6.319999999999993 9 7 C7.02000000000001 7 5.039999999999992 7 3 7 C3 7.990000000000009 3 8.97999999999999 3 10 C5.310000000000002 10 7.6200000000000045 10 10 10 C10 10.659999999999997 10 11.319999999999993 10 12 C6.699999999999989 12 3.4000000000000057 12 0 12 C0 8.039999999999992 0 4.0800000000000125 0 0 Z " fill="#000000" transform="translate(128,234)"/>
<path d="M0 0 C2.3100000000000023 0 4.6200000000000045 0 7 0 C7.990000000000009 0.9900000000000091 8.980000000000018 1.9799999999999898 10 3 C10 5.310000000000002 10 7.6200000000000045 10 10 C9.339999999999975 10.659999999999997 8.680000000000007 11.319999999999993 8 12 C5.360000000000014 12 2.7200000000000273 12 0 12 C0 8.039999999999992 0 4.0800000000000125 0 0 Z M2 2 C2 4.639999999999986 2 7.280000000000001 2 10 C3.6499999999999773 9.669999999999987 5.300000000000011 9.340000000000003 7 9 C7.329999999999984 7.680000000000007 7.660000000000025 6.360000000000014 8 5 C7.009999999999991 4.009999999999991 6.019999999999982 3.0200000000000102 5 2 C4.009999999999991 2 3.019999999999982 2 2 2 Z " fill="#000000" transform="translate(360,234)"/>
<path d="M0 0 C1.9799999999999898 0 3.960000000000008 0 6 0 C6.659999999999997 1.3199999999999932 7.319999999999993 2.6399999999999864 8 4 C7.009999999999991 4 6.02000000000001 4 5 4 C5 3.3400000000000034 5 2.680000000000007 5 2 C3.3499999999999943 2.3300000000000125 1.6999999999999886 2.6599999999999966 0 3 C0.3300000000000125 4.97999999999999 0.6599999999999966 6.960000000000008 1 9 C4.465000000000003 8.504999999999995 4.465000000000003 8.504999999999995 8 8 C7.6699999999999875 9.319999999999993 7.340000000000003 10.639999999999986 7 12 C5.02000000000001 12.330000000000013 3.039999999999992 12.659999999999997 1 13 C-0.3199999999999932 11.680000000000007 -1.6399999999999864 10.360000000000014 -3 9 C-2.6699999999999875 6.689999999999998 -2.3400000000000034 4.3799999999999955 -2 2 C-1.3400000000000034 1.3400000000000034 -0.6800000000000068 0.6800000000000068 0 0 Z " fill="#000000" transform="translate(153,234)"/>
<path d="M0 0 C1.9799999999999898 0 3.960000000000008 0 6 0 C6.659999999999997 1.3199999999999932 7.319999999999993 2.6399999999999864 8 4 C5.360000000000014 3.6699999999999875 2.719999999999999 3.3400000000000034 0 3 C0.3300000000000125 4.97999999999999 0.6599999999999966 6.960000000000008 1 9 C4.465000000000003 8.504999999999995 4.465000000000003 8.504999999999995 8 8 C7.6699999999999875 9.319999999999993 7.340000000000003 10.639999999999986 7 12 C5.349999999999994 12.330000000000013 3.6999999999999886 12.659999999999997 2 13 C0.6800000000000068 12.340000000000003 -0.6399999999999864 11.680000000000007 -2 11 C-2.3300000000000125 8.689999999999998 -2.6599999999999966 6.3799999999999955 -3 4 C-2.009999999999991 2.680000000000007 -1.0200000000000102 1.3600000000000136 0 0 Z " fill="#000000" transform="translate(245,234)"/>
<path d="M0 0 C2.9700000000000273 0 5.939999999999998 0 9 0 C9 0.6599999999999966 9 1.3199999999999932 9 2 C6.689999999999998 2 4.3799999999999955 2 2 2 C2 2.990000000000009 2 3.9799999999999898 2 5 C3.980000000000018 5 5.9599999999999795 5 8 5 C8 5.659999999999997 8 6.319999999999993 8 7 C6.019999999999982 7 4.0400000000000205 7 2 7 C2 7.990000000000009 2 8.97999999999999 2 10 C4.310000000000002 10 6.6200000000000045 10 9 10 C9 10.659999999999997 9 11.319999999999993 9 12 C6.029999999999973 12 3.0600000000000023 12 0 12 C0 8.039999999999992 0 4.0800000000000125 0 0 Z " fill="#000000" transform="translate(258,234)"/>
<path d="M0 0 C2.6399999999999864 0 5.279999999999973 0 8 0 C8.329999999999984 0.3300000000000125 8.660000000000025 0.6599999999999966 9 1 C9 2.9799999999999898 9 4.960000000000008 9 7 C6.689999999999998 7.3300000000000125 4.3799999999999955 7.659999999999997 2 8 C2 9.319999999999993 2 10.639999999999986 2 12 C1.339999999999975 12 0.6800000000000068 12 0 12 C0 8.039999999999992 0 4.0800000000000125 0 0 Z M2 2 C2 3.319999999999993 2 4.639999999999986 2 6 C3.6499999999999773 5.6699999999999875 5.300000000000011 5.340000000000003 7 5 C6.670000000000016 4.009999999999991 6.339999999999975 3.0200000000000102 6 2 C4.680000000000007 2 3.3600000000000136 2 2 2 Z " fill="#000000" transform="translate(279,234)"/>
<path d="M0 0 C0.9900000000000091 0.3300000000000125 1.9800000000000182 0.6599999999999966 3 1 C3.660000000000025 2.9799999999999898 4.319999999999993 4.960000000000008 5 7 C5.990000000000009 4.689999999999998 6.980000000000018 2.3799999999999955 8 0 C8.990000000000009 0 9.980000000000018 0 11 0 C10.59346789934267 1.3882516701657153 10.184452174919613 2.7757388733748485 9.773193359375 4.16259765625 C9.63384880598727 4.633753399917879 9.495165764579951 5.1051053419704715 9.357177734375 5.57666015625 C9.157857077859944 6.257372578860981 8.95610864130748 6.937326288154281 8.75390625 7.6171875 C8.693446197509786 7.825602722167957 8.632986145019515 8.034017944335943 8.570693969726563 8.248748779296875 C8.170490016989675 9.583433832787733 7.654853146995322 10.769370312439008 7 12 C5.680000000000007 11.669999999999987 4.360000000000014 11.340000000000003 3 11 C2.567881360681554 9.917131266946 2.13933877540984 8.833892450803035 1.71826171875 7.746826171875 C1.5745710979393266 7.378598865077123 1.4291061013411195 7.011058249982028 1.28173828125 6.644287109375 C0.060311200651540275 3.599028435638047 0.060311200651540275 3.599028435638047 -0.09375 2.06884765625 C-0.09375 1.3785240857998815 -0.05211509739882558 0.6883535781428805 0 0 Z " fill="#000000" transform="translate(292,234)"/>
<path d="M0 0 C3.3000000000000114 0 6.600000000000023 0 10 0 C10 0.6599999999999966 10 1.3199999999999932 10 2 C8.680000000000007 2 7.360000000000014 2 6 2 C6 5.300000000000011 6 8.599999999999994 6 12 C5.339999999999975 12 4.680000000000007 12 4 12 C4 8.699999999999989 4 5.400000000000006 4 2 C2.680000000000007 2 1.3600000000000136 2 0 2 C0 1.3400000000000034 0 0.6800000000000068 0 0 Z " fill="#000000" transform="translate(346,234)"/>
<path d="M0 0 C3.3000000000000114 0 6.600000000000023 0 10 0 C10 0.6599999999999966 10 1.3199999999999932 10 2 C8.680000000000007 2 7.360000000000014 2 6 2 C6 5.300000000000011 6 8.599999999999994 6 12 C5.339999999999975 12 4.680000000000007 12 4 12 C4 8.699999999999989 4 5.400000000000006 4 2 C2.680000000000007 2 1.3600000000000136 2 0 2 C0 1.3400000000000034 0 0.6800000000000068 0 0 Z " fill="#000000" transform="translate(306,234)"/>
<path d="M0 0 C0.660000000000025 0 1.3199999999999932 0 2 0 C2 3.3000000000000114 2 6.599999999999994 2 10 C3.980000000000018 10 5.9599999999999795 10 8 10 C8 10.659999999999997 8 11.319999999999993 8 12 C5.360000000000014 12 2.7200000000000273 12 0 12 C0 8.039999999999992 0 4.0800000000000125 0 0 Z " fill="#000000" transform="translate(335,234)"/>
<path d="M0 0 C1.9799999999999898 0 3.960000000000008 0 6 0 C6 0.6599999999999966 6 1.3199999999999932 6 2 C4.02000000000001 2 2.039999999999992 2 0 2 C0 1.3400000000000034 0 0.6800000000000068 0 0 Z " fill="#000000" transform="translate(141,241)"/>
<path d="M0 0 C0.660000000000025 0 1.3199999999999932 0 2 0 C2 0.6599999999999966 2 1.3199999999999932 2 2 C1.339999999999975 2 0.6800000000000068 2 0 2 C0 1.3400000000000034 0 0.6800000000000068 0 0 Z " fill="#000000" transform="translate(375,244)"/>
<path d="M0 0 C0.660000000000025 0 1.3199999999999932 0 2 0 C2 0.6599999999999966 2 1.3199999999999932 2 2 C1.339999999999975 2 0.6800000000000068 2 0 2 C0 1.3400000000000034 0 0.6800000000000068 0 0 Z " fill="#000000" transform="translate(320,244)"/>
</svg>
