<?xml version="1.0" encoding="utf-8" ?>
<svg baseProfile="full" height="265" version="1.1" width="506" xmlns="http://www.w3.org/2000/svg" xmlns:ev="http://www.w3.org/2001/xml-events" xmlns:xlink="http://www.w3.org/1999/xlink"><defs /><path d="M 0.0,0.0 C 0.0,160.0 -28.0,160.0 -28.569933891296387,105.70510959625244 C -28.829833984375,80.493408203125 -29.034973442554474,58.511410176754 -29.16303062438965,46.87899971008301 C -29.244184494018555,35.91417121887207 -29.368621826171875,30.004364013671875 -25.617822647094727,17.259183883666992 C -17.0,11.0 -12.71484375,7.71484375 -8.9375,4.9375 Z" fill="rgb(221,57,13)" stroke="none" stroke-width="0.0" /><path d="M 0.0,0.0 C 0.0,108.0 -28.0,108.0 -28.051812171936035,72.81971740722656 C -28.075439453125,56.48291015625 -28.094877243041992,40.70758056640625 -28.105730056762695,34.69866943359375 C -28.113525390625,26.26171875 -28.124420166015625,23.770339965820312 -27.0,9.0 C -7.875,1.125 -4.6171875,-0.1796875 0.0,0.0 Z" fill="rgb(221,56,13)" stroke="none" stroke-width="0.0" /><path d="M 0.0,0.0 C 0.0,102.0 -28.0,102.0 -29.29530429840088,68.74700832366943 C -29.885986328125,53.302001953125 -25.51385498046875,11.61016845703125 0.0,0.0 Z" fill="rgb(220,57,13)" stroke="none" stroke-width="0.0" /><path d="M 0.0,0.0 C 0.0,95.0 -27.0,95.0 -27.41449737548828,63.966946601867676 C -27.603515625,49.556884765625 -27.759017944335938,35.64894676208496 -27.845840454101562,30.344324111938477 C -25.330429077148438,12.873458862304688 -19.0,10.0 -16.455322265625,8.514404296875 C -14.31640625,7.32421875 -11.947265625,6.005859375 -9.5625,4.6875 C -7.095703125,3.310546875 -4.75390625,2.01171875 -2.638916015625,0.838623046875 Z" fill="rgb(221,57,13)" stroke="none" stroke-width="0.0" /><path d="M 0.0,0.0 C 2.14453125,-0.0625 13.125,3.25 14.125,7.25 C 9.125,6.25 9.125,4.25 -8.875,5.25 C -9.875,10.25 -6.11328125,10.36328125 -1.1875,10.5625 C 1.287109375,10.630859375 13.125,14.25 13.5,22.5 C 7.125,26.25 -0.875,26.5625 -2.9921875,26.611328125 C -13.875,23.25 -13.875,19.25 -9.875,19.25 C -9.875,22.25 -3.75,22.375 -0.3046875,22.4453125 C 9.125,20.25 9.125,15.25 7.336669921875,15.18994140625 C -0.6875,14.875 -3.501953125,14.78125 -6.20703125,14.6640625 C -8.698486328125,14.56884765625 -13.875,12.25 -12.5625,2.3125 Z" fill="rgb(0,0,0)" stroke="none" stroke-width="0.0" /><path d="M 0.0,0.0 C 12.3125,-0.125 15.849609375,-0.17578125 19.23828125,-0.1953125 C 22.364501953125,-0.22705078125 28.0,2.0 27.0,14.0 C 28.0,15.0 28.0625,19.5625 28.03515625,22.06640625 C 28.0,24.0 24.0,24.0 23.0,16.0 C 4.0,15.0 4.0,24.0 0.0,24.0 C 0.0,0.0 4.0,3.0 4.0,12.0 C 11.75,12.0625 13.9609375,12.087890625 24.0,11.0 Z" fill="rgb(0,0,0)" stroke="none" stroke-width="0.0" /><path d="M 0.0,0.0 C 12.3125,-0.125 15.849609375,-0.17578125 19.23828125,-0.1953125 C 22.364501953125,-0.22705078125 28.0,2.0 28.25,7.0 C 28.203125,9.6875 27.0,14.0 28.0,16.0 C 28.0,24.0 24.0,24.0 23.0,16.0 C 3.0,15.0 3.0,24.0 0.0,24.0 C 0.0,0.0 3.0,3.0 3.0,12.0 C 11.25,12.0625 13.60546875,12.087890625 15.890625,12.09765625 C 17.9853515625,12.113525390625 24.0,11.0 25.0,5.0 C 20.93701171875,2.77294921875 18.4296875,2.8046875 15.71484375,2.82421875 C 12.875,2.875 10.01171875,2.90234375 3.0,3.0 Z" fill="rgb(0,0,0)" stroke="none" stroke-width="0.0" /><path d="M 0.0,0.0 C 25.0,0.0 25.0,3.0 4.0,3.0 C 4.0,10.0 24.0,10.0 24.0,13.0 C 4.0,13.0 4.0,21.0 25.0,21.0 C 25.0,24.0 0.0,24.0 0.0,0.0 Z" fill="rgb(0,0,0)" stroke="none" stroke-width="0.0" /><path d="M 0.0,0.0 C 25.0,0.0 25.0,3.0 4.0,3.0 C 4.0,10.0 24.0,10.0 24.0,13.0 C 4.0,13.0 4.0,21.0 25.0,21.0 C 25.0,24.0 0.0,24.0 0.0,0.0 Z" fill="rgb(0,0,0)" stroke="none" stroke-width="0.0" /><path d="M 0.0,0.0 C 12.25,-0.1875 15.76171875,-0.263671875 19.140625,-0.29296875 C 22.2509765625,-0.340576171875 29.0,3.0 29.53125,7.125 C 29.546875,9.515625 29.5,12.0 29.546875,14.484375 C 29.53125,16.875 29.517578125,19.0546875 27.3330078125,22.739501953125 C 19.140625,24.29296875 15.76171875,24.263671875 12.25,24.1875 C 8.69140625,24.146484375 0.0,24.0 0.0,0.0 C 3.0,3.0 3.0,21.0 12.875,21.0625 C 15.71484375,21.087890625 18.4296875,21.09765625 20.93701171875,21.113525390625 C 25.0,20.0 26.125,12.5625 26.1328125,10.25390625 C 25.0,4.0 18.4296875,2.90234375 15.71484375,2.912109375 C 12.875,2.9375 10.01171875,2.951171875 3.0,3.0 Z" fill="rgb(0,0,0)" stroke="none" stroke-width="0.0" /><path d="M 0.0,0.0 C 2.43359375,-0.0625 14.125,3.25 15.125,9.25 C 11.125,9.25 10.125,5.25 -2.125,4.1875 C -9.875,4.25 -9.875,22.25 -2.125,22.3125 C 0.2958984375,22.340087890625 10.125,21.25 11.125,17.25 C 15.125,17.25 14.125,23.25 0.125,26.625 C -2.28125,26.66015625 -13.875,23.25 -15.125,13.375 C -15.203125,9.6953125 -11.875,1.25 0.0,0.0 Z" fill="rgb(0,0,0)" stroke="none" stroke-width="0.0" /><path d="M 0.0,0.0 C 28.0,0.0 28.0,3.0 16.0,3.0 C 16.0,24.0 12.0,24.0 12.0,3.0 Z" fill="rgb(0,0,0)" stroke="none" stroke-width="0.0" /><path d="M 0.0,0.0 C 4.0,1.0 5.0,7.0 7.0,7.0 C 8.0,1.0 12.0,0.0 12.0,12.0 C 8.0,11.0 4.0,11.0 3.0,8.0 C 2.0,12.0 0.0,12.0 0.0,0.0 Z" fill="rgb(0,0,0)" stroke="none" stroke-width="0.0" /><path d="M 0.0,0.0 C 3.0,0.0 6.0,6.0 8.0,0.0 C 11.0,0.0 11.0,12.0 9.0,12.0 C 8.0,10.0 7.0,12.0 4.0,12.0 C 3.0,10.0 2.0,12.0 0.0,12.0 Z" fill="rgb(0,0,0)" stroke="none" stroke-width="0.0" /><path d="M 0.0,0.0 C 3.0,4.0 2.0,11.0 -4.0625,12.8125 C -9.0,9.0 -7.875,1.125 0.0,0.0 C -5.0,2.0 -7.0,7.0 -5.0,10.0 C 0.0,9.0 0.0,3.0 -5.0,2.0 Z" fill="rgb(0,0,0)" stroke="none" stroke-width="0.0" /><path d="M 0.0,0.0 C 10.0,1.0 10.0,12.0 7.0,11.0 C 7.0,8.0 2.0,8.0 2.0,12.0 C 0.0,12.0 0.0,0.0 2.0,2.0 C 2.0,5.0 8.0,5.0 7.0,2.0 Z" fill="rgb(0,0,0)" stroke="none" stroke-width="0.0" /><path d="M 0.0,0.0 C 9.0,0.0 9.0,2.0 3.0,2.0 C 3.0,5.0 9.0,5.0 9.0,7.0 C 3.0,7.0 3.0,10.0 10.0,10.0 C 10.0,12.0 0.0,12.0 0.0,0.0 Z" fill="rgb(0,0,0)" stroke="none" stroke-width="0.0" /><path d="M 0.0,0.0 C 9.0,0.0 9.0,2.0 3.0,2.0 C 3.0,5.0 9.0,5.0 9.0,7.0 C 3.0,7.0 3.0,10.0 10.0,10.0 C 10.0,12.0 0.0,12.0 0.0,0.0 Z" fill="rgb(0,0,0)" stroke="none" stroke-width="0.0" /><path d="M 0.0,0.0 C 8.9375,1.0625 10.0,10.0 6.0546875,12.1953125 C 0.0,12.0 0.0,0.0 2.0,2.0 C 2.0,10.0 7.0,9.0 8.0,5.0 Z" fill="rgb(0,0,0)" stroke="none" stroke-width="0.0" /><path d="M 0.0,0.0 C 2.875,0.125 4.875,4.125 1.875,4.125 C 1.875,2.125 -3.125,3.125 -2.125,9.125 C 4.875,8.125 3.875,12.125 -2.125,13.125 Z" fill="rgb(0,0,0)" stroke="none" stroke-width="0.0" /><path d="M 0.0,0.0 C 2.0,4.0 -6.0,3.0 -5.0,9.0 C 2.0,8.0 1.0,12.0 -6.25,12.5 C -8.9375,7.625 -7.9375,1.5625 0.0,0.0 Z" fill="rgb(0,0,0)" stroke="none" stroke-width="0.0" /><path d="M 0.0,0.0 C 9.0,0.0 9.0,2.0 2.0,2.0 C 2.0,5.0 8.0,5.0 8.0,7.0 C 2.0,7.0 2.0,10.0 9.0,10.0 C 9.0,12.0 0.0,12.0 0.0,0.0 Z" fill="rgb(0,0,0)" stroke="none" stroke-width="0.0" /><path d="M 0.0,0.0 C 8.0,0.0 9.0625,4.0625 9.0,7.0 C 2.0,8.0 2.0,12.0 0.0,12.0 C 0.0,0.0 2.0,2.0 2.0,6.0 C 7.0,5.0 6.0,2.0 2.0,2.0 Z" fill="rgb(0,0,0)" stroke="none" stroke-width="0.0" /><path d="M 0.0,0.0 C 3.0,1.0 5.0,7.0 8.0,0.0 C 11.0,0.0 9.5625,4.875 8.75390625,7.6171875 C 7.0,12.0 3.0,11.0 1.25,7.125 Z" fill="rgb(0,0,0)" stroke="none" stroke-width="0.0" /><path d="M 0.0,0.0 C 10.0,0.0 10.0,2.0 6.0,2.0 C 6.0,12.0 4.0,12.0 4.0,2.0 Z" fill="rgb(0,0,0)" stroke="none" stroke-width="0.0" /><path d="M 0.0,0.0 C 10.0,0.0 10.0,2.0 6.0,2.0 C 6.0,12.0 4.0,12.0 4.0,2.0 Z" fill="rgb(0,0,0)" stroke="none" stroke-width="0.0" /><path d="M 0.0,0.0 C 2.0,0.0 2.0,10.0 8.0,10.0 C 8.0,12.0 0.0,12.0 0.0,0.0 Z" fill="rgb(0,0,0)" stroke="none" stroke-width="0.0" /><path d="M 0.0,0.0 C 6.0,0.0 6.0,2.0 0.0,2.0 Z" fill="rgb(0,0,0)" stroke="none" stroke-width="0.0" /><path d="M 0.0,0.0 C 2.0,0.0 2.0,2.0 0.0,2.0 Z" fill="rgb(0,0,0)" stroke="none" stroke-width="0.0" /><path d="M 0.0,0.0 C 2.0,0.0 2.0,2.0 0.0,2.0 Z" fill="rgb(0,0,0)" stroke="none" stroke-width="0.0" /></svg>