<?xml version="1.0" encoding="UTF-8"?>
<!-- Generator: visioncortex VTracer 0.6.4 -->
<svg version="1.1" xmlns="http://www.w3.org/2000/svg" width="506" height="265">
<path d="M0 0 C0.6599999999999966 0 1.3199999999999932 0 2 0 C2 52.800000000000004 2 105.60000000000001 2 160 C-7.240000000000009 160 -16.47999999999999 160 -26 160 C-26 113.8 -26 67.6 -26 20 C-13.293413947610333 9.603702320772086 -13.293413947610333 9.603702320772086 -7.291259765625 5.2828369140625 C-6.457322084050929 4.6813046088169585 -5.626296922469351 4.0757694830712605 -4.794921875 3.470703125 C-3.1992259973729915 2.310170788440164 -1.600730126331996 1.1535767724919954 0 0 Z M76 9 C76.66000000000003 9.33 77.32 9.66 78 10 C78 45.64 78 81.28 78 118 C68.75999999999999 118 59.51999999999998 118 50 118 C49.977899904577384 106.54331053292191 49.95945486958294 95.08664076624086 49.94893467053771 83.62993603944778 C49.947687576042824 82.27331018387986 49.94639098870056 80.9166843776295 49.945068359375 79.56005859375 C49.94493760031651 79.42507398113608 49.94480684125796 79.29008936852216 49.94467211980373 79.15101431310177 C49.94042766285463 74.79326086439907 49.9329291660967 70.43552057281835 49.923702779226005 66.07777506113052 C49.913951073319595 61.4634207722633 49.90799289959148 56.849071845228025 49.90591150522232 52.23470687866211 C49.904548402029036 49.477003630566536 49.90026434471986 46.71933820426332 49.892083533108234 43.96164661645889 C49.88674335949338 42.063280340401256 49.885211974226934 40.16493323610936 49.886498622596264 38.26656001806259 C49.887130821985124 37.17594961123855 49.88625482042943 36.085404651451356 49.880794525146484 34.99480628967285 C49.85500512720904 29.585076362521196 50.18031304009264 24.35009677808644 51 19 C51.3455540654889 18.853650405742357 51.691111639753444 18.707309096230205 52.03667068481445 18.5609712600708 C52.325318678617464 18.438729195296766 52.325318678617464 18.438729195296766 52.61979794502258 18.314017593860626 C53.80804000734929 17.811152557712006 54.99762521911168 17.311487412630477 56.1875 16.8125 C56.31889877319338 16.757393836975098 56.45029754638671 16.702287673950195 56.58567810058594 16.645511627197266 C61.11128484099538 14.749033545611606 65.6667379555463 12.93982364728556 70.25 11.1875 C70.46776910781858 11.104236507415772 70.46776910781858 11.104236507415772 70.68993759155273 11.019290924072266 C72.45884735449124 10.343256293865027 74.22894506740482 9.670396889042241 76 9 Z M-37 42 C-36.670000000000016 42 -36.34 42 -36 42 C-36 73.35 -36 104.7 -36 137 C-44.91 137 -53.81999999999999 137 -63 137 C-63 110.6 -63 84.19999999999999 -63 57 C-53.79766371077764 51.24853981923603 -53.79766371077764 51.24853981923603 -50.28125 49.32421875 C-49.88901330096604 49.10735438276965 -49.49688581021957 48.890292395567954 -49.1048583984375 48.67304992675781 C-48.10648534926045 48.12045095629692 -47.106723758188565 47.570420155291295 -46.1065673828125 47.02105712890625 C-45.072734540636645 46.452542691143016 -44.04034938594614 45.88141052907211 -43.0078125 45.310546875 C-41.006557040899764 44.20457446474027 -39.00381354667465 43.10133004098429 -37 42 Z M37 43 C37.99000000000001 43 38.98000000000002 43 40 43 C40 76.66 40 110.32000000000001 40 145 C30.75999999999999 145 21.519999999999982 145 12 145 C12 116.28999999999999 12 87.58 12 58 C20.25 53.05 28.5 48.1 37 43 Z " fill="#DD390D" transform="translate(246,0)"/>
<path d="M0 0 C0.3544341844093992 0.0018705310717166412 0.7088709958159711 0.0032914253141882455 1.0633087158203125 0.0042877197265625 C1.985620484081494 0.008063177115445797 2.907768849110141 0.01784882834454038 3.83001708984375 0.02899169921875 C4.775327464039151 0.03931458253518372 5.72066485066847 0.0438083418909514 6.666015625 0.048828125 C8.513103318344065 0.05947741783802485 10.360027986866157 0.07703175041166332 12.20703125 0.09765625 C14.682031250000023 1.5826562500000136 14.682031250000023 1.5826562500000136 17.20703125 3.09765625 C17.537031249999984 4.417656249999993 17.867031250000025 5.737656249999986 18.20703125 7.09765625 C15.732031249999977 6.6026562499999955 15.732031249999977 6.6026562499999955 13.20703125 6.09765625 C13.20703125 5.437656250000003 13.20703125 4.777656250000007 13.20703125 4.09765625 C11.332109668623218 4.067268877071399 9.45715844304317 4.046757648362899 7.58203125 4.03515625 C7.4446403503417855 4.034300231933599 7.307249450683571 4.033444213867199 7.1656951904296875 4.032562255859375 C3.0633749537864787 4.0099549581814244 -0.7721350346980671 4.204137646599577 -4.79296875 5.09765625 C-5.122968749999984 6.747656250000006 -5.452968750000025 8.397656250000011 -5.79296875 10.09765625 C0.14703124999999773 10.427656250000013 6.0870312499999955 10.757656249999997 12.20703125 11.09765625 C13.857031249999977 12.087656250000009 15.507031250000011 13.07765624999999 17.20703125 14.09765625 C17.537031249999984 16.07765624999999 17.867031250000025 18.057656250000008 18.20703125 20.09765625 C17.547031249999975 21.417656249999993 16.887031250000007 22.737656249999986 16.20703125 24.09765625 C12.959933303761147 25.724407489338603 12.959933303761147 25.724407489338603 11.20703125 26.09765625 C8.653599740585548 26.45416359191367 6.015994890717707 26.2986083125476 3.44671630859375 26.2349853515625 C2.5147021848588906 26.214175486082837 1.582572234153531 26.20531847331796 0.650390625 26.1953125 C-1.1644061151791334 26.174142144840687 -2.9785218456176494 26.13910381590577 -4.79296875 26.09765625 C-6.442968749999977 25.10765624999999 -8.092968750000011 24.11765625000001 -9.79296875 23.09765625 C-9.79296875 21.777656250000007 -9.79296875 20.457656250000014 -9.79296875 19.09765625 C-8.472968750000007 19.09765625 -7.152968750000014 19.09765625 -5.79296875 19.09765625 C-5.79296875 20.08765625000001 -5.79296875 21.07765624999999 -5.79296875 22.09765625 C-4.201584346242157 22.143650018894732 -2.610753514190151 22.17997763704244 -1.0188732147216797 22.20128059387207 C-0.2789241164452392 22.211527773159276 0.4605308833696995 22.225306198368145 1.2001953125 22.24853515625 C4.440797627747315 22.378819758147245 4.440797627747315 22.378819758147245 7.6495208740234375 22.005172729492188 C9.55637506383431 21.532724746024712 11.388479385975302 20.833203675166402 13.20703125 20.09765625 C13.20703125 18.447656249999994 13.20703125 16.79765624999999 13.20703125 15.09765625 C6.607031249999977 14.767656249999987 0.007031250000011369 14.437656250000003 -6.79296875 14.09765625 C-7.782968750000009 13.437656250000003 -8.772968750000018 12.777656250000007 -9.79296875 12.09765625 C-9.79296875 9.457656250000014 -9.79296875 6.817656249999999 -9.79296875 4.09765625 C-8.802968749999991 3.107656249999991 -7.812968749999982 2.1176562500000102 -6.79296875 1.09765625 C-4.437263853266359 0.17641306305003468 -2.511356180672351 -0.039552227019783004 0 0 Z " fill="#000000" transform="translate(356.79296875,186.90234375)"/>
<path d="M0 0 C8.25 0 16.5 0 25 0 C25.99000000000001 0.6599999999999966 26.980000000000018 1.3199999999999932 28 2 C28.329999999999984 3.9799999999999898 28.660000000000025 5.960000000000008 29 8 C28.339999999999975 9.97999999999999 27.680000000000007 11.960000000000008 27 14 C27.329999999999984 14.330000000000013 27.660000000000025 14.659999999999997 28 15 C28 17.97 28 20.939999999999998 28 24 C26.680000000000007 24 25.360000000000014 24 24 24 C23.670000000000016 21.360000000000014 23.339999999999975 18.72 23 16 C16.730000000000018 15.669999999999987 10.45999999999998 15.340000000000003 4 15 C4 17.97 4 20.939999999999998 4 24 C2.680000000000007 24 1.3600000000000136 24 0 24 C0 16.079999999999984 0 8.159999999999997 0 0 Z M4 3 C4 5.969999999999999 4 8.939999999999998 4 12 C6.746083729327722 12.029184339802129 6.746083729327722 12.029184339802129 9.4921875 12.048828125 C10.615609173955818 12.05475896390837 11.738947809549131 12.061700734146086 12.8623046875 12.075439453125 C13.770071877888995 12.086469413947441 14.67774978325275 12.092318219030375 15.585578918457031 12.094877243041992 C15.928381878670166 12.096695988628738 16.27118110089083 12.100245367808526 16.61394500732422 12.105730056762695 C18.34666216855885 12.132300994320161 19.956147779122887 12.048140925180519 21.64850616455078 11.648847579956055 C22.435355566169505 11.443816792912628 23.217221226840763 11.220061347707201 24 11 C24.329999999999984 9.02000000000001 24.660000000000025 7.039999999999992 25 5 C24.670000000000016 4.340000000000003 24.339999999999975 3.680000000000007 24 3 C17.399999999999977 3 10.800000000000011 3 4 3 Z " fill="#000000" transform="translate(264,188)"/>
<path d="M0 0 C8.25 0 16.5 0 25 0 C25.989999999999995 0.6599999999999966 26.980000000000004 1.3199999999999932 28 2 C28 5.300000000000011 28 8.599999999999994 28 12 C27.67 12.659999999999997 27.340000000000003 13.319999999999993 27 14 C27.33 14.659999999999997 27.659999999999997 15.319999999999993 28 16 C28 18.639999999999986 28 21.28 28 24 C26.680000000000007 24 25.36 24 24 24 C23.67 21.360000000000014 23.340000000000003 18.72 23 16 C16.400000000000006 15.669999999999987 9.799999999999997 15.340000000000003 3 15 C3 17.97 3 20.939999999999998 3 24 C2.010000000000005 24 1.019999999999996 24 0 24 C0 16.079999999999984 0 8.159999999999997 0 0 Z M3 3 C3 5.969999999999999 3 8.939999999999998 3 12 C5.923818695351429 12.02917666738324 5.923818695351429 12.02917666738324 8.84765625 12.048828125 C10.043503235723307 12.05476258035685 11.239272318363135 12.061714680447096 12.43505859375 12.075439453125 C13.401179929676985 12.086456427933086 14.367217516161844 12.092315644164813 15.333396911621094 12.094877243041992 C15.698527683086382 12.096698222593545 16.063654862831584 12.10025232350236 16.428749084472656 12.105730056762695 C18.226699680542453 12.131586204315028 19.90711855194843 12.0618535560549 21.66374969482422 11.648847579956055 C22.44572841250786 11.444545995620729 23.22238381618314 11.220324585414772 24 11 C24.33 9.02000000000001 24.659999999999997 7.039999999999992 25 5 C24.340000000000003 4.340000000000003 23.680000000000007 3.680000000000007 23 3 C16.400000000000006 3 9.799999999999997 3 3 3 Z " fill="#000000" transform="translate(90,188)"/>
<path d="M0 0 C8.25 0 16.5 0 25 0 C25 0.9900000000000091 25 1.9799999999999898 25 3 C18.069999999999993 3 11.139999999999986 3 4 3 C4 5.310000000000002 4 7.6200000000000045 4 10 C10.600000000000023 10 17.19999999999999 10 24 10 C24 10.990000000000009 24 11.97999999999999 24 13 C17.399999999999977 13 10.800000000000011 13 4 13 C4 15.639999999999986 4 18.28 4 21 C10.930000000000007 21 17.860000000000014 21 25 21 C25 21.99000000000001 25 22.97999999999999 25 24 C16.75 24 8.5 24 0 24 C0 16.079999999999984 0 8.159999999999997 0 0 Z " fill="#000000" transform="translate(308,188)"/>
<path d="M0 0 C8.25 0 16.5 0 25 0 C25 0.9900000000000091 25 1.9799999999999898 25 3 C18.069999999999993 3 11.139999999999986 3 4 3 C4 5.310000000000002 4 7.6200000000000045 4 10 C10.599999999999994 10 17.19999999999999 10 24 10 C24 10.990000000000009 24 11.97999999999999 24 13 C17.400000000000006 13 10.800000000000011 13 4 13 C4 15.639999999999986 4 18.28 4 21 C10.930000000000007 21 17.860000000000014 21 25 21 C25 21.99000000000001 25 22.97999999999999 25 24 C16.75 24 8.5 24 0 24 C0 16.079999999999984 0 8.159999999999997 0 0 Z " fill="#000000" transform="translate(134,188)"/>
<path d="M0 0 C8.25 0 16.5 0 25 0 C26.319999999999993 0.9900000000000091 27.639999999999986 1.9799999999999898 29 3 C29 8.939999999999998 29 14.879999999999995 29 21 C27.680000000000007 21.99000000000001 26.360000000000014 22.97999999999999 25 24 C16.75 24 8.5 24 0 24 C0 16.079999999999984 0 8.159999999999997 0 0 Z M3 3 C3 8.939999999999998 3 14.879999999999995 3 21 C9.599999999999994 21 16.19999999999999 21 23 21 C23.659999999999997 20.670000000000016 24.319999999999993 20.340000000000003 25 20 C25.41950457507653 19.02099672627358 25.775148320490416 18.04148044552315 26 17 C26.15637855498383 15.721256944939228 26.144346976266775 14.434512084860955 26.13037109375 13.148193359375 C26.12503783348572 12.566625569647954 26.130330860873045 11.985840473596085 26.13671875 11.404296875 C26.139837739022056 9.438398094397797 25.987431769273456 7.622492965896015 25.4921875 5.71484375 C25.33587003149094 5.140371206775541 25.171081727106213 4.5703373749884975 25 4 C24.340000000000003 3.6699999999999875 23.680000000000007 3.3400000000000034 23 3 C16.400000000000006 3 9.800000000000011 3 3 3 Z " fill="#000000" transform="translate(174,188)"/>
<path d="M0 0 C0.39927491351630806 0.0018697584280573665 0.7985521527753008 0.003291020916265097 1.1978302001953125 0.0042877197265625 C2.2385005704512935 0.008069186626585179 3.279026877815113 0.017860526419610778 4.31964111328125 0.02899169921875 C5.3856003048876175 0.03930117718027759 6.451583233821566 0.04380554859295671 7.517578125 0.048828125 C9.601635328483383 0.05948810854468434 11.685548660234105 0.07704787203942942 13.76953125 0.09765625 C16.244531249999994 1.5826562500000136 16.244531249999994 1.5826562500000136 18.76953125 3.09765625 C19.099531249999984 5.07765624999999 19.429531249999997 7.057656250000008 19.76953125 9.09765625 C18.449531250000007 9.09765625 17.129531250000014 9.09765625 15.76953125 9.09765625 C15.439531250000016 7.777656250000007 15.109531250000003 6.457656250000014 14.76953125 5.09765625 C11.849141424447339 4.275679078395456 11.849141424447339 4.275679078395456 8.8466796875 3.984130859375 C8.190511142991568 3.9810513735556583 7.534975116513522 3.989392531410573 6.87890625 4 C6.56526875753849 4.001477499558376 6.251628756484848 4.0024932088506375 5.93798828125 4.0030517578125 C4.798464033507315 4.008211130936161 3.658993193312625 4.022171256091724 2.51953125 4.03515625 C-0.03796875000000455 4.0557812499999955 -2.595468750000009 4.076406249999991 -5.23046875 4.09765625 C-5.23046875 10.037656249999998 -5.23046875 15.977656249999995 -5.23046875 22.09765625 C-2.6729687499999955 22.118281249999995 -0.1154687499999909 22.13890624999999 2.51953125 22.16015625 C3.318427734375007 22.16926025390626 4.117324218750014 22.17836425781249 4.9404296875 22.187744140625 C5.674833084112777 22.19109447311041 5.674833084112777 22.19109447311041 6.40924072265625 22.193099975585938 C6.729079223669316 22.194606687172893 7.048913125962656 22.19806120930295 7.36871337890625 22.203231811523438 C9.106644897466367 22.229854668283537 10.720599831087924 22.14699555608604 12.418037414550781 21.746503829956055 C13.204886816169505 21.541473042912628 13.986752476840763 21.3177175977072 14.76953125 21.09765625 C15.099531249999984 19.777656250000007 15.429531249999997 18.457656250000014 15.76953125 17.09765625 C17.089531249999993 17.09765625 18.409531249999986 17.09765625 19.76953125 17.09765625 C19.439531250000016 19.07765624999999 19.109531250000003 21.057656250000008 18.76953125 23.09765625 C16.294531250000006 24.582656250000014 16.294531250000006 24.582656250000014 13.76953125 26.09765625 C7.829531250000002 26.09765625 1.8895312500000045 26.09765625 -4.23046875 26.09765625 C-5.880468750000006 25.10765624999999 -7.530468750000011 24.11765625000001 -9.23046875 23.09765625 C-10.14454620965168 20.709668422882288 -10.14454620965168 20.709668422882288 -10.287982940673828 19.687992095947266 C-10.365788739013539 18.706745038465726 -10.34594375832421 17.725477350742153 -10.328125 16.7421875 C-10.32625347194434 16.432594113930662 -10.324833053787899 16.122997710001243 -10.323837280273438 15.813400268554688 C-10.320069560687443 15.009444360025242 -10.31029135816567 14.205677180468655 -10.29913330078125 13.40179443359375 C-10.288793048252046 12.577133699706053 -10.284313055821741 11.752441633992504 -10.279296875 10.927734375 C-10.268661368408573 9.31761324329247 -10.25111415428745 7.707680162816558 -10.23046875 6.09765625 C-9.240468749999991 4.447656249999994 -8.25046875000001 2.7976562499999886 -7.23046875 1.09765625 C-4.746959970659503 0.10493973930925904 -2.654825057658627 -0.03697192191353338 0 0 Z " fill="#000000" transform="translate(228.23046875,186.90234375)"/>
<path d="M0 0 C9.240000000000009 0 18.480000000000018 0 28 0 C28 0.9900000000000091 28 1.9799999999999898 28 3 C24.04000000000002 3 20.079999999999984 3 16 3 C16 9.930000000000007 16 16.860000000000014 16 24 C14.680000000000007 24 13.360000000000014 24 12 24 C12 17.069999999999993 12 10.139999999999986 12 3 C8.04000000000002 3 4.079999999999984 3 0 3 C0 2.009999999999991 0 1.0200000000000102 0 0 Z " fill="#000000" transform="translate(389,188)"/>
<path d="M0 0 C1.3199999999999932 0.3300000000000125 2.6399999999999864 0.6599999999999966 4 1 C4.3300000000000125 2.9799999999999898 4.659999999999997 4.960000000000008 5 7 C5.659999999999997 7 6.319999999999993 7 7 7 C7.3300000000000125 5.02000000000001 7.659999999999997 3.039999999999992 8 1 C9.319999999999993 0.6699999999999875 10.639999999999986 0.3400000000000034 12 0 C12 3.960000000000008 12 7.9199999999999875 12 12 C10.680000000000007 11.669999999999987 9.360000000000014 11.340000000000003 8 11 C7.204442788931232 10.938614412726167 6.528470146493817 10.896024131539264 5.75 10.9375 C5.5772656249999955 10.942011718749995 5.404531249999991 10.946523437499991 5.2265625 10.951171875 C4.817542266373209 10.962533548156301 4.4087099394889435 10.980434098641496 4 11 C3.6699999999999875 10.009999999999991 3.3400000000000034 9.02000000000001 3 8 C2.6699999999999875 9.319999999999993 2.3400000000000034 10.639999999999986 2 12 C1.3400000000000034 12 0.6800000000000068 12 0 12 C0 8.039999999999992 0 4.0800000000000125 0 0 Z " fill="#000000" transform="translate(181,234)"/>
<path d="M0 0 C0.9900000000000091 0 1.9799999999999898 0 3 0 C3.990000000000009 1.9799999999999898 4.97999999999999 3.960000000000008 6 6 C6.659999999999997 4.02000000000001 7.319999999999993 2.039999999999992 8 0 C8.990000000000009 0 9.97999999999999 0 11 0 C11 3.960000000000008 11 7.9199999999999875 11 12 C10.340000000000003 12 9.680000000000007 12 9 12 C8.669999999999987 11.340000000000003 8.340000000000003 10.680000000000007 8 10 C7.6699999999999875 10.659999999999997 7.340000000000003 11.319999999999993 7 12 C6.009999999999991 12 5.02000000000001 12 4 12 C3.6699999999999875 11.340000000000003 3.3400000000000034 10.680000000000007 3 10 C2.6699999999999875 10.659999999999997 2.3400000000000034 11.319999999999993 2 12 C1.3400000000000034 12 0.6800000000000068 12 0 12 C0 8.039999999999992 0 4.0800000000000125 0 0 Z " fill="#000000" transform="translate(198,234)"/>
<path d="M0 0 C1.9799999999999898 0 3.960000000000008 0 6 0 C6.990000000000009 1.3199999999999932 7.97999999999999 2.6399999999999864 9 4 C8.669999999999987 6.310000000000002 8.340000000000003 8.620000000000005 8 11 C7.009999999999991 11.659999999999997 6.02000000000001 12.319999999999993 5 13 C2.030000000000001 12.504999999999995 2.030000000000001 12.504999999999995 -1 12 C-1.6599999999999966 11.009999999999991 -2.319999999999993 10.02000000000001 -3 9 C-3 7.02000000000001 -3 5.039999999999992 -3 3 C-2.009999999999991 2.009999999999991 -1.0200000000000102 1.0200000000000102 0 0 Z M1 2 C0.3400000000000034 3.6500000000000057 -0.3199999999999932 5.300000000000011 -1 7 C-0.009999999999990905 8.485000000000014 -0.009999999999990905 8.485000000000014 1 10 C2.6500000000000057 9.669999999999987 4.300000000000011 9.340000000000003 6 9 C6 7.02000000000001 6 5.039999999999992 6 3 C4.349999999999994 2.6699999999999875 2.6999999999999886 2.3400000000000034 1 2 Z " fill="#000000" transform="translate(168,234)"/>
<path d="M0 0 C2.6399999999999864 0 5.280000000000001 0 8 0 C8.659999999999997 0.3300000000000125 9.319999999999993 0.6599999999999966 10 1 C10 4.6299999999999955 10 8.259999999999991 10 12 C9.009999999999991 11.669999999999987 8.02000000000001 11.340000000000003 7 11 C7 10.009999999999991 7 9.02000000000001 7 8 C5.349999999999994 8 3.6999999999999886 8 2 8 C2 9.319999999999993 2 10.639999999999986 2 12 C1.3400000000000034 12 0.6800000000000068 12 0 12 C0 8.039999999999992 0 4.0800000000000125 0 0 Z M2 2 C2 2.990000000000009 2 3.9799999999999898 2 5 C3.9799999999999898 5 5.960000000000008 5 8 5 C7.6699999999999875 4.009999999999991 7.340000000000003 3.0200000000000102 7 2 C5.349999999999994 2 3.6999999999999886 2 2 2 Z " fill="#000000" transform="translate(228,234)"/>
<path d="M0 0 C2.969999999999999 0 5.939999999999998 0 9 0 C9 0.6599999999999966 9 1.3199999999999932 9 2 C7.02000000000001 2 5.039999999999992 2 3 2 C3 2.990000000000009 3 3.9799999999999898 3 5 C4.97999999999999 5 6.960000000000008 5 9 5 C9 5.659999999999997 9 6.319999999999993 9 7 C7.02000000000001 7 5.039999999999992 7 3 7 C3 7.990000000000009 3 8.97999999999999 3 10 C5.310000000000002 10 7.6200000000000045 10 10 10 C10 10.659999999999997 10 11.319999999999993 10 12 C6.699999999999989 12 3.4000000000000057 12 0 12 C0 8.039999999999992 0 4.0800000000000125 0 0 Z " fill="#000000" transform="translate(214,234)"/>
<path d="M0 0 C2.969999999999999 0 5.939999999999998 0 9 0 C9 0.6599999999999966 9 1.3199999999999932 9 2 C7.02000000000001 2 5.039999999999992 2 3 2 C3 2.990000000000009 3 3.9799999999999898 3 5 C4.97999999999999 5 6.960000000000008 5 9 5 C9 5.659999999999997 9 6.319999999999993 9 7 C7.02000000000001 7 5.039999999999992 7 3 7 C3 7.990000000000009 3 8.97999999999999 3 10 C5.310000000000002 10 7.6200000000000045 10 10 10 C10 10.659999999999997 10 11.319999999999993 10 12 C6.699999999999989 12 3.4000000000000057 12 0 12 C0 8.039999999999992 0 4.0800000000000125 0 0 Z " fill="#000000" transform="translate(128,234)"/>
<path d="M0 0 C2.3100000000000023 0 4.6200000000000045 0 7 0 C7.990000000000009 0.9900000000000091 8.980000000000018 1.9799999999999898 10 3 C10 5.310000000000002 10 7.6200000000000045 10 10 C9.339999999999975 10.659999999999997 8.680000000000007 11.319999999999993 8 12 C5.360000000000014 12 2.7200000000000273 12 0 12 C0 8.039999999999992 0 4.0800000000000125 0 0 Z M2 2 C2 4.639999999999986 2 7.280000000000001 2 10 C3.6499999999999773 9.669999999999987 5.300000000000011 9.340000000000003 7 9 C7.329999999999984 7.680000000000007 7.660000000000025 6.360000000000014 8 5 C7.009999999999991 4.009999999999991 6.019999999999982 3.0200000000000102 5 2 C4.009999999999991 2 3.019999999999982 2 2 2 Z " fill="#000000" transform="translate(360,234)"/>
<path d="M0 0 C1.9799999999999898 0 3.960000000000008 0 6 0 C6.659999999999997 1.3199999999999932 7.319999999999993 2.6399999999999864 8 4 C7.009999999999991 4 6.02000000000001 4 5 4 C5 3.3400000000000034 5 2.680000000000007 5 2 C3.3499999999999943 2.3300000000000125 1.6999999999999886 2.6599999999999966 0 3 C0.3300000000000125 4.97999999999999 0.6599999999999966 6.960000000000008 1 9 C4.465000000000003 8.504999999999995 4.465000000000003 8.504999999999995 8 8 C7.6699999999999875 9.319999999999993 7.340000000000003 10.639999999999986 7 12 C5.02000000000001 12.330000000000013 3.039999999999992 12.659999999999997 1 13 C-0.3199999999999932 11.680000000000007 -1.6399999999999864 10.360000000000014 -3 9 C-2.6699999999999875 6.689999999999998 -2.3400000000000034 4.3799999999999955 -2 2 C-1.3400000000000034 1.3400000000000034 -0.6800000000000068 0.6800000000000068 0 0 Z " fill="#000000" transform="translate(153,234)"/>
<path d="M0 0 C1.9799999999999898 0 3.960000000000008 0 6 0 C6.659999999999997 1.3199999999999932 7.319999999999993 2.6399999999999864 8 4 C5.360000000000014 3.6699999999999875 2.719999999999999 3.3400000000000034 0 3 C0.3300000000000125 4.97999999999999 0.6599999999999966 6.960000000000008 1 9 C4.465000000000003 8.504999999999995 4.465000000000003 8.504999999999995 8 8 C7.6699999999999875 9.319999999999993 7.340000000000003 10.639999999999986 7 12 C5.349999999999994 12.330000000000013 3.6999999999999886 12.659999999999997 2 13 C0.6800000000000068 12.340000000000003 -0.6399999999999864 11.680000000000007 -2 11 C-2.3300000000000125 8.689999999999998 -2.6599999999999966 6.3799999999999955 -3 4 C-2.009999999999991 2.680000000000007 -1.0200000000000102 1.3600000000000136 0 0 Z " fill="#000000" transform="translate(245,234)"/>
<path d="M0 0 C2.9700000000000273 0 5.939999999999998 0 9 0 C9 0.6599999999999966 9 1.3199999999999932 9 2 C6.689999999999998 2 4.3799999999999955 2 2 2 C2 2.990000000000009 2 3.9799999999999898 2 5 C3.980000000000018 5 5.9599999999999795 5 8 5 C8 5.659999999999997 8 6.319999999999993 8 7 C6.019999999999982 7 4.0400000000000205 7 2 7 C2 7.990000000000009 2 8.97999999999999 2 10 C4.310000000000002 10 6.6200000000000045 10 9 10 C9 10.659999999999997 9 11.319999999999993 9 12 C6.029999999999973 12 3.0600000000000023 12 0 12 C0 8.039999999999992 0 4.0800000000000125 0 0 Z " fill="#000000" transform="translate(258,234)"/>
<path d="M0 0 C2.6399999999999864 0 5.279999999999973 0 8 0 C8.329999999999984 0.3300000000000125 8.660000000000025 0.6599999999999966 9 1 C9 2.9799999999999898 9 4.960000000000008 9 7 C6.689999999999998 7.3300000000000125 4.3799999999999955 7.659999999999997 2 8 C2 9.319999999999993 2 10.639999999999986 2 12 C1.339999999999975 12 0.6800000000000068 12 0 12 C0 8.039999999999992 0 4.0800000000000125 0 0 Z M2 2 C2 3.319999999999993 2 4.639999999999986 2 6 C3.6499999999999773 5.6699999999999875 5.300000000000011 5.340000000000003 7 5 C6.670000000000016 4.009999999999991 6.339999999999975 3.0200000000000102 6 2 C4.680000000000007 2 3.3600000000000136 2 2 2 Z " fill="#000000" transform="translate(279,234)"/>
<path d="M0 0 C0.9900000000000091 0.3300000000000125 1.9800000000000182 0.6599999999999966 3 1 C3.660000000000025 2.9799999999999898 4.319999999999993 4.960000000000008 5 7 C5.990000000000009 4.689999999999998 6.980000000000018 2.3799999999999955 8 0 C8.990000000000009 0 9.980000000000018 0 11 0 C10.59346789934267 1.3882516701657153 10.184452174919613 2.7757388733748485 9.773193359375 4.16259765625 C9.63384880598727 4.633753399917879 9.495165764579951 5.1051053419704715 9.357177734375 5.57666015625 C9.157857077859944 6.257372578860981 8.95610864130748 6.937326288154281 8.75390625 7.6171875 C8.693446197509786 7.825602722167957 8.632986145019515 8.034017944335943 8.570693969726563 8.248748779296875 C8.170490016989675 9.583433832787733 7.654853146995322 10.769370312439008 7 12 C5.680000000000007 11.669999999999987 4.360000000000014 11.340000000000003 3 11 C2.567881360681554 9.917131266946 2.13933877540984 8.833892450803035 1.71826171875 7.746826171875 C1.5745710979393266 7.378598865077123 1.4291061013411195 7.011058249982028 1.28173828125 6.644287109375 C0.09170903402423392 3.677309428366584 0.09170903402423392 3.677309428366584 -0.064453125 2.52398681640625 C-0.11993044093895833 1.6621235977460174 -0.06587610793303611 0.8701135922820242 0 0 Z " fill="#000000" transform="translate(292,234)"/>
<path d="M0 0 C3.3000000000000114 0 6.600000000000023 0 10 0 C10 0.6599999999999966 10 1.3199999999999932 10 2 C8.680000000000007 2 7.360000000000014 2 6 2 C6 5.300000000000011 6 8.599999999999994 6 12 C5.339999999999975 12 4.680000000000007 12 4 12 C4 8.699999999999989 4 5.400000000000006 4 2 C2.680000000000007 2 1.3600000000000136 2 0 2 C0 1.3400000000000034 0 0.6800000000000068 0 0 Z " fill="#000000" transform="translate(346,234)"/>
<path d="M0 0 C3.3000000000000114 0 6.600000000000023 0 10 0 C10 0.6599999999999966 10 1.3199999999999932 10 2 C8.680000000000007 2 7.360000000000014 2 6 2 C6 5.300000000000011 6 8.599999999999994 6 12 C5.339999999999975 12 4.680000000000007 12 4 12 C4 8.699999999999989 4 5.400000000000006 4 2 C2.680000000000007 2 1.3600000000000136 2 0 2 C0 1.3400000000000034 0 0.6800000000000068 0 0 Z " fill="#000000" transform="translate(306,234)"/>
<path d="M0 0 C0.660000000000025 0 1.3199999999999932 0 2 0 C2 3.3000000000000114 2 6.599999999999994 2 10 C3.980000000000018 10 5.9599999999999795 10 8 10 C8 10.659999999999997 8 11.319999999999993 8 12 C5.360000000000014 12 2.7200000000000273 12 0 12 C0 8.039999999999992 0 4.0800000000000125 0 0 Z " fill="#000000" transform="translate(335,234)"/>
<path d="M0 0 C1.9799999999999898 0 3.960000000000008 0 6 0 C6 0.6599999999999966 6 1.3199999999999932 6 2 C4.02000000000001 2 2.039999999999992 2 0 2 C0 1.3400000000000034 0 0.6800000000000068 0 0 Z " fill="#000000" transform="translate(141,241)"/>
<path d="M0 0 C0.660000000000025 0 1.3199999999999932 0 2 0 C2 0.6599999999999966 2 1.3199999999999932 2 2 C1.339999999999975 2 0.6800000000000068 2 0 2 C0 1.3400000000000034 0 0.6800000000000068 0 0 Z " fill="#000000" transform="translate(375,244)"/>
<path d="M0 0 C0.660000000000025 0 1.3199999999999932 0 2 0 C2 0.6599999999999966 2 1.3199999999999932 2 2 C1.339999999999975 2 0.6800000000000068 2 0 2 C0 1.3400000000000034 0 0.6800000000000068 0 0 Z " fill="#000000" transform="translate(320,244)"/>
</svg>
