<?xml version="1.0" encoding="UTF-8"?>
<!-- Generator: visioncortex VTracer 0.6.4 -->
<svg version="1.1" xmlns="http://www.w3.org/2000/svg" width="200" height="200">
<path d="M0 0 C8.663859291729963 2.6658028589938354 16.49176603240676 5.105485436573581 23.6402587890625 10.48150634765625 C28.98419014975576 14.712250506610474 32.584071649685114 19.135754042882667 36.1796875 24.90625 C37.85068871446913 27.62761913008417 39.21087502655709 30.403844797745876 40.375 33.375 C40.45399536132811 33.57333435058594 40.53299072265625 33.771668701171876 40.6143798828125 33.97601318359375 C41.77948597888064 36.940025803718385 42.367152800725734 39.835764003628654 43 43 C43 58 43 58 39 71 C35.17306613236917 77.72046923096148 31.308675036594877 83.41665667426821 26 89 C20.76346199195433 92.57009726029841 15.549290710635447 96.05381032907525 9.625 98.375 C9.426665649414062 98.45399536132811 9.228331298828124 98.53299072265625 9.02398681640625 98.6143798828125 C6.059974196281686 99.77948597888064 3.1642359963711613 100.36715280072576 0 101 C-15 101 -15 101 -28 97 C-34.72046923096147 93.17306613236917 -40.4166566742682 89.30867503659488 -46 84 C-49.570097260298404 78.76346199195433 -53.05381032907526 73.54929071063545 -55.375 67.625 C-55.453995361328126 67.42666564941406 -55.53299072265625 67.22833129882812 -55.6143798828125 67.02398681640625 C-56.77948597888063 64.05997419628167 -57.36715280072577 61.16423599637116 -58 58 C-58 43 -58 43 -54 30 C-50.173066132369165 23.27953076903853 -46.30867503659486 17.583343325731803 -41 12 C-35.76346199195433 8.429902739701589 -30.549290710635447 4.946189670924738 -24.625 2.625 C-24.426665649414062 2.5460046386718744 -24.228331298828124 2.467009277343749 -24.02398681640625 2.3856201171875 C-16.019242811598247 -0.7609171054086303 -8.887705350293587 0 0 0 Z " fill="#FF0000" transform="translate(108,50)"/>
<path d="M0 0 C13.530000000000001 0 27.060000000000002 0 41 0 C41 13.530000000000001 41 27.060000000000002 41 41 C27.47 41 13.939999999999998 41 0 41 C0 27.47 0 13.939999999999998 0 0 Z " fill="#00FF00" transform="translate(80,80)"/>
<path d="M0 0 C8.663859291729963 2.6658028589938354 16.49176603240676 5.105485436573581 23.6402587890625 10.48150634765625 C28.98419014975576 14.712250506610474 32.584071649685114 19.135754042882667 36.1796875 24.90625 C37.85068871446913 27.62761913008417 39.21087502655709 30.403844797745876 40.375 33.375 C40.45399536132811 33.57333435058594 40.53299072265625 33.771668701171876 40.6143798828125 33.97601318359375 C41.77948597888064 36.940025803718385 42.367152800725734 39.835764003628654 43 43 C43 58 43 58 39 71 C35.17306613236917 77.72046923096148 31.308675036594877 83.41665667426821 26 89 C20.76346199195433 92.57009726029841 15.549290710635447 96.05381032907525 9.625 98.375 C9.426665649414062 98.45399536132811 9.228331298828124 98.53299072265625 9.02398681640625 98.6143798828125 C6.059974196281686 99.77948597888064 3.1642359963711613 100.36715280072576 0 101 C-15 101 -15 101 -28 97 C-34.72046923096147 93.17306613236917 -40.4166566742682 89.30867503659488 -46 84 C-49.570097260298404 78.76346199195433 -53.05381032907526 73.54929071063545 -55.375 67.625 C-55.453995361328126 67.42666564941406 -55.53299072265625 67.22833129882812 -55.6143798828125 67.02398681640625 C-56.77948597888063 64.05997419628167 -57.36715280072577 61.16423599637116 -58 58 C-58 43 -58 43 -54 30 C-50.173066132369165 23.27953076903853 -46.30867503659486 17.583343325731803 -41 12 C-35.76346199195433 8.429902739701589 -30.549290710635447 4.946189670924738 -24.625 2.625 C-24.426665649414062 2.5460046386718744 -24.228331298828124 2.467009277343749 -24.02398681640625 2.3856201171875 C-16.019242811598247 -0.7609171054086303 -8.887705350293587 0 0 0 Z M-25 6 C-35.402339899383605 10.659558546675413 -35.402339899383605 10.659558546675413 -44 19 C-50.69059444113806 28.567197601190514 -50.69059444113806 28.567197601190514 -52.4375 34.1875 C-52.58501708984375 34.61184326171875 -52.7325341796875 35.03618652343749 -52.884521484375 35.473388671875 C-53.00529193363159 35.82983198731057 -53.12582937290168 36.18635436704062 -53.24609375 36.54296875 C-53.335582885742184 36.79608825683593 -53.335582885742184 36.79608825683593 -53.4268798828125 37.0543212890625 C-55.68026517278514 43.805517376515326 -55 49.64593266434244 -55 57 C-52.359546247753336 68.09805806756908 -52.359546247753336 68.09805806756908 -47 78 C-39.249464154158574 87.54669803996453 -39.249464154158574 87.54669803996453 -28 94 C-26.618124999999992 94.47437500000001 -25.23625 94.94875000000002 -23.8125 95.4375 C-23.388156738281253 95.58501708984375 -22.963813476562507 95.73253417968749 -22.526611328125 95.884521484375 C-22.17016801268943 96.00529193363161 -21.81364563295938 96.12582937290168 -21.45703125 96.24609375 C-21.288284912109376 96.30575317382812 -21.11953857421875 96.36541259765625 -20.9456787109375 96.4268798828125 C-14.194482623484632 98.68026517278514 -8.354067335657618 98 -1 98 C10.09805806756907 95.35954624775331 10.09805806756907 95.35954624775331 20 90 C29.546698039964525 82.24946415415857 29.546698039964525 82.24946415415857 36 71 C36.47437500000001 69.618125 36.94875000000002 68.23625 37.4375 66.8125 C37.585017089843745 66.38815673828125 37.73253417968749 65.9638134765625 37.884521484375 65.526611328125 C38.00529193363161 65.17016801268943 38.12582937290168 64.81364563295938 38.24609375 64.45703125 C38.30575317382812 64.28828491210938 38.365412597656245 64.11953857421875 38.4268798828125 63.9456787109375 C40.68026517278517 57.19448262348459 40 51.35406733565776 40 44 C37.359546247753315 32.9019419324309 37.359546247753315 32.9019419324309 32 23 C24.249464154158574 13.45330196003546 24.249464154158574 13.45330196003546 13 7 C11.618125000000006 6.525624999999998 10.236249999999998 6.051249999999996 8.8125 5.5625 C8.388156738281253 5.414982910156247 7.963813476562507 5.267465820312502 7.526611328125 5.115478515625 C7.17016801268943 4.9947080663684105 6.813645632959378 4.874170627098323 6.45703125 4.75390625 C6.2039117431640705 4.664417114257816 6.2039117431640705 4.664417114257816 5.9456787109375 4.5731201171875 C-4.611894718112353 1.0492585147906368 -14.617997791149747 3.1685448521317525 -25 6 Z " fill="#000000" transform="translate(108,50)"/>
<path d="M0 0 C6.333333333333329 0 12.666666666666657 0 19 0 C19.33 0.3300000000000125 19.659999999999997 0.6599999999999966 20 1 C20 2.9799999999999898 20 4.960000000000008 20 7 C19.67 7.3300000000000125 19.340000000000003 7.659999999999997 19 8 C17.349999999999994 8 15.700000000000003 8 14 8 C13.504999999999995 5.525000000000006 13.504999999999995 5.525000000000006 13 3 C11.680000000000007 2.6699999999999875 10.36 2.3400000000000034 9 2 C9 2.6599999999999966 9 3.319999999999993 9 4 C9.989999999999995 4 10.980000000000004 4 12 4 C12 5.319999999999993 12 6.639999999999986 12 8 C8.039999999999992 8 4.079999999999998 8 0 8 C-0.3299999999999983 7.6699999999999875 -0.6599999999999966 7.340000000000003 -1 7 C-1 5.02000000000001 -1 3.039999999999992 -1 1 C-0.6700000000000017 0.6699999999999875 -0.3400000000000034 0.3400000000000034 0 0 Z M2 1 C1.6700000000000017 2.6500000000000057 1.3400000000000034 4.300000000000011 1 6 C1.9899999999999949 6 2.980000000000004 6 4 6 C3.5049999999999955 3.5250000000000057 3.5049999999999955 3.5250000000000057 3 1 C2.6700000000000017 1 2.3400000000000034 1 2 1 Z M16 1 C15.670000000000002 2.6500000000000057 15.340000000000003 4.300000000000011 15 6 C15.989999999999995 6 16.980000000000004 6 18 6 C17.504999999999995 3.5250000000000057 17.504999999999995 3.5250000000000057 17 1 C16.67 1 16.340000000000003 1 16 1 Z " fill="#000000" transform="translate(92,167)"/>
<path d="M0 0 C0.3299999999999983 0 0.6599999999999966 0 1 0 C1 2.3100000000000023 1 4.6200000000000045 1 7 C2.980000000000004 7.4950000000000045 2.980000000000004 7.4950000000000045 5 8 C3.3499999999999943 8 1.7000000000000028 8 0 8 C0 5.360000000000014 0 2.719999999999999 0 0 Z " fill="#000000" transform="translate(86,167)"/>
</svg>
