<?xml version="1.0" encoding="UTF-8"?>
<!-- Generator: visioncortex VTracer 0.6.4 -->
<svg version="1.1" xmlns="http://www.w3.org/2000/svg" width="506" height="265">
<path d="M0,0 L2,0 L2,160 L-26,160 L-26,20 L-15,11 Z " fill="#DD390D" transform="translate(246,0)"/>
<path d="M0,0 L2,1 L2,109 L-26,109 L-26,18 L-25,10 L-13,5 Z " fill="#DD380D" transform="translate(322,9)"/>
<path d="M0,0 L3,0 L3,102 L-25,102 L-25,15 Z " fill="#DC390D" transform="translate(283,43)"/>
<path d="M0,0 L1,0 L1,95 L-26,95 L-26,15 L-18,10 Z " fill="#DD390D" transform="translate(209,42)"/>
<path d="M0,0 L16,0 L21,3 L22,7 L17,6 L17,4 L5,4 L-1,5 L-2,10 L16,11 L21,14 L22,20 L20,24 L15,26 L-1,26 L-6,23 L-6,19 L-2,19 L-2,22 L11,22 L17,20 L17,15 L-3,14 L-6,12 L-6,4 L-3,1 Z " fill="#000000" transform="translate(353,187)"/>
<path d="M0,0 L25,0 L28,2 L29,8 L27,14 L28,15 L28,24 L24,24 L23,16 L4,15 L4,24 L0,24 Z M4,3 L4,12 L20,12 L24,11 L25,5 L24,3 Z " fill="#000000" transform="translate(264,188)"/>
<path d="M0,0 L25,0 L28,2 L28,12 L27,14 L28,16 L28,24 L24,24 L23,16 L3,15 L3,24 L0,24 Z M3,3 L3,12 L20,12 L24,11 L25,5 L23,3 Z " fill="#000000" transform="translate(90,188)"/>
<path d="M0,0 L25,0 L25,3 L4,3 L4,10 L24,10 L24,13 L4,13 L4,21 L25,21 L25,24 L0,24 Z " fill="#000000" transform="translate(308,188)"/>
<path d="M0,0 L25,0 L25,3 L4,3 L4,10 L24,10 L24,13 L4,13 L4,21 L25,21 L25,24 L0,24 Z " fill="#000000" transform="translate(134,188)"/>
<path d="M0,0 L25,0 L29,3 L29,21 L25,24 L0,24 Z M3,3 L3,21 L23,21 L25,20 L26,17 L26,8 L25,4 L23,3 Z " fill="#000000" transform="translate(174,188)"/>
<path d="M0,0 L18,0 L23,3 L24,9 L20,9 L19,5 L15,4 L-1,4 L-1,22 L15,22 L19,21 L20,17 L24,17 L23,23 L18,26 L0,26 L-5,23 L-6,20 L-6,6 L-3,1 Z " fill="#000000" transform="translate(224,187)"/>
<path d="M0,0 L28,0 L28,3 L16,3 L16,24 L12,24 L12,3 L0,3 Z " fill="#000000" transform="translate(389,188)"/>
<path d="M0,0 L4,1 L5,7 L7,7 L8,1 L12,0 L12,12 L8,11 L4,11 L3,8 L2,12 L0,12 Z " fill="#000000" transform="translate(181,234)"/>
<path d="M0,0 L3,0 L6,6 L8,0 L11,0 L11,12 L9,12 L8,10 L7,12 L4,12 L3,10 L2,12 L0,12 Z " fill="#000000" transform="translate(198,234)"/>
<path d="M0,0 L6,0 L9,4 L8,11 L5,13 L-1,12 L-3,9 L-3,3 Z M1,2 L-1,7 L1,10 L6,9 L6,3 Z " fill="#000000" transform="translate(168,234)"/>
<path d="M0,0 L8,0 L10,1 L10,12 L7,11 L7,8 L2,8 L2,12 L0,12 Z M2,2 L2,5 L8,5 L7,2 Z " fill="#000000" transform="translate(228,234)"/>
<path d="M0,0 L9,0 L9,2 L3,2 L3,5 L9,5 L9,7 L3,7 L3,10 L10,10 L10,12 L0,12 Z " fill="#000000" transform="translate(214,234)"/>
<path d="M0,0 L9,0 L9,2 L3,2 L3,5 L9,5 L9,7 L3,7 L3,10 L10,10 L10,12 L0,12 Z " fill="#000000" transform="translate(128,234)"/>
<path d="M0,0 L7,0 L10,3 L10,10 L8,12 L0,12 Z M2,2 L2,10 L7,9 L8,5 L5,2 Z " fill="#000000" transform="translate(360,234)"/>
<path d="M0,0 L6,0 L8,4 L5,4 L5,2 L0,3 L1,9 L8,8 L7,12 L1,13 L-3,9 L-2,2 Z " fill="#000000" transform="translate(153,234)"/>
<path d="M0,0 L6,0 L8,4 L0,3 L1,9 L8,8 L7,12 L2,13 L-2,11 L-3,4 Z " fill="#000000" transform="translate(245,234)"/>
<path d="M0,0 L9,0 L9,2 L2,2 L2,5 L8,5 L8,7 L2,7 L2,10 L9,10 L9,12 L0,12 Z " fill="#000000" transform="translate(258,234)"/>
<path d="M0,0 L8,0 L9,1 L9,7 L2,8 L2,12 L0,12 Z M2,2 L2,6 L7,5 L6,2 Z " fill="#000000" transform="translate(279,234)"/>
<path d="M0,0 L3,1 L5,7 L8,0 L11,0 L8,10 L7,12 L3,11 L0,3 Z " fill="#000000" transform="translate(292,234)"/>
<path d="M0,0 L10,0 L10,2 L6,2 L6,12 L4,12 L4,2 L0,2 Z " fill="#000000" transform="translate(346,234)"/>
<path d="M0,0 L10,0 L10,2 L6,2 L6,12 L4,12 L4,2 L0,2 Z " fill="#000000" transform="translate(306,234)"/>
<path d="M0,0 L2,0 L2,10 L8,10 L8,12 L0,12 Z " fill="#000000" transform="translate(335,234)"/>
<path d="M0,0 L6,0 L6,2 L0,2 Z " fill="#000000" transform="translate(141,241)"/>
<path d="M0,0 L2,0 L2,2 L0,2 Z " fill="#000000" transform="translate(375,244)"/>
<path d="M0,0 L2,0 L2,2 L0,2 Z " fill="#000000" transform="translate(320,244)"/>
</svg>
