<?xml version="1.0" encoding="UTF-8"?>
<!-- Generator: visioncortex VTracer 0.6.4 -->
<svg version="1.1" xmlns="http://www.w3.org/2000/svg" width="506" height="265">
<path d="M0 0 C0 52.800000000000004 0 105.60000000000001 0 160 C-9.240000000000009 160 -18.47999999999999 160 -28 160 C-28.248589696142517 141.90162708713513 -28.451095636696692 123.80471728669801 -28.569933891296387 105.70510959625244 C-28.62658641338291 97.30058615698879 -28.70377829717208 88.89720089491634 -28.829833984375 80.493408203125 C-28.939690376623986 73.16606762470812 -29.010489912265342 65.83955141659452 -29.034973442554474 58.511410176754 C-29.04928056439178 54.632901429668614 -29.082740314975837 50.75675031071158 -29.16303062438965 46.87899971008301 C-29.23810724702426 43.223185913555845 -29.260652619908853 39.57068272110163 -29.244184494018555 35.91417121887207 C-29.24862054552321 33.94380383222411 -29.307617520162438 31.973791796447152 -29.368621826171875 30.004364013671875 C-29.301260919099064 24.701694566687625 -29.178570806570946 21.35600561265923 -25.617822647094727 17.259183883666992 C-22.83958543683505 14.962107639788726 -20.023201319077714 12.958884276596272 -17 11 C-15.563073492782792 9.916179822749536 -14.13259666484339 8.823627153650916 -12.71484375 7.71484375 C-11.457999167903239 6.785983075157841 -10.198951920785959 5.860093902190788 -8.9375 4.9375 C-8.288457031250005 4.45345703125 -7.639414062500009 3.9694140625 -6.970703125 3.470703125 C-2.243281471004252 0.0000000000000004440892098500626 -2.243281471004252 0.0000000000000004440892098500626 0 0 Z " fill="#DD390D" transform="translate(248,0)"/>
<path d="M0 0 C0 35.64 0 71.28 0 108 C-9.240000000000009 108 -18.480000000000018 108 -28 108 C-28.022621064977102 96.27323991586162 -28.040955664255705 84.54649440123644 -28.051812171936035 72.81971740722656 C-28.05702357993806 67.37410672215022 -28.06408955019367 61.92851178159569 -28.075439453125 56.48291015625 C-28.08633029090737 51.224465391598216 -28.092289961470385 45.96603574214632 -28.094877243041992 40.70758056640625 C-28.096720331402025 38.70460776987407 -28.100319391021003 36.70163577013535 -28.105730056762695 34.69866943359375 C-28.11302274692656 31.886334561595646 -28.1139874779048 29.0740616049911 -28.113525390625 26.26171875 C-28.117120666503922 25.439563751220703 -28.120715942382787 24.617408752441406 -28.124420166015625 23.770339965820313 C-28.11555316305919 18.760483295428465 -27.7146190170792 13.960013019883483 -27 9 C-20.650996946250984 6.311683391655826 -14.281052695931294 3.674566123129857 -7.875 1.125 C-6.7999218749999955 0.694453124999999 -5.724843749999991 0.2639062499999998 -4.6171875 -0.1796875 C-2 -1 -2 -1 0 0 Z " fill="#DD380D" transform="translate(324,10)"/>
<path d="M0 0 C0 33.66 0 67.32000000000001 0 102 C-9.240000000000009 102 -18.480000000000018 102 -28 102 C-28.567514885633045 90.91617235363935 -29.02477845079892 79.84213704530382 -29.29530429840088 68.74700832366943 C-29.425234958527767 63.593140864289126 -29.60085370099017 58.449801815991364 -29.885986328125 53.302001953125 C-31.741407495298688 18.94446174800685 -31.741407495298688 18.94446174800685 -25.51385498046875 11.61016845703125 C-19.05714777070216 5.378368788006924 -9.060055536662674 0 0 0 Z " fill="#DC390D" transform="translate(286,43)"/>
<path d="M0 0 C0 31.349999999999994 0 62.7 0 95 C-8.909999999999997 95 -17.819999999999993 95 -27 95 C-27.180777437197804 84.65570645419061 -27.327526018952682 74.3124625501704 -27.41449737548828 63.966946601867676 C-27.45624083172703 59.16299550468332 -27.512850784765675 54.360181397183936 -27.603515625 49.556884765625 C-27.69047620289649 44.92079198554373 -27.738280479269406 40.2857921728403 -27.759017944335938 35.64894676208496 C-27.77379424041027 33.88056411877881 -27.8026511926833 32.11224102168572 -27.845840454101563 30.344324111938477 C-28.170787182431013 16.491237702363435 -28.170787182431013 16.491237702363435 -25.330429077148438 12.873458862304688 C-23.243640486329213 11.542805511299647 -21.3522785938232 10.745227931414732 -19 10 C-18.160256347656258 9.509753417968753 -17.320512695312487 9.019506835937499 -16.455322265625 8.514404296875 C-15.749479980468749 8.12164306640625 -15.043637695312498 7.7288818359375 -14.31640625 7.32421875 C-13.534589843750013 6.88916015625 -12.752773437499997 6.4541015625 -11.947265625 6.005859375 C-10.766806640624992 5.353271484375 -10.766806640624992 5.353271484375 -9.5625 4.6875 C-8.748457031249984 4.233105468749997 -7.934414062499997 3.7787109375000014 -7.095703125 3.310546875 C-6.322910156250003 2.8819335937499986 -5.550117187500007 2.453320312499997 -4.75390625 2.01171875 C-4.055959472656241 1.6245971679687514 -3.3580126953125102 1.2374755859375028 -2.638916015625 0.838623046875 C-1 0 -1 0 0 0 Z " fill="#DD390D" transform="translate(210,42)"/>
<path d="M0 0 C1.0615429687500182 -0.03093749999999318 1.0615429687500182 -0.03093749999999318 2.14453125 -0.0625 C6.661017646293715 -0.09614235676940552 9.559860336227132 0.42106508515155383 13.125 3.25 C13.9375 5.4375 13.9375 5.4375 14.125 7.25 C11.649999999999977 6.7549999999999955 11.649999999999977 6.7549999999999955 9.125 6.25 C9.125 5.590000000000003 9.125 4.930000000000007 9.125 4.25 C0.0712911548429247 4.0427988560524 0.0712911548429247 4.0427988560524 -8.875 5.25 C-9.204999999999984 6.900000000000006 -9.535000000000025 8.550000000000011 -9.875 10.25 C-8.012949218750009 10.306074218750013 -8.012949218750009 10.306074218750013 -6.11328125 10.36328125 C-4.47132488520333 10.428959504591859 -2.8293991319507654 10.495406203551738 -1.1875 10.5625 C-0.3708789062500273 10.585058593750006 0.4457421875000023 10.607617187500011 1.287109375 10.630859375 C5.96366983193758 10.839127249600466 9.379660958338263 11.141220558304497 13.125 14.25 C14.12094720799331 17.37063458504568 14.378143949819219 19.33868178065083 13.5 22.5 C11.603738781121137 24.91342336948216 10.062916745728558 25.33239329523491 7.125 26.25 C4.4109458670805 26.464121074011075 1.8348226518120896 26.57499918197331 -0.875 26.5625 C-1.5736718750000023 26.57861328125 -2.2723437500000045 26.5947265625 -2.9921875 26.611328125 C-7.416476973342583 26.61550198299372 -10.480104525831962 26.18738026378213 -13.875 23.25 C-13.875 21.930000000000007 -13.875 20.610000000000014 -13.875 19.25 C-12.555000000000007 19.25 -11.235000000000014 19.25 -9.875 19.25 C-9.875 20.24000000000001 -9.875 21.22999999999999 -9.875 22.25 C-7.833636051424662 22.304517138092507 -5.791841443146382 22.34302485435788 -3.75 22.375 C-2.613046875000009 22.39820312500001 -1.4760937500000182 22.42140624999999 -0.3046875 22.4453125 C3.18257766678272 22.24672108959095 5.880386201217675 21.502480098618122 9.125 20.25 C9.125 18.599999999999994 9.125 16.94999999999999 9.125 15.25 C8.53485107421875 15.230180664062487 7.9447021484375 15.210361328125003 7.336669921875 15.18994140625 C4.661499035686575 15.09465341443655 1.987105022585979 14.984990610935682 -0.6875 14.875 C-1.6162695312499977 14.844062500000007 -2.5450390624999955 14.813125000000014 -3.501953125 14.78125 C-4.394628906249977 14.742578124999994 -5.287304687500011 14.703906249999989 -6.20703125 14.6640625 C-7.440301513671898 14.616931152343739 -7.440301513671898 14.616931152343739 -8.698486328125 14.56884765625 C-10.875 14.25 -10.875 14.25 -13.875 12.25 C-14.54299204771371 5.236083499005957 -14.54299204771371 5.236083499005957 -12.5625 2.3125 C-8.603806566587707 -0.18001068029661837 -4.509502216943645 0.0325009168788597 0 0 Z " fill="#000000" transform="translate(360.875,186.75)"/>
<path d="M0 0 C4.104340512273268 -0.05380781443619753 8.207979927002043 -0.09358213175397623 12.3125 -0.125 C13.479746093750009 -0.1417578125000034 14.646992187500018 -0.15851562500000682 15.849609375 -0.17578125 C16.967871093749977 -0.18222656250000568 18.08613281250001 -0.18867187500001137 19.23828125 -0.1953125 C20.269934082031227 -0.20578613281250568 21.30158691406251 -0.21625976562501137 22.364501953125 -0.22705078125 C25 0 25 0 28 2 C29.364208916454913 6.617322486462683 28.786424258451234 9.586481243826313 27 14 C27.329999999999984 14.330000000000013 27.660000000000025 14.659999999999997 28 15 C28.07179963979678 16.51928037810029 28.083920072994374 18.041674817400605 28.0625 19.5625 C28.05347656250001 20.388789062499995 28.044453125000018 21.21507812499999 28.03515625 22.06640625 C28.023554687499995 22.704492187499994 28.01195312499999 23.34257812499999 28 24 C26.680000000000007 24 25.360000000000014 24 24 24 C23.670000000000016 21.360000000000014 23.339999999999975 18.72 23 16 C16.730000000000018 15.669999999999987 10.45999999999998 15.340000000000003 4 15 C4 17.97 4 20.939999999999998 4 24 C2.680000000000007 24 1.3600000000000136 24 0 24 C0 16.079999999999984 0 8.159999999999997 0 0 Z M4 3 C4 5.969999999999999 4 8.939999999999998 4 12 C6.583403842623284 12.02703562160886 9.16652308446902 12.04685610864297 11.75 12.0625 C12.479609374999995 12.070878906249987 13.209218749999991 12.079257812500003 13.9609375 12.087890625 C17.486705575860583 12.103916843526633 20.610349163132696 11.952927132154343 24 11 C25.015401124496066 6.897764146447344 25.015401124496066 6.897764146447344 24 3 C17.399999999999977 3 10.800000000000011 3 4 3 Z " fill="#000000" transform="translate(264,188)"/>
<path d="M0 0 C4.104340512273254 -0.05380781443619753 8.207979927002029 -0.09358213175397623 12.3125 -0.125 C13.479746093749995 -0.1417578125000034 14.646992187500004 -0.15851562500000682 15.849609375 -0.17578125 C16.967871093750006 -0.18222656250000568 18.086132812499997 -0.18867187500001137 19.23828125 -0.1953125 C20.269934082031256 -0.20578613281250568 21.301586914062497 -0.21625976562501137 22.364501953125 -0.22705078125 C25 0 25 0 28 2 C28.328125 4.3125 28.328125 4.3125 28.25 7 C28.234531250000003 7.886875000000003 28.219062500000007 8.773750000000007 28.203125 9.6875 C28 12 28 12 27 14 C27.33 14.659999999999997 27.659999999999997 15.319999999999993 28 16 C28.134154723656465 18.67236209523685 28.043185405094547 21.322504884138368 28 24 C26.680000000000007 24 25.36 24 24 24 C23.67 21.360000000000014 23.340000000000003 18.72 23 16 C16.400000000000006 15.669999999999987 9.799999999999997 15.340000000000003 3 15 C3 17.97 3 20.939999999999998 3 24 C2.010000000000005 24 1.019999999999996 24 0 24 C0 16.079999999999984 0 8.159999999999997 0 0 Z M3 3 C3 5.969999999999999 3 8.939999999999998 3 12 C5.750066082146603 12.027020299933753 8.499865464246312 12.04684882784531 11.25 12.0625 C12.027304687499992 12.070878906249987 12.804609374999998 12.079257812500003 13.60546875 12.087890625 C14.359570312499997 12.091113281249989 15.113671874999994 12.094335937500006 15.890625 12.09765625 C16.581884765625006 12.102893066406239 17.273144531249997 12.108129882812506 17.9853515625 12.113525390625 C20.099738977982668 11.994379711008008 21.966415151413884 11.576182373766073 24 11 C24.67801034038098 8.099268190212968 24.67801034038098 8.099268190212968 25 5 C23.223981572409357 2.8069774305224087 23.223981572409357 2.8069774305224087 20.93701171875 2.77294921875 C20.109594726562506 2.7834228515625057 19.282177734374997 2.7938964843750114 18.4296875 2.8046875 C17.533789062500006 2.8111328125000057 16.637890624999997 2.8175781250000114 15.71484375 2.82421875 C14.309121093750008 2.849355468749991 14.309121093750008 2.849355468749991 12.875 2.875 C11.457675781250003 2.8885351562499864 11.457675781250003 2.8885351562499864 10.01171875 2.90234375 C7.674371729031776 2.9259533158683553 5.33715450541429 2.96182506252498 3 3 Z " fill="#000000" transform="translate(90,188)"/>
<path d="M0 0 C8.25 0 16.5 0 25 0 C25 0.9900000000000091 25 1.9799999999999898 25 3 C18.069999999999993 3 11.139999999999986 3 4 3 C4 5.310000000000002 4 7.6200000000000045 4 10 C10.600000000000023 10 17.19999999999999 10 24 10 C24 10.990000000000009 24 11.97999999999999 24 13 C17.399999999999977 13 10.800000000000011 13 4 13 C4 15.639999999999986 4 18.28 4 21 C10.930000000000007 21 17.860000000000014 21 25 21 C25 21.99000000000001 25 22.97999999999999 25 24 C16.75 24 8.5 24 0 24 C0 16.079999999999984 0 8.159999999999997 0 0 Z " fill="#000000" transform="translate(308,188)"/>
<path d="M0 0 C8.25 0 16.5 0 25 0 C25 0.9900000000000091 25 1.9799999999999898 25 3 C18.069999999999993 3 11.139999999999986 3 4 3 C4 5.310000000000002 4 7.6200000000000045 4 10 C10.599999999999994 10 17.19999999999999 10 24 10 C24 10.990000000000009 24 11.97999999999999 24 13 C17.400000000000006 13 10.800000000000011 13 4 13 C4 15.639999999999986 4 18.28 4 21 C10.930000000000007 21 17.860000000000014 21 25 21 C25 21.99000000000001 25 22.97999999999999 25 24 C16.75 24 8.5 24 0 24 C0 16.079999999999984 0 8.159999999999997 0 0 Z " fill="#000000" transform="translate(134,188)"/>
<path d="M0 0 C4.083728834976483 -0.08083627459265585 8.165862093770642 -0.14042706035630204 12.25 -0.1875 C13.408867187499993 -0.2126367187499909 14.567734374999986 -0.23777343750001023 15.76171875 -0.263671875 C16.87675781249999 -0.2733398437499943 17.991796875000006 -0.28300781249998863 19.140625 -0.29296875 C20.16704101562499 -0.3086791992187443 21.193457031250006 -0.32438964843748863 22.2509765625 -0.340576171875 C25.43699091760479 0.05413875044925476 26.786012520672614 0.6897099018442532 29 3 C29.517578125 4.9453125 29.517578125 4.9453125 29.53125 7.125 C29.53640625 7.913906249999997 29.541562499999998 8.702812499999993 29.546875 9.515625 C29.531406250000003 10.33546874999999 29.515937500000007 11.155312500000008 29.5 12 C29.515468749999997 12.81984374999999 29.530937499999993 13.639687500000008 29.546875 14.484375 C29.54171875 15.273281249999997 29.536562500000002 16.062187499999993 29.53125 16.875 C29.526738281250005 17.594296874999998 29.52222656250001 18.313593749999995 29.517578125 19.0546875 C29 21 29 21 27.3330078125 22.739501953125 C24.40810382889822 24.319794886081866 22.455734006834064 24.343710214390313 19.140625 24.29296875 C18.02558593750001 24.283300781250006 16.910546874999994 24.27363281250001 15.76171875 24.263671875 C14.02341796875001 24.225966796875014 14.02341796875001 24.225966796875014 12.25 24.1875 C10.488496093750001 24.167197265624992 10.488496093750001 24.167197265624992 8.69140625 24.146484375 C5.794074828588464 24.111151064982778 2.896979352848348 24.057344899213263 0 24 C0 16.079999999999984 0 8.159999999999997 0 0 Z M3 3 C3 8.939999999999998 3 14.879999999999995 3 21 C6.291720693779723 21.026883381346664 9.583223539768994 21.046782104214458 12.875 21.0625 C13.812148437500014 21.070878906250016 14.749296874999999 21.079257812500003 15.71484375 21.087890625 C16.610742187499994 21.09111328124999 17.50664062499999 21.094335937500006 18.4296875 21.09765625 C19.257104492187494 21.10289306640624 20.08452148437499 21.108129882812506 20.93701171875 21.113525390625 C23.06411756605536 21.13352137934038 23.06411756605536 21.13352137934038 25 20 C25.932496135617924 17.202511593146255 26.134761521711113 15.45679118734131 26.125 12.5625 C26.127578125000014 11.800664062500005 26.13015625 11.038828125000009 26.1328125 10.25390625 C26.00084084947474 8.014269710203848 25.736140898947752 6.119899424184979 25 4 C22.599401834123398 2.799700917061699 21.106393505944254 2.885402572747182 18.4296875 2.90234375 C17.085839843749994 2.9071777343750114 17.085839843749994 2.9071777343750114 15.71484375 2.912109375 C14.777695312499986 2.9204882812499875 13.840546875000001 2.9288671875000034 12.875 2.9375 C11.457675781250003 2.944267578124993 11.457675781250003 2.944267578124993 10.01171875 2.951171875 C7.674452304739617 2.9629762509861735 5.337218309888243 2.980912010173313 3 3 Z " fill="#000000" transform="translate(174,188)"/>
<path d="M0 0 C0.8030859374999864 -0.020624999999995453 1.6061718750000011 -0.041249999999990905 2.43359375 -0.0625 C7.114278084463791 -0.09334470731113242 10.39676771777863 0.08063488434436294 14.125 3.25 C14.9375 6.4375 14.9375 6.4375 15.125 9.25 C13.805000000000007 9.25 12.485000000000014 9.25 11.125 9.25 C10.795000000000016 7.930000000000007 10.465000000000003 6.610000000000014 10.125 5.25 C6.034427754824833 4.100023950529561 2.0921718210557287 4.1394422735196486 -2.125 4.1875 C-4.6825000000000045 4.2081249999999955 -7.240000000000009 4.228749999999991 -9.875 4.25 C-9.875 10.189999999999998 -9.875 16.129999999999995 -9.875 22.25 C-7.3174999999999955 22.270624999999995 -4.759999999999991 22.29124999999999 -2.125 22.3125 C-1.3261035156249932 22.32160400390626 -0.5272070312499864 22.33070800781249 0.2958984375 22.340087890625 C3.753931381903783 22.353589026805935 6.803496996788198 22.18376884039708 10.125 21.25 C10.454999999999984 19.930000000000007 10.784999999999997 18.610000000000014 11.125 17.25 C12.444999999999993 17.25 13.764999999999986 17.25 15.125 17.25 C14.9375 20.0625 14.9375 20.0625 14.125 23.25 C9.793644513456627 26.900592345239886 5.50825629537735 26.703651471848048 0.125 26.625 C-0.6690624999999955 26.636601562500005 -1.463124999999991 26.64820312500001 -2.28125 26.66015625 C-6.922209748577444 26.63695145125712 -10.161963560742777 26.339362349850717 -13.875 23.25 C-15.023885808003513 19.80334257598946 -15.078934702539897 17.00648094977157 -15.125 13.375 C-15.163671875000006 11.553554687499997 -15.163671875000006 11.553554687499997 -15.203125 9.6953125 C-14.85079765999052 5.995875429900309 -14.163522148482599 4.14808178616255 -11.875 1.25 C-7.873898773537633 -0.08370040882078911 -4.189965974749811 0.026645252621619875 0 0 Z " fill="#000000" transform="translate(232.875,186.75)"/>
<path d="M0 0 C9.240000000000009 0 18.480000000000018 0 28 0 C28 0.9900000000000091 28 1.9799999999999898 28 3 C24.04000000000002 3 20.079999999999984 3 16 3 C16 9.930000000000007 16 16.860000000000014 16 24 C14.680000000000007 24 13.360000000000014 24 12 24 C12 17.069999999999993 12 10.139999999999986 12 3 C8.04000000000002 3 4.079999999999984 3 0 3 C0 2.009999999999991 0 1.0200000000000102 0 0 Z " fill="#000000" transform="translate(389,188)"/>
<path d="M0 0 C1.3199999999999932 0.3300000000000125 2.6399999999999864 0.6599999999999966 4 1 C4.3300000000000125 2.9799999999999898 4.659999999999997 4.960000000000008 5 7 C5.659999999999997 7 6.319999999999993 7 7 7 C7.3300000000000125 5.02000000000001 7.659999999999997 3.039999999999992 8 1 C9.319999999999993 0.6699999999999875 10.639999999999986 0.3400000000000034 12 0 C12 3.960000000000008 12 7.9199999999999875 12 12 C10.680000000000007 11.669999999999987 9.360000000000014 11.340000000000003 8 11 C6.680000000000007 11 5.360000000000014 11 4 11 C3.6699999999999875 10.009999999999991 3.3400000000000034 9.02000000000001 3 8 C2.6699999999999875 9.319999999999993 2.3400000000000034 10.639999999999986 2 12 C1.3400000000000034 12 0.6800000000000068 12 0 12 C0 8.039999999999992 0 4.0800000000000125 0 0 Z " fill="#000000" transform="translate(181,234)"/>
<path d="M0 0 C0.9900000000000091 0 1.9799999999999898 0 3 0 C3.990000000000009 1.9799999999999898 4.97999999999999 3.960000000000008 6 6 C6.659999999999997 4.02000000000001 7.319999999999993 2.039999999999992 8 0 C8.990000000000009 0 9.97999999999999 0 11 0 C11 3.960000000000008 11 7.9199999999999875 11 12 C10.340000000000003 12 9.680000000000007 12 9 12 C8.669999999999987 11.340000000000003 8.340000000000003 10.680000000000007 8 10 C7.6699999999999875 10.659999999999997 7.340000000000003 11.319999999999993 7 12 C6.009999999999991 12 5.02000000000001 12 4 12 C3.6699999999999875 11.340000000000003 3.3400000000000034 10.680000000000007 3 10 C2.6699999999999875 10.659999999999997 2.3400000000000034 11.319999999999993 2 12 C1.3400000000000034 12 0.6800000000000068 12 0 12 C0 8.039999999999992 0 4.0800000000000125 0 0 Z " fill="#000000" transform="translate(198,234)"/>
<path d="M0 0 C1.9375 1.5625 1.9375 1.5625 3 4 C2.875 7.625 2.875 7.625 2 11 C-1 13 -1 13 -4.0625 12.8125 C-7 12 -7 12 -9 9 C-9.325028027735755 5.879730933736681 -9.511514789106343 3.8525246485105527 -7.875 1.125 C-5.088939576585972 -0.5466362540484226 -3.180111380929503 -0.4637662430522198 0 0 Z M-5 2 C-6.198382087918247 4.328544634114564 -6.198382087918247 4.328544634114564 -7 7 C-6.009999999999991 8.485000000000014 -6.009999999999991 8.485000000000014 -5 10 C-3.3499999999999943 9.669999999999987 -1.6999999999999886 9.340000000000003 0 9 C0 7.02000000000001 0 5.039999999999992 0 3 C-1.6500000000000057 2.6699999999999875 -3.3000000000000114 2.3400000000000034 -5 2 Z " fill="#000000" transform="translate(174,234)"/>
<path d="M0 0 C7.75 -0.125 7.75 -0.125 10 1 C10 4.6299999999999955 10 8.259999999999991 10 12 C9.009999999999991 11.669999999999987 8.02000000000001 11.340000000000003 7 11 C7 10.009999999999991 7 9.02000000000001 7 8 C5.349999999999994 8 3.6999999999999886 8 2 8 C2 9.319999999999993 2 10.639999999999986 2 12 C1.3400000000000034 12 0.6800000000000068 12 0 12 C0 8.039999999999992 0 4.0800000000000125 0 0 Z M2 2 C2 2.990000000000009 2 3.9799999999999898 2 5 C3.9799999999999898 5 5.960000000000008 5 8 5 C7.6699999999999875 4.009999999999991 7.340000000000003 3.0200000000000102 7 2 C5.349999999999994 2 3.6999999999999886 2 2 2 Z " fill="#000000" transform="translate(228,234)"/>
<path d="M0 0 C2.969999999999999 0 5.939999999999998 0 9 0 C9 0.6599999999999966 9 1.3199999999999932 9 2 C7.02000000000001 2 5.039999999999992 2 3 2 C3 2.990000000000009 3 3.9799999999999898 3 5 C4.97999999999999 5 6.960000000000008 5 9 5 C9 5.659999999999997 9 6.319999999999993 9 7 C7.02000000000001 7 5.039999999999992 7 3 7 C3 7.990000000000009 3 8.97999999999999 3 10 C5.310000000000002 10 7.6200000000000045 10 10 10 C10 10.659999999999997 10 11.319999999999993 10 12 C6.699999999999989 12 3.4000000000000057 12 0 12 C0 8.039999999999992 0 4.0800000000000125 0 0 Z " fill="#000000" transform="translate(214,234)"/>
<path d="M0 0 C2.969999999999999 0 5.939999999999998 0 9 0 C9 0.6599999999999966 9 1.3199999999999932 9 2 C7.02000000000001 2 5.039999999999992 2 3 2 C3 2.990000000000009 3 3.9799999999999898 3 5 C4.97999999999999 5 6.960000000000008 5 9 5 C9 5.659999999999997 9 6.319999999999993 9 7 C7.02000000000001 7 5.039999999999992 7 3 7 C3 7.990000000000009 3 8.97999999999999 3 10 C5.310000000000002 10 7.6200000000000045 10 10 10 C10 10.659999999999997 10 11.319999999999993 10 12 C6.699999999999989 12 3.4000000000000057 12 0 12 C0 8.039999999999992 0 4.0800000000000125 0 0 Z " fill="#000000" transform="translate(128,234)"/>
<path d="M0 0 C6.34507042253523 -0.3591549295774712 6.34507042253523 -0.3591549295774712 8.9375 1.0625 C10.591625836252717 4.078847113166688 10.305757628970014 6.636666081329878 10 10 C8 12 8 12 6.0546875 12.1953125 C4.036458333333314 12.130208333333343 2.0182291666666856 12.065104166666657 0 12 C0 8.039999999999992 0 4.0800000000000125 0 0 Z M2 2 C2 4.639999999999986 2 7.280000000000001 2 10 C3.6499999999999773 9.669999999999987 5.300000000000011 9.340000000000003 7 9 C7.772422690169435 7.162992109548412 7.772422690169435 7.162992109548412 8 5 C6.833333333333314 3.166666666666657 6.833333333333314 3.166666666666657 5 2 C4.009999999999991 2 3.019999999999982 2 2 2 Z " fill="#000000" transform="translate(360,234)"/>
<path d="M0 0 C0.9487499999999898 0.041249999999990905 1.897500000000008 0.08250000000001023 2.875 0.125 C3.5349999999999966 1.4449999999999932 4.194999999999993 2.7649999999999864 4.875 4.125 C3.884999999999991 4.125 2.8950000000000102 4.125 1.875 4.125 C1.875 3.4650000000000034 1.875 2.805000000000007 1.875 2.125 C0.22499999999999432 2.4550000000000125 -1.4250000000000114 2.7849999999999966 -3.125 3.125 C-2.7949999999999875 5.10499999999999 -2.4650000000000034 7.085000000000008 -2.125 9.125 C1.3400000000000034 8.629999999999995 1.3400000000000034 8.629999999999995 4.875 8.125 C4.5449999999999875 9.444999999999993 4.215000000000003 10.764999999999986 3.875 12.125 C1.125 12.875 1.125 12.875 -2.125 13.125 C-4.5625 11.625 -4.5625 11.625 -6.125 9.125 C-5.818370165745847 0.23273480662982138 -5.818370165745847 0.23273480662982138 0 0 Z " fill="#000000" transform="translate(156.125,233.875)"/>
<path d="M0 0 C0.6599999999999966 1.3199999999999932 1.3199999999999932 2.6399999999999864 2 4 C-0.6399999999999864 3.6699999999999875 -3.280000000000001 3.3400000000000034 -6 3 C-5.6699999999999875 4.97999999999999 -5.340000000000003 6.960000000000008 -5 9 C-1.5349999999999966 8.504999999999995 -1.5349999999999966 8.504999999999995 2 8 C1.6699999999999875 9.319999999999993 1.3400000000000034 10.639999999999986 1 12 C-1.6599789112602252 12.738883030905612 -3.534645440023752 13.10341212443916 -6.25 12.5 C-8 11 -8 11 -8.9375 7.625 C-9 4 -9 4 -7.9375 1.5625 C-5.261050482078957 -0.5959270305814925 -3.34099864414128 -0.29697765725700265 0 0 Z " fill="#000000" transform="translate(251,234)"/>
<path d="M0 0 C2.9700000000000273 0 5.939999999999998 0 9 0 C9 0.6599999999999966 9 1.3199999999999932 9 2 C6.689999999999998 2 4.3799999999999955 2 2 2 C2 2.990000000000009 2 3.9799999999999898 2 5 C3.980000000000018 5 5.9599999999999795 5 8 5 C8 5.659999999999997 8 6.319999999999993 8 7 C6.019999999999982 7 4.0400000000000205 7 2 7 C2 7.990000000000009 2 8.97999999999999 2 10 C4.310000000000002 10 6.6200000000000045 10 9 10 C9 10.659999999999997 9 11.319999999999993 9 12 C6.029999999999973 12 3.0600000000000023 12 0 12 C0 8.039999999999992 0 4.0800000000000125 0 0 Z " fill="#000000" transform="translate(258,234)"/>
<path d="M0 0 C6.15234375 -0.09765625 6.15234375 -0.09765625 8 0 C9 1 9 1 9.0625 4.0625 C9.041875000000005 5.031875000000014 9.021250000000009 6.001249999999999 9 7 C6.689999999999998 7.3300000000000125 4.3799999999999955 7.659999999999997 2 8 C2 9.319999999999993 2 10.639999999999986 2 12 C1.339999999999975 12 0.6800000000000068 12 0 12 C0 8.039999999999992 0 4.0800000000000125 0 0 Z M2 2 C2 3.319999999999993 2 4.639999999999986 2 6 C3.6499999999999773 5.6699999999999875 5.300000000000011 5.340000000000003 7 5 C6.670000000000016 4.009999999999991 6.339999999999975 3.0200000000000102 6 2 C4.680000000000007 2 3.3600000000000136 2 2 2 Z " fill="#000000" transform="translate(279,234)"/>
<path d="M0 0 C0.9900000000000091 0.3300000000000125 1.9800000000000182 0.6599999999999966 3 1 C4.1875 4.0625 4.1875 4.0625 5 7 C5.990000000000009 4.689999999999998 6.980000000000018 2.3799999999999955 8 0 C8.990000000000009 0 9.980000000000018 0 11 0 C10.52309796363113 1.6256660610813185 10.043403343926002 3.2505131061639077 9.5625 4.875 C9.295664062500009 5.779921875000014 9.028828125000018 6.684843749999999 8.75390625 7.6171875 C8 10 8 10 7 12 C5.109375 11.7421875 5.109375 11.7421875 3 11 C1.953125 9.2578125 1.953125 9.2578125 1.25 7.125 C1.007656250000025 6.426328124999998 0.7653124999999932 5.7276562499999955 0.515625 5.0078125 C0 3 0 3 0 0 Z " fill="#000000" transform="translate(292,234)"/>
<path d="M0 0 C3.3000000000000114 0 6.600000000000023 0 10 0 C10 0.6599999999999966 10 1.3199999999999932 10 2 C8.680000000000007 2 7.360000000000014 2 6 2 C6 5.300000000000011 6 8.599999999999994 6 12 C5.339999999999975 12 4.680000000000007 12 4 12 C4 8.699999999999989 4 5.400000000000006 4 2 C2.680000000000007 2 1.3600000000000136 2 0 2 C0 1.3400000000000034 0 0.6800000000000068 0 0 Z " fill="#000000" transform="translate(346,234)"/>
<path d="M0 0 C3.3000000000000114 0 6.600000000000023 0 10 0 C10 0.6599999999999966 10 1.3199999999999932 10 2 C8.680000000000007 2 7.360000000000014 2 6 2 C6 5.300000000000011 6 8.599999999999994 6 12 C5.339999999999975 12 4.680000000000007 12 4 12 C4 8.699999999999989 4 5.400000000000006 4 2 C2.680000000000007 2 1.3600000000000136 2 0 2 C0 1.3400000000000034 0 0.6800000000000068 0 0 Z " fill="#000000" transform="translate(306,234)"/>
<path d="M0 0 C0.660000000000025 0 1.3199999999999932 0 2 0 C2 3.3000000000000114 2 6.599999999999994 2 10 C3.980000000000018 10 5.9599999999999795 10 8 10 C8 10.659999999999997 8 11.319999999999993 8 12 C5.360000000000014 12 2.7200000000000273 12 0 12 C0 8.039999999999992 0 4.0800000000000125 0 0 Z " fill="#000000" transform="translate(335,234)"/>
<path d="M0 0 C1.9799999999999898 0 3.960000000000008 0 6 0 C6 0.6599999999999966 6 1.3199999999999932 6 2 C4.02000000000001 2 2.039999999999992 2 0 2 C0 1.3400000000000034 0 0.6800000000000068 0 0 Z " fill="#000000" transform="translate(141,241)"/>
<path d="M0 0 C0.660000000000025 0 1.3199999999999932 0 2 0 C2 0.6599999999999966 2 1.3199999999999932 2 2 C1.339999999999975 2 0.6800000000000068 2 0 2 C0 1.3400000000000034 0 0.6800000000000068 0 0 Z " fill="#000000" transform="translate(375,244)"/>
<path d="M0 0 C0.660000000000025 0 1.3199999999999932 0 2 0 C2 0.6599999999999966 2 1.3199999999999932 2 2 C1.339999999999975 2 0.6800000000000068 2 0 2 C0 1.3400000000000034 0 0.6800000000000068 0 0 Z " fill="#000000" transform="translate(320,244)"/>
</svg>
